<!-- "display: none" ensures the SVG doesn't take up space even though it's not being shown because of the use of symbol -->
<svg xmlns="http://www.w3.org/2000/svg" style="display:none;">
    <symbol id="twitter" viewBox="0 0 32 32">
        <g id="Outline_Icons">
            <path d="M28.75 9.49999C28.75 9.74999 28.75 10.063 28.75 10.313C28.75 19.001 22.125 29.001 10.062 29.001C6.37402 29.001 2.87402 27.938 -0.000976562 26.063C0.499023 26.126 1.06202 26.126 1.56202 26.126C4.62502 26.126 7.50002 25.126 9.75002 23.313C6.87502 23.313 4.43702 21.375 3.56202 18.75C4.00002 18.875 4.37502 18.875 4.81202 18.875C5.43702 18.875 6.00002 18.812 6.56202 18.687C3.56202 18.062 1.31202 15.374 1.31202 12.249C1.31202 12.186 1.31202 12.186 1.31202 12.124C2.18702 12.624 3.18702 12.937 4.25002 12.937C2.50002 11.812 1.31202 9.74899 1.31202 7.49899C1.31202 6.31099 1.68702 5.18599 2.25002 4.18599C5.43802 8.18599 10.313 10.811 15.75 11.061C15.625 10.561 15.562 10.061 15.562 9.56099C15.562 5.93599 18.5 2.99799 22.125 2.99799C24.063 2.99799 25.75 3.81099 26.938 5.06099C28.438 4.74799 29.876 4.24799 31.126 3.49799C30.626 4.99799 29.563 6.31099 28.251 7.12299C29.564 6.93499 30.814 6.62299 32.001 6.05999C31.126 7.37299 30.001 8.55999 28.751 9.49799L28.75 9.49999Z"/>
        </g>
        <g id="Invisible_Shape">
            <rect fill="none" stroke="none" width="32" height="32"></rect>
        </g>
    </symbol>
    <symbol id="linkedin" viewBox="0 0 32 32">
        <g id="Outline_Icons">
            <path d="M23.938 16.375C23.5 15.875 22.75 15.625 21.688 15.625C20.313 15.625 19.375 16.063 18.813 16.813C18.25 17.626 18 18.751 18 20.188V31.126C18 31.314 17.937 31.501 17.75 31.689C17.625 31.814 17.375 31.939 17.187 31.939H11.437C11.249 31.939 11.062 31.814 10.874 31.689C10.749 31.501 10.624 31.314 10.624 31.126V10.938C10.624 10.75 10.749 10.563 10.874 10.375C11.062 10.25 11.249 10.125 11.437 10.125H17C17.188 10.125 17.375 10.188 17.5 10.25C17.625 10.312 17.688 10.5 17.75 10.688C17.75 10.876 17.813 11.063 17.813 11.126C17.813 11.189 17.813 11.376 17.813 11.626C19.251 10.251 21.188 9.62601 23.501 9.62601C26.189 9.62601 28.251 10.251 29.751 11.564C31.251 12.939 32.001 14.877 32.001 17.502V31.127C32.001 31.315 31.938 31.502 31.751 31.69C31.626 31.815 31.376 31.94 31.188 31.94H25.313C25.125 31.94 24.938 31.815 24.75 31.69C24.625 31.502 24.5 31.315 24.5 31.127V18.814C24.5 17.751 24.312 16.939 23.937 16.376L23.938 16.375ZM6.625 6.68801C5.875 7.43801 4.937 7.81301 3.875 7.81301C2.813 7.81301 1.875 7.43801 1.125 6.68801C0.375 5.93801 0 5.06301 0 3.93801C0 2.87501 0.375 2.00001 1.125 1.25001C1.875 0.500012 2.813 0.0620117 3.875 0.0620117C4.938 0.0620117 5.875 0.500012 6.625 1.25001C7.375 2.00001 7.75 2.87501 7.75 3.93801C7.75 5.06301 7.375 5.93801 6.625 6.68801ZM7.563 10.938V31.126C7.563 31.314 7.438 31.501 7.313 31.689C7.125 31.814 6.938 31.939 6.75 31.939H1C0.812 31.939 0.625 31.814 0.437 31.689C0.312 31.501 0.187 31.314 0.187 31.126V10.938C0.187 10.75 0.312 10.563 0.437 10.375C0.625 10.25 0.812 10.125 1 10.125H6.75C6.938 10.125 7.125 10.25 7.313 10.375C7.438 10.563 7.563 10.75 7.563 10.938V10.938Z"/>
        </g>
        <g id="Invisible_Shape">
            <rect fill="none" stroke="none" width="32" height="32"></rect>
        </g>
    </symbol>
    <symbol id="telegram" viewBox="0 0 32 32">
        <g id="Outline_Icons">
            <path d="M29.6882 2.50002L1.25022 13.625C1.25022 13.625 -0.124778 14.063 0.000221526 14.938C0.125222 15.813 1.18822 16.188 1.18822 16.188L8.25122 18.563C8.81422 20.376 10.5012 26.188 10.8142 27.313C11.1892 28.563 11.4392 28.813 11.6272 28.876C11.6902 28.876 11.7522 28.876 11.7522 28.876C12.2522 28.939 12.6272 28.626 12.6272 28.626L17.1272 24.188L24.2522 29.626C26.1902 30.439 26.9402 28.688 26.9402 28.688L32.0032 3.18802C32.0032 1.50002 29.6902 2.50002 29.6902 2.50002H29.6882ZM26.1252 8.31302C25.6252 8.75102 13.8122 19.563 12.6252 20.688L11.9372 26.563C11.8742 27.126 11.3742 27.126 11.1242 26.688C10.6242 25.063 9.43622 20.75 8.81122 18.813L25.5612 7.68802C25.5612 7.68802 26.4992 7.06302 26.4992 7.68802C26.4992 7.68802 26.4992 7.93802 26.1242 8.31302H26.1252Z"/>
        </g>
        <g id="Invisible_Shape">
            <rect fill="none" stroke="none" width="32" height="32"></rect>
        </g>
    </symbol>
    <symbol id="medium" viewBox="0 0 32 32">
        <g id="Outline_Icons">
            <path d="M3.79458 8.18247C3.83434 7.78966 3.68454 7.4014 3.39122 7.13702L0.403361 3.53766V3H9.68067L16.8515 18.7266L23.1559 3H32V3.53766L29.4454 5.98702C29.2251 6.15489 29.1159 6.43081 29.1615 6.7039V24.7007C29.1159 24.9738 29.2251 25.2497 29.4454 25.4176L31.9402 27.8669V28.4046H19.3912V27.8669L21.9757 25.3578C22.2297 25.1039 22.2297 25.0293 22.2297 24.6409V10.0942L15.0439 28.3448H14.0728L5.70682 10.0942V22.326C5.63706 22.8403 5.80786 23.358 6.16993 23.7299L9.53128 27.8072V28.3448H0V27.8072L3.36134 23.7299C3.72079 23.3574 3.88162 22.8362 3.79458 22.326V8.18247Z"/>
        </g>
        <g id="Invisible_Shape">
            <rect fill="none" stroke="none" width="32" height="32"></rect>
        </g>
    </symbol>
    <symbol id="xxx" viewBox="0 0 32 32">
        <g id="Outline_Icons">

        </g>
        <g id="Invisible_Shape">
            <rect fill="none" stroke="none" width="32" height="32"></rect>
        </g>
    </symbol>

</svg>