<!-- "display: none" ensures the SVG doesn't take up space even though it's not being shown because of the use of symbol -->
<svg xmlns="http://www.w3.org/2000/svg" style="display:none;">
    <symbol id="wallet" viewBox="0 0 25 24" >
        <path d="M2.08398 8C2.08398 6.34315 3.42713 5 5.08398 5H18.8757C20.5325 5 21.8757 6.34315 21.8757 8V17C21.8757 18.6569 20.5325 20 18.8757 20H5.08398C3.42713 20 2.08398 18.6569 2.08398 17V8Z"  stroke-width="2"/>
        <path fill-rule="evenodd" clip-rule="evenodd" d="M23.2008 10H18.375C16.8562 10 15.625 11.2312 15.625 12.75C15.625 14.2688 16.8562 15.5 18.375 15.5H23.2008C23.6192 15.5 23.9583 15.1608 23.9583 14.7424V10.7576C23.9583 10.3392 23.6192 10 23.2008 10ZM19.0104 14C19.7295 14 20.3125 13.4404 20.3125 12.75C20.3125 12.0596 19.7295 11.5 19.0104 11.5C18.2913 11.5 17.7083 12.0596 17.7083 12.75C17.7083 13.4404 18.2913 14 19.0104 14Z" fill="none" />
    </symbol>
    <symbol id="grid" viewBox="0 0 24 24">
        <g>
            <path fill="none"
                  d="M10.5002 12.5259C10.5008 12.7851 10.3984 13.0339 10.2156 13.2176C10.0327 13.4014 9.78446 13.5051 9.52525 13.5059H1.72525C1.59686 13.5056 1.46979 13.48 1.35129 13.4306C1.23279 13.3812 1.12519 13.309 1.03464 13.2179C0.944086 13.1269 0.872362 13.019 0.823565 12.9002C0.774768 12.7814 0.749854 12.6542 0.750249 12.5259V1.73586C0.749986 1.60743 0.775022 1.4802 0.823929 1.36144C0.872835 1.24269 0.944654 1.13472 1.03528 1.04372C1.12591 0.952721 1.23358 0.880462 1.35214 0.83107C1.47069 0.781678 1.59782 0.756122 1.72625 0.755859L9.52625 0.768859C9.78528 0.769918 10.0333 0.873699 10.2159 1.05743C10.3985 1.24116 10.5008 1.48982 10.5002 1.74886V12.5259Z"
                  stroke-width="1.5" stroke-linecap="round" stroke-linejoin="round"/>
            <path fill="none"
                  d="M23.2463 6.54389C23.2445 6.80071 23.1408 7.04629 22.9579 7.22667C22.7751 7.40706 22.5282 7.50748 22.2713 7.50589H14.4713C14.3441 7.50681 14.218 7.48265 14.1001 7.43479C13.9823 7.38693 13.875 7.31631 13.7844 7.22697C13.6939 7.13762 13.6218 7.03131 13.5724 6.9141C13.523 6.79689 13.4971 6.67109 13.4963 6.54389V1.73088C13.4979 1.47433 13.6013 1.22889 13.7837 1.04851C13.9662 0.86813 14.2128 0.767555 14.4693 0.768885L22.2693 0.755885C22.5264 0.754021 22.7737 0.854297 22.9569 1.03468C23.1401 1.21506 23.2442 1.4608 23.2463 1.71788V6.54389Z"
                  stroke-width="1.5" stroke-linecap="round" stroke-linejoin="round"/>
            <path fill="none"
                  d="M10.5002 22.2909C10.4995 22.4184 10.4736 22.5445 10.424 22.662C10.3745 22.7795 10.3023 22.8861 10.2116 22.9757C10.1209 23.0653 10.0134 23.1362 9.89529 23.1843C9.77718 23.2323 9.65076 23.2567 9.52324 23.2559L1.72324 23.2429C1.46642 23.2439 1.21968 23.143 1.03724 22.9622C0.854791 22.7815 0.751567 22.5357 0.750244 22.2789V17.4699C0.750899 17.3425 0.776645 17.2166 0.82601 17.0992C0.875376 16.9818 0.947392 16.8753 1.03794 16.7858C1.12849 16.6963 1.2358 16.6255 1.35373 16.5774C1.47167 16.5294 1.59791 16.5051 1.72524 16.5059H9.52524C9.78233 16.5045 10.0294 16.6053 10.2123 16.7861C10.3951 16.9668 10.4987 17.2128 10.5002 17.4699V22.2909Z"
                  stroke-width="1.5" stroke-linecap="round" stroke-linejoin="round"/>
            <path fill="none"
                  d="M14.4723 23.2559C14.3438 23.2556 14.2166 23.23 14.098 23.1806C13.9794 23.1311 13.8717 23.0588 13.781 22.9676C13.6904 22.8765 13.6186 22.7685 13.5697 22.6496C13.5209 22.5307 13.4959 22.4034 13.4963 22.2749V11.4869C13.4959 11.3584 13.5209 11.2312 13.5696 11.1124C13.6184 10.9936 13.6901 10.8855 13.7807 10.7944C13.8712 10.7033 13.9788 10.631 14.0973 10.5815C14.2158 10.5319 14.3429 10.5063 14.4713 10.5059H22.2713C22.3998 10.5063 22.5269 10.5319 22.6454 10.5815C22.7639 10.631 22.8715 10.7033 22.962 10.7944C23.0526 10.8855 23.1243 10.9936 23.173 11.1124C23.2218 11.2312 23.2467 11.3584 23.2463 11.4869V22.2619C23.2469 22.521 23.1447 22.7698 22.9621 22.9536C22.7795 23.1375 22.5315 23.2415 22.2723 23.2429L14.4723 23.2559Z"
                  stroke-width="1.5" stroke-linecap="round" stroke-linejoin="round"/>
        </g>
        <g id="Invisible_Shape">
            <rect fill="none" stroke="none" width="24" height="24"></rect>
        </g>
    </symbol>
    <symbol id="coins" viewBox="0 0 24 24">
        <g>
            <path d="M18 18.75H7.5C7.08579 18.75 6.75 19.0858 6.75 19.5V22.5C6.75 22.9142 7.08579 23.25 7.5 23.25H18C18.4142 23.25 18.75 22.9142 18.75 22.5V19.5C18.75 19.0858 18.4142 18.75 18 18.75Z"
                  fill="none" stroke-width="1.5" stroke-linecap="round" stroke-linejoin="round"/>
            <path d="M19.5 14.25H9C8.58579 14.25 8.25 14.5858 8.25 15V18C8.25 18.4142 8.58579 18.75 9 18.75H19.5C19.9142 18.75 20.25 18.4142 20.25 18V15C20.25 14.5858 19.9142 14.25 19.5 14.25Z"
                  fill="none" stroke-width="1.5" stroke-linecap="round" stroke-linejoin="round"/>
            <path d="M15 9.75H4.5C4.08579 9.75 3.75 10.0858 3.75 10.5V13.5C3.75 13.9142 4.08579 14.25 4.5 14.25H15C15.4142 14.25 15.75 13.9142 15.75 13.5V10.5C15.75 10.0858 15.4142 9.75 15 9.75Z"
                  fill="none" stroke-width="1.5" stroke-linecap="round" stroke-linejoin="round"/>
            <path d="M16.5 5.25H6C5.58579 5.25 5.25 5.58579 5.25 6V9C5.25 9.41421 5.58579 9.75 6 9.75H16.5C16.9142 9.75 17.25 9.41421 17.25 9V6C17.25 5.58579 16.9142 5.25 16.5 5.25Z"
                  fill="none" stroke-width="1.5" stroke-linecap="round" stroke-linejoin="round"/>
            <path d="M21.75 7.5V10.5" fill="none" stroke-width="1.5" stroke-linecap="round" stroke-linejoin="round"/>
            <path d="M20.25 9H23.25" fill="none" stroke-width="1.5" stroke-linecap="round" stroke-linejoin="round"/>
            <path d="M2.25 0.75V3.75" fill="none" stroke-width="1.5" stroke-linecap="round" stroke-linejoin="round"/>
            <path d="M0.75 2.25H3.75" fill="none" stroke-width="1.5" stroke-linecap="round" stroke-linejoin="round"/>
        </g>
        <g id="Invisible_Shape">
            <rect fill="none" stroke="none" width="24" height="24"></rect>
        </g>
    </symbol>
    <symbol id="hammer" viewBox="0 0 33 24">
        <path d="M1.06055 21.49C0.510547 21.49 0.0605469 21.94 0.0605469 22.49C0.0605469 23.04 0.510547 23.49 1.06055 23.49H31.4805C32.0305 23.49 32.4805 23.04 32.4805 22.49C32.4805 21.94 32.0305 21.49 31.4805 21.49H30.3705V17.77L31.1805 18.03C31.2805 18.06 31.3805 18.08 31.4905 18.08C31.9105 18.08 32.3105 17.81 32.4405 17.39C32.6105 16.86 32.3205 16.3 31.7905 16.13L25.9805 14.26V12.99H27.1805C27.7305 12.99 28.1805 12.54 28.1805 11.99C28.1805 11.44 27.7305 10.99 27.1805 10.99H25.9505C25.8105 8.67999 24.8205 6.52998 23.1205 4.88998C21.4705 3.29998 19.3305 2.36 17.0305 2.19V0.75C17.0305 0.34 16.6905 0 16.2805 0C15.8705 0 15.5305 0.34 15.5305 0.75V2.19C13.2305 2.36 11.0905 3.29998 9.44054 4.88998C7.73054 6.52998 6.75055 8.67999 6.61055 10.99H5.38055C4.83055 10.99 4.38055 11.44 4.38055 11.99C4.38055 12.54 4.83055 12.99 5.38055 12.99H6.58055V14.26L0.770546 16.13C0.240546 16.3 -0.0394556 16.86 0.120544 17.39C0.260544 17.81 0.650545 18.08 1.07055 18.08C1.17055 18.08 1.27055 18.06 1.38055 18.03L2.19054 17.77V21.49H1.08055H1.06055ZM25.9705 21.49V16.35L28.3605 17.12V21.49H25.9705ZM23.9505 10.98H21.4405C21.3605 8.93998 20.9005 7.02999 20.0705 5.54999C19.9405 5.31999 19.8105 5.11 19.6705 4.91C20.4205 5.27 21.1205 5.72998 21.7305 6.31998C23.0405 7.57998 23.8205 9.21998 23.9605 10.98H23.9505ZM17.0205 10.98V4.5C17.6505 4.77 18.2605 5.38 18.7605 6.28C19.4605 7.54 19.8705 9.18998 19.9505 10.98H17.0205ZM15.5205 4.5V10.98H12.5905C12.6705 9.19998 13.0705 7.54 13.7805 6.28C14.2905 5.38 14.8905 4.77 15.5205 4.5ZM10.8105 6.31998C11.4205 5.72998 12.1205 5.26 12.8705 4.91C12.7305 5.11 12.6005 5.31999 12.4705 5.54999C11.6405 7.02999 11.1805 8.93998 11.1005 10.98H8.59055C8.73055 9.21998 9.51055 7.57998 10.8205 6.31998H10.8105ZM23.9705 12.98V21.24H21.7205V15.91C21.7205 15.36 21.2705 14.91 20.7205 14.91C20.1705 14.91 19.7205 15.36 19.7205 15.91V21.24H17.2705V15.91C17.2705 15.36 16.8205 14.91 16.2705 14.91C15.7205 14.91 15.2705 15.36 15.2705 15.91V21.24H12.8205V15.91C12.8205 15.36 12.3705 14.91 11.8205 14.91C11.2705 14.91 10.8205 15.36 10.8205 15.91V21.24H8.57055V12.98H23.9805H23.9705ZM4.17054 17.12L6.56055 16.35V21.49H4.17054V17.12Z" />
    </symbol>
    <symbol id="plant" viewBox="0 0 30 32">       
      <path d="M6.33937 12.0901C3.07937 12.0901 0.609375 13.5901 0.609375 15.5901V18.7901V18.8201C0.609375 20.5901 2.52937 21.9701 5.22937 22.2701V24.8101C3.91937 23.5401 2.00937 23.4301 1.92937 23.4301C1.76937 23.4301 1.61937 23.4801 1.51937 23.5901C1.40937 23.7001 1.35937 23.8601 1.36937 24.0101C1.36937 24.0901 1.55938 25.9801 2.87938 27.2501C3.61938 27.9601 4.53938 28.3001 5.23938 28.4701V30.4901C5.23938 31.1001 5.73937 31.6001 6.34937 31.6001C6.95937 31.6001 7.45937 31.1001 7.45937 30.4901V28.4701C8.15937 28.3001 9.06937 27.9601 9.81937 27.2501C11.1394 25.9801 11.3194 24.0901 11.3294 24.0101C11.3394 23.8501 11.2894 23.7001 11.1794 23.5901C11.0694 23.4801 10.9194 23.4201 10.7694 23.4201C10.6894 23.4201 8.78938 23.5301 7.46938 24.8001V22.2701C10.1694 21.9701 12.0894 20.5901 12.0894 18.8201V18.8001V15.5901C12.0894 13.5901 9.61938 12.0901 6.35938 12.0901H6.33937ZM10.0694 18.7901C10.0694 18.9801 9.89937 19.2101 9.61937 19.4301C8.90937 19.9701 7.65937 20.3001 6.33937 20.3001C5.01937 20.3001 3.76938 19.9701 3.05938 19.4301C2.76938 19.2101 2.60938 18.9801 2.60938 18.7901V18.3101C3.59938 18.8201 4.88937 19.1201 6.33937 19.1201C7.78937 19.1201 9.07937 18.8201 10.0694 18.3101V18.7901ZM6.33937 17.1101C4.09937 17.1101 2.60938 16.2001 2.60938 15.6001C2.60938 15.0001 4.09937 14.0901 6.33937 14.0901C8.57937 14.0901 10.0694 15.0001 10.0694 15.6001C10.0694 16.2001 8.57937 17.1101 6.33937 17.1101Z" />
      <path d="M20.1093 12.2C20.1193 12.05 20.0693 11.89 19.9593 11.78C19.8493 11.67 19.6993 11.6 19.5393 11.61C19.4593 11.61 17.6593 11.73 16.3593 12.89V10.88C18.9293 10.53 20.7393 9.17999 20.7393 7.45999V7.44V4.22998C20.7393 2.22998 18.2693 0.72998 15.0093 0.72998C11.7493 0.72998 9.2793 2.22998 9.2793 4.22998V7.42999V7.45999C9.2793 9.27999 11.3093 10.68 14.1293 10.93V30.25C14.1293 30.86 14.6293 31.36 15.2393 31.36C15.8493 31.36 16.3493 30.86 16.3493 30.25V16.62C17.0493 16.44 17.8893 16.1 18.5893 15.43C19.9093 14.16 20.0893 12.27 20.0993 12.19L20.1093 12.2ZM15.0093 2.73999C17.2493 2.73999 18.7393 3.65 18.7393 4.25C18.7393 4.85 17.2493 5.75998 15.0093 5.75998C12.7693 5.75998 11.2793 4.85 11.2793 4.25C11.2793 3.65 12.7693 2.73999 15.0093 2.73999ZM15.0093 8.94998C13.6893 8.94998 12.4393 8.61999 11.7293 8.07999C11.4393 7.85999 11.2793 7.63 11.2793 7.44V6.95999C12.2693 7.46999 13.5593 7.76999 15.0093 7.76999C16.4593 7.76999 17.7493 7.46999 18.7393 6.95999V7.44C18.7393 7.63 18.5693 7.85999 18.2893 8.07999C17.5793 8.61999 16.3293 8.94998 15.0093 8.94998Z" />
      <path d="M29.9502 18.3401C29.9502 16.3401 27.4802 14.8401 24.2202 14.8401C20.9602 14.8401 18.4902 16.3401 18.4902 18.3401V21.5401V21.5701C18.4902 23.3201 20.3802 24.7001 23.0502 25.0101V27.4201C21.7902 26.4901 20.2502 26.3901 20.1802 26.3901C20.0302 26.3901 19.8702 26.4401 19.7702 26.5501C19.6602 26.6601 19.6102 26.8201 19.6202 26.9701C19.6202 27.0501 19.8202 28.9501 21.1302 30.2101C21.9402 30.9901 22.9702 31.3301 23.6902 31.4801C23.8402 31.5401 23.9902 31.5901 24.1702 31.5901C24.3502 31.5901 24.5002 31.5401 24.6502 31.4701C25.3702 31.3301 26.3902 30.9801 27.2102 30.2001C28.5302 28.9301 28.7102 27.0401 28.7202 26.9601C28.7302 26.8101 28.6802 26.6501 28.5702 26.5401C28.4602 26.4301 28.3102 26.3601 28.1602 26.3701C28.0902 26.3701 26.5502 26.4701 25.2902 27.4001V25.0001C28.0202 24.7101 29.9702 23.3301 29.9702 21.5501V21.5301V18.3201L29.9502 18.3401ZM27.9502 21.5401C27.9502 21.7301 27.7802 21.9601 27.5002 22.1801C26.7902 22.7201 25.5402 23.0501 24.2202 23.0501C22.9002 23.0501 21.6502 22.7201 20.9402 22.1801C20.6502 21.9601 20.4902 21.7301 20.4902 21.5401V21.0601C21.4802 21.5701 22.7702 21.8701 24.2202 21.8701C25.6702 21.8701 26.9602 21.5701 27.9502 21.0601V21.5401ZM24.2202 19.8601C21.9802 19.8601 20.4902 18.9501 20.4902 18.3501C20.4902 17.7501 21.9802 16.8401 24.2202 16.8401C26.4602 16.8401 27.9502 17.7501 27.9502 18.3501C27.9502 18.9501 26.4602 19.8601 24.2202 19.8601Z" />
    </symbol>
    <symbol id="swap" viewBox="0 0 24 24">
        <g>
            <path d="M12.75 15.75L23.25 5.25" fill="none" stroke-width="1.5" stroke-linecap="round"
                  stroke-linejoin="round"/>
            <path d="M23.25 9.75V5.25H18.75" fill="none" stroke-width="1.5" stroke-linecap="round"
                  stroke-linejoin="round"/>
            <path d="M11.25 8.25L0.75 18.75" fill="none" stroke-width="1.5" stroke-linecap="round"
                  stroke-linejoin="round"/>
            <path d="M0.75 14.25V18.75H5.25" fill="none" stroke-width="1.5" stroke-linecap="round"
                  stroke-linejoin="round"/>
        </g>
        <g id="Invisible_Shape">
            <rect fill="none" stroke="none" width="24" height="24"></rect>
        </g>
    </symbol>
    <symbol id="bank" viewBox="0 0 24 24">
        <g>
            <path d="M7.5 8.16113H4.5V17.1611H7.5V8.16113Z" fill="none" stroke-width="1.5" stroke-linecap="round"
                  stroke-linejoin="round"/>
            <path d="M13.5 8.16113H10.5V17.1611H13.5V8.16113Z" fill="none" stroke-width="1.5" stroke-linecap="round"
                  stroke-linejoin="round"/>
            <path d="M19.5 8.16113H16.5V17.1611H19.5V8.16113Z" fill="none" stroke-width="1.5" stroke-linecap="round"
                  stroke-linejoin="round"/>
            <path d="M21 20.1611H3V17.9111C3 17.7122 3.07902 17.5215 3.21967 17.3808C3.36032 17.2402 3.55109 17.1611 3.75 17.1611H20.25C20.4489 17.1611 20.6397 17.2402 20.7803 17.3808C20.921 17.5215 21 17.7122 21 17.9111V20.1611Z"
                  fill="none" stroke-width="1.5" stroke-linecap="round" stroke-linejoin="round"/>
            <path d="M1.5 23.1611H22.5" fill="none" stroke-width="1.5" stroke-linecap="round" stroke-linejoin="round"/>
            <path d="M1.5 20.1611H22.5" fill="none" stroke-width="1.5" stroke-linecap="round" stroke-linejoin="round"/>
            <path d="M21 5.16123V7.41123C21 7.61014 20.921 7.80091 20.7803 7.94156C20.6397 8.08221 20.4489 8.16123 20.25 8.16123H3.75C3.55109 8.16123 3.36032 8.08221 3.21967 7.94156C3.07902 7.80091 3 7.61014 3 7.41123V5.16123L11.665 0.829228C11.7691 0.777441 11.8837 0.750488 12 0.750488C12.1163 0.750488 12.2309 0.777441 12.335 0.829228L21 5.16123Z"
                  fill="none" stroke-width="1.5" stroke-linecap="round" stroke-linejoin="round"/>
            <path d="M3 5.16113H21" fill="none" stroke-width="1.5" stroke-linecap="round" stroke-linejoin="round"/>
        </g>
        <g id="Invisible_Shape">
            <rect fill="none" stroke="none" width="24" height="24"></rect>
        </g>
    </symbol>
    <symbol id="shop" viewBox="0 0 24 24">
        <g>
            <path d="M11.564 13.7678C11.6047 13.6873 11.667 13.6196 11.7439 13.5723C11.8208 13.525 11.9093 13.5 11.9995 13.5C12.0898 13.5 12.1783 13.525 12.2551 13.5723C12.332 13.6196 12.3943 13.6873 12.435 13.7678L13.448 15.8098C13.4831 15.8798 13.5347 15.9403 13.5982 15.9861C13.6618 16.0319 13.7355 16.0616 13.813 16.0728L16.085 16.4008C16.174 16.4133 16.2577 16.4503 16.3267 16.5077C16.3958 16.5651 16.4475 16.6406 16.476 16.7258C16.5038 16.8105 16.5072 16.9012 16.4858 16.9877C16.4644 17.0742 16.4191 17.1529 16.355 17.2148L14.705 18.8148C14.6496 18.8685 14.6081 18.9349 14.584 19.0083C14.56 19.0816 14.5542 19.1597 14.567 19.2358L14.956 21.4908C14.9712 21.579 14.961 21.6697 14.9267 21.7524C14.8923 21.8351 14.8352 21.9063 14.762 21.9578C14.6883 22.0101 14.6016 22.041 14.5114 22.0472C14.4213 22.0534 14.3312 22.0346 14.251 21.9928L12.227 20.9338C12.1569 20.8973 12.079 20.8783 12 20.8783C11.921 20.8783 11.8431 20.8973 11.773 20.9338L9.74901 21.9928C9.66886 22.0346 9.57874 22.0534 9.48858 22.0472C9.39842 22.041 9.31171 22.0101 9.23801 21.9578C9.16479 21.9063 9.1077 21.8351 9.07336 21.7524C9.03902 21.6697 9.02884 21.579 9.04401 21.4908L9.43201 19.2358C9.44507 19.1598 9.43943 19.0817 9.41556 19.0084C9.39169 18.935 9.35031 18.8686 9.29501 18.8148L7.64501 17.2148C7.58072 17.153 7.53523 17.0743 7.51382 16.9878C7.4924 16.9013 7.49594 16.8104 7.52401 16.7258C7.55224 16.6407 7.60372 16.5651 7.67264 16.5077C7.74156 16.4502 7.82516 16.4132 7.91401 16.4008L10.186 16.0728C10.2637 16.0616 10.3375 16.0319 10.4012 15.9861C10.4649 15.9403 10.5166 15.8798 10.552 15.8098L11.564 13.7678Z"
                  fill="none" stroke-width="1.5" stroke-linecap="round" stroke-linejoin="round"/>
            <path d="M6 23.25H3.75C3.35218 23.25 2.97064 23.092 2.68934 22.8107C2.40804 22.5294 2.25 22.1478 2.25 21.75V12.75"
                  fill="none" stroke-width="1.5" stroke-linecap="round" stroke-linejoin="round"/>
            <path d="M21.75 12.75V21.75C21.75 22.1478 21.592 22.5294 21.3107 22.8107C21.0294 23.092 20.6478 23.25 20.25 23.25H18"
                  fill="none" stroke-width="1.5" stroke-linecap="round" stroke-linejoin="round"/>
            <path d="M21.148 0.75H2.852C2.6813 0.749972 2.51568 0.808099 2.38244 0.914802C2.24919 1.02151 2.15628 1.17042 2.119 1.337L0.75 7.5C0.75 8.09674 0.987053 8.66903 1.40901 9.09099C1.83097 9.51295 2.40326 9.75 3 9.75C3.59674 9.75 4.16903 9.51295 4.59099 9.09099C5.01295 8.66903 5.25 8.09674 5.25 7.5C5.25 8.09674 5.48705 8.66903 5.90901 9.09099C6.33097 9.51295 6.90326 9.75 7.5 9.75C8.09674 9.75 8.66903 9.51295 9.09099 9.09099C9.51295 8.66903 9.75 8.09674 9.75 7.5C9.75 8.09674 9.98705 8.66903 10.409 9.09099C10.831 9.51295 11.4033 9.75 12 9.75C12.5967 9.75 13.169 9.51295 13.591 9.09099C14.0129 8.66903 14.25 8.09674 14.25 7.5C14.25 8.09674 14.4871 8.66903 14.909 9.09099C15.331 9.51295 15.9033 9.75 16.5 9.75C17.0967 9.75 17.669 9.51295 18.091 9.09099C18.5129 8.66903 18.75 8.09674 18.75 7.5C18.75 8.09674 18.9871 8.66903 19.409 9.09099C19.831 9.51295 20.4033 9.75 21 9.75C21.5967 9.75 22.169 9.51295 22.591 9.09099C23.0129 8.66903 23.25 8.09674 23.25 7.5L21.88 1.337C21.8431 1.17041 21.7504 1.02142 21.6173 0.914675C21.4842 0.80793 21.3186 0.749834 21.148 0.75Z"
                  fill="none" stroke-width="1.5" stroke-linecap="round" stroke-linejoin="round"/>
        </g>
        <g id="Invisible_Shape">
            <rect fill="none" stroke="none" width="24" height="24"></rect>
        </g>
    </symbol>
    <symbol id="satellite" viewBox="0 0 33 27">
        <path
            d="M31.7907 19.1097L23.3107 14.3398C23.0807 14.2098 22.8107 14.1798 22.5507 14.2498C22.2907 14.3198 22.0807 14.4898 21.9507 14.7198L20.7107 16.9298L19.6007 16.3098L21.3307 13.2297C21.4607 12.9997 21.4907 12.7298 21.4207 12.4698C21.3507 12.2098 21.1807 11.9998 20.9507 11.8698L19.7307 11.1798L20.2707 10.2098C21.1307 10.5498 22.0207 10.7198 22.8907 10.7198C25.1307 10.7198 27.2407 9.62975 28.3507 7.66975C28.4807 7.43975 28.5107 7.16977 28.4407 6.90977C28.3707 6.64977 28.2007 6.43976 27.9707 6.30976L23.7907 3.95975L24.1207 3.36976C24.3907 2.88976 24.2207 2.27974 23.7407 2.00974C23.2607 1.73974 22.6507 1.90975 22.3807 2.38975L22.0507 2.97974L17.8707 0.629768C17.3907 0.359768 16.7807 0.529743 16.5107 1.00974C15.6807 2.47974 15.5307 4.20975 16.0907 5.88975C16.5307 7.21975 17.3907 8.37975 18.5307 9.23975L17.9807 10.2098L16.7607 9.51975C16.2807 9.24975 15.6707 9.41976 15.4007 9.89976L13.6707 12.9797L12.5607 12.3597L13.8007 10.1498C13.9307 9.91976 13.9607 9.64975 13.8907 9.38975C13.8207 9.12975 13.6507 8.91974 13.4207 8.78974L4.94072 4.01975C4.71072 3.88975 4.44072 3.85976 4.18072 3.92976C3.92072 3.99976 3.71072 4.16976 3.58072 4.39976L0.360719 10.1198C0.090719 10.5998 0.26072 11.2097 0.74072 11.4797L9.22072 16.2498C9.38072 16.3398 9.54072 16.3798 9.71072 16.3798C10.0607 16.3798 10.4007 16.1998 10.5807 15.8698L11.8207 13.6598L12.9307 14.2798L11.2007 17.3597C10.9307 17.8397 11.1007 18.4498 11.5807 18.7198L12.0607 18.9898L9.90072 20.7897C9.65072 20.9997 9.51072 21.3198 9.54072 21.6498C9.57072 21.9798 9.76072 22.2698 10.0507 22.4298L13.3907 24.3098C13.5407 24.3998 13.7107 24.4398 13.8807 24.4398C14.0307 24.4398 14.1807 24.4098 14.3207 24.3398C14.6207 24.1998 14.8207 23.9098 14.8707 23.5898L15.2907 20.8098L15.7707 21.0697C15.9307 21.1597 16.0907 21.1997 16.2607 21.1997C16.6107 21.1997 16.9507 21.0198 17.1307 20.6898L18.8607 17.6097L19.9707 18.2297L18.7307 20.4398C18.4607 20.9198 18.6307 21.5298 19.1107 21.7998L27.5907 26.5697C27.7407 26.6497 27.9107 26.6997 28.0807 26.6997C28.1707 26.6997 28.2607 26.6898 28.3507 26.6598C28.6107 26.5898 28.8207 26.4198 28.9507 26.1898L32.1707 20.4698C32.4407 19.9898 32.2707 19.3797 31.7907 19.1097ZM17.8807 2.91975L26.0107 7.48975C24.6507 8.86975 22.3207 9.14974 20.3507 8.03974C19.2207 7.39974 18.3807 6.40975 17.9907 5.23975C17.7307 4.44975 17.6907 3.65977 17.8807 2.90977V2.91975ZM10.8207 11.3698L8.11072 9.83976L8.86072 8.50974L11.5707 10.0397L10.8207 11.3698ZM4.84072 6.24976L7.55072 7.77976L6.80072 9.10975L4.09072 7.57975L4.84072 6.24976ZM3.35072 8.88975L6.06072 10.4197L5.31072 11.7498L2.60072 10.2198L3.35072 8.88975ZM9.33072 14.0097L6.62072 12.4797L7.37072 11.1498L10.0807 12.6798L9.33072 14.0097ZM23.2007 16.5798L25.9107 18.1097L25.1607 19.4398L22.4507 17.9098L23.2007 16.5798ZM21.7107 19.2198L24.4207 20.7498L23.6707 22.0798L20.9607 20.5498L21.7107 19.2198ZM27.6907 24.3398L24.9807 22.8098L25.7307 21.4797L28.4407 23.0097L27.6907 24.3398ZM29.1807 21.6997L26.4707 20.1697L27.2207 18.8398L29.9307 20.3698L29.1807 21.6997Z"
        />
    </symbol>
    <symbol fill="none" id="satellite-stroke" viewBox="0 0 24 24">
        <path d="m14.855 13.387 2.122 2.12M17.508 14.978l-1.06 1.06a1.5 1.5 0 0 0 0 2.122l3.181 3.182a1.5 1.5 0 0 0 2.122 0l1.06-1.06a1.5 1.5 0 0 0 0-2.122l-3.182-3.182a1.5 1.5 0 0 0-2.121 0ZM10.613 9.144l-2.12-2.121M3.717 1.19l-1.06 1.06a1.5 1.5 0 0 0 0 2.121l3.181 3.182a1.5 1.5 0 0 0 2.122 0l1.06-1.06a1.5 1.5 0 0 0 0-2.122L5.838 1.19a1.5 1.5 0 0 0-2.121 0ZM12.75 14.25a3 3 0 1 0 0-6 3 3 0 0 0 0 6ZM2.947 10.447a7.5 7.5 0 1 0 10.606 10.606"/><path d="M5.6 13.1a3.75 3.75 0 0 0 5.3 5.3"/>
    </symbol>
    <symbol id="loading" viewBox="0 0 24 24">
        <g>
            <path d="M12 1C5.92487 1 1 5.92487 1 12C1 18.0751 5.92487 23 12 23C18.0751 23 23 18.0751 23 12C23 8.31954 21.1925 5.06125 18.4167 3.06442"
                  fill="none" stroke-linecap="round"/>
        </g>
    </symbol>
    <symbol id="in" viewBox="0 0 24 24">
        <g>
            <path d="M12.002 0.750977V17.751" fill="none" stroke-width="1.5" stroke-linecap="round"
                  stroke-linejoin="round"/>
            <path d="M7.50195 13.251L12.002 17.751L16.502 13.251" fill="none" stroke-width="1.5" stroke-linecap="round"
                  stroke-linejoin="round"/>
            <path d="M15.752 8.5H18C18.7956 8.5 19.5587 8.81607 20.1213 9.37868C20.6839 9.94129 21 10.7044 21 11.5V20.25C21 21.0456 20.6839 21.8087 20.1213 22.3713C19.5587 22.9339 18.7956 23.25 18 23.25H6C5.20435 23.25 4.44129 22.9339 3.87868 22.3713C3.31607 21.8087 3 21.0456 3 20.25V11.5C3 10.7044 3.31607 9.94129 3.87868 9.37868C4.44129 8.81607 5.20435 8.5 6 8.5H8.25"
                  fill="none" stroke-width="1.5" stroke-linecap="round" stroke-linejoin="round"/>
        </g>
        <g id="Invisible_Shape">
            <rect fill="none" stroke="none" width="24" height="24"></rect>
        </g>
    </symbol>
    <symbol id="out" viewBox="0 0 24 24">
        <g>
            <path d="M10.002 17.751V0.750977" fill="none" stroke-width="1.5" stroke-linecap="round"
                  stroke-linejoin="round"/>
            <path d="M5.50195 5.25098L10.002 0.750977L14.502 5.25098" fill="none" stroke-width="1.5"
                  stroke-linecap="round" stroke-linejoin="round"/>
            <path d="M13.752 8.5H16C16.7956 8.5 17.5587 8.81607 18.1213 9.37868C18.6839 9.94129 19 10.7044 19 11.5V20.25C19 21.0456 18.6839 21.8087 18.1213 22.3713C17.5587 22.9339 16.7956 23.25 16 23.25H4C3.20435 23.25 2.44129 22.9339 1.87868 22.3713C1.31607 21.8087 1 21.0456 1 20.25V11.5C1 10.7044 1.31607 9.94129 1.87868 9.37868C2.44129 8.81607 3.20435 8.5 4 8.5H6.25"
                  fill="none" stroke-width="1.5" stroke-linecap="round" stroke-linejoin="round"/>
        </g>
        <g id="Invisible_Shape">
            <rect fill="none" stroke="none" width="24" height="24"></rect>
        </g>
    </symbol>
    <symbol id="switch" viewBox="0 0 24 18" >
        <path d="M23.8352 5.64771L19.5 9.96021C19.2803 10.1799 18.9242 10.1799 18.7045 9.96021L18.3731 9.62881C18.1534 9.40915 18.1534 9.05299 18.3731 8.83329L21.2294 5.99998H0.5625C0.251859 5.99998 0 5.74812 0 5.43748V5.06248C0 4.75184 0.251859 4.49998 0.5625 4.49998H21.2299L18.3731 1.66666C18.1534 1.44701 18.1534 1.09085 18.3731 0.871149L18.7045 0.539742C18.9242 0.320086 19.2803 0.320086 19.5 0.539742L23.8352 4.85224C24.0549 5.0719 24.0549 5.42806 23.8352 5.64771ZM0.164766 13.1477L4.5 17.4602C4.7197 17.6799 5.07581 17.6799 5.29552 17.4602L5.62692 17.1288C5.84662 16.9092 5.84662 16.553 5.62692 16.3333L2.77008 13.5H23.4375C23.7481 13.5 24 13.2481 24 12.9375V12.5625C24 12.2518 23.7481 12 23.4375 12H2.77064L5.62692 9.16667C5.84662 8.94701 5.84662 8.59085 5.62692 8.37115L5.29547 8.03974C5.07581 7.82009 4.71966 7.82004 4.5 8.03974L0.164766 12.3522C-0.0548906 12.5719 -0.0549375 12.9281 0.164766 13.1477Z" />
    </symbol>
    <symbol id="success" viewBox="0 0 24 24">
        <g>
            <path fill="none" class="a" d="M23.25,4.249,11.808,19.505a1.5,1.5,0,0,1-2.261.161L6.57,16.689"></path>
            <path fill="none" class="a" d="M6,19.76a1.5,1.5,0,0,1-2.133.012L.89,16.8"></path>
            <line fill="none" class="a" x1="17.43" y1="4.355" x2="9.29" y2="15.209"></line>
        </g>
        <g id="Invisible_Shape">
            <rect fill="none" stroke="none" width="24" height="24"></rect>
        </g>
    </symbol>
    <symbol id="error" viewBox="0 0 24 24">
        <g>
            <line class="a" x1="0.75" y1="23.249" x2="23.25" y2="0.749"></line>
            <line class="a" x1="23.25" y1="23.249" x2="0.75" y2="0.749"></line>
        </g>
        <g id="Invisible_Shape">
            <rect fill="none" stroke="none" width="24" height="24"></rect>
        </g>
    </symbol>
    <symbol id="warning" viewBox="0 0 24 24">
        <g>
            <path fill="none" class="a" d="M12,16.5a.375.375,0,1,0,.375.375A.375.375,0,0,0,12,16.5h0"></path>
            <line fill="none" class="b" x1="12" y1="13.5" x2="12" y2="6"></line>
            <path fill="none" class="a"
                  d="M1.28,13.281a1.812,1.812,0,0,1,0-2.561l9.44-9.439a1.808,1.808,0,0,1,2.56,0l9.44,9.439a1.812,1.812,0,0,1,0,2.561L13.28,22.72a1.811,1.811,0,0,1-2.56,0Z"></path>
        </g>
        <g id="Invisible_Shape">
            <rect fill="none" stroke="none" width="24" height="24"></rect>
        </g>
    </symbol>
    <symbol id="info" viewBox="0 0 24 24">
        <g>
            <path fill="none" class="a" d="M14.25,16.5H13.5A1.5,1.5,0,0,1,12,15V11.25a.75.75,0,0,0-.75-.75H10.5"></path>
            <path fill="none" class="a" d="M11.625,6.75A.375.375,0,1,0,12,7.125a.375.375,0,0,0-.375-.375h0"></path>
            <circle fill="none" class="a" cx="12" cy="12" r="11.25"></circle>
        </g>
        <g id="Invisible_Shape">
            <rect fill="none" stroke="none" width="24" height="24"></rect>
        </g>
    </symbol>
    <symbol id="man-close" viewBox="0 0 24 24">
        <g>
            <path d="M5.25 6.75C6.90685 6.75 8.25 5.40685 8.25 3.75C8.25 2.09315 6.90685 0.75 5.25 0.75C3.59315 0.75 2.25 2.09315 2.25 3.75C2.25 5.40685 3.59315 6.75 5.25 6.75Z"
                  fill="none" stroke-width="1.5" stroke-linecap="round" stroke-linejoin="round"/>
            <path d="M7.5 23.25L8.25 15.75H9.75V12.75C9.75 11.5565 9.27589 10.4119 8.43198 9.56802C7.58807 8.72411 6.44347 8.25 5.25 8.25C4.05653 8.25 2.91193 8.72411 2.06802 9.56802C1.22411 10.4119 0.75 11.5565 0.75 12.75V15.75H2.25L3 23.25H7.5Z"
                  fill="none" stroke-width="1.5" stroke-linecap="round" stroke-linejoin="round"/>
            <path d="M14 3L23 12" fill="none" stroke-width="1.5" stroke-linecap="round" stroke-linejoin="round"/>
            <path d="M23 3L14 12" fill="none" stroke-width="1.5" stroke-linecap="round" stroke-linejoin="round"/>
        </g>
    </symbol>
    <symbol id="man" viewBox="0 0 24 24">
        <g>
            <path d="M5.25 6.75C6.90685 6.75 8.25 5.40685 8.25 3.75C8.25 2.09315 6.90685 0.75 5.25 0.75C3.59315 0.75 2.25 2.09315 2.25 3.75C2.25 5.40685 3.59315 6.75 5.25 6.75Z"
                   fill="none" stroke-width="1.5" stroke-linecap="round" stroke-linejoin="round"/>
            <path d="M7.5 23.25L8.25 15.75H9.75V12.75C9.75 11.5565 9.27589 10.4119 8.43198 9.56802C7.58807 8.72411 6.44347 8.25 5.25 8.25C4.05653 8.25 2.91193 8.72411 2.06802 9.56802C1.22411 10.4119 0.75 11.5565 0.75 12.75V15.75H2.25L3 23.25H7.5Z"
                   fill="none" stroke-width="1.5" stroke-linecap="round" stroke-linejoin="round"/>
        </g>
    </symbol>
    <symbol id="man--stroke" viewBox="0 0 24 24">
        <g>
            <path d="M5.25 6.75C6.90685 6.75 8.25 5.40685 8.25 3.75C8.25 2.09315 6.90685 0.75 5.25 0.75C3.59315 0.75 2.25 2.09315 2.25 3.75C2.25 5.40685 3.59315 6.75 5.25 6.75Z"
                  fill="none" stroke-width="1.5" stroke-linecap="round" stroke-linejoin="round"/>
            <path d="M7.5 23.25L8.25 15.75H9.75V12.75C9.75 11.5565 9.27589 10.4119 8.43198 9.56802C7.58807 8.72411 6.44347 8.25 5.25 8.25C4.05653 8.25 2.91193 8.72411 2.06802 9.56802C1.22411 10.4119 0.75 11.5565 0.75 12.75V15.75H2.25L3 23.25H7.5Z"
                  fill="none" stroke-width="1.5" stroke-linecap="round" stroke-linejoin="round"/>
            <path d="M12 6.66667L15.6667 10.3333L23 3" fill="none" stroke-width="1.5" stroke-linecap="round"
                  stroke-linejoin="round"/>
        </g>
    </symbol>
    <symbol id="upload" viewBox="0 0 24 24" fill="none">
    <path d="M15.752 8.5H18C18.7956 8.5 19.5587 8.81607 20.1213 9.37868C20.6839 9.94129 21 10.7044 21 11.5V20.25C21 21.0456 20.6839 21.8087 20.1213 22.3713C19.5587 22.9339 18.7956 23.25 18 23.25H6C5.20435 23.25 4.44129 22.9339 3.87868 22.3713C3.31607 21.8087 3 21.0456 3 20.25V11.5C3 10.7044 3.31607 9.94129 3.87868 9.37868C4.44129 8.81607 5.20435 8.5 6 8.5H8.25"  stroke-width="1.5" stroke-linecap="round" stroke-linejoin="round"/>
    <path d="M12 18L12 1"  stroke-width="1.5" stroke-linecap="round" stroke-linejoin="round"/>
    <path d="M16.502 5.5L12.002 1L7.50195 5.5"  stroke-width="1.5" stroke-linecap="round" stroke-linejoin="round"/>
    </symbol>
    <symbol id="copyToClipboard" viewBox="0 0 15 15">
        <g fill="none">
            <rect width="7" height="7" x="4.5" y="4.5" rx=".5" ry=".5"/>
            <path stroke-linecap="round" d="M2.5 7.5H1A.5.5 0 01.5 7V1A.5.5 0 011 .5h6a.5.5 0 01.5.5v1.5"/>
        </g>
    </symbol>

    <symbol id="sibdebarMenu" viewBox="0 0 24 24">
        <g>
            <path d="M2.8125 18.0029H27.1875" stroke="#4F457C" stroke-width="1.5" stroke-linecap="round"
                  stroke-linejoin="round"/>
            <path d="M2.8125 12.0029H27.1875" stroke="#4F457C" stroke-width="1.5" stroke-linecap="round"
                  stroke-linejoin="round"/>
            <path d="M2.8125 6.00293H27.1875" stroke="#4F457C" stroke-width="1.5" stroke-linecap="round"
                  stroke-linejoin="round"/>
        </g>
    </symbol>
    <symbol id="treasury" viewBox="0 0 34 23">
       <path d="M32.78 20.49H31.46C31.46 20.49 31.47 20.45 31.47 20.44V15.8H32.56C33.11 15.8 33.56 15.35 33.56 14.8C33.56 14.25 33.11 13.8 32.56 13.8H31.47V10.93C31.47 10.38 31.02 9.92996 30.47 9.92996H26.65V8.92996H27.14C27.58 8.92996 27.97 8.63999 28.1 8.20999C28.23 7.78999 28.06 7.32999 27.68 7.08999L17.82 0.69998C17.49 0.48998 17.06 0.48998 16.73 0.69998L6.87 7.08999C6.5 7.32999 6.33 7.78999 6.45 8.20999C6.58 8.62999 6.97 8.92996 7.41 8.92996H7.82V9.93997C7.82 9.93997 7.78 9.92996 7.76 9.92996H4.06C3.51 9.92996 3.06 10.38 3.06 10.93V13.8H1.97C1.42 13.8 0.970001 14.25 0.970001 14.8C0.970001 15.35 1.42 15.8 1.97 15.8H3.06V20.44C3.06 20.44 3.07 20.48 3.07 20.49H1.75C1.2 20.49 0.75 20.94 0.75 21.49C0.75 22.04 1.2 22.49 1.75 22.49H32.77C33.32 22.49 33.77 22.04 33.77 21.49C33.77 20.94 33.32 20.49 32.77 20.49H32.78ZM29.49 20.49H26.73L26.7 15.79H29.48V20.43C29.48 20.43 29.49 20.47 29.49 20.48V20.49ZM17.28 2.72L23.76 6.92001H10.79L17.27 2.72H17.28ZM24.65 8.92001L24.73 20.19H22.63V11.93C22.63 11.38 22.18 10.93 21.63 10.93C21.08 10.93 20.63 11.38 20.63 11.93V20.19H18.28V11.93C18.28 11.38 17.83 10.93 17.28 10.93C16.73 10.93 16.28 11.38 16.28 11.93V20.19H14V11.93C14 11.38 13.55 10.93 13 10.93C12.45 10.93 12 11.38 12 11.93V20.19H9.91L9.83 8.92001H24.65ZM5.07 20.43V15.79H7.88L7.91 20.49H5.06C5.06 20.49 5.07 20.45 5.07 20.44V20.43Z"/>
    </symbol>
    <symbol id="moon" viewBox="0 0 24 24">
        <path d="M9.27 4.49001C7.64 12.03 13.02 16.9 16.93 18.29C15.54 19.38 13.81 20 12 20C7.59 20 4 16.41 4 12C4 8.55001 6.2 5.60001 9.27 4.49001ZM11.99 2.01001C6.4 2.01001 2 6.54001 2 12C2 17.52 6.48 22 12 22C15.71 22 18.93 19.98 20.66 16.98C13.15 16.73 8.57 8.55001 12.34 2.01001C12.22 2.01001 12.11 2.01001 11.99 2.01001Z"
              fill="#88D1C3"/>
    </symbol>
    <symbol id="sun" viewBox="0 0 24 24">
        <path d="M6.76 4.83999L4.96 3.04999L3.55 4.45999L5.34 6.24999L6.76 4.83999ZM1 10.5H4V12.5H1V10.5ZM11 0.549988H13V3.49999H11V0.549988ZM19.04 3.04499L20.448 4.45199L18.658 6.24199L17.251 4.83399L19.04 3.04499ZM17.24 18.16L19.03 19.96L20.44 18.55L18.64 16.76L17.24 18.16ZM20 10.5H23V12.5H20V10.5ZM12 5.49999C8.69 5.49999 6 8.18999 6 11.5C6 14.81 8.69 17.5 12 17.5C15.31 17.5 18 14.81 18 11.5C18 8.18999 15.31 5.49999 12 5.49999ZM12 15.5C9.79 15.5 8 13.71 8 11.5C8 9.28999 9.79 7.49999 12 7.49999C14.21 7.49999 16 9.28999 16 11.5C16 13.71 14.21 15.5 12 15.5ZM11 19.5H13V22.45H11V19.5ZM3.55 18.54L4.96 19.95L6.75 18.15L5.34 16.74L3.55 18.54Z"
              fill="#171933"/>
    </symbol>
    <symbol id="arrow" viewBox="0 0 24 24">
        <g fill="none" fill-rule="evenodd" stroke="#FFF" stroke-width="2">
            <path stroke-linejoin="round" d="M2 9h16"></path>
            <path d="M10 17L2 9l8-8"></path>
        </g>
    </symbol>
    <symbol id="greater-than" viewBox="0 0 24 24">
        <g fill="none" clip-path="url(#clip0_2010_4141)">
            <path d="M1.5 21.7222L10.5 11.5L1.5 1.27779"  stroke-width="1.5" stroke-linecap="round"
                  stroke-linejoin="round"/>
        </g>
    </symbol>
    <symbol id="add" viewBox="0 0 24 24">
        <g clip-path="url(#clip0_1510_12508)">
            <path d="M0.75 12H23.25" stroke="#7068AA" stroke-width="2" stroke-linecap="round" stroke-linejoin="round"/>
            <path d="M12 0.75V23.25" stroke="#7068AA" stroke-width="2" stroke-linecap="round" stroke-linejoin="round"/>
        </g>
        <defs>
            <clipPath id="clip0_1510_12508">
                <rect width="24" height="24" fill="none"/>
            </clipPath>
        </defs>
    </symbol>
    <symbol id="subtract" viewBox="0 0 24 24">
        <g clip-path="url(#clip0_1510_12512)">
            <path d="M0.75 12H23.25" stroke="#7068AA" stroke-width="2" stroke-linecap="round" stroke-linejoin="round"/>
        </g>
        <defs>
            <clipPath id="clip0_1510_12512">
                <rect width="24" height="24" fill="none"/>
            </clipPath>
        </defs>
    </symbol>
    <symbol id="-stroke" viewBox="0 0 24 24">
        <g clip-path="url(#clip0_1510_12545)">
            <path d="M1 6L6 11L16 1" stroke="white" stroke-width="1.5" stroke-linecap="round" stroke-linejoin="round"
                  fill="none"/>
        </g>
        <defs>
            <clipPath id="clip0_1510_12545">
                <rect width="24" height="24" fill="none"/>
            </clipPath>
        </defs>
    </symbol>
    <symbol id="man-running" viewBox="0 0 28 24">
        <g>
            <path fill="none"
                  d="M23.7594 17.4153L25.4107 17.6415L25.8449 14.4711C26.0177 13.2098 25.6615 11.9287 24.8546 10.9096C24.0478 9.89055 22.8564 9.21692 21.5426 9.03695C20.2288 8.85699 18.9002 9.18543 17.849 9.95002C16.7978 10.7146 16.1102 11.8527 15.9375 13.114L15.5032 16.2844L17.1544 16.5106L23.7594 17.4153Z"
                  stroke-width="1.5" stroke-linecap="round" stroke-linejoin="round"/>
            <path fill="none" d="M23 18L25 22.8857L23 27" stroke-width="1.5" stroke-linecap="round"
                  stroke-linejoin="round"/>
            <path fill="none" d="M18.5 17L20 22.9231L16 24" stroke-width="1.5" stroke-linecap="round"
                  stroke-linejoin="round"/>
            <path fill="none"
                  d="M23 7C24.6569 7 26 5.65685 26 4C26 2.34315 24.6569 1 23 1C21.3431 1 20 2.34315 20 4C20 5.65685 21.3431 7 23 7Z"
                  stroke-width="1.5" stroke-linecap="round" stroke-linejoin="round"/>
            <path fill="none" d="M10.5 12.5H3.5" stroke-width="1.5" stroke-linecap="round" stroke-linejoin="round"/>
            <path fill="none" d="M8 17H1" stroke-width="1.5" stroke-linecap="round" stroke-linejoin="round"/>
            <path fill="none" d="M8 8H1" stroke-width="1.5" stroke-linecap="round" stroke-linejoin="round"/>
        </g>
    </symbol>
    <symbol id="arrow-up" viewBox="0 0 13 8">
        <path d="M11.3525 6.40002L6.4996 1.60002L1.64666 6.40002" stroke-width="1.5" stroke-linecap="round"
              stroke-linejoin="round"/>
    </symbol>
    <symbol id="arrow-down" viewBox="0 0 13 8">
        <path d="M1.5 1L6.5 6L11.5 1" stroke-width="1.5" stroke-linecap="round" stroke-linejoin="round"/>
    </symbol>
    <symbol id="menu-compass" viewBox="0 0 24 24">
        <g>
            <path d="M1.11011 11.65C1.11011 5.64121 6.00132 0.75 12.0101 0.75C18.0189 0.75 22.9101 5.64121 22.9101 11.65C22.9101 17.6588 18.0189 22.55 12.0101 22.55C6.00132 22.55 1.11011 17.6588 1.11011 11.65ZM1.38197 11.65C1.38197 17.5127 6.14742 22.2781 12.0101 22.2781C17.8728 22.2781 22.6382 17.5127 22.6382 11.65C22.6382 5.78731 17.8728 1.02186 12.0101 1.02186C6.14742 1.02186 1.38197 5.78731 1.38197 11.65Z"
                  fill="none" stroke-width="1.5" stroke-linecap="round" stroke-linejoin="round"/>
            <path d="M14.6856 11.4816L12.6569 3.83597C12.5771 3.54361 12.3202 3.33984 12.019 3.33984C11.7178 3.33984 11.452 3.54361 11.3811 3.83597L9.35233 11.4816V11.4993C9.34347 11.5524 9.35233 11.5967 9.35233 11.6499C9.35233 11.703 9.35233 11.7473 9.35233 11.8005V11.8182L11.3811 19.4549C11.4608 19.7473 11.7178 19.9511 12.019 19.9511C12.3202 19.9511 12.586 19.7473 12.6569 19.4549L14.6856 11.8182V11.8005C14.6945 11.7473 14.6856 11.703 14.6856 11.6499C14.6856 11.5967 14.6856 11.5524 14.6856 11.4993V11.4816V11.4816ZM12.0101 16.7086L10.8407 12.3143H13.1796L12.0101 16.7086Z"
                  fill="none" stroke-width="1.5" stroke-linecap="round" stroke-linejoin="round"/>
            <path d="M17.8838 11.4854H18.9558C19.0429 11.4854 19.1203 11.5627 19.1203 11.6498C19.1203 11.7369 19.0429 11.8142 18.9558 11.8142H17.8838C17.7967 11.8142 17.7194 11.7369 17.7194 11.6498C17.7194 11.5627 17.7967 11.4854 17.8838 11.4854Z"
                  fill="none" stroke-width="1.5" stroke-linecap="round" stroke-linejoin="round"/>
            <path d="M6.12751 11.4854C6.2146 11.4854 6.29196 11.5627 6.29196 11.6498C6.29196 11.7369 6.2146 11.8142 6.12751 11.8142H5.05553C4.96844 11.8142 4.89108 11.7369 4.89108 11.6498C4.89108 11.5627 4.96844 11.4854 5.05553 11.4854H6.12751Z"
                  fill="none" stroke-width="1.5" stroke-linecap="round" stroke-linejoin="round"/>
            <path d="M16.8022 16.6738L16.4722 17.0038L16.8022 16.6738L16.0491 15.9208C16.0491 15.9208 16.0491 15.9208 16.0491 15.9208C15.9875 15.8591 15.9875 15.7505 16.0491 15.6888C16.1108 15.6272 16.2195 15.6272 16.2811 15.6888L17.0342 16.4419C17.0958 16.5035 17.0958 16.6122 17.0342 16.6738C17 16.708 16.961 16.7223 16.9182 16.7223C16.8753 16.7223 16.8364 16.708 16.8022 16.6738Z"
                  fill="none" stroke-width="1.5" stroke-linecap="round" stroke-linejoin="round"/>
            <path d="M7.73911 7.61086L7.38555 7.96441L7.7391 7.61086L6.98606 6.85781C6.9244 6.79616 6.9244 6.68749 6.98606 6.62583C7.04772 6.56418 7.15639 6.56418 7.21804 6.62583L7.97109 7.37888C8.03274 7.44053 8.03274 7.5492 7.97109 7.61086C7.93691 7.64504 7.89797 7.65931 7.8551 7.65931C7.81222 7.65931 7.77329 7.64504 7.73911 7.61086Z"
                  fill="none" stroke-width="1.5" stroke-linecap="round" stroke-linejoin="round"/>
            <path d="M16.2811 7.61086C16.2469 7.64504 16.208 7.65931 16.1651 7.65931C16.1223 7.65931 16.0833 7.64504 16.0491 7.61086C15.9875 7.5492 15.9875 7.44053 16.0491 7.37888L16.8022 6.62583L16.4486 6.27228L16.8022 6.62583C16.8638 6.56418 16.9725 6.56418 17.0342 6.62583C17.0958 6.68749 17.0958 6.79616 17.0342 6.85781L16.2811 7.61086L16.6347 7.96441L16.2811 7.61086Z"
                  fill="none" stroke-width="1.5" stroke-linecap="round" stroke-linejoin="round"/>
            <path d="M6.98606 16.4419L7.73911 15.6888C7.80076 15.6272 7.90943 15.6272 7.97109 15.6888C8.03274 15.7505 8.03274 15.8591 7.97109 15.9208L7.21804 16.6738L7.5585 17.0143L7.21804 16.6738C7.18386 16.708 7.14493 16.7223 7.10205 16.7223C7.05918 16.7223 7.02024 16.708 6.98606 16.6738C6.9244 16.6122 6.9244 16.5035 6.98606 16.4419Z"
                  fill="none" stroke-width="1.5" stroke-linecap="round" stroke-linejoin="round"/>
        </g>
        <g id="Invisible_Shape">
            <rect fill="none" stroke="none" width="24" height="24"></rect>
        </g>
    </symbol>
    <symbol id="menu-staking" viewBox="0 0 27 31" >
        <path  d="M26.2608 19.4701V12.0801H26.2408C26.0208 9.98011 22.6308 8.88013 19.2708 8.88013C15.9108 8.88013 12.5208 9.98011 12.3008 12.0801H12.2808V13.4401C10.9508 12.8101 9.11078 12.4801 7.29078 12.4801C6.72078 12.4801 6.15078 12.5101 5.60078 12.5801V8.46011H12.7408C13.1508 8.46011 13.4908 8.12011 13.4908 7.71011V3.31012C13.4908 2.90012 13.1508 2.56012 12.7408 2.56012H5.60078V1.62012C5.60078 1.07012 5.15078 0.620117 4.60078 0.620117C4.05078 0.620117 3.60078 1.07012 3.60078 1.62012V12.9601C1.80078 13.4701 0.460782 14.3901 0.320782 15.6801H0.300781V23.0801C0.300781 23.0801 0.300781 23.1201 0.300781 23.1401C0.300781 23.2101 0.310782 23.2901 0.320782 23.3701C0.590782 25.3101 3.58078 26.3701 6.71078 26.4901V27.2901C6.71078 27.2901 6.71078 27.3301 6.71078 27.3501C6.71078 27.4201 6.72078 27.5001 6.73078 27.5801C7.01078 29.6401 10.3708 30.7101 13.6908 30.7101C17.0108 30.7101 20.3708 29.6301 20.6508 27.5801C20.6608 27.5001 20.6708 27.4201 20.6708 27.3501C20.6708 27.3301 20.6708 27.3201 20.6708 27.3001V26.4301C23.4708 26.1701 25.9608 25.1301 26.2108 23.3701C26.2208 23.2901 26.2308 23.2101 26.2308 23.1401C26.2308 23.1201 26.2308 23.1101 26.2308 23.0901V19.4601L26.2608 19.4701ZM2.30078 15.9001C2.34078 15.5701 3.96078 14.4901 7.29078 14.4901C10.6208 14.4901 12.2408 15.5701 12.2808 15.9001C12.2408 16.2301 10.6108 17.3101 7.29078 17.3101C3.97078 17.3101 2.34078 16.2301 2.30078 15.9001ZM14.2808 12.3001C14.3208 11.9701 15.9408 10.8901 19.2708 10.8901C22.6008 10.8901 24.2208 11.9701 24.2608 12.3001C24.2208 12.6301 22.5908 13.7101 19.2708 13.7101C15.9508 13.7101 14.3208 12.6301 14.2808 12.3001ZM18.7008 27.2801C18.7008 27.2801 18.5808 27.5301 18.1308 27.7901C17.1708 28.3501 15.4808 28.6901 13.7108 28.6901C11.9408 28.6901 10.2508 28.3401 9.29078 27.7901C8.83078 27.5301 8.72078 27.3201 8.72078 27.2801V26.1601C10.0508 26.7901 11.8808 27.1201 13.7108 27.1201C15.5408 27.1201 17.3708 26.7901 18.7008 26.1601V27.2701V27.2801ZM13.7108 25.1201C10.3808 25.1201 8.76078 24.0401 8.72078 23.7101C8.76078 23.3801 10.3808 22.3001 13.7108 22.3001C17.0408 22.3001 18.6608 23.3801 18.7008 23.7101C18.6608 24.0401 17.0308 25.1201 13.7108 25.1201ZM23.6908 19.9701C22.7308 20.5301 21.0408 20.8701 19.2708 20.8701C18.5108 20.8701 17.7608 20.8001 17.0808 20.6801C16.8008 20.6101 16.5108 20.5501 16.2108 20.5001C15.6808 20.3601 15.2108 20.1801 14.8508 19.9701C14.3908 19.7101 14.2808 19.5001 14.2808 19.4601V18.3401C15.6108 18.9701 17.4408 19.3001 19.2708 19.3001C21.1008 19.3001 22.9308 18.9701 24.2608 18.3401V19.4501C24.2608 19.4501 24.1408 19.7001 23.6908 19.9601V19.9701ZM23.6908 16.3701C22.7308 16.9301 21.0408 17.2701 19.2708 17.2701C17.5008 17.2701 15.8108 16.9201 14.8508 16.3701C14.3908 16.1101 14.2808 15.9001 14.2808 15.8601V14.7401C15.6108 15.3701 17.4408 15.7001 19.2708 15.7001C21.1008 15.7001 22.9308 15.3701 24.2608 14.7401V15.8501C24.2608 15.8501 24.1408 16.1001 23.6908 16.3601V16.3701ZM7.29078 19.3001C9.12078 19.3001 10.9508 18.9701 12.2808 18.3401V19.4501C12.2808 19.4501 12.1608 19.7001 11.7108 19.9601C10.7508 20.5201 9.06078 20.8601 7.29078 20.8601C5.52078 20.8601 3.83078 20.5101 2.87078 19.9601C2.41078 19.7001 2.30078 19.4901 2.30078 19.4501V18.3301C3.63078 18.9601 5.47078 19.2901 7.29078 19.2901V19.3001ZM6.88078 22.8901C6.80078 23.0801 6.75078 23.2801 6.73078 23.4901H6.71078V24.4601C5.16078 24.3901 3.72078 24.0701 2.87078 23.5701C2.41078 23.3101 2.30078 23.1001 2.30078 23.0601V21.9401C3.53078 22.5301 5.20078 22.8501 6.89078 22.8901H6.88078ZM23.6808 23.5701C22.9808 23.9701 21.9008 24.2601 20.6908 24.3901V23.4801H20.6708C20.6508 23.2601 20.5908 23.0401 20.5008 22.8401C21.9008 22.7301 23.2208 22.4201 24.2508 21.9301V23.0401C24.2508 23.0401 24.1308 23.2901 23.6808 23.5501V23.5701Z"/>
    </symbol>
    <symbol id="menu-gov" viewBox="0 0 24 24">
        <g>

        </g>
        <g id="Invisible_Shape">
            <rect fill="none" stroke="none" width="24" height="24"></rect>
        </g>
    </symbol>
    <symbol id="menu-satellites" viewBox="0 0 24 24">
        <g>

        </g>
        <g id="Invisible_Shape">
            <rect fill="none" stroke="none" width="24" height="24"></rect>
        </g>
    </symbol>
    <symbol id="menu-loans" viewBox="0 0 24 24">
        <g>

        </g>
        <g id="Invisible_Shape">
            <rect fill="none" stroke="none" width="24" height="24"></rect>
        </g>
    </symbol>
    <symbol id="menu-farms" viewBox="0 0 24 24">
        <g>

        </g>
        <g id="Invisible_Shape">
            <rect fill="none" stroke="none" width="24" height="24"></rect>
        </g>
    </symbol>
    <symbol id="menu-vaults" viewBox="0 0 24 24">
        <g>

        </g>
        <g id="Invisible_Shape">
            <rect fill="none" stroke="none" width="24" height="24"></rect>
        </g>
    </symbol>
    <symbol id="menu-treasury" viewBox="0 0 24 24">
        <g>

        </g>
        <g id="Invisible_Shape">
            <rect fill="none" stroke="none" width="24" height="24"></rect>
        </g>
    </symbol>
    <symbol id="menu-admin" viewBox="0 0 24 24">
        <g>

        </g>
        <g id="Invisible_Shape">
            <rect fill="none" stroke="none" width="24" height="24"></rect>
        </g>
    </symbol>
    <symbol id="coin-loan"
        viewBox="0 0 25 32"
        >
        <path
            d="M23.8895 21.5099C23.8895 21.5099 23.8795 21.4899 23.8695 21.4799C23.8695 21.4799 23.8695 21.4699 23.8595 21.4599L22.3295 19.0199L22.3095 19.0399C22.2495 18.9199 22.1895 18.7999 22.1195 18.6799C20.5595 16.1899 16.4795 16.03 12.8295 18.31C11.1595 19.36 9.83953 20.7699 9.11953 22.2899C8.31953 23.9599 8.31953 25.5699 9.11953 26.8299C9.18953 26.9499 9.27953 27.05 9.35953 27.16H9.32953L10.8595 29.6099C10.8595 29.6099 10.8695 29.62 10.8695 29.63C10.8695 29.64 10.8695 29.65 10.8895 29.66C11.7095 30.97 13.2395 31.6399 15.0295 31.6399C16.6395 31.6399 18.4595 31.11 20.1795 30.03C23.8295 27.74 25.4595 23.9999 23.8995 21.5099H23.8895ZM10.7995 25.78C10.2395 24.89 10.6295 23.76 10.9195 23.16C11.4795 21.98 12.5395 20.8599 13.8895 20.0199C15.2695 19.1499 16.7695 18.7099 17.9995 18.7099C19.0895 18.7099 19.9795 19.05 20.4195 19.75C20.9795 20.64 20.5895 21.77 20.2995 22.37C19.7395 23.55 18.6795 24.6699 17.3295 25.5099C14.7195 27.1399 11.7295 27.27 10.7995 25.78ZM22.3195 24.4199C21.9295 25.8199 20.7195 27.2699 19.0695 28.2999C17.4295 29.3299 15.5895 29.79 14.1695 29.53C13.7195 29.45 13.1495 29.24 12.7495 28.81C12.9095 28.82 13.0795 28.8299 13.2495 28.8299C14.8595 28.8299 16.6795 28.3 18.3995 27.22C20.0695 26.17 21.3895 24.7599 22.1095 23.2399C22.1795 23.0999 22.2295 22.9599 22.2895 22.8199C22.5095 23.3799 22.4495 23.9799 22.3195 24.4299V24.4199Z"
         />
        <path
            d="M9.57943 18.5901C9.72943 18.4901 9.86943 18.3901 9.98943 18.2701C10.0994 18.1701 10.1794 18.0401 10.2694 17.9201C10.2994 17.8701 10.3494 17.8301 10.3794 17.7801V17.7601H10.3994L11.9594 14.9701C12.9294 13.2201 11.5294 10.7001 8.67943 9.1001C5.83943 7.5001 2.94943 7.60009 1.96943 9.34009L0.409431 12.1201V12.1501C0.369431 12.2101 0.359433 12.2801 0.329433 12.3401C0.269433 12.4701 0.219431 12.5901 0.179431 12.7301C0.139431 12.9001 0.119431 13.0801 0.109431 13.2701C0.109431 13.3001 0.109431 13.3201 0.109431 13.3501C0.0994314 14.9301 1.41943 16.7601 3.66943 18.0301C4.90943 18.7301 6.23943 19.1301 7.40943 19.1601C7.45943 19.1601 7.49943 19.1601 7.54943 19.1601C8.32943 19.1601 8.97943 18.9701 9.49943 18.6501C9.52943 18.6301 9.55943 18.6101 9.58943 18.5901H9.57943ZM8.64943 16.7701C8.55943 16.9301 8.29943 17.0501 7.93943 17.1001C7.05943 17.2201 5.79943 16.9001 4.64943 16.2501C3.49943 15.6001 2.56943 14.7001 2.21943 13.8801C2.07943 13.5501 2.04943 13.2601 2.13943 13.1001L2.38943 12.6601C2.99943 13.5901 3.96943 14.4901 5.23943 15.2101C6.50943 15.9201 7.77943 16.2901 8.88943 16.3301L8.64943 16.7601V16.7701ZM6.21943 13.4801C4.25943 12.3801 3.40943 10.8601 3.70943 10.3301C3.83943 10.1101 4.22943 9.9701 4.78943 9.9701C5.53943 9.9701 6.58943 10.2201 7.70943 10.8501C9.66943 11.9501 10.5194 13.4701 10.2194 14.0001C9.92943 14.5201 8.17943 14.5801 6.22943 13.4801H6.21943Z"
         />
        <path
            d="M13.6603 11.27C13.7203 11.34 13.7903 11.39 13.8603 11.44L13.8403 11.46L15.4003 13.1H15.4103V13.12C15.8403 13.56 16.4203 13.77 17.0703 13.77C18.0703 13.77 19.2303 13.27 20.2203 12.33C20.9503 11.63 21.4803 10.79 21.7003 9.96C21.8003 9.58 21.8203 9.21 21.7903 8.87C21.7903 8.85 21.7903 8.83998 21.7903 8.81998C21.7703 8.67998 21.7503 8.54999 21.7103 8.41999C21.6903 8.35999 21.6703 8.31001 21.6503 8.25001C21.6103 8.15001 21.5803 8.05 21.5203 7.96C21.4603 7.84 21.3803 7.73999 21.3003 7.63999C21.2803 7.61999 21.2703 7.58 21.2403 7.56H21.2303V7.53998L19.6603 5.9L19.6303 5.91999C19.5803 5.84999 19.5403 5.76999 19.4803 5.69999C18.4203 4.58999 16.3103 4.94 14.6803 6.49C13.0503 8.05 12.5903 10.14 13.6503 11.25L13.6603 11.27ZM19.8703 8.29999L20.1403 8.59C20.3003 8.76 20.3103 9.02999 20.2903 9.22999C20.2303 9.85999 19.8003 10.62 19.1603 11.23C18.5203 11.84 17.7403 12.23 17.1103 12.26C16.9103 12.26 16.6403 12.24 16.4803 12.07L16.2103 11.79C16.9703 11.59 17.7503 11.15 18.4603 10.49C19.1603 9.82 19.6303 9.06 19.8703 8.31V8.29999ZM15.7203 7.60001C16.4503 6.91001 17.2703 6.56 17.8403 6.56C18.0903 6.56 18.2803 6.62001 18.4103 6.75001C18.8103 7.17001 18.4803 8.38999 17.4403 9.38999C16.3903 10.39 15.1603 10.66 14.7603 10.23C14.3603 9.80999 14.6903 8.59 15.7303 7.59L15.7203 7.60001Z"
         />
        <path
            d="M8.48918 4.61004H8.51918C9.49918 4.61004 10.2992 5.41004 10.2992 6.39004V7.48003C10.3192 7.71003 10.5292 7.89005 10.7592 7.87005C10.9692 7.85005 11.1292 7.69003 11.1492 7.48003V6.39004C11.1492 5.41004 11.9492 4.61004 12.9292 4.61004H13.0892C13.3192 4.63004 13.5292 4.46006 13.5492 4.22006C13.5692 3.99006 13.3992 3.78003 13.1592 3.76003C13.1392 3.76003 13.1092 3.76003 13.0892 3.76003H12.9292C11.9492 3.76003 11.1492 2.96004 11.1492 1.98004V0.890039C11.1292 0.660039 10.9192 0.480055 10.6892 0.500055C10.4792 0.520055 10.3192 0.680039 10.2992 0.890039V1.98004C10.2992 2.96004 9.49918 3.76003 8.51918 3.76003H8.48918C8.25918 3.78003 8.07918 3.99006 8.09918 4.22006C8.11918 4.43006 8.27918 4.59004 8.48918 4.61004Z"
         />
    </symbol>
    <symbol id="vaults"
      viewBox="0 0 29 29"
    >
     <path d="M23.6209 0.709961H4.92094C2.46094 0.709961 0.460938 2.70998 0.460938 5.16998V23.8699C0.460938 26.3299 2.46094 28.33 4.92094 28.33H23.6209C26.0809 28.33 28.0809 26.3299 28.0809 23.8699V5.16998C28.0809 2.70998 26.0809 0.709961 23.6209 0.709961ZM26.0809 23.8699C26.0809 25.2299 24.9709 26.33 23.6209 26.33H4.92094C3.56094 26.33 2.46094 25.2199 2.46094 23.8699V5.16998C2.46094 3.80998 3.57094 2.70996 4.92094 2.70996H23.6209C24.9809 2.70996 26.0809 3.81998 26.0809 5.16998V23.8699Z" />
      <path d="M22.3009 4.90991H6.24086C5.36086 4.90991 4.65086 5.61988 4.65086 6.49988V9.06989H3.95086C3.64086 9.06989 3.38086 9.31989 3.38086 9.63989V12.2399C3.38086 12.5499 3.63086 12.8099 3.95086 12.8099H4.65086V16.3099H3.95086C3.64086 16.3099 3.38086 16.5599 3.38086 16.8799V19.4799C3.38086 19.7899 3.63086 20.0499 3.95086 20.0499H4.65086V22.5699C4.65086 23.4499 5.36086 24.1599 6.24086 24.1599H22.3009C23.1709 24.1599 23.8909 23.4499 23.8909 22.5699V6.50989C23.8909 5.62989 23.1809 4.91992 22.3009 4.91992V4.90991ZM21.8909 22.1399H6.66086V20.0299H7.36086C7.67086 20.0299 7.93086 19.7799 7.93086 19.4599V16.8599C7.93086 16.5499 7.68086 16.2899 7.36086 16.2899H6.66086V12.7899H7.36086C7.67086 12.7899 7.93086 12.5399 7.93086 12.2199V9.61987C7.93086 9.30987 7.68086 9.04993 7.36086 9.04993H6.66086V6.8999H21.8909V22.1299V22.1399Z" />
      <path d="M9.4507 15.55H10.6607C10.7607 15.92 10.9007 16.27 11.0907 16.59L10.2307 17.45C9.8407 17.84 9.8407 18.47 10.2307 18.86C10.4307 19.06 10.6807 19.15 10.9407 19.15C11.2007 19.15 11.4507 19.05 11.6507 18.86L12.5107 17.9999C12.8307 18.1899 13.1807 18.3399 13.5507 18.4299V19.64C13.5507 20.19 14.0007 20.64 14.5507 20.64C15.1007 20.64 15.5507 20.19 15.5507 19.64V18.4299C15.9207 18.3299 16.2707 18.1899 16.5907 17.9999L17.4507 18.86C17.6507 19.06 17.9007 19.15 18.1607 19.15C18.4207 19.15 18.6707 19.05 18.8707 18.86C19.2607 18.47 19.2607 17.84 18.8707 17.45L18.0107 16.59C18.2007 16.27 18.3507 15.92 18.4407 15.55H19.6507C20.2007 15.55 20.6507 15.1 20.6507 14.55C20.6507 14 20.2007 13.55 19.6507 13.55H18.4407C18.3407 13.18 18.2007 12.8299 18.0107 12.5099L18.8707 11.65C19.2607 11.26 19.2607 10.63 18.8707 10.24C18.4807 9.84999 17.8507 9.84999 17.4607 10.24L16.6007 11.1C16.2807 10.91 15.9307 10.76 15.5607 10.67V9.45996C15.5607 8.90996 15.1107 8.45996 14.5607 8.45996C14.0107 8.45996 13.5607 8.90996 13.5607 9.45996V10.67C13.1907 10.77 12.8407 10.91 12.5207 11.1L11.6607 10.24C11.2707 9.84999 10.6407 9.84999 10.2507 10.24C9.8607 10.63 9.8607 11.26 10.2507 11.65L11.1107 12.5099C10.9207 12.8299 10.7707 13.18 10.6807 13.55H9.4707C8.9207 13.55 8.4707 14 8.4707 14.55C8.4707 15.1 8.9207 15.55 9.4707 15.55H9.4507ZM14.5507 12.53C15.6707 12.53 16.5707 13.44 16.5707 14.55C16.5707 15.66 15.6607 16.5699 14.5507 16.5699C13.4407 16.5699 12.5307 15.66 12.5307 14.55C12.5307 13.44 13.4407 12.53 14.5507 12.53Z" />
   </symbol>
   <symbol id="settings"
      viewBox="0 0 29 29"
   >   
    <path d="M23.6209 0.669922H4.92094C2.46094 0.669922 0.460938 2.66988 0.460938 5.12988V23.8299C0.460938 26.2899 2.46094 28.2899 4.92094 28.2899H23.6209C26.0809 28.2899 28.0809 26.2899 28.0809 23.8299V5.12988C28.0809 2.66988 26.0809 0.669922 23.6209 0.669922ZM26.0809 23.8299C26.0809 25.1899 24.9709 26.2899 23.6209 26.2899H4.92094C3.56094 26.2899 2.46094 25.1799 2.46094 23.8299V5.12988C2.46094 3.76988 3.57094 2.66992 4.92094 2.66992H23.6209C24.9809 2.66992 26.0809 3.77988 26.0809 5.12988V23.8299Z" />
    <path d="M9.02039 8.0799H8.77039V6.16992C8.77039 5.61992 8.32039 5.16992 7.77039 5.16992C7.22039 5.16992 6.77039 5.61992 6.77039 6.16992V8.0799H6.51039C5.62039 8.0799 4.90039 8.79988 4.90039 9.68988V10.7299C4.90039 11.6199 5.62039 12.3399 6.51039 12.3399H6.77039V22.6499C6.77039 23.1999 7.22039 23.6499 7.77039 23.6499C8.32039 23.6499 8.77039 23.1999 8.77039 22.6499V12.3399H9.02039C9.91039 12.3399 10.6304 11.6199 10.6304 10.7299V9.68988C10.6304 8.79988 9.91039 8.0799 9.02039 8.0799Z" />
    <path d="M15.5302 12.9999H15.2802V6.16992C15.2802 5.61992 14.8302 5.16992 14.2802 5.16992C13.7302 5.16992 13.2802 5.61992 13.2802 6.16992V12.9999H13.0202C12.1302 12.9999 11.4102 13.7199 11.4102 14.6099V15.6499C11.4102 16.5399 12.1302 17.2599 13.0202 17.2599H13.2802V22.6399C13.2802 23.1899 13.7302 23.6399 14.2802 23.6399C14.8302 23.6399 15.2802 23.1899 15.2802 22.6399V17.2599H15.5302C16.4202 17.2599 17.1402 16.5399 17.1402 15.6499V14.6099C17.1402 13.7199 16.4202 12.9999 15.5302 12.9999Z" />
    <path d="M22.0419 10.0402H21.7919V6.16016C21.7919 5.61016 21.3419 5.16016 20.7919 5.16016C20.2419 5.16016 19.7919 5.61016 19.7919 6.16016V10.0402H19.5319C18.6419 10.0402 17.9219 10.7601 17.9219 11.6501V12.6901C17.9219 13.5801 18.6419 14.3002 19.5319 14.3002H19.7919V22.6401C19.7919 23.1901 20.2419 23.6401 20.7919 23.6401C21.3419 23.6401 21.7919 23.1901 21.7919 22.6401V14.3002H22.0419C22.9319 14.3002 23.6519 13.5801 23.6519 12.6901V11.6501C23.6519 10.7601 22.9319 10.0402 22.0419 10.0402Z" />
  </symbol>
  <symbol id="question" viewBox="0 0 12 12" >
    <path fill-rule="evenodd" clip-rule="evenodd" d="M6 11.25C8.8995 11.25 11.25 8.8995 11.25 6C11.25 3.10051 8.8995 0.75 6 0.75C3.10051 0.75 0.75 3.10051 0.75 6C0.75 8.8995 3.10051 11.25 6 11.25ZM6 12C9.31371 12 12 9.31371 12 6C12 2.68629 9.31371 0 6 0C2.68629 0 0 2.68629 0 6C0 9.31371 2.68629 12 6 12Z" />
    <path d="M5.3921 6.63229H6.2961V5.89629C7.1601 5.70429 7.7681 5.06429 7.7681 4.34429C7.7681 3.47229 7.0641 2.80829 6.0081 2.80829C5.2161 2.80829 4.6001 3.17629 4.1521 3.68829L4.7361 4.28029C5.0321 3.95229 5.4081 3.70429 5.8721 3.70429C6.4161 3.70429 6.7681 4.04829 6.7681 4.44029C6.7681 4.86429 6.2001 5.20029 5.3921 5.24829V6.63229ZM5.8481 8.49629C6.1841 8.49629 6.4641 8.20829 6.4641 7.85629C6.4641 7.52829 6.1841 7.24029 5.8481 7.24029C5.4801 7.24029 5.2081 7.52829 5.2081 7.85629C5.2081 8.20829 5.4801 8.49629 5.8481 8.49629Z" />
  </symbol>
  <symbol id="check-stroke"  viewBox="0 0 12 13" fill="none" >
    <path d="M1 7L5 11.5L11 1.5" stroke-width="1.5" stroke-linecap="round" stroke-linejoin="round"/>
  </symbol>
  <symbol id="man-check" viewBox="0 0 24 24" fill="none" >
    <path d="M5.25 6.75C6.90685 6.75 8.25 5.40685 8.25 3.75C8.25 2.09315 6.90685 0.75 5.25 0.75C3.59315 0.75 2.25 2.09315 2.25 3.75C2.25 5.40685 3.59315 6.75 5.25 6.75Z"  stroke-width="1.5" stroke-linecap="round" stroke-linejoin="round"/>
    <path d="M7.5 23.25L8.25 15.75H9.75V12.75C9.75 11.5565 9.27589 10.4119 8.43198 9.56802C7.58807 8.72411 6.44347 8.25 5.25 8.25C4.05653 8.25 2.91193 8.72411 2.06802 9.56802C1.22411 10.4119 0.75 11.5565 0.75 12.75V15.75H2.25L3 23.25H7.5Z"  stroke-width="1.5" stroke-linecap="round" stroke-linejoin="round"/>
    <path d="M12 6.66667L15.6667 10.3333L23 3"  stroke-width="1.5" stroke-linecap="round" stroke-linejoin="round"/>
  </symbol>
  <symbol id="close-stroke" viewBox="0 0 12 12" fill="none">
    <path d="M1 1.5L11 10.5"  stroke-width="1.5" stroke-linecap="round" stroke-linejoin="round"/>
    <path d="M11 1.5L1 10.5"  stroke-width="1.5" stroke-linecap="round" stroke-linejoin="round"/>
  </symbol>
  <symbol id="pencil-stroke" viewBox="0 0 10 10" fill="none" >
    <path d="M9.24583 0.754278C9.10393 0.61296 8.93544 0.501161 8.75008 0.42534C8.56472 0.349519 8.36618 0.311179 8.16592 0.312535C7.96566 0.313891 7.76765 0.354916 7.58334 0.43324C7.39902 0.511564 7.23206 0.625635 7.09208 0.768861L1.05042 6.81053L0.3125 9.68761L3.18958 8.94969L9.23125 2.90803C9.37448 2.76805 9.48855 2.60109 9.56687 2.41677C9.6452 2.23246 9.68622 2.03445 9.68758 1.83419C9.68893 1.63393 9.65059 1.43539 9.57477 1.25003C9.49895 1.06467 9.38715 0.896177 9.24583 0.754278V0.754278Z"  stroke-linecap="round" stroke-linejoin="round"/>
    <path d="M6.91895 0.941895L9.05811 3.08106"  stroke-linecap="round" stroke-linejoin="round"/>
    <path d="M6.04688 1.81396L8.18604 3.95313"  stroke-linecap="round" stroke-linejoin="round"/>
    <path d="M1.05078 6.81055L3.19203 8.94763"  stroke-linecap="round" stroke-linejoin="round"/>
  </symbol>
  <symbol id="arrow-left-stroke" viewBox="0 0 17 13" fill="none">
    <path d="M15.583 6.1665L1.58301 6.1665"  stroke-width="1.5" stroke-linecap="round" stroke-linejoin="round"/>
    <path d="M6.83301 0.916504L1.58301 6.1665L6.83301 11.4165"  stroke-width="1.5" stroke-linecap="round" stroke-linejoin="round"/>
  </symbol>
  <symbol id="arrow-obtuse-angle" viewBox="0 0 8 17" fill="none" >
    <path d="M6.66699 1.1665L1.33366 8.49984L6.66699 15.8332"  stroke-width="1.5" stroke-linecap="round" stroke-linejoin="round"/>
  </symbol>
  <symbol id="auction" viewBox="0 0 25 24" fill="none" >
    <path d="M13.7703 8.61133L23.1003 17.4053C23.222 17.5269 23.3185 17.6712 23.3843 17.8301C23.4502 17.989 23.4841 18.1593 23.4841 18.3313C23.4841 18.5033 23.4502 18.6736 23.3843 18.8325C23.3185 18.9914 23.222 19.1358 23.1003 19.2573L22.1743 20.1823C22.0529 20.3041 21.9086 20.4007 21.7498 20.4666C21.591 20.5325 21.4207 20.5665 21.2488 20.5665C21.0768 20.5665 20.9066 20.5325 20.7478 20.4666C20.589 20.4007 20.4447 20.3041 20.3233 20.1823L11.5293 10.8573"  stroke-width="1.5" stroke-linecap="round" stroke-linejoin="round"/>
    <path d="M4.08008 8.57433C7.19325 6.84668 9.75944 4.28049 11.4871 1.16733C11.6085 1.04557 11.7527 0.948963 11.9116 0.883048C12.0704 0.817133 12.2406 0.783203 12.4126 0.783203C12.5845 0.783203 12.7548 0.817133 12.9136 0.883048C13.0724 0.948963 13.2167 1.04557 13.3381 1.16733L16.8481 4.67733C16.9698 4.79874 17.0664 4.94299 17.1324 5.1018C17.1983 5.26062 17.2322 5.43088 17.2322 5.60283C17.2322 5.77478 17.1983 5.94504 17.1324 6.10385C17.0664 6.26267 16.9698 6.40691 16.8481 6.52833C13.7037 8.21421 11.127 10.7909 9.44108 13.9353C9.31952 14.057 9.17516 14.1535 9.01628 14.2194C8.85739 14.2852 8.68708 14.3191 8.51508 14.3191C8.34309 14.3191 8.17278 14.2852 8.01389 14.2194C7.855 14.1535 7.71065 14.057 7.58908 13.9353L4.08008 10.4263C3.95841 10.3048 3.86189 10.1604 3.79604 10.0015C3.73018 9.84263 3.69629 9.67232 3.69629 9.50033C3.69629 9.32833 3.73018 9.15802 3.79604 8.99914C3.86189 8.84025 3.95841 8.69589 4.08008 8.57433V8.57433Z"  stroke-width="1.5" stroke-linecap="round" stroke-linejoin="round"/>
    <path d="M13.25 21.75C13.25 21.3522 13.092 20.9706 12.8107 20.6893C12.5294 20.408 12.1478 20.25 11.75 20.25H4.25C3.85218 20.25 3.47064 20.408 3.18934 20.6893C2.90804 20.9706 2.75 21.3522 2.75 21.75V23.25H13.25V21.75Z"  stroke-width="1.5" stroke-linecap="round" stroke-linejoin="round"/>
    <path d="M1.25 23.25H14.75"  stroke-width="1.5" stroke-linecap="round" stroke-linejoin="round"/>
  </symbol>
  <symbol id="bytes" viewBox="0 0 23 22" >
    <path fill-rule="evenodd" clip-rule="evenodd" d="M13.2498 10.9995C13.2498 10.5853 13.5856 10.2495 13.9998 10.2495H21.9998C22.414 10.2495 22.7498 10.5853 22.7498 10.9995C22.7498 11.4137 22.414 11.7495 21.9998 11.7495H13.9998C13.5856 11.7495 13.2498 11.4137 13.2498 10.9995Z" />
    <path fill-rule="evenodd" clip-rule="evenodd" d="M18.5865 7.45964C18.2883 7.74716 18.2797 8.22196 18.5672 8.52013L20.958 10.9995L18.5672 13.4789C18.2797 13.7771 18.2883 14.2519 18.5865 14.5394C18.8846 14.8269 19.3594 14.8183 19.647 14.5201L22.5398 11.5201C22.82 11.2296 22.82 10.7695 22.5398 10.4789L19.647 7.47892C19.3594 7.18075 18.8846 7.17212 18.5865 7.45964Z" />
    <path d="M4.45312 8.99953C6.53383 8.99953 7.99978 7.34552 7.99978 4.9939C7.99978 2.65353 6.53383 0.999525 4.45312 0.999525C2.36059 0.999525 0.882812 2.65353 0.882812 4.9939C0.882812 7.34552 2.36059 8.99953 4.45312 8.99953ZM4.45312 7.71683C3.24725 7.71683 2.39605 6.59165 2.39605 4.9939C2.39605 3.39615 3.24725 2.28223 4.45312 2.28223C5.64716 2.28223 6.49836 3.39615 6.49836 4.9939C6.49836 6.59165 5.64716 7.71683 4.45312 7.71683Z" />
    <path fill-rule="evenodd" clip-rule="evenodd" d="M11.2998 15.519L10.2076 18.2495H12.392L11.2998 15.519ZM14.1898 18.7052L12.1818 13.6852C11.8633 12.889 10.7362 12.889 10.4177 13.6852L7.60342 20.721C7.44959 21.1056 7.63665 21.542 8.02124 21.6959C8.40583 21.8497 8.8423 21.6627 8.99614 21.2781L9.60756 19.7495H12.992L13.6034 21.2781C13.7573 21.6627 14.1937 21.8497 14.5783 21.6959C14.9629 21.542 15.15 21.1056 14.9961 20.721L14.2026 18.7372C14.1986 18.7264 14.1943 18.7157 14.1898 18.7052Z" />
    <path fill-rule="evenodd" clip-rule="evenodd" d="M1.24978 13.6995C1.24978 13.1749 1.67511 12.7495 2.19978 12.7495H6.99978C7.41399 12.7495 7.74978 13.0853 7.74978 13.4995C7.74978 13.9137 7.41399 14.2495 6.99978 14.2495H2.74978V16.7495H5.99978C6.41399 16.7495 6.74978 17.0853 6.74978 17.4995C6.74978 17.9137 6.41399 18.2495 5.99978 18.2495H2.74978V20.9995C2.74978 21.4137 2.41399 21.7495 1.99978 21.7495C1.58557 21.7495 1.24978 21.4137 1.24978 20.9995V13.6995Z" />
    <path fill-rule="evenodd" clip-rule="evenodd" d="M10.8063 0.673825C11.4283 0.176207 12.3498 0.619067 12.3498 1.41565V8.49953C12.3498 8.91374 12.014 9.24953 11.5998 9.24953C11.1856 9.24953 10.8498 8.91374 10.8498 8.49953V2.55999L9.5683 3.58518C9.24486 3.84393 8.77289 3.79149 8.51413 3.46805C8.25537 3.1446 8.30781 2.67263 8.63126 2.41387L10.8063 0.673825Z" />
  </symbol>
  <symbol id="lock" viewBox="0 0 21 22">
    <path fill-rule="evenodd" clip-rule="evenodd" d="M0.75 11C0.75 10.5858 1.08579 10.25 1.5 10.25H19.5C19.9142 10.25 20.25 10.5858 20.25 11V21C20.25 21.4142 19.9142 21.75 19.5 21.75H1.5C1.08579 21.75 0.75 21.4142 0.75 21V11ZM2.25 11.75V20.25H18.75V11.75H2.25Z" />
    <path fill-rule="evenodd" clip-rule="evenodd" d="M7.41542 0.598476C8.40646 0.278897 9.45743 0.25 10.5 0.25C11.5426 0.25 12.5935 0.278897 13.5846 0.598476C14.6081 0.928542 15.5248 1.55208 16.3505 2.65587C17.1853 3.77172 17.6528 5.17355 17.9165 6.61055C18.1812 8.05298 18.25 9.58462 18.25 11V11.75L2.75 11.75V11C2.75 9.58461 2.81878 8.05298 3.0835 6.61055C3.34723 5.17355 3.81468 3.77172 4.64946 2.65587C5.47521 1.55208 6.39186 0.928542 7.41542 0.598476ZM7.87578 2.02609C7.1657 2.25506 6.50163 2.6841 5.85054 3.55442C5.20847 4.41268 4.80092 5.56238 4.55886 6.88132C4.36134 7.95757 4.28015 9.11119 4.25726 10.25L16.7427 10.25C16.7199 9.11119 16.6387 7.95757 16.4411 6.88132C16.1991 5.56238 15.7915 4.41268 15.1495 3.55442C14.4984 2.6841 13.8343 2.25506 13.1242 2.02609C12.3816 1.78662 11.546 1.75 10.5 1.75C9.45399 1.75 8.61838 1.78662 7.87578 2.02609Z" />
    <path d="M9.84398 16.4297V17.6719C9.84398 17.775 9.92836 17.8594 10.0315 17.8594H10.969C11.0721 17.8594 11.1565 17.775 11.1565 17.6719V16.4297C11.35 16.2908 11.4944 16.0941 11.5689 15.8679C11.6435 15.6417 11.6443 15.3976 11.5714 15.1709C11.4984 14.9442 11.3554 14.7465 11.1629 14.6062C10.9704 14.466 10.7384 14.3904 10.5002 14.3904C10.2621 14.3904 10.03 14.466 9.83755 14.6062C9.64507 14.7465 9.50206 14.9442 9.4291 15.1709C9.35614 15.3976 9.357 15.6417 9.43155 15.8679C9.50611 16.0941 9.65052 16.2908 9.84398 16.4297Z" />
  </symbol>
  <symbol id="financial" viewBox="0 0 21 23" >
    <path fill-rule="evenodd" clip-rule="evenodd" d="M0.75 3C0.75 1.48122 1.98122 0.25 3.5 0.25H16.5C18.0188 0.25 19.25 1.48122 19.25 3V10.5C19.25 10.9142 18.9142 11.25 18.5 11.25C18.0858 11.25 17.75 10.9142 17.75 10.5V3C17.75 2.30964 17.1904 1.75 16.5 1.75H3.5C2.80964 1.75 2.25 2.30964 2.25 3V20C2.25 20.6904 2.80965 21.25 3.5 21.25H13.7778C14.192 21.25 14.5278 21.5858 14.5278 22C14.5278 22.4142 14.192 22.75 13.7778 22.75H3.5C1.98122 22.75 0.75 21.5188 0.75 20V3Z" />
    <path fill-rule="evenodd" clip-rule="evenodd" d="M5.5 6.25C5.5 5.83579 5.83579 5.5 6.25 5.5L13.75 5.5C14.1642 5.5 14.5 5.83579 14.5 6.25C14.5 6.66421 14.1642 7 13.75 7L6.25 7C5.83579 7 5.5 6.66421 5.5 6.25Z" />
    <path fill-rule="evenodd" clip-rule="evenodd" d="M5.5 10.25C5.5 9.83579 5.83579 9.5 6.25 9.5L13.75 9.5C14.1642 9.5 14.5 9.83579 14.5 10.25C14.5 10.6642 14.1642 11 13.75 11L6.25 11C5.83579 11 5.5 10.6642 5.5 10.25Z" />
    <path fill-rule="evenodd" clip-rule="evenodd" d="M5.5 14.25C5.5 13.8358 5.83579 13.5 6.25 13.5H8.75C9.16421 13.5 9.5 13.8358 9.5 14.25C9.5 14.6642 9.16421 15 8.75 15H6.25C5.83579 15 5.5 14.6642 5.5 14.25Z" />
    <path fill-rule="evenodd" clip-rule="evenodd" d="M19.9703 21.5843C19.6475 21.844 19.1754 21.7928 18.9158 21.4701L13.2205 14.3906C12.9609 14.0679 13.012 13.5958 13.3347 13.3361C13.6575 13.0765 14.1296 13.1276 14.3892 13.4504L20.0845 20.5298C20.3442 20.8526 20.293 21.3247 19.9703 21.5843Z" />
    <path fill-rule="evenodd" clip-rule="evenodd" d="M13.2703 18.8089C13.6821 18.8539 14.0524 18.5566 14.0974 18.1448L14.4717 14.7209L17.907 14.9706C18.3202 15.0006 18.6794 14.69 18.7094 14.2769C18.7395 13.8638 18.4289 13.5045 18.0158 13.4745L13.8592 13.1724C13.4566 13.1432 13.1031 13.4377 13.0592 13.8389L12.6063 17.9818C12.5612 18.3936 12.8585 18.7639 13.2703 18.8089Z" />
  </symbol>
  <symbol  id="delete" viewBox="0 0 12 12">
    <path d="M3.69 1.49H3.58C3.6405 1.49 3.69 1.4405 3.69 1.38V1.49H7.87V1.38C7.87 1.4405 7.9195 1.49 7.98 1.49H7.87V2.48H8.86V1.38C8.86 0.894625 8.46538 0.5 7.98 0.5H3.58C3.09463 0.5 2.7 0.894625 2.7 1.38V2.48H3.69V1.49ZM10.62 2.48H0.94C0.696625 2.48 0.5 2.67663 0.5 2.92V3.36C0.5 3.4205 0.5495 3.47 0.61 3.47H1.4405L1.78013 10.6613C1.80213 11.1301 2.18988 11.5 2.65875 11.5H8.90125C9.3715 11.5 9.75788 11.1315 9.77988 10.6613L10.1195 3.47H10.95C11.0105 3.47 11.06 3.4205 11.06 3.36V2.92C11.06 2.67663 10.8634 2.48 10.62 2.48ZM8.79538 10.51H2.76463L2.43188 3.47H9.12813L8.79538 10.51Z" />
  </symbol>
</svg>
