<!-- "display: none" ensures the SVG doesn't take up space even though it's not being shown because of the use of symbol -->
<svg xmlns="http://www.w3.org/2000/svg" style="display:none;">
    <symbol id="wallet" viewBox="0 0 24 24">
        <g>
            <path d="M2.96992 2.771L13.9079 5.88C14.6491 6.12343 15.2964 6.59082 15.7606 7.21771C16.2249 7.8446 16.4832 8.6001 16.4999 9.38V19.89C16.5311 20.2218 16.481 20.5562 16.354 20.8643C16.2269 21.1724 16.0267 21.445 15.7707 21.6583C15.5147 21.8717 15.2106 22.0195 14.8846 22.089C14.5587 22.1584 14.2207 22.1475 13.8999 22.057L4.85192 19.597C4.11067 19.3664 3.46074 18.9084 2.99412 18.288C2.52751 17.6676 2.26786 16.9161 2.25192 16.14V4.688C2.2355 3.96162 2.507 3.25822 3.00719 2.73124C3.50738 2.20426 4.19567 1.89646 4.92192 1.875H18.7499C19.5456 1.875 20.3086 2.19107 20.8712 2.75368C21.4339 3.31629 21.7499 4.07935 21.7499 4.875V13.828C21.7464 14.2325 21.6631 14.6322 21.5048 15.0044C21.3465 15.3766 21.1162 15.7139 20.8273 15.997C20.5384 16.28 20.1965 16.5033 19.8211 16.654C19.4458 16.8046 19.0444 16.8798 18.6399 16.875H16.4999"
                  fill="none" stroke-width="1.5" stroke-linecap="round" stroke-linejoin="round"/>
            <path d="M12.375 13.125C12.4492 13.125 12.5217 13.147 12.5833 13.1882C12.645 13.2294 12.6931 13.288 12.7215 13.3565C12.7498 13.425 12.7573 13.5004 12.7428 13.5732C12.7283 13.6459 12.6926 13.7127 12.6402 13.7652C12.5877 13.8176 12.5209 13.8533 12.4482 13.8678C12.3754 13.8823 12.3 13.8748 12.2315 13.8465C12.163 13.8181 12.1044 13.77 12.0632 13.7083C12.022 13.6467 12 13.5742 12 13.5C12 13.4005 12.0395 13.3052 12.1098 13.2348C12.1802 13.1645 12.2755 13.125 12.375 13.125"
                  fill="none" stroke-width="1.5" stroke-linecap="round" stroke-linejoin="round"/>
            <path d="M21.75 9.375H16.5" fill="none" stroke-width="1.5" stroke-linecap="round" stroke-linejoin="round"/>
        </g>
        <g id="Invisible_Shape">
            <rect fill="none" stroke="none" width="24" height="24"></rect>
        </g>
    </symbol>
    <symbol id="grid" viewBox="0 0 24 24">
        <g>
            <path fill="none"
                  d="M10.5002 12.5259C10.5008 12.7851 10.3984 13.0339 10.2156 13.2176C10.0327 13.4014 9.78446 13.5051 9.52525 13.5059H1.72525C1.59686 13.5056 1.46979 13.48 1.35129 13.4306C1.23279 13.3812 1.12519 13.309 1.03464 13.2179C0.944086 13.1269 0.872362 13.019 0.823565 12.9002C0.774768 12.7814 0.749854 12.6542 0.750249 12.5259V1.73586C0.749986 1.60743 0.775022 1.4802 0.823929 1.36144C0.872835 1.24269 0.944654 1.13472 1.03528 1.04372C1.12591 0.952721 1.23358 0.880462 1.35214 0.83107C1.47069 0.781678 1.59782 0.756122 1.72625 0.755859L9.52625 0.768859C9.78528 0.769918 10.0333 0.873699 10.2159 1.05743C10.3985 1.24116 10.5008 1.48982 10.5002 1.74886V12.5259Z"
                  stroke-width="1.5" stroke-linecap="round" stroke-linejoin="round"/>
            <path fill="none"
                  d="M23.2463 6.54389C23.2445 6.80071 23.1408 7.04629 22.9579 7.22667C22.7751 7.40706 22.5282 7.50748 22.2713 7.50589H14.4713C14.3441 7.50681 14.218 7.48265 14.1001 7.43479C13.9823 7.38693 13.875 7.31631 13.7844 7.22697C13.6939 7.13762 13.6218 7.03131 13.5724 6.9141C13.523 6.79689 13.4971 6.67109 13.4963 6.54389V1.73088C13.4979 1.47433 13.6013 1.22889 13.7837 1.04851C13.9662 0.86813 14.2128 0.767555 14.4693 0.768885L22.2693 0.755885C22.5264 0.754021 22.7737 0.854297 22.9569 1.03468C23.1401 1.21506 23.2442 1.4608 23.2463 1.71788V6.54389Z"
                  stroke-width="1.5" stroke-linecap="round" stroke-linejoin="round"/>
            <path fill="none"
                  d="M10.5002 22.2909C10.4995 22.4184 10.4736 22.5445 10.424 22.662C10.3745 22.7795 10.3023 22.8861 10.2116 22.9757C10.1209 23.0653 10.0134 23.1362 9.89529 23.1843C9.77718 23.2323 9.65076 23.2567 9.52324 23.2559L1.72324 23.2429C1.46642 23.2439 1.21968 23.143 1.03724 22.9622C0.854791 22.7815 0.751567 22.5357 0.750244 22.2789V17.4699C0.750899 17.3425 0.776645 17.2166 0.82601 17.0992C0.875376 16.9818 0.947392 16.8753 1.03794 16.7858C1.12849 16.6963 1.2358 16.6255 1.35373 16.5774C1.47167 16.5294 1.59791 16.5051 1.72524 16.5059H9.52524C9.78233 16.5045 10.0294 16.6053 10.2123 16.7861C10.3951 16.9668 10.4987 17.2128 10.5002 17.4699V22.2909Z"
                  stroke-width="1.5" stroke-linecap="round" stroke-linejoin="round"/>
            <path fill="none"
                  d="M14.4723 23.2559C14.3438 23.2556 14.2166 23.23 14.098 23.1806C13.9794 23.1311 13.8717 23.0588 13.781 22.9676C13.6904 22.8765 13.6186 22.7685 13.5697 22.6496C13.5209 22.5307 13.4959 22.4034 13.4963 22.2749V11.4869C13.4959 11.3584 13.5209 11.2312 13.5696 11.1124C13.6184 10.9936 13.6901 10.8855 13.7807 10.7944C13.8712 10.7033 13.9788 10.631 14.0973 10.5815C14.2158 10.5319 14.3429 10.5063 14.4713 10.5059H22.2713C22.3998 10.5063 22.5269 10.5319 22.6454 10.5815C22.7639 10.631 22.8715 10.7033 22.962 10.7944C23.0526 10.8855 23.1243 10.9936 23.173 11.1124C23.2218 11.2312 23.2467 11.3584 23.2463 11.4869V22.2619C23.2469 22.521 23.1447 22.7698 22.9621 22.9536C22.7795 23.1375 22.5315 23.2415 22.2723 23.2429L14.4723 23.2559Z"
                  stroke-width="1.5" stroke-linecap="round" stroke-linejoin="round"/>
        </g>
        <g id="Invisible_Shape">
            <rect fill="none" stroke="none" width="24" height="24"></rect>
        </g>
    </symbol>
    <symbol id="coins" viewBox="0 0 24 24">
        <g>
            <path d="M18 18.75H7.5C7.08579 18.75 6.75 19.0858 6.75 19.5V22.5C6.75 22.9142 7.08579 23.25 7.5 23.25H18C18.4142 23.25 18.75 22.9142 18.75 22.5V19.5C18.75 19.0858 18.4142 18.75 18 18.75Z"
                  fill="none" stroke-width="1.5" stroke-linecap="round" stroke-linejoin="round"/>
            <path d="M19.5 14.25H9C8.58579 14.25 8.25 14.5858 8.25 15V18C8.25 18.4142 8.58579 18.75 9 18.75H19.5C19.9142 18.75 20.25 18.4142 20.25 18V15C20.25 14.5858 19.9142 14.25 19.5 14.25Z"
                  fill="none" stroke-width="1.5" stroke-linecap="round" stroke-linejoin="round"/>
            <path d="M15 9.75H4.5C4.08579 9.75 3.75 10.0858 3.75 10.5V13.5C3.75 13.9142 4.08579 14.25 4.5 14.25H15C15.4142 14.25 15.75 13.9142 15.75 13.5V10.5C15.75 10.0858 15.4142 9.75 15 9.75Z"
                  fill="none" stroke-width="1.5" stroke-linecap="round" stroke-linejoin="round"/>
            <path d="M16.5 5.25H6C5.58579 5.25 5.25 5.58579 5.25 6V9C5.25 9.41421 5.58579 9.75 6 9.75H16.5C16.9142 9.75 17.25 9.41421 17.25 9V6C17.25 5.58579 16.9142 5.25 16.5 5.25Z"
                  fill="none" stroke-width="1.5" stroke-linecap="round" stroke-linejoin="round"/>
            <path d="M21.75 7.5V10.5" fill="none" stroke-width="1.5" stroke-linecap="round" stroke-linejoin="round"/>
            <path d="M20.25 9H23.25" fill="none" stroke-width="1.5" stroke-linecap="round" stroke-linejoin="round"/>
            <path d="M2.25 0.75V3.75" fill="none" stroke-width="1.5" stroke-linecap="round" stroke-linejoin="round"/>
            <path d="M0.75 2.25H3.75" fill="none" stroke-width="1.5" stroke-linecap="round" stroke-linejoin="round"/>
        </g>
        <g id="Invisible_Shape">
            <rect fill="none" stroke="none" width="24" height="24"></rect>
        </g>
    </symbol>
    <symbol id="hammer" viewBox="0 0 24 24">
        <g>
            <path d="M13.2701 8.61182L22.6001 17.4058C22.7217 17.5274 22.8182 17.6717 22.8841 17.8306C22.95 17.9895 22.9838 18.1598 22.9838 18.3318C22.9838 18.5038 22.95 18.6741 22.8841 18.833C22.8182 18.9919 22.7217 19.1362 22.6001 19.2578L21.6741 20.1828C21.5526 20.3046 21.4084 20.4012 21.2496 20.4671C21.0908 20.533 20.9205 20.5669 20.7486 20.5669C20.5766 20.5669 20.4063 20.533 20.2475 20.4671C20.0887 20.4012 19.9445 20.3046 19.8231 20.1828L11.0291 10.8578"
                  fill="none" stroke-width="1.5" stroke-linecap="round" stroke-linejoin="round"/>
            <path d="M3.58008 8.57482C6.69325 6.84717 9.25944 4.28098 10.9871 1.16782C11.1085 1.04606 11.2527 0.949451 11.4116 0.883536C11.5704 0.817621 11.7406 0.783691 11.9126 0.783691C12.0845 0.783691 12.2548 0.817621 12.4136 0.883536C12.5724 0.949451 12.7167 1.04606 12.8381 1.16782L16.3481 4.67782C16.4698 4.79923 16.5664 4.94348 16.6324 5.10229C16.6983 5.26111 16.7322 5.43137 16.7322 5.60332C16.7322 5.77527 16.6983 5.94553 16.6324 6.10434C16.5664 6.26315 16.4698 6.4074 16.3481 6.52882C13.2037 8.2147 10.627 10.7914 8.94108 13.9358C8.81952 14.0575 8.67516 14.154 8.51628 14.2199C8.35739 14.2857 8.18708 14.3196 8.01508 14.3196C7.84309 14.3196 7.67278 14.2857 7.51389 14.2199C7.355 14.154 7.21065 14.0575 7.08908 13.9358L3.58008 10.4268C3.45841 10.3052 3.36189 10.1609 3.29604 10.002C3.23018 9.84312 3.19629 9.67281 3.19629 9.50082C3.19629 9.32882 3.23018 9.15851 3.29604 8.99962C3.36189 8.84074 3.45841 8.69638 3.58008 8.57482V8.57482Z"
                  fill="none" stroke-width="1.5" stroke-linecap="round" stroke-linejoin="round"/>
            <path d="M12.75 21.75C12.75 21.3522 12.592 20.9706 12.3107 20.6893C12.0294 20.408 11.6478 20.25 11.25 20.25H3.75C3.35218 20.25 2.97064 20.408 2.68934 20.6893C2.40804 20.9706 2.25 21.3522 2.25 21.75V23.25H12.75V21.75Z"
                  fill="none" stroke-width="1.5" stroke-linecap="round" stroke-linejoin="round"/>
            <path d="M0.75 23.25H14.25" fill="none" stroke-width="1.5" stroke-linecap="round" stroke-linejoin="round"/>
        </g>
        <g id="Invisible_Shape">
            <rect fill="none" stroke="none" width="24" height="24"></rect>
        </g>
    </symbol>
    <symbol id="plant" viewBox="0 0 24 24">
        <g>
            <path d="M14.3721 5.64111C14.2229 7.48226 13.4236 9.21029 12.1171 10.5161C10.8106 9.21029 10.0112 7.48226 9.86206 5.64111C10.0116 3.80005 10.8109 2.07214 12.1171 0.766113C13.4233 2.07214 14.2225 3.80005 14.3721 5.64111V5.64111Z"
                  fill="none" stroke-width="1.5" stroke-linecap="round" stroke-linejoin="round"/>
            <path d="M17.481 14.6759C15.7057 15.1857 13.8068 15.0475 12.124 14.2859C12.8851 12.6026 14.2199 11.2447 15.89 10.4549C17.6655 9.94519 19.5644 10.0838 21.247 10.8459C20.4862 12.5292 19.1512 13.8868 17.481 14.6759Z"
                  fill="none" stroke-width="1.5" stroke-linecap="round" stroke-linejoin="round"/>
            <path d="M17.481 22.1759C15.7057 22.6857 13.8068 22.5475 12.124 21.7859C12.8851 20.1026 14.2199 18.7447 15.89 17.9549C17.6655 17.4452 19.5644 17.5838 21.247 18.3459C20.4862 20.0292 19.1512 21.3868 17.481 22.1759V22.1759Z"
                  fill="none" stroke-width="1.5" stroke-linecap="round" stroke-linejoin="round"/>
            <path d="M6.763 14.6758C8.53837 15.1856 10.4372 15.0474 12.12 14.2858C11.3595 12.6025 10.0249 11.2445 8.355 10.4548C6.58012 9.94592 4.68213 10.0845 3 10.8458C3.76053 12.5283 5.09422 13.8857 6.763 14.6758V14.6758Z"
                  fill="none" stroke-width="1.5" stroke-linecap="round" stroke-linejoin="round"/>
            <path d="M6.763 22.1758C8.53837 22.6856 10.4372 22.5474 12.12 21.7858C11.3595 20.1025 10.0249 18.7445 8.355 17.9548C6.58012 17.4459 4.68213 17.5845 3 18.3458C3.76053 20.0283 5.09422 21.3857 6.763 22.1758V22.1758Z"
                  fill="none" stroke-width="1.5" stroke-linecap="round" stroke-linejoin="round"/>
            <path d="M12.1189 10.5161L12.1269 23.2661" fill="none" stroke-width="1.5" stroke-linecap="round"
                  stroke-linejoin="round"/>
        </g>
        <g id="Invisible_Shape">
            <rect fill="none" stroke="none" width="24" height="24"></rect>
        </g>
    </symbol>
    <symbol id="swap" viewBox="0 0 24 24">
        <g>
            <path d="M12.75 15.75L23.25 5.25" fill="none" stroke-width="1.5" stroke-linecap="round"
                  stroke-linejoin="round"/>
            <path d="M23.25 9.75V5.25H18.75" fill="none" stroke-width="1.5" stroke-linecap="round"
                  stroke-linejoin="round"/>
            <path d="M11.25 8.25L0.75 18.75" fill="none" stroke-width="1.5" stroke-linecap="round"
                  stroke-linejoin="round"/>
            <path d="M0.75 14.25V18.75H5.25" fill="none" stroke-width="1.5" stroke-linecap="round"
                  stroke-linejoin="round"/>
        </g>
        <g id="Invisible_Shape">
            <rect fill="none" stroke="none" width="24" height="24"></rect>
        </g>
    </symbol>
    <symbol id="bank" viewBox="0 0 24 24">
        <g>
            <path d="M7.5 8.16113H4.5V17.1611H7.5V8.16113Z" fill="none" stroke-width="1.5" stroke-linecap="round"
                  stroke-linejoin="round"/>
            <path d="M13.5 8.16113H10.5V17.1611H13.5V8.16113Z" fill="none" stroke-width="1.5" stroke-linecap="round"
                  stroke-linejoin="round"/>
            <path d="M19.5 8.16113H16.5V17.1611H19.5V8.16113Z" fill="none" stroke-width="1.5" stroke-linecap="round"
                  stroke-linejoin="round"/>
            <path d="M21 20.1611H3V17.9111C3 17.7122 3.07902 17.5215 3.21967 17.3808C3.36032 17.2402 3.55109 17.1611 3.75 17.1611H20.25C20.4489 17.1611 20.6397 17.2402 20.7803 17.3808C20.921 17.5215 21 17.7122 21 17.9111V20.1611Z"
                  fill="none" stroke-width="1.5" stroke-linecap="round" stroke-linejoin="round"/>
            <path d="M1.5 23.1611H22.5" fill="none" stroke-width="1.5" stroke-linecap="round" stroke-linejoin="round"/>
            <path d="M1.5 20.1611H22.5" fill="none" stroke-width="1.5" stroke-linecap="round" stroke-linejoin="round"/>
            <path d="M21 5.16123V7.41123C21 7.61014 20.921 7.80091 20.7803 7.94156C20.6397 8.08221 20.4489 8.16123 20.25 8.16123H3.75C3.55109 8.16123 3.36032 8.08221 3.21967 7.94156C3.07902 7.80091 3 7.61014 3 7.41123V5.16123L11.665 0.829228C11.7691 0.777441 11.8837 0.750488 12 0.750488C12.1163 0.750488 12.2309 0.777441 12.335 0.829228L21 5.16123Z"
                  fill="none" stroke-width="1.5" stroke-linecap="round" stroke-linejoin="round"/>
            <path d="M3 5.16113H21" fill="none" stroke-width="1.5" stroke-linecap="round" stroke-linejoin="round"/>
        </g>
        <g id="Invisible_Shape">
            <rect fill="none" stroke="none" width="24" height="24"></rect>
        </g>
    </symbol>
    <symbol id="shop" viewBox="0 0 24 24">
        <g>
            <path d="M11.564 13.7678C11.6047 13.6873 11.667 13.6196 11.7439 13.5723C11.8208 13.525 11.9093 13.5 11.9995 13.5C12.0898 13.5 12.1783 13.525 12.2551 13.5723C12.332 13.6196 12.3943 13.6873 12.435 13.7678L13.448 15.8098C13.4831 15.8798 13.5347 15.9403 13.5982 15.9861C13.6618 16.0319 13.7355 16.0616 13.813 16.0728L16.085 16.4008C16.174 16.4133 16.2577 16.4503 16.3267 16.5077C16.3958 16.5651 16.4475 16.6406 16.476 16.7258C16.5038 16.8105 16.5072 16.9012 16.4858 16.9877C16.4644 17.0742 16.4191 17.1529 16.355 17.2148L14.705 18.8148C14.6496 18.8685 14.6081 18.9349 14.584 19.0083C14.56 19.0816 14.5542 19.1597 14.567 19.2358L14.956 21.4908C14.9712 21.579 14.961 21.6697 14.9267 21.7524C14.8923 21.8351 14.8352 21.9063 14.762 21.9578C14.6883 22.0101 14.6016 22.041 14.5114 22.0472C14.4213 22.0534 14.3312 22.0346 14.251 21.9928L12.227 20.9338C12.1569 20.8973 12.079 20.8783 12 20.8783C11.921 20.8783 11.8431 20.8973 11.773 20.9338L9.74901 21.9928C9.66886 22.0346 9.57874 22.0534 9.48858 22.0472C9.39842 22.041 9.31171 22.0101 9.23801 21.9578C9.16479 21.9063 9.1077 21.8351 9.07336 21.7524C9.03902 21.6697 9.02884 21.579 9.04401 21.4908L9.43201 19.2358C9.44507 19.1598 9.43943 19.0817 9.41556 19.0084C9.39169 18.935 9.35031 18.8686 9.29501 18.8148L7.64501 17.2148C7.58072 17.153 7.53523 17.0743 7.51382 16.9878C7.4924 16.9013 7.49594 16.8104 7.52401 16.7258C7.55224 16.6407 7.60372 16.5651 7.67264 16.5077C7.74156 16.4502 7.82516 16.4132 7.91401 16.4008L10.186 16.0728C10.2637 16.0616 10.3375 16.0319 10.4012 15.9861C10.4649 15.9403 10.5166 15.8798 10.552 15.8098L11.564 13.7678Z"
                  fill="none" stroke-width="1.5" stroke-linecap="round" stroke-linejoin="round"/>
            <path d="M6 23.25H3.75C3.35218 23.25 2.97064 23.092 2.68934 22.8107C2.40804 22.5294 2.25 22.1478 2.25 21.75V12.75"
                  fill="none" stroke-width="1.5" stroke-linecap="round" stroke-linejoin="round"/>
            <path d="M21.75 12.75V21.75C21.75 22.1478 21.592 22.5294 21.3107 22.8107C21.0294 23.092 20.6478 23.25 20.25 23.25H18"
                  fill="none" stroke-width="1.5" stroke-linecap="round" stroke-linejoin="round"/>
            <path d="M21.148 0.75H2.852C2.6813 0.749972 2.51568 0.808099 2.38244 0.914802C2.24919 1.02151 2.15628 1.17042 2.119 1.337L0.75 7.5C0.75 8.09674 0.987053 8.66903 1.40901 9.09099C1.83097 9.51295 2.40326 9.75 3 9.75C3.59674 9.75 4.16903 9.51295 4.59099 9.09099C5.01295 8.66903 5.25 8.09674 5.25 7.5C5.25 8.09674 5.48705 8.66903 5.90901 9.09099C6.33097 9.51295 6.90326 9.75 7.5 9.75C8.09674 9.75 8.66903 9.51295 9.09099 9.09099C9.51295 8.66903 9.75 8.09674 9.75 7.5C9.75 8.09674 9.98705 8.66903 10.409 9.09099C10.831 9.51295 11.4033 9.75 12 9.75C12.5967 9.75 13.169 9.51295 13.591 9.09099C14.0129 8.66903 14.25 8.09674 14.25 7.5C14.25 8.09674 14.4871 8.66903 14.909 9.09099C15.331 9.51295 15.9033 9.75 16.5 9.75C17.0967 9.75 17.669 9.51295 18.091 9.09099C18.5129 8.66903 18.75 8.09674 18.75 7.5C18.75 8.09674 18.9871 8.66903 19.409 9.09099C19.831 9.51295 20.4033 9.75 21 9.75C21.5967 9.75 22.169 9.51295 22.591 9.09099C23.0129 8.66903 23.25 8.09674 23.25 7.5L21.88 1.337C21.8431 1.17041 21.7504 1.02142 21.6173 0.914675C21.4842 0.80793 21.3186 0.749834 21.148 0.75Z"
                  fill="none" stroke-width="1.5" stroke-linecap="round" stroke-linejoin="round"/>
        </g>
        <g id="Invisible_Shape">
            <rect fill="none" stroke="none" width="24" height="24"></rect>
        </g>
    </symbol>
    <symbol id="satellite" viewBox="0 0 24 24">
        <g>
            <path d="M14.856 13.3872L16.977 15.5082" fill="none" stroke-width="1.5" stroke-linecap="round"
                  stroke-linejoin="round"/>
            <path d="M17.5076 14.9783L16.4469 16.0389C15.8611 16.6247 15.8611 17.5745 16.4469 18.1603L19.6289 21.3422C20.2147 21.928 21.1644 21.928 21.7502 21.3422L22.8109 20.2816C23.3966 19.6958 23.3966 18.7461 22.8109 18.1603L19.6289 14.9783C19.0431 14.3925 18.0933 14.3925 17.5076 14.9783Z"
                  fill="none" stroke-width="1.5" stroke-linecap="round" stroke-linejoin="round"/>
            <path d="M10.6132 9.14395L8.49219 7.02295" fill="none" stroke-width="1.5" stroke-linecap="round"
                  stroke-linejoin="round"/>
            <path d="M3.718 1.18923L2.65734 2.24989C2.07155 2.83567 2.07155 3.78542 2.65734 4.37121L5.83932 7.55319C6.42511 8.13897 7.37485 8.13897 7.96064 7.55319L9.0213 6.49253C9.60709 5.90674 9.60709 4.95699 9.0213 4.37121L5.83932 1.18923C5.25353 0.60344 4.30379 0.60344 3.718 1.18923Z"
                  fill="none" stroke-width="1.5" stroke-linecap="round" stroke-linejoin="round"/>
            <path d="M12.75 14.25C14.4069 14.25 15.75 12.9069 15.75 11.25C15.75 9.59315 14.4069 8.25 12.75 8.25C11.0931 8.25 9.75 9.59315 9.75 11.25C9.75 12.9069 11.0931 14.25 12.75 14.25Z"
                  fill="none" stroke-width="1.5" stroke-linecap="round" stroke-linejoin="round"/>
            <path d="M2.94685 10.4468C2.23823 11.1405 1.6742 11.9678 1.28741 12.8809C0.900623 13.794 0.698747 14.7747 0.693466 15.7663C0.688184 16.7579 0.879603 17.7408 1.25664 18.6579C1.63369 19.5751 2.18887 20.4084 2.89006 21.1096C3.59125 21.8108 4.42454 22.3659 5.3417 22.743C6.25886 23.12 7.24168 23.3114 8.2333 23.3062C9.22493 23.3009 10.2057 23.099 11.1187 22.7122C12.0318 22.3254 12.8592 21.7614 13.5528 21.0528"
                  fill="none" stroke-width="1.5" stroke-linecap="round" stroke-linejoin="round"/>
            <path d="M5.60021 13.1001C4.93781 13.811 4.57719 14.7512 4.59433 15.7227C4.61148 16.6942 5.00504 17.6211 5.6921 18.3082C6.37917 18.9953 7.30609 19.3888 8.2776 19.406C9.2491 19.4231 10.1893 19.0625 10.9002 18.4001"
                  fill="none" stroke-width="1.5" stroke-linecap="round" stroke-linejoin="round"/>
        </g>
        <g id="Invisible_Shape">
            <rect fill="none" stroke="none" width="24" height="24"></rect>
        </g>
    </symbol>
    <symbol id="loading" viewBox="0 0 24 24">
        <g>
            <path d="M12 1C5.92487 1 1 5.92487 1 12C1 18.0751 5.92487 23 12 23C18.0751 23 23 18.0751 23 12C23 8.31954 21.1925 5.06125 18.4167 3.06442"
                  fill="none" stroke-linecap="round"/>
        </g>
    </symbol>
    <symbol id="in" viewBox="0 0 24 24">
        <g>
            <path d="M12.002 0.750977V17.751" fill="none" stroke-width="1.5" stroke-linecap="round"
                  stroke-linejoin="round"/>
            <path d="M7.50195 13.251L12.002 17.751L16.502 13.251" fill="none" stroke-width="1.5" stroke-linecap="round"
                  stroke-linejoin="round"/>
            <path d="M15.752 8.5H18C18.7956 8.5 19.5587 8.81607 20.1213 9.37868C20.6839 9.94129 21 10.7044 21 11.5V20.25C21 21.0456 20.6839 21.8087 20.1213 22.3713C19.5587 22.9339 18.7956 23.25 18 23.25H6C5.20435 23.25 4.44129 22.9339 3.87868 22.3713C3.31607 21.8087 3 21.0456 3 20.25V11.5C3 10.7044 3.31607 9.94129 3.87868 9.37868C4.44129 8.81607 5.20435 8.5 6 8.5H8.25"
                  fill="none" stroke-width="1.5" stroke-linecap="round" stroke-linejoin="round"/>
        </g>
        <g id="Invisible_Shape">
            <rect fill="none" stroke="none" width="24" height="24"></rect>
        </g>
    </symbol>
    <symbol id="out" viewBox="0 0 24 24">
        <g>
            <path d="M10.002 17.751V0.750977" fill="none" stroke-width="1.5" stroke-linecap="round"
                  stroke-linejoin="round"/>
            <path d="M5.50195 5.25098L10.002 0.750977L14.502 5.25098" fill="none" stroke-width="1.5"
                  stroke-linecap="round" stroke-linejoin="round"/>
            <path d="M13.752 8.5H16C16.7956 8.5 17.5587 8.81607 18.1213 9.37868C18.6839 9.94129 19 10.7044 19 11.5V20.25C19 21.0456 18.6839 21.8087 18.1213 22.3713C17.5587 22.9339 16.7956 23.25 16 23.25H4C3.20435 23.25 2.44129 22.9339 1.87868 22.3713C1.31607 21.8087 1 21.0456 1 20.25V11.5C1 10.7044 1.31607 9.94129 1.87868 9.37868C2.44129 8.81607 3.20435 8.5 4 8.5H6.25"
                  fill="none" stroke-width="1.5" stroke-linecap="round" stroke-linejoin="round"/>
        </g>
        <g id="Invisible_Shape">
            <rect fill="none" stroke="none" width="24" height="24"></rect>
        </g>
    </symbol>
    <symbol id="switch" viewBox="0 0 24 14">
        <g>
            <path d="M10.5 10H23.25" fill="none" stroke-width="1.5" stroke-linecap="round" stroke-linejoin="round"/>
            <path d="M20.25 7L23.25 10L20.25 13" fill="none" stroke-width="1.5" stroke-linecap="round"
                  stroke-linejoin="round"/>
            <path d="M13.5 4H0.75" fill="none" stroke-width="1.5" stroke-linecap="round" stroke-linejoin="round"/>
            <path d="M3.75 7L0.75 4L3.75 1" fill="none" stroke-width="1.5" stroke-linecap="round"
                  stroke-linejoin="round"/>
        </g>
        <g id="Invisible_Shape">
            <rect fill="none" stroke="none" width="24" height="14"></rect>
        </g>
    </symbol>
    <symbol id="success" viewBox="0 0 24 24">
        <g>
            <path fill="none" class="a" d="M23.25,4.249,11.808,19.505a1.5,1.5,0,0,1-2.261.161L6.57,16.689"></path>
            <path fill="none" class="a" d="M6,19.76a1.5,1.5,0,0,1-2.133.012L.89,16.8"></path>
            <line fill="none" class="a" x1="17.43" y1="4.355" x2="9.29" y2="15.209"></line>
        </g>
        <g id="Invisible_Shape">
            <rect fill="none" stroke="none" width="24" height="24"></rect>
        </g>
    </symbol>
    <symbol id="error" viewBox="0 0 24 24">
        <g>
            <line class="a" x1="0.75" y1="23.249" x2="23.25" y2="0.749"></line>
            <line class="a" x1="23.25" y1="23.249" x2="0.75" y2="0.749"></line>
        </g>
        <g id="Invisible_Shape">
            <rect fill="none" stroke="none" width="24" height="24"></rect>
        </g>
    </symbol>
    <symbol id="warning" viewBox="0 0 24 24">
        <g>
            <path fill="none" class="a" d="M12,16.5a.375.375,0,1,0,.375.375A.375.375,0,0,0,12,16.5h0"></path>
            <line fill="none" class="b" x1="12" y1="13.5" x2="12" y2="6"></line>
            <path fill="none" class="a"
                  d="M1.28,13.281a1.812,1.812,0,0,1,0-2.561l9.44-9.439a1.808,1.808,0,0,1,2.56,0l9.44,9.439a1.812,1.812,0,0,1,0,2.561L13.28,22.72a1.811,1.811,0,0,1-2.56,0Z"></path>
        </g>
        <g id="Invisible_Shape">
            <rect fill="none" stroke="none" width="24" height="24"></rect>
        </g>
    </symbol>
    <symbol id="info" viewBox="0 0 24 24">
        <g>
            <path fill="none" class="a" d="M14.25,16.5H13.5A1.5,1.5,0,0,1,12,15V11.25a.75.75,0,0,0-.75-.75H10.5"></path>
            <path fill="none" class="a" d="M11.625,6.75A.375.375,0,1,0,12,7.125a.375.375,0,0,0-.375-.375h0"></path>
            <circle fill="none" class="a" cx="12" cy="12" r="11.25"></circle>
        </g>
        <g id="Invisible_Shape">
            <rect fill="none" stroke="none" width="24" height="24"></rect>
        </g>
    </symbol>
    <symbol id="man-close" viewBox="0 0 24 24">
        <g>
            <path d="M5.25 6.75C6.90685 6.75 8.25 5.40685 8.25 3.75C8.25 2.09315 6.90685 0.75 5.25 0.75C3.59315 0.75 2.25 2.09315 2.25 3.75C2.25 5.40685 3.59315 6.75 5.25 6.75Z"
                  fill="none" stroke-width="1.5" stroke-linecap="round" stroke-linejoin="round"/>
            <path d="M7.5 23.25L8.25 15.75H9.75V12.75C9.75 11.5565 9.27589 10.4119 8.43198 9.56802C7.58807 8.72411 6.44347 8.25 5.25 8.25C4.05653 8.25 2.91193 8.72411 2.06802 9.56802C1.22411 10.4119 0.75 11.5565 0.75 12.75V15.75H2.25L3 23.25H7.5Z"
                  fill="none" stroke-width="1.5" stroke-linecap="round" stroke-linejoin="round"/>
            <path d="M14 3L23 12" fill="none" stroke-width="1.5" stroke-linecap="round" stroke-linejoin="round"/>
            <path d="M23 3L14 12" fill="none" stroke-width="1.5" stroke-linecap="round" stroke-linejoin="round"/>
        </g>
    </symbol>
    <symbol id="man" viewBox="0 0 24 24">
        <g>
            <path d="M5.25 6.75C6.90685 6.75 8.25 5.40685 8.25 3.75C8.25 2.09315 6.90685 0.75 5.25 0.75C3.59315 0.75 2.25 2.09315 2.25 3.75C2.25 5.40685 3.59315 6.75 5.25 6.75Z"
                  stroke="#7068AA" fill="none" stroke-width="1.5" stroke-linecap="round" stroke-linejoin="round"/>
            <path d="M7.5 23.25L8.25 15.75H9.75V12.75C9.75 11.5565 9.27589 10.4119 8.43198 9.56802C7.58807 8.72411 6.44347 8.25 5.25 8.25C4.05653 8.25 2.91193 8.72411 2.06802 9.56802C1.22411 10.4119 0.75 11.5565 0.75 12.75V15.75H2.25L3 23.25H7.5Z"
                  stroke="#7068AA" fill="none" stroke-width="1.5" stroke-linecap="round" stroke-linejoin="round"/>
        </g>
    </symbol>
    <symbol id="man-check" viewBox="0 0 24 24">
        <g>
            <path d="M5.25 6.75C6.90685 6.75 8.25 5.40685 8.25 3.75C8.25 2.09315 6.90685 0.75 5.25 0.75C3.59315 0.75 2.25 2.09315 2.25 3.75C2.25 5.40685 3.59315 6.75 5.25 6.75Z"
                  fill="none" stroke-width="1.5" stroke-linecap="round" stroke-linejoin="round"/>
            <path d="M7.5 23.25L8.25 15.75H9.75V12.75C9.75 11.5565 9.27589 10.4119 8.43198 9.56802C7.58807 8.72411 6.44347 8.25 5.25 8.25C4.05653 8.25 2.91193 8.72411 2.06802 9.56802C1.22411 10.4119 0.75 11.5565 0.75 12.75V15.75H2.25L3 23.25H7.5Z"
                  fill="none" stroke-width="1.5" stroke-linecap="round" stroke-linejoin="round"/>
            <path d="M12 6.66667L15.6667 10.3333L23 3" fill="none" stroke-width="1.5" stroke-linecap="round"
                  stroke-linejoin="round"/>
        </g>
    </symbol>
    <symbol id="upload" viewBox="0 0 37 37">
        <g>
            <path d="M18.502 5.78125V24.2812" fill="none" stroke-width="1.5" stroke-linecap="round"
                  stroke-linejoin="round"/>
            <path d="M11.5645 17.3438L18.502 24.2812L25.4395 17.3438" fill="none" stroke-width="1.5"
                  stroke-linecap="round" stroke-linejoin="round"/>
            <path d="M35.8457 24.2812V26.5937C35.8457 27.8204 35.3584 28.9968 34.4911 29.8641C33.6237 30.7315 32.4473 31.2187 31.2207 31.2187H5.7832C4.55658 31.2187 3.38019 30.7315 2.51283 29.8641C1.64548 28.9968 1.1582 27.8204 1.1582 26.5937V24.2812"
                  fill="none" stroke-width="1.5" stroke-linecap="round" stroke-linejoin="round"/>
        </g>
    </symbol>
    <symbol id="copyToClipboard" viewBox="0 0 15 15">
        <g fill="none">
            <rect width="7" height="7" x="4.5" y="4.5" rx=".5" ry=".5"/>
            <path stroke-linecap="round" d="M2.5 7.5H1A.5.5 0 01.5 7V1A.5.5 0 011 .5h6a.5.5 0 01.5.5v1.5"/>
        </g>
    </symbol>

    <symbol id="sibdebarMenu" viewBox="0 0 24 24">
        <g>
            <path d="M2.8125 18.0029H27.1875" stroke="#4F457C" stroke-width="1.5" stroke-linecap="round"
                  stroke-linejoin="round"/>
            <path d="M2.8125 12.0029H27.1875" stroke="#4F457C" stroke-width="1.5" stroke-linecap="round"
                  stroke-linejoin="round"/>
            <path d="M2.8125 6.00293H27.1875" stroke="#4F457C" stroke-width="1.5" stroke-linecap="round"
                  stroke-linejoin="round"/>
        </g>
    </symbol>
    <symbol id="treasury" viewBox="0 0 30 29">
        <path d="M10.6064 28.3528L10.6232 28.266H11.2117H18.2427H18.8306L18.8474 28.3528H10.6064ZM17.9223 23.5871H17.5287H11.9259H11.5313L11.5482 23.5H17.9054L17.9223 23.5871Z"
              stroke="#7E8794"/>
        <path d="M20.6063 28.3528L20.6232 28.266H21.2117H28.2427H28.8306L28.8475 28.3528H20.6063ZM27.9226 23.5871H27.5287H21.9261H21.5311L21.548 23.5H27.9057L27.9226 23.5871Z"
              stroke="#7E8794"/>
        <path d="M0.606368 28.3528L0.623226 28.266H1.21171H8.24268H8.83056L8.84742 28.3528H0.606368ZM7.92232 23.5871H7.5287H1.92587H1.53128L1.54819 23.5H7.90541L7.92232 23.5871Z"
              stroke="#7E8794"/>
        <path d="M10.6064 13.3528L10.6232 13.266H11.2117H18.2427H18.8306L18.8474 13.3528H10.6064ZM17.9223 8.58714L17.5287 8.58712L11.9259 8.58687L11.5313 8.58685L11.5482 8.5H17.9054L17.9223 8.58714Z"
              stroke="#7E8794"/>
        <path d="M16.061 20.8521L16.0778 20.7652H16.6657H23.6967H24.2851L24.302 20.8521H16.061ZM23.3769 16.0871L22.9827 16.0871L17.3799 16.0868L16.9859 16.0868L17.0028 16H23.36L23.3769 16.0871Z"
              stroke="#7E8794"/>
        <path d="M4.60637 20.8528L4.62328 20.7657H5.21171H12.2427H12.831L12.8479 20.8528H4.60637ZM11.9223 16.0869H11.5287H5.92564H5.53134L5.54819 16H11.9054L11.9223 16.0869Z"
              stroke="#7E8794"/>
        <path d="M15 5V1" stroke="#7E8794" stroke-linecap="round" stroke-linejoin="round"/>
        <path d="M6.82861 7.82861L4.00019 5.00019" stroke="#7E8794" stroke-linecap="round" stroke-linejoin="round"/>
        <path d="M22 7.82861L24.8284 5.00019" stroke="#7E8794" stroke-linecap="round" stroke-linejoin="round"/>
    </symbol>
    <symbol id="moon" viewBox="0 0 24 24">
        <path d="M9.27 4.49001C7.64 12.03 13.02 16.9 16.93 18.29C15.54 19.38 13.81 20 12 20C7.59 20 4 16.41 4 12C4 8.55001 6.2 5.60001 9.27 4.49001ZM11.99 2.01001C6.4 2.01001 2 6.54001 2 12C2 17.52 6.48 22 12 22C15.71 22 18.93 19.98 20.66 16.98C13.15 16.73 8.57 8.55001 12.34 2.01001C12.22 2.01001 12.11 2.01001 11.99 2.01001Z"
              fill="#88D1C3"/>
    </symbol>
    <symbol id="sun" viewBox="0 0 24 24">
        <path d="M6.76 4.83999L4.96 3.04999L3.55 4.45999L5.34 6.24999L6.76 4.83999ZM1 10.5H4V12.5H1V10.5ZM11 0.549988H13V3.49999H11V0.549988ZM19.04 3.04499L20.448 4.45199L18.658 6.24199L17.251 4.83399L19.04 3.04499ZM17.24 18.16L19.03 19.96L20.44 18.55L18.64 16.76L17.24 18.16ZM20 10.5H23V12.5H20V10.5ZM12 5.49999C8.69 5.49999 6 8.18999 6 11.5C6 14.81 8.69 17.5 12 17.5C15.31 17.5 18 14.81 18 11.5C18 8.18999 15.31 5.49999 12 5.49999ZM12 15.5C9.79 15.5 8 13.71 8 11.5C8 9.28999 9.79 7.49999 12 7.49999C14.21 7.49999 16 9.28999 16 11.5C16 13.71 14.21 15.5 12 15.5ZM11 19.5H13V22.45H11V19.5ZM3.55 18.54L4.96 19.95L6.75 18.15L5.34 16.74L3.55 18.54Z"
              fill="#171933"/>
    </symbol>
    <symbol id="arrow" viewBox="0 0 24 24">
        <g fill="none" fill-rule="evenodd" stroke="#FFF" stroke-width="2">
            <path stroke-linejoin="round" d="M2 9h16"></path>
            <path d="M10 17L2 9l8-8"></path>
        </g>
    </symbol>
    <symbol id="greater-than" viewBox="0 0 24 24">
        <g fill="none" clip-path="url(#clip0_2010_4141)">
            <path d="M1.5 21.7222L10.5 11.5L1.5 1.27779" stroke="#4F457C" stroke-width="1.5" stroke-linecap="round"
                  stroke-linejoin="round"/>
        </g>
    </symbol>
    <symbol id="add" viewBox="0 0 24 24">
        <g clip-path="url(#clip0_1510_12508)">
            <path d="M0.75 12H23.25" stroke="#7068AA" stroke-width="2" stroke-linecap="round" stroke-linejoin="round"/>
            <path d="M12 0.75V23.25" stroke="#7068AA" stroke-width="2" stroke-linecap="round" stroke-linejoin="round"/>
        </g>
        <defs>
            <clipPath id="clip0_1510_12508">
                <rect width="24" height="24" fill="none"/>
            </clipPath>
        </defs>
    </symbol>
    <symbol id="subtract" viewBox="0 0 24 24">
        <g clip-path="url(#clip0_1510_12512)">
            <path d="M0.75 12H23.25" stroke="#7068AA" stroke-width="2" stroke-linecap="round" stroke-linejoin="round"/>
        </g>
        <defs>
            <clipPath id="clip0_1510_12512">
                <rect width="24" height="24" fill="none"/>
            </clipPath>
        </defs>
    </symbol>
    <symbol id="check" viewBox="0 0 24 24">
        <g clip-path="url(#clip0_1510_12545)">
            <path d="M1 6L6 11L16 1" stroke="white" stroke-width="1.5" stroke-linecap="round" stroke-linejoin="round"
                  fill="none"/>
        </g>
        <defs>
            <clipPath id="clip0_1510_12545">
                <rect width="24" height="24" fill="none"/>
            </clipPath>
        </defs>
    </symbol>
    <symbol id="man-running" viewBox="0 0 28 24">
        <g>
            <path fill="none"
                  d="M23.7594 17.4153L25.4107 17.6415L25.8449 14.4711C26.0177 13.2098 25.6615 11.9287 24.8546 10.9096C24.0478 9.89055 22.8564 9.21692 21.5426 9.03695C20.2288 8.85699 18.9002 9.18543 17.849 9.95002C16.7978 10.7146 16.1102 11.8527 15.9375 13.114L15.5032 16.2844L17.1544 16.5106L23.7594 17.4153Z"
                  stroke-width="1.5" stroke-linecap="round" stroke-linejoin="round"/>
            <path fill="none" d="M23 18L25 22.8857L23 27" stroke-width="1.5" stroke-linecap="round"
                  stroke-linejoin="round"/>
            <path fill="none" d="M18.5 17L20 22.9231L16 24" stroke-width="1.5" stroke-linecap="round"
                  stroke-linejoin="round"/>
            <path fill="none"
                  d="M23 7C24.6569 7 26 5.65685 26 4C26 2.34315 24.6569 1 23 1C21.3431 1 20 2.34315 20 4C20 5.65685 21.3431 7 23 7Z"
                  stroke-width="1.5" stroke-linecap="round" stroke-linejoin="round"/>
            <path fill="none" d="M10.5 12.5H3.5" stroke-width="1.5" stroke-linecap="round" stroke-linejoin="round"/>
            <path fill="none" d="M8 17H1" stroke-width="1.5" stroke-linecap="round" stroke-linejoin="round"/>
            <path fill="none" d="M8 8H1" stroke-width="1.5" stroke-linecap="round" stroke-linejoin="round"/>
        </g>
    </symbol>
    <symbol id="arrow-up" viewBox="0 0 13 8">
        <path d="M11.3525 6.40002L6.4996 1.60002L1.64666 6.40002" stroke-width="1.5" stroke-linecap="round"
              stroke-linejoin="round"/>
    </symbol>
    <symbol id="arrow-down" viewBox="0 0 13 8">
        <path d="M1.5 1L6.5 6L11.5 1" stroke-width="1.5" stroke-linecap="round" stroke-linejoin="round"/>
    </symbol>
    <symbol id="menu-compass" viewBox="0 0 24 24">
        <g>
            <path d="M1.11011 11.65C1.11011 5.64121 6.00132 0.75 12.0101 0.75C18.0189 0.75 22.9101 5.64121 22.9101 11.65C22.9101 17.6588 18.0189 22.55 12.0101 22.55C6.00132 22.55 1.11011 17.6588 1.11011 11.65ZM1.38197 11.65C1.38197 17.5127 6.14742 22.2781 12.0101 22.2781C17.8728 22.2781 22.6382 17.5127 22.6382 11.65C22.6382 5.78731 17.8728 1.02186 12.0101 1.02186C6.14742 1.02186 1.38197 5.78731 1.38197 11.65Z"
                  fill="none" stroke-width="1.5" stroke-linecap="round" stroke-linejoin="round"/>
            <path d="M14.6856 11.4816L12.6569 3.83597C12.5771 3.54361 12.3202 3.33984 12.019 3.33984C11.7178 3.33984 11.452 3.54361 11.3811 3.83597L9.35233 11.4816V11.4993C9.34347 11.5524 9.35233 11.5967 9.35233 11.6499C9.35233 11.703 9.35233 11.7473 9.35233 11.8005V11.8182L11.3811 19.4549C11.4608 19.7473 11.7178 19.9511 12.019 19.9511C12.3202 19.9511 12.586 19.7473 12.6569 19.4549L14.6856 11.8182V11.8005C14.6945 11.7473 14.6856 11.703 14.6856 11.6499C14.6856 11.5967 14.6856 11.5524 14.6856 11.4993V11.4816V11.4816ZM12.0101 16.7086L10.8407 12.3143H13.1796L12.0101 16.7086Z"
                  fill="none" stroke-width="1.5" stroke-linecap="round" stroke-linejoin="round"/>
            <path d="M17.8838 11.4854H18.9558C19.0429 11.4854 19.1203 11.5627 19.1203 11.6498C19.1203 11.7369 19.0429 11.8142 18.9558 11.8142H17.8838C17.7967 11.8142 17.7194 11.7369 17.7194 11.6498C17.7194 11.5627 17.7967 11.4854 17.8838 11.4854Z"
                  fill="none" stroke-width="1.5" stroke-linecap="round" stroke-linejoin="round"/>
            <path d="M6.12751 11.4854C6.2146 11.4854 6.29196 11.5627 6.29196 11.6498C6.29196 11.7369 6.2146 11.8142 6.12751 11.8142H5.05553C4.96844 11.8142 4.89108 11.7369 4.89108 11.6498C4.89108 11.5627 4.96844 11.4854 5.05553 11.4854H6.12751Z"
                  fill="none" stroke-width="1.5" stroke-linecap="round" stroke-linejoin="round"/>
            <path d="M16.8022 16.6738L16.4722 17.0038L16.8022 16.6738L16.0491 15.9208C16.0491 15.9208 16.0491 15.9208 16.0491 15.9208C15.9875 15.8591 15.9875 15.7505 16.0491 15.6888C16.1108 15.6272 16.2195 15.6272 16.2811 15.6888L17.0342 16.4419C17.0958 16.5035 17.0958 16.6122 17.0342 16.6738C17 16.708 16.961 16.7223 16.9182 16.7223C16.8753 16.7223 16.8364 16.708 16.8022 16.6738Z"
                  fill="none" stroke-width="1.5" stroke-linecap="round" stroke-linejoin="round"/>
            <path d="M7.73911 7.61086L7.38555 7.96441L7.7391 7.61086L6.98606 6.85781C6.9244 6.79616 6.9244 6.68749 6.98606 6.62583C7.04772 6.56418 7.15639 6.56418 7.21804 6.62583L7.97109 7.37888C8.03274 7.44053 8.03274 7.5492 7.97109 7.61086C7.93691 7.64504 7.89797 7.65931 7.8551 7.65931C7.81222 7.65931 7.77329 7.64504 7.73911 7.61086Z"
                  fill="none" stroke-width="1.5" stroke-linecap="round" stroke-linejoin="round"/>
            <path d="M16.2811 7.61086C16.2469 7.64504 16.208 7.65931 16.1651 7.65931C16.1223 7.65931 16.0833 7.64504 16.0491 7.61086C15.9875 7.5492 15.9875 7.44053 16.0491 7.37888L16.8022 6.62583L16.4486 6.27228L16.8022 6.62583C16.8638 6.56418 16.9725 6.56418 17.0342 6.62583C17.0958 6.68749 17.0958 6.79616 17.0342 6.85781L16.2811 7.61086L16.6347 7.96441L16.2811 7.61086Z"
                  fill="none" stroke-width="1.5" stroke-linecap="round" stroke-linejoin="round"/>
            <path d="M6.98606 16.4419L7.73911 15.6888C7.80076 15.6272 7.90943 15.6272 7.97109 15.6888C8.03274 15.7505 8.03274 15.8591 7.97109 15.9208L7.21804 16.6738L7.5585 17.0143L7.21804 16.6738C7.18386 16.708 7.14493 16.7223 7.10205 16.7223C7.05918 16.7223 7.02024 16.708 6.98606 16.6738C6.9244 16.6122 6.9244 16.5035 6.98606 16.4419Z"
                  fill="none" stroke-width="1.5" stroke-linecap="round" stroke-linejoin="round"/>
        </g>
        <g id="Invisible_Shape">
            <rect fill="none" stroke="none" width="24" height="24"></rect>
        </g>
    </symbol>
    <symbol id="menu-staking" viewBox="0 0 22 25">
        <g>
            <mask id="path-1-inside-1_2666_25484" fill="none">
                <path d="M21.2359 15.1052V9.21089H21.22C21.0445 7.53591 18.3406 6.65855 15.6606 6.65855C12.9807 6.65855 10.2768 7.53591 10.1013 9.21089H10.0854V10.2956C9.02454 9.79314 7.55695 9.52993 6.1053 9.52993C5.65067 9.52993 5.19603 9.55386 4.75735 9.60969V6.32355H10.4523C10.7793 6.32355 11.0505 6.05237 11.0505 5.72535V2.21587C11.0505 1.88886 10.7793 1.61767 10.4523 1.61767H4.75735V0.86792C4.75735 0.429236 4.39842 0.0703125 3.95974 0.0703125C3.52106 0.0703125 3.16213 0.429236 3.16213 0.86792V9.91279C1.72644 10.3196 0.657646 11.0534 0.545981 12.0823H0.530029V17.9846C0.530029 17.9846 0.530029 18.0165 0.530029 18.0324C0.530029 18.0883 0.538005 18.1521 0.545981 18.2159C0.761335 19.7632 3.14618 20.6087 5.64269 20.7044V21.3425C5.64269 21.3425 5.64269 21.3744 5.64269 21.3904C5.64269 21.4462 5.65067 21.51 5.65864 21.5738C5.88197 23.2169 8.56193 24.0703 11.21 24.0703C13.858 24.0703 16.538 23.2089 16.7613 21.5738C16.7693 21.51 16.7773 21.4462 16.7773 21.3904C16.7773 21.3744 16.7773 21.3664 16.7773 21.3505V20.6565C19.0106 20.4492 20.9966 19.6197 21.196 18.2159C21.204 18.1521 21.212 18.0883 21.212 18.0324C21.212 18.0165 21.212 18.0085 21.212 17.9925V15.0972L21.2359 15.1052ZM2.12524 12.2577C2.15715 11.9945 3.44927 11.1331 6.1053 11.1331C8.76133 11.1331 10.0535 11.9945 10.0854 12.2577C10.0535 12.521 8.75336 13.3824 6.1053 13.3824C3.45725 13.3824 2.15715 12.521 2.12524 12.2577ZM11.6806 9.38636C11.7125 9.12315 13.0046 8.26173 15.6606 8.26173C18.3167 8.26173 19.6088 9.12315 19.6407 9.38636C19.6088 9.64957 18.3087 10.511 15.6606 10.511C13.0126 10.511 11.7125 9.64957 11.6806 9.38636ZM15.206 21.3345C15.206 21.3345 15.1103 21.5339 14.7514 21.7413C13.9857 22.188 12.6377 22.4591 11.2259 22.4591C9.81418 22.4591 8.46622 22.18 7.70052 21.7413C7.33362 21.5339 7.24588 21.3664 7.24588 21.3345V20.4412C8.3067 20.9437 9.76632 21.2069 11.2259 21.2069C12.6856 21.2069 14.1452 20.9437 15.206 20.4412V21.3265V21.3345ZM11.2259 19.6117C8.56991 19.6117 7.27779 18.7503 7.24588 18.4871C7.27779 18.2239 8.56991 17.3624 11.2259 17.3624C13.882 17.3624 15.1741 18.2239 15.206 18.4871C15.1741 18.7503 13.874 19.6117 11.2259 19.6117ZM19.1861 15.504C18.4204 15.9507 17.0724 16.2219 15.6606 16.2219C15.0545 16.2219 14.4562 16.166 13.9139 16.0703C13.6905 16.0145 13.4592 15.9666 13.22 15.9267C12.7972 15.8151 12.4224 15.6715 12.1352 15.504C11.7683 15.2966 11.6806 15.1291 11.6806 15.0972V14.2039C12.7414 14.7064 14.201 14.9696 15.6606 14.9696C17.1203 14.9696 18.5799 14.7064 19.6407 14.2039V15.0893C19.6407 15.0893 19.545 15.2887 19.1861 15.496V15.504ZM19.1861 12.6326C18.4204 13.0793 17.0724 13.3505 15.6606 13.3505C14.2489 13.3505 12.9009 13.0713 12.1352 12.6326C11.7683 12.4252 11.6806 12.2577 11.6806 12.2258V11.3325C12.7414 11.835 14.201 12.0982 15.6606 12.0982C17.1203 12.0982 18.5799 11.835 19.6407 11.3325V12.2179C19.6407 12.2179 19.545 12.4173 19.1861 12.6246V12.6326ZM6.1053 14.9696C7.56492 14.9696 9.02454 14.7064 10.0854 14.2039V15.0893C10.0854 15.0893 9.98965 15.2887 9.63073 15.496C8.86502 15.9427 7.51707 16.2139 6.1053 16.2139C4.69354 16.2139 3.34558 15.9347 2.57988 15.496C2.21298 15.2887 2.12524 15.1212 2.12524 15.0893V14.1959C3.18606 14.6984 4.65366 14.9616 6.1053 14.9616V14.9696ZM5.77828 17.833C5.71448 17.9846 5.6746 18.1441 5.65864 18.3116H5.64269V19.0853C4.4064 19.0294 3.25785 18.7742 2.57988 18.3754C2.21298 18.168 2.12524 18.0005 2.12524 17.9686V17.0753C3.1063 17.5459 4.4383 17.8011 5.78626 17.833H5.77828ZM19.1781 18.3754C18.6198 18.6944 17.7583 18.9257 16.7932 19.0294V18.3036H16.7773C16.7613 18.1281 16.7135 17.9527 16.6417 17.7931C17.7583 17.7054 18.8112 17.4581 19.6327 17.0673V17.9527C19.6327 17.9527 19.537 18.1521 19.1781 18.3594V18.3754Z"/>
            </mask>
            <path d="M21.2359 15.1052V9.21089H21.22C21.0445 7.53591 18.3406 6.65855 15.6606 6.65855C12.9807 6.65855 10.2768 7.53591 10.1013 9.21089H10.0854V10.2956C9.02454 9.79314 7.55695 9.52993 6.1053 9.52993C5.65067 9.52993 5.19603 9.55386 4.75735 9.60969V6.32355H10.4523C10.7793 6.32355 11.0505 6.05237 11.0505 5.72535V2.21587C11.0505 1.88886 10.7793 1.61767 10.4523 1.61767H4.75735V0.86792C4.75735 0.429236 4.39842 0.0703125 3.95974 0.0703125C3.52106 0.0703125 3.16213 0.429236 3.16213 0.86792V9.91279C1.72644 10.3196 0.657646 11.0534 0.545981 12.0823H0.530029V17.9846C0.530029 17.9846 0.530029 18.0165 0.530029 18.0324C0.530029 18.0883 0.538005 18.1521 0.545981 18.2159C0.761335 19.7632 3.14618 20.6087 5.64269 20.7044V21.3425C5.64269 21.3425 5.64269 21.3744 5.64269 21.3904C5.64269 21.4462 5.65067 21.51 5.65864 21.5738C5.88197 23.2169 8.56193 24.0703 11.21 24.0703C13.858 24.0703 16.538 23.2089 16.7613 21.5738C16.7693 21.51 16.7773 21.4462 16.7773 21.3904C16.7773 21.3744 16.7773 21.3664 16.7773 21.3505V20.6565C19.0106 20.4492 20.9966 19.6197 21.196 18.2159C21.204 18.1521 21.212 18.0883 21.212 18.0324C21.212 18.0165 21.212 18.0085 21.212 17.9925V15.0972L21.2359 15.1052ZM2.12524 12.2577C2.15715 11.9945 3.44927 11.1331 6.1053 11.1331C8.76133 11.1331 10.0535 11.9945 10.0854 12.2577C10.0535 12.521 8.75336 13.3824 6.1053 13.3824C3.45725 13.3824 2.15715 12.521 2.12524 12.2577ZM11.6806 9.38636C11.7125 9.12315 13.0046 8.26173 15.6606 8.26173C18.3167 8.26173 19.6088 9.12315 19.6407 9.38636C19.6088 9.64957 18.3087 10.511 15.6606 10.511C13.0126 10.511 11.7125 9.64957 11.6806 9.38636ZM15.206 21.3345C15.206 21.3345 15.1103 21.5339 14.7514 21.7413C13.9857 22.188 12.6377 22.4591 11.2259 22.4591C9.81418 22.4591 8.46622 22.18 7.70052 21.7413C7.33362 21.5339 7.24588 21.3664 7.24588 21.3345V20.4412C8.3067 20.9437 9.76632 21.2069 11.2259 21.2069C12.6856 21.2069 14.1452 20.9437 15.206 20.4412V21.3265V21.3345ZM11.2259 19.6117C8.56991 19.6117 7.27779 18.7503 7.24588 18.4871C7.27779 18.2239 8.56991 17.3624 11.2259 17.3624C13.882 17.3624 15.1741 18.2239 15.206 18.4871C15.1741 18.7503 13.874 19.6117 11.2259 19.6117ZM19.1861 15.504C18.4204 15.9507 17.0724 16.2219 15.6606 16.2219C15.0545 16.2219 14.4562 16.166 13.9139 16.0703C13.6905 16.0145 13.4592 15.9666 13.22 15.9267C12.7972 15.8151 12.4224 15.6715 12.1352 15.504C11.7683 15.2966 11.6806 15.1291 11.6806 15.0972V14.2039C12.7414 14.7064 14.201 14.9696 15.6606 14.9696C17.1203 14.9696 18.5799 14.7064 19.6407 14.2039V15.0893C19.6407 15.0893 19.545 15.2887 19.1861 15.496V15.504ZM19.1861 12.6326C18.4204 13.0793 17.0724 13.3505 15.6606 13.3505C14.2489 13.3505 12.9009 13.0713 12.1352 12.6326C11.7683 12.4252 11.6806 12.2577 11.6806 12.2258V11.3325C12.7414 11.835 14.201 12.0982 15.6606 12.0982C17.1203 12.0982 18.5799 11.835 19.6407 11.3325V12.2179C19.6407 12.2179 19.545 12.4173 19.1861 12.6246V12.6326ZM6.1053 14.9696C7.56492 14.9696 9.02454 14.7064 10.0854 14.2039V15.0893C10.0854 15.0893 9.98965 15.2887 9.63073 15.496C8.86502 15.9427 7.51707 16.2139 6.1053 16.2139C4.69354 16.2139 3.34558 15.9347 2.57988 15.496C2.21298 15.2887 2.12524 15.1212 2.12524 15.0893V14.1959C3.18606 14.6984 4.65366 14.9616 6.1053 14.9616V14.9696ZM5.77828 17.833C5.71448 17.9846 5.6746 18.1441 5.65864 18.3116H5.64269V19.0853C4.4064 19.0294 3.25785 18.7742 2.57988 18.3754C2.21298 18.168 2.12524 18.0005 2.12524 17.9686V17.0753C3.1063 17.5459 4.4383 17.8011 5.78626 17.833H5.77828ZM19.1781 18.3754C18.6198 18.6944 17.7583 18.9257 16.7932 19.0294V18.3036H16.7773C16.7613 18.1281 16.7135 17.9527 16.6417 17.7931C17.7583 17.7054 18.8112 17.4581 19.6327 17.0673V17.9527C19.6327 17.9527 19.537 18.1521 19.1781 18.3594V18.3754Z"
                  fill="none" stroke-width="1.5" stroke-linecap="round" stroke-linejoin="round" mask="url(#path-1-inside-1_2666_25484)"/>
        </g>
        <g id="Invisible_Shape">
            <rect fill="none" stroke="none" width="24" height="24"></rect>
        </g>
    </symbol>
    <symbol id="menu-gov" viewBox="0 0 24 24">
        <g>

        </g>
        <g id="Invisible_Shape">
            <rect fill="none" stroke="none" width="24" height="24"></rect>
        </g>
    </symbol>
    <symbol id="menu-satellites" viewBox="0 0 24 24">
        <g>

        </g>
        <g id="Invisible_Shape">
            <rect fill="none" stroke="none" width="24" height="24"></rect>
        </g>
    </symbol>
    <symbol id="menu-loans" viewBox="0 0 24 24">
        <g>

        </g>
        <g id="Invisible_Shape">
            <rect fill="none" stroke="none" width="24" height="24"></rect>
        </g>
    </symbol>
    <symbol id="menu-farms" viewBox="0 0 24 24">
        <g>

        </g>
        <g id="Invisible_Shape">
            <rect fill="none" stroke="none" width="24" height="24"></rect>
        </g>
    </symbol>
    <symbol id="menu-vaults" viewBox="0 0 24 24">
        <g>

        </g>
        <g id="Invisible_Shape">
            <rect fill="none" stroke="none" width="24" height="24"></rect>
        </g>
    </symbol>
    <symbol id="menu-treasury" viewBox="0 0 24 24">
        <g>

        </g>
        <g id="Invisible_Shape">
            <rect fill="none" stroke="none" width="24" height="24"></rect>
        </g>
    </symbol>
    <symbol id="menu-admin" viewBox="0 0 24 24">
        <g>

        </g>
        <g id="Invisible_Shape">
            <rect fill="none" stroke="none" width="24" height="24"></rect>
        </g>
    </symbol>
</svg>
