<svg width="62" height="62" viewBox="0 0 62 62" fill="none" xmlns="http://www.w3.org/2000/svg">
<g clip-path="url(#clip0)">
<g clip-path="url(#clip1)">
<path d="M28.8871 5.16675V5.71672C24.1176 6.90664 19.8303 10.0723 16.7495 14.6788C13.6687 19.2854 11.9833 25.0504 11.978 31.0001C11.9783 36.9543 13.6614 42.7256 16.7426 47.3375C19.8238 51.9495 24.1139 55.1191 28.8871 56.3099V56.8334H33.1144C38.7201 56.8334 44.0962 54.1117 48.06 49.267C52.0239 44.4223 54.2507 37.8515 54.2507 31.0001C54.2507 24.1487 52.0239 17.5778 48.06 12.7332C44.0962 7.88847 38.7201 5.16675 33.1144 5.16675L28.8871 5.16675Z" fill="#AC8200"/>
<path d="M50.0234 31.0001C50.0234 34.3926 49.4767 37.7518 48.4145 40.8861C47.3523 44.0203 45.7954 46.8682 43.8328 49.267C41.8701 51.6658 39.54 53.5687 36.9756 54.867C34.4112 56.1652 31.6628 56.8334 28.8871 56.8334C26.1114 56.8334 23.3629 56.1652 20.7986 54.867C18.2342 53.5687 15.9041 51.6658 13.9414 49.267C11.9787 46.8682 10.4218 44.0203 9.35964 40.8861C8.29744 37.7518 7.75073 34.3926 7.75073 31.0001C7.75073 24.1487 9.97759 17.5778 13.9414 12.7332C17.9053 7.88846 23.2814 5.16675 28.8871 5.16675C34.4928 5.16675 39.8689 7.88846 43.8328 12.7332C47.7966 17.5778 50.0234 24.1487 50.0234 31.0001Z" fill="#E4AC00"/>
<path d="M20.9813 7.75C17.4001 9.85827 14.3779 13.1581 12.2616 17.2706C10.1453 21.3831 9.02081 26.1417 9.01709 31C9.02259 35.8609 10.1501 40.6212 12.2699 44.734C14.3898 48.8468 17.416 52.1451 21.0009 54.25H30.1534V51.6667C29.7544 51.6666 29.3555 51.6493 28.9574 51.6148C28.395 51.5661 27.835 51.483 27.2794 51.366C26.7239 51.2488 26.1735 51.0978 25.6303 50.9135C25.0871 50.7292 24.5518 50.5118 24.0264 50.2622C23.5009 50.0125 22.986 49.7309 22.4836 49.4184C21.9812 49.1058 21.4918 48.7628 21.0174 48.3905C20.543 48.0182 20.0842 47.6171 19.6426 47.1888C19.201 46.7605 18.7772 46.3054 18.3727 45.8253C17.9683 45.3453 17.5838 44.8408 17.2206 44.3139C16.8575 43.7868 16.5161 43.2379 16.1978 42.6692C15.8795 42.1005 15.5847 41.5128 15.3144 40.9081C15.0441 40.3034 14.7987 39.6826 14.5791 39.0479C14.3596 38.4133 14.1662 37.7656 13.9997 37.1074C13.833 36.4491 13.6934 35.7812 13.5814 35.1059C13.4694 34.4306 13.3852 33.7488 13.3289 33.0632C13.2726 32.3776 13.2444 31.689 13.2444 31C13.2444 30.5122 13.2585 30.0246 13.2868 29.538C13.3267 28.8507 13.3946 28.1663 13.4904 27.4873C13.5862 26.8083 13.7098 26.1356 13.8606 25.4717C14.0114 24.8077 14.1892 24.1534 14.3935 23.5112C14.5978 22.869 14.8282 22.2397 15.0839 21.6257C15.3396 21.0116 15.6203 20.4136 15.9249 19.8337C16.2295 19.2539 16.5576 18.6931 16.9081 18.1534C17.2585 17.6136 17.6309 17.0956 18.0237 16.6013C18.4164 16.1071 18.8291 15.6371 19.2603 15.1932C19.6915 14.7494 20.1406 14.3322 20.6059 13.9431C21.0712 13.554 21.5521 13.1936 22.0468 12.8632C22.5416 12.5329 23.0495 12.233 23.5688 11.9647C24.0881 11.6963 24.6179 11.4599 25.1565 11.2563C25.6951 11.0527 26.2416 10.8821 26.7941 10.7453C27.3466 10.6083 27.9044 10.5053 28.4653 10.4365C29.0263 10.3677 29.5897 10.3333 30.1534 10.3333V7.75H20.9813Z" fill="#AC8200"/>
<path d="M28.8862 5.42505C23.3365 5.42505 18.0142 8.11955 14.09 12.9158C10.1658 17.712 7.96118 24.2171 7.96118 31C7.96118 37.783 10.1658 44.2881 14.09 49.0843C18.0142 53.8805 23.3365 56.575 28.8862 56.575C34.4358 56.575 39.7582 53.8805 43.6824 49.0843C47.6066 44.2881 49.8112 37.783 49.8112 31C49.8112 27.6415 49.2699 24.3158 48.2184 21.2129C47.1668 18.11 45.6255 15.2907 43.6824 12.9158C41.7393 10.5409 39.4326 8.65709 36.8938 7.37183C34.3551 6.08656 31.6341 5.42505 28.8862 5.42505ZM28.8862 10.54C29.4443 10.5401 30.0021 10.5742 30.5574 10.6423C31.1127 10.7104 31.6649 10.8124 32.2119 10.9478C32.7589 11.0834 33.3 11.2523 33.8331 11.454C34.3663 11.6555 34.8909 11.8895 35.405 12.1551C35.919 12.4208 36.4219 12.7177 36.9117 13.0448C37.4015 13.3718 37.8776 13.7286 38.3382 14.1138C38.7989 14.4989 39.2435 14.9119 39.6704 15.3513C40.0972 15.7908 40.5059 16.2561 40.8947 16.7454C41.2836 17.2347 41.6522 17.7475 41.9991 18.2819C42.3461 18.8162 42.6709 19.3714 42.9725 19.9455C43.274 20.5195 43.5519 21.1116 43.805 21.7195C44.0582 22.3275 44.2863 22.9505 44.4885 23.5863C44.6907 24.222 44.8668 24.8698 45.0161 25.527C45.1654 26.1843 45.2877 26.8502 45.3826 27.5224C45.4774 28.1947 45.5447 28.8724 45.5842 29.5529C45.6121 30.0345 45.6261 30.5172 45.6262 31C45.6261 31.6822 45.5982 32.3639 45.5425 33.0427C45.4868 33.7214 45.4034 34.3963 45.2925 35.0649C45.1816 35.7334 45.0434 36.3947 44.8784 37.0463C44.7135 37.6981 44.5221 38.3393 44.3048 38.9677C44.0874 39.5959 43.8444 40.2105 43.5768 40.8091C43.3093 41.4077 43.0174 41.9896 42.7022 42.5526C42.3871 43.1156 42.0492 43.659 41.6897 44.1808C41.3301 44.7025 40.9494 45.2019 40.5491 45.6771C40.1487 46.1524 39.7291 46.6029 39.292 47.027C38.8548 47.451 38.4005 47.8481 37.9308 48.2166C37.4612 48.5852 36.9767 48.9248 36.4793 49.2342C35.9819 49.5436 35.4722 49.8224 34.952 50.0696C34.4318 50.3167 33.9019 50.5319 33.3641 50.7144C32.8264 50.8969 32.2815 51.0464 31.7315 51.1623C31.1814 51.2783 30.627 51.3606 30.0702 51.4089C29.6762 51.443 29.2812 51.4601 28.8862 51.46C28.3281 51.4601 27.7703 51.426 27.215 51.3579C26.6596 51.2898 26.1074 51.1878 25.5604 51.0522C25.0135 50.9167 24.4724 50.7479 23.9392 50.5463C23.406 50.3447 22.8814 50.1107 22.3674 49.845C21.8533 49.5794 21.3504 49.2825 20.8606 48.9555C20.3708 48.6284 19.8947 48.2716 19.4341 47.8863C18.9735 47.5012 18.5289 47.0882 18.102 46.6488C17.6751 46.2093 17.2665 45.744 16.8777 45.2547C16.4888 44.7654 16.1202 44.2526 15.7732 43.7182C15.4263 43.1839 15.1014 42.6287 14.7999 42.0546C14.4983 41.4806 14.2205 40.8885 13.9673 40.2806C13.7142 39.6727 13.486 39.0497 13.2838 38.414C13.0816 37.7782 12.9055 37.1304 12.7563 36.4731C12.607 35.8158 12.4846 35.1498 12.3898 34.4776C12.2949 33.8054 12.2277 33.1279 12.1882 32.4474C12.1602 31.9657 12.1462 31.483 12.1462 31C12.1462 30.3179 12.1741 29.6362 12.2299 28.9574C12.2856 28.2787 12.369 27.6038 12.4798 26.9352C12.5908 26.2667 12.729 25.6054 12.8939 24.9538C13.0588 24.3021 13.2503 23.6609 13.4676 23.0326C13.6849 22.4043 13.9279 21.7897 14.1955 21.191C14.4631 20.5924 14.755 20.0105 15.0701 19.4475C15.3852 18.8845 15.7232 18.3411 16.0827 17.8193C16.4422 17.2976 16.8229 16.7982 17.2233 16.323C17.6236 15.8477 18.0432 15.3972 18.4804 14.9731C18.9176 14.5491 19.3719 14.152 19.8415 13.7835C20.3112 13.4149 20.7956 13.0753 21.293 12.7659C21.7904 12.4565 22.3002 12.1777 22.8204 11.9305C23.3405 11.6834 23.8705 11.4682 24.4082 11.2857C24.946 11.1032 25.4909 10.9537 26.0409 10.8378C26.5909 10.7218 27.1454 10.6396 27.7021 10.5914C28.0962 10.5572 28.4911 10.5401 28.8862 10.54Z" fill="#FFD800" stroke="#906C00" stroke-width="0.234668"/>
</g>
<path d="M21.3311 25.032C21.356 24.7263 21.2622 24.4243 21.0784 24.2186L19.2068 21.4183V21H25.0183L29.5103 33.2353L33.4594 21H38.9996V21.4183L37.3993 23.3239C37.2613 23.4545 37.1929 23.6692 37.2215 23.8816V37.8831C37.1929 38.0955 37.2613 38.3102 37.3993 38.4408L38.9621 40.3464V40.7647H31.1012V40.3464L32.7201 38.3943C32.8792 38.1968 32.8792 38.1387 32.8792 37.8366V26.5192L28.3779 40.7182H27.7696L22.529 26.5192V36.0356C22.4853 36.4357 22.5923 36.8385 22.8191 37.1278L24.9247 40.2999V40.7182H18.9541V40.2999L21.0597 37.1278C21.2849 36.838 21.3856 36.4325 21.3311 36.0356V25.032Z" fill="#AC8200"/>
<path d="M28.6656 33.2706L32.5891 21.115H37.9305V21.3764L36.3611 23.2452C36.1979 23.4032 36.1226 23.6502 36.1524 23.889V37.8757C36.1226 38.1142 36.1977 38.361 36.3606 38.519L37.893 40.3875V40.6497H30.2621V40.3879L31.8546 38.4678L31.8556 38.4665C31.9378 38.3645 31.9904 38.2849 32.0166 38.1834C32.0402 38.0921 32.0402 37.9888 32.0401 37.8509L32.0401 37.8366V26.5192L31.8155 26.4845L27.3396 40.6032H26.8956L21.6828 26.4794L21.4599 26.5192V36.0294C21.4152 36.4526 21.5276 36.8817 21.7716 37.1951L23.8556 40.3346V40.6032H18.115V40.3346L20.1991 37.1949C20.4417 36.8805 20.5477 36.4483 20.492 36.0279V25.0365C20.5176 24.7079 20.4181 24.3787 20.2156 24.1482L18.3677 21.3834V21.115H23.9839L28.4482 33.2749L28.5631 33.588L28.6656 33.2706Z" fill="#FFD800" stroke="#906C00" stroke-width="0.23"/>
</g>
<defs>
<clipPath id="clip0">
<rect width="62" height="62" fill="white"/>
</clipPath>
<clipPath id="clip1">
<rect width="48" height="116.16" fill="white" transform="translate(6.99976 -59.1604)"/>
</clipPath>
</defs>
</svg>
