<svg width="152" height="127" viewBox="0 0 152 127" fill="none" xmlns="http://www.w3.org/2000/svg">
<g clip-path="url(#clip0)">
<g clip-path="url(#clip1)">
<g clip-path="url(#clip2)">
<path d="M81.9092 90.6665V90.9504C79.4475 91.5645 77.2346 93.1984 75.6446 95.576C74.0545 97.9535 73.1846 100.929 73.1819 104C73.182 107.073 74.0507 110.052 75.641 112.432C77.2313 114.812 79.4456 116.448 81.9092 117.063V117.333H84.091C86.9842 117.333 89.759 115.928 91.8049 113.428C93.8507 110.927 95.0001 107.536 95.0001 104C95.0001 100.464 93.8507 97.0722 91.8049 94.5717C89.759 92.0713 86.9842 90.6665 84.091 90.6665H81.9092Z" fill="#AC8200"/>
<path d="M92.8184 104C92.8184 105.751 92.5363 107.485 91.988 109.102C91.4398 110.72 90.6362 112.19 89.6232 113.428C88.6102 114.666 87.4076 115.648 86.0841 116.318C84.7605 116.988 83.3419 117.333 81.9093 117.333C80.4767 117.333 79.0582 116.988 77.7346 116.318C76.4111 115.648 75.2084 114.666 74.1954 113.428C73.1824 112.19 72.3789 110.72 71.8306 109.102C71.2824 107.485 71.0002 105.751 71.0002 104C71.0002 100.464 72.1496 97.0722 74.1954 94.5717C76.2413 92.0713 79.0161 90.6665 81.9093 90.6665C84.8026 90.6665 87.5774 92.0713 89.6232 94.5717C91.6691 97.0722 92.8184 100.464 92.8184 104V104Z" fill="#E4AC00"/>
<path d="M77.8289 92C75.9805 93.0881 74.4207 94.7913 73.3284 96.9139C72.2361 99.0365 71.6557 101.492 71.6538 104C71.6566 106.509 72.2386 108.966 73.3327 111.089C74.4268 113.211 75.9888 114.914 77.839 116H82.5629V114.667C82.3569 114.667 82.151 114.658 81.9456 114.64C81.6553 114.615 81.3663 114.572 81.0795 114.511C80.7928 114.451 80.5087 114.373 80.2284 114.278C79.948 114.183 79.6717 114.071 79.4005 113.942C79.1293 113.813 78.8636 113.668 78.6043 113.506C78.3449 113.345 78.0924 113.168 77.8475 112.976C77.6027 112.784 77.3659 112.577 77.1379 112.356C76.91 112.134 76.6913 111.9 76.4825 111.652C76.2738 111.404 76.0753 111.144 75.8879 110.872C75.7005 110.6 75.5243 110.316 75.36 110.023C75.1957 109.729 75.0435 109.426 74.904 109.114C74.7645 108.802 74.6378 108.481 74.5245 108.154C74.4112 107.826 74.3114 107.492 74.2255 107.152C74.1395 106.812 74.0674 106.468 74.0096 106.119C73.9518 105.771 73.9083 105.419 73.8793 105.065C73.8502 104.711 73.8356 104.356 73.8356 104C73.8356 103.748 73.8429 103.497 73.8575 103.245C73.8781 102.891 73.9132 102.537 73.9626 102.187C74.0121 101.837 74.0759 101.489 74.1537 101.147C74.2315 100.804 74.3233 100.466 74.4287 100.135C74.5342 99.8034 74.6531 99.4786 74.7851 99.1617C74.917 98.8447 75.0619 98.536 75.2191 98.2368C75.3763 97.9375 75.5457 97.6481 75.7266 97.3695C75.9074 97.0909 76.0996 96.8236 76.3024 96.5684C76.5051 96.3133 76.7181 96.0708 76.9406 95.8417C77.1632 95.6126 77.395 95.3972 77.6351 95.1965C77.8753 94.9956 78.1235 94.8096 78.3788 94.6391C78.6342 94.4686 78.8964 94.3138 79.1644 94.1753C79.4324 94.0368 79.7059 93.9148 79.9838 93.8097C80.2618 93.7046 80.5439 93.6166 80.829 93.5459C81.1142 93.4753 81.4021 93.4221 81.6916 93.3866C81.9811 93.3511 82.2719 93.3333 82.5629 93.3333V92H77.8289Z" fill="#AC8200"/>
<path d="M81.9086 90.7998C79.0443 90.7998 76.2973 92.1905 74.2719 94.666C72.2465 97.1415 71.1086 100.499 71.1086 104C71.1086 107.501 72.2465 110.858 74.2719 113.334C76.2973 115.809 79.0443 117.2 81.9086 117.2C84.773 117.2 87.52 115.809 89.5454 113.334C91.5708 110.858 92.7086 107.501 92.7086 104C92.7086 102.266 92.4293 100.55 91.8865 98.9484C91.3438 97.3469 90.5483 95.8917 89.5454 94.666C88.5425 93.4403 87.3519 92.468 86.0416 91.8046C84.7313 91.1412 83.3269 90.7998 81.9086 90.7998V90.7998ZM81.9086 93.4398C82.1967 93.4398 82.4846 93.4574 82.7712 93.4926C83.0578 93.5277 83.3428 93.5804 83.6252 93.6503C83.9075 93.7203 84.1867 93.8074 84.4619 93.9115C84.7371 94.0155 85.0079 94.1363 85.2732 94.2734C85.5385 94.4105 85.7981 94.5638 86.0509 94.7326C86.3037 94.9014 86.5494 95.0855 86.7871 95.2843C87.0249 95.4831 87.2544 95.6963 87.4747 95.9231C87.695 96.1499 87.9059 96.39 88.1066 96.6426C88.3073 96.8951 88.4975 97.1598 88.6766 97.4356C88.8557 97.7114 89.0233 97.9979 89.179 98.2942C89.3346 98.5905 89.478 98.8961 89.6087 99.2099C89.7394 99.5236 89.8571 99.8452 89.9615 100.173C90.0658 100.501 90.1567 100.836 90.2338 101.175C90.3108 101.514 90.374 101.858 90.4229 102.205C90.4719 102.552 90.5066 102.902 90.527 103.253C90.5414 103.501 90.5486 103.751 90.5486 104C90.5486 104.352 90.5342 104.704 90.5054 105.054C90.4767 105.404 90.4336 105.753 90.3764 106.098C90.3192 106.443 90.2479 106.784 90.1627 107.12C90.0776 107.457 89.9788 107.788 89.8666 108.112C89.7544 108.436 89.629 108.754 89.4909 109.063C89.3528 109.371 89.2022 109.672 89.0395 109.962C88.8769 110.253 88.7024 110.533 88.5169 110.803C88.3313 111.072 88.1348 111.33 87.9282 111.575C87.7216 111.82 87.505 112.053 87.2794 112.272C87.0537 112.491 86.8193 112.696 86.5769 112.886C86.3345 113.076 86.0844 113.251 85.8277 113.411C85.571 113.571 85.3079 113.715 85.0394 113.842C84.7709 113.97 84.4974 114.081 84.2198 114.175C83.9423 114.269 83.661 114.346 83.3772 114.406C83.0933 114.466 82.8071 114.508 82.5198 114.533C82.3164 114.551 82.1125 114.56 81.9086 114.56C81.6206 114.56 81.3327 114.542 81.0461 114.507C80.7594 114.472 80.4744 114.419 80.1921 114.349C79.9098 114.279 79.6305 114.192 79.3554 114.088C79.0802 113.984 78.8094 113.863 78.5441 113.726C78.2788 113.589 78.0192 113.436 77.7664 113.267C77.5136 113.098 77.2679 112.914 77.0302 112.715C76.7924 112.517 76.5629 112.303 76.3426 112.077C76.1223 111.85 75.9114 111.61 75.7107 111.357C75.51 111.104 75.3197 110.84 75.1407 110.564C74.9616 110.288 74.7939 110.002 74.6383 109.705C74.4827 109.409 74.3392 109.104 74.2086 108.79C74.0779 108.476 73.9602 108.154 73.8558 107.826C73.7514 107.498 73.6606 107.164 73.5835 106.825C73.5065 106.485 73.4433 106.142 73.3944 105.795C73.3454 105.448 73.3107 105.098 73.2903 104.747C73.2759 104.498 73.2687 104.249 73.2686 104C73.2687 103.648 73.2831 103.296 73.3118 102.946C73.3406 102.595 73.3836 102.247 73.4409 101.902C73.4981 101.557 73.5694 101.215 73.6546 100.879C73.7397 100.543 73.8385 100.212 73.9506 99.8876C74.0628 99.5633 74.1882 99.2461 74.3264 98.9371C74.4645 98.6281 74.6151 98.3278 74.7778 98.0372C74.9404 97.7466 75.1148 97.4662 75.3004 97.1969C75.486 96.9276 75.6824 96.6698 75.8891 96.4246C76.0957 96.1792 76.3123 95.9467 76.5379 95.7278C76.7636 95.509 76.998 95.3041 77.2404 95.1138C77.4828 94.9236 77.7329 94.7483 77.9896 94.5886C78.2463 94.4289 78.5094 94.285 78.7779 94.1575C79.0464 94.0299 79.3199 93.9188 79.5974 93.8247C79.875 93.7305 80.1562 93.6533 80.4401 93.5935C80.724 93.5336 81.0102 93.4912 81.2975 93.4663C81.5009 93.4487 81.7047 93.4398 81.9086 93.4398V93.4398Z" fill="#FFD800" stroke="#906C00" stroke-width="0.234668"/>
</g>
<path d="M78.0098 100.92C78.0227 100.762 77.9742 100.606 77.8794 100.5L76.9134 99.0545V98.8386H79.9129L82.2313 105.154L84.2696 98.8386H87.129V99.0545L86.3031 100.038C86.2318 100.105 86.1965 100.216 86.2113 100.326V107.552C86.1965 107.662 86.2318 107.773 86.3031 107.84L87.1097 108.824V109.04H83.0524V108.824L83.888 107.816C83.9701 107.714 83.9701 107.684 83.9701 107.528V101.687L81.6469 109.016H81.3329L78.6281 101.687V106.599C78.6055 106.805 78.6607 107.013 78.7778 107.163L79.8646 108.8V109.016H76.783V108.8L77.8697 107.163C77.9859 107.013 78.0379 106.804 78.0098 106.599V100.92Z" fill="#AC8200"/>
<path d="M81.8481 105.189L83.8606 98.9536H86.5213V99.0126L85.7262 99.9595C85.63 100.054 85.5877 100.197 85.6036 100.333V107.545C85.5877 107.681 85.6298 107.824 85.7256 107.918L86.502 108.865V108.925H82.6747V108.865L83.4839 107.89L83.4839 107.89L83.4849 107.888C83.5286 107.834 83.5619 107.786 83.5785 107.721C83.5925 107.667 83.5925 107.607 83.5925 107.54C83.5925 107.536 83.5924 107.532 83.5924 107.528V101.687L83.3678 101.653L81.07 108.901H80.9204L78.2433 101.647L78.0204 101.687V106.593C77.9969 106.822 78.0576 107.057 78.1917 107.23L79.2569 108.835V108.901H76.4053V108.835L77.4706 107.23C77.6041 107.056 77.6614 106.82 77.6321 106.591V100.924C77.6456 100.743 77.5915 100.56 77.4781 100.43L76.5357 99.0196V98.9536H79.3399L81.6307 105.193L81.7456 105.506L81.8481 105.189Z" fill="#FFD800" stroke="#906C00" stroke-width="0.23"/>
</g>
<path d="M97.5 102.5L108.5 92.5L101.5 80.5" stroke="#7996C9" stroke-width="3"/>
<circle cx="97.5" cy="102.5" r="3.5" fill="#7996C9"/>
<path d="M69 102.5L58 92.5L65 80.5" stroke="#7996C9" stroke-width="3"/>
<circle r="3.5" transform="matrix(-1 0 0 1 69 102.5)" fill="#7996C9"/>
<path d="M45.5313 45.197L34.9287 26.5893C44.3552 24.5268 60.4448 23.5429 71.5551 28.2583" fill="#88D1C3"/>
<path d="M88.4633 84.5831C111.769 83.3461 129.863 73.1602 128.875 61.8321C127.888 50.5041 108.194 42.3237 84.8881 43.5607C61.5821 44.7977 43.4892 54.9838 44.4763 66.3117C45.4636 77.6398 65.1573 85.8201 88.4633 84.5831Z" fill="#7996C9"/>
<path d="M87.3616 71.8938C110.668 70.6568 128.761 60.4707 127.773 49.1428C126.786 37.8147 107.093 29.6341 83.7865 30.8712C60.4804 32.1082 42.3873 42.2941 43.3746 53.6222C44.362 64.9503 64.0555 73.1308 87.3616 71.8938Z" fill="white"/>
<path d="M82.3343 66.3924C103.142 65.2881 119.411 57.5274 118.673 49.0586C117.935 40.5897 100.469 34.6195 79.6616 35.7238C58.8545 36.8282 42.5851 44.5889 43.3232 53.0577C44.0613 61.5266 61.5271 67.4968 82.3343 66.3924Z" fill="#88D1C3"/>
<path d="M113.9 65.8198L114.893 77.1646C114.893 77.1646 118.184 76.5231 119.828 75.2902C121.471 74.0572 128.308 69.3956 127.867 63.3708C127.427 57.3463 126.989 55.3515 124.883 57.619C122.778 59.8865 113.9 65.8198 113.9 65.8198Z" fill="white"/>
<path d="M61.7316 69.151C55.5375 67.294 53.0989 65.8413 49.883 63.2302C46.6672 60.6194 46.4149 62.1512 43.2212 63.5846C40.0274 65.0176 25.2239 80.7484 25.2239 80.7484C25.2239 80.7484 32.596 85.2399 43.6769 84.6523C54.7575 84.0646 82.3379 80.3148 84.34 75.6383C86.342 70.9618 82.8895 73.6807 76.5822 72.4768C70.275 71.2733 61.7316 69.151 61.7316 69.151Z" fill="#88D1C3"/>
<path d="M36.7111 28.0403C48.0692 27.7904 60.4218 28.4152 65.6233 32.5009C65.6233 32.5009 71.2326 28.7588 70.4545 27.8074C69.6767 26.8561 44.5841 24.9116 39.1346 25.8012C33.685 26.691 36.7111 28.0403 36.7111 28.0403Z" fill="white"/>
<path d="M55.5416 48.2413C49.0976 46.9508 43.3726 46.3549 39.0117 46.394C34.6508 46.4331 32.9271 46.4171 32.3491 48.1091C31.7713 49.8009 31.3046 61.2032 32.7806 63.2591C34.2567 65.315 38.1237 65.2528 40.4548 63.2469C42.7858 61.2409 43.4399 59.9 48.7182 57.7425C53.9966 55.585 63.4696 51.5819 55.5416 48.2413Z" fill="#88D1C3"/>
<path d="M32.5335 50.4918C40.0921 49.9913 47.7198 50.5939 55.1659 52.2793L51.0595 55.1954L31.493 56.2295L32.5335 50.4918Z" fill="white"/>
<path d="M28.2041 79.4842C35.4132 80.2423 56.296 82.3148 74.4982 73.6112C74.4982 73.6112 84.8052 72.3225 85.9249 73.0053C87.0445 73.6881 72.5414 82.4901 57.8653 83.1866C43.1896 83.8832 24.115 83.2288 28.2041 79.4842Z" fill="white"/>
<path d="M108.73 47.6095C109.876 60.7549 61.2244 63.337 60.0974 50.2061C59.7678 44.0229 61.9101 38.0308 66.0717 33.4953C70.2333 28.9597 76.0887 26.2358 82.4008 25.8988C88.7134 25.5617 94.9885 27.638 99.9013 31.689C104.814 35.7402 107.98 41.4488 108.73 47.6095Z" fill="#88D1C3"/>
<path fill-rule="evenodd" clip-rule="evenodd" d="M129.174 53.8403L128.754 49.0807C127.912 40.3502 117.741 33.1925 102.127 30.2988C98.0204 26.5114 92.8291 24.0565 87.2992 23.2872C81.7694 22.518 76.1862 23.4742 71.3527 26.0183C60.299 21.7051 45.1906 22.3932 35.3984 24.3633C34.9758 24.4499 34.5823 24.6313 34.249 24.8937C33.9154 25.1559 33.6513 25.4919 33.4767 25.8755C33.3017 26.2682 33.2226 26.6981 33.2456 27.1313C33.2687 27.5646 33.3935 27.9901 33.6102 28.3746L42.1403 43.3654C39.6649 43.242 37.1887 43.2506 34.7229 43.3913C29.8594 43.6511 28.4499 52.6702 28.9965 58.9947C29.417 63.7544 30.6441 67.6373 32.4067 70.066L24.7075 78.2341C24.359 78.6055 24.1173 79.0614 24.0057 79.5573C23.8942 80.0535 23.9166 80.5735 24.0706 81.0667C24.2246 81.56 24.5051 82.0101 24.8853 82.3735C25.2653 82.7371 25.7318 83.0014 26.2399 83.1416C33.393 85.1474 49.3234 87.6085 64.9987 84.8842L64.9808 84.9209C72.4566 86.5983 80.1077 87.2248 87.6992 86.7806C112.458 85.4602 131.01 74.5941 129.895 62.0209L129.535 57.8824L129.174 53.8403ZM114.581 62.6338C121.488 58.7555 125.07 54.0653 124.667 49.4203C124.154 43.5675 117.222 38.3346 106.547 35.4357C108.956 39.0831 110.409 43.2334 110.775 47.5078C111.489 55.7108 98.554 60.1004 85.4269 60.7832C77.4987 61.1979 69.4062 60.2874 64.0832 57.6913C62.3435 56.8992 60.8074 55.7218 59.6016 54.2553L48.213 60.3406C54.998 66.8991 70.0583 70.7879 86.2353 69.9275C97.1793 69.329 107.233 66.7577 114.581 62.6338ZM98.8242 32.6735C94.2936 28.8105 88.4319 26.8153 82.5276 27.1264C78.2112 27.3604 74.0957 28.8159 70.682 31.3157C67.2679 33.8157 64.7021 37.2527 63.2965 41.2088C65.2528 37.2189 68.5232 34.0108 72.6006 32.0822C76.6784 30.1535 81.3356 29.6119 85.8506 30.5412C90.3657 31.4703 94.4867 33.8188 97.5748 37.2221C100.663 40.6255 102.546 44.8937 102.932 49.3661C103.068 50.9103 102.375 52.2777 101.115 53.4696C103.396 52.472 106.928 50.4749 106.689 47.7269C106.184 41.9508 103.355 36.5362 98.8242 32.6735ZM67.1976 28.84C58.3975 26.2839 46.9417 26.4962 38.1189 28.0333L45.9557 41.7901C50.0024 37.9283 56.0919 34.6584 63.628 32.3825C64.6941 31.0884 65.8897 29.902 67.1976 28.84ZM57.1233 46.6901C57.2683 46.7431 57.4139 46.7928 57.5594 46.8422C57.5778 46.8482 57.596 46.8545 57.6142 46.8608C57.7416 46.9043 57.869 46.9477 57.9959 46.9942L57.9746 46.9838C58.1123 43.8413 58.8437 40.7685 60.1325 37.9199C55.6946 39.7026 51.9789 41.8937 49.2974 44.3055C51.9601 44.8994 54.5767 45.6969 57.1233 46.6901ZM33.1708 58.7884C33.1876 59.0342 33.2183 59.2562 33.2488 59.4771C33.2665 59.6047 33.2841 59.7319 33.299 59.8633L33.2821 59.855C33.8949 61.7278 35.3867 62.2733 36.8495 62.1872L40.0963 62.0044L42.516 59.4395C43.4458 58.4616 44.5317 57.6372 45.7339 56.996L57.1225 50.9107C56.9301 50.8426 56.7366 50.7772 56.543 50.7115C56.2849 50.624 56.0268 50.5365 55.7712 50.4437C50.9675 48.6827 45.9981 46.8615 35.1333 47.4378C34.3798 47.8498 32.6017 52.2509 33.1708 58.7884ZM29.029 79.7245L29.026 79.7282L29.0088 79.7198C29.0158 79.7213 29.0224 79.7229 29.029 79.7245L44.9802 62.7823C47.3056 65.0564 50.0077 66.9291 52.9648 68.3163C60.7024 72.0901 71.3465 74.1893 82.8673 74.0594C65.5244 85.1489 40.0683 82.3943 29.029 79.7245ZM74.666 82.451C74.661 82.4528 74.6559 82.4545 74.6509 82.4562L74.634 82.448C74.6447 82.449 74.6555 82.4501 74.666 82.451C76.971 81.679 79.2118 80.7467 81.3718 79.6612L81.6536 82.8603C79.2709 82.8265 76.9415 82.6834 74.666 82.451ZM84.5421 82.8623C85.4807 82.8442 86.4249 82.8105 87.3755 82.7612L87.3583 82.7529C87.8762 82.7247 88.3876 82.6823 88.9002 82.6393C89.1635 82.6175 89.427 82.5955 89.6921 82.5755L89.0098 74.7274C87.4705 75.9824 85.8405 77.1285 84.1316 78.1577L84.5421 82.8623ZM92.5682 82.2884L92.5694 82.2986L92.5522 82.2902C92.5576 82.2896 92.563 82.2891 92.5682 82.2884L91.8036 73.509C93.541 73.3138 95.2483 73.072 96.9258 72.7835L97.6839 81.5338C96.0121 81.8352 94.3069 82.0867 92.5682 82.2884ZM100.529 80.9416L100.53 80.9536L100.513 80.9453C100.518 80.944 100.524 80.9428 100.529 80.9416L99.7686 72.2315C101.523 71.8726 103.204 71.4578 104.844 70.9872L105.599 79.6353C103.963 80.1186 102.266 80.5528 100.529 80.9416ZM108.396 78.6882L108.399 78.7185L108.392 78.6895L108.396 78.6882L107.651 70.1299C109.401 69.5411 111.066 68.8803 112.662 68.1758L113.4 76.6331C111.773 77.4042 110.103 78.0903 108.396 78.6882ZM116.164 75.1377L116.167 75.1688L116.16 75.1401L116.164 75.1377L115.439 66.8426C115.598 66.7593 115.76 66.6779 115.923 66.5964C116.198 66.4583 116.473 66.3206 116.733 66.1735C117.99 65.4613 119.203 64.6791 120.365 63.8305L121.051 71.7056C119.55 73.0109 117.913 74.161 116.164 75.1377ZM123.69 68.7795L123.692 68.8138L123.686 68.7849L123.69 68.7795L123.079 61.6014C123.962 60.7869 124.779 59.9062 125.522 58.9667L125.808 62.254C125.978 64.4813 125.199 66.6844 123.69 68.7795Z" fill="#4F457C"/>
<path d="M146.903 51.0627C147.915 52.0976 148.528 53.4393 148.631 54.8473L148.619 54.8514C148.748 56.2493 148.367 57.6316 147.544 58.7533C146.72 59.8751 145.508 60.6638 144.121 60.9802C142.734 61.2964 141.262 61.1196 139.965 60.4812C138.669 59.8427 137.631 58.7838 137.037 57.4918L129.353 57.8738L129.025 53.8537L136.681 53.4519C137.036 52.0976 137.878 50.9256 139.056 50.1463C140.233 49.367 141.67 49.0314 143.108 49.1993C144.546 49.3674 145.891 50.0278 146.903 51.0627Z" fill="#7996C9"/>
</g>
<defs>
<clipPath id="clip0">
<rect width="151.074" height="126.338" fill="white"/>
</clipPath>
<clipPath id="clip1">
<rect width="32" height="32" fill="white" transform="translate(67 88)"/>
</clipPath>
<clipPath id="clip2">
<rect width="24.7742" height="59.9538" fill="white" transform="translate(70.6125 57.4656)"/>
</clipPath>
</defs>
</svg>
