<svg width="62" height="62" viewBox="0 0 62 62" fill="none" xmlns="http://www.w3.org/2000/svg">
    <g clip-path="url(#clip0_1774_3710)">
        <g clip-path="url(#clip1_1774_3710)">
            <path d="M28.8866 4.79443V5.3444C24.1171 6.53433 19.8298 9.69996 16.749 14.3065C13.6682 18.913 11.9828 24.6781 11.9775 30.6278C11.9778 36.582 13.661 42.3533 16.7422 46.9652C19.8233 51.5772 24.1134 54.7467 28.8866 55.9376V56.4611H33.1139C38.7196 56.4611 44.0957 53.7394 48.0596 48.8947C52.0234 44.05 54.2502 37.4792 54.2502 30.6278C54.2502 23.7763 52.0234 17.2055 48.0596 12.3608C44.0957 7.51615 38.7196 4.79443 33.1139 4.79443L28.8866 4.79443Z" fill="#B5B5B5"/>
            <path d="M50.0232 30.6278C50.0232 34.0202 49.4765 37.3795 48.4143 40.5138C47.3521 43.648 45.7952 46.4958 43.8325 48.8947C41.8698 51.2935 39.5398 53.1964 36.9754 54.4947C34.411 55.7929 31.6625 56.4611 28.8869 56.4611C26.1112 56.4611 23.3627 55.7929 20.7983 54.4947C18.2339 53.1964 15.9039 51.2935 13.9412 48.8947C11.9785 46.4958 10.4216 43.648 9.3594 40.5138C8.2972 37.3795 7.75049 34.0202 7.75049 30.6278C7.75049 23.7763 9.97735 17.2055 13.9412 12.3608C17.905 7.51615 23.2811 4.79443 28.8869 4.79443C34.4926 4.79443 39.8687 7.51615 43.8325 12.3608C47.7964 17.2055 50.0232 23.7763 50.0232 30.6278V30.6278Z" fill="#D3D1D1"/>
            <path d="M20.9813 7.37793C17.4001 9.4862 14.3779 12.786 12.2616 16.8985C10.1453 21.0111 9.02081 25.7696 9.01709 30.6279C9.02259 35.4888 10.1501 40.2492 12.2699 44.3619C14.3898 48.4747 17.416 51.7731 21.0009 53.8779H30.1535V51.2946C29.7544 51.2946 29.3555 51.2773 28.9574 51.2428C28.3951 51.194 27.835 51.111 27.2794 50.9939C26.7239 50.8768 26.1735 50.7257 25.6303 50.5414C25.0871 50.3571 24.5518 50.1398 24.0264 49.8901C23.5009 49.6405 22.986 49.3588 22.4836 49.0463C21.9812 48.7338 21.4918 48.3907 21.0174 48.0184C20.543 47.6461 20.0842 47.2451 19.6426 46.8168C19.201 46.3884 18.7772 45.9333 18.3727 45.4532C17.9683 44.9732 17.5838 44.4688 17.2206 43.9418C16.8575 43.4148 16.5161 42.8659 16.1978 42.2971C15.8795 41.7285 15.5847 41.1407 15.3144 40.536C15.0441 39.9313 14.7987 39.3105 14.5791 38.6758C14.3596 38.0412 14.1662 37.3935 13.9997 36.7353C13.833 36.0771 13.6934 35.4091 13.5814 34.7338C13.4694 34.0585 13.3852 33.3768 13.3289 32.6912C13.2726 32.0056 13.2444 31.317 13.2444 30.6279C13.2444 30.1401 13.2585 29.6525 13.2868 29.1659C13.3267 28.4786 13.3946 27.7942 13.4904 27.1152C13.5862 26.4362 13.7098 25.7635 13.8606 25.0996C14.0114 24.4357 14.1892 23.7813 14.3935 23.1391C14.5978 22.4969 14.8282 21.8677 15.0839 21.2537C15.3396 20.6396 15.6203 20.0415 15.9249 19.4617C16.2295 18.8819 16.5576 18.321 16.9081 17.7813C17.2585 17.2416 17.6309 16.7236 18.0237 16.2293C18.4164 15.735 18.8291 15.265 19.2603 14.8212C19.6915 14.3773 20.1406 13.9601 20.6059 13.5711C21.0712 13.1819 21.5521 12.8215 22.0468 12.4911C22.5416 12.1608 23.0496 11.8609 23.5688 11.5926C24.0881 11.3243 24.618 11.0878 25.1565 10.8842C25.6951 10.6806 26.2416 10.5101 26.7941 10.3732C27.3466 10.2363 27.9044 10.1332 28.4654 10.0644C29.0263 9.99565 29.5897 9.96122 30.1535 9.96126V7.37793H20.9813Z" fill="#B5B5B5"/>
            <path d="M28.8859 5.05273C23.3363 5.05273 18.0139 7.74724 14.0897 12.5435C10.1655 17.3397 7.96094 23.8448 7.96094 30.6277C7.96094 37.4106 10.1655 43.9157 14.0897 48.712C18.0139 53.5082 23.3363 56.2027 28.8859 56.2027C34.4356 56.2027 39.7579 53.5082 43.6821 48.712C47.6063 43.9157 49.8109 37.4106 49.8109 30.6277C49.8109 27.2692 49.2697 23.9435 48.2181 20.8406C47.1665 17.7377 45.6252 14.9183 43.6821 12.5435C41.7391 10.1686 39.4323 8.28478 36.8936 6.99951C34.3548 5.71425 31.6338 5.05273 28.8859 5.05273V5.05273ZM28.8859 10.1677C29.4441 10.1678 30.0018 10.2019 30.5572 10.27C31.1125 10.3381 31.6647 10.4401 32.2117 10.5755C32.7587 10.7111 33.2997 10.88 33.8329 11.0816C34.3661 11.2832 34.8907 11.5172 35.4047 11.7828C35.9188 12.0484 36.4217 12.3454 36.9115 12.6725C37.4013 12.9995 37.8774 13.3563 38.338 13.7414C38.7986 14.1266 39.2433 14.5396 39.6702 14.979C40.097 15.4185 40.5056 15.8837 40.8944 16.3731C41.2833 16.8624 41.6519 17.3752 41.9989 17.9096C42.3458 18.4439 42.6707 18.9991 42.9722 19.5731C43.2738 20.1472 43.5516 20.7393 43.8048 21.3472C44.058 21.9551 44.2861 22.5782 44.4883 23.214C44.6905 23.8497 44.8666 24.4974 45.0158 25.1547C45.1652 25.812 45.2875 26.4779 45.3824 27.1501C45.4772 27.8224 45.5445 28.5001 45.5839 29.1806C45.6119 29.6622 45.6259 30.1449 45.6259 30.6277C45.6259 31.3099 45.598 31.9916 45.5422 32.6703C45.4865 33.3491 45.4031 34.024 45.2923 34.6926C45.1814 35.3611 45.0432 36.0224 44.8782 36.674C44.7133 37.3258 44.5218 37.967 44.3045 38.5953C44.0872 39.2236 43.8442 39.8382 43.5766 40.4367C43.309 41.0354 43.0171 41.6173 42.702 42.1802C42.3869 42.7433 42.0489 43.2867 41.6894 43.8085C41.3299 44.3302 40.9492 44.8296 40.5488 45.3048C40.1485 45.7801 39.7289 46.2306 39.2917 46.6547C38.8545 47.0787 38.4002 47.4757 37.9306 47.8443C37.4609 48.2129 36.9765 48.5525 36.4791 48.8619C35.9817 49.1713 35.4719 49.4501 34.9517 49.6973C34.4316 49.9444 33.9016 50.1596 33.3639 50.3421C32.8261 50.5246 32.2812 50.6741 31.7312 50.79C31.1812 50.906 30.6268 50.9883 30.07 51.0366C29.6759 51.0707 29.281 51.0878 28.8859 51.0877C28.3278 51.0878 27.77 51.0537 27.2147 50.9856C26.6594 50.9175 26.1072 50.8155 25.5602 50.6799C25.0132 50.5444 24.4721 50.3756 23.939 50.174C23.4058 49.9724 22.8812 49.7384 22.3671 49.4727C21.8531 49.2071 21.3502 48.9102 20.8604 48.5832C20.3706 48.2561 19.8945 47.8993 19.4339 47.514C18.9732 47.1289 18.5286 46.7159 18.1017 46.2764C17.6749 45.837 17.2663 45.3717 16.8774 44.8824C16.4886 44.3931 16.12 43.8803 15.773 43.3459C15.4261 42.8116 15.1012 42.2563 14.7997 41.6823C14.4981 41.1083 14.2202 40.5162 13.9671 39.9083C13.7139 39.3004 13.4858 38.6774 13.2836 38.0417C13.0814 37.4059 12.9053 36.7581 12.756 36.1008C12.6067 35.4435 12.4844 34.7775 12.3895 34.1053C12.2947 33.4331 12.2274 32.7555 12.188 32.0751C12.16 31.5934 12.146 31.1107 12.1459 30.6277C12.146 29.9456 12.1739 29.2639 12.2296 28.5851C12.2853 27.9064 12.3687 27.2315 12.4796 26.5629C12.5905 25.8944 12.7287 25.2331 12.8937 24.5815C13.0586 23.9298 13.25 23.2886 13.4673 22.6603C13.6847 22.032 13.9277 21.4174 14.1953 20.8187C14.4628 20.2201 14.7547 19.6382 15.0699 19.0752C15.385 18.5122 15.7229 17.9688 16.0825 17.447C16.442 16.9253 16.8227 16.4259 17.223 15.9507C17.6234 15.4754 18.043 15.0249 18.4802 14.6008C18.9174 14.1768 19.3716 13.7797 19.8413 13.4112C20.3109 13.0426 20.7954 12.703 21.2928 12.3936C21.7902 12.0841 22.2999 11.8053 22.8201 11.5582C23.3403 11.311 23.8702 11.0958 24.408 10.9134C24.9457 10.7309 25.4906 10.5814 26.0406 10.4654C26.5907 10.3495 27.1451 10.2673 27.7019 10.2191C28.0959 10.1849 28.4909 10.1678 28.8859 10.1677V10.1677Z" fill="#E1E1E1" stroke="#B6B6B6" stroke-width="0.234668"/>
        </g>
        <path d="M39.2205 36.6592H20.8876C20.5058 36.6592 20.1963 36.9561 20.1963 37.3224V38.9213C20.1963 39.2876 20.5058 39.5845 20.8876 39.5845H39.2205C39.6023 39.5845 39.9118 39.2876 39.9118 38.9213V37.3224C39.9118 36.9561 39.6023 36.6592 39.2205 36.6592Z" fill="#B5B5B5"/>
        <path d="M33.8458 20.957L30.0543 24.5942L26.2627 20.957C26.0723 20.7743 25.814 20.6715 25.5447 20.6714H20.8876C20.7043 20.6714 20.5284 20.7413 20.3988 20.8656C20.2691 20.99 20.1963 21.1587 20.1963 21.3346V34.3995C20.1964 34.5753 20.2693 34.7439 20.3989 34.8682C20.5286 34.9925 20.7043 35.0623 20.8876 35.0623H22.5548C22.738 35.0622 22.9137 34.9923 23.0432 34.868C23.1728 34.7438 23.2456 34.5753 23.2457 34.3995V23.5967H24.7023L30.0543 28.7308L35.4062 23.5967H36.8628V34.3995C36.8629 34.5753 36.9357 34.7438 37.0653 34.868C37.1948 34.9923 37.3705 35.0622 37.5537 35.0623H39.2209C39.4042 35.0623 39.58 34.9925 39.7096 34.8682C39.8392 34.7439 39.9121 34.5753 39.9122 34.3995V21.3346C39.9122 21.2475 39.8943 21.1612 39.8596 21.0808C39.8249 21.0003 39.7739 20.9272 39.7097 20.8656C39.6455 20.804 39.5693 20.7552 39.4855 20.7219C39.4016 20.6885 39.3117 20.6714 39.2209 20.6714H34.5638C34.2945 20.6715 34.0362 20.7743 33.8458 20.957Z" fill="#B5B5B5"/>
        <path d="M35.4065 25.791L30.0546 30.9251L24.7026 25.791V29.928L30.0546 35.0621L35.4065 29.928V25.791Z" fill="#B5B5B5"/>
        <path d="M19.7787 36.7742H38.1116C38.4344 36.7742 38.6879 37.0241 38.6879 37.3224V38.9213C38.6879 39.2196 38.4344 39.4695 38.1116 39.4695H19.7787C19.4559 39.4695 19.2024 39.2196 19.2024 38.9213V37.3224C19.2024 37.0241 19.4559 36.7742 19.7787 36.7742Z" fill="#E1E1E1" stroke="#B6B6B6" stroke-width="0.23"/>
        <path d="M32.8165 21.04L32.8165 21.04L29.025 24.6772L28.9454 24.7535L28.8658 24.6772L25.0742 21.04L25.0742 21.04C24.9057 20.8783 24.6762 20.7865 24.4358 20.7864H19.7787C19.6244 20.7864 19.4772 20.8453 19.3695 20.9486C19.2619 21.0518 19.2024 21.1908 19.2024 21.3346L19.2024 34.3994C19.2025 34.5432 19.262 34.682 19.3696 34.7852C19.4774 34.8885 19.6244 34.9473 19.7787 34.9473H21.4459C21.6001 34.9472 21.7471 34.8883 21.8547 34.785C21.9622 34.6819 22.0217 34.5431 22.0218 34.3994V23.5967V23.4817H22.1368H23.5935H23.6397L23.6731 23.5137L28.9454 28.5714L34.2177 23.5137L34.251 23.4817H34.2973H35.7539H35.8689V23.5967V34.3994C35.869 34.5431 35.9285 34.6819 36.036 34.785C36.1437 34.8883 36.2906 34.9472 36.4449 34.9473H38.112C38.2663 34.9473 38.4134 34.8885 38.5211 34.7852C38.6287 34.682 38.6882 34.5432 38.6883 34.3994V21.3346C38.6883 21.2633 38.6737 21.1925 38.6451 21.1264C38.6166 21.0602 38.5745 20.9998 38.5212 20.9486C38.4679 20.8975 38.4044 20.8567 38.3341 20.8287C38.2638 20.8008 38.1883 20.7864 38.112 20.7864L33.455 20.7864L32.8165 21.04ZM32.8165 21.04C32.985 20.8783 33.2146 20.7865 33.4549 20.7864L32.8165 21.04Z" fill="#E1E1E1" stroke="#B6B6B6" stroke-width="0.23"/>
        <path d="M28.8661 31.0081L28.9457 31.0845L29.0253 31.0081L34.1826 26.0607V29.879L28.9457 34.9027L23.7088 29.879V26.0607L28.8661 31.0081Z" fill="#E1E1E1" stroke="#B6B6B6" stroke-width="0.23"/>
    </g>
    <defs>
        <clipPath id="clip0_1774_3710">
            <rect width="62" height="62" fill="white"/>
        </clipPath>
        <clipPath id="clip1_1774_3710">
            <rect width="48" height="52" fill="white" transform="translate(7 4.62793)"/>
        </clipPath>
    </defs>
</svg>
