<svg width="62" height="61" viewBox="0 0 62 61" fill="none" xmlns="http://www.w3.org/2000/svg">
        <g clip-path="url(#clip0_1774_3709)">
            <g clip-path="url(#clip1_1774_3709)">
                <path d="M28.8866 4.6626V5.21257C24.1171 6.40249 19.8298 9.56813 16.749 14.1747C13.6682 18.7812 11.9828 24.5463 11.9775 30.4959C11.9778 36.4501 13.661 42.2214 16.7422 46.8334C19.8233 51.4454 24.1134 54.6149 28.8866 55.8057V56.3293H33.1139C38.7196 56.3293 44.0957 53.6076 48.0596 48.7629C52.0234 43.9182 54.2502 37.3474 54.2502 30.4959C54.2502 23.6445 52.0234 17.0737 48.0596 12.229C44.0957 7.38432 38.7196 4.6626 33.1139 4.6626L28.8866 4.6626Z" fill="#C6A35D"/>
                <path d="M49.9082 30.4959C49.9082 33.8762 49.3635 37.2229 48.3054 40.345C47.2473 43.4671 45.6969 46.3026 43.7435 48.69C41.7902 51.0775 39.4724 52.9698 36.9234 54.2602C34.3746 55.5506 31.6438 56.2143 28.8869 56.2143C26.1299 56.2143 23.3991 55.5506 20.8503 54.2602C18.3013 52.9698 15.9835 51.0775 14.0302 48.69C12.0768 46.3026 10.5264 43.4671 9.46831 40.345C8.41024 37.2229 7.86549 33.8762 7.86549 30.4959C7.86549 23.6684 10.0848 17.124 14.0302 12.3018C17.9751 7.48031 23.3199 4.7776 28.8869 4.7776C34.4538 4.7776 39.7986 7.48031 43.7435 12.3018C47.6889 17.124 49.9082 23.6684 49.9082 30.4959Z" fill="#C6A35D" stroke="#906C00" stroke-width="0.23"/>
                <path d="M20.9813 7.24609C17.4001 9.35437 14.3779 12.6542 12.2616 16.7667C10.1453 20.8792 9.02081 25.6378 9.01709 30.4961C9.02259 35.357 10.1501 40.1173 12.2699 44.2301C14.3898 48.3429 17.416 51.6412 21.0009 53.7461H30.1535V51.1628C29.7544 51.1627 29.3555 51.1454 28.9574 51.1109C28.3951 51.0622 27.835 50.9792 27.2794 50.8621C26.7239 50.7449 26.1735 50.5939 25.6303 50.4096C25.0871 50.2253 24.5518 50.0079 24.0264 49.7583C23.5009 49.5086 22.986 49.227 22.4836 48.9145C21.9812 48.6019 21.4918 48.2589 21.0174 47.8866C20.543 47.5143 20.0842 47.1132 19.6426 46.6849C19.201 46.2566 18.7772 45.8015 18.3727 45.3214C17.9683 44.8414 17.5838 44.3369 17.2206 43.81C16.8575 43.2829 16.5161 42.734 16.1978 42.1653C15.8795 41.5966 15.5847 41.0089 15.3144 40.4042C15.0441 39.7995 14.7987 39.1787 14.5791 38.544C14.3596 37.9094 14.1662 37.2617 13.9997 36.6035C13.833 35.9452 13.6934 35.2773 13.5814 34.602C13.4694 33.9267 13.3852 33.2449 13.3289 32.5593C13.2726 31.8737 13.2444 31.1851 13.2444 30.4961C13.2444 30.0083 13.2585 29.5207 13.2868 29.0341C13.3267 28.3468 13.3946 27.6624 13.4904 26.9834C13.5862 26.3044 13.7098 25.6317 13.8606 24.9678C14.0114 24.3038 14.1892 23.6495 14.3935 23.0073C14.5978 22.3651 14.8282 21.7358 15.0839 21.1218C15.3396 20.5077 15.6203 19.9097 15.9249 19.3298C16.2295 18.75 16.5576 18.1892 16.9081 17.6495C17.2585 17.1097 17.6309 16.5917 18.0237 16.0974C18.4164 15.6032 18.8291 15.1332 19.2603 14.6893C19.6915 14.2455 20.1406 13.8283 20.6059 13.4392C21.0712 13.0501 21.5521 12.6897 22.0468 12.3593C22.5416 12.029 23.0496 11.7291 23.5688 11.4608C24.0881 11.1924 24.618 10.956 25.1565 10.7524C25.6951 10.5488 26.2416 10.3782 26.7941 10.2413C27.3466 10.1044 27.9044 10.0014 28.4654 9.93256C29.0263 9.86381 29.5897 9.82939 30.1535 9.82943V7.24609H20.9813Z" fill="#C6A35D"/>
                <path d="M28.8859 4.9209C23.3363 4.9209 18.0139 7.6154 14.0897 12.4116C10.1655 17.2079 7.96094 23.713 7.96094 30.4959C7.96094 37.2788 10.1655 43.7839 14.0897 48.5802C18.0139 53.3764 23.3363 56.0709 28.8859 56.0709C34.4356 56.0709 39.7579 53.3764 43.6821 48.5802C47.6063 43.7839 49.8109 37.2788 49.8109 30.4959C49.8109 27.1373 49.2697 23.8117 48.2181 20.7088C47.1665 17.6059 45.6252 14.7865 43.6821 12.4116C41.7391 10.0368 39.4323 8.15294 36.8936 6.86768C34.3548 5.58241 31.6338 4.9209 28.8859 4.9209V4.9209ZM28.8859 10.0359C29.4441 10.0359 30.0018 10.0701 30.5572 10.1382C31.1125 10.2063 31.6647 10.3082 32.2117 10.4437C32.7587 10.5793 33.2997 10.7482 33.8329 10.9498C34.3661 11.1513 34.8907 11.3853 35.4047 11.6509C35.9188 11.9166 36.4217 12.2136 36.9115 12.5407C37.4013 12.8677 37.8774 13.2244 38.338 13.6096C38.7986 13.9947 39.2433 14.4078 39.6702 14.8472C40.097 15.2866 40.5056 15.7519 40.8944 16.2412C41.2833 16.7306 41.6519 17.2434 41.9989 17.7777C42.3458 18.3121 42.6707 18.8673 42.9722 19.4413C43.2738 20.0153 43.5516 20.6074 43.8048 21.2154C44.058 21.8233 44.2861 22.4463 44.4883 23.0821C44.6905 23.7179 44.8666 24.3656 45.0158 25.0228C45.1652 25.6801 45.2875 26.3461 45.3824 27.0183C45.4772 27.6906 45.5445 28.3682 45.5839 29.0487C45.6119 29.5304 45.6259 30.0131 45.6259 30.4959C45.6259 31.178 45.598 31.8598 45.5422 32.5385C45.4865 33.2173 45.4031 33.8922 45.2923 34.5607C45.1814 35.2292 45.0432 35.8906 44.8782 36.5422C44.7133 37.1939 44.5218 37.8352 44.3045 38.4635C44.0872 39.0918 43.8442 39.7063 43.5766 40.3049C43.309 40.9035 43.0171 41.4854 42.702 42.0484C42.3869 42.6114 42.0489 43.1549 41.6894 43.6766C41.3299 44.1983 40.9492 44.6977 40.5488 45.173C40.1485 45.6482 39.7289 46.0988 39.2917 46.5228C38.8545 46.9469 38.4002 47.3439 37.9306 47.7125C37.4609 48.081 36.9765 48.4207 36.4791 48.7301C35.9817 49.0395 35.4719 49.3183 34.9517 49.5654C34.4316 49.8126 33.9016 50.0278 33.3639 50.2102C32.8261 50.3927 32.2812 50.5422 31.7312 50.6582C31.1812 50.7742 30.6268 50.8565 30.07 50.9048C29.6759 50.9389 29.281 50.9559 28.8859 50.9559C28.3278 50.9559 27.77 50.9219 27.2147 50.8538C26.6594 50.7857 26.1072 50.6836 25.5602 50.5481C25.0132 50.4126 24.4721 50.2438 23.939 50.0422C23.4058 49.8406 22.8812 49.6065 22.3671 49.3409C21.8531 49.0753 21.3502 48.7784 20.8604 48.4514C20.3706 48.1243 19.8945 47.7674 19.4339 47.3822C18.9732 46.9971 18.5286 46.584 18.1017 46.1446C17.6749 45.7052 17.2663 45.2399 16.8774 44.7506C16.4886 44.2612 16.12 43.7484 15.773 43.2141C15.4261 42.6797 15.1012 42.1245 14.7997 41.5505C14.4981 40.9765 14.2202 40.3844 13.9671 39.7764C13.7139 39.1686 13.4858 38.5456 13.2836 37.9099C13.0814 37.274 12.9053 36.6263 12.756 35.969C12.6067 35.3117 12.4844 34.6457 12.3895 33.9735C12.2947 33.3013 12.2274 32.6237 12.188 31.9433C12.16 31.4616 12.146 30.9788 12.1459 30.4959C12.146 29.8138 12.1739 29.132 12.2296 28.4533C12.2853 27.7746 12.3687 27.0996 12.4796 26.4311C12.5905 25.7626 12.7287 25.1013 12.8937 24.4496C13.0586 23.798 13.25 23.1568 13.4673 22.5285C13.6847 21.9002 13.9277 21.2855 14.1953 20.6869C14.4628 20.0883 14.7547 19.5064 15.0699 18.9434C15.385 18.3804 15.7229 17.837 16.0825 17.3152C16.442 16.7935 16.8227 16.2941 17.223 15.8188C17.6234 15.3436 18.043 14.893 18.4802 14.469C18.9174 14.0449 19.3716 13.6479 19.8413 13.2793C20.3109 12.9108 20.7954 12.5711 21.2928 12.2617C21.7902 11.9523 22.2999 11.6735 22.8201 11.4263C23.3403 11.1792 23.8702 10.964 24.408 10.7816C24.9457 10.5991 25.4906 10.4496 26.0406 10.3336C26.5907 10.2177 27.1451 10.1355 27.7019 10.0872C28.0959 10.0531 28.4909 10.0359 28.8859 10.0359V10.0359Z" fill="#F2CE7E" stroke="#906C00" stroke-width="0.234668"/>
            </g>
            <path d="M39.2205 36.5273H20.8876C20.5058 36.5273 20.1963 36.8243 20.1963 37.1905V38.7895C20.1963 39.1557 20.5058 39.4526 20.8876 39.4526H39.2205C39.6023 39.4526 39.9118 39.1557 39.9118 38.7895V37.1905C39.9118 36.8243 39.6023 36.5273 39.2205 36.5273Z" fill="#9B7B43"/>
            <path d="M33.8458 20.8252L30.0543 24.4624L26.2627 20.8252C26.0723 20.6424 25.814 20.5397 25.5447 20.5396H20.8876C20.7043 20.5396 20.5284 20.6094 20.3988 20.7338C20.2691 20.8582 20.1963 21.0268 20.1963 21.2027V34.2677C20.1964 34.4435 20.2693 34.6121 20.3989 34.7363C20.5286 34.8606 20.7043 34.9304 20.8876 34.9304H22.5548C22.738 34.9303 22.9137 34.8605 23.0432 34.7362C23.1728 34.6119 23.2456 34.4434 23.2457 34.2677V23.4649H24.7023L30.0543 28.5989L35.4062 23.4649H36.8628V34.2677C36.8629 34.4434 36.9357 34.6119 37.0653 34.7362C37.1948 34.8605 37.3705 34.9303 37.5537 34.9304H39.2209C39.4042 34.9304 39.58 34.8606 39.7096 34.7363C39.8392 34.6121 39.9121 34.4435 39.9122 34.2677V21.2027C39.9122 21.1156 39.8943 21.0294 39.8596 20.9489C39.8249 20.8685 39.7739 20.7954 39.7097 20.7338C39.6455 20.6722 39.5693 20.6234 39.4855 20.59C39.4016 20.5567 39.3117 20.5396 39.2209 20.5396H34.5638C34.2945 20.5397 34.0362 20.6424 33.8458 20.8252Z" fill="#9B7B43"/>
            <path d="M35.4065 25.6592L30.0546 30.7933L24.7026 25.6592V29.7962L30.0546 34.9303L35.4065 29.7962V25.6592Z" fill="#9B7B43"/>
            <path d="M19.7787 36.6423H38.1116C38.4344 36.6423 38.6879 36.8922 38.6879 37.1905V38.7895C38.6879 39.0878 38.4344 39.3376 38.1116 39.3376H19.7787C19.4559 39.3376 19.2024 39.0878 19.2024 38.7895V37.1905C19.2024 36.8922 19.4559 36.6423 19.7787 36.6423Z" fill="#F2CE7E" stroke="#906C00" stroke-width="0.23"/>
            <path d="M32.8165 20.9081L32.8165 20.9081L29.025 24.5453L28.9454 24.6217L28.8658 24.5453L25.0742 20.9081L25.0742 20.9081C24.9057 20.7464 24.6762 20.6547 24.4358 20.6546H19.7787C19.6244 20.6546 19.4772 20.7134 19.3695 20.8168C19.2619 20.92 19.2024 21.0589 19.2024 21.2027L19.2024 34.2676C19.2025 34.4113 19.262 34.5502 19.3696 34.6533C19.4774 34.7566 19.6244 34.8154 19.7787 34.8154H21.4459C21.6001 34.8153 21.7471 34.7565 21.8547 34.6532C21.9622 34.5501 22.0217 34.4113 22.0218 34.2676V23.4649V23.3499H22.1368H23.5935H23.6397L23.6731 23.3819L28.9454 28.4396L34.2177 23.3819L34.251 23.3499H34.2973H35.7539H35.8689V23.4649V34.2676C35.869 34.4113 35.9285 34.5501 36.036 34.6532C36.1437 34.7565 36.2906 34.8153 36.4449 34.8154H38.112C38.2663 34.8154 38.4134 34.7566 38.5211 34.6533C38.6287 34.5502 38.6882 34.4113 38.6883 34.2676V21.2027C38.6883 21.1314 38.6737 21.0607 38.6451 20.9945C38.6166 20.9284 38.5745 20.8679 38.5212 20.8168C38.4679 20.7656 38.4044 20.7248 38.3341 20.6969C38.2638 20.669 38.1883 20.6546 38.112 20.6546L33.455 20.6546L32.8165 20.9081ZM32.8165 20.9081C32.985 20.7464 33.2146 20.6547 33.4549 20.6546L32.8165 20.9081Z" fill="#F2CE7E" stroke="#906C00" stroke-width="0.23"/>
            <path d="M28.8661 30.8763L28.9457 30.9526L29.0253 30.8763L34.1826 25.9289V29.7471L28.9457 34.7709L23.7088 29.7471V25.9289L28.8661 30.8763Z" fill="#F2CE7E" stroke="#906C00" stroke-width="0.23"/>
        </g>
        <defs>
            <clipPath id="clip0_1774_3709">
                <rect width="62" height="62" fill="white" transform="translate(0 -1)"/>
            </clipPath>
            <clipPath id="clip1_1774_3709">
                <rect width="48" height="52" fill="white" transform="translate(7 4.49609)"/>
            </clipPath>
        </defs>
    </svg>

