<svg viewBox="0 0 267 204" fill="none" xmlns="http://www.w3.org/2000/svg">
    <path d="M111.724 29.0834C111.61 29.0834 111.501 29.0383 111.42 28.9579C111.339 28.8775 111.293 28.7683 111.292 28.6542V26.5777C111.301 26.4697 111.35 26.3691 111.43 26.2957C111.51 26.2224 111.614 26.1816 111.723 26.1816C111.831 26.1816 111.936 26.2224 112.015 26.2957C112.095 26.3691 112.144 26.4697 112.153 26.5777V28.6542C112.153 28.7678 112.107 28.8765 112.027 28.9568C111.947 29.0371 111.838 29.0826 111.724 29.0834V29.0834Z" fill="#88D1C3"/>
    <path d="M114.907 30.1954H112.83C112.722 30.1863 112.622 30.137 112.548 30.0573C112.475 29.9775 112.434 29.8731 112.434 29.7647C112.434 29.6563 112.475 29.5519 112.548 29.4721C112.622 29.3923 112.722 29.343 112.83 29.334H114.907C115.015 29.343 115.115 29.3923 115.189 29.4721C115.262 29.5519 115.303 29.6563 115.303 29.7647C115.303 29.8731 115.262 29.9775 115.189 30.0573C115.115 30.137 115.015 30.1863 114.907 30.1954V30.1954Z" fill="#88D1C3"/>
    <path d="M111.724 33.3783C111.61 33.3783 111.501 33.3332 111.42 33.2528C111.339 33.1724 111.293 33.0632 111.292 32.9491V30.8727C111.301 30.7647 111.35 30.664 111.43 30.5906C111.51 30.5173 111.614 30.4766 111.723 30.4766C111.831 30.4766 111.936 30.5173 112.015 30.5906C112.095 30.664 112.144 30.7647 112.153 30.8727V32.9491C112.153 33.0627 112.107 33.1714 112.027 33.2517C111.947 33.332 111.838 33.3775 111.724 33.3783V33.3783Z" fill="#88D1C3"/>
    <path d="M110.615 30.1954H108.539C108.431 30.1863 108.33 30.137 108.257 30.0573C108.183 29.9775 108.143 29.8731 108.143 29.7647C108.143 29.6563 108.183 29.5519 108.257 29.4721C108.33 29.3923 108.431 29.343 108.539 29.334H110.615C110.723 29.343 110.824 29.3923 110.897 29.4721C110.97 29.5519 111.011 29.6563 111.011 29.7647C111.011 29.8731 110.97 29.9775 110.897 30.0573C110.824 30.137 110.723 30.1863 110.615 30.1954V30.1954Z" fill="#88D1C3"/>
    <path d="M174.731 175.32C174.617 175.319 174.509 175.274 174.428 175.193C174.348 175.113 174.303 175.004 174.302 174.891V173.703C174.311 173.595 174.36 173.494 174.44 173.421C174.52 173.347 174.624 173.307 174.732 173.307C174.841 173.307 174.945 173.347 175.025 173.421C175.105 173.494 175.154 173.595 175.163 173.703V174.891C175.162 175.005 175.116 175.114 175.035 175.194C174.955 175.275 174.845 175.32 174.731 175.32V175.32Z" fill="#88D1C3"/>
    <path d="M177.215 176.616H176.027C175.968 176.621 175.908 176.613 175.851 176.594C175.795 176.575 175.743 176.544 175.699 176.503C175.655 176.463 175.62 176.414 175.596 176.359C175.571 176.304 175.559 176.245 175.559 176.185C175.559 176.125 175.571 176.066 175.596 176.011C175.62 175.957 175.655 175.907 175.699 175.867C175.743 175.827 175.795 175.796 175.851 175.776C175.908 175.757 175.968 175.749 176.027 175.754H177.215C177.323 175.763 177.424 175.813 177.497 175.893C177.571 175.972 177.611 176.077 177.611 176.185C177.611 176.294 177.571 176.398 177.497 176.478C177.424 176.557 177.323 176.607 177.215 176.616V176.616Z" fill="#88D1C3"/>
    <path d="M174.73 179.098C174.617 179.097 174.508 179.052 174.428 178.971C174.348 178.891 174.302 178.782 174.301 178.669V177.487C174.296 177.427 174.304 177.367 174.323 177.311C174.342 177.254 174.373 177.202 174.414 177.158C174.454 177.114 174.504 177.079 174.558 177.055C174.613 177.031 174.672 177.019 174.732 177.019C174.792 177.019 174.851 177.031 174.906 177.055C174.96 177.079 175.01 177.114 175.05 177.158C175.091 177.202 175.122 177.254 175.141 177.311C175.16 177.367 175.168 177.427 175.163 177.487V178.675C175.16 178.788 175.114 178.895 175.033 178.974C174.952 179.054 174.844 179.098 174.73 179.098V179.098Z" fill="#88D1C3"/>
    <path d="M173.437 176.616H172.255C172.147 176.607 172.047 176.558 171.973 176.478C171.9 176.398 171.859 176.294 171.859 176.186C171.859 176.077 171.9 175.973 171.973 175.893C172.047 175.813 172.147 175.764 172.255 175.755H173.443C173.551 175.764 173.652 175.813 173.725 175.893C173.799 175.973 173.839 176.077 173.839 176.186C173.839 176.294 173.799 176.398 173.725 176.478C173.652 176.558 173.551 176.607 173.443 176.616H173.437Z" fill="#88D1C3"/>
    <path d="M30.1776 120.277C27.1078 122.839 23.2362 124.243 19.2378 124.243C15.2394 124.243 11.3678 122.839 8.29791 120.277C4.73424 122.985 2.3006 126.918 1.46712 131.315C1.38838 131.724 1.40076 132.145 1.50338 132.548C1.606 132.951 1.79632 133.326 2.06077 133.647C2.32522 133.968 2.65727 134.227 3.03323 134.405C3.40918 134.583 3.81978 134.675 4.2357 134.676H34.2429C34.6588 134.675 35.0694 134.583 35.4453 134.405C35.8213 134.227 36.1533 133.968 36.4178 133.647C36.6822 133.326 36.8726 132.951 36.9752 132.548C37.0778 132.145 37.0902 131.724 37.0114 131.315C36.1769 126.918 33.7422 122.985 30.1776 120.277V120.277Z" fill="#88D1C3"/>
    <path d="M19.2394 125.603C15.5928 125.603 12.0282 124.521 8.99625 122.496C5.96429 120.47 3.60116 117.59 2.2057 114.221C0.810235 110.852 0.445118 107.145 1.15652 103.569C1.86792 99.9923 3.62388 96.7071 6.20236 94.1286C8.78083 91.5502 12.066 89.7942 15.6425 89.0828C19.2189 88.3714 22.926 88.7365 26.2949 90.132C29.6639 91.5274 32.5434 93.8906 34.5692 96.9225C36.5951 99.9545 37.6765 103.519 37.6765 107.166C37.6677 112.053 35.7224 116.737 32.2667 120.193C28.8109 123.649 24.1265 125.594 19.2394 125.603V125.603ZM19.2394 91.4276C16.1309 91.4276 13.0922 92.3494 10.5075 94.0764C7.9229 95.8034 5.90843 98.258 4.71886 101.13C3.52929 104.002 3.21804 107.162 3.82448 110.211C4.43092 113.259 5.9278 116.06 8.12585 118.258C10.3239 120.456 13.1244 121.953 16.1731 122.559C19.2219 123.166 22.3821 122.855 25.2539 121.665C28.1258 120.475 30.5805 118.461 32.3075 115.876C34.0345 113.292 34.9562 110.253 34.9562 107.144C34.9482 102.979 33.2898 98.9855 30.344 96.0398C27.3983 93.094 23.4053 91.4356 19.2394 91.4276V91.4276Z" fill="#4F457C"/>
    <path d="M76.7664 104.284C76.618 104.283 76.4734 104.237 76.3504 104.154C76.2275 104.071 76.1316 103.954 76.0746 103.817C76.0177 103.68 76.0022 103.529 76.0301 103.383C76.0579 103.238 76.1279 103.103 76.2314 102.997C77.7814 101.445 78.6521 99.3416 78.6521 97.1483C78.6521 94.9551 77.7814 92.8515 76.2314 91.2998C76.1592 91.2302 76.1015 91.1469 76.0618 91.0548C76.022 90.9627 76.001 90.8636 76 90.7632C75.999 90.6629 76.018 90.5634 76.0559 90.4705C76.0937 90.3776 76.1497 90.2931 76.2206 90.2221C76.2914 90.151 76.3757 90.0948 76.4685 90.0567C76.5613 90.0186 76.6608 89.9993 76.7611 90C76.8614 90.0007 76.9606 90.0215 77.0528 90.0609C77.1451 90.1004 77.2285 90.1578 77.2983 90.2299C79.1324 92.0646 80.1627 94.5526 80.1627 97.1468C80.1627 99.741 79.1324 102.229 77.2983 104.064C77.1571 104.205 76.9659 104.284 76.7664 104.284V104.284Z" fill="white"/>
    <path d="M74.7539 101.662C74.655 101.662 74.557 101.643 74.4656 101.605C74.3743 101.567 74.2914 101.512 74.222 101.441C74.1516 101.371 74.0958 101.287 74.0577 101.196C74.0196 101.104 74 101.005 74 100.906C74 100.807 74.0196 100.708 74.0577 100.616C74.0958 100.525 74.1516 100.441 74.222 100.371C75.1642 99.4275 75.6934 98.1486 75.6934 96.8152C75.6934 95.4817 75.1642 94.2028 74.222 93.2592C74.0933 93.1153 74.0246 92.9275 74.03 92.7345C74.0354 92.5415 74.1145 92.3579 74.251 92.2213C74.3876 92.0848 74.5712 92.0057 74.7642 92.0003C74.9572 91.9949 75.145 92.0636 75.2889 92.1923C75.8965 92.7994 76.3784 93.5203 76.7073 94.3138C77.0361 95.1073 77.2053 95.9578 77.2053 96.8167C77.2053 97.6756 77.0361 98.5261 76.7073 99.3196C76.3784 100.113 75.8965 100.834 75.2889 101.441C75.2187 101.511 75.1353 101.567 75.0435 101.605C74.9517 101.643 74.8533 101.662 74.7539 101.662V101.662Z" fill="white"/>
    <path d="M72.7565 99.4127C72.6068 99.4129 72.4605 99.3687 72.336 99.2857C72.2115 99.2027 72.1144 99.0846 72.0571 98.9464C71.9998 98.8081 71.9848 98.656 72.0141 98.5092C72.0434 98.3625 72.1156 98.2277 72.2215 98.1221C72.3875 97.9562 72.5191 97.7592 72.6089 97.5424C72.6988 97.3257 72.745 97.0933 72.745 96.8587C72.745 96.624 72.6988 96.3917 72.6089 96.1749C72.5191 95.9581 72.3875 95.7611 72.2215 95.5953C72.0796 95.4534 71.9999 95.2609 71.9999 95.0603C71.9999 94.8596 72.0796 94.6672 72.2215 94.5253C72.3634 94.3834 72.5558 94.3037 72.7565 94.3037C72.9571 94.3037 73.1496 94.3834 73.2914 94.5253C73.9086 95.145 74.2552 95.984 74.2552 96.8587C74.2552 97.7333 73.9086 98.5723 73.2914 99.192C73.1489 99.3328 72.9568 99.412 72.7565 99.4127Z" fill="white"/>
    <path d="M202.228 133.846C202.082 133.812 201.951 133.736 201.849 133.628C201.747 133.519 201.679 133.382 201.655 133.236C201.63 133.089 201.65 132.938 201.711 132.802C201.772 132.666 201.871 132.551 201.997 132.471C203.858 131.31 205.182 129.458 205.677 127.321C206.173 125.185 205.8 122.939 204.641 121.077C204.539 120.907 204.508 120.704 204.554 120.511C204.6 120.319 204.72 120.152 204.888 120.047C205.056 119.942 205.258 119.907 205.452 119.95C205.645 119.993 205.814 120.11 205.922 120.276C206.602 121.366 207.06 122.579 207.271 123.846C207.482 125.114 207.441 126.41 207.15 127.661C206.86 128.913 206.326 130.095 205.579 131.14C204.832 132.185 203.886 133.072 202.796 133.752C202.712 133.805 202.619 133.84 202.521 133.857C202.424 133.873 202.324 133.869 202.228 133.846V133.846Z" fill="white"/>
    <path d="M200.508 131.108C200.411 131.086 200.32 131.045 200.239 130.987C200.158 130.93 200.089 130.857 200.037 130.772C199.932 130.602 199.899 130.397 199.944 130.201C199.989 130.006 200.11 129.837 200.279 129.73C200.84 129.381 201.326 128.925 201.711 128.388C202.095 127.851 202.37 127.243 202.519 126.599C202.669 125.956 202.69 125.289 202.581 124.638C202.472 123.986 202.236 123.362 201.886 122.802C201.832 122.718 201.795 122.623 201.777 122.525C201.759 122.426 201.762 122.325 201.784 122.227C201.806 122.129 201.847 122.036 201.905 121.955C201.963 121.873 202.037 121.803 202.122 121.75C202.207 121.697 202.302 121.662 202.401 121.646C202.5 121.63 202.602 121.634 202.699 121.658C202.797 121.682 202.888 121.724 202.969 121.784C203.05 121.843 203.118 121.918 203.169 122.005C203.624 122.733 203.931 123.544 204.072 124.392C204.213 125.239 204.185 126.106 203.991 126.942C203.797 127.779 203.44 128.569 202.94 129.268C202.441 129.967 201.808 130.56 201.079 131.014C200.995 131.067 200.901 131.102 200.803 131.118C200.705 131.134 200.605 131.131 200.508 131.108V131.108Z" fill="white"/>
    <path d="M198.798 128.347C198.653 128.312 198.521 128.235 198.42 128.126C198.318 128.017 198.251 127.88 198.226 127.733C198.202 127.586 198.221 127.436 198.282 127.299C198.343 127.163 198.442 127.048 198.568 126.968C198.767 126.844 198.94 126.682 199.077 126.491C199.213 126.3 199.311 126.085 199.364 125.856C199.417 125.627 199.424 125.391 199.386 125.159C199.347 124.928 199.263 124.706 199.139 124.507C199.085 124.423 199.047 124.329 199.029 124.23C199.011 124.131 199.013 124.03 199.035 123.932C199.057 123.834 199.098 123.741 199.156 123.659C199.213 123.577 199.287 123.508 199.372 123.455C199.457 123.401 199.552 123.366 199.651 123.35C199.75 123.333 199.851 123.337 199.949 123.361C200.046 123.384 200.138 123.426 200.219 123.486C200.3 123.545 200.369 123.62 200.42 123.706C200.65 124.073 200.805 124.482 200.876 124.91C200.947 125.337 200.933 125.774 200.836 126.196C200.738 126.618 200.557 127.016 200.305 127.369C200.053 127.721 199.734 128.02 199.366 128.249C199.283 128.302 199.189 128.338 199.092 128.355C198.994 128.372 198.894 128.369 198.798 128.347Z" fill="white"/>
    <path d="M164.23 50.3452C164.152 50.4064 164.063 50.4515 163.967 50.4779C163.872 50.5043 163.773 50.5116 163.675 50.4992C163.576 50.4873 163.481 50.4561 163.394 50.4072C163.307 50.3584 163.231 50.293 163.17 50.2147C163.109 50.1364 163.064 50.0468 163.037 49.9511C163.011 49.8553 163.003 49.7552 163.015 49.6566C163.28 47.4799 162.67 45.2871 161.319 43.5601C159.967 41.8331 157.986 40.7132 155.809 40.4466C155.71 40.4363 155.613 40.4062 155.525 40.3581C155.437 40.31 155.359 40.2449 155.297 40.1665C155.234 40.0881 155.188 39.998 155.16 39.9015C155.133 39.805 155.125 39.704 155.137 39.6044C155.149 39.5048 155.18 39.4086 155.23 39.3214C155.28 39.2342 155.346 39.1577 155.426 39.0965C155.505 39.0352 155.596 38.9904 155.693 38.9646C155.79 38.9389 155.891 38.9327 155.99 38.9464C157.266 39.1019 158.498 39.5071 159.616 40.1389C160.735 40.7706 161.718 41.6165 162.51 42.6283C163.301 43.6401 163.886 44.7979 164.23 46.0356C164.574 47.2733 164.671 48.5666 164.515 49.8418C164.503 49.9404 164.472 50.0356 164.423 50.122C164.374 50.2084 164.308 50.2843 164.23 50.3452V50.3452Z" fill="white"/>
    <path d="M161.002 49.9607C160.883 50.0516 160.741 50.1057 160.593 50.1163C160.444 50.1269 160.296 50.0935 160.166 50.0202C160.036 49.9469 159.931 49.8371 159.863 49.7044C159.795 49.5717 159.768 49.4219 159.785 49.2739C159.866 48.6182 159.816 47.9531 159.64 47.3165C159.463 46.68 159.163 46.0845 158.756 45.5642C158.348 45.0439 157.843 44.6091 157.267 44.2845C156.692 43.9599 156.058 43.752 155.403 43.6727C155.203 43.6483 155.022 43.5459 154.898 43.3879C154.775 43.2298 154.719 43.0291 154.743 42.83C154.768 42.6308 154.87 42.4494 155.028 42.3258C155.186 42.2021 155.387 42.1463 155.586 42.1706C156.439 42.2744 157.262 42.5452 158.01 42.9675C158.758 43.3898 159.416 43.9554 159.945 44.6318C160.474 45.3083 160.865 46.0824 161.095 46.91C161.325 47.7376 161.389 48.6023 161.285 49.4549C161.273 49.5537 161.242 49.6492 161.194 49.736C161.145 49.8228 161.08 49.8992 161.002 49.9607V49.9607Z" fill="white"/>
    <path d="M157.784 49.5661C157.667 49.6564 157.526 49.7105 157.379 49.7217C157.232 49.7329 157.085 49.7006 156.955 49.629C156.826 49.5573 156.721 49.4494 156.652 49.3185C156.584 49.1876 156.555 49.0395 156.57 48.8925C156.627 48.4218 156.494 47.9478 156.202 47.5743C155.91 47.2009 155.482 46.9585 155.011 46.9001C154.909 46.8934 154.809 46.8658 154.717 46.819C154.625 46.7723 154.544 46.7073 154.479 46.6282C154.413 46.549 154.365 46.4573 154.336 46.3587C154.307 46.2601 154.298 46.1566 154.311 46.0545C154.323 45.9525 154.356 45.8541 154.408 45.7653C154.46 45.6765 154.529 45.5992 154.612 45.5382C154.695 45.4771 154.789 45.4336 154.889 45.4102C154.989 45.3869 155.093 45.3842 155.194 45.4023C155.624 45.4544 156.04 45.5908 156.417 45.8037C156.794 46.0165 157.126 46.3017 157.393 46.6429C157.66 46.984 157.857 47.3745 157.973 47.7919C158.088 48.2093 158.121 48.6454 158.068 49.0754C158.041 49.2699 157.94 49.4462 157.784 49.5661Z" fill="white"/>
    <path d="M61.3976 120.247C61.198 120.247 61.0067 120.167 60.8656 120.026C59.9571 119.118 59.2365 118.04 58.7448 116.853C58.2531 115.666 58 114.394 58 113.109C58 111.825 58.2531 110.553 58.7448 109.366C59.2365 108.179 59.9571 107.101 60.8656 106.192C61.0096 106.064 61.1973 105.995 61.3903 106C61.5834 106.006 61.767 106.085 61.9035 106.221C62.04 106.358 62.1191 106.541 62.1245 106.734C62.1299 106.927 62.0612 107.115 61.9326 107.259C60.3826 108.811 59.5119 110.914 59.5119 113.108C59.5119 115.301 60.3826 117.404 61.9326 118.956C62.0029 119.026 62.0588 119.11 62.0969 119.202C62.1349 119.293 62.1546 119.392 62.1546 119.491C62.1546 119.591 62.1349 119.689 62.0969 119.781C62.0588 119.873 62.0029 119.956 61.9326 120.026C61.79 120.167 61.5979 120.246 61.3976 120.247Z" fill="white"/>
    <path d="M63.6916 117.952C63.5923 117.953 63.4939 117.933 63.4021 117.895C63.3103 117.857 63.2269 117.802 63.1567 117.732C62.5491 117.124 62.0671 116.404 61.7383 115.61C61.4095 114.817 61.2402 113.966 61.2402 113.107C61.2402 112.248 61.4095 111.398 61.7383 110.604C62.0671 109.811 62.5491 109.09 63.1567 108.483C63.2265 108.411 63.3099 108.353 63.4022 108.314C63.4944 108.274 63.5936 108.254 63.6939 108.253C63.7943 108.252 63.8937 108.271 63.9865 108.31C64.0793 108.348 64.1636 108.404 64.2345 108.475C64.3053 108.546 64.3613 108.63 64.3992 108.723C64.437 108.816 64.456 108.916 64.455 109.016C64.454 109.116 64.433 109.216 64.3933 109.308C64.3535 109.4 64.2959 109.483 64.2236 109.553C63.7563 110.02 63.3856 110.574 63.1327 111.184C62.8798 111.794 62.7496 112.448 62.7496 113.109C62.7496 113.769 62.8798 114.423 63.1327 115.033C63.3856 115.643 63.7563 116.198 64.2236 116.665C64.3285 116.77 64.3998 116.905 64.4285 117.051C64.4571 117.197 64.4419 117.349 64.3848 117.487C64.3276 117.624 64.231 117.742 64.1071 117.825C63.9832 117.907 63.8377 117.952 63.6886 117.952H63.6916Z" fill="white"/>
    <path d="M65.9831 115.665C65.8838 115.665 65.7854 115.646 65.6935 115.608C65.6017 115.57 65.5183 115.514 65.4481 115.444C64.8309 114.824 64.4844 113.985 64.4844 113.111C64.4844 112.236 64.8309 111.397 65.4481 110.777C65.5184 110.707 65.6018 110.651 65.6936 110.613C65.7853 110.575 65.8837 110.556 65.9831 110.556C66.0824 110.556 66.1808 110.575 66.2726 110.613C66.3644 110.651 66.4478 110.707 66.5181 110.777C66.5883 110.848 66.644 110.931 66.6821 111.023C66.7201 111.115 66.7397 111.213 66.7397 111.312C66.7397 111.412 66.7201 111.51 66.6821 111.602C66.644 111.694 66.5883 111.777 66.5181 111.847C66.3521 112.013 66.2204 112.21 66.1306 112.427C66.0408 112.644 65.9946 112.876 65.9946 113.111C65.9946 113.345 66.0408 113.578 66.1306 113.794C66.2204 114.011 66.3521 114.208 66.5181 114.374C66.624 114.48 66.6962 114.614 66.7255 114.761C66.7547 114.908 66.7398 115.06 66.6825 115.198C66.6252 115.337 66.5281 115.455 66.4036 115.538C66.2791 115.621 66.1327 115.665 65.9831 115.665V115.665Z" fill="white"/>
    <path d="M180.086 137.391C179.996 137.35 179.914 137.291 179.847 137.218C179.78 137.145 179.727 137.059 179.693 136.966C179.25 135.76 179.05 134.479 179.102 133.195C179.155 131.912 179.459 130.651 179.999 129.485C180.539 128.32 181.303 127.272 182.248 126.401C183.193 125.531 184.3 124.855 185.506 124.413C185.6 124.377 185.7 124.36 185.8 124.363C185.9 124.366 185.999 124.388 186.09 124.43C186.182 124.471 186.264 124.531 186.332 124.604C186.4 124.678 186.453 124.764 186.488 124.859C186.522 124.953 186.537 125.053 186.533 125.153C186.528 125.253 186.503 125.352 186.46 125.442C186.417 125.533 186.356 125.614 186.282 125.681C186.207 125.748 186.12 125.799 186.025 125.832C183.966 126.588 182.291 128.131 181.369 130.121C180.448 132.112 180.354 134.387 181.11 136.446C181.16 136.586 181.169 136.738 181.133 136.883C181.098 137.028 181.02 137.159 180.91 137.26C180.801 137.361 180.664 137.427 180.516 137.45C180.369 137.473 180.218 137.452 180.083 137.39L180.086 137.391Z" fill="white"/>
    <path d="M183.121 136.288C183.031 136.247 182.95 136.188 182.882 136.115C182.815 136.042 182.763 135.956 182.729 135.863C182.133 134.235 182.207 132.437 182.936 130.863C183.665 129.29 184.988 128.07 186.615 127.471C186.802 127.405 187.007 127.416 187.186 127.501C187.366 127.585 187.504 127.737 187.573 127.923C187.641 128.109 187.634 128.314 187.553 128.495C187.471 128.675 187.322 128.817 187.137 128.888C185.886 129.349 184.868 130.287 184.308 131.497C183.748 132.707 183.691 134.09 184.149 135.342C184.201 135.482 184.21 135.635 184.175 135.78C184.139 135.926 184.062 136.058 183.952 136.159C183.842 136.26 183.704 136.327 183.556 136.35C183.408 136.373 183.257 136.351 183.121 136.288V136.288Z" fill="white"/>
    <path d="M186.172 135.16C186.081 135.118 186 135.058 185.933 134.985C185.866 134.912 185.814 134.826 185.78 134.732C185.631 134.325 185.563 133.894 185.581 133.461C185.599 133.028 185.701 132.603 185.883 132.21C186.065 131.817 186.323 131.464 186.642 131.17C186.96 130.877 187.333 130.649 187.74 130.5C187.927 130.435 188.132 130.447 188.311 130.532C188.49 130.617 188.629 130.769 188.697 130.955C188.765 131.141 188.757 131.346 188.675 131.527C188.593 131.707 188.443 131.848 188.258 131.919C187.815 132.084 187.454 132.417 187.255 132.847C187.056 133.276 187.035 133.767 187.197 134.212C187.247 134.352 187.255 134.504 187.219 134.648C187.184 134.793 187.107 134.924 186.997 135.025C186.888 135.126 186.752 135.192 186.605 135.216C186.458 135.24 186.307 135.221 186.172 135.16V135.16Z" fill="white"/>
    <path d="M166.385 69.8076C166.306 69.8682 166.217 69.9127 166.121 69.9385C166.025 69.9642 165.925 69.9707 165.826 69.9576C164.553 69.7888 163.325 69.3708 162.213 68.7274C161.101 68.084 160.127 67.2278 159.346 66.2079C158.565 65.1879 157.992 64.0241 157.661 62.7828C157.33 61.5416 157.247 60.2473 157.416 58.9738C157.427 58.8741 157.458 58.7777 157.507 58.6901C157.556 58.6026 157.622 58.5257 157.701 58.4639C157.78 58.4021 157.871 58.3566 157.968 58.3302C158.064 58.3038 158.166 58.2969 158.265 58.31C158.365 58.323 158.46 58.3558 158.547 58.4063C158.634 58.4568 158.71 58.524 158.77 58.6041C158.83 58.6842 158.874 58.7756 158.899 58.8728C158.924 58.97 158.929 59.0712 158.914 59.1705C158.771 60.2473 158.841 61.3418 159.121 62.3915C159.4 63.4412 159.884 64.4254 160.545 65.2879C161.205 66.1505 162.029 66.8744 162.97 67.4182C163.91 67.9621 164.948 68.3153 166.025 68.4576C166.174 68.4771 166.313 68.5402 166.425 68.6389C166.538 68.7377 166.618 68.8676 166.657 69.0122C166.696 69.1568 166.69 69.3095 166.642 69.4511C166.593 69.5927 166.504 69.7168 166.385 69.8076V69.8076Z" fill="white"/>
    <path d="M166.814 66.5939C166.735 66.6543 166.645 66.6984 166.548 66.7237C166.452 66.749 166.352 66.7551 166.253 66.7416C165.402 66.6289 164.581 66.3495 163.837 65.9195C163.094 65.4894 162.443 64.917 161.92 64.235C161.398 63.5531 161.016 62.7749 160.794 61.945C160.573 61.1151 160.517 60.2497 160.631 59.3983C160.642 59.2986 160.674 59.2023 160.723 59.1149C160.772 59.0275 160.838 58.9507 160.917 58.8892C160.997 58.8276 161.087 58.7824 161.184 58.7563C161.281 58.7301 161.382 58.7235 161.482 58.7368C161.581 58.7502 161.677 58.7832 161.763 58.8339C161.85 58.8847 161.925 58.9522 161.986 59.0325C162.046 59.1127 162.089 59.2042 162.114 59.3015C162.138 59.3988 162.143 59.5 162.128 59.5992C161.954 60.9212 162.311 62.2583 163.122 63.3171C163.932 64.3758 165.13 65.0695 166.452 65.2458C166.599 65.2666 166.737 65.3302 166.849 65.4288C166.96 65.5274 167.04 65.6565 167.079 65.8002C167.117 65.9438 167.113 66.0957 167.066 66.2368C167.019 66.3779 166.931 66.5021 166.814 66.5939V66.5939Z" fill="white"/>
    <path d="M167.238 63.3792C167.16 63.4399 167.07 63.4844 166.974 63.5101C166.878 63.5359 166.778 63.5424 166.679 63.5293C165.813 63.4128 165.028 62.9577 164.497 62.2636C163.965 61.5696 163.731 60.6932 163.844 59.8265C163.873 59.6305 163.978 59.4538 164.136 59.3345C164.295 59.2152 164.493 59.1628 164.69 59.1886C164.886 59.2143 165.065 59.3163 165.187 59.4723C165.309 59.6284 165.365 59.8262 165.342 60.0231C165.311 60.2557 165.327 60.4921 165.387 60.7188C165.447 60.9456 165.552 61.1581 165.695 61.3445C165.837 61.5308 166.015 61.6871 166.218 61.8046C166.422 61.9221 166.646 61.9985 166.878 62.0293C167.077 62.057 167.256 62.1616 167.378 62.3206C167.5 62.4796 167.554 62.6801 167.529 62.8788C167.516 62.9773 167.483 63.0722 167.434 63.1581C167.384 63.244 167.317 63.3191 167.238 63.3792V63.3792Z" fill="white"/>
    <path d="M19.2395 98.0742C14.0771 98.0742 9.89404 103.028 9.89404 109.136C9.89404 115.245 14.0771 120.202 19.2395 120.202C23.3289 120.202 26.563 116.209 26.563 111.479L28.585 111.14C28.585 102.832 24.3989 98.0742 19.2395 98.0742ZM20.9049 110.669C19.5932 110.669 18.5323 109.333 18.5323 107.686C18.5323 106.038 19.5932 104.699 20.9049 104.699C22.2167 104.699 23.2806 106.035 23.2806 107.686C23.2806 109.336 22.2167 110.669 20.9049 110.669Z" fill="#88D1C3"/>
    <path d="M17.0601 98.3768C20.0825 97.3159 24.1901 97.5697 24.8701 94.3115C28.1556 95.5205 28.2825 99.9152 25.931 101.42C23.5795 102.926 17.0601 98.3768 17.0601 98.3768Z" fill="#88D1C3"/>
    <path d="M9.97251 94.157C9.73691 94.1575 9.50524 94.0967 9.30019 93.9807C9.09514 93.8646 8.92375 93.6973 8.80281 93.4951L4.85848 86.885C4.67371 86.5751 4.61958 86.2046 4.708 85.8549C4.79643 85.5051 5.02016 85.2049 5.32998 85.0201C5.63981 84.8353 6.01034 84.7812 6.36007 84.8696C6.7098 84.958 7.01008 85.1818 7.19485 85.4916L11.1241 92.0987C11.2475 92.3051 11.314 92.5406 11.3169 92.781C11.3197 93.0215 11.2587 93.2584 11.1401 93.4676C11.0215 93.6768 10.8496 93.8509 10.6418 93.972C10.434 94.0931 10.1979 94.157 9.9574 94.157H9.97251Z" fill="#4F457C"/>
    <path d="M6.02834 90.0557C8.16334 90.0557 9.89409 88.325 9.89409 86.19C9.89409 84.055 8.16334 82.3242 6.02834 82.3242C3.89335 82.3242 2.1626 84.055 2.1626 86.19C2.1626 88.325 3.89335 90.0557 6.02834 90.0557Z" fill="#4F457C"/>
    <path d="M169.644 22.5308C169.642 22.6909 169.671 22.8497 169.731 22.9981C169.791 23.1466 169.88 23.2816 169.992 23.3955C170.105 23.5094 170.239 23.5998 170.386 23.6615C170.534 23.7232 170.693 23.755 170.853 23.7549H172.69V44.1446C172.689 44.4671 172.816 44.777 173.042 45.0068C173.269 45.2366 173.577 45.3677 173.899 45.3717H219.333C219.659 45.3717 219.971 45.2424 220.201 45.0123C220.431 44.7821 220.56 44.47 220.56 44.1446V23.7549H222.395C222.556 23.7553 222.715 23.724 222.864 23.6626C223.013 23.6013 223.148 23.5112 223.262 23.3975C223.376 23.2838 223.467 23.1487 223.529 23C223.59 22.8513 223.622 22.6918 223.622 22.5308V22.5308C223.622 22.2054 223.493 21.8933 223.263 21.6631C223.033 21.433 222.72 21.3037 222.395 21.3037H170.868C170.707 21.3037 170.547 21.3355 170.399 21.3972C170.25 21.4589 170.115 21.5493 170.001 21.6633C169.887 21.7773 169.797 21.9126 169.736 22.0615C169.675 22.2103 169.643 22.3698 169.644 22.5308V22.5308Z" fill="#4F457C"/>
    <path d="M210.387 42.9203V41.3667C210.387 41.1262 210.291 40.8956 210.121 40.7255C209.951 40.5555 209.72 40.46 209.48 40.46H183.774C183.533 40.46 183.303 40.5555 183.133 40.7255C182.963 40.8956 182.867 41.1262 182.867 41.3667V42.9203H181.474C181.233 42.9203 181.003 43.0158 180.832 43.1858C180.662 43.3559 180.567 43.5865 180.567 43.827V45.3806H212.69V43.827C212.69 43.5865 212.594 43.3559 212.424 43.1858C212.254 43.0158 212.024 42.9203 211.783 42.9203H210.387Z" fill="#88D1C3"/>
    <path d="M211.463 22.833H181.803C181.126 22.833 180.576 23.3817 180.576 24.0586C180.576 24.7355 181.126 25.2842 181.803 25.2842H211.463C212.141 25.2842 212.69 24.7355 212.69 24.0586C212.69 23.3817 212.141 22.833 211.463 22.833Z" fill="#88D1C3"/>
    <path d="M214.068 16.6729H179.195C178.517 16.6729 177.968 17.2216 177.968 17.8985C177.968 18.5754 178.517 19.1241 179.195 19.1241H214.068C214.746 19.1241 215.295 18.5754 215.295 17.8985C215.295 17.2216 214.746 16.6729 214.068 16.6729Z" fill="#4F457C"/>
    <path d="M177.795 35.3516C178.268 35.3516 178.722 35.5394 179.056 35.8739C179.391 36.2083 179.579 36.6619 179.579 37.1348V40.6137C179.579 40.8349 179.491 41.0471 179.334 41.2036C179.178 41.36 178.966 41.4479 178.745 41.4479H176.846C176.625 41.4479 176.413 41.36 176.257 41.2036C176.1 41.0471 176.012 40.8349 176.012 40.6137V37.1378C176.012 36.9037 176.058 36.6718 176.148 36.4554C176.238 36.2391 176.369 36.0425 176.535 35.8769C176.7 35.7113 176.897 35.5799 177.113 35.4903C177.329 35.4007 177.561 35.3546 177.795 35.3546V35.3516Z" fill="#88D1C3"/>
    <path d="M177.796 26.7139H177.793C176.808 26.7139 176.009 27.5123 176.009 28.4971V31.03C176.009 32.0148 176.808 32.8132 177.793 32.8132H177.796C178.78 32.8132 179.579 32.0148 179.579 31.03V28.4971C179.579 27.5123 178.78 26.7139 177.796 26.7139Z" fill="#88D1C3"/>
    <path d="M216.417 41.4541H214.519C214.297 41.4541 214.085 41.3662 213.929 41.2098C213.772 41.0533 213.684 40.8411 213.684 40.6199V37.1441C213.684 36.6711 213.872 36.2175 214.207 35.8831C214.541 35.5487 214.995 35.3608 215.468 35.3608C215.941 35.3608 216.394 35.5487 216.729 35.8831C217.063 36.2175 217.251 36.6711 217.251 37.1441V40.6169C217.251 40.8381 217.163 41.0503 217.007 41.2067C216.85 41.3632 216.638 41.4511 216.417 41.4511V41.4541Z" fill="#88D1C3"/>
    <path d="M215.468 32.8164H215.471C216.456 32.8164 217.254 32.018 217.254 31.0331V28.5003C217.254 27.5154 216.456 26.717 215.471 26.717H215.468C214.483 26.717 213.684 27.5154 213.684 28.5003V31.0331C213.684 32.018 214.483 32.8164 215.468 32.8164Z" fill="#88D1C3"/>
    <path d="M196.632 8.49708C194.939 8.49549 193.263 8.82743 191.699 9.47394C190.135 10.1204 188.714 11.0688 187.517 12.2649C186.32 13.461 185.37 14.8812 184.722 16.4446C184.074 18.0079 183.741 19.6836 183.741 21.3758H209.501C209.5 17.962 208.145 14.6881 205.732 12.2733C203.318 9.85846 200.045 8.50028 196.632 8.49708V8.49708Z" fill="#4F457C"/>
    <path d="M186.763 26.9678C187.12 26.9678 187.463 27.1098 187.716 27.3626C187.969 27.6154 188.111 27.9583 188.111 28.3158V40.4783H185.418V28.3067C185.42 27.9513 185.563 27.6112 185.815 27.3605C186.067 27.1097 186.408 26.9686 186.763 26.9678V26.9678Z" fill="#88D1C3"/>
    <path d="M193.34 26.9678C193.698 26.9678 194.041 27.1098 194.293 27.3626C194.546 27.6154 194.688 27.9583 194.688 28.3158V40.4783H191.995V28.3067C191.998 27.9513 192.14 27.6112 192.392 27.3605C192.644 27.1097 192.985 26.9686 193.34 26.9678V26.9678Z" fill="#88D1C3"/>
    <path d="M199.923 26.9678C200.281 26.9678 200.624 27.1098 200.876 27.3626C201.129 27.6154 201.271 27.9583 201.271 28.3158V40.4783H198.578V28.3067C198.581 27.9513 198.723 27.6112 198.975 27.3605C199.227 27.1097 199.568 26.9686 199.923 26.9678V26.9678Z" fill="#88D1C3"/>
    <path d="M207.854 40.46H205.161V28.2975C205.161 28.1205 205.196 27.9452 205.263 27.7817C205.331 27.6181 205.431 27.4695 205.556 27.3443C205.681 27.2191 205.829 27.1199 205.993 27.0521C206.157 26.9844 206.332 26.9495 206.509 26.9495V26.9495C206.686 26.9495 206.861 26.9844 207.025 27.0521C207.188 27.1199 207.337 27.2191 207.462 27.3443C207.587 27.4695 207.687 27.6181 207.754 27.7817C207.822 27.9452 207.857 28.1205 207.857 28.2975V40.46H207.854Z" fill="#88D1C3"/>
    <path d="M197.366 4.625H195.894V9.66649H197.366V4.625Z" fill="#4F457C"/>
    <path d="M196.632 5.23322C197.834 5.23322 198.808 4.25891 198.808 3.05704C198.808 1.85517 197.834 0.880859 196.632 0.880859C195.43 0.880859 194.456 1.85517 194.456 3.05704C194.456 4.25891 195.43 5.23322 196.632 5.23322Z" fill="#4F457C"/>
    <path d="M195.894 21.3037V10.9668C195.282 11.5304 194.724 12.1508 194.229 12.8196C192.458 15.2164 191.533 18.0696 191.469 21.3037H195.894Z" fill="#88D1C3"/>
    <path d="M193.606 11.2139C191.437 11.866 189.536 13.1994 188.184 15.0166C186.832 16.8338 186.102 19.0381 186.101 21.3029H189.994C190.088 16.473 191.934 13.1966 193.606 11.2139Z" fill="#88D1C3"/>
    <path d="M257.58 146.413H220.095C218.648 146.413 217.475 147.586 217.475 149.034V173.567C217.475 175.014 218.648 176.188 220.095 176.188H257.58C259.027 176.188 260.2 175.014 260.2 173.567V149.034C260.2 147.586 259.027 146.413 257.58 146.413Z" fill="#4F457C"/>
    <path d="M256.489 149.571H221.186V173.026H256.489V149.571Z" fill="#88D1C3"/>
    <path d="M240.046 141.175H237.628V147.283H240.046V141.175Z" fill="#4F457C"/>
    <path d="M238.837 143.396C240.909 143.396 242.588 141.717 242.588 139.645C242.588 137.574 240.909 135.895 238.837 135.895C236.766 135.895 235.086 137.574 235.086 139.645C235.086 141.717 236.766 143.396 238.837 143.396Z" fill="#88D1C3"/>
    <path d="M247.893 140.67C247.759 140.67 247.626 140.643 247.501 140.592C247.377 140.54 247.264 140.465 247.17 140.37C247.075 140.274 246.999 140.161 246.948 140.037C246.897 139.913 246.871 139.78 246.871 139.645C246.871 137.515 246.025 135.471 244.518 133.965C243.012 132.458 240.968 131.612 238.838 131.612C236.707 131.612 234.664 132.458 233.157 133.965C231.65 135.471 230.804 137.515 230.804 139.645C230.804 139.916 230.696 140.176 230.505 140.368C230.313 140.559 230.053 140.667 229.782 140.667C229.511 140.667 229.252 140.559 229.06 140.368C228.868 140.176 228.761 139.916 228.761 139.645C228.761 136.973 229.822 134.41 231.712 132.52C233.602 130.63 236.165 129.568 238.838 129.568C241.51 129.568 244.073 130.63 245.963 132.52C247.853 134.41 248.915 136.973 248.915 139.645C248.915 139.78 248.889 139.913 248.838 140.037C248.787 140.161 248.711 140.274 248.616 140.37C248.522 140.465 248.409 140.54 248.285 140.592C248.161 140.643 248.027 140.67 247.893 140.67V140.67Z" fill="#4F457C"/>
    <path d="M247.893 140.67C247.759 140.67 247.626 140.643 247.501 140.592C247.377 140.54 247.264 140.465 247.17 140.37C247.075 140.274 246.999 140.161 246.948 140.037C246.897 139.913 246.871 139.78 246.871 139.645C246.871 137.515 246.025 135.471 244.518 133.965C243.012 132.458 240.968 131.612 238.838 131.612C236.707 131.612 234.664 132.458 233.157 133.965C231.65 135.471 230.804 137.515 230.804 139.645C230.804 139.916 230.696 140.176 230.505 140.368C230.313 140.559 230.053 140.667 229.782 140.667C229.511 140.667 229.252 140.559 229.06 140.368C228.868 140.176 228.761 139.916 228.761 139.645C228.761 136.973 229.822 134.41 231.712 132.52C233.602 130.63 236.165 129.568 238.838 129.568C241.51 129.568 244.073 130.63 245.963 132.52C247.853 134.41 248.915 136.973 248.915 139.645C248.915 139.78 248.889 139.913 248.838 140.037C248.787 140.161 248.711 140.274 248.616 140.37C248.522 140.465 248.409 140.54 248.285 140.592C248.161 140.643 248.027 140.67 247.893 140.67V140.67Z" fill="#4F457C"/>
    <path d="M254.053 140.67C253.918 140.67 253.785 140.643 253.661 140.592C253.537 140.54 253.424 140.465 253.329 140.37C253.234 140.274 253.159 140.161 253.108 140.037C253.057 139.913 253.031 139.78 253.031 139.645C252.88 135.982 251.318 132.519 248.673 129.981C246.028 127.443 242.504 126.025 238.837 126.025C235.171 126.025 231.647 127.443 229.002 129.981C226.357 132.519 224.795 135.982 224.644 139.645C224.651 139.784 224.631 139.923 224.583 140.054C224.535 140.185 224.46 140.304 224.365 140.405C224.269 140.507 224.154 140.587 224.026 140.642C223.898 140.697 223.76 140.725 223.621 140.725C223.482 140.725 223.344 140.697 223.216 140.642C223.088 140.587 222.973 140.507 222.877 140.405C222.781 140.304 222.707 140.185 222.659 140.054C222.611 139.923 222.59 139.784 222.598 139.645C222.656 135.377 224.392 131.303 227.431 128.305C230.47 125.308 234.567 123.627 238.836 123.627C243.105 123.627 247.202 125.308 250.241 128.305C253.28 131.303 255.016 135.377 255.074 139.645C255.075 139.78 255.048 139.913 254.997 140.037C254.946 140.161 254.871 140.274 254.776 140.37C254.681 140.465 254.568 140.54 254.444 140.592C254.32 140.643 254.187 140.67 254.053 140.67V140.67Z" fill="#4F457C"/>
    <path d="M254.053 140.67C253.918 140.67 253.785 140.643 253.661 140.592C253.537 140.54 253.424 140.465 253.329 140.37C253.234 140.274 253.159 140.161 253.108 140.037C253.057 139.913 253.031 139.78 253.031 139.645C252.88 135.982 251.318 132.519 248.673 129.981C246.028 127.443 242.504 126.025 238.837 126.025C235.171 126.025 231.647 127.443 229.002 129.981C226.357 132.519 224.795 135.982 224.644 139.645C224.651 139.784 224.631 139.923 224.583 140.054C224.535 140.185 224.46 140.304 224.365 140.405C224.269 140.507 224.154 140.587 224.026 140.642C223.898 140.697 223.76 140.725 223.621 140.725C223.482 140.725 223.344 140.697 223.216 140.642C223.088 140.587 222.973 140.507 222.877 140.405C222.781 140.304 222.707 140.185 222.659 140.054C222.611 139.923 222.59 139.784 222.598 139.645C222.656 135.377 224.392 131.303 227.431 128.305C230.47 125.308 234.567 123.627 238.836 123.627C243.105 123.627 247.202 125.308 250.241 128.305C253.28 131.303 255.016 135.377 255.074 139.645C255.075 139.78 255.048 139.913 254.997 140.037C254.946 140.161 254.871 140.274 254.776 140.37C254.681 140.465 254.568 140.54 254.444 140.592C254.32 140.643 254.187 140.67 254.053 140.67V140.67Z" fill="#4F457C"/>
    <path d="M251.613 153.479H237.502C237.149 153.479 236.864 153.765 236.864 154.117V155.677C236.864 156.029 237.149 156.315 237.502 156.315H251.613C251.966 156.315 252.251 156.029 252.251 155.677V154.117C252.251 153.765 251.966 153.479 251.613 153.479Z" fill="#4F457C"/>
    <path d="M251.613 159.881H237.502C237.149 159.881 236.864 160.166 236.864 160.519V162.078C236.864 162.43 237.149 162.716 237.502 162.716H251.613C251.966 162.716 252.251 162.43 252.251 162.078V160.519C252.251 160.166 251.966 159.881 251.613 159.881Z" fill="#4F457C"/>
    <path d="M251.611 166.282H226.062C225.709 166.282 225.424 166.568 225.424 166.92V168.48C225.424 168.832 225.709 169.117 226.062 169.117H251.611C251.963 169.117 252.248 168.832 252.248 168.48V166.92C252.248 166.568 251.963 166.282 251.611 166.282Z" fill="#4F457C"/>
    <path d="M232.672 153.479H226.062C225.709 153.479 225.424 153.765 225.424 154.117V162.078C225.424 162.431 225.709 162.716 226.062 162.716H232.672C233.024 162.716 233.309 162.431 233.309 162.078V154.117C233.309 153.765 233.024 153.479 232.672 153.479Z" fill="#4F457C"/>
    <path d="M212.986 178.134H264.689C265.037 178.134 265.372 178.272 265.618 178.519C265.865 178.765 266.003 179.1 266.003 179.449C266.003 180.049 265.765 180.625 265.34 181.049C264.916 181.474 264.34 181.712 263.74 181.712H213.935C213.335 181.712 212.759 181.474 212.334 181.049C211.91 180.625 211.671 180.049 211.671 179.449C211.671 179.1 211.81 178.765 212.056 178.519C212.303 178.272 212.637 178.134 212.986 178.134Z" fill="#4F457C"/>
    <path d="M53.638 52.5169C51.9062 52.5171 50.1953 52.1384 48.6253 51.4072C47.0554 50.6761 45.6645 49.6102 44.5502 48.2845C43.4359 46.9587 42.6253 45.4052 42.1751 43.7329C41.7249 42.0606 41.6462 40.31 41.9443 38.6041C42.2425 36.8981 42.9104 35.278 43.9011 33.8576C44.8918 32.4371 46.1814 31.2507 47.6793 30.3815C49.1772 29.5123 50.8472 28.9814 52.5721 28.8261C54.2969 28.6708 56.0349 28.8949 57.6639 29.4826C57.7599 29.5142 57.8485 29.5648 57.9246 29.6313C58.0006 29.6978 58.0625 29.7789 58.1067 29.8698C58.1509 29.9606 58.1764 30.0594 58.1817 30.1603C58.187 30.2612 58.1721 30.3621 58.1377 30.4571C58.1033 30.5521 58.0503 30.6393 57.9816 30.7134C57.913 30.7876 57.8302 30.8472 57.7381 30.8888C57.6461 30.9303 57.5466 30.953 57.4456 30.9555C57.3446 30.958 57.2441 30.9402 57.1501 30.9031C55.2234 30.2065 53.1334 30.097 51.1444 30.5883C49.1554 31.0796 47.3568 32.1497 45.9761 33.6633C44.5953 35.1768 43.6944 37.0659 43.3873 39.0915C43.0802 41.1171 43.3808 43.1883 44.2509 45.0431C45.121 46.898 46.5216 48.4531 48.2756 49.5118C50.0296 50.5706 52.0582 51.0854 54.1048 50.9911C56.1514 50.8969 58.1241 50.1978 59.7733 48.9824C61.4226 47.7669 62.6744 46.0897 63.3704 44.1627C63.402 44.0668 63.4526 43.9782 63.5191 43.9021C63.5856 43.8261 63.6667 43.7641 63.7576 43.72C63.8484 43.6758 63.9472 43.6503 64.0481 43.645C64.149 43.6396 64.2499 43.6546 64.3449 43.689C64.4399 43.7233 64.5271 43.7764 64.6012 43.845C64.6754 43.9137 64.735 43.9965 64.7766 44.0885C64.8182 44.1806 64.8409 44.2801 64.8433 44.3811C64.8458 44.4821 64.828 44.5826 64.7909 44.6765C63.9599 46.9691 62.4443 48.9509 60.4493 50.3533C58.4544 51.7557 56.0766 52.511 53.638 52.5169V52.5169Z" fill="#7996C9"/>
    <path d="M68.4244 49.7961C67.5651 49.7913 66.7066 49.7429 65.8523 49.651C61.8566 49.243 56.8121 47.9886 51.6466 46.1238C46.4812 44.2589 41.8055 41.9951 38.4717 39.7584C34.7661 37.2679 33.1944 35.1552 33.802 33.4777C34.8568 30.555 41.6876 31.4889 45.6682 32.308C45.8646 32.3481 46.037 32.4646 46.1475 32.6318C46.2581 32.799 46.2977 33.0033 46.2576 33.1997C46.2175 33.396 46.101 33.5685 45.9338 33.679C45.7666 33.7895 45.5623 33.8291 45.3659 33.789C38.4898 32.3745 35.5338 33.1362 35.2255 33.9915C34.9717 34.6988 36.1323 36.3672 39.318 38.5011C42.552 40.6742 47.116 42.8746 52.1635 44.7002C57.211 46.5257 62.1377 47.7498 66.0064 48.1488C69.8178 48.5387 71.7793 48.0007 72.0514 47.2965C72.3687 46.4169 70.5099 43.8811 64.0841 40.4959C63.9147 40.3983 63.7896 40.2389 63.7353 40.0511C63.681 39.8633 63.7015 39.6617 63.7927 39.4887C63.8839 39.3157 64.0386 39.1849 64.2242 39.1235C64.4099 39.0622 64.6121 39.0753 64.7884 39.16C68.4939 41.1125 74.5479 44.8301 73.4719 47.8073C72.9793 49.1311 71.3048 49.7961 68.4244 49.7961Z" fill="#7996C9"/>
    <path d="M48.1371 37.5828C48.4776 37.5828 48.7537 37.3067 48.7537 36.9662C48.7537 36.6257 48.4776 36.3496 48.1371 36.3496C47.7966 36.3496 47.5205 36.6257 47.5205 36.9662C47.5205 37.3067 47.7966 37.5828 48.1371 37.5828Z" fill="#7996C9"/>
    <path d="M52.1088 34.5965C52.4493 34.5965 52.7254 34.3204 52.7254 33.9799C52.7254 33.6393 52.4493 33.3633 52.1088 33.3633C51.7682 33.3633 51.4922 33.6393 51.4922 33.9799C51.4922 34.3204 51.7682 34.5965 52.1088 34.5965Z" fill="#7996C9"/>
    <path d="M51.2594 41.6565C51.7802 41.6565 52.2024 41.2343 52.2024 40.7135C52.2024 40.1927 51.7802 39.7705 51.2594 39.7705C50.7386 39.7705 50.3164 40.1927 50.3164 40.7135C50.3164 41.2343 50.7386 41.6565 51.2594 41.6565Z" fill="#7996C9"/>
    <path d="M49.2797 47.7919C49.6653 47.7919 49.9779 47.4793 49.9779 47.0937C49.9779 46.7081 49.6653 46.3955 49.2797 46.3955C48.8941 46.3955 48.5815 46.7081 48.5815 47.0937C48.5815 47.4793 48.8941 47.7919 49.2797 47.7919Z" fill="#7996C9"/>
    <path d="M56.7786 38.5954C57.039 38.5954 57.2501 38.3843 57.2501 38.1238C57.2501 37.8634 57.039 37.6523 56.7786 37.6523C56.5182 37.6523 56.3071 37.8634 56.3071 38.1238C56.3071 38.3843 56.5182 38.5954 56.7786 38.5954Z" fill="#7996C9"/>
    <path d="M125.939 192.088C123.484 192.088 121.129 191.113 119.393 189.376C117.657 187.64 116.681 185.285 116.681 182.83C116.681 180.375 117.657 178.02 119.393 176.284C121.129 174.548 123.484 173.572 125.939 173.572C126.139 173.572 126.332 173.652 126.473 173.794C126.615 173.935 126.695 174.127 126.695 174.328C126.695 174.528 126.615 174.72 126.473 174.862C126.332 175.004 126.139 175.084 125.939 175.084C124.407 175.083 122.909 175.537 121.634 176.388C120.36 177.238 119.367 178.448 118.78 179.864C118.193 181.279 118.039 182.837 118.338 184.34C118.636 185.842 119.374 187.223 120.457 188.307C121.54 189.39 122.921 190.129 124.424 190.428C125.926 190.727 127.484 190.574 128.9 189.987C130.315 189.401 131.525 188.408 132.377 187.134C133.228 185.86 133.683 184.362 133.683 182.83C133.683 182.63 133.762 182.438 133.904 182.296C134.046 182.154 134.238 182.074 134.438 182.074C134.639 182.074 134.831 182.154 134.972 182.296C135.114 182.438 135.194 182.63 135.194 182.83C135.191 185.284 134.216 187.637 132.481 189.373C130.746 191.108 128.393 192.085 125.939 192.088V192.088Z" fill="#7996C9"/>
    <path d="M121.031 182.084C121.291 182.084 121.502 181.873 121.502 181.612C121.502 181.352 121.291 181.141 121.031 181.141C120.77 181.141 120.559 181.352 120.559 181.612C120.559 181.873 120.77 182.084 121.031 182.084Z" fill="#7996C9"/>
    <path d="M123.11 178.904C123.37 178.904 123.581 178.693 123.581 178.432C123.581 178.172 123.37 177.961 123.11 177.961C122.849 177.961 122.638 178.172 122.638 178.432C122.638 178.693 122.849 178.904 123.11 178.904Z" fill="#7996C9"/>
    <path d="M121.197 186.001C121.457 186.001 121.668 185.79 121.668 185.529C121.668 185.269 121.457 185.058 121.197 185.058C120.936 185.058 120.725 185.269 120.725 185.529C120.725 185.79 120.936 186.001 121.197 186.001Z" fill="#7996C9"/>
    <path d="M124.249 184.221C124.648 184.221 124.972 183.898 124.972 183.499C124.972 183.1 124.648 182.776 124.249 182.776C123.85 182.776 123.527 183.1 123.527 183.499C123.527 183.898 123.85 184.221 124.249 184.221Z" fill="#7996C9"/>
    <path d="M124.485 189.135C124.779 189.135 125.017 188.897 125.017 188.603C125.017 188.309 124.779 188.071 124.485 188.071C124.191 188.071 123.953 188.309 123.953 188.603C123.953 188.897 124.191 189.135 124.485 189.135Z" fill="#7996C9"/>
    <path d="M127.547 180.56C127.745 180.56 127.906 180.399 127.906 180.201C127.906 180.002 127.745 179.841 127.547 179.841C127.348 179.841 127.187 180.002 127.187 180.201C127.187 180.399 127.348 180.56 127.547 180.56Z" fill="#7996C9"/>
    <path d="M79.7676 168.041C79.7111 168.042 79.6551 168.031 79.6029 168.009C79.5506 167.988 79.5031 167.956 79.4632 167.916C79.4233 167.876 79.3917 167.829 79.3702 167.777C79.3488 167.724 79.338 167.668 79.3384 167.612V164.934C79.3384 164.878 79.3495 164.822 79.3711 164.77C79.3926 164.718 79.4242 164.67 79.4641 164.631C79.504 164.591 79.5513 164.559 79.6034 164.538C79.6554 164.516 79.7112 164.505 79.7676 164.505C79.824 164.505 79.8798 164.516 79.9318 164.538C79.9839 164.559 80.0312 164.591 80.0711 164.631C80.1109 164.67 80.1426 164.718 80.1641 164.77C80.1857 164.822 80.1968 164.878 80.1968 164.934V167.612C80.1972 167.668 80.1864 167.724 80.1649 167.777C80.1435 167.829 80.1119 167.876 80.072 167.916C80.032 167.956 79.9846 167.988 79.9323 168.009C79.8801 168.031 79.8241 168.042 79.7676 168.041V168.041Z" fill="#88D1C3"/>
    <path d="M82.95 170.058H81.7833C81.6753 170.049 81.5747 169.999 81.5013 169.92C81.4279 169.84 81.3872 169.735 81.3872 169.627C81.3872 169.519 81.4279 169.414 81.5013 169.334C81.5747 169.255 81.6753 169.205 81.7833 169.196H82.95C83.058 169.205 83.1586 169.255 83.232 169.334C83.3054 169.414 83.3461 169.519 83.3461 169.627C83.3461 169.735 83.3054 169.84 83.232 169.92C83.1586 169.999 83.058 170.049 82.95 170.058V170.058Z" fill="#88D1C3"/>
    <path d="M79.7676 174.767C79.6537 174.767 79.5446 174.722 79.4641 174.641C79.3836 174.561 79.3384 174.451 79.3384 174.338V171.66C79.3384 171.603 79.3495 171.547 79.371 171.495C79.3926 171.443 79.4242 171.396 79.4641 171.356C79.5039 171.316 79.5513 171.285 79.6033 171.263C79.6554 171.242 79.7112 171.23 79.7676 171.23C79.8239 171.23 79.8797 171.242 79.9318 171.263C79.9839 171.285 80.0312 171.316 80.0711 171.356C80.1109 171.396 80.1425 171.443 80.1641 171.495C80.1857 171.547 80.1968 171.603 80.1968 171.66V174.338C80.1968 174.451 80.1515 174.561 80.0711 174.641C79.9906 174.722 79.8814 174.767 79.7676 174.767V174.767Z" fill="#88D1C3"/>
    <path d="M77.7517 170.058H76.5851C76.4771 170.049 76.3764 169.999 76.303 169.92C76.2297 169.84 76.189 169.735 76.189 169.627C76.189 169.519 76.2297 169.414 76.303 169.334C76.3764 169.255 76.4771 169.205 76.5851 169.196H77.7517C77.8597 169.205 77.9604 169.255 78.0338 169.334C78.1071 169.414 78.1478 169.519 78.1478 169.627C78.1478 169.735 78.1071 169.84 78.0338 169.92C77.9604 169.999 77.8597 170.049 77.7517 170.058V170.058Z" fill="#88D1C3"/>
    <path d="M208.066 81.4714H205.315V77.2066C205.306 77.0986 205.257 76.998 205.177 76.9246C205.097 76.8513 204.993 76.8105 204.884 76.8105C204.776 76.8105 204.672 76.8513 204.592 76.9246C204.512 76.998 204.463 77.0986 204.454 77.2066V81.4714H201.7C201.592 81.4804 201.492 81.5297 201.418 81.6095C201.345 81.6893 201.304 81.7937 201.304 81.9021C201.304 82.0104 201.345 82.1149 201.418 82.1946C201.492 82.2744 201.592 82.3237 201.7 82.3328H204.454V86.5975C204.463 86.7055 204.512 86.8061 204.592 86.8795C204.672 86.9529 204.776 86.9936 204.884 86.9936C204.993 86.9936 205.097 86.9529 205.177 86.8795C205.257 86.8061 205.306 86.7055 205.315 86.5975V82.3328H208.066C208.125 82.3378 208.185 82.3303 208.242 82.311C208.298 82.2916 208.35 82.2607 208.394 82.2202C208.438 82.1797 208.473 82.1305 208.498 82.0758C208.522 82.021 208.534 81.9619 208.534 81.9021C208.534 81.8423 208.522 81.7831 208.498 81.7284C208.473 81.6736 208.438 81.6244 208.394 81.5839C208.35 81.5435 208.298 81.5125 208.242 81.4932C208.185 81.4738 208.125 81.4664 208.066 81.4714V81.4714Z" fill="#88D1C3"/>
    <path d="M71.0113 85.8185C71.215 85.8185 71.3801 85.6535 71.3801 85.4498C71.3801 85.2461 71.215 85.0811 71.0113 85.0811C70.8077 85.0811 70.6426 85.2461 70.6426 85.4498C70.6426 85.6535 70.8077 85.8185 71.0113 85.8185Z" fill="#88D1C3"/>
    <path d="M18.5323 164.871C18.736 164.871 18.9011 164.706 18.9011 164.503C18.9011 164.299 18.736 164.134 18.5323 164.134C18.3287 164.134 18.1636 164.299 18.1636 164.503C18.1636 164.706 18.3287 164.871 18.5323 164.871Z" fill="#88D1C3"/>
    <path d="M202.976 188.441C203.179 188.441 203.344 188.276 203.344 188.072C203.344 187.868 203.179 187.703 202.976 187.703C202.772 187.703 202.607 187.868 202.607 188.072C202.607 188.276 202.772 188.441 202.976 188.441Z" fill="#88D1C3"/>
    <path d="M50.4402 73.689C51.0512 73.689 51.5464 73.1937 51.5464 72.5828C51.5464 71.9718 51.0512 71.4766 50.4402 71.4766C49.8293 71.4766 49.334 71.9718 49.334 72.5828C49.334 73.1937 49.8293 73.689 50.4402 73.689Z" fill="#88D1C3"/>
    <path d="M91.0594 45.7916C91.7321 45.7916 92.2774 45.2462 92.2774 44.5735C92.2774 43.9008 91.7321 43.3555 91.0594 43.3555C90.3867 43.3555 89.8413 43.9008 89.8413 44.5735C89.8413 45.2462 90.3867 45.7916 91.0594 45.7916Z" fill="#88D1C3"/>
    <path d="M128.647 60.9792C129.093 60.9792 129.454 60.6179 129.454 60.1722C129.454 59.7265 129.093 59.3652 128.647 59.3652C128.201 59.3652 127.84 59.7265 127.84 60.1722C127.84 60.6179 128.201 60.9792 128.647 60.9792Z" fill="#88D1C3"/>
    <path d="M23.8337 49.8569C24.2861 49.8569 24.6528 49.4902 24.6528 49.0378C24.6528 48.5855 24.2861 48.2188 23.8337 48.2188C23.3814 48.2188 23.0146 48.5855 23.0146 49.0378C23.0146 49.4902 23.3814 49.8569 23.8337 49.8569Z" fill="#88D1C3"/>
    <path d="M10.8279 73.689C11.4389 73.689 11.9341 73.1937 11.9341 72.5828C11.9341 71.9718 11.4389 71.4766 10.8279 71.4766C10.217 71.4766 9.72168 71.9718 9.72168 72.5828C9.72168 73.1937 10.217 73.689 10.8279 73.689Z" fill="#88D1C3"/>
    <path d="M45.68 120.213C46.1507 120.213 46.5323 119.832 46.5323 119.361C46.5323 118.89 46.1507 118.509 45.68 118.509C45.2092 118.509 44.8276 118.89 44.8276 119.361C44.8276 119.832 45.2092 120.213 45.68 120.213Z" fill="#88D1C3"/>
    <path d="M62.34 146.331C62.8875 146.331 63.3314 145.888 63.3314 145.34C63.3314 144.792 62.8875 144.349 62.34 144.349C61.7925 144.349 61.3486 144.792 61.3486 145.34C61.3486 145.888 61.7925 146.331 62.34 146.331Z" fill="#88D1C3"/>
    <path d="M101.956 144.814C102.503 144.814 102.947 144.37 102.947 143.822C102.947 143.275 102.503 142.831 101.956 142.831C101.408 142.831 100.964 143.275 100.964 143.822C100.964 144.37 101.408 144.814 101.956 144.814Z" fill="#88D1C3"/>
    <path d="M168.054 133.476C168.57 133.476 168.988 133.058 168.988 132.542C168.988 132.027 168.57 131.608 168.054 131.608C167.538 131.608 167.12 132.027 167.12 132.542C167.12 133.058 167.538 133.476 168.054 133.476Z" fill="#88D1C3"/>
    <path d="M180.304 100.299C180.793 100.299 181.19 99.902 181.19 99.4129C181.19 98.9238 180.793 98.5273 180.304 98.5273C179.815 98.5273 179.418 98.9238 179.418 99.4129C179.418 99.902 179.815 100.299 180.304 100.299Z" fill="#88D1C3"/>
    <path d="M219.21 102.387C219.782 102.387 220.246 101.923 220.246 101.35C220.246 100.778 219.782 100.313 219.21 100.313C218.637 100.313 218.173 100.778 218.173 101.35C218.173 101.923 218.637 102.387 219.21 102.387Z" fill="#88D1C3"/>
    <path d="M232.375 62.125C233.008 62.125 233.521 61.6122 233.521 60.9795C233.521 60.3469 233.008 59.834 232.375 59.834C231.743 59.834 231.23 60.3469 231.23 60.9795C231.23 61.6122 231.743 62.125 232.375 62.125Z" fill="#88D1C3"/>
    <path d="M245.278 112.879C245.872 112.879 246.354 112.397 246.354 111.803C246.354 111.208 245.872 110.727 245.278 110.727C244.684 110.727 244.202 111.208 244.202 111.803C244.202 112.397 244.684 112.879 245.278 112.879Z" fill="#88D1C3"/>
    <path d="M197.786 157.294C198.327 157.294 198.765 156.855 198.765 156.314C198.765 155.773 198.327 155.335 197.786 155.335C197.245 155.335 196.807 155.773 196.807 156.314C196.807 156.855 197.245 157.294 197.786 157.294Z" fill="#88D1C3"/>
    <path d="M150.182 167.7C150.569 167.7 150.883 167.386 150.883 166.999C150.883 166.612 150.569 166.298 150.182 166.298C149.795 166.298 149.481 166.612 149.481 166.999C149.481 167.386 149.795 167.7 150.182 167.7Z" fill="#88D1C3"/>
    <path d="M102.645 172.351C103.274 172.351 103.784 171.841 103.784 171.212C103.784 170.582 103.274 170.072 102.645 170.072C102.016 170.072 101.505 170.582 101.505 171.212C101.505 171.841 102.016 172.351 102.645 172.351Z" fill="#88D1C3"/>
    <path d="M148.538 31.5252C148.835 31.5252 149.076 31.2843 149.076 30.9872C149.076 30.6901 148.835 30.4492 148.538 30.4492C148.241 30.4492 148 30.6901 148 30.9872C148 31.2843 148.241 31.5252 148.538 31.5252Z" fill="#88D1C3"/>
    <path d="M212.067 161.298C207.804 166.631 203.001 171.509 197.735 175.854C178.055 192.145 152.413 201.119 125.531 201.119C98.649 201.119 73.0033 192.145 53.3239 175.854C44.3671 168.502 36.8107 159.594 31.0181 149.559" stroke="#7996C9" stroke-width="4" stroke-miterlimit="10" stroke-linecap="round"/>
    <path d="M218.614 60.1729C219.878 62.2301 221.059 64.3358 222.16 66.4898C230.779 83.2068 233.711 102.279 230.511 120.813" stroke="#7996C9" stroke-width="4" stroke-miterlimit="10" stroke-linecap="round"/>
    <path d="M62.2705 29.6571C80.4839 17.5974 102.554 11.0295 125.531 11.0295C140.073 10.9997 154.493 13.6779 168.054 18.9273" stroke="#7996C9" stroke-width="4" stroke-miterlimit="10" stroke-linecap="round"/>
    <path d="M21.9414 84.8302C23.5686 78.477 25.9003 72.3254 28.8931 66.4898C32.155 60.1073 36.1439 54.1234 40.7805 48.6572" stroke="#7996C9" stroke-width="4" stroke-miterlimit="10" stroke-linecap="round"/>
    <g clip-path="url(#clip0_1869_5729)">
        <path d="M139.412 146.397C140.807 145.828 141.187 143.528 140.261 141.259C139.335 138.99 137.454 137.612 136.06 138.182C134.665 138.751 134.285 141.051 135.211 143.32C136.137 145.588 138.018 146.966 139.412 146.397Z" fill="#4F457C"/>
        <path d="M92.5529 101.035L91.9644 99.8342L94.3483 95.1758H96.4276L97.8976 93.3479L95.8686 91.2952L97.2084 89.7424L103.55 84.4806L105.718 83.2738L105.259 79.547L105.993 78.7603L108.906 80.8189L111.894 79.8783L113.979 79.4849L114.201 80.2806L116.197 79.8783L115.762 76.258L119.968 75.4121L120.303 78.6508L125.017 78.7041L124.795 75.838H128.244L127.848 78.1066L129.232 78.4823V79.8783L132.06 80.5911L138.111 83.2738L140.877 81.2152L142.929 82.5876L141.82 85.4537L146.647 86.273L147.1 87.0242L146.422 88.9645L148.363 91.4638L149.862 90.4611L151.838 93.0699L149.25 96.4447L153.772 98.8463L154.645 100.722L153.521 103.759L92.5529 101.035Z" fill="#4F457C"/>
        <path d="M133.817 145.188C135.287 144.858 136.186 143.288 135.825 141.681C135.465 140.075 133.981 139.04 132.511 139.37C131.042 139.699 130.143 141.269 130.503 142.876C130.864 144.482 132.348 145.517 133.817 145.188Z" fill="#4F457C"/>
        <path d="M107.419 141.429L106.827 142.509L107.824 143.224L112.441 145.043L113.772 145.567L114.148 144.703L114.727 145.043L114.355 146.862L116.446 147.398L118.306 145.665L119.72 145.925V147.398H120.593V145.925H122.423H124.213L124.503 145.191L130.315 144.387L131.282 145.191L134.485 144.413L135.526 145.925L137.481 145.268L139.685 142.278L140.267 142.884L141.593 142.278L139.975 139.406L141.888 138.143L145.328 137.102L146.505 135.895L148.543 137.602L149.543 136.726L148.055 135.564V134.399L150.132 131.328L150.939 130.199L152.057 130.731L153.412 129.196L151.122 127.986L152.409 127.661L152.581 125.33L107.419 141.429Z" fill="#4F457C"/>
        <path d="M91.9225 93.4299L91.7287 93.7467C91.2224 94.5743 91.4829 95.6555 92.3104 96.1618L97.6579 99.4332C98.4854 99.9394 99.5667 99.679 100.073 98.8514L100.267 98.5347C100.773 97.7071 100.513 96.6259 99.685 96.1196L94.3375 92.8482C93.51 92.342 92.4287 92.6024 91.9225 93.4299Z" fill="#4F457C"/>
        <path d="M100.018 86.3353C99.8375 86.4993 99.599 86.5847 99.3552 86.5728C99.1114 86.5608 98.8824 86.4526 98.7184 86.2717C98.5545 86.0909 98.4691 85.8524 98.481 85.6086C98.4929 85.3648 98.6012 85.1358 98.782 84.9718L101.74 82.2891C101.369 81.9457 100.974 81.6303 100.557 81.3456L97.7734 83.8715C97.6851 83.9582 97.5801 84.0261 97.4649 84.0713C97.3497 84.1164 97.2266 84.1378 97.1029 84.1343C96.9792 84.1307 96.8575 84.1022 96.7451 84.0505C96.6326 83.9988 96.5318 83.925 96.4486 83.8334C96.3654 83.7418 96.3015 83.6344 96.2607 83.5175C96.22 83.4007 96.2033 83.2768 96.2115 83.1534C96.2198 83.0299 96.2529 82.9094 96.3088 82.799C96.3648 82.6886 96.4424 82.5906 96.5371 82.511L98.853 80.408C96.9186 79.6094 95.0079 79.6863 93.7538 80.8103C91.7278 82.65 92.3045 86.5838 95.0405 89.6007C97.7764 92.6176 101.639 93.57 103.665 91.7332C105.538 90.0325 105.186 86.5483 102.964 83.6497L100.018 86.3353Z" fill="#4F457C"/>
        <path d="M150.33 77.2522L149.404 76.5039L137.52 86.8797L140.992 88.7874L143.58 91.7836L151.252 78.0005L150.33 77.2522Z" fill="#4F457C"/>
        <path d="M147.1 72.8003C147.127 72.7618 147.153 72.7234 147.183 72.6879C147.61 72.1087 148.15 71.622 148.77 71.2572C149.39 70.8925 150.078 70.6572 150.792 70.5657C151.505 70.4742 152.23 70.5283 152.922 70.7247C153.614 70.9212 154.26 71.2559 154.819 71.7087C155.378 72.1614 155.84 72.7229 156.176 73.3591C156.512 73.9952 156.716 74.693 156.775 75.4101C156.834 76.1272 156.747 76.8488 156.519 77.5314C156.291 78.2139 155.928 78.8432 155.45 79.3813C155.42 79.4168 155.385 79.4493 155.355 79.4848L147.1 72.8003Z" fill="#4F457C"/>
        <path d="M157.218 80.0801L146.135 71.1084C145.583 70.6613 144.773 70.7466 144.326 71.2989C143.879 71.8512 143.964 72.6613 144.516 73.1084L155.599 82.0801C156.152 82.5272 156.962 82.4419 157.409 81.8896C157.856 81.3373 157.771 80.5272 157.218 80.0801Z" fill="#4F457C"/>
        <path d="M123.488 62.7617H122.299H121.11L118.401 83.2737L122.299 82.3479L126.197 83.2737L123.488 62.7617Z" fill="#4F457C"/>
        <path d="M122.299 65.6011C125.071 65.6011 127.318 63.3539 127.318 60.5818C127.318 57.8097 125.071 55.5625 122.299 55.5625C119.527 55.5625 117.28 57.8097 117.28 60.5818C117.28 63.3539 119.527 65.6011 122.299 65.6011Z" fill="#4F457C"/>
        <path d="M129.963 59.6592H114.639C114.127 59.6592 113.713 60.073 113.713 60.5835C113.713 61.0939 114.127 61.5078 114.639 61.5078H129.963C130.474 61.5078 130.889 61.0939 130.889 60.5835C130.889 60.073 130.474 59.6592 129.963 59.6592Z" fill="#4F457C"/>
        <path d="M123.092 50.9375H121.506V61.5085H123.092V50.9375Z" fill="#4F457C"/>
        <path d="M122.299 51.9452C123.376 51.9452 124.248 51.0725 124.248 49.996C124.248 48.9195 123.376 48.0469 122.299 48.0469C121.223 48.0469 120.35 48.9195 120.35 49.996C120.35 51.0725 121.223 51.9452 122.299 51.9452Z" fill="#4F457C"/>
        <path d="M136.473 70.4785L139.324 62.9155C139.356 62.8305 139.412 62.7565 139.486 62.7025C139.559 62.6486 139.646 62.6169 139.737 62.6113C139.828 62.6056 139.918 62.6263 139.998 62.6709C140.077 62.7154 140.142 62.7818 140.185 62.8623L140.862 64.143C140.967 64.3427 141.029 64.5626 141.043 64.788C141.057 65.0135 141.022 65.2393 140.942 65.4503L137.171 75.4771L140.019 78.2781L136.041 85.8588L133.269 85.0602L133.651 84.0043L130.205 82.0699L133.864 71.9574C133.948 71.7269 134.083 71.5188 134.26 71.349C134.437 71.1793 134.65 71.0525 134.884 70.9784L136.473 70.4785Z" fill="#4F457C"/>
        <path d="M113.399 82.1825L108.631 67.166L106.428 67.864C106.428 67.864 109.309 77.4738 108.347 83.7856L113.399 82.1825Z" fill="#4F457C"/>
        <path d="M111.592 66.3938L105.112 68.4909C104.861 68.5699 104.589 68.5464 104.356 68.4256C104.123 68.3047 103.947 68.0964 103.866 67.8461V67.8461C103.788 67.5959 103.812 67.3249 103.933 67.0922C104.054 66.8595 104.262 66.684 104.511 66.6038L110.992 64.5068C111.242 64.4279 111.513 64.4515 111.746 64.5723C111.979 64.6932 112.154 64.9015 112.234 65.1516V65.1516C112.313 65.4014 112.29 65.6724 112.169 65.9052C112.049 66.1381 111.842 66.3137 111.592 66.3938V66.3938Z" fill="#4F457C"/>
        <path d="M113.535 69.2427C113.454 68.9929 113.278 68.7851 113.045 68.6644C112.812 68.5436 112.541 68.5198 112.29 68.598L107.306 70.2129C107.763 70.7228 108.125 71.3109 108.374 71.9491L112.89 70.4791C113.139 70.3989 113.345 70.2243 113.466 69.993C113.587 69.7617 113.611 69.4922 113.535 69.2427V69.2427Z" fill="#4F457C"/>
        <path d="M114.834 73.3362C114.754 73.0861 114.579 72.8778 114.346 72.7569C114.113 72.636 113.842 72.6125 113.591 72.6914L108.906 74.2057C109.019 74.8624 109.125 75.5367 109.202 76.1963L114.183 74.5814C114.434 74.5025 114.644 74.327 114.766 74.0935C114.888 73.86 114.912 73.5876 114.834 73.3362V73.3362Z" fill="#4F457C"/>
        <path d="M129.256 69.9997L129.254 69.9992C128.896 69.9392 128.557 70.1806 128.497 70.5382L126.697 81.2757C126.637 81.6334 126.878 81.9719 127.236 82.0319L127.239 82.0324C127.596 82.0924 127.935 81.8511 127.995 81.4934L129.795 70.7559C129.855 70.3982 129.614 70.0597 129.256 69.9997Z" fill="#4F457C"/>
        <path d="M142.192 74.1602L142.189 74.1588C141.869 73.9891 141.471 74.1114 141.302 74.4319L136.207 84.0538C136.037 84.3743 136.16 84.7717 136.48 84.9414L136.483 84.9428C136.803 85.1125 137.201 84.9902 137.37 84.6697L142.465 75.0478C142.635 74.7273 142.512 74.3299 142.192 74.1602Z" fill="#4F457C"/>
        <path d="M118.584 82.014C118.412 82.0341 118.238 81.9851 118.101 81.8776C117.964 81.7701 117.875 81.6129 117.854 81.4402L115.766 68.6539C115.746 68.4807 115.795 68.3066 115.902 68.1693C116.009 68.032 116.167 67.9426 116.339 67.9204V67.9204C116.513 67.9003 116.688 67.9497 116.825 68.0577C116.962 68.1658 117.051 68.3237 117.073 68.4972L119.158 81.2835C119.169 81.3691 119.162 81.456 119.139 81.5391C119.115 81.6221 119.076 81.6998 119.023 81.7677C118.969 81.8355 118.903 81.8922 118.828 81.9345C118.753 81.9767 118.67 82.0038 118.584 82.014V82.014Z" fill="#4F457C"/>
        <path d="M102.481 74.3299C102.253 73.9811 101.786 73.8828 101.437 74.1104C101.088 74.338 100.99 74.8053 101.217 75.1541L108.039 85.6104C108.266 85.9593 108.734 86.0576 109.083 85.83C109.431 85.6024 109.53 85.135 109.302 84.7862L102.481 74.3299Z" fill="#4F457C"/>
        <path d="M103.514 78.0866C103.169 77.6088 102.501 77.5015 102.023 77.847C101.546 78.1925 101.438 78.86 101.784 79.3379L112.148 93.6708C112.493 94.1487 113.161 94.2559 113.639 93.9104C114.116 93.5649 114.224 92.8974 113.878 92.4195L103.514 78.0866Z" fill="#4F457C"/>
        <path d="M146.144 91.2627C146.051 91.1444 146.007 90.995 146.02 90.8449C146.033 90.6949 146.103 90.5555 146.215 90.4553L152.042 85.5868C152.099 85.5384 152.166 85.5018 152.237 85.4791C152.309 85.4563 152.384 85.4479 152.458 85.4542C152.533 85.4605 152.606 85.4815 152.673 85.5159C152.739 85.5503 152.798 85.5975 152.847 85.6548V85.6548C152.944 85.771 152.992 85.9213 152.98 86.0726C152.967 86.224 152.895 86.3641 152.779 86.4623L146.952 91.3308C146.836 91.4286 146.685 91.4764 146.534 91.4636C146.383 91.4509 146.243 91.3786 146.144 91.2627V91.2627Z" fill="#4F457C"/>
        <path d="M152.832 87.3791C153.833 87.3791 154.645 86.5674 154.645 85.566C154.645 84.5647 153.833 83.7529 152.832 83.7529C151.831 83.7529 151.019 84.5647 151.019 85.566C151.019 86.5674 151.831 87.3791 152.832 87.3791Z" fill="#4F457C"/>
        <path d="M151.581 99.5266C153.719 99.5266 155.452 97.7932 155.452 95.6549C155.452 93.5166 153.719 91.7832 151.581 91.7832C149.442 91.7832 147.709 93.5166 147.709 95.6549C147.709 97.7932 149.442 99.5266 151.581 99.5266Z" fill="#4F457C"/>
        <path d="M122.76 145.269C140.706 145.269 155.254 130.721 155.254 112.775C155.254 94.8292 140.706 80.2812 122.76 80.2812C104.815 80.2812 90.2666 94.8292 90.2666 112.775C90.2666 130.721 104.815 145.269 122.76 145.269Z" fill="#4F457C"/>
        <path d="M122.761 141.852C138.82 141.852 151.838 128.834 151.838 112.775C151.838 96.7158 138.82 83.6973 122.761 83.6973C106.702 83.6973 93.6831 96.7158 93.6831 112.775C93.6831 128.834 106.702 141.852 122.761 141.852Z" fill="#4F457C"/>
        <path d="M116.937 141.296C124.213 142.509 124.234 138.912 122.965 137.995C121.14 136.679 117.842 137.161 118.073 134.804C118.303 132.446 123.63 132.937 123.962 129.184C124.293 125.431 120.56 125.874 121.471 123.121C122.382 120.367 122.654 116.232 119.528 113.558C116.402 110.884 113.562 113.262 109.486 114.354C104.863 115.599 101.835 114.298 100.749 111.905C99.7228 109.645 101.282 107.572 100.711 104.848C100.14 102.124 94.7952 104.694 97.6139 98.1602C95.2982 102.151 93.9651 106.636 93.725 111.245C93.4848 115.853 94.3444 120.452 96.2328 124.663C98.1211 128.873 100.984 132.574 104.585 135.459C108.186 138.345 112.422 140.332 116.943 141.257" fill="#88D1C3"/>
        <path d="M144.278 134.653L142.864 136.463L140.785 137.442L149.336 145.665L149.868 145.239L150.401 144.813L144.278 134.653Z" fill="#4F457C"/>
        <path d="M152.409 143.811L152.382 143.772C151.906 143.176 151.212 142.793 150.454 142.707C149.695 142.622 148.934 142.842 148.338 143.318C147.741 143.794 147.358 144.488 147.273 145.246C147.188 146.005 147.407 146.766 147.884 147.363C147.893 147.375 147.903 147.387 147.913 147.398L152.409 143.811Z" fill="#4F457C"/>
        <path d="M147.721 148.426L154.575 142.978C154.803 142.796 154.841 142.465 154.66 142.236L154.658 142.234C154.476 142.006 154.145 141.968 153.916 142.149L147.062 147.598C146.834 147.779 146.796 148.111 146.978 148.339L146.979 148.341C147.161 148.569 147.493 148.607 147.721 148.426Z" fill="#4F457C"/>
        <path d="M151.366 147.845L152.076 147.278L148.295 142.542L147.585 143.108L151.366 147.845Z" fill="#4F457C"/>
        <path d="M152.057 149.098C152.674 149.098 153.175 148.598 153.175 147.98C153.175 147.363 152.674 146.862 152.057 146.862C151.44 146.862 150.939 147.363 150.939 147.98C150.939 148.598 151.44 149.098 152.057 149.098Z" fill="#4F457C"/>
        <path d="M152.87 138.714L156.245 133.928C156.352 133.785 156.406 133.609 156.397 133.431C156.389 133.253 156.32 133.082 156.201 132.949C156.124 132.868 156.03 132.805 155.925 132.764C155.821 132.723 155.709 132.706 155.597 132.714C155.485 132.722 155.377 132.755 155.279 132.81C155.181 132.865 155.097 132.941 155.033 133.032L154.494 133.795C154.404 133.924 154.287 134.033 154.152 134.114C154.016 134.195 153.866 134.247 153.709 134.265C153.552 134.284 153.394 134.269 153.243 134.223C153.092 134.176 152.953 134.098 152.835 133.993L148.934 130.574L148.31 131.893L147.277 132.92L151.809 135.449C151.946 135.525 152.066 135.63 152.16 135.757C152.255 135.883 152.322 136.027 152.356 136.181C152.391 136.335 152.393 136.494 152.363 136.649C152.332 136.803 152.269 136.95 152.178 137.078L151.658 137.815C151.552 137.959 151.499 138.134 151.508 138.313C151.516 138.491 151.586 138.661 151.705 138.794C151.782 138.875 151.875 138.939 151.979 138.98C152.083 139.021 152.195 139.038 152.307 139.03C152.418 139.023 152.527 138.99 152.624 138.936C152.722 138.881 152.806 138.805 152.87 138.714V138.714Z" fill="#4F457C"/>
        <path d="M154.456 128.075L150.194 126.197C149.899 126.734 149.528 127.225 149.093 127.655L153.74 129.702C153.956 129.797 154.2 129.802 154.42 129.717C154.64 129.632 154.816 129.462 154.911 129.247C155.006 129.031 155.011 128.786 154.926 128.567C154.841 128.347 154.671 128.17 154.456 128.075V128.075Z" fill="#4F457C"/>
        <path d="M148.555 134.653C150.061 134.653 151.282 133.432 151.282 131.926C151.282 130.42 150.061 129.199 148.555 129.199C147.049 129.199 145.828 130.42 145.828 131.926C145.828 133.432 147.049 134.653 148.555 134.653Z" fill="#4F457C"/>
        <path d="M122.134 142.568C121.782 142.567 121.43 142.538 121.083 142.479L121.157 148.07C121.159 148.175 121.181 148.279 121.222 148.376C121.264 148.472 121.324 148.56 121.4 148.633C121.475 148.707 121.564 148.765 121.662 148.804C121.76 148.843 121.864 148.862 121.969 148.861C122.075 148.859 122.179 148.837 122.275 148.796C122.372 148.754 122.46 148.694 122.533 148.619C122.607 148.543 122.664 148.454 122.703 148.356C122.743 148.259 122.762 148.154 122.761 148.049L122.687 142.539C122.503 142.556 122.317 142.568 122.134 142.568Z" fill="#4F457C"/>
        <path d="M105.278 142.221L105.28 142.222C105.458 142.326 105.686 142.266 105.79 142.088L107.365 139.388C107.468 139.21 107.408 138.982 107.231 138.878L107.228 138.876C107.05 138.773 106.822 138.833 106.718 139.011L105.143 141.711C105.04 141.889 105.1 142.117 105.278 142.221Z" fill="#4F457C"/>
        <path d="M153.9 124.286L150.892 123.499C150.894 124.031 150.818 124.56 150.667 125.07L153.518 125.815C153.721 125.866 153.936 125.834 154.115 125.726C154.294 125.618 154.423 125.444 154.474 125.241C154.524 125.038 154.492 124.824 154.385 124.645C154.277 124.465 154.103 124.336 153.9 124.286V124.286Z" fill="#4F457C"/>
        <path d="M115.609 152.356C115.58 152.571 115.73 152.769 115.944 152.799C116.159 152.828 116.356 152.677 116.386 152.462L117.265 146.029C117.294 145.814 117.144 145.616 116.93 145.587C116.715 145.557 116.517 145.708 116.488 145.923L115.609 152.356Z" fill="#4F457C"/>
        <path d="M115.615 150.912L116.772 151.07C117.432 151.16 118.041 150.698 118.131 150.038L119.118 142.817C119.208 142.157 118.746 141.548 118.085 141.458L116.928 141.3C116.268 141.21 115.659 141.672 115.569 142.332L114.582 149.553C114.492 150.213 114.954 150.822 115.615 150.912Z" fill="#4F457C"/>
        <path d="M108.07 145.356L111.253 146.692C111.92 146.972 112.688 146.658 112.968 145.991L114.304 142.808C114.584 142.141 114.27 141.373 113.603 141.093L110.42 139.757C109.753 139.477 108.985 139.791 108.705 140.458L107.369 143.641C107.089 144.308 107.403 145.076 108.07 145.356Z" fill="#4F457C"/>
        <path d="M122.761 83.6973C120.691 83.6973 118.627 83.9164 116.603 84.3509C115.455 84.5822 114.327 84.8996 113.228 85.3004C112.406 85.5961 111.595 85.8919 110.805 86.2616C107.83 87.7997 114.443 85.1702 115.763 91.7837C116.753 96.7557 121.022 95.6554 123.982 93.6235C126.881 91.6329 128.898 91.4643 129.868 93.2892C131.016 95.4484 130.909 96.4718 133.793 97.8885C137.52 99.7253 133.737 100.417 132.447 102.94C128.783 110.11 141.306 113.461 140.85 103.993C140.481 96.3239 145.716 96.3535 147.884 98.1252C145.324 93.7333 141.656 90.0897 137.248 87.558C132.84 85.0263 127.844 83.6951 122.761 83.6973V83.6973Z" fill="#88D1C3"/>
        <path d="M143.763 139.605L141.654 140.557L139.421 138.907L142.991 136.919L143.763 139.605Z" fill="#4F457C"/>
        <path d="M80.8551 130.575C83.6501 130.575 85.9158 128.309 85.9158 125.514C85.9158 122.719 83.6501 120.453 80.8551 120.453C78.0602 120.453 75.7944 122.719 75.7944 125.514C75.7944 128.309 78.0602 130.575 80.8551 130.575Z" fill="#4F457C"/>
        <path d="M162.755 91.0088C163.239 91.0088 163.631 90.6168 163.631 90.1333C163.631 89.6498 163.239 89.2578 162.755 89.2578C162.272 89.2578 161.88 89.6498 161.88 90.1333C161.88 90.6168 162.272 91.0088 162.755 91.0088Z" fill="#88D1C3"/>
        <path d="M80.8551 111.305C81.7421 111.305 82.4611 110.586 82.4611 109.699C82.4611 108.812 81.7421 108.093 80.8551 108.093C79.9681 108.093 79.249 108.812 79.249 109.699C79.249 110.586 79.9681 111.305 80.8551 111.305Z" fill="#88D1C3"/>
        <path d="M86.8655 94.0464C87.251 94.0464 87.5635 93.7339 87.5635 93.3484C87.5635 92.9629 87.251 92.6504 86.8655 92.6504C86.48 92.6504 86.1675 92.9629 86.1675 93.3484C86.1675 93.7339 86.48 94.0464 86.8655 94.0464Z" fill="#88D1C3"/>
        <path d="M162.755 73.7173C163.141 73.7173 163.453 73.4048 163.453 73.0193C163.453 72.6338 163.141 72.3213 162.755 72.3213C162.37 72.3213 162.057 72.6338 162.057 73.0193C162.057 73.4048 162.37 73.7173 162.755 73.7173Z" fill="#88D1C3"/>
        <path d="M97.2085 67.4053C97.9485 67.4053 98.5484 66.8054 98.5484 66.0654C98.5484 65.3255 97.9485 64.7256 97.2085 64.7256C96.4685 64.7256 95.8687 65.3255 95.8687 66.0654C95.8687 66.8054 96.4685 67.4053 97.2085 67.4053Z" fill="#88D1C3"/>
        <path d="M168.014 119.729C169.038 119.729 169.869 118.898 169.869 117.874C169.869 116.85 169.038 116.02 168.014 116.02C166.99 116.02 166.16 116.85 166.16 117.874C166.16 118.898 166.99 119.729 168.014 119.729Z" fill="#88D1C3"/>
        <path d="M150.132 64.1255C150.46 64.1255 150.726 63.8594 150.726 63.531C150.726 63.2027 150.46 62.9365 150.132 62.9365C149.803 62.9365 149.537 63.2027 149.537 63.531C149.537 63.8594 149.803 64.1255 150.132 64.1255Z" fill="#88D1C3"/>
        <path d="M99.5036 152.234C100.17 152.234 100.71 151.694 100.71 151.027C100.71 150.361 100.17 149.82 99.5036 149.82C98.8372 149.82 98.2969 150.361 98.2969 151.027C98.2969 151.694 98.8372 152.234 99.5036 152.234Z" fill="#88D1C3"/>
        <path d="M142.864 150.977C143.199 150.977 143.47 150.706 143.47 150.371C143.47 150.036 143.199 149.765 142.864 149.765C142.529 149.765 142.258 150.036 142.258 150.371C142.258 150.706 142.529 150.977 142.864 150.977Z" fill="#88D1C3"/>
        <path d="M141.986 129.776C143.02 128.675 144.449 128.03 145.958 127.98C146.473 127.965 146.974 127.813 147.411 127.538C147.847 127.264 148.202 126.879 148.44 126.422C151.929 119.841 152.769 112.175 150.785 104.996V104.996C150.158 103.023 147.718 103.41 147.277 106.155C146.836 108.9 146.863 111.257 145.52 112.449C144.177 113.641 141.592 111.813 139.96 113.57C138.898 114.715 138.744 117.12 139.421 119.125C140.099 121.13 141.415 126.676 133.166 131.113C126.969 134.437 126.99 142.056 135.866 138.738C137.109 138.109 138.304 137.391 139.442 136.587C139.88 136.284 140.229 135.869 140.453 135.385C140.676 134.902 140.766 134.367 140.714 133.837C140.635 133.109 140.708 132.372 140.926 131.674C141.145 130.975 141.506 130.329 141.986 129.776V129.776Z" fill="#88D1C3"/>
        <path d="M133.166 62.9366C133.594 62.9366 133.941 62.5896 133.941 62.1617C133.941 61.7337 133.594 61.3867 133.166 61.3867C132.738 61.3867 132.391 61.7337 132.391 62.1617C132.391 62.5896 132.738 62.9366 133.166 62.9366Z" fill="#88D1C3"/>
        <path d="M130.503 120.557C131.783 120.27 132.609 119.097 132.349 117.939C132.089 116.78 130.841 116.073 129.561 116.361C128.281 116.648 127.454 117.82 127.715 118.979C127.975 120.138 129.223 120.844 130.503 120.557Z" fill="#88D1C3"/>
        <path d="M88.8205 136.369C89.6846 136.369 90.3852 135.668 90.3852 134.804C90.3852 133.94 89.6846 133.239 88.8205 133.239C87.9564 133.239 87.2559 133.94 87.2559 134.804C87.2559 135.668 87.9564 136.369 88.8205 136.369Z" fill="#88D1C3"/>
        <path d="M110.415 151.403C110.65 151.403 110.841 151.212 110.841 150.977C110.841 150.741 110.65 150.551 110.415 150.551C110.18 150.551 109.989 150.741 109.989 150.977C109.989 151.212 110.18 151.403 110.415 151.403Z" fill="#88D1C3"/>
        <path opacity="0.3" d="M136.827 87.3379C141.625 95.8739 138.507 109.027 128.753 118.782C118.998 128.536 105.845 131.639 97.3237 126.842C99.5 130.792 102.565 134.181 106.277 136.743C109.988 139.304 114.245 140.967 118.71 141.601C123.175 142.234 127.726 141.82 132.004 140.392C136.282 138.964 140.169 136.56 143.357 133.372C146.546 130.183 148.95 126.296 150.378 122.018C151.806 117.741 152.22 113.189 151.587 108.724C150.953 104.259 149.29 100.003 146.729 96.2909C144.167 92.5792 140.777 89.5141 136.827 87.3379V87.3379Z" fill="#171735"/>
        <path d="M160.519 131.926C160.849 131.926 161.117 131.659 161.117 131.329C161.117 130.999 160.849 130.731 160.519 130.731C160.189 130.731 159.922 130.999 159.922 131.329C159.922 131.659 160.189 131.926 160.519 131.926Z" fill="#88D1C3"/>
        <path d="M173.672 83.3803C172.128 80.7184 165.588 80.2806 159.646 83.4099C167.227 82.3067 169.667 83.8979 170.445 85.2437C173.19 90.0027 158.88 107.11 129.332 124.168C99.7846 141.225 77.8174 145.061 75.0696 140.305C73.295 137.214 78.7047 128.909 90.8167 118.793C90.5456 117.339 90.3737 115.867 90.302 114.389C87.1555 116.893 84.1414 119.558 81.272 122.375C75.2234 128.377 68.678 136.682 71.8427 142.163C73.4458 144.94 76.9271 145.922 81.0384 145.919C85.0402 145.919 89.6395 144.993 93.6946 143.89C104.576 140.932 117.892 135.07 131.196 127.389C144.5 119.707 156.233 111.106 164.237 103.162C170.291 97.1664 176.837 88.861 173.672 83.3803Z" fill="#4F457C"/>
        <path d="M109.804 102.244C110.775 100.062 110.344 97.7505 108.84 97.0806C107.336 96.4106 105.328 97.6359 104.357 99.8175C103.385 101.999 103.816 104.311 105.321 104.981C106.825 105.651 108.832 104.425 109.804 102.244Z" fill="#88D1C3"/>
        <path d="M123.548 106.161C124.355 106.161 125.009 105.507 125.009 104.7C125.009 103.893 124.355 103.239 123.548 103.239C122.741 103.239 122.086 103.893 122.086 104.7C122.086 105.507 122.741 106.161 123.548 106.161Z" fill="#88D1C3"/>
        <path d="M130.054 148.9C130.281 148.9 130.465 148.716 130.465 148.489C130.465 148.262 130.281 148.078 130.054 148.078C129.827 148.078 129.643 148.262 129.643 148.489C129.643 148.716 129.827 148.9 130.054 148.9Z" fill="#88D1C3"/>
        <path d="M109.489 127.286C111.082 127.286 112.373 125.591 112.373 123.5C112.373 121.409 111.082 119.714 109.489 119.714C107.897 119.714 106.605 121.409 106.605 123.5C106.605 125.591 107.897 127.286 109.489 127.286Z" fill="#4F457C"/>
    </g>
    <defs>
        <clipPath id="clip0_1869_5729">
            <rect width="103.521" height="105" fill="white" transform="translate(71 48)"/>
        </clipPath>
    </defs>
</svg>
