<svg viewBox="0 0 892 170" fill="none" xmlns="http://www.w3.org/2000/svg">
    <path d="M33.0059 126.7C32.1996 125.087 28.4236 120.69 28.4236 120.69C26.791 120.966 25.6993 119.343 22.1487 121.552C22.1487 121.552 18.2074 120.946 16.4696 120.515C15.8987 123.064 17.4211 124.617 19.5645 124.446C21.7079 124.276 21.142 126.134 20.0153 126.134C17.5113 126.134 11.0009 126.179 8.66721 126.179C6.33351 126.179 4.88621 127.947 4.88621 130.186C4.88621 132.424 4.76101 140.983 4.88621 142.38C4.97635 143.382 7.24997 143.482 7.43526 142.625C7.76078 141.098 8.70227 137.227 8.70227 137.227C8.70227 137.227 9.32827 140.657 9.61373 142.29C9.79902 143.342 12.0075 143.146 12.0075 142.49C12.0075 141.053 12.1177 137.748 12.1177 137.748H20.4259C20.4259 137.748 21.0068 141.954 21.0669 143.176C21.127 144.398 23.6911 144.268 23.8413 143.176C24.0467 141.714 24.4173 135.86 24.9832 132.204C25.2085 130.746 26.12 130.236 26.9312 130.261C28.2383 130.291 28.1732 130.321 30.0312 130.261C31.8891 130.201 33.5117 127.712 33.0059 126.7ZM26.13 126.45C25.8763 126.605 25.5822 126.682 25.2849 126.67C24.9876 126.658 24.7005 126.558 24.4601 126.383C24.2196 126.207 24.0367 125.965 23.9343 125.685C23.832 125.406 23.8149 125.103 23.8853 124.813C23.9556 124.524 24.1102 124.263 24.3294 124.061C24.5487 123.86 24.8227 123.729 25.1168 123.684C25.4109 123.638 25.7117 123.682 25.9813 123.808C26.2508 123.934 26.4769 124.137 26.6308 124.391C26.8361 124.731 26.8987 125.138 26.8049 125.524C26.711 125.909 26.4684 126.242 26.13 126.45V126.45Z" fill="#88D1C3"/>
    <path d="M15.568 140.181C17.2164 140.181 18.5527 138.845 18.5527 137.197C18.5527 135.548 17.2164 134.212 15.568 134.212C13.9196 134.212 12.5833 135.548 12.5833 137.197C12.5833 138.845 13.9196 140.181 15.568 140.181Z" fill="#88D1C3"/>
    <path d="M26.5105 143.326C26.21 141.824 25.8594 135.684 25.7543 134.903C25.614 133.846 26.3352 133.215 27.3368 133.19C28.3383 133.165 29.0194 133.485 29.0445 134.447C29.0695 135.408 28.7139 142.535 28.734 143.131C28.754 143.727 26.6256 143.887 26.5105 143.326Z" fill="#88D1C3"/>
    <path d="M16.5174 140.489C16.5909 140.835 16.9313 141.056 17.2776 140.983C17.6239 140.909 17.845 140.569 17.7715 140.223L17.5842 139.341C17.5107 138.994 17.1703 138.773 16.824 138.847C16.4777 138.92 16.2566 139.261 16.3301 139.607L16.5174 140.489Z" fill="#88D1C3"/>
    <path d="M15.1426 139.602C15.2162 139.256 14.9951 138.916 14.6488 138.842C14.3025 138.769 13.9621 138.99 13.8886 139.336L13.7013 140.218C13.6278 140.564 13.8489 140.904 14.1952 140.978C14.5415 141.052 14.8818 140.83 14.9554 140.484L15.1426 139.602Z" fill="#88D1C3"/>
    <path d="M2.11174 134.512C2.28997 133.682 2.51571 132.863 2.78782 132.058C3.39879 130.23 4.98632 129.304 7.51033 129.304V128.002C3.5941 128.002 2.11175 130.005 1.55587 131.648C1.26648 132.503 1.02571 133.374 0.834717 134.257L2.11174 134.512Z" fill="#88D1C3"/>
    <path d="M1.8513 132.89C3.24851 133.926 2.99811 136.811 1.3505 137.197C-0.662692 136.606 -0.367223 133.265 1.8513 132.89Z" fill="#88D1C3"/>
    <path d="M21.1168 117C20.1953 118.102 19.7847 121.252 22.4039 122.103C25.023 122.954 31.8689 123.295 31.5935 118.152C30.5118 119.92 28.5887 120.481 26.2149 120.38C23.14 120.26 20.8614 118.723 21.1168 117Z" fill="#88D1C3"/>
    <path d="M245.773 31.8407C245.6 31.8407 245.435 31.7721 245.313 31.6501C245.191 31.528 245.122 31.3624 245.122 31.1897V27.594C245.136 27.4318 245.211 27.2809 245.331 27.1709C245.451 27.061 245.608 27 245.771 27C245.933 27 246.09 27.061 246.21 27.1709C246.33 27.2809 246.405 27.4318 246.419 27.594V31.1897C246.419 31.3615 246.351 31.5263 246.23 31.6483C246.109 31.7702 245.945 31.8394 245.773 31.8407V31.8407Z" fill="#88D1C3"/>
    <path d="M250.596 34.4603H248.372C248.2 34.4603 248.034 34.3917 247.912 34.2696C247.79 34.1475 247.721 33.9819 247.721 33.8092C247.721 33.6366 247.79 33.471 247.912 33.3489C248.034 33.2268 248.2 33.1582 248.372 33.1582H250.596C250.681 33.1582 250.766 33.175 250.845 33.2078C250.924 33.2405 250.996 33.2884 251.056 33.3489C251.117 33.4093 251.164 33.4811 251.197 33.5601C251.23 33.6391 251.247 33.7237 251.247 33.8092C251.247 33.8947 251.23 33.9794 251.197 34.0584C251.164 34.1374 251.117 34.2091 251.056 34.2696C250.996 34.33 250.924 34.378 250.845 34.4107C250.766 34.4434 250.681 34.4603 250.596 34.4603V34.4603Z" fill="#88D1C3"/>
    <path d="M245.773 40.6199C245.6 40.6199 245.435 40.5513 245.313 40.4292C245.191 40.3071 245.122 40.1415 245.122 39.9688V36.3731C245.114 36.2832 245.125 36.1925 245.154 36.107C245.183 36.0215 245.229 35.9429 245.29 35.8764C245.351 35.8098 245.426 35.7566 245.508 35.7202C245.591 35.6838 245.68 35.665 245.771 35.665C245.861 35.665 245.95 35.6838 246.033 35.7202C246.115 35.7566 246.19 35.8098 246.251 35.8764C246.312 35.9429 246.358 36.0215 246.387 36.107C246.416 36.1925 246.427 36.2832 246.419 36.3731V39.9688C246.419 40.1406 246.351 40.3055 246.23 40.4274C246.109 40.5494 245.945 40.6185 245.773 40.6199V40.6199Z" fill="#88D1C3"/>
    <path d="M243.189 34.4603H240.965C240.793 34.4603 240.627 34.3917 240.505 34.2696C240.383 34.1475 240.314 33.9819 240.314 33.8092C240.314 33.6366 240.383 33.471 240.505 33.3489C240.627 33.2268 240.793 33.1582 240.965 33.1582H243.189C243.362 33.1582 243.527 33.2268 243.649 33.3489C243.771 33.471 243.84 33.6366 243.84 33.8092C243.84 33.9819 243.771 34.1475 243.649 34.2696C243.527 34.3917 243.362 34.4603 243.189 34.4603V34.4603Z" fill="#88D1C3"/>
    <path d="M258.378 136.041C257.341 136.167 257.707 138.515 259.079 138.545C260.451 138.575 261.703 138.27 263.045 138.18C264.388 138.09 264.478 135.175 262.89 135.005C261.303 134.834 258.378 136.041 258.378 136.041Z" fill="#88D1C3"/>
    <path d="M291.987 137.448C290.92 136.868 287.289 134.975 285.917 133.177C288.356 131.043 288.175 126.957 285.216 126.286C284.119 127.718 284.575 128.79 286.192 129.18C286.097 131.254 283.688 133.056 280.824 133.087C277.959 133.117 272.591 132.385 272.811 128.755C273.662 129.881 276.682 130.037 277.263 128.054C277.263 128.054 273.848 127.202 272.716 126.286C273.194 126.199 273.639 125.985 274.006 125.667C274.373 125.349 274.648 124.938 274.801 124.477C274.955 124.016 274.982 123.523 274.879 123.048C274.777 122.573 274.548 122.135 274.218 121.779C272.751 124.092 271.259 125.009 269.095 124.858C266.932 124.708 264.853 122.48 265.219 120.557C262.66 122.264 264.398 125.344 264.793 125.65C264.793 125.65 261.623 127.357 260.461 128.119C259.3 128.88 259.61 131.564 261.623 132.33C263.03 132.833 264.477 133.21 265.95 133.457C266.355 134.519 266.43 135.678 266.165 136.782C265.71 138.55 263.161 141.139 262.475 142.056C262.029 142.667 263.476 144.585 264.092 144.314C264.708 144.044 269.811 140.433 269.811 140.433C269.811 140.433 274.474 143.057 282.496 141.835C282.496 141.835 285.697 144.705 286.583 145.341C287.469 145.977 289.663 144.7 289.022 143.969C288.381 143.238 286.948 141.465 286.948 141.465C286.948 141.465 287.449 139.912 287.009 138.751C287.009 138.751 289.663 139.667 290.699 140.003C291.736 140.338 293.053 138.024 291.987 137.448ZM267.743 131.043C267.429 131.044 267.121 130.952 266.86 130.778C266.598 130.604 266.394 130.357 266.273 130.067C266.152 129.777 266.12 129.457 266.18 129.149C266.241 128.841 266.392 128.558 266.614 128.335C266.835 128.112 267.118 127.961 267.426 127.899C267.734 127.837 268.054 127.869 268.344 127.989C268.635 128.109 268.883 128.312 269.058 128.573C269.232 128.834 269.325 129.142 269.325 129.456C269.325 129.876 269.159 130.279 268.862 130.577C268.566 130.874 268.163 131.042 267.743 131.043V131.043Z" fill="#88D1C3"/>
    <path d="M277.699 145.045C279.602 145.045 281.144 143.503 281.144 141.6C281.144 139.697 279.602 138.154 277.699 138.154C275.796 138.154 274.253 139.697 274.253 141.6C274.253 143.503 275.796 145.045 277.699 145.045Z" fill="#88D1C3"/>
    <path d="M276.585 143.457L276.58 143.455C276.215 143.284 275.779 143.441 275.608 143.807L274.974 145.158C274.803 145.523 274.96 145.959 275.325 146.13L275.33 146.132C275.696 146.304 276.131 146.146 276.303 145.781L276.936 144.43C277.108 144.064 276.95 143.629 276.585 143.457Z" fill="#88D1C3"/>
    <path d="M280.091 146.061L280.095 146.059C280.461 145.887 280.618 145.452 280.447 145.086L279.813 143.735C279.642 143.369 279.206 143.212 278.841 143.384L278.836 143.386C278.471 143.557 278.313 143.993 278.485 144.358L279.118 145.709C279.29 146.075 279.725 146.232 280.091 146.061Z" fill="#88D1C3"/>
    <path opacity="0.6" d="M267.332 70.6426L241.857 162.243H319.926L267.332 70.6426Z" fill="url(#paint0_linear_1829_67786)"/>
    <path d="M276.251 114.227L275.55 116.23C274.924 118.028 277.178 120.451 280.583 121.643C283.989 122.835 287.269 122.349 287.9 120.552L288.596 118.548L276.251 114.227Z" fill="#C6A35D"/>
    <path d="M288.603 118.558C289.233 116.759 286.979 114.334 283.57 113.14C280.161 111.947 276.886 112.438 276.257 114.236C275.627 116.035 277.881 118.461 281.29 119.654C284.7 120.847 287.974 120.356 288.603 118.558Z" fill="#F2CE7E"/>
    <path d="M267.332 108.692L268.93 110.074C270.367 111.326 273.437 110.125 275.821 107.395C278.205 104.666 278.941 101.446 277.503 100.199L275.906 98.8115L267.332 108.692Z" fill="#C6A35D"/>
    <path d="M274.221 105.995C276.589 103.267 277.341 100.043 275.902 98.7938C274.463 97.5449 271.377 98.744 269.009 101.472C266.642 104.2 265.889 107.425 267.329 108.674C268.768 109.923 271.854 108.723 274.221 105.995Z" fill="#F2CE7E"/>
    <path d="M261.693 154.841C260.627 156.589 257.186 156.409 253.961 154.446C250.736 152.482 249.028 149.478 250.1 147.735L251.212 145.917L262.8 153.028L261.693 154.841Z" fill="#C6A35D"/>
    <path d="M262.808 153.036C263.878 151.291 262.149 148.285 258.947 146.322C255.745 144.359 252.282 144.183 251.212 145.927C250.142 147.672 251.871 150.678 255.073 152.641C258.275 154.604 261.738 154.781 262.808 153.036Z" fill="#F2CE7E"/>
    <path d="M293.013 152.237C291.285 151.136 291.511 147.68 293.539 144.51C295.567 141.34 298.592 139.667 300.32 140.764L302.113 141.911L294.806 153.379L293.013 152.237Z" fill="#F2CE7E"/>
    <path d="M301.588 149.647C303.606 146.479 303.843 143.02 302.117 141.92C300.39 140.82 297.355 142.497 295.337 145.665C293.319 148.832 293.082 152.292 294.809 153.392C296.535 154.491 299.57 152.815 301.588 149.647Z" fill="#C6A35D"/>
    <path d="M244.406 78.6893L234.13 71.3827C238.522 67.762 246.679 62.9643 253.686 62.5938" fill="#88D1C3"/>
    <path d="M276.861 88.7082C288.717 81.8628 295.572 71.5387 292.172 65.6488C288.771 59.7588 276.403 60.5333 264.546 67.3787C252.689 74.2241 245.834 84.5482 249.235 90.4382C252.636 96.3281 265.004 95.5536 276.861 88.7082Z" fill="#7996C9"/>
    <path d="M231.676 88.8563C228.831 90.4989 225.781 95.1313 225 98.3314C228.16 99.2529 233.699 98.9273 236.518 97.2847C237.606 96.6241 238.391 95.5641 238.707 94.3315C239.022 93.0989 238.842 91.7919 238.206 90.6901C237.57 89.5884 236.527 88.7795 235.302 88.4368C234.077 88.0941 232.766 88.2446 231.651 88.8563H231.676Z" fill="#FF8080"/>
    <path d="M273.056 82.1105C284.913 75.2651 291.768 64.9411 288.367 59.0511C284.967 53.1611 272.598 53.9357 260.742 60.7811C248.885 67.6265 242.03 77.9505 245.431 83.8405C248.831 89.7305 261.2 88.9559 273.056 82.1105Z" fill="white"/>
    <path d="M269.026 80.4553C279.613 74.3428 286.134 65.8168 283.591 61.4119C281.047 57.007 270.403 58.3912 259.816 64.5037C249.229 70.6162 242.708 79.1422 245.251 83.5471C247.794 87.952 258.439 86.5677 269.026 80.4553Z" fill="#88D1C3"/>
    <path d="M285.366 71.7791L288.776 77.6835C288.776 77.6835 290.329 76.4615 290.875 75.3548C291.421 74.248 293.804 69.9061 292.037 66.7511C290.269 63.5961 289.533 62.6245 289.032 64.4174C288.531 66.2102 285.366 71.7791 285.366 71.7791Z" fill="white"/>
    <path d="M258.969 87.409C255.263 88.045 253.615 87.9098 251.262 87.3339C248.908 86.7579 249.173 87.6694 247.871 89.292C246.569 90.9145 242.863 103.379 242.863 103.379C242.863 103.379 247.871 103.88 253.495 100.615C259.119 97.3498 272.581 88.0149 272.435 84.9451C272.29 81.8752 271.178 84.269 267.578 85.2856C263.977 86.3022 258.969 87.409 258.969 87.409Z" fill="#88D1C3"/>
    <path d="M235.432 71.7089C241.301 68.5689 247.906 65.6342 251.667 66.4755C251.667 66.4755 253.641 62.97 252.994 62.6445C252.348 62.3189 238.762 67.9279 236.123 69.8509C233.483 71.774 235.432 71.7089 235.432 71.7089Z" fill="white"/>
    <path d="M250.41 77.6932C247.268 78.5048 244.218 79.6358 241.306 81.0685C239.042 82.2454 238.136 82.6961 238.261 83.7678C238.386 84.8395 241.051 91.1546 242.348 91.8807C243.645 92.6069 245.653 91.5502 246.354 89.8375C247.055 88.1247 247.06 87.2333 249.269 84.6592C251.477 82.0851 255.403 77.4077 250.41 77.6932Z" fill="#88D1C3"/>
    <path d="M238.967 85.0402C242.786 82.7689 246.924 81.0809 251.242 80.0322L249.84 82.7015L239.894 88.4456L238.967 85.0402Z" fill="white"/>
    <path d="M244.09 101.912C248.047 100.409 259.475 96.0073 266.771 86.4571C266.771 86.4571 271.829 83.0267 272.586 83.1018C273.342 83.1769 268.013 91.7956 260.526 96.0624C253.04 100.329 242.898 105.022 244.09 101.912Z" fill="white"/>
    <path d="M278.029 63.2603C281.976 70.0962 257.221 84.3889 253.275 77.553C251.421 74.2728 250.937 70.3929 251.928 66.7576C252.92 63.1223 255.307 60.0258 258.571 58.1416C261.834 56.2575 265.709 55.7382 269.353 56.6968C272.997 57.6554 276.116 60.0143 278.029 63.2603Z" fill="#88D1C3"/>
    <path d="M294.124 59.0138L289.258 61.8232L290.467 63.918L295.333 61.1086L294.124 59.0138Z" fill="#4F457C"/>
    <path d="M292.758 65.5083L288.872 58.7827C286.207 54.2755 279.076 53.0736 270.197 55.6377C267.088 54.666 263.751 54.7065 260.667 55.7532C257.582 56.7999 254.91 58.7988 253.035 61.4619C246.164 62.0478 238.446 66.4248 233.834 70.0906C233.635 70.2484 233.476 70.4506 233.369 70.6811C233.262 70.9115 233.21 71.1638 233.218 71.4177C233.225 71.6778 233.293 71.9326 233.415 72.162C233.538 72.3915 233.712 72.5893 233.924 72.7398L242.197 78.6242C240.872 79.2197 239.582 79.8884 238.331 80.6274C235.857 82.0547 237.415 87.328 239.333 90.6183C240.765 93.1222 242.393 94.88 243.935 95.7264L241.972 102.202C241.893 102.468 241.878 102.749 241.927 103.023C241.976 103.296 242.088 103.555 242.254 103.777C242.421 104 242.636 104.181 242.885 104.305C243.133 104.43 243.407 104.495 243.685 104.495C243.799 104.496 243.913 104.484 244.025 104.46C251.493 102.828 258.538 99.6537 264.708 95.1405V95.1655C269.04 94.0959 273.196 92.4093 277.048 90.1575C289.623 82.8309 296.529 72.0187 292.758 65.5083ZM286.838 60.0246C288.231 62.4385 287.555 65.934 284.935 69.8703C282.151 74.0569 277.554 78.1284 271.99 81.3435C263.762 86.0961 254.903 87.9691 249.689 86.2063L254.096 79.8762C255.095 80.343 256.19 80.5678 257.291 80.5322C260.732 80.5322 265.189 78.8896 269.225 76.5609C275.906 72.6998 281.545 66.9006 279.081 62.6338C277.803 60.4205 275.994 58.5601 273.818 57.2202C280.103 55.9932 285.056 56.9948 286.838 60.0246ZM259.134 59.0781C262.139 57.3433 265.711 56.8732 269.062 57.771C272.414 58.6688 275.272 60.8611 277.008 63.8657C277.834 65.293 276.507 67.3162 275.56 68.458C275.748 68.0278 275.836 67.5609 275.819 67.092C275.802 66.623 275.679 66.1639 275.46 65.7487C274.119 63.4232 272.048 61.6049 269.569 60.5753C267.089 59.5458 264.34 59.3624 261.746 60.0537C259.152 60.745 256.858 62.2724 255.22 64.3992C253.581 66.5261 252.69 69.1338 252.684 71.8184C252.408 69.3009 252.869 66.7575 254.009 64.4963C255.15 62.2351 256.921 60.3531 259.109 59.0781H259.134ZM236.173 71.3326C240.364 68.1626 246.274 65.0076 251.532 64.0711C251.117 64.9933 250.795 65.9545 250.571 66.9406C247.21 70.1708 244.867 73.5612 243.735 76.7312L236.173 71.3326ZM251.387 76.3656L250.851 76.4307C249.269 76.5675 247.7 76.8287 246.159 77.2119C247.135 74.8862 248.498 72.7426 250.19 70.8719C250.238 72.7598 250.635 74.6224 251.362 76.3656H251.387ZM241.767 89.8971C241.657 89.7118 241.541 89.5516 241.426 89.3563C239.463 85.9559 239.273 83.0963 239.558 82.6706C245.067 79.4806 248.147 79.1651 251.112 78.8345C251.387 78.8095 251.667 78.7644 251.943 78.7344L247.526 85.0394C247.061 85.7053 246.704 86.4405 246.469 87.2179L245.848 89.2611L244.191 90.2226C243.817 90.4741 243.363 90.5798 242.917 90.5199C242.47 90.4599 242.061 90.2383 241.767 89.8971V89.8971ZM244.596 101.821L248.603 88.3897C250.398 89.008 252.288 89.308 254.186 89.2761C259.194 89.2761 265.284 87.5985 271.269 84.4785C265.019 95.1004 251.011 100.349 244.571 101.821H244.596ZM269.135 91.2142C270.144 90.1843 271.08 89.0848 271.935 87.924L272.896 89.5866C271.604 90.1976 270.347 90.7385 269.095 91.2142H269.135ZM275.856 88.0091C275.355 88.2896 274.889 88.555 274.404 88.8154L272.991 86.3665C273.627 85.3598 274.189 84.3088 274.674 83.2215L277.028 87.293C276.597 87.5434 276.216 87.7787 275.821 88.0091H275.856ZM278.455 86.3815L275.816 81.8093C276.671 81.2417 277.505 80.6591 278.32 80.0615L280.944 84.6137C280.116 85.2314 279.273 85.8206 278.415 86.3815H278.455ZM282.266 83.542L279.607 79.0298C280.423 78.3738 281.209 77.7027 281.946 77.0267L284.54 81.5338C283.834 82.1799 283.042 82.8659 282.226 83.537L282.266 83.542ZM285.807 80.2318L283.233 75.7646C283.994 74.9834 284.695 74.1821 285.351 73.3759L287.89 77.7728C287.224 78.6277 286.515 79.4484 285.767 80.2318H285.807ZM288.962 76.2254L286.458 71.8935C286.623 71.6581 286.803 71.4278 286.959 71.1924C287.435 70.4715 287.869 69.7241 288.261 68.9538L290.624 73.0503C290.165 74.1698 289.595 75.2402 288.922 76.2454L288.962 76.2254ZM291.275 70.7817L289.112 67.0408C289.364 66.3637 289.567 65.6691 289.718 64.9625L290.72 66.6702C291.371 67.9443 291.553 69.4067 291.235 70.8018L291.275 70.7817Z" fill="#4F457C"/>
    <path d="M271.619 118.909C271.446 118.909 271.281 118.841 271.159 118.719C271.037 118.597 270.968 118.431 270.968 118.258V112.715C270.968 112.542 271.037 112.376 271.159 112.254C271.281 112.132 271.446 112.063 271.619 112.063C271.792 112.063 271.957 112.132 272.079 112.254C272.202 112.376 272.27 112.542 272.27 112.715V118.258C272.27 118.431 272.202 118.597 272.079 118.719C271.957 118.841 271.792 118.909 271.619 118.909V118.909Z" fill="#7996C9"/>
    <path d="M281.149 130.112C280.977 130.112 280.811 130.043 280.689 129.921C280.567 129.799 280.498 129.634 280.498 129.461V124.523C280.498 124.35 280.567 124.185 280.689 124.063C280.811 123.941 280.977 123.872 281.149 123.872C281.322 123.872 281.488 123.941 281.61 124.063C281.732 124.185 281.8 124.35 281.8 124.523V129.461C281.8 129.634 281.732 129.799 281.61 129.921C281.488 130.043 281.322 130.112 281.149 130.112V130.112Z" fill="#7996C9"/>
    <path d="M297.625 161.161C297.54 161.161 297.455 161.144 297.376 161.111C297.297 161.079 297.226 161.031 297.165 160.97C297.105 160.91 297.057 160.838 297.024 160.759C296.991 160.68 296.974 160.595 296.974 160.51V156.003C296.974 155.83 297.043 155.664 297.165 155.542C297.287 155.42 297.453 155.352 297.625 155.352C297.798 155.352 297.964 155.42 298.086 155.542C298.208 155.664 298.277 155.83 298.277 156.003V160.51C298.277 160.682 298.208 160.848 298.086 160.97C297.964 161.092 297.798 161.161 297.625 161.161Z" fill="#7996C9"/>
    <path d="M255.544 162.893C255.371 162.893 255.205 162.825 255.083 162.702C254.961 162.58 254.893 162.415 254.893 162.242V157.815C254.893 157.642 254.961 157.477 255.083 157.355C255.205 157.233 255.371 157.164 255.544 157.164C255.716 157.164 255.882 157.233 256.004 157.355C256.126 157.477 256.195 157.642 256.195 157.815V162.242C256.195 162.415 256.126 162.58 256.004 162.702C255.882 162.825 255.716 162.893 255.544 162.893V162.893Z" fill="#7996C9"/>
    <path d="M271.254 152.147C271.081 152.147 270.915 152.078 270.793 151.956C270.671 151.834 270.602 151.668 270.602 151.496V145.486C270.602 145.313 270.671 145.148 270.793 145.026C270.915 144.904 271.081 144.835 271.254 144.835C271.426 144.835 271.592 144.904 271.714 145.026C271.836 145.148 271.905 145.313 271.905 145.486V151.496C271.905 151.668 271.836 151.834 271.714 151.956C271.592 152.078 271.426 152.147 271.254 152.147Z" fill="#7996C9"/>
    <path d="M282.832 157.28C282.659 157.28 282.494 157.212 282.372 157.09C282.25 156.968 282.181 156.802 282.181 156.629V148.511C282.181 148.339 282.25 148.173 282.372 148.051C282.494 147.929 282.659 147.86 282.832 147.86C283.005 147.86 283.17 147.929 283.292 148.051C283.414 148.173 283.483 148.339 283.483 148.511V156.654C283.477 156.823 283.405 156.982 283.284 157.099C283.162 157.215 283 157.28 282.832 157.28V157.28Z" fill="#7996C9"/>
    <path d="M358.333 140.902V146.446C358.333 147.447 360.336 147.487 360.416 146.491C360.516 145.234 360.677 143.291 360.757 142.509C360.847 141.643 361.798 141.448 361.913 142.419C362.049 143.576 362.154 145.76 362.269 146.561C362.384 147.362 364.347 147.462 364.347 146.446V140.727L358.333 140.902Z" fill="#88D1C3"/>
    <path d="M353.565 143.731C355.225 143.731 356.57 142.386 356.57 140.726C356.57 139.067 355.225 137.722 353.565 137.722C351.906 137.722 350.56 139.067 350.56 140.726C350.56 142.386 351.906 143.731 353.565 143.731Z" fill="#88D1C3"/>
    <path d="M353.319 143.815C353.38 143.465 353.144 143.132 352.794 143.072C352.443 143.012 352.11 143.247 352.05 143.598L351.891 144.525C351.831 144.875 352.066 145.208 352.417 145.268C352.767 145.328 353.1 145.093 353.16 144.743L353.319 143.815Z" fill="#88D1C3"/>
    <path d="M354.657 144.147C354.717 144.496 355.049 144.73 355.398 144.67C355.746 144.609 355.98 144.278 355.92 143.929L355.761 143.006C355.701 142.657 355.369 142.423 355.02 142.483C354.672 142.544 354.437 142.875 354.498 143.224L354.657 144.147Z" fill="#88D1C3"/>
    <path d="M340.57 137.787L339.273 137.662C339.598 134.307 341.917 131.683 344.556 131.683V132.97C342.613 132.97 340.825 135.138 340.57 137.787Z" fill="#88D1C3"/>
    <path d="M339.994 137.191C337.65 137.382 337.314 140.787 339.298 141.573C339.763 141.468 340.187 141.225 340.514 140.877C340.84 140.528 341.055 140.09 341.13 139.618C341.205 139.146 341.137 138.663 340.934 138.23C340.732 137.798 340.404 137.436 339.994 137.191V137.191Z" fill="#88D1C3"/>
    <path d="M370.432 137.802L372.31 134.552C369.861 134.302 368.649 135.554 369.22 137.161C369.22 137.161 367.062 133.656 366.155 132.309C365.726 131.612 365.128 131.035 364.416 130.631C363.704 130.227 362.902 130.01 362.084 130H347.561C345.387 130 343.054 131.833 343.054 135.053V146.101C343.054 147.408 345.232 147.247 345.558 146.196C346.123 144.223 346.93 141.689 346.93 141.689C346.93 141.689 348.051 145.515 348.377 146.481C348.652 147.282 350.681 147.308 350.585 146.206C350.48 144.984 350.255 141.508 350.255 141.508H364.282C365.314 142.981 367.262 145.875 367.733 146.401C368.329 147.067 371.599 146.586 371.624 145.58C371.649 144.573 371.028 140.572 371.028 140.572C371.028 140.572 374.033 141.443 375.305 139.475C375.305 139.515 371.599 140.201 370.432 137.802ZM363.706 140.727C363.756 140.787 363.837 140.892 363.927 141.023L363.706 140.727ZM368.384 142.229C368.113 142.23 367.848 142.151 367.622 142.001C367.397 141.851 367.221 141.638 367.117 141.388C367.013 141.138 366.985 140.862 367.038 140.597C367.09 140.331 367.221 140.087 367.412 139.896C367.604 139.704 367.848 139.574 368.113 139.521C368.379 139.469 368.654 139.496 368.904 139.6C369.154 139.704 369.368 139.88 369.518 140.106C369.667 140.331 369.747 140.596 369.746 140.867C369.747 141.047 369.713 141.225 369.645 141.392C369.577 141.558 369.477 141.709 369.351 141.837C369.224 141.965 369.073 142.066 368.907 142.135C368.741 142.204 368.564 142.239 368.384 142.239V142.229Z" fill="#88D1C3"/>
    <path d="M474.972 62.0853C476.972 62.0853 478.593 60.4642 478.593 58.4645C478.593 56.4648 476.972 54.8438 474.972 54.8438C472.973 54.8438 471.352 56.4648 471.352 58.4645C471.352 60.4642 472.973 62.0853 474.972 62.0853Z" fill="#88D1C3"/>
    <path d="M773.333 141.902V147.446C773.333 148.447 775.336 148.487 775.416 147.491C775.516 146.234 775.677 144.291 775.757 143.509C775.847 142.643 776.798 142.448 776.913 143.419C777.049 144.576 777.154 146.76 777.269 147.561C777.384 148.362 779.347 148.462 779.347 147.446V141.727L773.333 141.902Z" fill="#88D1C3"/>
    <path d="M768.565 144.731C770.225 144.731 771.57 143.386 771.57 141.726C771.57 140.067 770.225 138.722 768.565 138.722C766.906 138.722 765.56 140.067 765.56 141.726C765.56 143.386 766.906 144.731 768.565 144.731Z" fill="#88D1C3"/>
    <path d="M768.319 144.815C768.38 144.465 768.144 144.132 767.794 144.072C767.443 144.012 767.11 144.247 767.05 144.598L766.891 145.525C766.831 145.875 767.066 146.208 767.417 146.268C767.767 146.328 768.1 146.093 768.16 145.743L768.319 144.815Z" fill="#88D1C3"/>
    <path d="M769.657 145.147C769.717 145.496 770.049 145.73 770.398 145.67C770.746 145.609 770.98 145.278 770.92 144.929L770.761 144.006C770.701 143.657 770.369 143.423 770.02 143.483C769.672 143.544 769.437 143.875 769.498 144.224L769.657 145.147Z" fill="#88D1C3"/>
    <path d="M755.57 138.787L754.273 138.662C754.598 135.307 756.917 132.683 759.556 132.683V133.97C757.613 133.97 755.825 136.138 755.57 138.787Z" fill="#88D1C3"/>
    <path d="M754.994 138.191C752.65 138.382 752.314 141.787 754.298 142.573C754.763 142.468 755.187 142.225 755.514 141.877C755.84 141.528 756.055 141.09 756.13 140.618C756.205 140.146 756.137 139.663 755.934 139.23C755.732 138.798 755.404 138.436 754.994 138.191V138.191Z" fill="#88D1C3"/>
    <path d="M785.432 138.802L787.31 135.552C784.861 135.302 783.649 136.554 784.22 138.161C784.22 138.161 782.062 134.656 781.155 133.309C780.726 132.612 780.128 132.035 779.416 131.631C778.704 131.227 777.902 131.01 777.084 131H762.561C760.387 131 758.054 132.833 758.054 136.053V147.101C758.054 148.408 760.232 148.247 760.558 147.196C761.123 145.223 761.93 142.689 761.93 142.689C761.93 142.689 763.051 146.515 763.377 147.481C763.652 148.282 765.681 148.308 765.585 147.206C765.48 145.984 765.255 142.508 765.255 142.508H779.282C780.314 143.981 782.262 146.875 782.733 147.401C783.329 148.067 786.599 147.586 786.624 146.58C786.649 145.573 786.028 141.572 786.028 141.572C786.028 141.572 789.033 142.443 790.305 140.475C790.305 140.515 786.599 141.201 785.432 138.802ZM778.706 141.727C778.756 141.787 778.837 141.892 778.927 142.023L778.706 141.727ZM783.384 143.229C783.113 143.23 782.848 143.151 782.622 143.001C782.397 142.851 782.221 142.638 782.117 142.388C782.013 142.138 781.985 141.862 782.038 141.597C782.09 141.331 782.221 141.087 782.412 140.896C782.604 140.704 782.848 140.574 783.113 140.521C783.379 140.469 783.654 140.496 783.904 140.6C784.154 140.704 784.368 140.88 784.518 141.106C784.667 141.331 784.747 141.596 784.746 141.867C784.747 142.047 784.713 142.225 784.645 142.392C784.577 142.558 784.477 142.709 784.351 142.837C784.224 142.965 784.073 143.066 783.907 143.135C783.741 143.204 783.564 143.239 783.384 143.239V143.229Z" fill="#88D1C3"/>
    <path d="M889.181 55.4017C890.679 55.8363 889.702 59.434 887.682 59.1603C885.662 58.8865 880.94 58.0014 878.818 57.1545C876.949 56.4098 878.076 51.4072 880.408 51.4954C882.74 51.5836 889.181 55.4017 889.181 55.4017Z" fill="#88D1C3"/>
    <path d="M838.143 61.1271C839.586 60.0172 844.494 56.3532 846.128 53.2623C842.135 50.358 841.554 43.8842 845.751 42.2682C847.645 44.3175 847.205 46.0866 844.923 47.0144C845.477 50.264 849.809 51.3705 853.984 50.8835C858.159 50.3965 865.83 47.175 864.784 41.4929C863.249 42.8171 859.162 41.8969 859.083 39.0893C859.083 39.0893 862.193 38.7606 864.415 37.5864C860.931 37.2525 859.544 33.1348 861.271 30.7636C863.878 34.1374 866.245 35.3108 869.373 34.6475C872.502 33.9842 875.072 30.1032 874.171 27.1423C878.256 29.3496 876.345 34.5313 875.83 35.0855C875.83 35.0855 880.706 35.9351 882.553 36.9162C884.4 37.8973 884.568 42.3643 881.786 43.9324C878.747 45.6583 878.638 46.155 875.568 48.4661C875.568 48.4661 874.648 52.5078 875.678 55.1979C876.707 57.8879 881.518 64.3035 882.682 65.6115C883.463 66.4914 880.907 69.3225 879.916 69.0095C878.924 68.6964 871.129 61.6488 871.129 61.6488C871.129 61.6488 864.857 66.6617 852.907 66.2478C852.907 66.2478 848.816 71.3683 847.656 72.5455C846.496 73.7226 843.03 72.1047 843.818 70.8406C844.606 69.5765 846.334 66.5098 846.334 66.5098C846.334 66.5098 845.309 64.1512 845.692 62.244C845.692 62.244 842.008 64.1881 840.563 64.909C839.119 65.63 836.707 62.2414 838.143 61.1271ZM872.622 44.1448C873.081 44.0867 873.51 43.8828 873.856 43.5592C874.202 43.2355 874.45 42.8065 874.566 42.3266C874.683 41.8467 874.665 41.3374 874.513 40.8633C874.361 40.3892 874.083 39.9716 873.713 39.6633C873.344 39.3551 872.9 39.1701 872.438 39.1318C871.976 39.0935 871.516 39.2036 871.118 39.4481C870.719 39.6927 870.399 40.0608 870.198 40.5056C869.997 40.9505 869.924 41.4522 869.989 41.9472C870.074 42.6091 870.4 43.2126 870.894 43.6247C871.387 44.0368 872.009 44.2239 872.622 44.1448V44.1448Z" fill="#88D1C3"/>
    <path d="M860.526 70.4112C857.749 70.7696 855.184 68.6287 854.797 65.6293C854.41 62.63 856.347 59.9079 859.124 59.5494C861.902 59.191 864.467 61.3318 864.854 64.3312C865.241 67.3306 863.304 70.0527 860.526 70.4112Z" fill="#88D1C3"/>
    <path d="M861.841 67.6985L861.845 67.6958C862.344 67.3563 863.012 67.5224 863.337 68.0669L864.534 70.0734C864.859 70.6178 864.718 71.3344 864.219 71.6739L864.215 71.6766C863.716 72.0161 863.048 71.85 862.723 71.3055L861.525 69.299C861.2 68.7545 861.341 68.038 861.841 67.6985Z" fill="#88D1C3"/>
    <path d="M857.254 72.4731L857.249 72.4715C856.68 72.2699 856.362 71.6127 856.538 71.0035L857.187 68.7587C857.363 68.1495 857.967 67.8192 858.536 68.0208L858.54 68.0225C859.109 68.2241 859.428 68.8813 859.252 69.4904L858.603 71.7353C858.427 72.3444 857.823 72.6748 857.254 72.4731Z" fill="#88D1C3"/>
    <path d="M874.092 55.5325C877.248 55.1231 880.202 53.7123 882.581 51.4785C884.959 49.2446 886.656 46.288 887.456 42.9825C888.256 39.677 888.123 36.1709 887.075 32.9076C886.027 29.6443 884.11 26.7702 881.566 24.6488C879.023 22.5273 875.967 21.2537 872.786 20.989C869.604 20.7243 866.44 21.4804 863.692 23.1617C860.945 24.843 858.738 27.3739 857.351 30.4346C855.963 33.4952 855.458 36.9482 855.898 40.3569C856.493 44.9279 858.743 49.0931 862.154 51.9383C865.565 54.7835 869.859 56.0762 874.092 55.5325V55.5325ZM869.945 23.4016C872.672 23.0496 875.451 23.5789 877.93 24.9228C880.41 26.2667 882.477 28.3646 883.872 30.9514C885.267 33.5382 885.927 36.4977 885.768 39.4555C885.609 42.4134 884.638 45.2368 882.978 47.5687C881.318 49.9006 879.044 51.6363 876.443 52.5562C873.842 53.4762 871.031 53.5392 868.366 52.7371C865.7 51.9351 863.3 50.3041 861.469 48.0504C859.637 45.7966 858.457 43.0214 858.076 40.0757C857.57 36.1263 858.536 32.1526 860.761 29.0266C862.986 25.9006 866.289 23.8776 869.945 23.4016V23.4016Z" fill="#88D1C3"/>
    <path d="M82.0518 34.4324C80.387 34.4431 80.5553 38.2128 82.7267 38.5022C84.8982 38.7916 90.0328 39.2301 92.447 38.9901C94.5727 38.7799 94.5799 33.6019 92.1265 33.0459C89.6732 32.4898 82.0518 34.4324 82.0518 34.4324Z" fill="#88D1C3"/>
    <path d="M133.932 54.0505C132.691 52.5736 128.437 47.6574 127.464 44.2003C132.316 42.4732 134.453 36.3338 130.457 33.6062C127.997 35.0791 128.038 36.9216 130.199 38.4525C128.853 41.462 124.072 41.3463 119.832 39.7235C115.593 38.1006 108.354 32.8549 110.788 27.6137C112.076 29.3246 116.557 29.5541 117.303 26.844C117.303 26.844 114.138 25.6684 112.098 23.9143C115.81 24.548 118.23 20.923 116.99 18.1406C113.473 20.7059 110.727 21.1964 107.62 19.6899C104.514 18.1834 102.752 13.6998 104.392 11.0667C99.6082 12.0902 100.376 17.6582 100.782 18.3392C100.782 18.3392 95.4954 17.8239 93.3371 18.2703C91.1788 18.7167 89.9471 23.0169 92.4774 25.3082C95.2397 27.8243 95.2358 28.3375 97.8913 31.4311C97.8913 31.4311 97.8949 35.6171 96.1849 37.9513C94.4749 40.2855 87.9393 45.204 86.4165 46.1565C85.3933 46.7977 87.3897 50.2559 88.4982 50.2242C89.6067 50.1925 99.4039 45.4802 99.4039 45.4802C99.4039 45.4802 104.76 52.084 117.323 54.9701C117.323 54.9701 120.379 61.0785 121.31 62.5431C122.242 64.0077 126.24 63.3875 125.717 61.9405C125.194 60.4936 124.117 57.034 124.117 57.034C124.117 57.034 125.744 55.0212 125.795 53.0599C125.795 53.0599 129.178 55.9655 130.514 57.0646C131.85 58.1636 135.168 55.5303 133.932 54.0505ZM101.986 28.0371C101.521 27.8543 101.121 27.5378 100.837 27.1275C100.552 26.7173 100.396 26.2319 100.388 25.7328C100.379 25.2336 100.519 24.7432 100.79 24.3237C101.06 23.9042 101.449 23.5744 101.908 23.3761C102.366 23.1778 102.872 23.1199 103.363 23.2098C103.854 23.2997 104.308 23.5334 104.666 23.8811C105.024 24.2289 105.271 24.6751 105.375 25.1633C105.48 25.6514 105.437 26.1596 105.252 26.6234C105.006 27.244 104.524 27.7416 103.912 28.0067C103.299 28.2718 102.606 28.2828 101.986 28.0371V28.0371Z" fill="#88D1C3"/>
    <path d="M108.39 56.9241C111.202 58.0373 114.384 56.6601 115.497 53.8481C116.61 51.0361 115.233 47.8542 112.421 46.7411C109.609 45.628 106.427 47.0051 105.314 49.8171C104.201 52.6291 105.578 55.811 108.39 56.9241Z" fill="#88D1C3"/>
    <path d="M107.662 53.9219L107.658 53.9181C107.218 53.4504 106.482 53.4283 106.014 53.8686L104.29 55.4914C103.822 55.9318 103.8 56.6679 104.241 57.1356L104.244 57.1393C104.685 57.607 105.421 57.6292 105.888 57.1889L107.612 55.5661C108.08 55.1257 108.102 54.3896 107.662 53.9219Z" fill="#88D1C3"/>
    <path d="M111.316 59.8308L111.321 59.8305C111.962 59.7909 112.45 59.239 112.41 58.5979L112.264 56.2349C112.225 55.5938 111.673 55.1062 111.032 55.1457L111.027 55.1461C110.386 55.1857 109.898 55.7375 109.937 56.3786L110.083 58.7416C110.123 59.3827 110.675 59.8704 111.316 59.8308Z" fill="#88D1C3"/>
    <path d="M97.7596 38.7129C94.5647 37.446 91.8171 35.2602 89.8642 32.4319C87.9113 29.6036 86.8409 26.2598 86.7882 22.8232C86.7355 19.3866 87.7029 16.0116 89.5682 13.1248C91.4334 10.238 94.1127 7.96897 97.2673 6.6047C100.422 5.24042 103.91 4.84212 107.291 5.46013C110.672 6.07814 113.794 7.68472 116.262 10.0768C118.73 12.4688 120.433 15.5389 121.157 18.8989C121.88 22.2589 121.591 25.758 120.326 28.9537C118.624 33.2376 115.292 36.6714 111.061 38.5011C106.831 40.3308 102.047 40.407 97.7596 38.7129V38.7129ZM109.684 8.58955C106.922 7.49633 103.898 7.2466 100.995 7.87194C98.0911 8.49729 95.4381 9.96962 93.3712 12.1027C91.3044 14.2359 89.9165 16.934 89.383 19.8559C88.8496 22.7778 89.1946 25.7923 90.3744 28.5182C91.5542 31.244 93.5158 33.5588 96.0112 35.1698C98.5065 36.7808 101.424 37.6156 104.393 37.5688C107.363 37.5219 110.253 36.5955 112.696 34.9066C115.139 33.2176 117.027 30.8421 118.12 28.0804C119.582 24.3768 119.514 20.2445 117.933 16.5904C116.351 12.9363 113.385 10.0588 109.684 8.58955V8.58955Z" fill="#88D1C3"/>
    <path opacity="0.6" d="M597 55L529.5 158H616L597 55Z" fill="url(#paint1_linear_1829_67786)"/>
    <path d="M445.5 38.1396C445.318 38.1396 445.143 38.0673 445.014 37.9386C444.886 37.8099 444.813 37.6353 444.813 37.4533V35.1092C444.813 34.9272 444.886 34.7526 445.014 34.6239C445.143 34.4952 445.318 34.4229 445.5 34.4229C445.682 34.4229 445.856 34.4952 445.985 34.6239C446.114 34.7526 446.186 34.9272 446.186 35.1092V37.4744C446.181 37.6527 446.106 37.8219 445.978 37.9461C445.85 38.0703 445.678 38.1397 445.5 38.1396Z" fill="#88D1C3"/>
    <path d="M450.573 40.8736H448.234C448.052 40.8736 447.878 40.8013 447.749 40.6726C447.62 40.5439 447.548 40.3693 447.548 40.1873C447.548 40.0053 447.62 39.8307 447.749 39.702C447.878 39.5733 448.052 39.501 448.234 39.501H450.573C450.663 39.501 450.753 39.5187 450.836 39.5532C450.919 39.5877 450.995 39.6383 451.059 39.702C451.122 39.7657 451.173 39.8414 451.207 39.9247C451.242 40.0079 451.26 40.0972 451.26 40.1873C451.26 40.2774 451.242 40.3667 451.207 40.45C451.173 40.5332 451.122 40.6089 451.059 40.6726C450.995 40.7364 450.919 40.7869 450.836 40.8214C450.753 40.8559 450.663 40.8736 450.573 40.8736V40.8736Z" fill="#88D1C3"/>
    <path d="M445.5 45.9472C445.318 45.9472 445.143 45.8749 445.014 45.7462C444.886 45.6175 444.813 45.4429 444.813 45.2609V42.9168C444.813 42.7348 444.886 42.5602 445.014 42.4315C445.143 42.3028 445.318 42.2305 445.5 42.2305C445.682 42.2305 445.856 42.3028 445.985 42.4315C446.114 42.5602 446.186 42.7348 446.186 42.9168V45.2609C446.186 45.4429 446.114 45.6175 445.985 45.7462C445.856 45.8749 445.682 45.9472 445.5 45.9472Z" fill="#88D1C3"/>
    <path d="M442.765 40.8736H440.426C440.244 40.8736 440.07 40.8013 439.941 40.6726C439.812 40.5439 439.74 40.3693 439.74 40.1873C439.74 40.0053 439.812 39.8307 439.941 39.702C440.07 39.5733 440.244 39.501 440.426 39.501H442.765C442.947 39.501 443.122 39.5733 443.25 39.702C443.379 39.8307 443.451 40.0053 443.451 40.1873C443.451 40.3693 443.379 40.5439 443.25 40.6726C443.122 40.8013 442.947 40.8736 442.765 40.8736V40.8736Z" fill="#88D1C3"/>
    <path d="M463.751 89.9053C464.544 89.9053 465.187 89.2623 465.187 88.4692C465.187 87.6761 464.544 87.0332 463.751 87.0332C462.958 87.0332 462.315 87.6761 462.315 88.4692C462.315 89.2623 462.958 89.9053 463.751 89.9053Z" fill="#88D1C3"/>
    <path d="M433.019 113.689C433.582 113.689 434.038 113.233 434.038 112.67C434.038 112.108 433.582 111.651 433.019 111.651C432.456 111.651 432 112.108 432 112.67C432 113.233 432.456 113.689 433.019 113.689Z" fill="#88D1C3"/>
    <path d="M461.449 152.53C462.178 152.53 462.769 151.939 462.769 151.211C462.769 150.482 462.178 149.891 461.449 149.891C460.72 149.891 460.129 150.482 460.129 151.211C460.129 151.939 460.72 152.53 461.449 152.53Z" fill="#88D1C3"/>
    <path d="M499.43 169.784C499.923 169.784 500.322 169.385 500.322 168.892C500.322 168.399 499.923 168 499.43 168C498.937 168 498.538 168.399 498.538 168.892C498.538 169.385 498.937 169.784 499.43 169.784Z" fill="#88D1C3"/>
    <path d="M549.332 124.021H536.946C536.736 124.021 536.535 123.938 536.386 123.789C536.237 123.641 536.154 123.439 536.154 123.229C536.154 123.019 536.237 122.818 536.386 122.669C536.535 122.521 536.736 122.438 536.946 122.438H549.332C549.542 122.438 549.743 122.521 549.892 122.669C550.04 122.818 550.124 123.019 550.124 123.229C550.124 123.439 550.04 123.641 549.892 123.789C549.743 123.938 549.542 124.021 549.332 124.021V124.021Z" fill="#4F457C"/>
    <path d="M539.681 125.868C539.471 125.868 539.269 125.785 539.121 125.636C538.972 125.488 538.889 125.286 538.889 125.076V121.381C538.889 121.171 538.972 120.969 539.121 120.821C539.269 120.672 539.471 120.589 539.681 120.589C539.891 120.589 540.092 120.672 540.241 120.821C540.389 120.969 540.473 121.171 540.473 121.381V125.076C540.473 125.286 540.389 125.488 540.241 125.636C540.092 125.785 539.891 125.868 539.681 125.868Z" fill="#4F457C"/>
    <path d="M543.376 125.868C543.166 125.868 542.965 125.785 542.816 125.636C542.668 125.488 542.584 125.286 542.584 125.076V121.381C542.584 121.171 542.668 120.969 542.816 120.821C542.965 120.672 543.166 120.589 543.376 120.589C543.586 120.589 543.788 120.672 543.936 120.821C544.085 120.969 544.168 121.171 544.168 121.381V125.076C544.168 125.286 544.085 125.488 543.936 125.636C543.788 125.785 543.586 125.868 543.376 125.868V125.868Z" fill="#4F457C"/>
    <path d="M547.104 125.868C546.894 125.868 546.692 125.785 546.544 125.636C546.395 125.488 546.312 125.286 546.312 125.076V121.381C546.312 121.171 546.395 120.969 546.544 120.821C546.692 120.672 546.894 120.589 547.104 120.589C547.314 120.589 547.515 120.672 547.664 120.821C547.812 120.969 547.896 121.171 547.896 121.381V125.076C547.896 125.286 547.812 125.488 547.664 125.636C547.515 125.785 547.314 125.868 547.104 125.868Z" fill="#4F457C"/>
    <path d="M532.078 104.778L523.182 99.7305H520.775L511.879 104.778L507.011 112.671V125.611H509.424H536.946V112.671L532.078 104.778Z" fill="#657A99"/>
    <path d="M503.479 99.7305L494.583 104.778L489.716 112.697V125.637H509.424V112.671L514.286 104.751L523.182 99.7041L503.479 99.7305ZM496.901 120.986H493.126V115.68H496.901V120.986ZM504.361 120.986H500.586V115.68H504.34L504.361 120.986Z" fill="#4F457C"/>
    <path d="M597.634 88.9768C598.257 90.6134 596.14 92.9258 592.914 94.1507C589.688 95.3755 586.578 95.0324 585.95 93.401L585.306 91.6957L596.99 87.2715L597.634 88.9768Z" fill="#C6A35D"/>
    <path d="M592.259 92.4088C595.485 91.1879 597.598 88.8717 596.979 87.2355C596.359 85.5993 593.242 85.2626 590.016 86.4836C586.79 87.7045 584.677 90.0207 585.296 91.657C585.915 93.2932 589.032 93.6298 592.259 92.4088Z" fill="#F2CE7E"/>
    <path d="M603.251 117C601.889 118.816 598.22 118.367 595.047 115.997C591.874 113.626 590.406 110.237 591.763 108.421L593.178 106.525L604.65 115.105L603.251 117Z" fill="#C6A35D"/>
    <path d="M604.656 115.097C606.013 113.28 604.542 109.886 601.37 107.516C598.198 105.146 594.525 104.699 593.168 106.516C591.81 108.333 593.281 111.728 596.454 114.097C599.626 116.467 603.298 116.915 604.656 115.097Z" fill="#F2CE7E"/>
    <path d="M573.501 97.3864C574.277 95.9557 577.514 96.2197 580.729 97.9778C583.944 99.7358 585.908 102.312 585.127 103.743L584.256 105.395L572.641 99.0601L573.501 97.3864Z" fill="#C6A35D"/>
    <path d="M584.232 105.365C585.012 103.937 583.041 101.357 579.829 99.6029C576.618 97.8484 573.382 97.5836 572.602 99.0114C571.822 100.439 573.793 103.019 577.004 104.773C580.216 106.528 583.451 106.793 584.232 105.365Z" fill="#F2CE7E"/>
    <path d="M566.16 128.399C567.654 129.502 570.019 131.482 570.647 132.401C571.275 133.32 570.309 133.948 569.634 134.386C568.958 134.824 558.737 144.67 560.13 151.782C561.434 158.439 579.612 158.487 583.661 158.487C587.711 158.487 603.57 157.479 604.779 152.268C606.463 144.993 595.804 135.833 594.537 135.057C593.27 134.28 592.953 133.557 593.639 132.834C595.169 131.109 596.394 129.136 597.261 127L566.16 128.399Z" fill="#7996C9"/>
    <path d="M580.138 124.523C571.912 124.523 565.355 125.077 565.355 127.352C565.355 129.528 569.938 129.422 573.507 129.57C577.075 129.718 578.379 131.154 581.273 132.738C583.295 133.862 585.496 134.248 588.136 131.682C589.572 130.272 590.834 129.396 594.26 129.042C597.687 128.688 599.223 126.534 595.031 125.283C590.839 124.032 580.138 124.523 580.138 124.523Z" fill="#88D1C3"/>
    <path d="M583.384 138.736C581.634 138.736 579.886 138.598 578.158 138.324C574.462 137.717 570.011 136.212 568.57 133.911C568.378 133.601 568.317 133.228 568.4 132.874C568.484 132.519 568.704 132.212 569.014 132.02C569.323 131.829 569.696 131.768 570.051 131.851C570.405 131.934 570.712 132.154 570.904 132.464C571.553 133.52 574.404 134.924 578.606 135.632C583.585 136.45 590.348 136.16 594.376 132.818C594.513 132.691 594.675 132.593 594.851 132.531C595.027 132.469 595.214 132.443 595.4 132.455C595.586 132.468 595.768 132.518 595.934 132.603C596.1 132.688 596.248 132.806 596.367 132.95C596.486 133.094 596.574 133.26 596.626 133.439C596.679 133.619 596.694 133.807 596.671 133.992C596.649 134.177 596.589 134.356 596.494 134.517C596.4 134.678 596.274 134.819 596.124 134.929C592.375 138.013 587.302 138.736 583.384 138.736Z" fill="#4F457C"/>
    <path d="M578.337 154.569C578.048 154.569 577.766 154.478 577.532 154.308C577.298 154.138 577.123 153.899 577.033 153.624C574.446 145.673 578.042 139.322 581.901 136.297C582.042 136.182 582.205 136.096 582.38 136.045C582.555 135.993 582.738 135.978 582.919 135.998C583.1 136.018 583.276 136.074 583.435 136.163C583.594 136.252 583.734 136.371 583.846 136.514C583.959 136.658 584.042 136.822 584.09 136.998C584.139 137.173 584.151 137.357 584.128 137.538C584.105 137.719 584.046 137.893 583.954 138.05C583.863 138.208 583.741 138.346 583.596 138.456C582.45 139.353 576.875 144.263 579.641 152.774C579.697 152.945 579.719 153.125 579.705 153.304C579.692 153.484 579.643 153.659 579.561 153.819C579.48 153.979 579.368 154.122 579.231 154.239C579.094 154.356 578.936 154.445 578.765 154.5C578.627 154.546 578.483 154.569 578.337 154.569V154.569Z" fill="#4F457C"/>
    <path d="M588.754 147.626C588.574 147.626 588.395 147.591 588.229 147.522C588.063 147.453 587.912 147.351 587.785 147.224C587.658 147.096 587.557 146.945 587.489 146.779C587.42 146.612 587.386 146.434 587.386 146.254C587.386 143.524 586.795 139.976 583.992 138.609C583.677 138.442 583.441 138.159 583.331 137.821C583.221 137.482 583.247 137.115 583.403 136.795C583.559 136.475 583.833 136.229 584.167 136.107C584.502 135.985 584.87 135.998 585.195 136.143C588.363 137.696 590.126 141.286 590.126 146.254C590.127 146.434 590.092 146.613 590.023 146.78C589.955 146.947 589.853 147.098 589.726 147.226C589.598 147.353 589.447 147.454 589.28 147.523C589.113 147.592 588.934 147.627 588.754 147.626V147.626Z" fill="#4F457C"/>
    <path d="M595.01 125.278C592.323 124.476 586.985 124.391 583.49 124.434L586.008 133.176C586.795 132.798 587.509 132.285 588.12 131.661C589.556 130.252 590.818 129.375 594.244 129.021C597.671 128.668 599.202 126.53 595.01 125.278Z" fill="#88D1C3"/>
    <path d="M574.668 124.634C569.188 124.882 565.35 125.616 565.35 127.353C565.35 129.528 569.932 129.422 573.501 129.57C574.48 129.597 575.449 129.766 576.379 130.072C575.86 129.128 575.449 128.129 575.154 127.094C574.921 126.289 574.759 125.466 574.668 124.634V124.634Z" fill="#88D1C3"/>
    <path d="M583.49 124.449L580.893 115.5L578.253 116.266C575.613 117.031 574.188 120.547 574.647 124.634C576.336 124.554 578.179 124.523 580.116 124.523C580.138 124.523 581.526 124.449 583.49 124.449Z" fill="#C6A35D"/>
    <path d="M580.138 124.523C578.2 124.523 576.357 124.555 574.668 124.634C574.759 125.467 574.921 126.29 575.154 127.094C575.449 128.13 575.86 129.128 576.379 130.072C578.079 130.653 579.309 131.656 581.267 132.743C582.724 133.556 584.271 133.973 586.019 133.176L583.49 124.449C581.526 124.449 580.138 124.523 580.138 124.523Z" fill="#C6A35D"/>
    <path d="M589.672 124.545C589.584 124.028 589.466 123.517 589.319 123.014C587.861 117.951 584.097 114.566 580.914 115.501C578.11 116.314 576.69 120.179 577.398 124.55C578.284 124.55 579.198 124.524 580.138 124.524C580.138 124.524 585.164 124.291 589.672 124.545Z" fill="#F2CE7E"/>
    <path d="M589.672 124.544C585.164 124.291 580.138 124.544 580.138 124.544C579.198 124.544 578.284 124.544 577.397 124.571C577.491 125.173 577.623 125.77 577.793 126.355C578.775 129.771 580.813 132.405 583.01 133.482C584.551 133.868 586.214 133.551 588.115 131.682C588.479 131.318 588.867 130.98 589.276 130.668C589.952 128.699 590.089 126.584 589.672 124.544Z" fill="#F2CE7E"/>
    <path d="M604.571 23.2196C604.389 23.2196 604.215 23.1472 604.086 23.0185C603.957 22.8898 603.885 22.7152 603.885 22.5332V20.659C603.885 20.477 603.957 20.3024 604.086 20.1737C604.215 20.045 604.389 19.9727 604.571 19.9727C604.753 19.9727 604.928 20.045 605.056 20.1737C605.185 20.3024 605.257 20.477 605.257 20.659V22.5543C605.252 22.7327 605.177 22.9019 605.049 23.0261C604.921 23.1502 604.75 23.2196 604.571 23.2196Z" fill="#88D1C3"/>
    <path d="M608.531 25.3317H606.635C606.545 25.3317 606.456 25.3139 606.373 25.2794C606.289 25.2449 606.214 25.1944 606.15 25.1306C606.086 25.0669 606.036 24.9912 606.001 24.908C605.967 24.8247 605.949 24.7354 605.949 24.6453C605.949 24.5552 605.967 24.4659 606.001 24.3827C606.036 24.2994 606.086 24.2237 606.15 24.16C606.214 24.0963 606.289 24.0457 606.373 24.0112C606.456 23.9767 606.545 23.959 606.635 23.959H608.531C608.713 23.959 608.887 24.0313 609.016 24.16C609.145 24.2887 609.217 24.4633 609.217 24.6453C609.217 24.8273 609.145 25.0019 609.016 25.1306C608.887 25.2593 608.713 25.3317 608.531 25.3317V25.3317Z" fill="#88D1C3"/>
    <path d="M604.571 29.2641C604.389 29.2641 604.215 29.1918 604.086 29.0631C603.957 28.9344 603.885 28.7598 603.885 28.5778V26.6824C603.885 26.5004 603.957 26.3258 604.086 26.1971C604.215 26.0684 604.389 25.9961 604.571 25.9961C604.753 25.9961 604.928 26.0684 605.056 26.1971C605.185 26.3258 605.257 26.5004 605.257 26.6824V28.5778C605.257 28.7598 605.185 28.9344 605.056 29.0631C604.928 29.1918 604.753 29.2641 604.571 29.2641V29.2641Z" fill="#88D1C3"/>
    <path d="M602.507 25.3317H600.611C600.521 25.3317 600.432 25.3139 600.349 25.2794C600.266 25.2449 600.19 25.1944 600.126 25.1306C600.062 25.0669 600.012 24.9912 599.977 24.908C599.943 24.8247 599.925 24.7354 599.925 24.6453C599.925 24.5552 599.943 24.4659 599.977 24.3827C600.012 24.2994 600.062 24.2237 600.126 24.16C600.19 24.0963 600.266 24.0457 600.349 24.0112C600.432 23.9767 600.521 23.959 600.611 23.959H602.507C602.689 23.959 602.863 24.0313 602.992 24.16C603.121 24.2887 603.193 24.4633 603.193 24.6453C603.193 24.8273 603.121 25.0019 602.992 25.1306C602.863 25.2593 602.689 25.3317 602.507 25.3317V25.3317Z" fill="#88D1C3"/>
    <path d="M574.884 56.4805L572.672 43.3662C578.643 43.947 588.3 46.4494 593.79 51.3963" fill="#88D1C3"/>
    <path d="M620.213 82.3559C622.069 75.4303 612.272 66.7877 598.33 63.0522C584.389 59.3166 571.583 61.9026 569.727 68.8282C567.872 75.7538 577.669 84.3964 591.61 88.132C605.552 91.8676 618.358 89.2815 620.213 82.3559Z" fill="#7996C9"/>
    <path d="M557.816 54.5591C554.474 53.6615 548.746 54.8441 545.779 56.6445C547.447 59.6855 551.818 63.5765 555.16 64.4687C556.454 64.7586 557.809 64.5366 558.943 63.8494C560.076 63.1622 560.9 62.063 561.241 60.7821C561.582 59.5012 561.415 58.138 560.773 56.9779C560.132 55.8179 559.066 54.9511 557.8 54.5591H557.816Z" fill="#FF8080"/>
    <path d="M622.292 74.6011C624.148 67.6755 614.351 59.0329 600.409 55.2973C586.468 51.5617 573.662 54.1477 571.806 61.0734C569.95 67.999 579.748 76.6416 593.689 80.3771C607.63 84.1127 620.437 81.5267 622.292 74.6011Z" fill="white"/>
    <path d="M616.98 72.8036C618.368 67.6242 609.402 60.7214 596.953 57.3858C584.504 54.0502 573.288 55.5449 571.9 60.7244C570.512 65.9038 579.479 72.8066 591.927 76.1422C604.376 79.4778 615.593 77.9831 616.98 72.8036Z" fill="#88D1C3"/>
    <path d="M610.569 81.854L608.71 88.7913C608.71 88.7913 610.78 89.0447 612.01 88.6276C613.24 88.2106 618.256 86.7481 619.29 83.0789C620.325 79.4096 620.505 78.1373 618.762 79.0929C617.02 80.0484 610.569 81.854 610.569 81.854Z" fill="white"/>
    <path d="M579.24 73.8235C576.004 71.5322 574.89 70.2018 573.549 68.0161C572.208 65.8303 571.748 66.712 569.568 66.9602C567.388 67.2083 555.313 73.7179 555.313 73.7179C555.313 73.7179 558.676 77.8043 565.302 79.5782C571.928 81.3521 588.923 84.4142 591.103 82.0173C593.284 79.6204 590.67 80.576 587.228 78.649C583.786 76.722 579.24 73.8235 579.24 73.8235Z" fill="#88D1C3"/>
    <path d="M573.396 44.5754C580.116 46.6081 587.228 49.327 589.403 52.7798C589.403 52.7798 593.5 51.6289 593.247 50.9108C592.993 50.1928 578.691 44.227 575.296 43.7096C571.902 43.1922 573.396 44.5754 573.396 44.5754Z" fill="white"/>
    <path d="M580.101 60.2029C577.155 58.4666 574.04 57.0355 570.803 55.9318C568.232 55.124 567.224 54.7808 566.522 55.6783C565.82 56.5758 563.095 63.265 563.518 64.7696C563.94 66.2743 566.231 66.987 568.026 66.2321C569.821 65.4771 570.497 64.8119 574.056 64.5479C577.614 64.2839 584.06 63.7137 580.101 60.2029Z" fill="#88D1C3"/>
    <path d="M566.11 57.1299C570.655 58.2794 575.002 60.1016 579.008 62.5361L575.972 63.4811L564.278 60.3451L566.11 57.1299Z" fill="white"/>
    <path d="M557.341 73.5439C561.411 75.3759 573.211 80.6132 585.771 78.9343C585.771 78.9343 592.106 80.1433 592.602 80.7663C593.099 81.3893 582.714 83.839 573.95 81.4368C565.186 79.0346 554.131 74.9589 557.341 73.5439Z" fill="white"/>
    <path d="M611.45 70.0326C609.296 78.068 580.19 70.2702 582.344 62.2348C582.834 60.2989 583.703 58.4797 584.901 56.8827C586.1 55.2857 587.604 53.9428 589.326 52.9321C591.048 51.9215 592.954 51.2631 594.932 50.9954C596.911 50.7277 598.923 50.8559 600.852 51.3727C602.781 51.8894 604.588 52.7843 606.167 54.0054C607.747 55.2265 609.069 56.7494 610.055 58.4856C611.041 60.2218 611.672 62.1367 611.912 64.119C612.151 66.1013 611.994 68.1114 611.45 70.0326V70.0326Z" fill="#88D1C3"/>
    <path d="M620.905 77.3573L620.245 79.8203L625.966 81.3545L626.627 78.8915L620.905 77.3573Z" fill="#4F457C"/>
    <path d="M620.774 82.6671L622.886 74.7478C624.269 69.3944 619.839 63.1857 611.313 58.4764C609.719 55.4336 607.2 52.9758 604.119 51.4575C601.038 49.9393 597.554 49.4391 594.17 50.0292C588.616 45.341 579.604 42.8544 573.433 42.1469C573.166 42.1165 572.896 42.1484 572.644 42.24C572.393 42.3316 572.165 42.4805 571.981 42.6749C571.792 42.8746 571.652 43.1154 571.573 43.3784C571.493 43.6413 571.475 43.9192 571.521 44.1901L573.301 54.7491C571.876 54.1983 570.422 53.7277 568.945 53.3395C566.036 52.5581 563.269 57.6528 562.229 61.5174C561.448 64.437 561.337 66.9764 561.849 68.7609L555.551 72.1292C555.295 72.2702 555.075 72.4685 554.909 72.7086C554.743 72.9487 554.635 73.224 554.593 73.513C554.551 73.802 554.576 74.0968 554.668 74.3743C554.759 74.6517 554.913 74.9043 555.118 75.1121C555.204 75.1963 555.298 75.2723 555.398 75.3391C562.183 79.6894 569.802 82.5754 577.767 83.8127V83.8127C581.792 86.2456 586.147 88.086 590.696 89.277C605.5 93.263 618.715 90.354 620.774 82.6671ZM620.41 74.1671C619.649 77.0075 616.54 79.1087 611.656 80.0907C606.456 81.1466 599.994 80.7453 593.452 78.9926C583.775 76.4003 575.771 71.1947 573.2 65.9944L581.204 64.5584C581.595 65.6624 582.243 66.6576 583.094 67.4621C585.66 70.028 590.211 72.1239 594.952 73.3963C602.813 75.5081 611.318 75.3761 612.68 70.3606C613.385 67.7494 613.425 65.0033 612.797 62.3727C618.424 66.1475 621.37 70.5876 620.41 74.1671ZM600.469 52.8115C602.8 53.4316 604.927 54.6554 606.635 56.3593C607.493 57.2182 608.235 58.1855 608.842 59.2367C609.752 60.8043 610.342 62.5366 610.578 64.3335C610.815 66.1304 610.693 67.9563 610.22 69.7059C609.766 71.3848 607.264 71.8916 605.717 72.05C606.178 71.8663 606.592 71.5811 606.929 71.2156C607.265 70.85 607.515 70.4134 607.66 69.9382C608.395 67.2042 608.209 64.3039 607.129 61.6868C606.049 59.0696 604.135 56.8818 601.686 55.4623C599.236 54.0429 596.387 53.4712 593.579 53.8357C590.771 54.2002 588.162 55.4807 586.156 57.4786C587.835 55.4005 590.081 53.8537 592.621 53.0254C595.161 52.1971 597.887 52.1228 600.469 52.8115V52.8115ZM574.214 44.8289C579.72 45.6103 586.489 47.6851 591.108 50.8845C590.114 51.2637 589.159 51.7394 588.257 52.3047C583.342 52.2149 579.066 52.9857 575.861 54.5115L574.214 44.8289ZM581.801 59.923L581.357 59.5745C580.075 58.4957 578.711 57.5195 577.276 56.655C579.737 55.6511 582.35 55.0693 585.005 54.9339C583.64 56.3866 582.554 58.0777 581.801 59.923V59.923ZM564.526 62.8426C564.574 62.6208 564.61 62.4149 564.674 62.1826C565.73 58.186 567.736 55.9106 568.264 55.8103C574.768 57.5525 577.292 59.5904 579.731 61.5596L580.433 62.0876L572.451 63.5183C571.608 63.6685 570.793 63.9499 570.038 64.3525L568.053 65.4084L566.099 64.8804C565.632 64.7945 565.213 64.5389 564.922 64.1628C564.632 63.7866 564.491 63.3165 564.526 62.8426ZM557.768 73.8345L570.772 66.818C571.649 68.618 572.833 70.2511 574.272 71.6435C577.999 75.3761 583.775 78.6652 590.58 80.7981C578.015 84.0714 563.665 77.5407 557.768 73.8345ZM583.949 84.214C585.471 84.1963 586.99 84.0728 588.495 83.8444L587.967 85.7978C586.584 85.3227 585.243 84.7894 583.949 84.214ZM591.341 86.8537C590.776 86.7006 590.216 86.5422 589.656 86.3733L590.427 83.496C591.651 83.2157 592.854 82.8523 594.028 82.4084L592.745 87.1916C592.291 87.0596 591.821 86.9593 591.351 86.8326L591.341 86.8537ZM594.508 87.577L595.95 82.2025C597.006 82.4207 598.061 82.5967 599.117 82.7304L597.681 88.0839C596.632 87.9466 595.571 87.7706 594.498 87.5559L594.508 87.577ZM599.471 88.3056L600.902 82.968C601.995 83.0842 603.082 83.1686 604.143 83.2056L602.728 88.4851C601.662 88.4534 600.569 88.3848 599.46 88.2845L599.471 88.3056ZM604.582 88.4745L605.986 83.2214C607.142 83.2214 608.261 83.137 609.349 83.0208L607.966 88.1947C606.839 88.3378 605.706 88.4241 604.571 88.4534L604.582 88.4745ZM609.903 87.8568L611.265 82.7621C611.566 82.7093 611.873 82.6724 612.168 82.6143C613.06 82.4306 613.942 82.198 614.808 81.9174L613.515 86.7323C612.347 87.2195 611.134 87.5891 609.893 87.8357L609.903 87.8568ZM615.711 85.518L616.888 81.1202C617.582 80.8038 618.251 80.4349 618.889 80.0168L618.361 82.0283C617.904 83.4718 616.953 84.7077 615.674 85.518H615.711Z" fill="#4F457C"/>
    <path d="M652.572 124.238C652.572 121.893 651.025 120.014 648.586 120.014H635.345C634.157 120.014 632.869 119.486 633.835 118.43C634.802 117.374 636.602 115.183 634.67 113.219C634.384 114.861 632.774 117.079 628.371 117.079C623.968 117.079 621.682 114.381 622.263 112.966C620.204 114.893 621.37 118.309 623.567 119.396L618.662 119.523C618.662 119.523 619.322 123.477 623.662 121.677C623.662 121.677 623.245 125.901 623.419 127.785C623.53 128.973 626.877 130.71 628.017 129.2C628.962 127.949 629.601 127.236 630.129 126.529C630.657 125.821 631.623 126.033 631.813 127.585C632.003 129.137 632.42 136.38 632.637 137.922C632.795 139.073 635.498 139.21 635.562 137.922C635.625 136.634 636.238 132.199 636.238 132.199H644.97C644.97 132.199 645.086 135.689 645.086 137.199C645.086 137.89 647.42 138.102 647.61 136.993C647.911 135.272 648.57 131.655 648.57 131.655C648.57 131.655 649.304 135.731 649.626 137.347C649.816 138.244 652.472 138.133 652.567 137.088C652.694 135.62 652.572 126.587 652.572 124.238ZM628.63 124.591C628.317 124.591 628.01 124.498 627.75 124.324C627.489 124.15 627.286 123.903 627.166 123.614C627.047 123.324 627.015 123.006 627.076 122.698C627.137 122.391 627.288 122.109 627.51 121.887C627.731 121.666 628.014 121.515 628.321 121.454C628.628 121.393 628.946 121.424 629.236 121.544C629.525 121.664 629.773 121.867 629.947 122.127C630.121 122.388 630.214 122.694 630.214 123.007C630.212 123.427 630.045 123.828 629.748 124.124C629.451 124.42 629.049 124.586 628.63 124.586V124.591Z" fill="#88D1C3"/>
    <path d="M641.918 134.78C643.656 134.78 645.065 133.372 645.065 131.634C645.065 129.896 643.656 128.487 641.918 128.487C640.18 128.487 638.772 129.896 638.772 131.634C638.772 133.372 640.18 134.78 641.918 134.78Z" fill="#88D1C3"/>
    <path d="M629.775 138.08C630.092 136.497 630.451 132.606 630.573 131.787C630.694 130.969 630.293 130.388 629.237 130.362C628.181 130.335 627.463 130.673 627.437 131.687C627.41 132.701 627.437 137.241 627.437 137.869C627.437 138.498 629.654 138.682 629.775 138.08Z" fill="#88D1C3"/>
    <path d="M641.131 134.157C641.208 133.792 640.975 133.433 640.61 133.355C640.245 133.278 639.886 133.511 639.809 133.876L639.611 134.805C639.534 135.171 639.767 135.529 640.132 135.607C640.497 135.684 640.856 135.451 640.933 135.086L641.131 134.157Z" fill="#88D1C3"/>
    <path d="M642.574 135.083C642.652 135.448 643.01 135.681 643.375 135.603C643.741 135.526 643.974 135.167 643.896 134.802L643.699 133.872C643.621 133.507 643.262 133.274 642.897 133.352C642.532 133.429 642.299 133.788 642.377 134.153L642.574 135.083Z" fill="#88D1C3"/>
    <path d="M655.207 127.754C655.019 126.879 654.781 126.015 654.494 125.167C653.85 123.24 652.176 122.263 649.516 122.263V120.891C653.644 120.891 655.207 123.002 655.793 124.734C656.098 125.636 656.352 126.554 656.553 127.485L655.207 127.754Z" fill="#88D1C3"/>
    <path d="M655.481 126.038C654.008 127.131 654.272 130.172 656.009 130.578C658.132 129.95 657.82 126.434 655.481 126.038Z" fill="#88D1C3"/>
    <path d="M625.8 138.144C625.692 138.144 625.587 138.112 625.498 138.05C625.409 137.989 625.341 137.902 625.304 137.801C625.001 137.092 624.657 136.401 624.274 135.731C624.206 135.609 624.189 135.465 624.226 135.331C624.264 135.196 624.353 135.082 624.475 135.013C624.596 134.944 624.74 134.926 624.874 134.963C625.009 134.999 625.123 135.088 625.193 135.209C625.601 135.926 625.967 136.666 626.291 137.426C626.316 137.491 626.327 137.56 626.325 137.629C626.323 137.698 626.307 137.767 626.279 137.83C626.25 137.893 626.21 137.95 626.159 137.998C626.109 138.045 626.05 138.082 625.985 138.107C625.926 138.132 625.863 138.145 625.8 138.144V138.144Z" fill="#4F457C"/>
    <path d="M623.73 138.165C623.643 138.165 623.558 138.143 623.482 138.101C623.405 138.06 623.34 138 623.292 137.928L622.711 137.056C622.643 136.94 622.621 136.802 622.651 136.671C622.681 136.539 622.76 136.424 622.873 136.349C622.985 136.274 623.121 136.245 623.254 136.267C623.387 136.29 623.507 136.363 623.588 136.47L624.169 137.341C624.207 137.399 624.234 137.464 624.248 137.532C624.261 137.601 624.261 137.671 624.247 137.739C624.234 137.807 624.206 137.872 624.168 137.93C624.129 137.988 624.079 138.037 624.021 138.075C623.935 138.133 623.834 138.164 623.73 138.165V138.165Z" fill="#4F457C"/>
    <path d="M632.146 153.719C632.064 153.718 631.983 153.698 631.909 153.661C631.836 153.623 631.772 153.569 631.724 153.502L629.754 150.831C629.713 150.775 629.683 150.712 629.667 150.644C629.65 150.577 629.646 150.507 629.657 150.438C629.667 150.37 629.691 150.304 629.727 150.244C629.762 150.185 629.809 150.133 629.865 150.092C629.921 150.051 629.984 150.021 630.052 150.004C630.119 149.987 630.189 149.984 630.258 149.994C630.326 150.004 630.392 150.028 630.452 150.064C630.511 150.1 630.563 150.147 630.604 150.203L632.574 152.874C632.633 152.953 632.669 153.047 632.677 153.145C632.686 153.243 632.667 153.341 632.622 153.429C632.578 153.517 632.51 153.591 632.426 153.642C632.341 153.693 632.244 153.72 632.146 153.719Z" fill="#4F457C"/>
    <path d="M633.598 153.132C633.501 153.132 633.406 153.106 633.323 153.055C633.24 153.005 633.173 152.933 633.128 152.847L632.315 151.263C632.283 151.201 632.264 151.133 632.258 151.064C632.253 150.994 632.261 150.925 632.283 150.858C632.304 150.792 632.339 150.731 632.384 150.678C632.43 150.625 632.485 150.582 632.547 150.55C632.672 150.488 632.816 150.477 632.949 150.52C633.081 150.564 633.191 150.658 633.255 150.783L634.068 152.366C634.108 152.447 634.127 152.536 634.124 152.626C634.12 152.716 634.093 152.804 634.046 152.88C633.999 152.957 633.933 153.02 633.855 153.064C633.776 153.108 633.688 153.132 633.598 153.132V153.132Z" fill="#4F457C"/>
    <path d="M635.071 152.937C634.942 152.938 634.817 152.892 634.72 152.807C634.623 152.723 634.56 152.605 634.543 152.478L633.962 148.064C633.953 147.995 633.957 147.924 633.975 147.857C633.993 147.789 634.024 147.725 634.066 147.67C634.109 147.614 634.162 147.567 634.222 147.532C634.283 147.497 634.349 147.474 634.419 147.465C634.488 147.455 634.559 147.46 634.626 147.478C634.694 147.496 634.757 147.527 634.813 147.569C634.869 147.611 634.915 147.664 634.951 147.725C634.986 147.785 635.009 147.852 635.018 147.921L635.604 152.34C635.622 152.479 635.584 152.619 635.499 152.73C635.414 152.841 635.289 152.913 635.15 152.932L635.071 152.937Z" fill="#4F457C"/>
    <path d="M637.024 153.206C636.952 153.206 636.881 153.191 636.815 153.163C636.748 153.134 636.689 153.093 636.639 153.04C636.59 152.988 636.552 152.926 636.527 152.858C636.502 152.79 636.492 152.718 636.496 152.646L636.702 148.908C636.706 148.839 636.723 148.771 636.752 148.708C636.782 148.646 636.824 148.589 636.875 148.543C636.927 148.496 636.987 148.46 637.052 148.437C637.118 148.414 637.187 148.403 637.257 148.407C637.326 148.41 637.394 148.427 637.457 148.457C637.519 148.487 637.576 148.529 637.622 148.58C637.669 148.632 637.705 148.692 637.728 148.757C637.751 148.823 637.762 148.892 637.758 148.961L637.557 152.704C637.551 152.841 637.491 152.969 637.392 153.063C637.292 153.156 637.161 153.208 637.024 153.206V153.206Z" fill="#4F457C"/>
    <path d="M638.397 153.475C638.312 153.475 638.229 153.455 638.154 153.417C638.092 153.385 638.037 153.342 637.992 153.288C637.948 153.235 637.914 153.174 637.893 153.108C637.871 153.042 637.864 152.972 637.87 152.903C637.875 152.833 637.895 152.766 637.927 152.704L638.608 151.395C638.637 151.328 638.679 151.268 638.732 151.219C638.785 151.169 638.847 151.131 638.916 151.107C638.984 151.082 639.057 151.072 639.129 151.077C639.201 151.082 639.272 151.102 639.336 151.136C639.401 151.169 639.457 151.215 639.503 151.272C639.549 151.328 639.582 151.393 639.602 151.463C639.621 151.533 639.626 151.606 639.616 151.678C639.605 151.75 639.581 151.819 639.543 151.881L638.867 153.19C638.822 153.276 638.755 153.348 638.672 153.398C638.589 153.449 638.494 153.475 638.397 153.475V153.475Z" fill="#4F457C"/>
    <path d="M530.315 125.61H528.995V114.988H517.37V125.61H516.05V113.668H530.315V125.61Z" fill="#4F457C"/>
    <path d="M523.182 99.7305L514.286 104.778L509.424 112.671V125.611" fill="#657A99"/>
    <path d="M524.602 105.896H521.767V109.529H524.602V105.896Z" fill="#4F457C"/>
    <path d="M528.055 63.4809C528.764 63.4809 529.338 62.9065 529.338 62.198C529.338 61.4894 528.764 60.915 528.055 60.915C527.347 60.915 526.772 61.4894 526.772 62.198C526.772 62.9065 527.347 63.4809 528.055 63.4809Z" fill="#88D1C3"/>
    <path d="M557.768 25.3159C559.066 25.3159 560.118 24.2641 560.118 22.9666C560.118 21.669 559.066 20.6172 557.768 20.6172C556.471 20.6172 555.419 21.669 555.419 22.9666C555.419 24.2641 556.471 25.3159 557.768 25.3159Z" fill="#88D1C3"/>
    <path d="M550.593 85.7977C551.156 85.7977 551.612 85.3415 551.612 84.7787C551.612 84.216 551.156 83.7598 550.593 83.7598C550.031 83.7598 549.575 84.216 549.575 84.7787C549.575 85.3415 550.031 85.7977 550.593 85.7977Z" fill="#88D1C3"/>
    <path d="M682.528 31.4027C683.269 31.4027 683.869 30.8023 683.869 30.0617C683.869 29.3211 683.269 28.7207 682.528 28.7207C681.788 28.7207 681.187 29.3211 681.187 30.0617C681.187 30.8023 681.788 31.4027 682.528 31.4027Z" fill="#88D1C3"/>
    <path d="M641.918 51.0321C643.397 51.0321 644.595 49.8337 644.595 48.3554C644.595 46.8771 643.397 45.6787 641.918 45.6787C640.44 45.6787 639.242 46.8771 639.242 48.3554C639.242 49.8337 640.44 51.0321 641.918 51.0321Z" fill="#88D1C3"/>
    <path d="M581.447 4.78323C582.768 4.78323 583.838 3.71247 583.838 2.39161C583.838 1.07076 582.768 0 581.447 0C580.126 0 579.055 1.07076 579.055 2.39161C579.055 3.71247 580.126 4.78323 581.447 4.78323Z" fill="#88D1C3"/>
    <path d="M649.515 17.5225C650.743 17.5225 651.738 16.5274 651.738 15.2998C651.738 14.0723 650.743 13.0771 649.515 13.0771C648.288 13.0771 647.293 14.0723 647.293 15.2998C647.293 16.5274 648.288 17.5225 649.515 17.5225Z" fill="#88D1C3"/>
    <path d="M598.494 103.008C598.302 103.008 598.118 102.931 597.983 102.796C597.847 102.66 597.771 102.476 597.771 102.284V97.0048C597.762 96.9049 597.775 96.8044 597.807 96.7096C597.839 96.6148 597.891 96.5277 597.959 96.4539C598.027 96.3801 598.109 96.3212 598.201 96.2808C598.292 96.2405 598.391 96.2197 598.492 96.2197C598.592 96.2197 598.691 96.2405 598.783 96.2808C598.874 96.3212 598.957 96.3801 599.024 96.4539C599.092 96.5277 599.144 96.6148 599.176 96.7096C599.208 96.8044 599.221 96.9049 599.212 97.0048V102.284C599.213 102.379 599.195 102.473 599.159 102.561C599.123 102.648 599.071 102.728 599.004 102.795C598.937 102.863 598.858 102.916 598.77 102.952C598.683 102.989 598.589 103.008 598.494 103.008V103.008Z" fill="#7996C9"/>
    <path d="M579.937 95.273C579.745 95.273 579.561 95.1968 579.425 95.0611C579.29 94.9255 579.214 94.7415 579.214 94.5497V87.7233C579.214 87.5315 579.29 87.3475 579.425 87.2118C579.561 87.0762 579.745 87 579.937 87C580.129 87 580.313 87.0762 580.448 87.2118C580.584 87.3475 580.66 87.5315 580.66 87.7233V94.5497C580.66 94.7415 580.584 94.9255 580.448 95.0611C580.313 95.1968 580.129 95.273 579.937 95.273V95.273Z" fill="#7996C9"/>
    <path d="M585.01 113.984C584.819 113.984 584.635 113.907 584.499 113.772C584.363 113.636 584.287 113.452 584.287 113.26V108.361C584.287 108.169 584.363 107.985 584.499 107.85C584.635 107.714 584.819 107.638 585.01 107.638C585.202 107.638 585.386 107.714 585.522 107.85C585.658 107.985 585.734 108.169 585.734 108.361V113.26C585.734 113.355 585.715 113.449 585.679 113.537C585.642 113.625 585.589 113.705 585.522 113.772C585.455 113.839 585.375 113.892 585.287 113.929C585.2 113.965 585.105 113.984 585.01 113.984V113.984Z" fill="#7996C9"/>
    <path d="M574.721 113.113C574.53 113.111 574.347 113.034 574.213 112.899C574.078 112.763 574.003 112.58 574.003 112.389V108.947C573.994 108.847 574.006 108.747 574.039 108.652C574.071 108.557 574.123 108.47 574.19 108.396C574.258 108.322 574.341 108.264 574.432 108.223C574.524 108.183 574.623 108.162 574.723 108.162C574.823 108.162 574.923 108.183 575.014 108.223C575.106 108.264 575.188 108.322 575.256 108.396C575.324 108.47 575.376 108.557 575.408 108.652C575.44 108.747 575.452 108.847 575.444 108.947V112.374C575.446 112.47 575.429 112.566 575.394 112.655C575.358 112.745 575.305 112.826 575.238 112.895C575.17 112.964 575.09 113.019 575.001 113.056C574.912 113.093 574.817 113.113 574.721 113.113Z" fill="#7996C9"/>
    <path d="M629.622 84.8363C631.73 84.8363 633.439 83.1273 633.439 81.0192C633.439 78.9111 631.73 77.2021 629.622 77.2021C627.514 77.2021 625.805 78.9111 625.805 81.0192C625.805 83.1273 627.514 84.8363 629.622 84.8363Z" fill="#88D1C3"/>
    <path d="M516.71 125.611H517.713L523.182 120.843L528.652 125.611H529.655L530.088 125.109L524.185 119.967L530.088 114.825L529.222 113.832L523.182 119.09L517.142 113.832L516.277 114.825L522.179 119.967L516.277 125.109L516.71 125.611Z" fill="#4F457C"/>
    <defs>
        <linearGradient id="paint0_linear_1829_67786" x1="278.305" y1="74.3435" x2="280.744" y2="157.2" gradientUnits="userSpaceOnUse">
            <stop stop-color="white" stop-opacity="0.5"/>
            <stop offset="0.14" stop-color="white" stop-opacity="0.48"/>
            <stop offset="0.34" stop-color="white" stop-opacity="0.41"/>
            <stop offset="0.56" stop-color="white" stop-opacity="0.3"/>
            <stop offset="0.81" stop-color="white" stop-opacity="0.14"/>
            <stop offset="1" stop-color="white" stop-opacity="0"/>
        </linearGradient>
        <linearGradient id="paint1_linear_1829_67786" x1="635.283" y1="63.717" x2="637.626" y2="146.941" gradientUnits="userSpaceOnUse">
            <stop stop-color="white" stop-opacity="0.5"/>
            <stop offset="0.14" stop-color="white" stop-opacity="0.48"/>
            <stop offset="0.34" stop-color="white" stop-opacity="0.41"/>
            <stop offset="0.56" stop-color="white" stop-opacity="0.3"/>
            <stop offset="0.81" stop-color="white" stop-opacity="0.14"/>
            <stop offset="1" stop-color="white" stop-opacity="0"/>
        </linearGradient>
    </defs>
</svg>
