<svg viewBox="0 0 493 270" fill="none" xmlns="http://www.w3.org/2000/svg">
    <path d="M427.704 134.774C427.54 134.774 427.383 134.71 427.266 134.598C427.15 134.485 427.084 134.332 427.083 134.172V132.106C427.096 131.955 427.167 131.814 427.281 131.711C427.396 131.608 427.546 131.551 427.702 131.551C427.858 131.551 428.008 131.608 428.123 131.711C428.237 131.814 428.308 131.955 428.321 132.106V134.172C428.32 134.331 428.255 134.483 428.139 134.596C428.024 134.709 427.867 134.773 427.704 134.774Z" fill="#88D1C3"/>
    <path d="M432.28 137.177H430.168C430.082 137.184 429.996 137.174 429.915 137.147C429.833 137.12 429.759 137.076 429.696 137.019C429.632 136.963 429.582 136.894 429.547 136.817C429.513 136.74 429.495 136.657 429.495 136.573C429.495 136.489 429.513 136.406 429.547 136.329C429.582 136.253 429.632 136.184 429.696 136.127C429.759 136.07 429.833 136.027 429.915 136C429.996 135.972 430.082 135.962 430.168 135.969H432.28C432.435 135.982 432.58 136.051 432.686 136.163C432.791 136.275 432.85 136.421 432.85 136.573C432.85 136.725 432.791 136.872 432.686 136.984C432.58 137.096 432.435 137.165 432.28 137.177Z" fill="#88D1C3"/>
    <path d="M427.704 141.625C427.539 141.625 427.381 141.561 427.265 141.448C427.148 141.334 427.083 141.18 427.083 141.019V138.958C427.096 138.807 427.167 138.665 427.281 138.562C427.396 138.459 427.546 138.402 427.702 138.402C427.858 138.402 428.008 138.459 428.123 138.562C428.237 138.665 428.308 138.807 428.321 138.958V141.019C428.321 141.179 428.256 141.332 428.141 141.446C428.025 141.56 427.868 141.624 427.704 141.625Z" fill="#88D1C3"/>
    <path d="M425.24 137.177H423.128C423.043 137.184 422.956 137.174 422.875 137.147C422.794 137.12 422.719 137.076 422.656 137.019C422.592 136.963 422.542 136.894 422.507 136.817C422.473 136.74 422.455 136.657 422.455 136.573C422.455 136.489 422.473 136.406 422.507 136.329C422.542 136.253 422.592 136.184 422.656 136.127C422.719 136.07 422.794 136.027 422.875 136C422.956 135.972 423.043 135.962 423.128 135.969H425.24C425.395 135.982 425.54 136.051 425.646 136.163C425.751 136.275 425.81 136.421 425.81 136.573C425.81 136.725 425.751 136.872 425.646 136.984C425.54 137.096 425.395 137.165 425.24 137.177Z" fill="#88D1C3"/>
    <path d="M337.083 239.86C337.001 239.861 336.921 239.846 336.846 239.815C336.771 239.785 336.702 239.741 336.645 239.685C336.587 239.629 336.542 239.562 336.511 239.489C336.48 239.416 336.465 239.337 336.465 239.258V236.349C336.465 236.19 336.53 236.036 336.646 235.923C336.762 235.811 336.919 235.747 337.083 235.747C337.246 235.747 337.403 235.811 337.519 235.923C337.635 236.036 337.7 236.19 337.7 236.349V239.258C337.7 239.337 337.685 239.416 337.654 239.489C337.623 239.562 337.578 239.629 337.52 239.685C337.463 239.741 337.394 239.785 337.319 239.815C337.244 239.846 337.164 239.861 337.083 239.86Z" fill="#88D1C3"/>
    <path d="M341.658 241.416H338.677C338.514 241.416 338.357 241.353 338.241 241.24C338.125 241.127 338.06 240.974 338.06 240.814C338.06 240.654 338.125 240.501 338.241 240.388C338.357 240.275 338.514 240.212 338.677 240.212H341.658C341.822 240.212 341.979 240.275 342.095 240.388C342.21 240.501 342.275 240.654 342.275 240.814C342.275 240.974 342.21 241.127 342.095 241.24C341.979 241.353 341.822 241.416 341.658 241.416Z" fill="#88D1C3"/>
    <path d="M337.083 245.882C337.001 245.882 336.921 245.867 336.846 245.837C336.771 245.807 336.702 245.763 336.645 245.707C336.587 245.651 336.542 245.584 336.511 245.511C336.48 245.437 336.465 245.359 336.465 245.28V242.371C336.465 242.211 336.53 242.058 336.646 241.945C336.762 241.832 336.919 241.769 337.083 241.769C337.246 241.769 337.403 241.832 337.519 241.945C337.635 242.058 337.7 242.211 337.7 242.371V245.28C337.7 245.359 337.685 245.437 337.654 245.511C337.623 245.584 337.578 245.651 337.52 245.707C337.463 245.763 337.394 245.807 337.319 245.837C337.244 245.867 337.164 245.882 337.083 245.882Z" fill="#88D1C3"/>
    <path d="M335.475 241.416H332.494C332.33 241.416 332.173 241.353 332.057 241.24C331.942 241.127 331.877 240.974 331.877 240.814C331.877 240.654 331.942 240.501 332.057 240.388C332.173 240.275 332.33 240.212 332.494 240.212H335.475C335.638 240.212 335.795 240.275 335.911 240.388C336.027 240.501 336.092 240.654 336.092 240.814C336.092 240.974 336.027 241.127 335.911 241.24C335.795 241.353 335.638 241.416 335.475 241.416Z" fill="#88D1C3"/>
    <path d="M158.068 199.238C157.987 199.239 157.907 199.223 157.832 199.193C157.757 199.163 157.688 199.119 157.631 199.063C157.573 199.007 157.528 198.94 157.497 198.867C157.466 198.794 157.451 198.715 157.451 198.636V193.607C157.451 193.447 157.516 193.294 157.632 193.181C157.748 193.068 157.905 193.005 158.068 193.005C158.232 193.005 158.389 193.068 158.505 193.181C158.621 193.294 158.686 193.447 158.686 193.607V198.636C158.686 198.796 158.621 198.949 158.505 199.062C158.389 199.175 158.232 199.238 158.068 199.238Z" fill="#88D1C3"/>
    <path d="M162.644 200.794H159.663C159.5 200.794 159.343 200.731 159.227 200.618C159.111 200.505 159.046 200.352 159.046 200.192C159.046 200.032 159.111 199.879 159.227 199.766C159.343 199.653 159.5 199.59 159.663 199.59H162.644C162.808 199.59 162.965 199.653 163.081 199.766C163.196 199.879 163.261 200.032 163.261 200.192C163.261 200.352 163.196 200.505 163.081 200.618C162.965 200.731 162.808 200.794 162.644 200.794Z" fill="#88D1C3"/>
    <path d="M158.068 207.38C157.987 207.38 157.907 207.365 157.832 207.335C157.757 207.305 157.688 207.261 157.631 207.205C157.573 207.149 157.528 207.082 157.497 207.009C157.466 206.935 157.451 206.857 157.451 206.778V201.749C157.451 201.589 157.516 201.436 157.632 201.323C157.748 201.21 157.905 201.146 158.068 201.146C158.232 201.146 158.389 201.21 158.505 201.323C158.621 201.436 158.686 201.589 158.686 201.749V206.778C158.686 206.937 158.621 207.09 158.505 207.203C158.389 207.316 158.232 207.38 158.068 207.38Z" fill="#88D1C3"/>
    <path d="M156.474 200.794H153.493C153.329 200.794 153.172 200.731 153.056 200.618C152.941 200.505 152.876 200.352 152.876 200.192C152.876 200.032 152.941 199.879 153.056 199.766C153.172 199.653 153.329 199.59 153.493 199.59H156.474C156.637 199.59 156.794 199.653 156.91 199.766C157.026 199.879 157.091 200.032 157.091 200.192C157.091 200.352 157.026 200.505 156.91 200.618C156.794 200.731 156.637 200.794 156.474 200.794Z" fill="#88D1C3"/>
    <path d="M163.261 51.7319C163.098 51.7319 162.941 51.6684 162.825 51.5555C162.709 51.4426 162.644 51.2894 162.644 51.1297V47.3728C162.637 47.2892 162.648 47.2051 162.676 47.1257C162.704 47.0463 162.748 46.9735 162.806 46.9117C162.864 46.85 162.935 46.8007 163.014 46.767C163.093 46.7332 163.178 46.7158 163.264 46.7158C163.35 46.7158 163.435 46.7332 163.513 46.767C163.592 46.8007 163.663 46.85 163.721 46.9117C163.779 46.9735 163.824 47.0463 163.852 47.1257C163.879 47.2051 163.89 47.2892 163.883 47.3728V51.1297C163.883 51.2092 163.867 51.2878 163.835 51.3611C163.804 51.4345 163.758 51.501 163.701 51.557C163.643 51.613 163.574 51.6572 163.499 51.6872C163.424 51.7172 163.343 51.7324 163.261 51.7319Z" fill="#88D1C3"/>
    <path d="M167.837 54.5768H166.16C166.005 54.5641 165.86 54.4949 165.754 54.383C165.649 54.2711 165.59 54.1246 165.59 53.9726C165.59 53.8205 165.649 53.674 165.754 53.5621C165.86 53.4502 166.005 53.381 166.16 53.3683H167.837C167.923 53.3613 168.009 53.3717 168.091 53.3989C168.172 53.4261 168.247 53.4695 168.31 53.5263C168.373 53.583 168.424 53.652 168.458 53.7289C168.493 53.8057 168.511 53.8887 168.511 53.9726C168.511 54.0565 168.493 54.1394 168.458 54.2163C168.424 54.2931 168.373 54.3621 168.31 54.4189C168.247 54.4757 168.172 54.519 168.091 54.5462C168.009 54.5734 167.923 54.5838 167.837 54.5768Z" fill="#88D1C3"/>
    <path d="M163.261 61.1622C163.098 61.1611 162.942 61.0973 162.826 60.9846C162.711 60.8719 162.646 60.7194 162.644 60.56V56.8201C162.637 56.7365 162.648 56.6524 162.676 56.573C162.704 56.4936 162.748 56.4207 162.806 56.359C162.864 56.2972 162.935 56.2479 163.014 56.2142C163.093 56.1805 163.178 56.1631 163.264 56.1631C163.35 56.1631 163.435 56.1805 163.513 56.2142C163.592 56.2479 163.663 56.2972 163.721 56.359C163.779 56.4207 163.824 56.4936 163.852 56.573C163.879 56.6524 163.89 56.7365 163.883 56.8201V60.577C163.877 60.7341 163.809 60.883 163.693 60.9921C163.577 61.1013 163.423 61.1623 163.261 61.1622Z" fill="#88D1C3"/>
    <path d="M160.35 54.5768H158.673C158.517 54.5641 158.373 54.4949 158.267 54.383C158.162 54.2711 158.103 54.1246 158.103 53.9726C158.103 53.8205 158.162 53.674 158.267 53.5621C158.373 53.4502 158.517 53.381 158.673 53.3683H160.35C160.436 53.3613 160.522 53.3717 160.603 53.3989C160.684 53.4261 160.759 53.4695 160.822 53.5263C160.886 53.583 160.936 53.652 160.971 53.7289C161.005 53.8057 161.023 53.8887 161.023 53.9726C161.023 54.0565 161.005 54.1394 160.971 54.2163C160.936 54.2931 160.886 54.3621 160.822 54.4189C160.759 54.4757 160.684 54.519 160.603 54.5462C160.522 54.5734 160.436 54.5838 160.35 54.5768Z" fill="#88D1C3"/>
    <path d="M331.898 65.4445C328.018 65.4438 324.253 64.153 321.225 61.7847C318.198 59.4165 316.087 56.1122 315.242 52.4165C314.397 48.7209 314.867 44.8545 316.576 41.4548C318.284 38.0551 321.129 35.325 324.641 33.7144C326.667 32.7811 328.862 32.2488 331.1 32.1483C333.337 32.0479 335.573 32.3813 337.678 33.1293C337.941 33.2305 338.153 33.4278 338.27 33.6792C338.386 33.9307 338.397 34.2166 338.301 34.4761C338.205 34.7356 338.009 34.9483 337.755 35.0689C337.5 35.1896 337.208 35.2087 336.939 35.1222C334.169 34.1501 331.166 34.001 328.309 34.694C325.452 35.387 322.87 36.8908 320.889 39.0155C318.908 41.1401 317.616 43.7902 317.178 46.6307C316.74 49.4713 317.175 52.3748 318.428 54.9742C319.681 57.5736 321.695 59.7523 324.217 61.2349C326.738 62.7175 329.653 63.4374 332.594 63.3036C335.534 63.1698 338.368 62.1884 340.737 60.4834C343.107 58.7783 344.904 56.4262 345.904 53.7243C345.949 53.5897 346.022 53.4654 346.118 53.3587C346.213 53.252 346.33 53.1651 346.461 53.1032C346.591 53.0412 346.733 53.0054 346.878 52.998C347.023 52.9905 347.169 53.0115 347.305 53.0597C347.442 53.1079 347.567 53.1824 347.674 53.2786C347.78 53.3749 347.866 53.4911 347.926 53.6203C347.985 53.7494 348.018 53.889 348.022 54.0307C348.025 54.1724 348 54.3133 347.946 54.4452C346.752 57.6615 344.572 60.4417 341.704 62.4092C338.836 64.3766 335.417 65.4363 331.911 65.4445H331.898Z" fill="#7996C9"/>
    <path d="M353.022 61.6283C346.834 61.6283 337.721 59.5335 329.039 56.4721C314.877 51.477 301.514 43.7809 303.4 38.735C304.917 34.6346 314.738 35.9449 320.461 37.0897C320.743 37.146 320.991 37.3093 321.15 37.5439C321.309 37.7785 321.366 38.0651 321.308 38.3406C321.251 38.6161 321.083 38.858 320.843 39.0131C320.602 39.1682 320.309 39.2237 320.026 39.1675C310.14 37.1873 305.89 38.2558 305.447 39.4516C304.578 41.7752 313.647 48.7802 329.782 54.4791C345.917 60.1781 357.493 60.441 358.354 58.1173C358.81 56.8876 356.138 53.33 346.899 48.5809C346.655 48.444 346.476 48.2203 346.397 47.9568C346.319 47.6933 346.349 47.4105 346.48 47.1679C346.611 46.9252 346.833 46.7416 347.1 46.6556C347.367 46.5696 347.658 46.5879 347.911 46.7067C353.239 49.4417 361.943 54.6615 360.396 58.8381C359.67 60.7929 356.928 61.6283 353.022 61.6283Z" fill="#7996C9"/>
    <path d="M323.99 44.4937C324.479 44.4937 324.876 44.1064 324.876 43.6287C324.876 43.151 324.479 42.7637 323.99 42.7637C323.5 42.7637 323.103 43.151 323.103 43.6287C323.103 44.1064 323.5 44.4937 323.99 44.4937Z" fill="#7996C9"/>
    <path d="M329.699 40.3043C330.189 40.3043 330.586 39.917 330.586 39.4392C330.586 38.9615 330.189 38.5742 329.699 38.5742C329.21 38.5742 328.813 38.9615 328.813 39.4392C328.813 39.917 329.21 40.3043 329.699 40.3043Z" fill="#7996C9"/>
    <path d="M328.478 50.2094C329.227 50.2094 329.834 49.6171 329.834 48.8864C329.834 48.1558 329.227 47.5635 328.478 47.5635C327.73 47.5635 327.123 48.1558 327.123 48.8864C327.123 49.6171 327.73 50.2094 328.478 50.2094Z" fill="#7996C9"/>
    <path d="M325.632 58.8125C326.186 58.8125 326.636 58.374 326.636 57.833C326.636 57.2921 326.186 56.8535 325.632 56.8535C325.078 56.8535 324.628 57.2921 324.628 57.833C324.628 58.374 325.078 58.8125 325.632 58.8125Z" fill="#7996C9"/>
    <path d="M336.413 45.9138C336.788 45.9138 337.091 45.6176 337.091 45.2523C337.091 44.887 336.788 44.5908 336.413 44.5908C336.039 44.5908 335.735 44.887 335.735 45.2523C335.735 45.6176 336.039 45.9138 336.413 45.9138Z" fill="#7996C9"/>
    <path d="M230.86 222.407L233.307 212.269L218.302 216.547L230.86 222.407Z" fill="#7996C9"/>
    <path d="M211.627 195.252C195.249 207.973 198.96 222.39 198.96 222.39L231.829 211.501L211.627 195.252Z" fill="#88D1C3"/>
    <path d="M282.046 195.252L261.844 211.518L294.714 222.407C294.714 222.407 298.425 207.973 282.046 195.252Z" fill="#88D1C3"/>
    <path d="M199.268 221.419C199.512 217.675 203.77 205.658 213.291 201.129L210.354 196.266C210.354 196.266 197.23 202.978 199.268 221.419Z" fill="white"/>
    <path d="M294.392 221.419C294.144 217.675 289.89 205.658 280.365 201.129L283.302 196.266C283.302 196.266 296.426 202.978 294.392 221.419Z" fill="white"/>
    <path d="M262.796 222.407L260.354 212.269L275.354 216.547L262.796 222.407Z" fill="#7996C9"/>
    <path d="M246.83 212.268C265.802 212.268 281.182 204.707 281.182 195.379C281.182 186.052 265.802 178.49 246.83 178.49C227.859 178.49 212.479 186.052 212.479 195.379C212.479 204.707 227.859 212.268 246.83 212.268Z" fill="white"/>
    <path d="M246.83 214.385C263.798 214.385 277.553 207.059 277.553 198.021C277.553 188.984 263.798 181.658 246.83 181.658C229.863 181.658 216.107 188.984 216.107 198.021C216.107 207.059 229.863 214.385 246.83 214.385Z" fill="#88D1C3"/>
    <path d="M246.83 232.173C255.122 232.173 261.844 227.358 261.844 221.419C261.844 215.48 255.122 210.666 246.83 210.666C238.538 210.666 231.817 215.48 231.817 221.419C231.817 227.358 238.538 232.173 246.83 232.173Z" fill="#4F457C"/>
    <path d="M249.816 210.856H243.845L245.149 202.231H248.512L249.816 210.856Z" fill="white"/>
    <path d="M198.947 223.887C198.693 223.886 198.444 223.824 198.221 223.705C198.036 223.608 197.874 223.473 197.746 223.311C197.617 223.149 197.524 222.963 197.474 222.764C197.309 222.136 193.715 207.253 210.667 194.091L212.561 196.41C200.155 206.044 199.781 216.484 200.168 220.427L231.325 210.106L232.303 212.918L199.46 223.811C199.294 223.864 199.121 223.889 198.947 223.887Z" fill="#4F457C"/>
    <path d="M294.714 223.887C294.547 223.886 294.381 223.858 294.223 223.807L261.357 212.918L262.335 210.106L293.488 220.427C293.875 216.488 293.488 206.048 281.099 196.41L282.994 194.091C299.941 207.236 296.348 222.136 296.187 222.764C296.136 222.962 296.043 223.149 295.914 223.311C295.785 223.473 295.624 223.607 295.439 223.705C295.217 223.823 294.967 223.886 294.714 223.887Z" fill="#4F457C"/>
    <path d="M234.515 213.537C219.836 210.87 210.354 203.911 210.354 195.812C210.354 185.267 226.376 177.007 246.83 177.007C267.285 177.007 283.328 185.267 283.328 195.812C283.328 203.793 274.033 210.713 259.654 213.448L259.072 210.535C271.761 208.122 280.286 202.207 280.286 195.812C280.286 187.226 264.973 179.975 246.852 179.975C228.731 179.975 213.417 187.226 213.417 195.812C213.417 202.313 222.109 208.262 235.093 210.62L234.515 213.537Z" fill="#4F457C"/>
    <path d="M269.14 195.901C269.14 198.259 255.108 202.524 247.091 202.524C238.456 202.524 225.042 198.08 225.042 195.901C225.042 190.195 227.365 184.722 231.5 180.687C235.635 176.653 241.243 174.386 247.091 174.386C252.939 174.386 258.547 176.653 262.682 180.687C266.817 184.722 269.14 190.195 269.14 195.901Z" fill="#88D1C3"/>
    <path d="M264.208 196.52C264.208 198.458 251.584 202.066 244.371 202.066C236.601 202.066 224.538 198.309 224.538 196.52C224.538 186.767 233.416 178.851 244.371 178.851C255.326 178.851 264.208 186.759 264.208 196.52Z" fill="#4F457C"/>
    <path d="M247.091 204.013C235.197 204.013 223.521 199.997 223.521 195.906C223.521 189.806 226.004 183.956 230.424 179.643C234.845 175.329 240.84 172.906 247.091 172.906C253.342 172.906 259.337 175.329 263.758 179.643C268.178 183.956 270.661 189.806 270.661 195.906C270.661 199.997 258.993 204.013 247.091 204.013ZM226.563 195.821C227.236 197.207 235.102 201.045 247.091 201.045C259.08 201.045 266.946 197.207 267.619 195.821C267.619 190.508 265.457 185.413 261.607 181.657C257.757 177.9 252.535 175.79 247.091 175.79C241.647 175.79 236.425 177.9 232.575 181.657C228.726 185.413 226.563 190.508 226.563 195.821Z" fill="#4F457C"/>
    <path d="M246.826 233.64C237.7 233.64 230.313 228.365 230.313 221.881C230.313 215.398 237.731 210.123 246.826 210.123C255.921 210.123 263.339 215.398 263.339 221.881C263.339 228.365 255.951 233.64 246.826 233.64ZM246.826 213.091C239.386 213.091 233.355 217.035 233.355 221.881C233.355 226.728 239.391 230.671 246.826 230.671C254.261 230.671 260.297 226.728 260.297 221.881C260.297 217.035 254.27 213.108 246.826 213.108V213.091Z" fill="#4F457C"/>
    <path d="M263.339 220.72H260.297C260.297 212.4 251.058 204.013 246.826 204.013C242.593 204.013 233.355 212.4 233.355 220.72H230.313C230.313 211.391 240.155 201.045 246.826 201.045C253.496 201.045 263.339 211.408 263.339 220.72Z" fill="#4F457C"/>
    <path d="M248.351 167.453H245.309V173.542H248.351V167.453Z" fill="#4F457C"/>
    <path d="M246.83 169.187C249.751 169.187 252.119 166.877 252.119 164.027C252.119 161.177 249.751 158.866 246.83 158.866C243.909 158.866 241.542 161.177 241.542 164.027C241.542 166.877 243.909 169.187 246.83 169.187Z" fill="#88D1C3"/>
    <path d="M246.565 225.159C234.754 225.159 223.651 222.246 216.864 217.366L218.671 214.979C224.951 219.494 235.38 222.187 246.565 222.187V225.159Z" fill="#4F457C"/>
    <path d="M247.091 225.159V222.191C258.276 222.191 268.706 219.494 274.989 214.982L276.793 217.37C270.009 222.246 258.902 225.159 247.091 225.159Z" fill="#4F457C"/>
    <path d="M227.732 213.587H225.559V221.084H227.732V213.587Z" fill="#4F457C"/>
    <path d="M268.102 213.587H265.929V221.084H268.102V213.587Z" fill="#4F457C"/>
    <path d="M236.449 232.681C236.449 239.766 241.637 247.471 246.83 251.469C252.019 247.471 257.212 239.766 257.212 232.681C257.212 229.994 256.118 227.418 254.171 225.518C252.224 223.618 249.584 222.551 246.83 222.551C244.077 222.551 241.436 223.618 239.49 225.518C237.543 227.418 236.449 229.994 236.449 232.681Z" fill="#FF8080"/>
    <path d="M46.7014 103.361C46.7014 103.361 66.9212 108.873 90.5913 98.8833C90.5913 98.8833 91.3039 97.925 98.8 97.4797C106.296 97.0345 119.037 96.4748 123.974 93.4599C128.91 90.4451 127.48 88.1172 122.961 86.7773C118.442 85.4373 92.977 82.537 88.1969 82.9228C83.4168 83.3087 82.1957 77.5674 72.9136 77.2112C63.6316 76.855 59.8771 78.4451 59.8771 78.4451L66.2215 84.691L52.6635 83.1094C52.6635 83.1094 48.205 85.6536 48.205 91.0345C48.1692 94.0678 48.5062 97.0943 49.2088 100.049L46.7014 103.361Z" fill="#88D1C3"/>
    <path d="M90.8476 82.9229C80.6964 82.9229 71.5447 83.737 65.0655 85.043L72.1357 88.5794L61.915 93.6677C68.3681 95.3893 78.9191 96.5172 90.8519 96.5172C110.498 96.5172 126.424 93.4727 126.424 89.7115C126.424 85.9504 110.494 82.9229 90.8476 82.9229Z" fill="white"/>
    <path d="M49.1045 102.882C49.1045 102.882 60.8765 104.519 79.0061 97.959L90.6564 98.3533C90.6564 98.3533 69.133 109.119 49.1045 102.882Z" fill="white"/>
    <path d="M127.272 101.406V92.3359C127.272 92.3359 115.291 98.4123 91.9079 98.4123L69.4111 106.431C69.4111 106.431 105.11 114.152 127.272 101.406Z" fill="#7996C9"/>
    <path d="M61.9108 79.5942C61.9108 79.5942 70.6844 78.8013 76.6291 80.5482V77.7666C76.6291 77.7666 64.8701 77.4486 61.9108 79.5942Z" fill="white"/>
    <path d="M114.943 105.736V96.8866L126.42 92.7227V101.882C126.42 101.882 123.6 105.278 114.943 105.736Z" fill="white"/>
    <path d="M93.6461 99.0484C79.7404 99.0484 67.2514 97.2208 61.8325 94.3841L63.2665 91.7678C68.1987 94.3417 80.4096 96.0717 93.6461 96.0717C102.52 96.0717 110.85 95.3296 117.112 93.9855C124.282 92.4378 125.751 90.7077 125.751 90.3176C125.751 89.9275 124.282 88.1975 117.095 86.654C110.85 85.3099 102.52 84.5678 93.6287 84.5678C83.8643 84.5678 74.6562 85.4795 68.3725 87.0738L67.6077 84.2031C74.126 82.5494 83.6166 81.5996 93.6287 81.5996C105.796 81.5996 128.775 83.4229 128.775 90.3176C128.775 97.2123 105.801 99.0484 93.6461 99.0484Z" fill="#4F457C"/>
    <path d="M93.6461 110.125C81.8697 110.125 71.0493 108.852 64.6875 106.66L65.6913 103.862C71.7446 105.927 82.2043 107.156 93.6461 107.156C102.52 107.156 110.85 106.419 117.112 105.074C124.299 103.527 125.768 101.788 125.768 101.406V90.7422H128.81V101.398C128.793 108.301 105.8 110.125 93.6461 110.125Z" fill="#4F457C"/>
    <path d="M113.418 89.1686C113.418 91.3353 100.538 92.336 93.1768 92.336C85.2505 92.336 72.9397 91.1657 72.9397 89.1686C72.9004 86.5507 73.3948 83.9514 74.3943 81.5217C75.3938 79.092 76.8783 76.8804 78.7616 75.0156C80.6449 73.1508 82.8894 71.67 85.3644 70.6592C87.8395 69.6484 90.4959 69.1279 93.179 69.1279C95.8621 69.1279 98.5184 69.6484 100.993 70.6592C103.469 71.67 105.713 73.1508 107.596 75.0156C109.48 76.8804 110.964 79.092 111.964 81.5217C112.963 83.9514 113.458 86.5507 113.418 89.1686Z" fill="#88D1C3"/>
    <path d="M90.8476 95.5633C106.666 95.5633 119.489 93.0384 119.489 89.9238C119.489 86.8091 106.666 84.2842 90.8476 84.2842C75.0294 84.2842 62.2062 86.8091 62.2062 89.9238C62.2062 93.0384 75.0294 95.5633 90.8476 95.5633Z" fill="#88D1C3"/>
    <path d="M108.851 89.7327C108.851 91.5136 97.2659 92.3363 90.6433 92.3363C83.5123 92.3363 72.4355 91.3779 72.4355 89.7327C72.4355 80.773 80.5878 73.5137 90.6433 73.5137C100.699 73.5137 108.851 80.773 108.851 89.7327Z" fill="#4F457C"/>
    <path d="M93.155 93.8208C88.7088 93.8093 84.2676 93.5261 79.8577 92.9727C73.774 92.1628 71.3969 91.0943 71.3969 89.1565C71.3562 86.3428 71.8889 83.5494 72.9642 80.9384C74.0395 78.3274 75.6358 75.951 77.6605 73.9472C79.6852 71.9435 82.0978 70.3524 84.7581 69.2664C87.4184 68.1803 90.2734 67.6211 93.1572 67.6211C96.0409 67.6211 98.8959 68.1803 101.556 69.2664C104.217 70.3524 106.629 71.9435 108.654 73.9472C110.679 75.951 112.275 78.3274 113.35 80.9384C114.425 83.5494 114.958 86.3428 114.917 89.1565C114.917 91.1537 112.48 92.2349 106.226 93.0236C101.889 93.5395 97.5244 93.8056 93.155 93.8208ZM74.4432 88.7325C76.2335 89.7162 84.7638 90.8526 93.155 90.8526C101.129 90.8526 110.063 89.8434 111.871 88.7749C111.748 84.015 109.724 79.4904 106.232 76.1647C102.74 72.8391 98.0557 70.9753 93.1762 70.9703C88.2967 70.9653 83.608 72.8196 80.1089 76.1381C76.6098 79.4566 74.5769 83.9771 74.4432 88.7367V88.7325Z" fill="#4F457C"/>
    <path d="M139.465 94.4902H127.272V97.4584H139.465V94.4902Z" fill="#4F457C"/>
    <path d="M49.9736 85.6537C49.9736 85.6537 58.8428 85.0982 68.6376 90.3434L64.505 92.1498C64.505 92.1498 57.1567 89.6141 49.1045 90.318C49.1045 90.318 48.4135 87.5406 49.9736 85.6537Z" fill="white"/>
    <path d="M140.786 100.821C143.83 100.821 146.297 98.4135 146.297 95.4441C146.297 92.4746 143.83 90.0674 140.786 90.0674C137.743 90.0674 135.276 92.4746 135.276 95.4441C135.276 98.4135 137.743 100.821 140.786 100.821Z" fill="#88D1C3"/>
    <path d="M48.4135 101.974C47.1408 99.4108 46.4896 96.5962 46.5101 93.748C46.5101 86.7303 49.5824 81.4512 53.6542 81.4512C62.8189 81.4512 67.9683 84.2625 73.7479 87.9346L72.0879 90.4236C66.556 86.9084 61.9976 84.4194 53.6542 84.4194C51.7117 84.4194 49.552 88.2568 49.552 93.748C49.5269 96.1583 50.079 98.541 51.1642 100.706L48.4135 101.974Z" fill="#4F457C"/>
    <path d="M61.6326 106.855C56.5266 106.855 50.9383 106.296 45.6628 104.621C45.3893 104.532 45.1471 104.37 44.9644 104.152C44.7817 103.934 44.6658 103.671 44.6304 103.392C44.5949 103.113 44.6412 102.829 44.7639 102.575C44.8867 102.32 45.0808 102.105 45.3238 101.954L61.7369 91.8491C61.8373 91.7895 61.9436 91.7398 62.0541 91.7007L72.4226 88.1982L73.409 91.0095L63.21 94.4018L49.8475 102.628C67.8858 106.762 89.7134 99.6004 91.3604 96.7933L94.0024 98.2689C92.2034 101.343 83.2125 104.205 75.6122 105.583C71.0002 106.411 66.3219 106.837 61.6326 106.855Z" fill="#4F457C"/>
    <path d="M66.53 86.8075L57.6087 80.023C57.3912 79.8599 57.2231 79.6422 57.1224 79.3933C57.0216 79.1443 56.9919 78.8733 57.0365 78.6092C57.0811 78.3451 57.1983 78.0977 57.3756 77.8934C57.5528 77.6892 57.7836 77.5356 58.0432 77.4492C71.3623 73.069 91.6037 78.1912 93.9981 82.4018L91.3386 83.8435C90.8433 82.9955 86.5108 80.8753 79.6275 79.6032C75.7165 78.8824 68.6115 78.0216 61.8456 79.4888L68.3899 84.4668L66.53 86.8075Z" fill="#4F457C"/>
    <path d="M122.4 94.5459H120.228V105.516H122.4V94.5459Z" fill="#4F457C"/>
    <path d="M116.03 95.9746H113.857V106.944H116.03V95.9746Z" fill="#4F457C"/>
    <path d="M109.664 97.3994H107.491V108.369H109.664V97.3994Z" fill="#4F457C"/>
    <path d="M103.293 98.3535H101.12V108.742H103.293V98.3535Z" fill="#4F457C"/>
    <path d="M96.9226 98.3535H94.7499V108.369H96.9226V98.3535Z" fill="#4F457C"/>
    <path d="M90.552 100.537H88.3793V108.742H90.552V100.537Z" fill="#4F457C"/>
    <path d="M84.1816 103.099H82.0088V108.365H84.1816V103.099Z" fill="#4F457C"/>
    <path d="M49.539 93.9346C49.5999 95.6646 52.4419 97.5727 56.3224 95.1855C60.203 92.7982 56.4441 96.7968 53.3283 98.23C50.2126 99.6632 49.0828 99.184 49.0828 99.184L49.539 93.9346Z" fill="#4F457C"/>
    <path d="M35.768 84.8057C30.1188 84.8057 23.9351 88.7618 20.7368 92.7138C23.9351 96.67 30.0971 100.622 35.768 100.622C37.9174 100.622 39.9788 99.7887 41.4987 98.3057C43.0186 96.8226 43.8724 94.8112 43.8724 92.7138C43.8724 90.6164 43.0186 88.605 41.4987 87.1219C39.9788 85.6388 37.9174 84.8057 35.768 84.8057Z" fill="#FF8080"/>
    <path d="M69.2721 85.7813L72.918 85.0986L72.2488 88.317L69.2721 85.7813Z" fill="#4F457C"/>
    <path d="M446.286 103.361C446.286 103.361 426.066 108.873 402.396 98.8833C402.396 98.8833 401.683 97.925 394.187 97.4797C386.691 97.0345 373.95 96.4748 369.013 93.4599C364.077 90.4451 365.507 88.1172 370.026 86.7773C374.545 85.4373 400.01 82.537 404.79 82.9228C409.57 83.3087 410.791 77.5674 420.073 77.2112C429.355 76.855 433.11 78.4451 433.11 78.4451L426.766 84.691L440.328 83.0925C440.328 83.0925 444.786 85.6366 444.786 91.0175C444.822 94.0508 444.485 97.0774 443.783 100.032L446.286 103.361Z" fill="#88D1C3"/>
    <path d="M402.152 82.9229C412.304 82.9229 421.455 83.737 427.934 85.043L420.869 88.5794L431.089 93.6677C424.636 95.3893 414.085 96.5172 402.152 96.5172C382.506 96.5172 366.58 93.4727 366.58 89.7115C366.58 85.9504 382.506 82.9229 402.152 82.9229Z" fill="white"/>
    <path d="M443.909 102.882C443.909 102.882 432.137 104.519 414.007 97.959L402.357 98.3533C402.357 98.3533 423.867 109.119 443.909 102.882Z" fill="white"/>
    <path d="M365.728 101.406V92.3359C365.728 92.3359 377.709 98.4123 401.092 98.4123L423.589 106.431C423.589 106.431 387.89 114.152 365.728 101.406Z" fill="#7996C9"/>
    <path d="M431.076 79.5942C431.076 79.5942 422.303 78.8013 416.358 80.5482V77.7666C416.358 77.7666 428.13 77.4486 431.076 79.5942Z" fill="white"/>
    <path d="M378.061 105.736V96.8866L366.584 92.7227V101.882C366.584 101.882 369.4 105.278 378.061 105.736Z" fill="white"/>
    <path d="M399.354 99.0487C387.186 99.0487 364.207 97.2254 364.207 90.3264C364.207 83.4275 387.186 81.6084 399.354 81.6084C409.349 81.6084 418.852 82.5582 425.375 84.2119L424.61 87.0826C418.326 85.4883 409.118 84.5766 399.354 84.5766C390.48 84.5766 382.15 85.3186 375.888 86.6628C368.701 88.2063 367.232 89.9448 367.232 90.3264C367.232 90.708 368.701 92.4466 375.888 93.9943C382.133 95.3384 390.463 96.0805 399.354 96.0805C412.59 96.0805 424.801 94.3505 429.733 91.7766L431.168 94.3929C425.749 97.2211 413.26 99.0487 399.354 99.0487Z" fill="#4F457C"/>
    <path d="M399.354 110.125C387.186 110.125 364.207 108.301 364.207 101.406V90.7422H367.249V101.398C367.249 101.78 368.718 103.518 375.905 105.066C382.15 106.41 390.48 107.148 399.371 107.148C410.822 107.148 421.273 105.918 427.326 103.853L428.33 106.652C421.951 108.831 411.13 110.125 399.354 110.125Z" fill="#4F457C"/>
    <path d="M379.603 89.1686C379.603 91.3353 392.484 92.336 399.845 92.336C407.771 92.336 420.082 91.1657 420.082 89.1686C420.121 86.5507 419.627 83.9514 418.627 81.5217C417.628 79.092 416.143 76.8804 414.26 75.0156C412.377 73.1508 410.132 71.67 407.657 70.6592C405.182 69.6484 402.526 69.1279 399.843 69.1279C397.16 69.1279 394.503 69.6484 392.028 70.6592C389.553 71.67 387.309 73.1508 385.425 75.0156C383.542 76.8804 382.058 79.092 381.058 81.5217C380.059 83.9514 379.564 86.5507 379.603 89.1686Z" fill="#88D1C3"/>
    <path d="M402.152 95.5633C417.971 95.5633 430.794 93.0384 430.794 89.9238C430.794 86.8091 417.971 84.2842 402.152 84.2842C386.334 84.2842 373.511 86.8091 373.511 89.9238C373.511 93.0384 386.334 95.5633 402.152 95.5633Z" fill="#88D1C3"/>
    <path d="M384.145 89.7327C384.145 91.5136 395.73 92.3363 402.352 92.3363C409.483 92.3363 420.56 91.3779 420.56 89.7327C420.56 80.773 412.408 73.5137 402.352 73.5137C392.297 73.5137 384.145 80.773 384.145 89.7327Z" fill="#4F457C"/>
    <path d="M399.845 93.8208C395.469 93.8107 391.097 93.5487 386.752 93.0363C380.503 92.2476 378.061 91.1663 378.061 89.1692C378.02 86.3555 378.553 83.5621 379.628 80.9511C380.703 78.3401 382.3 75.9637 384.324 73.9599C386.349 71.9562 388.762 70.3651 391.422 69.2791C394.082 68.193 396.937 67.6338 399.821 67.6338C402.705 67.6338 405.56 68.193 408.22 69.2791C410.88 70.3651 413.293 71.9562 415.318 73.9599C417.342 75.9637 418.939 78.3401 420.014 80.9511C421.089 83.5621 421.622 86.3555 421.581 89.1692C421.581 91.0943 419.209 92.1628 413.12 92.9854C408.717 93.5336 404.284 93.8126 399.845 93.8208ZM381.129 88.7748C382.936 89.8434 391.871 90.8526 399.845 90.8526C408.236 90.8526 416.766 89.7204 418.557 88.7324C418.423 83.9729 416.39 79.4524 412.891 76.1338C409.392 72.8153 404.703 70.961 399.824 70.966C394.944 70.971 390.259 72.8348 386.767 76.1605C383.276 79.4861 381.252 84.0108 381.129 88.7706V88.7748Z" fill="#4F457C"/>
    <path d="M365.733 94.4902H353.539V97.4584H365.733V94.4902Z" fill="#4F457C"/>
    <path d="M443.04 85.6537C443.04 85.6537 434.17 85.0982 424.375 90.3434L428.508 92.1498C428.508 92.1498 435.843 89.6311 443.909 90.3434C443.909 90.318 444.587 87.5406 443.04 85.6537Z" fill="white"/>
    <path d="M352.214 100.821C355.257 100.821 357.724 98.4135 357.724 95.4441C357.724 92.4746 355.257 90.0674 352.214 90.0674C349.17 90.0674 346.703 92.4746 346.703 95.4441C346.703 98.4135 349.17 100.821 352.214 100.821Z" fill="#88D1C3"/>
    <path d="M444.587 101.974L441.836 100.702C442.921 98.537 443.473 96.1544 443.448 93.7441C443.448 88.2317 441.275 84.4155 439.346 84.4155C431.002 84.4155 426.444 86.9045 420.912 90.4197L419.252 87.9307C425.032 84.2586 430.181 81.4473 439.346 81.4473C443.418 81.4473 446.49 86.7391 446.49 93.7441C446.511 96.5937 445.86 99.4099 444.587 101.974Z" fill="#4F457C"/>
    <path d="M431.367 106.855C426.677 106.836 421.997 106.411 417.383 105.583C409.788 104.226 400.797 101.377 398.998 98.3194L401.64 96.8438C403.287 99.6509 425.106 106.813 443.152 102.678L429.773 94.4311L419.574 91.0388L420.56 88.2275L430.929 91.7003C431.039 91.7394 431.145 91.7891 431.246 91.8487L447.659 101.953C447.902 102.105 448.096 102.32 448.219 102.574C448.341 102.829 448.388 103.112 448.352 103.391C448.317 103.67 448.201 103.934 448.018 104.152C447.836 104.369 447.593 104.532 447.32 104.62C442.062 106.274 436.473 106.855 431.367 106.855Z" fill="#4F457C"/>
    <path d="M426.47 86.8066L424.597 84.466L431.141 79.4879C424.375 78.0208 417.275 78.8858 413.36 79.6024C406.476 80.8745 402.144 82.9946 401.627 83.8427L398.967 82.401C401.362 78.1904 421.603 73.0724 434.922 77.4483C435.182 77.5348 435.412 77.6883 435.59 77.8926C435.767 78.0969 435.884 78.3442 435.929 78.6084C435.973 78.8725 435.944 79.1435 435.843 79.3924C435.742 79.6414 435.574 79.859 435.357 80.0222L426.47 86.8066Z" fill="#4F457C"/>
    <path d="M372.772 94.5459H370.6V105.516H372.772V94.5459Z" fill="#4F457C"/>
    <path d="M379.143 95.9746H376.97V106.944H379.143V95.9746Z" fill="#4F457C"/>
    <path d="M385.509 97.3994H383.336V108.369H385.509V97.3994Z" fill="#4F457C"/>
    <path d="M391.88 98.3535H389.707V108.742H391.88V98.3535Z" fill="#4F457C"/>
    <path d="M398.25 98.3535H396.077V108.369H398.25V98.3535Z" fill="#4F457C"/>
    <path d="M404.621 100.537H402.448V108.742H404.621V100.537Z" fill="#4F457C"/>
    <path d="M410.991 103.099H408.818V108.365H410.991V103.099Z" fill="#4F457C"/>
    <path d="M443.452 93.9346C443.391 95.6646 440.549 97.5727 436.669 95.1855C432.788 92.7982 436.547 96.7968 439.663 98.23C442.779 99.6632 443.909 99.184 443.909 99.184L443.452 93.9346Z" fill="#4F457C"/>
    <path d="M457.232 84.8057C462.881 84.8057 469.065 88.7618 472.263 92.7138C469.065 96.67 462.903 100.622 457.232 100.622C455.083 100.622 453.021 99.7887 451.501 98.3057C449.982 96.8226 449.128 94.8112 449.128 92.7138C449.128 90.6164 449.982 88.605 451.501 87.1219C453.021 85.6388 455.083 84.8057 457.232 84.8057Z" fill="#FF8080"/>
    <path d="M423.728 85.7813L420.082 85.0986L420.751 88.317L423.728 85.7813Z" fill="#4F457C"/>
    <path d="M79.0278 196.749C82.2305 194.536 84.8378 192.17 84.9203 193.917C85.0029 195.664 84.9203 211.327 84.9203 211.327C84.9203 211.327 102.828 206.196 109.39 197.508C115.952 188.82 118.142 184.308 118.746 180.483C119.35 176.659 120.667 175.887 122.709 174.042C124.751 172.198 133.573 163.068 133.364 156.072C133.156 149.076 128.471 142.329 119.502 142.172C110.533 142.015 94.298 142.211 86.2457 148.957C78.1935 155.703 77.3635 154.893 73.5742 155.317C69.7849 155.741 59.4338 159.379 55.4837 165.401C51.5336 171.422 56.2572 169.336 56.2572 169.336L66.9212 171.307L79.0278 196.749Z" fill="#88D1C3"/>
    <path d="M120.532 186.997C120.532 186.997 117.899 187.815 118.007 185.665C118.116 183.516 119.102 178.033 122.487 174.522C125.873 171.011 131.717 164.294 132.539 160.419C133.36 156.543 134.542 155.462 135.424 157.972C136.306 160.482 141.39 173.958 120.532 186.997Z" fill="#7996C9"/>
    <path d="M130.983 150.623C126.281 140.777 109.633 138.615 93.8025 145.811C81.2614 151.514 73.3525 161.262 72.4399 171.223L73.1005 171.927C73.2038 171.897 73.3102 171.878 73.4177 171.871C73.7045 171.871 74 171.825 74.2868 171.799C74.4898 171.627 74.7425 171.52 75.0101 171.494C75.2777 171.467 75.5472 171.522 75.7817 171.651C77.3504 171.473 78.9409 171.227 80.4357 170.96C81.5482 170.761 82.6432 170.476 83.5515 171.333C84.7986 172.512 84.5205 175.103 84.4727 176.599C84.3988 178.893 84.3423 181.264 84.112 183.558L85.3853 184.902C92.6206 186.687 101.655 185.652 110.824 181.488C126.659 174.297 135.685 160.478 130.983 150.623Z" fill="white"/>
    <path d="M116.947 179.3C116.334 183.511 105.966 198.949 84.9464 206.014L84.9203 211.327C84.9203 211.327 99.4387 206.531 105.084 201.32C110.728 196.108 118.555 184.007 118.746 180.483C118.937 176.959 116.947 179.3 116.947 179.3Z" fill="white"/>
    <path d="M131.787 163.649L135.185 168.738C135.185 168.738 137.084 163.895 136.489 161.559C135.893 159.222 133.881 156.589 133.177 158.12C132.473 159.651 131.787 163.649 131.787 163.649Z" fill="white"/>
    <path d="M71.9663 170.23C72.8093 161.037 80.1055 152.031 91.6994 146.765C106.322 140.12 121.683 142.1 126.029 151.204C130.375 160.308 122.031 173.054 107.413 179.699C98.9433 183.545 90.5999 184.499 83.9209 182.858" fill="#88D1C3"/>
    <path d="M71.2145 177.367C74.9429 175.603 80.8094 173.936 83.9903 173.22L84.477 176.612L73.9652 182.888L71.2145 177.367Z" fill="white"/>
    <path d="M56.2441 169.344C58.7688 165.625 66.6169 159.205 77.5372 157.365L79.0451 154.528C79.0451 154.528 67.0167 155.313 60.0073 161.186C52.998 167.058 52.4157 169.246 56.2441 169.344Z" fill="white"/>
    <path d="M92.6031 187.162C90.0757 187.174 87.556 186.89 85.0984 186.314L85.8241 183.435C93.0594 185.165 101.846 183.939 110.563 179.979C118.068 176.565 124.252 171.587 127.98 165.956C131.565 160.537 132.412 155.194 130.37 150.908C128.328 146.621 123.587 143.814 117.025 143.004C110.216 142.156 102.324 143.576 94.8193 146.99C82.8909 152.409 74.8951 161.75 73.9608 171.371L70.9189 171.087C71.9619 160.423 80.6268 150.161 93.5157 144.297C101.533 140.655 110.029 139.149 117.386 140.057C125.021 140.998 130.6 144.407 133.103 149.648C135.606 154.889 134.685 161.254 130.496 167.563C126.463 173.657 119.823 179.012 111.81 182.663C105.305 185.635 98.6912 187.162 92.6031 187.162Z" fill="#4F457C"/>
    <path d="M93.0594 142.719C88.3794 144.846 84.7567 148.7 82.9883 153.433C81.22 158.166 81.4506 163.39 83.6296 167.957C86.1327 173.207 96.3099 173.864 105.853 169.531C115.395 165.197 121.427 157.17 118.924 151.921C116.744 147.354 112.795 143.819 107.945 142.093C103.094 140.368 97.7398 140.593 93.0594 142.719Z" fill="#88D1C3"/>
    <path d="M91.1605 145.565C89.108 146.497 87.2639 147.815 85.7333 149.443C84.2028 151.071 83.0158 152.977 82.2402 155.052C81.4647 157.128 81.1156 159.332 81.2131 161.539C81.3106 163.746 81.8527 165.913 82.8084 167.916C85.0289 172.58 94.0416 173.148 102.494 169.306C110.946 165.465 116.286 158.362 114.07 153.715C113.115 151.712 111.764 149.912 110.095 148.418C108.427 146.924 106.473 145.766 104.346 145.009C102.218 144.252 99.9587 143.911 97.6963 144.007C95.434 144.102 93.2131 144.632 91.1605 145.565Z" fill="#4F457C"/>
    <path d="M116.851 189.744L115.491 187.085C122.631 183.604 128.471 178.681 131.939 173.224C135.281 167.953 136.028 162.763 134.046 158.608L130.366 150.903L133.121 149.631L136.797 157.335C141.721 167.661 132.973 181.908 116.851 189.744Z" fill="#4F457C"/>
    <path d="M93.5897 174.975C93.0378 174.975 92.4946 174.975 91.9601 174.92C86.9671 174.577 83.3951 172.66 81.9002 169.522C79.4744 164.429 79.2193 158.603 81.191 153.326C83.1627 148.049 87.1999 143.751 92.4164 141.376C97.6372 139.007 103.608 138.757 109.017 140.681C114.427 142.605 118.832 146.546 121.266 151.637C124.234 157.866 117.825 166.94 106.97 171.872C102.52 173.894 97.8309 174.975 93.5897 174.975ZM93.7027 144.064C89.2155 146.106 85.7424 149.802 84.0461 154.341C82.3497 158.88 82.5688 163.89 84.6553 168.272C85.6504 170.354 88.3924 171.702 92.173 171.961C96.2578 172.245 101.181 171.227 105.688 169.183C114.705 165.087 120.693 157.472 118.507 152.892C116.414 148.515 112.627 145.127 107.976 143.471C103.326 141.816 98.1923 142.029 93.7027 144.064Z" fill="#4F457C"/>
    <path d="M69.8631 173.953L52.0464 171.112C51.7992 171.073 51.5658 170.974 51.367 170.825C51.1682 170.676 51.0102 170.482 50.907 170.259C50.8038 170.036 50.7586 169.792 50.7754 169.548C50.7923 169.304 50.8706 169.068 51.0035 168.861C55.0448 162.551 62.5148 154.02 80.6357 152.913L80.8269 155.881C65.8696 156.806 58.8211 163.119 54.8623 168.56L70.3368 171.028L69.8631 173.953Z" fill="#4F457C"/>
    <path d="M75.5574 198.401C78.997 196.838 79.3495 190.466 76.3445 184.17C73.3396 177.873 68.1152 174.036 64.6755 175.599C61.2358 177.162 60.8834 183.533 63.8883 189.83C66.8933 196.126 72.1177 199.964 75.5574 198.401Z" fill="#4F457C"/>
    <path d="M73.9174 200.235C69.9804 200.235 65.3394 196.419 62.5017 190.461C59.0905 183.312 59.7597 176.192 64.027 174.255C68.2943 172.317 74.3085 176.396 77.7154 183.549C79.2711 186.81 80.0403 190.219 79.8882 193.145C79.71 196.406 78.3977 198.755 76.2032 199.751C75.4873 200.076 74.7066 200.241 73.9174 200.235ZM66.3258 176.739C65.9753 176.734 65.628 176.805 65.3089 176.947C63.0145 177.99 62.4322 183.278 65.2611 189.206C68.0901 195.134 72.6181 198.11 74.9082 197.063C76.0207 196.554 76.7246 195.07 76.842 192.988C76.9767 190.537 76.3075 187.628 74.9604 184.8C72.5051 179.657 68.768 176.739 66.3258 176.739Z" fill="#4F457C"/>
    <path d="M84.9203 212.824C84.7201 212.824 84.5217 212.786 84.3366 212.712C84.1515 212.637 83.9834 212.527 83.842 212.389C83.7006 212.251 83.5887 212.086 83.5127 211.905C83.4368 211.725 83.3982 211.531 83.3994 211.335L83.5341 184.897C83.4341 179.919 83.4819 174.271 83.5341 171.723C78.2934 171.392 70.7583 172.626 64.8918 177.214L62.9928 174.899C70.1282 169.319 79.4536 168.182 85.268 168.903C85.6388 168.95 85.979 169.128 86.2235 169.404C86.468 169.681 86.5996 170.035 86.5933 170.4C86.5933 170.48 86.463 178.227 86.5933 184.817C86.5933 184.838 86.5933 184.863 86.5933 184.889L86.4673 209.368C94.7847 206.824 102.437 202.338 108.195 196.626C114.409 190.452 117.686 183.481 117.416 177.044L120.458 176.926C121.062 191.605 105.64 207.358 85.3418 212.786C85.2038 212.817 85.0619 212.83 84.9203 212.824Z" fill="#4F457C"/>
    <path d="M76.0902 199.793L75.0082 197.02C78.3639 195.751 81.3485 193.696 83.6992 191.037L86.098 192.865C83.4052 195.951 79.9653 198.333 76.0902 199.793Z" fill="#4F457C"/>
    <path d="M139.834 147.606L131.896 151.213L133.18 153.904L141.118 150.297L139.834 147.606Z" fill="#4F457C"/>
    <path d="M132.525 162.29L130.554 163.183L134.195 170.836L136.166 169.944L132.525 162.29Z" fill="#4F457C"/>
    <path d="M129.128 167.028L127.158 167.921L130.799 175.575L132.769 174.682L129.128 167.028Z" fill="#4F457C"/>
    <path d="M125.732 171.768L123.761 172.661L127.402 180.315L129.373 179.422L125.732 171.768Z" fill="#4F457C"/>
    <path d="M121.904 175.59L119.934 176.482L123.511 184.002L125.481 183.109L121.904 175.59Z" fill="#4F457C"/>
    <path d="M143.324 152.553C146.072 152.553 148.3 150.379 148.3 147.698C148.3 145.016 146.072 142.843 143.324 142.843C140.576 142.843 138.349 145.016 138.349 147.698C138.349 150.379 140.576 152.553 143.324 152.553Z" fill="#88D1C3"/>
    <path d="M55.6228 183.291C49.3348 186.831 45.0892 195.07 44.1376 201.456C50.2778 203.843 59.7163 204.378 66.0043 200.833C68.3364 199.464 70.0246 197.257 70.7053 194.686C71.3861 192.114 71.005 189.385 69.6441 187.086C68.2831 184.786 66.0512 183.1 63.4288 182.39C60.8064 181.68 58.0033 182.004 55.6228 183.291Z" fill="#FF8080"/>
    <path d="M83.6209 185.725C83.5383 188.506 79.2232 191.288 79.2232 191.288C79.2232 191.288 77.5155 196.453 78.7887 196.274C80.0619 196.096 84.5813 192.31 84.5813 192.31L83.6209 185.725Z" fill="#4F457C"/>
    <path d="M406.359 200.663C403.152 198.445 400.545 196.079 400.466 197.826C400.388 199.573 400.466 215.241 400.466 215.241C400.466 215.241 382.558 210.106 375.997 201.413C369.435 192.721 367.245 188.213 366.641 184.388C366.037 180.564 364.72 179.788 362.678 177.952C360.635 176.116 351.814 166.978 352.022 159.981C352.231 152.985 356.915 146.23 365.893 146.069C374.871 145.908 391.097 146.107 399.154 152.853C407.211 159.6 408.036 158.79 411.826 159.214C415.615 159.638 425.966 163.276 429.916 169.297C433.866 175.318 429.143 173.236 429.143 173.236L418.474 175.191L406.359 200.663Z" fill="#88D1C3"/>
    <path d="M364.855 190.902C364.855 190.902 367.488 191.72 367.379 189.57C367.271 187.421 366.284 181.938 362.899 178.427C359.514 174.916 353.669 168.199 352.857 164.328C352.044 160.457 350.849 159.367 349.971 161.877C349.094 164.387 343.996 177.854 364.855 190.902Z" fill="#7996C9"/>
    <path d="M354.404 154.52C359.106 144.67 375.753 142.512 391.584 149.707C404.134 155.411 412.034 165.163 412.947 175.124L412.286 175.823C412.183 175.794 412.076 175.775 411.969 175.768C411.682 175.768 411.387 175.722 411.1 175.696C410.896 175.525 410.643 175.419 410.376 175.393C410.108 175.367 409.839 175.423 409.605 175.552C408.036 175.374 406.446 175.128 404.951 174.861C403.838 174.657 402.743 174.373 401.835 175.23C400.584 176.408 400.866 178.999 400.914 180.496C400.988 182.794 401.044 185.16 401.275 187.454L400.001 188.799C392.766 190.584 383.732 189.553 374.563 185.385C358.728 178.194 349.702 164.375 354.404 154.52Z" fill="white"/>
    <path d="M368.44 183.181C369.053 187.391 379.421 202.83 400.44 209.894L400.466 215.207C400.466 215.207 385.948 210.446 380.303 205.23C374.658 200.014 366.832 187.917 366.641 184.393C366.45 180.87 368.44 183.181 368.44 183.181Z" fill="white"/>
    <path d="M353.6 167.546L350.202 172.634C350.202 172.634 348.303 167.788 348.898 165.451C349.493 163.115 351.505 160.482 352.214 162.017C352.922 163.552 353.6 167.546 353.6 167.546Z" fill="white"/>
    <path d="M413.42 174.127C412.577 164.947 405.281 155.932 393.705 150.661C379.082 144.017 363.721 145.997 359.375 155.101C355.03 164.205 363.369 176.955 377.991 183.595C386.461 187.446 394.804 188.4 401.483 186.754" fill="#88D1C3"/>
    <path d="M414.172 181.267C410.444 179.503 404.577 177.833 401.396 177.116L400.91 180.508L411.422 186.784L414.172 181.267Z" fill="white"/>
    <path d="M429.143 173.246C426.618 169.523 418.77 163.103 407.849 161.267L406.342 158.426C406.342 158.426 418.37 159.21 425.379 165.083C432.389 170.956 432.971 173.148 429.143 173.246Z" fill="white"/>
    <path d="M392.783 191.058C386.7 191.058 380.082 189.532 373.542 186.56C365.524 182.917 358.884 177.553 354.856 171.46C350.684 165.155 349.763 158.79 352.248 153.549C354.734 148.308 360.331 144.894 367.966 143.953C375.354 143.041 383.819 144.547 391.836 148.193C404.742 154.058 413.407 164.307 414.433 174.984L411.391 175.268C410.448 165.646 402.452 156.305 390.533 150.886C383.028 147.494 375.141 146.061 368.323 146.904C361.765 147.71 357.024 150.517 354.982 154.804C352.939 159.091 353.787 164.434 357.372 169.853C361.1 175.484 367.284 180.454 374.789 183.875C383.51 187.836 392.292 189.066 399.528 187.331L400.249 190.215C397.804 190.786 395.298 191.069 392.783 191.058Z" fill="#4F457C"/>
    <path d="M392.327 146.616C397.007 148.743 400.63 152.597 402.398 157.33C404.167 162.063 403.936 167.287 401.757 171.854C399.254 177.104 389.077 177.761 379.534 173.428C369.991 169.094 363.96 161.067 366.463 155.818C368.643 151.252 372.593 147.718 377.443 145.992C382.293 144.267 387.647 144.491 392.327 146.616Z" fill="#88D1C3"/>
    <path d="M394.226 149.462C396.279 150.394 398.123 151.712 399.653 153.339C401.184 154.967 402.371 156.873 403.146 158.949C403.922 161.024 404.271 163.228 404.174 165.436C404.076 167.643 403.534 169.809 402.578 171.812C400.358 176.476 391.345 177.045 382.893 173.207C374.441 169.37 369.096 162.259 371.317 157.611C372.272 155.608 373.623 153.808 375.291 152.314C376.96 150.82 378.914 149.662 381.041 148.905C383.169 148.148 385.428 147.808 387.69 147.903C389.953 147.999 392.174 148.528 394.226 149.462Z" fill="#4F457C"/>
    <path d="M368.535 193.641C352.431 185.788 343.666 171.557 348.585 161.249L352.261 153.549L355.016 154.8L351.34 162.504C349.359 166.664 350.106 171.854 353.448 177.121C356.924 182.578 362.756 187.505 369.896 190.986L368.535 193.641Z" fill="#4F457C"/>
    <path d="M391.797 178.872C387.16 178.787 382.597 177.728 378.417 175.768C367.553 170.841 361.152 161.775 364.12 155.533C366.555 150.442 370.96 146.502 376.369 144.578C381.779 142.654 387.75 142.904 392.97 145.272C398.189 147.647 402.228 151.947 404.2 157.226C406.172 162.505 405.915 168.333 403.487 173.427C401.992 176.565 398.415 178.482 393.427 178.825C392.892 178.855 392.349 178.872 391.797 178.872ZM383.832 146.26C380.273 146.258 376.787 147.247 373.784 149.113C370.782 150.978 368.388 153.641 366.884 156.789C364.711 161.368 370.687 168.984 379.703 173.08C384.21 175.124 389.129 176.141 393.218 175.857C396.999 175.598 399.736 174.254 400.736 172.168C402.814 167.789 403.028 162.785 401.331 158.252C399.634 153.719 396.165 150.027 391.684 147.986C389.228 146.856 386.547 146.266 383.832 146.26Z" fill="#4F457C"/>
    <path d="M415.524 177.85L415.033 174.924L430.507 172.452C426.548 167.012 419.5 160.698 404.542 159.774L404.734 156.806C422.855 157.925 430.324 166.444 434.366 172.758C434.499 172.965 434.577 173.201 434.594 173.445C434.611 173.689 434.566 173.933 434.462 174.156C434.359 174.379 434.201 174.573 434.002 174.722C433.804 174.871 433.57 174.97 433.323 175.009L415.524 177.85Z" fill="#4F457C"/>
    <path d="M421.515 193.743C424.52 187.447 424.168 181.075 420.728 179.512C417.288 177.949 412.064 181.787 409.059 188.083C406.054 194.38 406.406 200.751 409.846 202.314C413.286 203.877 418.51 200.04 421.515 193.743Z" fill="#4F457C"/>
    <path d="M411.521 204.144C410.721 204.147 409.93 203.978 409.205 203.648C407.032 202.652 405.698 200.307 405.52 197.046C405.359 194.116 406.129 190.707 407.693 187.446C409.249 184.181 411.43 181.416 413.829 179.652C416.501 177.685 419.187 177.155 421.381 178.151C425.649 180.093 426.318 187.208 422.907 194.358C421.351 197.623 419.169 200.387 416.771 202.151C414.954 203.47 413.16 204.144 411.521 204.144ZM419.052 180.636C418.066 180.636 416.879 181.111 415.637 182.023C413.629 183.498 411.778 185.868 410.422 188.697C409.075 191.529 408.406 194.434 408.54 196.885C408.658 198.967 409.362 200.455 410.474 200.96C411.587 201.464 413.207 201.036 414.915 199.781C416.923 198.305 418.774 195.935 420.13 193.107C422.959 187.17 422.372 181.887 420.082 180.844C419.759 180.701 419.407 180.63 419.052 180.636Z" fill="#4F457C"/>
    <path d="M400.466 216.725C400.331 216.726 400.196 216.708 400.067 216.67C379.769 211.247 364.346 195.494 364.95 180.81L367.992 180.929C367.723 187.383 370.999 194.341 377.213 200.511C382.967 206.222 390.619 210.687 398.941 213.253L398.815 188.774C398.813 188.75 398.813 188.725 398.815 188.701C398.945 182.125 398.815 174.378 398.815 174.284C398.808 173.919 398.94 173.563 399.185 173.287C399.431 173.011 399.773 172.833 400.145 172.788C405.959 172.063 415.285 173.212 422.42 178.779L420.521 181.094C414.65 176.506 407.119 175.272 401.879 175.607C401.909 178.152 401.957 183.8 401.879 188.778L402.013 215.216C402.014 215.411 401.975 215.605 401.899 215.786C401.823 215.967 401.711 216.131 401.57 216.27C401.428 216.408 401.261 216.518 401.076 216.594C400.891 216.669 400.693 216.708 400.492 216.709L400.466 216.725Z" fill="#4F457C"/>
    <path d="M409.297 203.691C405.412 202.23 401.964 199.844 399.267 196.749L401.666 194.922C404.023 197.574 407.005 199.628 410.357 200.905L409.297 203.691Z" fill="#4F457C"/>
    <path d="M345.562 151.513L344.278 154.204L352.215 157.811L353.5 155.12L345.562 151.513Z" fill="#4F457C"/>
    <path d="M352.843 166.161L349.202 173.814L351.173 174.707L354.814 167.053L352.843 166.161Z" fill="#4F457C"/>
    <path d="M356.238 170.899L352.597 178.553L354.568 179.445L358.209 171.792L356.238 170.899Z" fill="#4F457C"/>
    <path d="M359.635 175.647L355.995 183.301L357.965 184.193L361.606 176.54L359.635 175.647Z" fill="#4F457C"/>
    <path d="M363.467 179.467L359.89 186.986L361.861 187.879L365.438 180.36L363.467 179.467Z" fill="#4F457C"/>
    <path d="M342.063 156.45C344.81 156.45 347.038 154.276 347.038 151.594C347.038 148.913 344.81 146.739 342.063 146.739C339.315 146.739 337.087 148.913 337.087 151.594C337.087 154.276 339.315 156.45 342.063 156.45Z" fill="#88D1C3"/>
    <path d="M429.747 187.187C436.035 190.728 440.28 198.971 441.232 205.353C435.092 207.74 425.653 208.274 419.365 204.734C416.981 203.39 415.241 201.178 414.528 198.582C413.815 195.987 414.188 193.222 415.565 190.895C416.942 188.569 419.209 186.871 421.869 186.175C424.528 185.48 427.362 185.844 429.747 187.187Z" fill="#FF8080"/>
    <path d="M401.766 189.638C401.848 192.419 406.163 195.205 406.163 195.205C406.163 195.205 407.871 200.366 406.598 200.188C405.325 200.009 400.805 196.223 400.805 196.223L401.766 189.638Z" fill="#4F457C"/>
    <path d="M179.036 85.3481C179.036 86.141 179.358 86.9013 179.933 87.462C180.507 88.0226 181.287 88.3375 182.099 88.3375H186.688V138.072C186.688 138.464 186.767 138.853 186.921 139.216C187.075 139.578 187.301 139.908 187.585 140.186C187.87 140.463 188.208 140.683 188.579 140.834C188.951 140.984 189.349 141.061 189.752 141.061H303.248C304.057 141.056 304.831 140.738 305.4 140.178C305.97 139.618 306.29 138.861 306.29 138.072V88.3375H310.879C311.688 88.3319 312.461 88.0145 313.031 87.4545C313.601 86.8945 313.921 86.1373 313.921 85.3481C313.921 84.5586 313.601 83.8009 313.031 83.2403C312.462 82.6796 311.688 82.3612 310.879 82.3545H182.099C181.286 82.3556 180.507 82.6715 179.933 83.2328C179.358 83.7941 179.036 84.5549 179.036 85.3481Z" fill="#4F457C"/>
    <path d="M280.882 135.083V131.292C280.882 130.711 280.646 130.154 280.225 129.743C279.805 129.332 279.235 129.101 278.64 129.1H214.361C213.765 129.101 213.195 129.332 212.775 129.743C212.354 130.154 212.118 130.711 212.118 131.292V135.083H208.607C208.012 135.083 207.442 135.313 207.021 135.724C206.601 136.134 206.365 136.69 206.365 137.271V141.061H286.635V137.271C286.635 136.69 286.399 136.134 285.979 135.724C285.558 135.313 284.988 135.083 284.393 135.083H280.882Z" fill="#7996C9"/>
    <path d="M283.572 86.0908H209.428C207.736 86.0908 206.365 87.4292 206.365 89.0802C206.365 90.7312 207.736 92.0696 209.428 92.0696H283.572C285.264 92.0696 286.635 90.7312 286.635 89.0802C286.635 87.4292 285.264 86.0908 283.572 86.0908Z" fill="#7996C9"/>
    <path d="M290.09 71.0625H202.91C201.218 71.0625 199.846 72.4009 199.846 74.0519C199.846 75.7029 201.218 77.0413 202.91 77.0413H290.09C291.782 77.0413 293.154 75.7029 293.154 74.0519C293.154 72.4009 291.782 71.0625 290.09 71.0625Z" fill="#4F457C"/>
    <path d="M199.412 116.607C200.594 116.607 201.728 117.066 202.565 117.882C203.401 118.698 203.87 119.804 203.87 120.958V129.439C203.87 129.978 203.651 130.496 203.259 130.878C202.868 131.259 202.338 131.474 201.785 131.474H197.039C196.486 131.474 195.955 131.259 195.564 130.878C195.173 130.496 194.953 129.978 194.953 129.439V120.958C194.953 119.804 195.423 118.698 196.259 117.882C197.095 117.066 198.229 116.607 199.412 116.607Z" fill="#7996C9"/>
    <path d="M199.416 95.5586H199.412C196.95 95.5586 194.953 97.5064 194.953 99.9091V106.087C194.953 108.49 196.95 110.438 199.412 110.438H199.416C201.879 110.438 203.875 108.49 203.875 106.087V99.9091C203.875 97.5064 201.879 95.5586 199.416 95.5586Z" fill="#7996C9"/>
    <path d="M295.961 131.521H291.216C290.662 131.521 290.132 131.306 289.741 130.924C289.349 130.543 289.13 130.025 289.13 129.485V121.005C289.13 119.851 289.599 118.744 290.436 117.928C291.272 117.112 292.406 116.654 293.588 116.654C294.771 116.654 295.905 117.112 296.741 117.928C297.577 118.744 298.047 119.851 298.047 121.005V129.485C298.047 130.025 297.827 130.543 297.436 130.924C297.045 131.306 296.514 131.521 295.961 131.521Z" fill="#7996C9"/>
    <path d="M293.588 110.434H293.593C296.055 110.434 298.051 108.486 298.051 106.083V99.905C298.051 97.5022 296.055 95.5544 293.593 95.5544H293.588C291.126 95.5544 289.13 97.5022 289.13 99.905V106.083C289.13 108.486 291.126 110.434 293.588 110.434Z" fill="#7996C9"/>
    <path d="M246.5 51.1211C237.961 51.1211 229.772 54.431 223.734 60.3227C217.696 66.2144 214.304 74.2052 214.304 82.5373H278.696C278.696 74.2052 275.304 66.2144 269.266 60.3227C263.228 54.431 255.039 51.1211 246.5 51.1211Z" fill="#4F457C"/>
    <path d="M221.813 96.1523C222.255 96.1523 222.693 96.2373 223.102 96.4025C223.511 96.5676 223.882 96.8097 224.195 97.1149C224.507 97.42 224.755 97.7823 224.925 98.181C225.094 98.5797 225.181 99.007 225.181 99.4386V129.82H218.45V99.4343C218.451 98.5642 218.806 97.7301 219.436 97.1149C220.067 96.4996 220.921 96.1535 221.813 96.1523Z" fill="#7996C9"/>
    <path d="M238.27 96.1523C239.163 96.1523 240.019 96.4986 240.651 97.1149C241.283 97.7311 241.637 98.567 241.637 99.4386V129.82H234.906V99.4343C234.907 98.5642 235.262 97.7301 235.893 97.1149C236.523 96.4996 237.378 96.1535 238.27 96.1523Z" fill="#7996C9"/>
    <path d="M254.73 96.1523C255.624 96.1523 256.48 96.4986 257.112 97.1149C257.743 97.7311 258.098 98.567 258.098 99.4386V129.82H251.363V99.4343C251.364 98.5635 251.719 97.7287 252.351 97.1134C252.982 96.498 253.838 96.1523 254.73 96.1523Z" fill="#7996C9"/>
    <path d="M274.555 129.816H267.824V99.439C267.824 98.5675 268.178 97.7316 268.81 97.1153C269.441 96.499 270.298 96.1528 271.191 96.1528C272.084 96.1528 272.941 96.499 273.573 97.1153C274.204 97.7316 274.559 98.5675 274.559 99.439V129.816H274.555Z" fill="#7996C9"/>
    <path d="M248.338 41.6777H244.657V53.9746H248.338V41.6777Z" fill="#4F457C"/>
    <path d="M246.5 43.1531C249.502 43.1531 251.936 40.7782 251.936 37.8485C251.936 34.9189 249.502 32.5439 246.5 32.5439C243.498 32.5439 241.064 34.9189 241.064 37.8485C241.064 40.7782 243.498 43.1531 246.5 43.1531Z" fill="#4F457C"/>
    <path d="M244.653 82.3543V57.1416C243.119 58.5133 241.725 60.0271 240.49 61.6617C236.062 67.5091 233.746 74.4674 233.594 82.3543H244.653Z" fill="#7996C9"/>
    <path d="M238.934 57.7529C233.514 59.3406 228.762 62.5902 225.383 67.0201C222.004 71.45 220.178 76.8243 220.175 82.3466H229.909C230.122 70.5798 234.758 62.5826 238.934 57.7529Z" fill="#7996C9"/>
    <path d="M157.451 124.067C158.171 124.067 158.755 123.497 158.755 122.795C158.755 122.092 158.171 121.522 157.451 121.522C156.731 121.522 156.148 122.092 156.148 122.795C156.148 123.497 156.731 124.067 157.451 124.067Z" fill="#88D1C3"/>
    <path d="M187.401 160.584C188.373 160.584 189.161 159.815 189.161 158.867C189.161 157.918 188.373 157.149 187.401 157.149C186.429 157.149 185.641 157.918 185.641 158.867C185.641 159.815 186.429 160.584 187.401 160.584Z" fill="#88D1C3"/>
    <path d="M210.224 169.345C210.574 169.345 210.858 169.067 210.858 168.726C210.858 168.384 210.574 168.106 210.224 168.106C209.873 168.106 209.589 168.384 209.589 168.726C209.589 169.067 209.873 169.345 210.224 169.345Z" fill="#88D1C3"/>
    <path d="M460.695 125.482C461.046 125.482 461.33 125.205 461.33 124.863C461.33 124.521 461.046 124.244 460.695 124.244C460.345 124.244 460.061 124.521 460.061 124.863C460.061 125.205 460.345 125.482 460.695 125.482Z" fill="#88D1C3"/>
    <path d="M369.218 33.163C369.568 33.163 369.852 32.8858 369.852 32.5439C369.852 32.202 369.568 31.9248 369.218 31.9248C368.867 31.9248 368.583 32.202 368.583 32.5439C368.583 32.8858 368.867 33.163 369.218 33.163Z" fill="#88D1C3"/>
    <path d="M187.401 185.737C188.596 185.737 189.565 184.792 189.565 183.625C189.565 182.459 188.596 181.514 187.401 181.514C186.206 181.514 185.237 182.459 185.237 183.625C185.237 184.792 186.206 185.737 187.401 185.737Z" fill="#88D1C3"/>
    <path d="M90.6434 124.067C91.3634 124.067 91.947 123.497 91.947 122.795C91.947 122.092 91.3634 121.522 90.6434 121.522C89.9234 121.522 89.3397 122.092 89.3397 122.795C89.3397 123.497 89.9234 124.067 90.6434 124.067Z" fill="#88D1C3"/>
    <path d="M54.9187 135.082C55.9339 135.082 56.7569 134.279 56.7569 133.289C56.7569 132.298 55.9339 131.495 54.9187 131.495C53.9035 131.495 53.0806 132.298 53.0806 133.289C53.0806 134.279 53.9035 135.082 54.9187 135.082Z" fill="#88D1C3"/>
    <path d="M131.543 215.368C132.551 215.368 133.368 214.571 133.368 213.588C133.368 212.604 132.551 211.807 131.543 211.807C130.535 211.807 129.718 212.604 129.718 213.588C129.718 214.571 130.535 215.368 131.543 215.368Z" fill="#88D1C3"/>
    <path d="M179.553 237.803C180.717 237.803 181.66 236.883 181.66 235.747C181.66 234.611 180.717 233.69 179.553 233.69C178.389 233.69 177.445 234.611 177.445 235.747C177.445 236.883 178.389 237.803 179.553 237.803Z" fill="#88D1C3"/>
    <path d="M320.617 190.456C321.748 190.456 322.664 189.562 322.664 188.459C322.664 187.356 321.748 186.462 320.617 186.462C319.487 186.462 318.571 187.356 318.571 188.459C318.571 189.562 319.487 190.456 320.617 190.456Z" fill="#88D1C3"/>
    <path d="M347.038 213.943C348.785 213.943 350.202 212.561 350.202 210.856C350.202 209.152 348.785 207.77 347.038 207.77C345.291 207.77 343.875 209.152 343.875 210.856C343.875 212.561 345.291 213.943 347.038 213.943Z" fill="#88D1C3"/>
    <path d="M306.442 162.725C307.107 162.725 307.646 162.199 307.646 161.551C307.646 160.902 307.107 160.376 306.442 160.376C305.777 160.376 305.239 160.902 305.239 161.551C305.239 162.199 305.777 162.725 306.442 162.725Z" fill="#88D1C3"/>
    <path d="M336.413 124.868C337.587 124.868 338.538 123.939 338.538 122.794C338.538 121.649 337.587 120.721 336.413 120.721C335.24 120.721 334.288 121.649 334.288 122.794C334.288 123.939 335.24 124.868 336.413 124.868Z" fill="#88D1C3"/>
    <path d="M382.68 127.459C383.16 127.459 383.549 127.079 383.549 126.611C383.549 126.142 383.16 125.763 382.68 125.763C382.2 125.763 381.811 126.142 381.811 126.611C381.811 127.079 382.2 127.459 382.68 127.459Z" fill="#88D1C3"/>
    <path d="M284.106 30.5853C285.388 30.5853 286.427 29.5715 286.427 28.321C286.427 27.0704 285.388 26.0566 284.106 26.0566C282.825 26.0566 281.786 27.0704 281.786 28.321C281.786 29.5715 282.825 30.5853 284.106 30.5853Z" fill="#88D1C3"/>
    <path d="M287.622 48.7849C288.315 48.7849 288.878 48.2362 288.878 47.5594C288.878 46.8826 288.315 46.334 287.622 46.334C286.928 46.334 286.366 46.8826 286.366 47.5594C286.366 48.2362 286.928 48.7849 287.622 48.7849Z" fill="#88D1C3"/>
    <path d="M384.149 51.7482C385.553 51.7482 386.691 50.6377 386.691 49.2677C386.691 47.8977 385.553 46.7871 384.149 46.7871C382.745 46.7871 381.607 47.8977 381.607 49.2677C381.607 50.6377 382.745 51.7482 384.149 51.7482Z" fill="#88D1C3"/>
    <path d="M201.333 42.7589C202.722 42.7589 203.849 41.6597 203.849 40.3038C203.849 38.9478 202.722 37.8486 201.333 37.8486C199.943 37.8486 198.817 38.9478 198.817 40.3038C198.817 41.6597 199.943 42.7589 201.333 42.7589Z" fill="#88D1C3"/>
    <path d="M228.301 20.9766C228.992 20.9766 229.552 20.4298 229.552 19.7554C229.552 19.0809 228.992 18.5342 228.301 18.5342C227.61 18.5342 227.049 19.0809 227.049 19.7554C227.049 20.4298 227.61 20.9766 228.301 20.9766Z" fill="#88D1C3"/>
    <path d="M124.495 51.7484C125.366 51.7484 126.072 51.0592 126.072 50.2091C126.072 49.3591 125.366 48.6699 124.495 48.6699C123.624 48.6699 122.918 49.3591 122.918 50.2091C122.918 51.0592 123.624 51.7484 124.495 51.7484Z" fill="#88D1C3"/>
    <path d="M78.3237 53.3596C79.5909 53.3596 80.6182 52.3572 80.6182 51.1207C80.6182 49.8842 79.5909 48.8818 78.3237 48.8818C77.0566 48.8818 76.0293 49.8842 76.0293 51.1207C76.0293 52.3572 77.0566 53.3596 78.3237 53.3596Z" fill="#88D1C3"/>
    <path d="M139.461 26.0527C140.191 26.0527 140.782 25.4756 140.782 24.7637C140.782 24.0517 140.191 23.4746 139.461 23.4746C138.731 23.4746 138.14 24.0517 138.14 24.7637C138.14 25.4756 138.731 26.0527 139.461 26.0527Z" fill="#88D1C3"/>
</svg>
