<svg width="152" height="127" viewBox="0 0 152 127" fill="none" xmlns="http://www.w3.org/2000/svg">
<g clip-path="url(#clip0)">
<g clip-path="url(#clip1)">
<g clip-path="url(#clip2)">
<path d="M66.9092 90.6665V90.9504C64.4475 91.5645 62.2346 93.1984 60.6446 95.576C59.0545 97.9535 58.1846 100.929 58.1819 104C58.182 107.073 59.0507 110.052 60.641 112.432C62.2313 114.812 64.4456 116.448 66.9092 117.063V117.333H69.091C71.9842 117.333 74.759 115.928 76.8049 113.428C78.8507 110.927 80.0001 107.536 80.0001 104C80.0001 100.464 78.8507 97.0722 76.8049 94.5717C74.759 92.0713 71.9842 90.6665 69.091 90.6665H66.9092Z" fill="#B5B5B5"/>
<path d="M77.8184 104C77.8184 105.751 77.5363 107.485 76.988 109.102C76.4398 110.72 75.6362 112.19 74.6232 113.428C73.6102 114.666 72.4076 115.648 71.0841 116.318C69.7605 116.988 68.3419 117.333 66.9093 117.333C65.4767 117.333 64.0582 116.988 62.7346 116.318C61.4111 115.648 60.2084 114.666 59.1954 113.428C58.1824 112.19 57.3789 110.72 56.8306 109.102C56.2824 107.485 56.0002 105.751 56.0002 104C56.0002 100.464 57.1496 97.0722 59.1954 94.5717C61.2413 92.0713 64.0161 90.6665 66.9093 90.6665C69.8026 90.6665 72.5774 92.0713 74.6232 94.5717C76.6691 97.0722 77.8184 100.464 77.8184 104V104Z" fill="#D3D1D1"/>
<path d="M62.8289 92C60.9805 93.0881 59.4207 94.7913 58.3284 96.9139C57.2361 99.0365 56.6557 101.492 56.6538 104C56.6566 106.509 57.2386 108.966 58.3327 111.089C59.4268 113.211 60.9888 114.914 62.839 116H67.5629V114.667C67.3569 114.667 67.151 114.658 66.9456 114.64C66.6553 114.615 66.3663 114.572 66.0795 114.511C65.7928 114.451 65.5087 114.373 65.2284 114.278C64.948 114.183 64.6717 114.071 64.4005 113.942C64.1293 113.813 63.8636 113.668 63.6043 113.506C63.3449 113.345 63.0924 113.168 62.8475 112.976C62.6027 112.784 62.3659 112.577 62.1379 112.356C61.91 112.134 61.6913 111.9 61.4825 111.652C61.2738 111.404 61.0753 111.144 60.8879 110.872C60.7005 110.6 60.5243 110.316 60.36 110.023C60.1957 109.729 60.0435 109.426 59.904 109.114C59.7645 108.802 59.6378 108.481 59.5245 108.154C59.4112 107.826 59.3114 107.492 59.2255 107.152C59.1395 106.812 59.0674 106.468 59.0096 106.119C58.9518 105.771 58.9083 105.419 58.8793 105.065C58.8502 104.711 58.8356 104.356 58.8356 104C58.8356 103.748 58.8429 103.497 58.8575 103.245C58.8781 102.891 58.9132 102.537 58.9626 102.187C59.0121 101.837 59.0759 101.489 59.1537 101.147C59.2315 100.804 59.3233 100.466 59.4287 100.135C59.5342 99.8034 59.6531 99.4786 59.7851 99.1617C59.917 98.8447 60.0619 98.536 60.2191 98.2368C60.3763 97.9375 60.5457 97.6481 60.7266 97.3695C60.9074 97.0909 61.0996 96.8236 61.3024 96.5684C61.5051 96.3133 61.7181 96.0708 61.9406 95.8417C62.1632 95.6126 62.395 95.3972 62.6351 95.1965C62.8753 94.9956 63.1235 94.8096 63.3788 94.6391C63.6342 94.4686 63.8964 94.3138 64.1644 94.1753C64.4324 94.0368 64.7059 93.9148 64.9838 93.8097C65.2618 93.7046 65.5439 93.6166 65.829 93.5459C66.1142 93.4753 66.4021 93.4221 66.6916 93.3866C66.9811 93.3511 67.2719 93.3333 67.5629 93.3333V92H62.8289Z" fill="#B5B5B5"/>
<path d="M66.9086 90.7998C64.0443 90.7998 61.2973 92.1905 59.2719 94.666C57.2465 97.1415 56.1086 100.499 56.1086 104C56.1086 107.501 57.2465 110.858 59.2719 113.334C61.2973 115.809 64.0443 117.2 66.9086 117.2C69.773 117.2 72.52 115.809 74.5454 113.334C76.5708 110.858 77.7086 107.501 77.7086 104C77.7086 102.266 77.4293 100.55 76.8865 98.9484C76.3438 97.3469 75.5483 95.8917 74.5454 94.666C73.5425 93.4403 72.3519 92.468 71.0416 91.8046C69.7313 91.1412 68.3269 90.7998 66.9086 90.7998V90.7998ZM66.9086 93.4398C67.1967 93.4398 67.4846 93.4574 67.7712 93.4926C68.0578 93.5277 68.3428 93.5804 68.6252 93.6503C68.9075 93.7203 69.1867 93.8074 69.4619 93.9115C69.7371 94.0155 70.0079 94.1363 70.2732 94.2734C70.5385 94.4105 70.7981 94.5638 71.0509 94.7326C71.3037 94.9014 71.5494 95.0855 71.7871 95.2843C72.0249 95.4831 72.2544 95.6963 72.4747 95.9231C72.695 96.1499 72.9059 96.39 73.1066 96.6426C73.3073 96.8951 73.4975 97.1598 73.6766 97.4356C73.8557 97.7114 74.0233 97.9979 74.179 98.2942C74.3346 98.5905 74.478 98.8961 74.6087 99.2099C74.7394 99.5236 74.8571 99.8452 74.9615 100.173C75.0658 100.501 75.1567 100.836 75.2338 101.175C75.3108 101.514 75.374 101.858 75.4229 102.205C75.4719 102.552 75.5066 102.902 75.527 103.253C75.5414 103.501 75.5486 103.751 75.5486 104C75.5486 104.352 75.5342 104.704 75.5054 105.054C75.4767 105.404 75.4336 105.753 75.3764 106.098C75.3192 106.443 75.2479 106.784 75.1627 107.12C75.0776 107.457 74.9788 107.788 74.8666 108.112C74.7544 108.436 74.629 108.754 74.4909 109.063C74.3528 109.371 74.2022 109.672 74.0395 109.962C73.8769 110.253 73.7024 110.533 73.5169 110.803C73.3313 111.072 73.1348 111.33 72.9282 111.575C72.7216 111.82 72.505 112.053 72.2794 112.272C72.0537 112.491 71.8193 112.696 71.5769 112.886C71.3345 113.076 71.0844 113.251 70.8277 113.411C70.571 113.571 70.3079 113.715 70.0394 113.842C69.7709 113.97 69.4974 114.081 69.2198 114.175C68.9423 114.269 68.661 114.346 68.3772 114.406C68.0933 114.466 67.8071 114.508 67.5198 114.533C67.3164 114.551 67.1125 114.56 66.9086 114.56C66.6206 114.56 66.3327 114.542 66.0461 114.507C65.7594 114.472 65.4744 114.419 65.1921 114.349C64.9098 114.279 64.6305 114.192 64.3554 114.088C64.0802 113.984 63.8094 113.863 63.5441 113.726C63.2788 113.589 63.0192 113.436 62.7664 113.267C62.5136 113.098 62.2679 112.914 62.0302 112.715C61.7924 112.517 61.5629 112.303 61.3426 112.077C61.1223 111.85 60.9114 111.61 60.7107 111.357C60.51 111.104 60.3197 110.84 60.1407 110.564C59.9616 110.288 59.7939 110.002 59.6383 109.705C59.4827 109.409 59.3392 109.104 59.2086 108.79C59.0779 108.476 58.9602 108.154 58.8558 107.826C58.7514 107.498 58.6606 107.164 58.5835 106.825C58.5065 106.485 58.4433 106.142 58.3944 105.795C58.3454 105.448 58.3107 105.098 58.2903 104.747C58.2759 104.498 58.2687 104.249 58.2686 104C58.2687 103.648 58.2831 103.296 58.3118 102.946C58.3406 102.595 58.3836 102.247 58.4409 101.902C58.4981 101.557 58.5694 101.215 58.6546 100.879C58.7397 100.543 58.8385 100.212 58.9506 99.8876C59.0628 99.5633 59.1882 99.2461 59.3264 98.9371C59.4645 98.6281 59.6151 98.3278 59.7778 98.0372C59.9404 97.7466 60.1148 97.4662 60.3004 97.1969C60.486 96.9276 60.6824 96.6698 60.8891 96.4246C61.0957 96.1792 61.3123 95.9467 61.5379 95.7278C61.7636 95.509 61.998 95.3041 62.2404 95.1138C62.4828 94.9236 62.7329 94.7483 62.9896 94.5886C63.2463 94.4289 63.5094 94.285 63.7779 94.1575C64.0464 94.0299 64.3199 93.9188 64.5974 93.8247C64.875 93.7305 65.1562 93.6533 65.4401 93.5935C65.724 93.5336 66.0102 93.4912 66.2975 93.4663C66.5009 93.4487 66.7047 93.4398 66.9086 93.4398V93.4398Z" fill="#E1E1E1" stroke="#B6B6B6" stroke-width="0.234668"/>
</g>
<path d="M63.0098 100.92C63.0227 100.762 62.9742 100.606 62.8794 100.5L61.9134 99.0545V98.8386H64.9129L67.2313 105.154L69.2696 98.8386H72.129V99.0545L71.3031 100.038C71.2318 100.105 71.1965 100.216 71.2113 100.326V107.552C71.1965 107.662 71.2318 107.773 71.3031 107.84L72.1097 108.824V109.04H68.0524V108.824L68.888 107.816C68.9701 107.714 68.9701 107.684 68.9701 107.528V101.687L66.6469 109.016H66.3329L63.6281 101.687V106.599C63.6055 106.805 63.6607 107.013 63.7778 107.163L64.8646 108.8V109.016H61.783V108.8L62.8697 107.163C62.9859 107.013 63.0379 106.804 63.0098 106.599V100.92Z" fill="#B5B5B5"/>
<path d="M66.8481 105.189L68.8606 98.9536H71.5213V99.0126L70.7262 99.9595C70.63 100.054 70.5877 100.197 70.6036 100.333V107.545C70.5877 107.681 70.6298 107.824 70.7256 107.918L71.502 108.865V108.925H67.6747V108.865L68.4839 107.89L68.4839 107.89L68.4849 107.888C68.5286 107.834 68.5619 107.786 68.5785 107.721C68.5925 107.667 68.5925 107.607 68.5925 107.54C68.5925 107.536 68.5924 107.532 68.5924 107.528V101.687L68.3678 101.653L66.07 108.901H65.9204L63.2433 101.647L63.0204 101.687V106.593C62.9969 106.822 63.0576 107.057 63.1917 107.23L64.2569 108.835V108.901H61.4053V108.835L62.4706 107.23C62.6041 107.056 62.6614 106.82 62.6321 106.591V100.924C62.6456 100.743 62.5915 100.56 62.4781 100.43L61.5357 99.0196V98.9536H64.3399L66.6307 105.193L66.7456 105.506L66.8481 105.189Z" fill="#E1E1E1" stroke="#B6B6B6" stroke-width="0.23"/>
</g>
<path d="M82.5 102.5L93.5 92.5L86.5 80.5" stroke="#7996C9" stroke-width="3"/>
<circle cx="82.5" cy="102.5" r="3.5" fill="#7996C9"/>
<path d="M54 102.5L43 92.5L50 80.5" stroke="#7996C9" stroke-width="3"/>
<circle r="3.5" transform="matrix(-1 0 0 1 54 102.5)" fill="#7996C9"/>
<path d="M106.439 45.197L117.041 26.5893C107.615 24.5268 91.5254 23.5429 80.4151 28.2583" fill="#88D1C3"/>
<path d="M63.5069 84.5831C40.2008 83.3461 22.1077 73.1602 23.095 61.8321C24.0821 50.5041 43.776 42.3237 67.0821 43.5607C90.3882 44.7977 108.481 54.9838 107.494 66.3117C106.507 77.6398 86.813 85.8201 63.5069 84.5831Z" fill="#7996C9"/>
<path d="M64.6086 71.8938C41.3026 70.6568 23.2097 60.4707 24.1968 49.1428C25.1842 37.8147 44.8777 29.6341 68.1837 30.8712C91.4898 32.1082 109.583 42.2941 108.596 53.6222C107.608 64.9503 87.9147 73.1308 64.6086 71.8938Z" fill="white"/>
<path d="M69.636 66.3924C48.8286 65.2881 32.5592 57.5274 33.2973 49.0586C34.0354 40.5897 51.5012 34.6195 72.3086 35.7238C93.1157 36.8282 109.385 44.5889 108.647 53.0577C107.909 61.5266 90.4431 67.4968 69.636 66.3924Z" fill="#88D1C3"/>
<path d="M38.0704 65.8198L37.0777 77.1646C37.0777 77.1646 33.786 76.5231 32.1424 75.2902C30.4991 74.0572 23.6625 69.3956 24.1029 63.3708C24.5434 57.3463 24.9809 55.3515 27.0869 57.619C29.1925 59.8865 38.0704 65.8198 38.0704 65.8198Z" fill="white"/>
<path d="M90.2386 69.151C96.4327 67.294 98.8713 65.8413 102.087 63.2302C105.303 60.6194 105.555 62.1512 108.749 63.5846C111.943 65.0176 126.746 80.7484 126.746 80.7484C126.746 80.7484 119.374 85.2399 108.293 84.6523C97.2127 84.0646 69.6323 80.3148 67.6303 75.6383C65.6282 70.9618 69.0807 73.6807 75.388 72.4768C81.6952 71.2733 90.2386 69.151 90.2386 69.151Z" fill="#88D1C3"/>
<path d="M115.259 28.0403C103.901 27.7904 91.5484 28.4152 86.3469 32.5009C86.3469 32.5009 80.7376 28.7588 81.5157 27.8074C82.2936 26.8561 107.386 24.9116 112.836 25.8012C118.285 26.691 115.259 28.0403 115.259 28.0403Z" fill="white"/>
<path d="M96.4286 48.2413C102.873 46.9508 108.598 46.3549 112.959 46.394C117.319 46.4331 119.043 46.4171 119.621 48.1091C120.199 49.8009 120.666 61.2032 119.19 63.2591C117.713 65.315 113.847 65.2528 111.515 63.2469C109.184 61.2409 108.53 59.9 103.252 57.7425C97.9736 55.585 88.5006 51.5819 96.4286 48.2413Z" fill="#88D1C3"/>
<path d="M119.437 50.4918C111.878 49.9913 104.25 50.5939 96.8043 52.2793L100.911 55.1954L120.477 56.2295L119.437 50.4918Z" fill="white"/>
<path d="M123.766 79.4842C116.557 80.2423 95.6742 82.3148 77.472 73.6112C77.472 73.6112 67.165 72.3225 66.0453 73.0053C64.9257 73.6881 79.4289 82.4901 94.1049 83.1866C108.781 83.8832 127.855 83.2288 123.766 79.4842Z" fill="white"/>
<path d="M43.2402 47.6095C42.0941 60.7549 90.7458 63.337 91.8728 50.2061C92.2025 44.0229 90.0601 38.0308 85.8985 33.4953C81.7369 28.9597 75.8815 26.2358 69.5694 25.8988C63.2568 25.5617 56.9817 27.638 52.0689 31.689C47.1561 35.7402 43.9902 41.4488 43.2402 47.6095Z" fill="#88D1C3"/>
<path fill-rule="evenodd" clip-rule="evenodd" d="M22.7959 53.8403L23.2163 49.0807C24.0579 40.3502 34.2294 33.1925 49.8436 30.2988C53.9498 26.5114 59.1411 24.0565 64.671 23.2872C70.2008 22.518 75.7841 23.4742 80.6175 26.0183C91.6712 21.7051 106.78 22.3932 116.572 24.3633C116.994 24.4499 117.388 24.6313 117.721 24.8937C118.055 25.1559 118.319 25.4919 118.493 25.8755C118.669 26.2682 118.748 26.6981 118.725 27.1313C118.702 27.5646 118.577 27.9901 118.36 28.3746L109.83 43.3654C112.305 43.242 114.781 43.2506 117.247 43.3913C122.111 43.6511 123.52 52.6702 122.974 58.9947C122.553 63.7544 121.326 67.6373 119.563 70.066L127.263 78.2341C127.611 78.6055 127.853 79.0614 127.965 79.5573C128.076 80.0535 128.054 80.5735 127.9 81.0667C127.746 81.56 127.465 82.0101 127.085 82.3735C126.705 82.7371 126.238 83.0014 125.73 83.1416C118.577 85.1474 102.647 87.6085 86.9715 84.8842L86.9894 84.9209C79.5136 86.5983 71.8625 87.2248 64.271 86.7806C39.5126 85.4602 20.9607 74.5941 22.0751 62.0209L22.4355 57.8824L22.7959 53.8403ZM37.3893 62.6338C30.4821 58.7555 26.8999 54.0653 27.3027 49.4203C27.8164 43.5675 34.7479 38.3346 45.423 35.4357C43.0143 39.0831 41.5609 43.2334 41.1956 47.5078C40.481 55.7108 53.4163 60.1004 66.5433 60.7832C74.4715 61.1979 82.564 60.2874 87.887 57.6913C89.6267 56.8992 91.1628 55.7218 92.3686 54.2553L103.757 60.3406C96.9722 66.8991 81.9119 70.7879 65.7349 69.9275C54.7909 69.329 44.7374 66.7577 37.3893 62.6338ZM53.146 32.6735C57.6767 28.8105 63.5383 26.8153 69.4427 27.1264C73.759 27.3604 77.8745 28.8159 81.2882 31.3157C84.7023 33.8157 87.2681 37.2527 88.6737 41.2088C86.7174 37.2189 83.447 34.0108 79.3696 32.0822C75.2918 30.1535 70.6346 29.6119 66.1196 30.5412C61.6046 31.4703 57.4835 33.8188 54.3954 37.2221C51.3074 40.6255 49.4244 44.8937 49.0386 49.3661C48.9024 50.9103 49.5954 52.2777 50.8557 53.4696C48.5744 52.472 45.0426 50.4749 45.2813 47.7269C45.7863 41.9508 48.6149 36.5362 53.146 32.6735ZM84.7727 28.84C93.5727 26.2839 105.029 26.4962 113.851 28.0333L106.014 41.7901C101.968 37.9283 95.8783 34.6584 88.3422 32.3825C87.2762 31.0884 86.0805 29.902 84.7727 28.84ZM94.8469 46.6901C94.7019 46.7431 94.5563 46.7928 94.4108 46.8422C94.3925 46.8482 94.3743 46.8545 94.3561 46.8608C94.2286 46.9043 94.1012 46.9477 93.9743 46.9942L93.9956 46.9838C93.8579 43.8413 93.1265 40.7685 91.8377 37.9199C96.2756 39.7026 99.9913 41.8937 102.673 44.3055C100.01 44.8994 97.3936 45.6969 94.8469 46.6901ZM118.799 58.7884C118.783 59.0342 118.752 59.2562 118.721 59.4771C118.704 59.6047 118.686 59.7319 118.671 59.8633L118.688 59.855C118.075 61.7278 116.583 62.2733 115.121 62.1872L111.874 62.0044L109.454 59.4395C108.524 58.4616 107.439 57.6372 106.236 56.996L94.8477 50.9107C95.0401 50.8426 95.2336 50.7772 95.4272 50.7115C95.6853 50.624 95.9434 50.5365 96.199 50.4437C101.003 48.6827 105.972 46.8615 116.837 47.4378C117.59 47.8498 119.369 52.2509 118.799 58.7884ZM122.941 79.7245L122.944 79.7282L122.961 79.7198C122.954 79.7213 122.948 79.7229 122.941 79.7245L106.99 62.7823C104.665 65.0564 101.962 66.9291 99.0054 68.3163C91.2678 72.0901 80.6237 74.1893 69.1029 74.0594C86.4459 85.1489 111.902 82.3943 122.941 79.7245ZM77.3042 82.451C77.3092 82.4528 77.3143 82.4545 77.3193 82.4562L77.3362 82.448C77.3255 82.449 77.3147 82.4501 77.3042 82.451C74.9992 81.679 72.7585 80.7467 70.5984 79.6612L70.3166 82.8603C72.6993 82.8265 75.0287 82.6834 77.3042 82.451ZM67.4281 82.8623C66.4895 82.8442 65.5453 82.8105 64.5947 82.7612L64.6119 82.7529C64.094 82.7247 63.5827 82.6823 63.07 82.6393C62.8067 82.6175 62.5432 82.5955 62.2781 82.5755L62.9604 74.7274C64.4997 75.9824 66.1297 77.1285 67.8386 78.1577L67.4281 82.8623ZM59.402 82.2884L59.4009 82.2986L59.4181 82.2902C59.4126 82.2896 59.4072 82.2891 59.402 82.2884L60.1666 73.509C58.4292 73.3138 56.7219 73.072 55.0444 72.7835L54.2863 81.5338C55.9581 81.8352 57.6634 82.0867 59.402 82.2884ZM51.4409 80.9416L51.44 80.9536L51.457 80.9453C51.4518 80.944 51.4464 80.9428 51.4409 80.9416L52.2016 72.2315C50.4475 71.8726 48.7664 71.4578 47.1265 70.9872L46.3711 79.6353C48.0076 80.1186 49.7039 80.5528 51.4409 80.9416ZM43.5738 78.6882L43.5712 78.7185L43.5783 78.6895L43.5738 78.6882L44.3189 70.1299C42.5687 69.5411 40.9043 68.8803 39.3083 68.1758L38.5701 76.6331C40.1973 77.4042 41.8676 78.0903 43.5738 78.6882ZM35.8062 75.1377L35.8033 75.1688L35.8105 75.1401L35.8062 75.1377L36.5316 66.8426C36.372 66.7593 36.2098 66.6779 36.0476 66.5964C35.7723 66.4583 35.4975 66.3206 35.2372 66.1735C33.9801 65.4613 32.7674 64.6791 31.605 63.8305L30.9197 71.7056C32.4207 73.0109 34.0577 74.161 35.8062 75.1377ZM28.2807 68.7795L28.2778 68.8138L28.2847 68.7849L28.2807 68.7795L28.8914 61.6014C28.0079 60.7869 27.1915 59.9062 26.4487 58.9667L26.1625 62.254C25.9922 64.4813 26.7714 66.6844 28.2807 68.7795Z" fill="#4F457C"/>
<path d="M5.06684 51.0627C4.05479 52.0976 3.44221 53.4393 3.33878 54.8473L3.35144 54.8514C3.22245 56.2493 3.60329 57.6316 4.42665 58.7533C5.24975 59.8751 6.4623 60.6638 7.8494 60.9802C9.23638 61.2964 10.7086 61.1196 12.0049 60.4812C13.3015 59.8427 14.3389 58.7838 14.9335 57.4918L22.6175 57.8738L22.9453 53.8537L15.2895 53.4519C14.9339 52.0976 14.0921 50.9256 12.9144 50.1463C11.7368 49.367 10.3004 49.0314 8.86221 49.1993C7.42445 49.3674 6.0789 50.0278 5.06684 51.0627Z" fill="#7996C9"/>
</g>
<defs>
<clipPath id="clip0">
<rect width="151.074" height="126.338" fill="white"/>
</clipPath>
<clipPath id="clip1">
<rect width="32" height="32" fill="white" transform="translate(52 88)"/>
</clipPath>
<clipPath id="clip2">
<rect width="24.7742" height="59.9538" fill="white" transform="translate(55.6125 57.4656)"/>
</clipPath>
</defs>
</svg>
