<svg viewBox="0 0 636 185" fill="none" xmlns="http://www.w3.org/2000/svg">
    <g clip-path="url(#clip0_1895_4240)">
        <path d="M162.752 102.889L162.587 104.101C161.795 109.938 157.205 114.529 151.368 115.321L150.155 115.486L151.368 115.65C157.205 116.442 161.795 121.033 162.587 126.87L162.752 128.082L162.917 126.87C163.709 121.033 168.299 116.442 174.137 115.65L175.349 115.486L174.137 115.321C168.299 114.529 163.709 109.938 162.917 104.101L162.752 102.889Z" fill="white"/>
        <path d="M23.0384 62.0234L21.3556 74.4228C20.7232 79.0822 17.0587 82.7468 12.3992 83.3792L0 85.0622L12.3992 86.7446C17.0587 87.377 20.7232 91.0417 21.3556 95.701L23.0384 108.1L24.7212 95.701C25.3536 91.0417 29.0181 87.377 33.6776 86.7446L46.0768 85.0622L33.6776 83.3792C29.0181 82.7468 25.3536 79.0822 24.7212 74.4228L23.0384 62.0234Z" fill="white"/>
        <path d="M603.75 76.6865L602.917 82.8253C602.604 85.132 600.789 86.946 598.483 87.2594L592.344 88.0923L598.483 88.9252C600.789 89.2386 602.604 91.0526 602.917 93.3593L603.75 99.498L604.583 93.3593C604.896 91.0526 606.71 89.2386 609.017 88.9252L615.155 88.0923L609.017 87.2594C606.71 86.946 604.896 85.132 604.583 82.8253L603.75 76.6865Z" fill="white"/>
        <path d="M59.5349 173.742C57.3086 173.742 55.5039 171.937 55.5039 169.711C55.5039 167.484 57.3086 165.68 59.5349 165.68C61.7612 165.68 63.5659 167.484 63.5659 169.711C63.5659 171.937 61.7612 173.742 59.5349 173.742Z" fill="white"/>
        <path opacity="0.78" d="M266.24 116.687C264.014 116.687 262.209 114.882 262.209 112.656C262.209 110.43 264.014 108.625 266.24 108.625C268.467 108.625 270.271 110.43 270.271 112.656C270.271 114.882 268.467 116.687 266.24 116.687Z" fill="white"/>
        <path opacity="0.78" d="M289.915 163.38C288.523 163.38 287.395 162.252 287.395 160.86C287.395 159.469 288.523 158.341 289.915 158.341C291.306 158.341 292.434 159.469 292.434 160.86C292.434 162.252 291.306 163.38 289.915 163.38Z" fill="white"/>
        <path opacity="0.4" d="M511.977 171.106C510.307 171.106 508.953 169.753 508.953 168.083C508.953 166.413 510.307 165.06 511.977 165.06C513.646 165.06 515 166.413 515 168.083C515 169.753 513.646 171.106 511.977 171.106Z" fill="white"/>
        <path d="M558.915 143.431C557.245 143.431 555.891 142.078 555.891 140.408C555.891 138.738 557.245 137.385 558.915 137.385C560.584 137.385 561.938 138.738 561.938 140.408C561.938 142.078 560.584 143.431 558.915 143.431Z" fill="white"/>
        <path d="M212.674 150.254C211.005 150.254 209.651 148.9 209.651 147.23C209.651 145.561 211.005 144.207 212.674 144.207C214.344 144.207 215.698 145.561 215.698 147.23C215.698 148.9 214.344 150.254 212.674 150.254Z" fill="white"/>
        <path d="M130.31 158.626C128.64 158.626 127.286 157.272 127.286 155.602C127.286 153.933 128.64 152.579 130.31 152.579C131.979 152.579 133.333 153.933 133.333 155.602C133.333 157.272 131.979 158.626 130.31 158.626Z" fill="white"/>
        <path opacity="0.34" d="M187.635 75.0465C185.966 75.0465 184.612 73.693 184.612 72.0233C184.612 70.3536 185.966 69 187.635 69C189.305 69 190.659 70.3536 190.659 72.0233C190.659 73.693 189.305 75.0465 187.635 75.0465Z" fill="white"/>
    </g>
    <path d="M414.476 79.226L439.385 65.395C442.674 63.568 449.166 68.9553 453.882 77.4349C458.597 85.9144 459.739 94.2659 456.457 96.0982L431.548 109.929C428.26 111.762 421.768 106.375 417.052 97.8952C412.336 89.4156 411.182 81.0594 414.476 79.226Z" fill="#B7D0E5"/>
    <path d="M431.81 110.414C435.102 108.584 433.896 100.134 429.117 91.5405C424.339 82.9468 417.797 77.4637 414.506 79.2938C411.214 81.1239 412.42 89.574 417.199 98.1678C421.977 106.762 428.519 112.245 431.81 110.414Z" fill="white"/>
    <path d="M410.731 72.8926L434.033 59.9356C435.404 59.1729 435.898 57.4428 435.135 56.0713L409.528 10.0189C408.765 8.6473 407.035 8.15369 405.663 8.91635L382.362 21.8733C380.99 22.636 380.496 24.3661 381.259 25.7377L406.867 71.7901C407.629 73.1616 409.36 73.6552 410.731 72.8926Z" fill="#B7D0E5"/>
    <path d="M411.218 72.4708L435.178 59.0879L409.026 12.2655L385.066 25.6483L411.218 72.4708Z" fill="#7996C9"/>
    <path d="M463.588 167.921L486.89 154.964C488.261 154.201 488.755 152.471 487.992 151.1L462.384 105.047C461.622 103.676 459.892 103.182 458.52 103.945L435.219 116.902C433.847 117.664 433.353 119.394 434.116 120.766L459.724 166.818C460.486 168.19 462.217 168.684 463.588 167.921Z" fill="#B7D0E5"/>
    <path d="M464.803 166.541L488.712 153.246L462.732 106.523L438.822 119.818L464.803 166.541Z" fill="#7996C9"/>
    <path d="M449.423 68.5946L423.514 83.003L417.882 78.3306L443.79 63.9222L449.423 68.5946Z" fill="white"/>
    <path d="M431.905 97.3118L455.678 84.0779L457.167 93.6912C457.167 93.6912 453.036 97.7407 450.697 98.9115C448.358 100.082 434.356 108.006 434.356 108.006L431.905 97.3118Z" fill="#7996C9"/>
    <path d="M405.305 72.6827L379.698 26.6397C379.101 25.5638 378.956 24.2951 379.294 23.1121C379.632 21.9292 380.426 20.9289 381.501 20.3308L404.8 7.37109C405.875 6.77413 407.143 6.62811 408.326 6.96507C409.508 7.30203 410.509 8.09444 411.108 9.1684L436.716 55.2172C437.313 56.2924 437.459 57.5604 437.122 58.7431C436.785 59.9258 435.993 60.9265 434.919 61.5256L411.62 74.4853C410.543 75.0823 409.274 75.2277 408.09 74.8898C406.906 74.5518 405.905 73.7581 405.305 72.6827V72.6827ZM383.247 23.4666C383.005 23.6023 382.826 23.8285 382.749 24.0958C382.673 24.3631 382.705 24.6497 382.84 24.8931L408.447 70.9361C408.583 71.1787 408.809 71.3577 409.076 71.4341C409.344 71.5104 409.63 71.4779 409.874 71.3436L433.172 58.3839C433.292 58.3174 433.398 58.2278 433.483 58.1203C433.568 58.0128 433.631 57.8895 433.669 57.7576C433.706 57.6256 433.717 57.4875 433.701 57.3513C433.685 57.2151 433.642 57.0834 433.575 56.9638L407.967 10.915C407.9 10.795 407.81 10.6894 407.703 10.6042C407.595 10.5189 407.472 10.4558 407.34 10.4184C407.208 10.3811 407.07 10.3701 406.934 10.3863C406.798 10.4025 406.666 10.4455 406.547 10.5128L383.247 23.4666Z" fill="#4F457C"/>
    <path d="M432.42 111.491L430.675 108.355C428.925 109.324 423.201 105.3 418.624 97.0098C414.047 88.7196 413.599 81.7626 415.348 80.7879L413.602 77.6522C408.654 80.3971 410.804 90.3508 415.483 98.7564C420.161 107.162 427.473 114.242 432.42 111.491Z" fill="#4F457C"/>
    <path d="M428.705 108.941C431.032 107.647 429.943 101.245 426.271 94.6429C422.6 88.0405 417.737 83.7371 415.41 85.0311C413.083 86.3251 414.173 92.7263 417.844 99.3287C421.516 105.931 426.378 110.234 428.705 108.941Z" fill="#B7D0E5"/>
    <path d="M432.421 111.491C437.363 108.746 435.218 98.7921 430.54 90.3865C425.862 81.9809 418.544 74.9074 413.603 77.6576L415.349 80.7934C417.098 79.8247 422.822 83.8488 427.399 92.139C431.976 100.429 432.424 107.386 430.675 108.361L432.421 111.491Z" fill="#4F457C"/>
    <path d="M442.193 79.6201C440.538 77.0773 438.526 74.7867 436.217 72.8193L441.459 69.9077C443.766 71.8727 445.777 74.1617 447.428 76.7031L442.193 79.6201Z" fill="#4F457C"/>
    <path d="M448.488 69.823L453.623 62.3579C453.623 62.3579 457.861 62.2585 461.613 67.0644C465.365 71.8702 466.404 75.8232 466.404 75.8232L456.164 81.5145L448.488 69.823Z" fill="#B7D0E5"/>
    <path d="M435.321 83.4405C433.668 80.8982 431.656 78.6094 429.345 76.6456L432.334 74.98C434.639 76.9503 436.649 79.2407 438.304 81.7814L435.321 83.4405Z" fill="#4F457C"/>
    <path d="M450.089 70.6019L457.497 63.227L450.285 61.8961L447.81 68.1106L450.089 70.6019Z" fill="white"/>
    <path d="M415.483 98.7616C410.805 90.356 408.655 80.4023 413.603 77.6574L438.511 63.8265C443.453 61.0763 450.776 68.1491 455.449 76.5553C460.121 84.9615 462.271 94.9152 457.33 97.6654L432.421 111.496C427.473 114.241 420.156 107.168 415.483 98.7616ZM415.349 80.7932C413.6 81.7679 414.013 88.7343 418.625 97.015C423.237 105.296 428.925 109.323 430.675 108.361L455.584 94.5297C457.333 93.5609 456.914 86.5951 452.308 78.3137C447.702 70.0324 442.008 65.9994 440.258 66.9682L415.349 80.7932Z" fill="#4F457C"/>
    <path d="M424.243 102.017C426.417 100.809 426.628 97.0485 424.72 93.6062C422.812 90.164 419.502 88.3668 417.328 89.5631L411.666 92.7016C413.12 94.6116 414.45 96.6121 415.65 98.6912C417.294 101.646 417.618 102.677 418.795 105.081L424.243 102.017Z" fill="#4F457C"/>
    <path d="M446.427 85.9615L449.517 84.238C450.65 83.6173 452.099 84.3094 452.784 85.7885C453.469 87.2676 453.1 88.9651 452.003 89.5822L448.912 91.2998C447.78 91.9263 446.331 91.2342 445.646 89.7552C444.961 88.2761 445.306 86.581 446.427 85.9615Z" fill="#4F457C"/>
    <path d="M441.992 94.9864C443.141 94.6022 443.658 93.0515 443.147 91.5226C442.636 89.9938 441.29 89.0658 440.141 89.45C438.992 89.8341 438.475 91.3849 438.987 92.9137C439.498 94.4425 440.843 95.3705 441.992 94.9864Z" fill="#4F457C"/>
    <path d="M457.485 89.9263L458.51 86.4788C460.454 86.9271 462.452 87.0943 464.444 86.9752C466.802 85.3963 466.816 79.1221 463.032 72.3181C459.248 65.5141 453.908 62.2165 451.323 63.3819C450.173 65.0128 449.26 66.7994 448.614 68.6878L445.144 67.7429C445.666 65.839 448.014 61.1008 449.412 60.3283C454.15 57.6939 461.51 62.1943 466.174 70.5715C470.837 78.9487 470.77 87.5759 466.033 90.2162C464.634 90.9887 459.375 90.4908 457.485 89.9263Z" fill="#4F457C"/>
    <path d="M395.204 14.7929L392.851 16.1016L421.22 67.1208L423.574 65.8121L395.204 14.7929Z" fill="#4F457C"/>
    <path d="M414.605 19.1572L386.337 34.876L387.646 37.2295L415.914 21.5107L414.605 19.1572Z" fill="#4F457C"/>
    <path d="M422.469 30.9566L394.14 46.7793L395.457 49.1379L423.786 33.3151L422.469 30.9566Z" fill="#4F457C"/>
    <path d="M428.786 44.6699L400.518 60.3887L401.827 62.7422L430.095 47.0234L428.786 44.6699Z" fill="#4F457C"/>
    <path d="M458.164 167.718L432.551 121.675C432.253 121.142 432.064 120.555 431.994 119.948C431.923 119.341 431.973 118.726 432.14 118.139C432.308 117.551 432.589 117.002 432.969 116.524C433.348 116.045 433.818 115.646 434.352 115.349L457.652 102.395C458.727 101.798 459.995 101.652 461.178 101.989C462.36 102.326 463.361 103.118 463.96 104.192L489.568 150.241C490.165 151.316 490.311 152.584 489.974 153.767C489.637 154.95 488.845 155.95 487.771 156.55L464.473 169.521C463.397 170.116 462.129 170.26 460.946 169.923C459.764 169.585 458.763 168.792 458.164 167.718ZM436.1 118.502C435.858 118.638 435.679 118.864 435.602 119.132C435.526 119.399 435.558 119.686 435.693 119.929L461.3 165.972C461.437 166.213 461.663 166.391 461.93 166.468C462.197 166.544 462.483 166.512 462.727 166.379L486.025 153.42C486.145 153.353 486.251 153.264 486.336 153.156C486.421 153.049 486.484 152.925 486.522 152.793C486.559 152.661 486.57 152.523 486.554 152.387C486.538 152.251 486.495 152.119 486.427 152L460.82 105.951C460.685 105.708 460.46 105.529 460.194 105.453C459.927 105.376 459.641 105.409 459.399 105.543L436.1 118.502Z" fill="#4F457C"/>
    <path d="M448.057 109.832L445.704 111.141L474.073 162.16L476.427 160.851L448.057 109.832Z" fill="#4F457C"/>
    <path d="M467.453 114.199L439.185 129.918L440.494 132.272L468.762 116.553L467.453 114.199Z" fill="#4F457C"/>
    <path d="M474.544 126.957L446.275 142.676L447.584 145.029L475.852 129.311L474.544 126.957Z" fill="#4F457C"/>
    <path d="M481.635 139.712L453.367 155.431L454.675 157.784L482.944 142.065L481.635 139.712Z" fill="#4F457C"/>
    <path d="M425.702 65.9279L420.206 68.9844L422.907 73.8421L428.404 70.7856L425.702 65.9279Z" fill="#4F457C"/>
    <path d="M446.357 103.066L440.86 106.122L443.561 110.98L449.058 107.923L446.357 103.066Z" fill="#4F457C"/>
    <path d="M380.513 84.1366C391.653 77.9434 407.164 84.5713 415.155 98.9437C423.145 113.316 420.6 129.986 409.46 136.185C404.337 139.031 393.705 129.689 385.708 115.317C377.712 100.946 375.39 86.9885 380.513 84.1366Z" fill="#B7D0E5"/>
    <path d="M413.661 99.1823C408.548 91.3278 399.366 89.3507 393.648 89.227L385.536 82.2686C385.536 82.2686 405.027 80.2739 413.661 99.1823Z" fill="white"/>
    <path d="M414.164 100.088C418.139 108.575 414.976 117.421 412.079 122.351L413.731 132.94C413.731 132.94 425.674 117.407 414.164 100.088Z" fill="#7996C9"/>
    <path d="M410.333 137.753C417.375 133.838 413.269 117.507 405.834 104.149C398.398 90.7908 386.688 78.6646 379.641 82.5863L381.388 85.728C384.603 83.9383 394.265 90.7424 402.692 105.896C411.119 121.049 411.801 132.822 408.595 134.64L410.333 137.753Z" fill="#4F457C"/>
    <path d="M411.16 133.538C415.349 131.208 413.459 119.813 406.938 108.086C400.417 96.359 391.735 88.7407 387.546 91.0702C383.357 93.3997 385.247 104.795 391.768 116.522C398.289 128.249 406.971 135.867 411.16 133.538Z" fill="#4F457C"/>
    <path d="M384.139 116.167C376.695 102.791 372.59 86.461 379.639 82.563C391.629 75.8969 408.266 82.8489 416.729 98.0644C425.191 113.28 422.322 131.082 410.333 137.748C403.286 141.675 391.579 129.573 384.139 116.167ZM387.28 114.42C395.709 129.597 405.366 136.402 408.596 134.641C418.853 128.936 421.092 113.33 413.596 99.8459C406.1 86.3622 391.652 80.0346 381.394 85.7277C378.17 87.4885 378.856 99.2966 387.283 114.444L387.28 114.42Z" fill="#4F457C"/>
    <path d="M376.586 86.5509L364.908 125.394L368.347 126.427L380.025 87.5847L376.586 86.5509Z" fill="#4F457C"/>
    <path d="M367.094 124.179L366.159 127.646L405.32 138.207L406.255 134.741L367.094 124.179Z" fill="#4F457C"/>
    <path d="M401.823 104.331L364.67 124.99L366.418 128.133L403.57 107.475L401.823 104.331Z" fill="#4F457C"/>
    <path d="M364.173 133.866C367.61 133.524 370.118 130.461 369.776 127.024C369.434 123.587 366.37 121.078 362.933 121.42C359.497 121.763 356.988 124.826 357.33 128.263C357.672 131.7 360.736 134.209 364.173 133.866Z" fill="#7996C9"/>
    <path d="M356.472 157.915C356.313 157.931 356.152 157.921 355.997 157.885C348.236 156.248 341.441 151.601 337.101 144.962C332.761 138.324 331.231 130.235 332.845 122.47C332.887 122.27 332.968 122.079 333.083 121.91C333.198 121.741 333.345 121.597 333.516 121.484C333.687 121.372 333.879 121.295 334.08 121.257C334.281 121.218 334.487 121.22 334.688 121.262C334.888 121.304 335.078 121.384 335.247 121.499C335.416 121.614 335.561 121.762 335.673 121.933C335.785 122.104 335.863 122.295 335.901 122.496C335.939 122.697 335.937 122.904 335.896 123.104C334.443 130.066 335.812 137.321 339.702 143.275C343.593 149.229 349.686 153.397 356.646 154.863C357.01 154.939 357.336 155.142 357.563 155.438C357.79 155.733 357.904 156.1 357.884 156.472C357.864 156.844 357.712 157.196 357.454 157.465C357.196 157.734 356.851 157.902 356.48 157.938L356.472 157.915Z" fill="#7996C9"/>
    <path d="M351.534 172.582C351.376 172.598 351.216 172.589 351.06 172.557C339.768 170.174 329.882 163.411 323.568 153.751C317.254 144.09 315.029 132.321 317.378 121.022C317.463 120.617 317.705 120.263 318.052 120.037C318.398 119.811 318.819 119.732 319.224 119.817C319.628 119.901 319.983 120.144 320.209 120.49C320.435 120.836 320.514 121.257 320.429 121.662C318.241 132.155 320.305 143.087 326.168 152.06C332.031 161.033 341.214 167.314 351.702 169.524C352.066 169.6 352.391 169.803 352.619 170.098C352.846 170.393 352.96 170.759 352.941 171.13C352.922 171.502 352.77 171.854 352.513 172.124C352.257 172.393 351.912 172.562 351.542 172.599L351.534 172.582Z" fill="#7996C9"/>
    <path d="M359.742 146.357C359.583 146.373 359.423 146.364 359.267 146.333C356.838 145.824 354.534 144.842 352.485 143.442C350.436 142.043 348.683 140.253 347.326 138.176C345.969 136.098 345.035 133.774 344.577 131.335C344.118 128.897 344.145 126.392 344.656 123.963C344.698 123.763 344.779 123.573 344.894 123.404C345.01 123.235 345.157 123.09 345.329 122.978C345.5 122.866 345.692 122.789 345.893 122.752C346.094 122.714 346.301 122.716 346.501 122.758C346.701 122.8 346.891 122.881 347.06 122.997C347.229 123.112 347.374 123.26 347.486 123.431C347.598 123.602 347.675 123.794 347.713 123.995C347.75 124.196 347.748 124.403 347.706 124.603C346.848 128.7 347.652 132.969 349.941 136.473C352.23 139.977 355.817 142.428 359.914 143.287C360.274 143.367 360.595 143.572 360.819 143.866C361.042 144.16 361.154 144.524 361.134 144.893C361.114 145.261 360.963 145.611 360.709 145.879C360.456 146.147 360.115 146.317 359.747 146.357L359.742 146.357Z" fill="#7996C9"/>
    <path d="M198.269 151.623C198.073 151.622 197.885 151.543 197.747 151.403C197.609 151.264 197.532 151.076 197.532 150.88V147.313C197.523 147.211 197.535 147.107 197.568 147.009C197.601 146.912 197.654 146.822 197.723 146.746C197.793 146.669 197.878 146.609 197.972 146.567C198.067 146.525 198.169 146.504 198.272 146.504C198.375 146.504 198.477 146.525 198.572 146.567C198.666 146.609 198.751 146.669 198.82 146.746C198.89 146.822 198.943 146.912 198.976 147.009C199.009 147.107 199.021 147.211 199.012 147.313V150.88C199.012 151.077 198.934 151.266 198.794 151.406C198.655 151.545 198.466 151.623 198.269 151.623Z" fill="#4F457C"/>
    <path d="M203.732 153.508H200.165C200.062 153.517 199.959 153.505 199.861 153.472C199.763 153.439 199.673 153.386 199.597 153.316C199.521 153.246 199.46 153.162 199.419 153.067C199.377 152.973 199.355 152.871 199.355 152.767C199.355 152.664 199.377 152.562 199.419 152.468C199.46 152.373 199.521 152.289 199.597 152.219C199.673 152.149 199.763 152.096 199.861 152.063C199.959 152.03 200.062 152.018 200.165 152.027H203.732C203.917 152.044 204.089 152.129 204.214 152.266C204.339 152.403 204.408 152.582 204.408 152.767C204.408 152.953 204.339 153.132 204.214 153.269C204.089 153.406 203.917 153.491 203.732 153.508V153.508Z" fill="#4F457C"/>
    <path d="M198.268 158.983C198.073 158.983 197.885 158.905 197.747 158.767C197.609 158.628 197.531 158.441 197.531 158.245V154.679C197.548 154.494 197.633 154.322 197.77 154.197C197.907 154.071 198.086 154.002 198.271 154.002C198.457 154.002 198.636 154.071 198.773 154.197C198.91 154.322 198.995 154.494 199.011 154.679V158.245C199.011 158.343 198.992 158.439 198.955 158.529C198.917 158.619 198.863 158.7 198.793 158.769C198.724 158.837 198.642 158.891 198.552 158.928C198.462 158.965 198.366 158.983 198.268 158.983V158.983Z" fill="#4F457C"/>
    <path d="M196.366 153.508H192.799C192.614 153.491 192.442 153.406 192.317 153.269C192.192 153.132 192.123 152.953 192.123 152.767C192.123 152.582 192.192 152.403 192.317 152.266C192.442 152.129 192.614 152.044 192.799 152.027H196.366C196.551 152.044 196.723 152.129 196.848 152.266C196.973 152.403 197.043 152.582 197.043 152.767C197.043 152.953 196.973 153.132 196.848 153.269C196.723 153.406 196.551 153.491 196.366 153.508V153.508Z" fill="#4F457C"/>
    <path d="M537.45 159.082C537.255 159.081 537.068 159.002 536.931 158.864C536.793 158.727 536.714 158.54 536.713 158.345V154.778C536.713 154.583 536.791 154.395 536.929 154.257C537.067 154.119 537.255 154.041 537.45 154.041C537.646 154.041 537.833 154.119 537.971 154.257C538.11 154.395 538.187 154.583 538.187 154.778V158.345C538.187 158.54 538.11 158.728 537.971 158.866C537.833 159.004 537.646 159.082 537.45 159.082Z" fill="#4F457C"/>
    <path d="M542.925 161.009H539.358C539.173 160.992 539.001 160.907 538.876 160.77C538.751 160.633 538.681 160.454 538.681 160.268C538.681 160.083 538.751 159.904 538.876 159.767C539.001 159.63 539.173 159.545 539.358 159.528H542.925C543.109 159.545 543.281 159.63 543.407 159.767C543.532 159.904 543.601 160.083 543.601 160.268C543.601 160.454 543.532 160.633 543.407 160.77C543.281 160.907 543.109 160.992 542.925 161.009V161.009Z" fill="#4F457C"/>
    <path d="M537.45 166.447C537.254 166.446 537.066 166.367 536.928 166.228C536.79 166.088 536.713 165.9 536.713 165.704V162.138C536.713 161.942 536.791 161.755 536.929 161.616C537.067 161.478 537.255 161.4 537.45 161.4C537.646 161.4 537.833 161.478 537.971 161.616C538.11 161.755 538.187 161.942 538.187 162.138V165.704C538.188 165.802 538.169 165.898 538.133 165.988C538.096 166.078 538.042 166.16 537.973 166.229C537.905 166.298 537.823 166.353 537.734 166.391C537.644 166.428 537.547 166.447 537.45 166.447Z" fill="#4F457C"/>
    <path d="M535.559 161.009H531.993C531.808 160.992 531.636 160.907 531.511 160.77C531.385 160.633 531.316 160.454 531.316 160.268C531.316 160.083 531.385 159.904 531.511 159.767C531.636 159.63 531.808 159.545 531.993 159.528H535.559C535.744 159.545 535.916 159.63 536.041 159.767C536.167 159.904 536.236 160.083 536.236 160.268C536.236 160.454 536.167 160.633 536.041 160.77C535.916 160.907 535.744 160.992 535.559 161.009V161.009Z" fill="#4F457C"/>
    <path d="M84.9149 132.115C84.7194 132.115 84.5319 132.037 84.3936 131.899C84.2554 131.761 84.1777 131.573 84.1777 131.378V129.339C84.1777 129.143 84.2554 128.956 84.3936 128.817C84.5319 128.679 84.7194 128.602 84.9149 128.602C85.1104 128.602 85.2978 128.679 85.4361 128.817C85.5743 128.956 85.652 129.143 85.652 129.339V131.378C85.652 131.573 85.5743 131.761 85.4361 131.899C85.2978 132.037 85.1104 132.115 84.9149 132.115Z" fill="#4F457C"/>
    <path d="M89.1771 134.339H87.1381C86.9533 134.322 86.7813 134.237 86.6561 134.1C86.5309 133.963 86.4614 133.784 86.4614 133.599C86.4614 133.413 86.5309 133.234 86.6561 133.097C86.7813 132.96 86.9533 132.875 87.1381 132.858H89.1771C89.362 132.875 89.5339 132.96 89.6591 133.097C89.7844 133.234 89.8538 133.413 89.8538 133.599C89.8538 133.784 89.7844 133.963 89.6591 134.1C89.5339 134.237 89.362 134.322 89.1771 134.339V134.339Z" fill="#4F457C"/>
    <path d="M84.9149 138.594C84.8179 138.595 84.7217 138.577 84.6319 138.54C84.5421 138.503 84.4605 138.449 84.3919 138.38C84.3233 138.312 84.269 138.23 84.2323 138.14C84.1955 138.05 84.177 137.954 84.1778 137.857V135.818C84.1778 135.623 84.2554 135.435 84.3936 135.297C84.5319 135.159 84.7194 135.081 84.9149 135.081C85.1104 135.081 85.2979 135.159 85.4361 135.297C85.5744 135.435 85.652 135.623 85.652 135.818V137.857C85.6528 137.954 85.6343 138.05 85.5975 138.14C85.5608 138.23 85.5065 138.312 85.4379 138.38C85.3693 138.449 85.2877 138.503 85.1979 138.54C85.1081 138.577 85.0119 138.595 84.9149 138.594V138.594Z" fill="#4F457C"/>
    <path d="M82.6919 134.339H80.6767C80.4918 134.322 80.3199 134.237 80.1947 134.1C80.0695 133.963 80 133.784 80 133.599C80 133.413 80.0695 133.234 80.1947 133.097C80.3199 132.96 80.4918 132.875 80.6767 132.858H82.7157C82.9005 132.875 83.0725 132.96 83.1977 133.097C83.3229 133.234 83.3924 133.413 83.3924 133.599C83.3924 133.784 83.3229 133.963 83.1977 134.1C83.0725 134.237 82.9005 134.322 82.7157 134.339H82.6919Z" fill="#4F457C"/>
    <path d="M514.638 67.1031C514.443 67.1031 514.255 67.0255 514.117 66.8872C513.979 66.749 513.901 66.5615 513.901 66.366V64.327C513.901 64.1315 513.979 63.944 514.117 63.8057C514.255 63.6675 514.443 63.5898 514.638 63.5898C514.834 63.5898 515.021 63.6675 515.16 63.8057C515.298 63.944 515.376 64.1315 515.376 64.327V66.366C515.376 66.463 515.358 66.5592 515.321 66.649C515.284 66.7388 515.23 66.8204 515.161 66.889C515.093 66.9576 515.011 67.0119 514.922 67.0486C514.832 67.0854 514.736 67.1039 514.638 67.1031V67.1031Z" fill="#4F457C"/>
    <path d="M518.901 69.3268H516.862C516.667 69.3268 516.479 69.2491 516.341 69.1109C516.203 68.9727 516.125 68.7852 516.125 68.5897C516.125 68.3942 516.203 68.2067 516.341 68.0684C516.479 67.9302 516.667 67.8525 516.862 67.8525H518.901C519.097 67.8525 519.284 67.9302 519.422 68.0684C519.561 68.2067 519.638 68.3942 519.638 68.5897C519.638 68.7852 519.561 68.9727 519.422 69.1109C519.284 69.2491 519.097 69.3268 518.901 69.3268V69.3268Z" fill="#4F457C"/>
    <path d="M514.638 73.5885C514.443 73.5869 514.257 73.5088 514.119 73.3709C513.981 73.233 513.903 73.0464 513.901 72.8513V70.8123C513.901 70.6168 513.979 70.4293 514.117 70.2911C514.255 70.1529 514.443 70.0752 514.638 70.0752C514.834 70.0752 515.021 70.1529 515.16 70.2911C515.298 70.4293 515.376 70.6168 515.376 70.8123V72.8513C515.376 73.0468 515.298 73.2343 515.16 73.3726C515.021 73.5108 514.834 73.5885 514.638 73.5885V73.5885Z" fill="#4F457C"/>
    <path d="M512.415 69.3268H510.382C510.187 69.3268 509.999 69.2491 509.861 69.1109C509.723 68.9727 509.645 68.7852 509.645 68.5897C509.645 68.3942 509.723 68.2067 509.861 68.0684C509.999 67.9302 510.187 67.8525 510.382 67.8525H512.415C512.611 67.8525 512.798 67.9302 512.936 68.0684C513.075 68.2067 513.152 68.3942 513.152 68.5897C513.152 68.7852 513.075 68.9727 512.936 69.1109C512.798 69.2491 512.611 69.3268 512.415 69.3268V69.3268Z" fill="#4F457C"/>
    <path d="M272.791 79.7868C272.596 79.7853 272.409 79.7071 272.271 79.5692C272.133 79.4313 272.055 79.2447 272.054 79.0497V77.0107C272.07 76.8258 272.155 76.6539 272.292 76.5287C272.429 76.4034 272.608 76.334 272.794 76.334C272.979 76.334 273.158 76.4034 273.295 76.5287C273.432 76.6539 273.517 76.8258 273.534 77.0107V79.0497C273.532 79.2457 273.453 79.4332 273.314 79.5713C273.175 79.7093 272.987 79.7868 272.791 79.7868Z" fill="#4F457C"/>
    <path d="M277.041 82.0115H275.002C274.818 81.9949 274.646 81.9097 274.52 81.7728C274.395 81.6358 274.326 81.4569 274.326 81.2714C274.326 81.0858 274.395 80.9069 274.52 80.7699C274.646 80.633 274.818 80.5478 275.002 80.5312H277.041C277.226 80.5478 277.398 80.633 277.523 80.7699C277.649 80.9069 277.718 81.0858 277.718 81.2714C277.718 81.4569 277.649 81.6358 277.523 81.7728C277.398 81.9097 277.226 81.9949 277.041 82.0115Z" fill="#4F457C"/>
    <path d="M272.791 86.2673C272.595 86.2673 272.408 86.1896 272.27 86.0514C272.131 85.9131 272.054 85.7256 272.054 85.5301V83.4911C272.07 83.3063 272.155 83.1344 272.292 83.0091C272.429 82.8839 272.608 82.8145 272.794 82.8145C272.979 82.8145 273.158 82.8839 273.295 83.0091C273.432 83.1344 273.517 83.3063 273.534 83.4911V85.5301C273.534 85.6275 273.515 85.7238 273.477 85.8136C273.44 85.9034 273.385 85.985 273.316 86.0535C273.247 86.122 273.165 86.1762 273.075 86.2129C272.985 86.2496 272.888 86.2681 272.791 86.2673Z" fill="#4F457C"/>
    <path d="M270.561 82.0115H268.522C268.338 81.9949 268.166 81.9097 268.04 81.7728C267.915 81.6358 267.846 81.4569 267.846 81.2714C267.846 81.0858 267.915 80.9069 268.04 80.7699C268.166 80.633 268.338 80.5478 268.522 80.5312H270.561C270.746 80.5478 270.918 80.633 271.043 80.7699C271.169 80.9069 271.238 81.0858 271.238 81.2714C271.238 81.4569 271.169 81.6358 271.043 81.7728C270.918 81.9097 270.746 81.9949 270.561 82.0115V82.0115Z" fill="#4F457C"/>
    <path opacity="0.9" d="M590.622 114.491C589.835 114.491 589.197 113.853 589.197 113.067C589.197 112.28 589.835 111.643 590.622 111.643C591.408 111.643 592.046 112.28 592.046 113.067C592.046 113.853 591.408 114.491 590.622 114.491Z" fill="white"/>
    <path d="M600.583 162.15C596.876 162.14 593.224 161.258 589.921 159.577C586.617 157.896 583.755 155.462 581.566 152.471C579.376 149.481 577.919 146.017 577.314 142.361C576.708 138.704 576.971 134.956 578.08 131.419C579.189 127.882 581.113 124.656 583.698 122C586.283 119.343 589.457 117.332 592.962 116.127C596.467 114.922 600.207 114.558 603.878 115.064C607.55 115.57 611.052 116.932 614.101 119.04C614.389 119.244 614.585 119.554 614.647 119.902C614.71 120.25 614.633 120.608 614.434 120.9C614.23 121.19 613.92 121.387 613.572 121.449C613.223 121.512 612.864 121.434 612.573 121.233C609.163 118.866 605.127 117.564 600.976 117.49C596.826 117.417 592.747 118.576 589.255 120.821C585.763 123.066 583.015 126.295 581.358 130.102C579.702 133.908 579.211 138.12 579.948 142.206C580.686 146.291 582.618 150.066 585.5 153.053C588.383 156.04 592.086 158.106 596.143 158.988C600.199 159.871 604.426 159.531 608.289 158.011C612.152 156.492 615.478 153.861 617.846 150.451C617.999 150.243 618.209 150.084 618.451 149.994C618.692 149.903 618.955 149.885 619.207 149.941C619.459 149.997 619.689 150.125 619.87 150.31C620.05 150.494 620.173 150.727 620.224 150.98C620.257 151.152 620.254 151.328 620.216 151.499C620.178 151.67 620.106 151.831 620.004 151.973C617.826 155.108 614.923 157.671 611.541 159.443C608.16 161.215 604.4 162.144 600.583 162.15V162.15Z" fill="#4F457C"/>
    <path d="M630.235 164.588C627.566 164.588 624.047 163.762 619.76 162.139C612.229 159.28 603.115 154.251 594.044 147.961C585.412 141.969 577.441 135.15 572.18 129.265C567.941 124.51 563.429 118.101 565.973 114.433C566.907 113.09 568.595 112.406 570.985 112.406C576.614 112.406 584.931 116.134 589.383 118.351C589.519 118.42 589.642 118.513 589.746 118.624L590.008 118.892L589.687 119.082C589.033 119.477 588.4 119.906 587.79 120.366L587.642 120.473L587.481 120.396C580.443 116.948 574.587 115.046 570.991 115.046C569.552 115.046 568.571 115.355 568.161 115.943C566.057 118.981 575.461 131.792 595.566 145.756C604.441 151.92 613.37 156.848 620.706 159.63C624.635 161.123 627.922 161.907 630.217 161.907C631.662 161.907 632.672 161.592 633.07 161.021C634.182 159.428 631.882 153.436 621.092 143.461C620.833 143.221 620.679 142.888 620.665 142.535C620.65 142.182 620.776 141.837 621.015 141.577C621.255 141.317 621.588 141.164 621.941 141.149C622.294 141.135 622.639 141.261 622.899 141.499C627.845 146.059 638.95 157.241 635.264 162.543C634.313 163.905 632.637 164.588 630.235 164.588Z" fill="#4F457C"/>
    <path d="M591.85 129.758C592.537 129.758 593.093 129.202 593.093 128.516C593.093 127.83 592.537 127.273 591.85 127.273C591.164 127.273 590.608 127.83 590.608 128.516C590.608 129.202 591.164 129.758 591.85 129.758Z" fill="#4F457C"/>
    <path d="M601.106 126.012C601.792 126.012 602.349 125.456 602.349 124.77C602.349 124.084 601.792 123.527 601.106 123.527C600.42 123.527 599.864 124.084 599.864 124.77C599.864 125.456 600.42 126.012 601.106 126.012Z" fill="#4F457C"/>
    <path d="M595.976 139.305C597.023 139.305 597.872 138.456 597.872 137.409C597.872 136.362 597.023 135.513 595.976 135.513C594.929 135.513 594.08 136.362 594.08 137.409C594.08 138.456 594.929 139.305 595.976 139.305Z" fill="#4F457C"/>
    <path d="M588.836 150.178C589.611 150.178 590.239 149.55 590.239 148.775C590.239 148 589.611 147.372 588.836 147.372C588.061 147.372 587.433 148 587.433 148.775C587.433 149.55 588.061 150.178 588.836 150.178Z" fill="#4F457C"/>
    <path d="M608.032 136.178C608.554 136.178 608.977 135.755 608.977 135.233C608.977 134.711 608.554 134.288 608.032 134.288C607.51 134.288 607.086 134.711 607.086 135.233C607.086 135.755 607.51 136.178 608.032 136.178Z" fill="#4F457C"/>
    <path d="M182.754 143.793C183.824 143.793 184.692 142.925 184.692 141.855C184.692 140.785 183.824 139.917 182.754 139.917C181.684 139.917 180.816 140.785 180.816 141.855C180.816 142.925 181.684 143.793 182.754 143.793Z" fill="#88D1C3"/>
    <path d="M413.089 177.635C414.921 177.635 416.406 176.15 416.406 174.318C416.406 172.486 414.921 171.001 413.089 171.001C411.257 171.001 409.771 172.486 409.771 174.318C409.771 176.15 411.257 177.635 413.089 177.635Z" fill="#88D1C3"/>
    <path d="M369.243 170.289C369.988 170.289 370.592 169.685 370.592 168.939C370.592 168.194 369.988 167.59 369.243 167.59C368.498 167.59 367.894 168.194 367.894 168.939C367.894 169.685 368.498 170.289 369.243 170.289Z" fill="#88D1C3"/>
    <path d="M304.705 98.4309C305.48 98.4309 306.108 97.8028 306.108 97.0279C306.108 96.2531 305.48 95.625 304.705 95.625C303.93 95.625 303.302 96.2531 303.302 97.0279C303.302 97.8028 303.93 98.4309 304.705 98.4309Z" fill="#88D1C3"/>
    <path d="M248.162 143.496C246.084 143.537 244.018 143.162 242.086 142.395C240.154 141.628 238.395 140.483 236.911 139.027C235.426 137.572 234.247 135.835 233.443 133.918C232.638 132.002 232.223 129.944 232.223 127.865C232.223 125.786 232.638 123.728 233.443 121.811C234.247 119.895 235.426 118.158 236.911 116.702C238.395 115.247 240.154 114.102 242.086 113.335C244.018 112.567 246.084 112.193 248.162 112.233C248.448 112.233 248.721 112.347 248.923 112.549C249.125 112.75 249.238 113.024 249.238 113.309C249.238 113.595 249.125 113.868 248.923 114.07C248.721 114.272 248.448 114.385 248.162 114.385C245.496 114.384 242.888 115.174 240.67 116.655C238.452 118.135 236.723 120.241 235.702 122.704C234.681 125.168 234.413 127.879 234.932 130.494C235.452 133.11 236.736 135.513 238.621 137.399C240.506 139.285 242.908 140.57 245.524 141.091C248.139 141.611 250.851 141.345 253.315 140.325C255.779 139.304 257.885 137.576 259.366 135.359C260.848 133.142 261.639 130.535 261.639 127.868C261.639 127.582 261.752 127.309 261.954 127.107C262.156 126.905 262.429 126.792 262.715 126.792C263 126.792 263.274 126.905 263.476 127.107C263.677 127.309 263.791 127.582 263.791 127.868C263.786 132.011 262.138 135.984 259.208 138.914C256.278 141.843 252.306 143.492 248.162 143.496Z" fill="#4F457C"/>
    <path d="M241.451 131.648C240.716 131.634 240.002 131.396 239.406 130.964C238.521 130.316 237.87 129.399 237.551 128.349C237.191 127.272 237.208 126.104 237.599 125.038C237.765 124.558 238.039 124.123 238.398 123.764C238.757 123.406 239.194 123.134 239.674 122.969C239.98 122.872 240.298 122.822 240.619 122.82C241.355 122.833 242.07 123.074 242.664 123.51C243.539 124.169 244.187 125.084 244.519 126.127C244.851 127.171 244.851 128.292 244.519 129.336C244.361 129.839 244.086 130.298 243.718 130.675C243.349 131.052 242.896 131.337 242.396 131.505C242.09 131.601 241.772 131.649 241.451 131.648ZM240.613 124.972C240.516 124.973 240.42 124.989 240.328 125.02C240.132 125.098 239.958 125.224 239.822 125.386C239.686 125.548 239.592 125.74 239.549 125.947C239.395 126.522 239.414 127.13 239.602 127.695C239.779 128.298 240.146 128.828 240.649 129.205C240.882 129.382 241.164 129.484 241.457 129.496C241.554 129.498 241.65 129.484 241.742 129.455C241.923 129.382 242.085 129.268 242.215 129.123C242.344 128.977 242.439 128.804 242.491 128.616C242.685 128.019 242.685 127.376 242.491 126.779C242.316 126.176 241.949 125.646 241.445 125.27C241.206 125.085 240.915 124.981 240.613 124.972V124.972Z" fill="#4F457C"/>
    <path d="M243.454 136.85C244.065 136.85 244.56 136.355 244.56 135.744C244.56 135.134 244.065 134.639 243.454 134.639C242.844 134.639 242.349 135.134 242.349 135.744C242.349 136.355 242.844 136.85 243.454 136.85Z" fill="#4F457C"/>
    <path d="M251.069 138.377C251.68 138.377 252.175 137.882 252.175 137.272C252.175 136.661 251.68 136.166 251.069 136.166C250.458 136.166 249.963 136.661 249.963 137.272C249.963 137.882 250.458 138.377 251.069 138.377Z" fill="#4F457C"/>
    <path d="M248.496 132.582C248.926 132.582 249.274 132.233 249.274 131.803C249.274 131.373 248.926 131.024 248.496 131.024C248.065 131.024 247.717 131.373 247.717 131.803C247.717 132.233 248.065 132.582 248.496 132.582Z" fill="#4F457C"/>
    <path d="M255.813 133.349C256.001 133.349 256.152 133.197 256.152 133.01C256.152 132.823 256.001 132.671 255.813 132.671C255.626 132.671 255.475 132.823 255.475 133.01C255.475 133.197 255.626 133.349 255.813 133.349Z" fill="#4F457C"/>
    <path d="M353.62 89.2443C354.865 89.2443 355.873 88.2356 355.873 86.9913C355.873 85.747 354.865 84.7383 353.62 84.7383C352.376 84.7383 351.367 85.747 351.367 86.9913C351.367 88.2356 352.376 89.2443 353.62 89.2443Z" fill="#88D1C3"/>
    <path d="M212.78 109.766C213.788 109.766 214.605 108.949 214.605 107.941C214.605 106.933 213.788 106.116 212.78 106.116C211.772 106.116 210.955 106.933 210.955 107.941C210.955 108.949 211.772 109.766 212.78 109.766Z" fill="#88D1C3"/>
    <path d="M373.339 61.5865C374.347 61.5865 375.164 60.7694 375.164 59.7615C375.164 58.7536 374.347 57.9365 373.339 57.9365C372.331 57.9365 371.514 58.7536 371.514 59.7615C371.514 60.7694 372.331 61.5865 373.339 61.5865Z" fill="#88D1C3"/>
    <path d="M319.522 66.5321C320.855 66.5321 321.935 65.4516 321.935 64.1186C321.935 62.7856 320.855 61.7051 319.522 61.7051C318.189 61.7051 317.108 62.7856 317.108 64.1186C317.108 65.4516 318.189 66.5321 319.522 66.5321Z" fill="#88D1C3"/>
    <path d="M499.62 105.028C500.539 105.028 501.285 104.283 501.285 103.364C501.285 102.444 500.539 101.699 499.62 101.699C498.701 101.699 497.956 102.444 497.956 103.364C497.956 104.283 498.701 105.028 499.62 105.028Z" fill="#88D1C3"/>
    <path d="M209.198 171.233C210.823 171.233 212.141 169.915 212.141 168.29C212.141 166.665 210.823 165.348 209.198 165.348C207.573 165.348 206.255 166.665 206.255 168.29C206.255 169.915 207.573 171.233 209.198 171.233Z" fill="#88D1C3"/>
    <path d="M558.328 76.1561C559.716 76.1561 560.842 75.0303 560.842 73.6415C560.842 72.2528 559.716 71.127 558.328 71.127C556.939 71.127 555.813 72.2528 555.813 73.6415C555.813 75.0303 556.939 76.1561 558.328 76.1561Z" fill="#88D1C3"/>
    <path d="M152.214 92.1261C153.59 92.1261 154.705 91.011 154.705 89.6353C154.705 88.2597 153.59 87.1445 152.214 87.1445C150.838 87.1445 149.723 88.2597 149.723 89.6353C149.723 91.011 150.838 92.1261 152.214 92.1261Z" fill="#88D1C3"/>
    <defs>
        <clipPath id="clip0_1895_4240">
            <rect width="615.155" height="111.718" fill="white" transform="translate(0 62.0234)"/>
        </clipPath>
    </defs>
</svg>
