<svg width="1185" height="426" viewBox="0 0 1185 426" fill="none" xmlns="http://www.w3.org/2000/svg">
<rect width="1185" height="657" transform="translate(0 -121)" fill="white"/>
<circle opacity="0.104583" cx="593" cy="207" r="144" fill="#F7F9FD" stroke="#7068AA" stroke-width="2"/>
<circle cx="593.5" cy="207.5" r="126.5" fill="white" stroke="#7068AA" stroke-width="2"/>
<rect x="66" y="185" width="240" height="45" rx="22.5" fill="#E9EEF6"/>
<path d="M175.4 213.192C178.312 213.192 180.376 211.144 180.376 208.248V202.008H178.008V208.152C178.008 209.848 176.92 211.048 175.4 211.048C173.864 211.048 172.776 209.848 172.776 208.152V202.008H170.424V208.248C170.424 211.144 172.472 213.192 175.4 213.192ZM186.678 213.192C189.366 213.192 190.95 211.8 190.95 209.704C190.95 207.672 189.382 206.968 187.014 206.44C185.318 206.056 184.662 205.8 184.662 205C184.662 204.344 185.27 203.816 186.278 203.816C187.334 203.816 188.438 204.248 189.414 205.032L190.646 203.336C189.526 202.376 188.134 201.816 186.342 201.816C183.942 201.816 182.278 203.208 182.278 205.24C182.278 207.368 183.926 208.024 186.246 208.552C187.926 208.936 188.566 209.176 188.566 209.96C188.566 210.648 187.958 211.192 186.774 211.192C185.382 211.192 184.198 210.648 183.158 209.752L181.798 211.368C183.078 212.552 184.774 213.192 186.678 213.192ZM201.107 204.136V202.008H192.643V213H201.107V210.872H195.011V208.456H200.531V206.328H195.011V204.136H201.107ZM212.189 213L209.485 209.16C210.989 208.632 211.981 207.352 211.981 205.72C211.981 203.544 210.221 202.008 207.837 202.008H202.893V213H205.245V209.432H206.989L209.501 213H212.189ZM205.245 204.168H207.581C208.749 204.168 209.549 204.776 209.549 205.72C209.549 206.664 208.749 207.272 207.581 207.272H205.245V204.168Z" fill="#7996C9"/>
<path d="M550.942 283.589L517.127 249.774C516.412 249.063 515.793 248.262 515.283 247.393L504.437 258.239C502.195 260.481 500.936 263.523 500.936 266.694C500.936 269.864 502.195 272.906 504.437 275.148L525.567 296.278C527.81 298.52 530.851 299.779 534.022 299.779C537.193 299.779 540.234 298.52 542.477 296.278L553.323 285.432C552.455 284.92 551.655 284.3 550.942 283.589V283.589Z" fill="white"/>
<path d="M550.942 283.589L517.127 249.774C516.412 249.063 515.793 248.262 515.283 247.393L504.437 258.239C502.195 260.481 500.936 263.523 500.936 266.694C500.936 269.864 502.195 272.906 504.437 275.148L525.567 296.278C527.81 298.52 530.851 299.779 534.022 299.779C537.193 299.779 540.234 298.52 542.477 296.278L553.323 285.432C552.455 284.92 551.655 284.3 550.942 283.589V283.589Z" stroke="#7068AA" stroke-width="2" stroke-linecap="round" stroke-linejoin="round"/>
<path d="M553.408 196.589L517.129 232.869C516.018 233.979 515.137 235.296 514.536 236.747C513.935 238.197 513.626 239.751 513.626 241.321C513.626 242.891 513.935 244.446 514.536 245.896C515.137 247.346 516.018 248.664 517.129 249.774L550.943 283.589C552.053 284.699 553.371 285.58 554.821 286.181C556.272 286.782 557.826 287.091 559.396 287.091C560.966 287.091 562.52 286.782 563.971 286.181C565.421 285.58 566.739 284.699 567.848 283.589L604.143 247.309C605.264 246.188 605.893 244.668 605.893 243.084V235.358C605.894 233.772 606.523 232.251 607.643 231.128L612.603 226.169C613.719 225.054 615.231 224.425 616.808 224.419L624.519 224.389C626.094 224.383 627.603 223.756 628.719 222.644L665.048 186.389C666.16 185.278 667.043 183.96 667.644 182.508C668.246 181.056 668.556 179.5 668.556 177.929C668.556 176.357 668.246 174.801 667.644 173.35C667.043 171.898 666.16 170.579 665.048 169.469L631.253 135.674C630.143 134.562 628.825 133.68 627.374 133.078C625.922 132.476 624.367 132.166 622.796 132.166C621.225 132.166 619.669 132.476 618.218 133.078C616.767 133.68 615.448 134.562 614.338 135.674L578.083 172.003C576.968 173.117 576.338 174.627 576.333 176.203L576.303 183.914C576.299 185.492 575.67 187.004 574.553 188.119L569.594 193.079C569.039 193.634 568.381 194.075 567.656 194.375C566.931 194.675 566.153 194.83 565.369 194.829H557.648C556.86 194.828 556.08 194.983 555.353 195.285C554.625 195.588 553.964 196.031 553.408 196.589Z" fill="white"/>
<path d="M553.408 196.589L517.129 232.869C516.018 233.979 515.137 235.296 514.536 236.747C513.935 238.197 513.626 239.751 513.626 241.321C513.626 242.891 513.935 244.446 514.536 245.896C515.137 247.346 516.018 248.664 517.129 249.774L550.943 283.589C552.053 284.699 553.371 285.58 554.821 286.181C556.272 286.782 557.826 287.091 559.396 287.091C560.966 287.091 562.52 286.782 563.971 286.181C565.421 285.58 566.739 284.699 567.848 283.589L604.143 247.309C605.264 246.188 605.893 244.668 605.893 243.084V235.358C605.894 233.772 606.523 232.251 607.643 231.128L612.603 226.169C613.719 225.054 615.231 224.425 616.808 224.419L624.519 224.389C626.094 224.383 627.603 223.756 628.719 222.644L665.048 186.389C666.16 185.278 667.043 183.96 667.644 182.508C668.246 181.056 668.556 179.5 668.556 177.929C668.556 176.357 668.246 174.801 667.644 173.35C667.043 171.898 666.16 170.579 665.048 169.469L631.253 135.674C630.143 134.562 628.825 133.68 627.374 133.078C625.922 132.476 624.367 132.166 622.796 132.166C621.225 132.166 619.669 132.476 618.218 133.078C616.767 133.68 615.448 134.562 614.338 135.674L578.083 172.003C576.968 173.117 576.338 174.627 576.333 176.203L576.303 183.914C576.299 185.492 575.67 187.004 574.553 188.119L569.594 193.079C569.039 193.634 568.381 194.075 567.656 194.375C566.931 194.675 566.153 194.83 565.369 194.829H557.648C556.86 194.828 556.08 194.983 555.353 195.285C554.625 195.588 553.964 196.031 553.408 196.589Z" stroke="#7068AA" stroke-width="2" stroke-linecap="round" stroke-linejoin="round"/>
<path d="M654.32 79.4915C647.808 88.0683 644.66 98.7325 645.472 109.471C646.284 120.209 650.999 130.279 658.727 137.779L662.952 142.004C670.452 149.733 680.522 154.449 691.26 155.261C701.999 156.073 712.663 152.925 721.24 146.411C721.915 145.892 722.471 145.234 722.871 144.482C723.27 143.729 723.503 142.9 723.555 142.05C723.607 141.199 723.476 140.348 723.171 139.552C722.866 138.757 722.394 138.036 721.787 137.439L663.293 78.9492C662.695 78.3418 661.975 77.8695 661.18 77.564C660.385 77.2586 659.533 77.1271 658.683 77.1785C657.833 77.2299 657.003 77.4629 656.251 77.8619C655.498 78.2609 654.84 78.8166 654.32 79.4915V79.4915Z" fill="white"/>
<path d="M654.32 79.4915C647.808 88.0683 644.66 98.7325 645.472 109.471C646.284 120.209 650.999 130.279 658.727 137.779L662.952 142.004C670.452 149.733 680.522 154.449 691.26 155.261C701.999 156.073 712.663 152.925 721.24 146.411C721.915 145.892 722.471 145.234 722.871 144.482C723.27 143.729 723.503 142.9 723.555 142.05C723.607 141.199 723.476 140.348 723.171 139.552C722.866 138.757 722.394 138.036 721.787 137.439L663.293 78.9492C662.695 78.3418 661.975 77.8695 661.18 77.564C660.385 77.2586 659.533 77.1271 658.683 77.1785C657.833 77.2299 657.003 77.4629 656.251 77.8619C655.498 78.2609 654.84 78.8166 654.32 79.4915V79.4915Z" stroke="#7068AA" stroke-width="2" stroke-linecap="round" stroke-linejoin="round"/>
<path d="M692.543 108.194L705.223 95.514" stroke="#7068AA" stroke-width="2" stroke-linecap="round" stroke-linejoin="round"/>
<path d="M677.006 335.062L716.527 295.541C718.452 293.616 718.452 290.495 716.527 288.569L653.758 225.8C651.832 223.874 648.711 223.874 646.786 225.8L607.264 265.321C605.339 267.246 605.339 270.368 607.264 272.293L670.034 335.062C671.959 336.988 675.081 336.988 677.006 335.062Z" fill="white" stroke="#7068AA" stroke-width="2" stroke-linecap="round" stroke-linejoin="round"/>
<path d="M658.726 137.779C657.339 136.391 655.691 135.29 653.878 134.539C652.065 133.788 650.121 133.401 648.159 133.401C646.196 133.401 644.253 133.788 642.439 134.539C640.626 135.29 638.979 136.391 637.591 137.779L635.476 139.894L660.836 165.254L662.951 163.139C664.339 161.751 665.44 160.104 666.191 158.291C666.942 156.477 667.329 154.534 667.329 152.571C667.329 150.609 666.942 148.665 666.191 146.852C665.44 145.039 664.339 143.392 662.951 142.004L658.726 137.779Z" fill="white"/>
<path d="M658.726 137.779C657.339 136.391 655.691 135.29 653.878 134.539C652.065 133.788 650.121 133.401 648.159 133.401C646.196 133.401 644.253 133.788 642.439 134.539C640.626 135.29 638.979 136.391 637.591 137.779L635.476 139.894L660.836 165.254L662.951 163.139C664.339 161.751 665.44 160.104 666.191 158.291C666.942 156.477 667.329 154.534 667.329 152.571C667.329 150.609 666.942 148.665 666.191 146.852C665.44 145.039 664.339 143.392 662.951 142.004L658.726 137.779Z" stroke="#7068AA" stroke-width="2" stroke-linecap="round" stroke-linejoin="round"/>
<path d="M599.553 251.899L610.118 262.469" stroke="#7068AA" stroke-width="2" stroke-linecap="round" stroke-linejoin="round"/>
<path d="M633.366 218.089L643.931 228.654" stroke="#7068AA" stroke-width="2" stroke-linecap="round" stroke-linejoin="round"/>
<path d="M535.408 193.468L574.929 153.947C576.854 152.022 576.854 148.9 574.929 146.975L512.159 84.2051C510.234 82.2799 507.113 82.2799 505.187 84.2051L465.666 123.726C463.741 125.652 463.741 128.773 465.666 130.698L528.436 193.468C530.361 195.393 533.483 195.393 535.408 193.468Z" fill="white" stroke="#7068AA" stroke-width="2" stroke-linecap="round" stroke-linejoin="round"/>
<path d="M548.831 201.179L538.261 190.614" stroke="#7068AA" stroke-width="2" stroke-linecap="round" stroke-linejoin="round"/>
<path d="M582.647 167.364L572.078 156.799" stroke="#7068AA" stroke-width="2" stroke-linecap="round" stroke-linejoin="round"/>
<path d="M569.964 230.807C570.061 230.976 570.032 231.189 569.894 231.329L568.218 233.009C568.163 233.073 568.083 233.108 567.999 233.105C567.916 233.101 567.839 233.059 567.792 232.991L562.798 225.419L563.577 232.276C563.646 232.509 563.58 232.762 563.406 232.934L562.114 234.225C561.973 234.39 561.73 234.42 561.555 234.295L556.204 232.012L561.193 239.577C561.289 239.746 561.26 239.959 561.123 240.099L559.444 241.781C559.39 241.844 559.309 241.879 559.226 241.876C559.143 241.872 559.066 241.829 559.02 241.761L551.212 229.921C551.115 229.754 551.143 229.541 551.28 229.401L553.055 227.632C553.196 227.428 553.47 227.366 553.683 227.488L560.747 230.607L559.739 221.445C559.669 221.185 559.757 220.907 559.965 220.733L561.757 218.953C561.811 218.888 561.892 218.852 561.976 218.856C562.06 218.86 562.137 218.902 562.183 218.971L569.964 230.807Z" fill="#675BC1"/>
<path fill-rule="evenodd" clip-rule="evenodd" d="M580.634 220.899C580.759 220.759 580.78 220.554 580.685 220.392L575.956 213.22C574.963 211.716 573.456 210.641 571.712 210.687C570.585 210.692 569.367 211.184 568.173 212.381C567.097 213.443 566.379 214.814 566.12 216.305C565.78 218.265 566.196 220.282 567.284 221.949L572.01 229.116C572.052 229.185 572.124 229.23 572.205 229.237C572.286 229.243 572.365 229.21 572.417 229.149L574.183 227.381C574.309 227.24 574.329 227.034 574.233 226.871L572.045 223.553L576.269 219.311L578.46 222.634C578.502 222.703 578.575 222.748 578.655 222.755C578.736 222.761 578.815 222.728 578.867 222.667L580.634 220.899ZM569.581 219.812C568.994 218.982 568.711 217.975 568.779 216.961L568.777 216.962C568.868 216.159 569.227 215.411 569.797 214.839C570.378 214.257 571.041 213.956 571.719 214.006C572.431 214.112 573.151 214.578 573.804 215.568L574.723 216.962L570.5 221.206L569.581 219.812Z" fill="#675BC1"/>
<path d="M587.965 213.314C588.044 213.547 587.974 213.803 587.788 213.958L585.943 215.824C585.744 216.028 585.585 216.06 585.4 215.912L573.626 207.705C573.525 207.652 573.456 207.553 573.441 207.44C573.427 207.326 573.469 207.214 573.554 207.141L575.413 205.259C575.612 205.055 575.798 205.023 576.002 205.177L584.634 211.53L584.67 211.507L581.458 199.675C581.361 199.423 581.431 199.141 581.632 198.969L583.478 197.099C583.658 196.916 583.851 197.004 583.915 197.307L587.965 213.314Z" fill="#675BC1"/>
<path fill-rule="evenodd" clip-rule="evenodd" d="M601.682 198.669L596.612 196.745C596.85 196.227 597.02 195.68 597.118 195.118C597.396 193.647 597.091 192.124 596.269 190.869C595.373 189.512 594.15 188.787 592.93 188.885C591.805 188.968 590.733 189.678 589.714 190.704L585.207 195.237C585.071 195.377 585.046 195.592 585.144 195.762L593.032 207.723C593.078 207.793 593.155 207.837 593.239 207.841C593.322 207.845 593.403 207.81 593.456 207.745L595.193 205.992C595.326 205.856 595.347 205.646 595.244 205.485L592.567 201.426L594.555 199.424L599.299 201.403C599.565 201.533 599.712 201.445 599.928 201.227L601.858 199.287C602.121 199.023 601.934 198.781 601.682 198.669ZM591.088 199.188L588.659 195.504L591.011 193.131C591.39 192.695 591.897 192.389 592.46 192.254C593.007 192.19 593.556 192.435 594.041 193.169C594.484 193.8 594.623 194.596 594.417 195.337C594.255 195.912 593.828 196.433 593.26 197.007L591.088 199.188Z" fill="#675BC1"/>
<path d="M601.724 179.099C601.672 178.848 601.755 178.589 601.943 178.417L603.968 176.376C604.217 176.127 604.408 176.302 604.426 176.682L605.059 187.512L608.325 192.465C608.42 192.629 608.4 192.834 608.276 192.975L606.511 194.747C606.459 194.809 606.38 194.842 606.299 194.835C606.218 194.828 606.145 194.782 606.102 194.712L602.819 189.734L594.407 186.77C594.268 186.749 594.156 186.645 594.123 186.508C594.091 186.371 594.145 186.228 594.261 186.149L596.285 184.109C596.413 183.924 596.663 183.875 596.853 183.996L602.205 185.986L601.724 179.099Z" fill="#675BC1"/>
<path d="M613.274 179.158L613.079 181.043L615.597 184.861C615.698 185.021 615.675 185.231 615.54 185.369L613.755 187.146C613.7 187.211 613.618 187.246 613.534 187.243C613.45 187.24 613.373 187.197 613.326 187.129L605.502 175.264C605.406 175.096 605.435 174.882 605.574 174.74L607.359 172.963C607.413 172.901 607.493 172.867 607.574 172.873C607.656 172.879 607.729 172.923 607.77 172.992L610.884 177.713L611.481 169.292C611.485 169.011 611.596 168.738 611.791 168.53L614.076 166.256C614.282 166.052 614.502 166.191 614.461 166.566L613.593 175.641L622.173 177.962C622.447 178.021 622.642 178.279 622.357 178.563L620.243 180.668C620.09 180.859 619.832 180.934 619.604 180.852L613.274 179.158Z" fill="#675BC1"/>
<path d="M594.738 208.854L597.363 206.402L598.69 205.036C598.854 205.207 599 205.394 599.125 205.594C599.266 205.78 599.354 206 599.383 206.231C599.385 206.421 599.302 206.603 599.157 206.728C599.001 206.882 598.65 207.188 598.106 207.646C597.562 208.104 597.168 208.453 596.925 208.694L596.474 209.189C596.69 209.604 597.281 211.025 598.247 213.452C598.861 212.725 599.392 212.141 599.838 211.699C600.168 211.351 600.543 211.048 600.951 210.796C601.198 211.195 601.36 211.641 601.428 212.106C600.914 212.454 600.437 212.853 600.004 213.297C599.56 213.729 599.145 214.19 598.762 214.676C599.631 216.805 600.374 218.337 600.989 219.27L601.158 219.526C600.975 220.038 600.378 220.795 599.366 221.796L599.235 221.928C598.786 221.247 598.058 219.633 597.05 217.085C596.041 214.537 595.272 212.748 594.741 211.72C594.606 211.534 594.431 211.382 594.228 211.273C594.031 211.151 593.817 211.058 593.592 210.998L593.324 210.918L593.216 210.656C593.671 210.014 594.18 209.411 594.738 208.854Z" fill="#88D1C3"/>
<path fill-rule="evenodd" clip-rule="evenodd" d="M600.19 205.966C600.346 206.258 600.636 206.454 600.965 206.492L600.961 206.495C601.311 206.499 601.645 206.345 601.87 206.077C602.183 205.751 602.383 205.334 602.442 204.886C602.536 204.468 602.464 204.03 602.243 203.664C602.082 203.375 601.795 203.179 601.467 203.136C601.112 203.13 600.773 203.285 600.546 203.559C600.229 203.881 600.027 204.299 599.972 204.747C599.888 205.167 599.966 205.602 600.19 205.966ZM605.147 210.024C604.707 208.774 604.348 207.939 604.071 207.518C603.796 207.101 603.553 206.871 603.342 206.832C602.317 207.85 601.626 208.661 601.268 209.266L601.382 209.472L601.617 209.534C602.078 209.676 602.472 209.976 602.731 210.381C602.915 210.662 603.208 211.376 603.609 212.522C603.849 213.307 604.17 214.065 604.566 214.783C604.738 215.099 605.041 215.323 605.394 215.395C605.746 215.423 606.09 215.278 606.316 215.007C606.662 214.638 606.927 214.201 607.096 213.726C607.261 213.334 607.396 212.931 607.499 212.519C607.548 212.276 607.587 212.072 607.613 211.913L607.049 211.61L606.951 211.853C606.843 212.156 606.706 212.449 606.543 212.727C606.467 212.804 606.322 212.682 606.117 212.37C605.911 212.058 605.586 211.275 605.147 210.024Z" fill="#88D1C3"/>
<path d="M609.331 212.362L609.086 212.608C608.772 212.132 608.296 211.102 607.656 209.519C607.017 207.936 606.637 207.053 606.517 206.871C606.26 206.515 605.881 206.268 605.453 206.178L605.216 206.113L605.099 205.903C605.463 205.286 606.156 204.468 607.18 203.448C607.404 203.508 607.669 203.758 607.98 204.202C608.282 202.779 608.692 201.81 609.208 201.296C609.449 200.999 609.83 200.853 610.209 200.912C610.588 201 610.914 201.243 611.109 201.582C611.512 202.3 611.845 203.055 612.103 203.836C612.349 204.584 612.662 205.308 613.039 206C613.247 206.316 613.387 206.441 613.457 206.373C613.606 206.108 613.727 205.829 613.818 205.538L613.913 205.292L614.494 205.588C614.469 205.748 614.43 205.952 614.384 206.199C614.284 206.611 614.153 207.014 613.993 207.406C613.838 207.867 613.589 208.291 613.262 208.649C612.628 209.298 612.033 209.202 611.478 208.36C611.08 207.645 610.746 206.895 610.481 206.121C610.233 205.391 609.927 204.682 609.566 204.001C609.386 203.728 609.222 203.664 609.077 203.812C608.76 204.185 608.532 204.627 608.41 205.103C608.499 205.301 608.712 205.841 609.05 206.721C609.794 208.605 610.382 209.874 610.813 210.527C610.607 210.969 610.113 211.581 609.331 212.362Z" fill="#88D1C3"/>
<path fill-rule="evenodd" clip-rule="evenodd" d="M615.092 195.247C615.144 195.421 615.182 195.598 615.207 195.778C614.579 195.928 614.007 196.251 613.554 196.71C612.891 197.374 612.582 198.326 612.625 199.567C612.669 200.808 613.133 202.097 614.016 203.436C614.583 204.296 615.147 204.774 615.714 204.873C616.271 204.974 616.838 204.781 617.216 204.362C617.654 203.925 617.961 203.155 618.135 202.051C618.586 202.526 619.076 202.5 619.605 201.973C619.925 201.619 620.167 201.202 620.319 200.748C620.473 200.365 620.598 199.97 620.692 199.567C620.711 199.416 620.735 199.285 620.757 199.171C620.771 199.097 620.783 199.029 620.792 198.967L620.217 198.673L620.125 198.916C620.029 199.211 619.906 199.496 619.755 199.766C619.686 199.833 619.527 199.674 619.273 199.29C618.861 198.609 618.495 197.902 618.178 197.173C617.716 196.16 617.314 195.121 616.972 194.062C616.283 194.349 615.648 194.749 615.092 195.247ZM617.633 201.366C617.548 201.727 617.377 202.061 617.133 202.339L617.127 202.343C616.812 202.657 616.373 202.387 615.809 201.532C615.265 200.717 614.855 199.82 614.598 198.876C614.348 197.955 614.377 197.341 614.684 197.036C614.907 196.83 615.172 196.675 615.461 196.581C616.011 198.248 616.74 199.853 617.633 201.366Z" fill="#88D1C3"/>
<path d="M621.961 199.645L621.714 199.89C621.402 199.416 620.925 198.385 620.285 196.798C619.645 195.211 619.265 194.327 619.145 194.145C618.887 193.788 618.507 193.541 618.078 193.451L617.841 193.387L617.723 193.177C618.325 192.279 619.026 191.453 619.813 190.714C620.039 190.774 620.306 191.026 620.617 191.47C620.923 190.043 621.335 189.072 621.851 188.555C622.096 188.275 622.467 188.14 622.835 188.198C623.214 188.285 623.541 188.527 623.735 188.866C624.139 189.584 624.473 190.34 624.73 191.123C624.976 191.872 625.289 192.597 625.666 193.29C625.875 193.608 626.016 193.733 626.085 193.663C626.233 193.394 626.352 193.11 626.441 192.816L626.537 192.569L627.12 192.867C627.094 193.025 627.049 193.22 627.007 193.481C626.907 193.893 626.776 194.296 626.615 194.689C626.457 195.15 626.207 195.574 625.881 195.936C625.245 196.559 624.654 196.454 624.108 195.622C623.709 194.906 623.375 194.155 623.11 193.38C622.863 192.649 622.557 191.939 622.195 191.257C622.015 190.984 621.852 190.922 621.705 191.069C621.388 191.444 621.159 191.887 621.036 192.364C621.123 192.561 621.337 193.103 621.675 193.986C622.43 195.879 623.023 197.152 623.453 197.803C623.242 198.248 622.745 198.862 621.961 199.645Z" fill="#88D1C3"/>
<path d="M627.143 184.325C626.798 184.671 626.74 185.277 626.97 186.148C627.2 187.019 627.571 187.845 628.068 188.596C628.86 189.797 629.576 190.079 630.214 189.441C630.446 189.2 630.632 188.919 630.763 188.612C630.896 188.325 631.006 188.027 631.091 187.722L631.168 187.35L631.773 187.518C631.764 187.8 631.726 188.08 631.66 188.354C631.582 188.702 631.486 189.046 631.373 189.385C631.244 189.742 631.082 190.086 630.889 190.414C630.686 190.78 630.435 191.118 630.143 191.419C629.468 192.088 628.794 192.336 628.121 192.163C627.448 191.99 626.828 191.472 626.261 190.61C625.497 189.516 625.119 188.199 625.188 186.865C625.237 185.627 625.757 184.453 626.643 183.581C627.217 183 627.778 182.695 628.326 182.665C628.829 182.611 629.317 182.85 629.579 183.28C629.871 183.727 630.007 184.258 629.966 184.792C629.713 185.033 629.422 185.23 629.104 185.375C628.823 185.531 628.508 185.613 628.188 185.615L627.514 184.102C627.371 184.137 627.241 184.215 627.143 184.325V184.325Z" fill="#88D1C3"/>
<path fill-rule="evenodd" clip-rule="evenodd" d="M630.137 181.677C629.968 183.059 630.314 184.454 631.109 185.595C631.675 186.462 632.291 186.97 632.955 187.118C633.62 187.265 634.249 187.043 634.84 186.452C635.439 185.858 635.895 185.134 636.172 184.338C636.284 184.001 636.379 183.659 636.457 183.313C636.533 183.037 636.579 182.754 636.593 182.468L635.97 182.299L635.893 182.67C635.821 182.981 635.716 183.284 635.581 183.574C635.453 183.883 635.27 184.165 635.04 184.408C634.44 185.005 633.801 184.866 633.124 183.992L633.403 183.638C633.916 182.92 634.333 182.137 634.642 181.31C634.825 180.823 634.915 180.306 634.906 179.786C634.897 179.239 634.727 178.707 634.418 178.256C634.167 177.809 633.68 177.548 633.167 177.585C632.574 177.66 632.027 177.949 631.63 178.396C630.806 179.216 630.308 180.31 630.137 181.677ZM632.766 179.889C633.108 180.387 633.277 180.984 633.247 181.587C633.206 182.196 632.991 182.779 632.626 183.269C632.221 182.629 631.91 181.935 631.702 181.207C631.457 180.39 631.495 179.818 631.823 179.493C632.097 179.219 632.412 179.352 632.766 179.889Z" fill="#88D1C3"/>
<path d="M327.081 142H329.985C332.709 142 334.629 140.284 334.629 137.872C334.629 135.46 332.709 133.756 329.985 133.756H327.081V142ZM328.581 140.644V135.112H330.141C331.881 135.112 333.105 136.252 333.105 137.872C333.105 139.492 331.881 140.644 330.141 140.644H328.581ZM338.946 140.848C338.058 140.848 337.41 140.248 337.23 139.396H341.91C341.91 137.104 340.794 135.652 338.874 135.652C337.11 135.652 335.718 137.02 335.718 138.88C335.718 140.788 337.182 142.144 338.958 142.144C339.858 142.144 340.938 141.76 341.478 141.184L340.554 140.224C340.206 140.584 339.522 140.848 338.946 140.848ZM338.934 136.948C339.81 136.948 340.338 137.5 340.506 138.28H337.242C337.458 137.464 338.118 136.948 338.934 136.948ZM343.179 142H344.643V133.612H343.179V142ZM349.153 140.848C348.265 140.848 347.617 140.248 347.437 139.396H352.117C352.117 137.104 351.001 135.652 349.081 135.652C347.317 135.652 345.925 137.02 345.925 138.88C345.925 140.788 347.389 142.144 349.165 142.144C350.065 142.144 351.145 141.76 351.685 141.184L350.761 140.224C350.413 140.584 349.729 140.848 349.153 140.848ZM349.141 136.948C350.017 136.948 350.545 137.5 350.713 138.28H347.449C347.665 137.464 348.325 136.948 349.141 136.948ZM358.006 135.796V136.72C357.562 136.06 356.758 135.652 355.882 135.652C354.274 135.652 353.086 136.864 353.086 138.592C353.086 140.32 354.274 141.544 355.882 141.544C356.77 141.544 357.514 141.148 358.006 140.488V141.292C358.006 142.228 357.238 142.816 356.014 142.816C355.282 142.816 354.538 142.564 354.106 142.168L353.566 143.236C354.178 143.716 355.162 144.064 356.23 144.064C358.126 144.064 359.47 142.936 359.47 141.34V135.796H358.006ZM356.302 140.296C355.318 140.296 354.61 139.588 354.61 138.592C354.61 137.608 355.318 136.9 356.302 136.9C357.298 136.9 358.006 137.608 358.006 138.592C358.006 139.588 357.298 140.296 356.302 140.296ZM363.809 135.652C363.029 135.652 362.213 135.868 361.337 136.3L361.841 137.32C362.369 137.056 362.933 136.852 363.521 136.852C364.649 136.852 365.045 137.548 365.045 138.268V138.436C364.481 138.22 363.869 138.1 363.305 138.1C361.913 138.1 360.773 138.94 360.773 140.164C360.773 141.364 361.769 142.144 363.089 142.144C363.809 142.144 364.589 141.832 365.045 141.256V142H366.473V138.268C366.473 136.696 365.453 135.652 363.809 135.652ZM363.413 141.076C362.717 141.076 362.201 140.704 362.201 140.116C362.201 139.528 362.789 139.12 363.521 139.12C364.073 139.12 364.589 139.204 365.045 139.36V140.056C364.877 140.716 364.121 141.076 363.413 141.076ZM371.154 140.668C371.022 140.8 370.794 140.896 370.542 140.896C370.194 140.896 369.93 140.596 369.93 140.176V137.008H371.334V135.796H369.93V134.092H368.502V135.796H367.602V137.008H368.502V140.356C368.502 141.4 369.222 142.144 370.254 142.144C370.722 142.144 371.226 141.952 371.574 141.652L371.154 140.668ZM375.602 140.848C374.714 140.848 374.066 140.248 373.886 139.396H378.566C378.566 137.104 377.45 135.652 375.53 135.652C373.766 135.652 372.374 137.02 372.374 138.88C372.374 140.788 373.838 142.144 375.614 142.144C376.514 142.144 377.594 141.76 378.134 141.184L377.21 140.224C376.862 140.584 376.178 140.848 375.602 140.848ZM375.59 136.948C376.466 136.948 376.994 137.5 377.162 138.28H373.898C374.114 137.464 374.774 136.948 375.59 136.948ZM384.551 133.612V136.756C384.059 136.06 383.315 135.652 382.403 135.652C380.759 135.652 379.559 136.996 379.559 138.892C379.559 140.8 380.759 142.144 382.403 142.144C383.315 142.144 384.059 141.736 384.551 141.04V142H386.015V133.612H384.551ZM382.799 140.896C381.755 140.896 381.011 140.056 381.011 138.892C381.011 137.728 381.755 136.9 382.799 136.9C383.831 136.9 384.551 137.728 384.551 138.892C384.551 140.056 383.831 140.896 382.799 140.896ZM391.218 142H392.718V136.492L395.43 141.52L398.154 136.492V142H399.642V133.756H398.154L395.43 138.784L392.718 133.756H391.218V142ZM407.745 133.756L405.129 140.008L402.513 133.756H400.857L404.301 142H405.969L409.413 133.756H407.745ZM410.6 142H412.1V139.648L413.216 138.448L415.94 142H417.788L414.248 137.392L417.548 133.756H415.712L412.1 137.788V133.756H410.6V142Z" fill="#7996C9"/>
<path d="M336.206 285H337.706V279.492L340.418 284.52L343.142 279.492V285H344.63V276.756H343.142L340.418 281.784L337.706 276.756H336.206V285ZM352.733 276.756L350.117 283.008L347.501 276.756H345.845L349.289 285H350.957L354.401 276.756H352.733ZM355.589 285H357.089V282.648L358.205 281.448L360.929 285H362.777L359.237 280.392L362.537 276.756H360.701L357.089 280.788V276.756H355.589V285ZM373.994 284.592C373.502 284.076 373.058 283.62 372.674 283.212C373.082 282.648 373.454 281.988 373.814 281.256L372.698 280.728C372.47 281.316 372.182 281.868 371.858 282.348C371.27 281.724 370.814 281.22 370.394 280.728C371.642 280.164 372.302 279.648 372.302 278.688C372.302 277.548 371.378 276.66 370.106 276.66C368.822 276.66 367.85 277.572 367.85 278.7C367.85 279.312 368.018 279.78 368.474 280.416C367.214 280.992 366.662 281.7 366.662 282.768C366.662 284.256 367.814 285.144 369.374 285.144C370.334 285.144 371.126 284.796 371.81 284.184L372.746 285.156L373.994 284.592ZM370.13 277.752C370.634 277.752 371.006 278.16 371.006 278.7C371.006 279.288 370.634 279.564 369.722 279.936C369.338 279.468 369.158 279.108 369.158 278.7C369.158 278.124 369.578 277.752 370.13 277.752ZM369.518 283.98C368.762 283.98 368.114 283.5 368.114 282.696C368.114 282.108 368.462 281.664 369.146 281.292C369.614 281.844 370.19 282.492 371.006 283.344C370.538 283.74 370.046 283.98 369.518 283.98ZM378.325 285H383.569V283.716H380.233L383.533 279.864L383.545 278.796H378.397V280.08H381.613L378.325 283.932V285ZM388.602 285.144C390.738 285.144 392.238 283.632 392.238 281.484V276.756H390.75V281.436C390.75 282.804 389.862 283.788 388.602 283.788C387.354 283.788 386.466 282.804 386.466 281.436V276.756H384.966V281.484C384.966 283.632 386.478 285.144 388.602 285.144ZM397.013 285.132C398.981 285.132 400.109 284.088 400.109 282.612C400.109 281.112 398.957 280.56 397.241 280.176C395.933 279.876 395.321 279.636 395.321 278.964C395.321 278.388 395.885 277.884 396.713 277.884C397.529 277.884 398.357 278.232 399.077 278.856L399.893 277.752C399.065 277.044 398.081 276.6 396.773 276.6C395.033 276.6 393.809 277.656 393.809 279.096C393.809 280.644 394.997 281.136 396.701 281.532C398.021 281.844 398.609 282.072 398.609 282.756C398.609 283.344 398.081 283.848 397.061 283.848C395.981 283.848 395.105 283.416 394.349 282.732L393.485 283.8C394.397 284.652 395.597 285.132 397.013 285.132ZM401.585 285H404.489C407.213 285 409.133 283.284 409.133 280.872C409.133 278.46 407.213 276.756 404.489 276.756H401.585V285ZM403.085 283.644V278.112H404.645C406.385 278.112 407.609 279.252 407.609 280.872C407.609 282.492 406.385 283.644 404.645 283.644H403.085ZM354.848 297L352.784 294.072C353.972 293.7 354.776 292.74 354.776 291.492C354.776 289.884 353.456 288.756 351.692 288.756H348.104V297H349.604V294.228H351.2L353.144 297H354.848ZM349.604 290.136H351.524C352.544 290.136 353.252 290.652 353.252 291.492C353.252 292.332 352.544 292.848 351.524 292.848H349.604V290.136ZM358.975 295.848C358.087 295.848 357.439 295.248 357.259 294.396H361.939C361.939 292.104 360.823 290.652 358.903 290.652C357.139 290.652 355.747 292.02 355.747 293.88C355.747 295.788 357.211 297.144 358.987 297.144C359.887 297.144 360.967 296.76 361.507 296.184L360.583 295.224C360.235 295.584 359.551 295.848 358.975 295.848ZM358.963 291.948C359.839 291.948 360.367 292.5 360.535 293.28H357.271C357.487 292.464 358.147 291.948 358.963 291.948ZM364.488 297H365.82L367.14 292.752L368.472 297H369.804L371.892 290.796H370.428L369.144 295.032L367.752 290.796H366.528L365.148 295.032L363.852 290.796H362.388L364.488 297ZM375.67 290.652C374.89 290.652 374.074 290.868 373.198 291.3L373.702 292.32C374.23 292.056 374.794 291.852 375.382 291.852C376.51 291.852 376.906 292.548 376.906 293.268V293.436C376.342 293.22 375.73 293.1 375.166 293.1C373.774 293.1 372.634 293.94 372.634 295.164C372.634 296.364 373.63 297.144 374.95 297.144C375.67 297.144 376.45 296.832 376.906 296.256V297H378.334V293.268C378.334 291.696 377.314 290.652 375.67 290.652ZM375.274 296.076C374.578 296.076 374.062 295.704 374.062 295.116C374.062 294.528 374.65 294.12 375.382 294.12C375.934 294.12 376.45 294.204 376.906 294.36V295.056C376.738 295.716 375.982 296.076 375.274 296.076ZM381.419 291.996V290.796H379.955V297H381.419V293.868C381.419 292.692 382.307 291.9 383.639 291.9V290.652C382.619 290.652 381.815 291.168 381.419 291.996ZM389.44 288.612V291.756C388.948 291.06 388.204 290.652 387.292 290.652C385.648 290.652 384.448 291.996 384.448 293.892C384.448 295.8 385.648 297.144 387.292 297.144C388.204 297.144 388.948 296.736 389.44 296.04V297H390.904V288.612H389.44ZM387.688 295.896C386.644 295.896 385.9 295.056 385.9 293.892C385.9 292.728 386.644 291.9 387.688 291.9C388.72 291.9 389.44 292.728 389.44 293.892C389.44 295.056 388.72 295.896 387.688 295.896ZM394.844 297.144C396.296 297.144 397.28 296.376 397.28 295.188C397.28 293.892 396.152 293.532 395.108 293.244C394.16 292.968 393.836 292.848 393.836 292.452C393.836 292.104 394.232 291.9 394.748 291.9C395.288 291.9 395.924 292.092 396.512 292.464L397.124 291.396C396.452 290.952 395.6 290.652 394.748 290.652C393.368 290.652 392.408 291.444 392.408 292.608C392.42 293.712 393.272 294.096 394.616 294.444C395.324 294.636 395.864 294.792 395.864 295.272C395.864 295.656 395.456 295.908 394.868 295.908C394.088 295.908 393.392 295.62 392.792 295.188L392.132 296.208C392.876 296.808 393.896 297.144 394.844 297.144Z" fill="#7996C9"/>
<path d="M382.432 199.257C382.049 199.624 381.537 199.826 381.007 199.82C380.477 199.814 379.97 199.6 379.595 199.225C379.22 198.85 379.006 198.344 379 197.813C378.995 197.283 379.197 196.771 379.563 196.388C384.614 191.338 387.451 184.488 387.452 177.346C387.452 170.203 384.616 163.353 379.566 158.302C379.186 157.922 378.972 157.406 378.972 156.868C378.972 156.33 379.186 155.814 379.566 155.434C379.946 155.054 380.462 154.84 381 154.84C381.538 154.84 382.054 155.054 382.434 155.434C388.244 161.246 391.508 169.128 391.508 177.346C391.507 185.564 388.243 193.445 382.432 199.257V199.257Z" fill="#D6DAFF" stroke="#7996C9" stroke-miterlimit="10"/>
<path d="M375.31 192.134C374.93 192.514 374.414 192.728 373.876 192.728C373.338 192.728 372.822 192.514 372.442 192.134C372.062 191.753 371.848 191.237 371.848 190.7C371.848 190.162 372.062 189.646 372.442 189.266C375.603 186.104 377.379 181.817 377.379 177.346C377.379 172.875 375.603 168.588 372.442 165.426C372.254 165.238 372.104 165.014 372.002 164.768C371.9 164.522 371.848 164.259 371.848 163.992C371.848 163.726 371.9 163.462 372.002 163.216C372.104 162.97 372.254 162.746 372.442 162.558V162.558C372.822 162.178 373.338 161.964 373.876 161.964C374.414 161.964 374.93 162.178 375.31 162.558C379.231 166.48 381.434 171.799 381.434 177.345C381.435 182.891 379.232 188.21 375.311 192.132L375.31 192.134Z" fill="#D6DAFF" stroke="#7996C9" stroke-miterlimit="10"/>
<path d="M368.192 185.004L368.185 185.012C367.802 185.378 367.29 185.58 366.76 185.574C366.23 185.568 365.723 185.355 365.348 184.98C364.973 184.605 364.76 184.098 364.754 183.568C364.748 183.038 364.95 182.526 365.316 182.143L365.322 182.137C366.591 180.865 367.304 179.141 367.303 177.344C367.303 175.547 366.589 173.823 365.319 172.552C365.131 172.364 364.981 172.14 364.879 171.894C364.777 171.648 364.724 171.385 364.723 171.118C364.723 170.852 364.775 170.588 364.877 170.342C364.979 170.096 365.128 169.872 365.316 169.684V169.684C365.697 169.304 366.212 169.09 366.749 169.09C367.287 169.089 367.803 169.302 368.183 169.682C370.215 171.713 371.358 174.468 371.36 177.341C371.361 180.215 370.222 182.971 368.192 185.004V185.004Z" fill="#D6DAFF" stroke="#7996C9" stroke-miterlimit="10"/>
<path d="M365.899 219.433C366.282 219.067 366.794 218.865 367.324 218.871C367.854 218.877 368.361 219.09 368.736 219.465C369.111 219.84 369.325 220.347 369.331 220.877C369.336 221.407 369.134 221.919 368.768 222.302C363.717 227.353 360.88 234.202 360.879 241.345C360.879 248.487 363.715 255.337 368.765 260.388C369.145 260.769 369.359 261.284 369.359 261.822C369.359 262.36 369.145 262.876 368.765 263.256C368.385 263.637 367.869 263.85 367.331 263.85C366.793 263.85 366.277 263.637 365.897 263.256C360.087 257.444 356.823 249.562 356.824 241.344C356.824 233.126 360.088 225.245 365.899 219.433V219.433Z" fill="#D6DAFF" stroke="#7996C9" stroke-miterlimit="10"/>
<path d="M373.021 226.557C373.401 226.176 373.917 225.963 374.455 225.963C374.993 225.963 375.509 226.176 375.889 226.557C376.269 226.937 376.483 227.453 376.483 227.991C376.483 228.529 376.269 229.044 375.889 229.425C372.728 232.586 370.952 236.874 370.952 241.344C370.952 245.815 372.728 250.103 375.889 253.264C376.078 253.452 376.227 253.676 376.329 253.922C376.431 254.168 376.483 254.432 376.483 254.698C376.483 254.965 376.431 255.228 376.329 255.474C376.227 255.72 376.078 255.944 375.889 256.132V256.132C375.509 256.513 374.993 256.726 374.455 256.726C373.917 256.726 373.401 256.513 373.021 256.132C369.1 252.21 366.897 246.891 366.897 241.345C366.896 235.8 369.099 230.481 373.02 226.558L373.021 226.557Z" fill="#D6DAFF" stroke="#7996C9" stroke-miterlimit="10"/>
<path d="M380.139 233.686L380.146 233.679C380.529 233.312 381.041 233.11 381.571 233.116C382.101 233.122 382.608 233.335 382.983 233.71C383.358 234.085 383.571 234.592 383.577 235.122C383.583 235.653 383.381 236.164 383.015 236.548L383.009 236.553C381.74 237.825 381.027 239.549 381.028 241.347C381.028 243.144 381.742 244.867 383.012 246.139C383.2 246.327 383.35 246.55 383.452 246.796C383.555 247.042 383.607 247.306 383.608 247.572C383.608 247.838 383.556 248.102 383.454 248.348C383.352 248.595 383.203 248.818 383.015 249.007V249.007C382.635 249.387 382.119 249.6 381.582 249.601C381.044 249.601 380.528 249.388 380.148 249.008C378.116 246.977 376.973 244.222 376.971 241.349C376.97 238.476 378.109 235.719 380.139 233.686V233.686Z" fill="#D6DAFF" stroke="#7996C9" stroke-miterlimit="10"/>
<rect x="834" y="366" width="240" height="45" rx="22.5" fill="#FFF0F0"/>
<path d="M927.738 394.192C930.922 394.192 933.578 391.584 933.578 388.496C933.578 385.408 930.922 382.816 927.738 382.816C924.586 382.816 921.898 385.408 921.898 388.496C921.898 391.584 924.586 394.192 927.738 394.192ZM927.738 392.048C925.898 392.048 924.33 390.416 924.33 388.496C924.33 386.592 925.898 384.96 927.738 384.96C929.594 384.96 931.162 386.592 931.162 388.496C931.162 390.416 929.594 392.048 927.738 392.048ZM944.611 394L941.907 390.16C943.411 389.632 944.403 388.352 944.403 386.72C944.403 384.544 942.643 383.008 940.259 383.008H935.315V394H937.667V390.432H939.411L941.923 394H944.611ZM937.667 385.168H940.003C941.171 385.168 941.971 385.776 941.971 386.72C941.971 387.664 941.171 388.272 940.003 388.272H937.667V385.168ZM954.222 394H956.878L952.398 383.008H949.758L945.278 394H947.918L948.622 392.272H953.518L954.222 394ZM949.438 390.272L951.07 386.256L952.702 390.272H949.438ZM963.582 394.192C965.246 394.192 966.782 393.472 967.854 392.352L966.142 390.816C965.502 391.552 964.59 392.048 963.582 392.048C961.742 392.048 960.174 390.416 960.174 388.496C960.174 386.592 961.742 384.96 963.582 384.96C964.59 384.96 965.502 385.456 966.142 386.192L967.854 384.656C966.782 383.52 965.246 382.816 963.582 382.816C960.43 382.816 957.742 385.408 957.742 388.496C957.742 391.584 960.43 394.192 963.582 394.192ZM971.603 391.872V383.008H969.235V394H977.075V391.872H971.603ZM987.06 385.136V383.008H978.596V394H987.06V391.872H980.964V389.456H986.484V387.328H980.964V385.136H987.06Z" fill="#FF8080"/>
<path d="M710.202 401H711.702V395.492L714.414 400.52L717.138 395.492V401H718.626V392.756H717.138L714.414 397.784L711.702 392.756H710.202V401ZM726.73 392.756L724.114 399.008L721.498 392.756H719.842L723.286 401H724.954L728.398 392.756H726.73ZM729.585 401H731.085V398.648L732.201 397.448L734.925 401H736.773L733.233 396.392L736.533 392.756H734.697L731.085 396.788V392.756H729.585V401ZM747.858 401L745.794 398.072C746.982 397.7 747.786 396.74 747.786 395.492C747.786 393.884 746.466 392.756 744.702 392.756H741.114V401H742.614V398.228H744.21L746.154 401H747.858ZM742.614 394.136H744.534C745.554 394.136 746.262 394.652 746.262 395.492C746.262 396.332 745.554 396.848 744.534 396.848H742.614V394.136ZM751.985 399.848C751.097 399.848 750.449 399.248 750.269 398.396H754.949C754.949 396.104 753.833 394.652 751.913 394.652C750.149 394.652 748.757 396.02 748.757 397.88C748.757 399.788 750.221 401.144 751.997 401.144C752.897 401.144 753.977 400.76 754.517 400.184L753.593 399.224C753.245 399.584 752.561 399.848 751.985 399.848ZM751.973 395.948C752.849 395.948 753.377 396.5 753.545 397.28H750.281C750.497 396.464 751.157 395.948 751.973 395.948ZM757.497 401H758.829L760.149 396.752L761.481 401H762.813L764.901 394.796H763.437L762.153 399.032L760.761 394.796H759.537L758.157 399.032L756.861 394.796H755.397L757.497 401ZM768.68 394.652C767.9 394.652 767.084 394.868 766.208 395.3L766.712 396.32C767.24 396.056 767.804 395.852 768.392 395.852C769.52 395.852 769.916 396.548 769.916 397.268V397.436C769.352 397.22 768.74 397.1 768.176 397.1C766.784 397.1 765.644 397.94 765.644 399.164C765.644 400.364 766.64 401.144 767.96 401.144C768.68 401.144 769.46 400.832 769.916 400.256V401H771.344V397.268C771.344 395.696 770.324 394.652 768.68 394.652ZM768.284 400.076C767.588 400.076 767.072 399.704 767.072 399.116C767.072 398.528 767.66 398.12 768.392 398.12C768.944 398.12 769.46 398.204 769.916 398.36V399.056C769.748 399.716 768.992 400.076 768.284 400.076ZM774.429 395.996V394.796H772.965V401H774.429V397.868C774.429 396.692 775.317 395.9 776.649 395.9V394.652C775.629 394.652 774.825 395.168 774.429 395.996ZM782.45 392.612V395.756C781.958 395.06 781.214 394.652 780.302 394.652C778.658 394.652 777.458 395.996 777.458 397.892C777.458 399.8 778.658 401.144 780.302 401.144C781.214 401.144 781.958 400.736 782.45 400.04V401H783.914V392.612H782.45ZM780.698 399.896C779.654 399.896 778.91 399.056 778.91 397.892C778.91 396.728 779.654 395.9 780.698 395.9C781.73 395.9 782.45 396.728 782.45 397.892C782.45 399.056 781.73 399.896 780.698 399.896ZM787.854 401.144C789.306 401.144 790.29 400.376 790.29 399.188C790.29 397.892 789.162 397.532 788.118 397.244C787.17 396.968 786.846 396.848 786.846 396.452C786.846 396.104 787.242 395.9 787.758 395.9C788.298 395.9 788.934 396.092 789.522 396.464L790.134 395.396C789.462 394.952 788.61 394.652 787.758 394.652C786.378 394.652 785.418 395.444 785.418 396.608C785.43 397.712 786.282 398.096 787.626 398.444C788.334 398.636 788.874 398.792 788.874 399.272C788.874 399.656 788.466 399.908 787.878 399.908C787.098 399.908 786.402 399.62 785.802 399.188L785.142 400.208C785.886 400.808 786.906 401.144 787.854 401.144Z" fill="#FF8080"/>
<path d="M770.273 282.132C772.241 282.132 773.369 281.088 773.369 279.612C773.369 278.112 772.217 277.56 770.501 277.176C769.193 276.876 768.581 276.636 768.581 275.964C768.581 275.388 769.145 274.884 769.973 274.884C770.789 274.884 771.617 275.232 772.337 275.856L773.153 274.752C772.325 274.044 771.341 273.6 770.033 273.6C768.293 273.6 767.069 274.656 767.069 276.096C767.069 277.644 768.257 278.136 769.961 278.532C771.281 278.844 771.869 279.072 771.869 279.756C771.869 280.344 771.341 280.848 770.321 280.848C769.241 280.848 768.365 280.416 767.609 279.732L766.745 280.8C767.657 281.652 768.857 282.132 770.273 282.132ZM775.433 274.86C775.889 274.86 776.261 274.464 776.261 274.02C776.261 273.576 775.889 273.192 775.433 273.192C774.965 273.192 774.593 273.576 774.593 274.02C774.593 274.464 774.965 274.86 775.433 274.86ZM774.689 282H776.153V275.796H774.689V282ZM782.391 275.796V276.72C781.947 276.06 781.143 275.652 780.267 275.652C778.659 275.652 777.471 276.864 777.471 278.592C777.471 280.32 778.659 281.544 780.267 281.544C781.155 281.544 781.899 281.148 782.391 280.488V281.292C782.391 282.228 781.623 282.816 780.399 282.816C779.667 282.816 778.923 282.564 778.491 282.168L777.951 283.236C778.563 283.716 779.547 284.064 780.615 284.064C782.511 284.064 783.855 282.936 783.855 281.34V275.796H782.391ZM780.687 280.296C779.703 280.296 778.995 279.588 778.995 278.592C778.995 277.608 779.703 276.9 780.687 276.9C781.683 276.9 782.391 277.608 782.391 278.592C782.391 279.588 781.683 280.296 780.687 280.296ZM788.877 275.652C788.061 275.652 787.341 276.048 786.957 276.624V275.796H785.493V282H786.957V278.076C787.053 277.416 787.689 276.9 788.457 276.9C789.225 276.9 789.765 277.5 789.765 278.34V282H791.181V278.052C791.181 276.648 790.233 275.652 788.877 275.652ZM795.663 280.848C794.775 280.848 794.127 280.248 793.947 279.396H798.627C798.627 277.104 797.511 275.652 795.591 275.652C793.827 275.652 792.435 277.02 792.435 278.88C792.435 280.788 793.899 282.144 795.675 282.144C796.575 282.144 797.655 281.76 798.195 281.184L797.271 280.224C796.923 280.584 796.239 280.848 795.663 280.848ZM795.651 276.948C796.527 276.948 797.055 277.5 797.223 278.28H793.959C794.175 277.464 794.835 276.948 795.651 276.948ZM804.612 273.612V276.756C804.12 276.06 803.376 275.652 802.464 275.652C800.82 275.652 799.62 276.996 799.62 278.892C799.62 280.8 800.82 282.144 802.464 282.144C803.376 282.144 804.12 281.736 804.612 281.04V282H806.076V273.612H804.612ZM802.86 280.896C801.816 280.896 801.072 280.056 801.072 278.892C801.072 277.728 801.816 276.9 802.86 276.9C803.892 276.9 804.612 277.728 804.612 278.892C804.612 280.056 803.892 280.896 802.86 280.896ZM814.782 275.652C813.858 275.652 813.114 276.072 812.622 276.78V275.796H811.158V284.064H812.622V281.016C813.114 281.724 813.858 282.144 814.782 282.144C816.426 282.144 817.626 280.8 817.626 278.892C817.626 276.996 816.426 275.652 814.782 275.652ZM814.386 280.896C813.354 280.896 812.634 280.056 812.634 278.892C812.634 277.728 813.354 276.9 814.386 276.9C815.43 276.9 816.174 277.728 816.174 278.892C816.174 280.056 815.43 280.896 814.386 280.896ZM820.45 276.996V275.796H818.986V282H820.45V278.868C820.45 277.692 821.338 276.9 822.67 276.9V275.652C821.65 275.652 820.846 276.168 820.45 276.996ZM824.499 274.86C824.955 274.86 825.327 274.464 825.327 274.02C825.327 273.576 824.955 273.192 824.499 273.192C824.031 273.192 823.659 273.576 823.659 274.02C823.659 274.464 824.031 274.86 824.499 274.86ZM823.755 282H825.219V275.796H823.755V282ZM829.825 282.144C830.809 282.144 831.637 281.736 832.237 281.1L831.253 280.248C830.905 280.644 830.377 280.896 829.837 280.896C828.817 280.896 827.965 279.984 827.965 278.892C827.965 277.812 828.817 276.9 829.837 276.9C830.365 276.9 830.881 277.152 831.217 277.524L832.201 276.66C831.613 276.048 830.785 275.652 829.849 275.652C828.037 275.652 826.513 277.128 826.513 278.892C826.513 280.656 828.037 282.144 829.825 282.144ZM836.28 280.848C835.392 280.848 834.744 280.248 834.564 279.396H839.244C839.244 277.104 838.128 275.652 836.208 275.652C834.444 275.652 833.052 277.02 833.052 278.88C833.052 280.788 834.516 282.144 836.292 282.144C837.192 282.144 838.272 281.76 838.812 281.184L837.888 280.224C837.54 280.584 836.856 280.848 836.28 280.848ZM836.268 276.948C837.144 276.948 837.672 277.5 837.84 278.28H834.576C834.792 277.464 835.452 276.948 836.268 276.948ZM845.783 275.28C845.783 274.86 846.047 274.56 846.395 274.56C846.647 274.56 846.875 274.656 847.007 274.788L847.427 273.852C847.079 273.552 846.575 273.36 846.107 273.36C845.075 273.36 844.355 274.104 844.355 275.148V275.796H843.455V277.008H844.355V282H845.783V277.008H847.187V275.796H845.783V275.28ZM851.245 280.848C850.357 280.848 849.709 280.248 849.529 279.396H854.209C854.209 277.104 853.093 275.652 851.173 275.652C849.409 275.652 848.017 277.02 848.017 278.88C848.017 280.788 849.481 282.144 851.257 282.144C852.157 282.144 853.237 281.76 853.777 281.184L852.853 280.224C852.505 280.584 851.821 280.848 851.245 280.848ZM851.233 276.948C852.109 276.948 852.637 277.5 852.805 278.28H849.541C849.757 277.464 850.417 276.948 851.233 276.948ZM858.37 280.848C857.482 280.848 856.834 280.248 856.654 279.396H861.334C861.334 277.104 860.218 275.652 858.298 275.652C856.534 275.652 855.142 277.02 855.142 278.88C855.142 280.788 856.606 282.144 858.382 282.144C859.282 282.144 860.362 281.76 860.902 281.184L859.978 280.224C859.63 280.584 858.946 280.848 858.37 280.848ZM858.358 276.948C859.234 276.948 859.762 277.5 859.93 278.28H856.666C856.882 277.464 857.542 276.948 858.358 276.948ZM867.319 273.612V276.756C866.827 276.06 866.083 275.652 865.171 275.652C863.527 275.652 862.327 276.996 862.327 278.892C862.327 280.8 863.527 282.144 865.171 282.144C866.083 282.144 866.827 281.736 867.319 281.04V282H868.783V273.612H867.319ZM865.567 280.896C864.523 280.896 863.779 280.056 863.779 278.892C863.779 277.728 864.523 276.9 865.567 276.9C866.599 276.9 867.319 277.728 867.319 278.892C867.319 280.056 866.599 280.896 865.567 280.896Z" fill="#FF8080"/>
<path d="M792.47 333.785C791.973 333.899 791.44 333.802 790.983 333.516C790.527 333.229 790.183 332.775 790.027 332.252C789.871 331.728 789.915 331.176 790.148 330.713C790.381 330.251 790.786 329.915 791.276 329.778C797.921 328.085 803.459 323.659 806.672 317.474C809.885 311.289 810.509 303.851 808.408 296.796C808.249 296.265 808.296 295.705 808.538 295.239C808.78 294.774 809.197 294.44 809.698 294.313C810.198 294.185 810.741 294.274 811.207 294.559C811.672 294.845 812.023 295.304 812.181 295.835C814.599 303.952 813.881 312.51 810.184 319.627C806.488 326.743 800.116 331.836 792.47 333.785V333.785Z" fill="#FFF0F0" stroke="#FF8080" stroke-miterlimit="10"/>
<path d="M789.505 324.056C789.005 324.183 788.462 324.094 787.996 323.809C787.531 323.523 787.18 323.065 787.022 322.533C786.863 322.002 786.91 321.442 787.152 320.976C787.394 320.51 787.811 320.177 788.312 320.05C792.471 318.99 795.937 316.219 797.948 312.347C799.959 308.476 800.349 303.82 799.034 299.404C798.955 299.141 798.926 298.868 798.949 298.601C798.971 298.334 799.044 298.077 799.164 297.847C799.284 297.616 799.448 297.416 799.647 297.257C799.846 297.098 800.076 296.983 800.324 296.92V296.92C800.824 296.793 801.367 296.882 801.833 297.167C802.298 297.453 802.649 297.911 802.807 298.443C804.439 303.92 803.955 309.696 801.461 314.499C798.967 319.302 794.667 322.739 789.507 324.055L789.505 324.056Z" fill="#FFF0F0" stroke="#FF8080" stroke-miterlimit="10"/>
<path d="M786.548 314.322L786.539 314.325C786.042 314.439 785.509 314.342 785.052 314.055C784.596 313.769 784.253 313.315 784.096 312.791C783.94 312.268 783.984 311.716 784.217 311.253C784.45 310.791 784.855 310.455 785.345 310.318L785.353 310.316C787.024 309.888 788.416 308.773 789.224 307.217C790.032 305.66 790.189 303.789 789.661 302.014C789.582 301.751 789.553 301.478 789.575 301.21C789.597 300.943 789.67 300.687 789.79 300.456C789.909 300.225 790.073 300.024 790.272 299.865C790.471 299.706 790.701 299.592 790.948 299.528V299.528C791.448 299.401 791.991 299.49 792.456 299.775C792.922 300.06 793.273 300.518 793.431 301.049C794.278 303.886 794.028 306.878 792.737 309.367C791.447 311.856 789.221 313.639 786.548 314.322V314.322Z" fill="#FFF0F0" stroke="#FF8080" stroke-miterlimit="10"/>
<path d="M765.861 342.905C766.358 342.791 766.891 342.888 767.348 343.175C767.805 343.461 768.148 343.915 768.304 344.439C768.46 344.962 768.417 345.515 768.183 345.977C767.95 346.439 767.545 346.775 767.055 346.912C760.41 348.606 754.872 353.031 751.659 359.216C748.446 365.401 747.822 372.839 749.923 379.894C750.082 380.425 750.035 380.985 749.793 381.451C749.551 381.917 749.134 382.25 748.633 382.378C748.133 382.505 747.59 382.416 747.124 382.131C746.659 381.845 746.308 381.387 746.15 380.855C743.732 372.738 744.451 364.18 748.147 357.063C751.843 349.947 758.215 344.854 765.861 342.905V342.905Z" fill="#FFF0F0" stroke="#FF8080" stroke-miterlimit="10"/>
<path d="M768.826 352.635C769.326 352.507 769.869 352.596 770.335 352.881C770.801 353.167 771.151 353.626 771.309 354.157C771.468 354.688 771.421 355.248 771.179 355.714C770.937 356.18 770.52 356.513 770.02 356.641C765.86 357.701 762.394 360.471 760.383 364.343C758.372 368.215 757.982 372.87 759.297 377.286C759.376 377.549 759.405 377.822 759.383 378.089C759.36 378.357 759.287 378.613 759.167 378.844C759.047 379.074 758.883 379.275 758.684 379.434C758.485 379.593 758.255 379.707 758.007 379.77V379.77C757.507 379.897 756.964 379.809 756.498 379.523C756.033 379.238 755.682 378.779 755.524 378.248C753.892 372.77 754.376 366.994 756.87 362.191C759.364 357.388 763.664 353.951 768.824 352.635L768.826 352.635Z" fill="#FFF0F0" stroke="#FF8080" stroke-miterlimit="10"/>
<path d="M771.783 362.368L771.792 362.366C772.289 362.252 772.822 362.348 773.279 362.635C773.736 362.921 774.079 363.375 774.235 363.899C774.391 364.423 774.347 364.975 774.114 365.437C773.881 365.899 773.476 366.235 772.986 366.373L772.978 366.374C771.307 366.803 769.915 367.917 769.107 369.474C768.299 371.03 768.142 372.902 768.67 374.677C768.749 374.94 768.778 375.213 768.756 375.48C768.734 375.747 768.661 376.003 768.541 376.234C768.422 376.465 768.258 376.666 768.059 376.825C767.86 376.984 767.631 377.099 767.383 377.162V377.162C766.883 377.289 766.34 377.201 765.875 376.916C765.409 376.631 765.059 376.172 764.9 375.642C764.053 372.804 764.303 369.812 765.594 367.323C766.884 364.834 769.11 363.052 771.783 362.368V362.368Z" fill="#FFF0F0" stroke="#FF8080" stroke-miterlimit="10"/>
<rect x="843" y="15" width="240" height="45" rx="22.5" fill="#E5F3F0"/>
<path d="M911.542 38.664H914.102V40.344C913.478 40.792 912.71 41.048 911.958 41.048C910.086 41.048 908.502 39.416 908.502 37.496C908.502 35.592 910.086 33.96 911.958 33.96C912.966 33.96 914.038 34.44 914.694 35.192L916.406 33.656C915.302 32.504 913.606 31.816 911.958 31.816C908.774 31.816 906.07 34.408 906.07 37.496C906.07 40.584 908.774 43.192 911.958 43.192C913.606 43.192 915.302 42.504 916.406 41.352V36.824H911.542V38.664ZM923.801 43.192C926.985 43.192 929.641 40.584 929.641 37.496C929.641 34.408 926.985 31.816 923.801 31.816C920.649 31.816 917.961 34.408 917.961 37.496C917.961 40.584 920.649 43.192 923.801 43.192ZM923.801 41.048C921.961 41.048 920.393 39.416 920.393 37.496C920.393 35.592 921.961 33.96 923.801 33.96C925.657 33.96 927.225 35.592 927.225 37.496C927.225 39.416 925.657 41.048 923.801 41.048ZM939.457 32.008L936.305 39.752L933.153 32.008H930.497L934.977 43H937.617L942.097 32.008H939.457ZM951.857 34.136V32.008H943.393V43H951.857V40.872H945.761V38.456H951.281V36.328H945.761V34.136H951.857ZM962.939 43L960.235 39.16C961.739 38.632 962.731 37.352 962.731 35.72C962.731 33.544 960.971 32.008 958.587 32.008H953.643V43H955.995V39.432H957.739L960.251 43H962.939ZM955.995 34.168H958.331C959.499 34.168 960.299 34.776 960.299 35.72C960.299 36.664 959.499 37.272 958.331 37.272H955.995V34.168ZM964.582 43H966.934V35.896L972.23 43H974.598V32.008H972.23V39.112L966.934 32.008H964.582V43ZM984.941 43H987.597L983.117 32.008H980.477L975.997 43H978.637L979.341 41.272H984.237L984.941 43ZM980.157 39.272L981.789 35.256L983.421 39.272H980.157ZM988.989 43H991.341V35.896L996.637 43H999.005V32.008H996.637V39.112L991.341 32.008H988.989V43ZM1006.69 43.192C1008.36 43.192 1009.89 42.472 1010.96 41.352L1009.25 39.816C1008.61 40.552 1007.7 41.048 1006.69 41.048C1004.85 41.048 1003.28 39.416 1003.28 37.496C1003.28 35.592 1004.85 33.96 1006.69 33.96C1007.7 33.96 1008.61 34.456 1009.25 35.192L1010.96 33.656C1009.89 32.52 1008.36 31.816 1006.69 31.816C1003.54 31.816 1000.85 34.408 1000.85 37.496C1000.85 40.584 1003.54 43.192 1006.69 43.192ZM1020.89 34.136V32.008H1012.42V43H1020.89V40.872H1014.79V38.456H1020.31V36.328H1014.79V34.136H1020.89Z" fill="#5FB2A2"/>
<path d="M737.34 15.756L734.724 22.008L732.108 15.756H730.452L733.896 24H735.564L739.008 15.756H737.34ZM742.22 24.144C744.02 24.144 745.544 22.656 745.544 20.892C745.544 19.128 744.02 17.652 742.22 17.652C740.42 17.652 738.896 19.128 738.896 20.892C738.896 22.656 740.42 24.144 742.22 24.144ZM742.22 22.896C741.188 22.896 740.324 21.984 740.324 20.892C740.324 19.812 741.188 18.9 742.22 18.9C743.24 18.9 744.104 19.812 744.104 20.892C744.104 21.984 743.24 22.896 742.22 22.896ZM749.909 22.668C749.777 22.8 749.549 22.896 749.297 22.896C748.949 22.896 748.685 22.596 748.685 22.176V19.008H750.089V17.796H748.685V16.092H747.257V17.796H746.357V19.008H747.257V22.356C747.257 23.4 747.977 24.144 749.009 24.144C749.477 24.144 749.981 23.952 750.329 23.652L749.909 22.668ZM754.358 22.848C753.47 22.848 752.822 22.248 752.642 21.396H757.322C757.322 19.104 756.206 17.652 754.286 17.652C752.522 17.652 751.13 19.02 751.13 20.88C751.13 22.788 752.594 24.144 754.37 24.144C755.27 24.144 756.35 23.76 756.89 23.184L755.966 22.224C755.618 22.584 754.934 22.848 754.358 22.848ZM754.346 18.948C755.222 18.948 755.75 19.5 755.918 20.28H752.654C752.87 19.464 753.53 18.948 754.346 18.948ZM760.883 24.144C762.335 24.144 763.319 23.376 763.319 22.188C763.319 20.892 762.191 20.532 761.147 20.244C760.199 19.968 759.875 19.848 759.875 19.452C759.875 19.104 760.271 18.9 760.787 18.9C761.327 18.9 761.963 19.092 762.551 19.464L763.163 18.396C762.491 17.952 761.639 17.652 760.787 17.652C759.407 17.652 758.447 18.444 758.447 19.608C758.459 20.712 759.311 21.096 760.655 21.444C761.363 21.636 761.903 21.792 761.903 22.272C761.903 22.656 761.495 22.908 760.907 22.908C760.127 22.908 759.431 22.62 758.831 22.188L758.171 23.208C758.915 23.808 759.935 24.144 760.883 24.144Z" fill="#5FB2A2"/>
<path d="M772.172 70.3121C772.052 70.8399 771.74 71.3089 771.302 71.6188C770.865 71.9287 770.336 72.0549 769.831 71.9703C769.325 71.8857 768.883 71.597 768.597 71.1661C768.312 70.7352 768.207 70.1963 768.304 69.6648C769.77 62.5302 768.471 55.2351 764.694 49.384C760.916 43.5329 754.969 39.605 748.16 38.4643C747.648 38.3785 747.2 38.0827 746.915 37.6421C746.631 37.2015 746.533 36.6522 746.643 36.1149C746.754 35.5776 747.063 35.0965 747.504 34.7772C747.945 34.458 748.48 34.3269 748.993 34.4127C756.827 35.7253 763.67 40.2447 768.016 46.9769C772.363 53.7091 773.858 62.1029 772.172 70.3121V70.3121Z" fill="#E5F3F0" stroke="#5FB2A2" stroke-miterlimit="10"/>
<path d="M762.57 68.5614C762.46 69.0987 762.15 69.5798 761.71 69.8991C761.269 70.2183 760.734 70.3494 760.221 70.2636C759.708 70.1778 759.26 69.882 758.976 69.4414C758.691 69.0008 758.593 68.4515 758.704 67.9142C759.621 63.4484 758.808 58.8823 756.443 55.2201C754.078 51.558 750.356 49.0998 746.094 48.3862C745.84 48.3438 745.599 48.2494 745.386 48.1084C745.172 47.9673 744.99 47.7824 744.849 47.5643C744.708 47.3461 744.611 47.0989 744.565 46.8368C744.518 46.5747 744.522 46.3029 744.577 46.0368V46.0368C744.687 45.4995 744.997 45.0184 745.437 44.6992C745.878 44.3799 746.414 44.2488 746.926 44.3346C752.213 45.2201 756.831 48.2695 759.765 52.8123C762.698 57.3552 763.708 63.0194 762.571 68.5594L762.57 68.5614Z" fill="#E5F3F0" stroke="#5FB2A2" stroke-miterlimit="10"/>
<path d="M752.969 66.8046L752.967 66.8146C752.847 67.3423 752.534 67.8114 752.097 68.1213C751.659 68.4312 751.131 68.5574 750.626 68.4728C750.12 68.3881 749.677 68.0995 749.392 67.6686C749.107 67.2376 749.001 66.6987 749.099 66.1672L749.101 66.1592C749.467 64.3637 749.139 62.5285 748.188 61.0566C747.237 59.5847 745.741 58.5964 744.028 58.3086C743.774 58.2665 743.533 58.1723 743.319 58.0315C743.105 57.8907 742.922 57.706 742.781 57.4879C742.64 57.2699 742.543 57.0228 742.496 56.7608C742.45 56.4987 742.454 56.2269 742.508 55.9608V55.9608C742.618 55.4238 742.928 54.9429 743.368 54.6237C743.808 54.3044 744.343 54.173 744.856 54.2582C747.595 54.7159 749.988 56.2946 751.51 58.6472C753.031 60.9999 753.556 63.934 752.969 66.8046V66.8046Z" fill="#E5F3F0" stroke="#5FB2A2" stroke-miterlimit="10"/>
<path d="M772.158 96.3783C772.278 95.8505 772.591 95.3815 773.028 95.0716C773.466 94.7617 773.994 94.6355 774.499 94.7201C775.005 94.8048 775.448 95.0934 775.733 95.5243C776.018 95.9552 776.123 96.4941 776.026 97.0256C774.56 104.16 775.859 111.455 779.636 117.306C783.414 123.158 789.361 127.085 796.17 128.226C796.682 128.312 797.13 128.608 797.415 129.048C797.699 129.489 797.797 130.038 797.687 130.576C797.576 131.113 797.267 131.594 796.826 131.913C796.386 132.232 795.85 132.364 795.337 132.278C787.503 130.965 780.661 126.446 776.314 119.713C771.967 112.981 770.472 104.588 772.158 96.3783V96.3783Z" fill="#E5F3F0" stroke="#5FB2A2" stroke-miterlimit="10"/>
<path d="M781.76 98.129C781.87 97.5917 782.18 97.1106 782.62 96.7913C783.061 96.4721 783.597 96.341 784.109 96.4268C784.622 96.5126 785.07 96.8084 785.354 97.249C785.639 97.6896 785.737 98.2389 785.626 98.7762C784.709 103.242 785.522 107.808 787.887 111.47C790.252 115.132 793.974 117.591 798.236 118.304C798.49 118.347 798.731 118.441 798.944 118.582C799.158 118.723 799.341 118.908 799.481 119.126C799.622 119.344 799.719 119.592 799.765 119.854C799.812 120.116 799.808 120.388 799.753 120.654V120.654C799.643 121.191 799.333 121.672 798.893 121.991C798.452 122.31 797.916 122.442 797.404 122.356C792.117 121.47 787.499 118.421 784.565 113.878C781.632 109.335 780.622 103.671 781.759 98.131L781.76 98.129Z" fill="#E5F3F0" stroke="#5FB2A2" stroke-miterlimit="10"/>
<path d="M791.361 99.8859L791.363 99.8759C791.483 99.3481 791.796 98.8791 792.233 98.5691C792.671 98.2592 793.199 98.1331 793.704 98.2177C794.21 98.3023 794.653 98.591 794.938 99.0219C795.224 99.4528 795.329 99.9917 795.231 100.523L795.229 100.531C794.863 102.327 795.191 104.162 796.142 105.634C797.093 107.106 798.589 108.094 800.302 108.382C800.556 108.424 800.797 108.518 801.011 108.659C801.225 108.8 801.408 108.984 801.549 109.202C801.69 109.421 801.787 109.668 801.834 109.93C801.88 110.192 801.877 110.464 801.822 110.73V110.73C801.712 111.267 801.402 111.748 800.962 112.067C800.522 112.386 799.987 112.517 799.474 112.432C796.735 111.975 794.342 110.396 792.82 108.043C791.299 105.691 790.774 102.756 791.361 99.8859V99.8859Z" fill="#E5F3F0" stroke="#5FB2A2" stroke-miterlimit="10"/>
<path d="M771.614 151H776.858V149.716H773.522L776.822 145.864L776.834 144.796H771.686V146.08H774.902L771.614 149.932V151ZM781.89 151.144C784.026 151.144 785.526 149.632 785.526 147.484V142.756H784.038V147.436C784.038 148.804 783.15 149.788 781.89 149.788C780.642 149.788 779.754 148.804 779.754 147.436V142.756H778.254V147.484C778.254 149.632 779.766 151.144 781.89 151.144ZM790.302 151.132C792.27 151.132 793.398 150.088 793.398 148.612C793.398 147.112 792.246 146.56 790.53 146.176C789.222 145.876 788.61 145.636 788.61 144.964C788.61 144.388 789.174 143.884 790.002 143.884C790.818 143.884 791.646 144.232 792.366 144.856L793.182 143.752C792.354 143.044 791.37 142.6 790.062 142.6C788.322 142.6 787.098 143.656 787.098 145.096C787.098 146.644 788.286 147.136 789.99 147.532C791.31 147.844 791.898 148.072 791.898 148.756C791.898 149.344 791.37 149.848 790.35 149.848C789.27 149.848 788.394 149.416 787.638 148.732L786.774 149.8C787.686 150.652 788.886 151.132 790.302 151.132ZM794.874 151H797.778C800.502 151 802.422 149.284 802.422 146.872C802.422 144.46 800.502 142.756 797.778 142.756H794.874V151ZM796.374 149.644V144.112H797.934C799.674 144.112 800.898 145.252 800.898 146.872C800.898 148.492 799.674 149.644 797.934 149.644H796.374ZM814.037 151L811.973 148.072C813.161 147.7 813.965 146.74 813.965 145.492C813.965 143.884 812.645 142.756 810.881 142.756H807.293V151H808.793V148.228H810.389L812.333 151H814.037ZM808.793 144.136H810.713C811.733 144.136 812.441 144.652 812.441 145.492C812.441 146.332 811.733 146.848 810.713 146.848H808.793V144.136ZM818.164 149.848C817.276 149.848 816.628 149.248 816.448 148.396H821.128C821.128 146.104 820.012 144.652 818.092 144.652C816.328 144.652 814.936 146.02 814.936 147.88C814.936 149.788 816.4 151.144 818.176 151.144C819.076 151.144 820.156 150.76 820.696 150.184L819.772 149.224C819.424 149.584 818.74 149.848 818.164 149.848ZM818.152 145.948C819.028 145.948 819.556 146.5 819.724 147.28H816.46C816.676 146.464 817.336 145.948 818.152 145.948ZM823.677 151H825.009L826.329 146.752L827.661 151H828.993L831.081 144.796H829.617L828.333 149.032L826.941 144.796H825.717L824.337 149.032L823.041 144.796H821.577L823.677 151ZM834.859 144.652C834.079 144.652 833.263 144.868 832.387 145.3L832.891 146.32C833.419 146.056 833.983 145.852 834.571 145.852C835.699 145.852 836.095 146.548 836.095 147.268V147.436C835.531 147.22 834.919 147.1 834.355 147.1C832.963 147.1 831.823 147.94 831.823 149.164C831.823 150.364 832.819 151.144 834.139 151.144C834.859 151.144 835.639 150.832 836.095 150.256V151H837.523V147.268C837.523 145.696 836.503 144.652 834.859 144.652ZM834.463 150.076C833.767 150.076 833.251 149.704 833.251 149.116C833.251 148.528 833.839 148.12 834.571 148.12C835.123 148.12 835.639 148.204 836.095 148.36V149.056C835.927 149.716 835.171 150.076 834.463 150.076ZM840.608 145.996V144.796H839.144V151H840.608V147.868C840.608 146.692 841.496 145.9 842.828 145.9V144.652C841.808 144.652 841.004 145.168 840.608 145.996ZM848.629 142.612V145.756C848.137 145.06 847.393 144.652 846.481 144.652C844.837 144.652 843.637 145.996 843.637 147.892C843.637 149.8 844.837 151.144 846.481 151.144C847.393 151.144 848.137 150.736 848.629 150.04V151H850.093V142.612H848.629ZM846.877 149.896C845.833 149.896 845.089 149.056 845.089 147.892C845.089 146.728 845.833 145.9 846.877 145.9C847.909 145.9 848.629 146.728 848.629 147.892C848.629 149.056 847.909 149.896 846.877 149.896ZM854.033 151.144C855.485 151.144 856.469 150.376 856.469 149.188C856.469 147.892 855.341 147.532 854.297 147.244C853.349 146.968 853.025 146.848 853.025 146.452C853.025 146.104 853.421 145.9 853.937 145.9C854.477 145.9 855.113 146.092 855.701 146.464L856.313 145.396C855.641 144.952 854.789 144.652 853.937 144.652C852.557 144.652 851.597 145.444 851.597 146.608C851.609 147.712 852.461 148.096 853.805 148.444C854.513 148.636 855.053 148.792 855.053 149.272C855.053 149.656 854.645 149.908 854.057 149.908C853.277 149.908 852.581 149.62 851.981 149.188L851.321 150.208C852.065 150.808 853.085 151.144 854.033 151.144Z" fill="#5FB2A2"/>
</svg>
