<svg width="1143" height="527" viewBox="0 0 1143 527" fill="none" xmlns="http://www.w3.org/2000/svg">
<path d="M875.5 496.5H535.5L518 473.5" stroke="#88D1C3" stroke-width="2"/>
<path d="M269 119H378" stroke="#FF8080" stroke-width="2"/>
<path opacity="0.24" d="M559 118.749C590.941 118.749 622.062 128.861 647.903 147.636C673.744 166.41 692.978 192.883 702.848 223.261C712.718 253.639 712.718 286.361 702.848 316.739C692.978 347.117 672.744 374.59 646.903 393.364L595.269 322.296C606.101 314.426 615.164 302.328 619.302 289.593C623.44 276.859 623.44 263.141 619.302 250.407C615.164 237.672 607.101 226.574 596.269 218.704C585.436 210.833 572.39 206.594 559 206.594V118.749Z" fill="#7068AA"/>
<path d="M594.995 0.39209C649.05 7.60892 699.688 30.908 740.336 67.2653C780.983 103.623 809.764 151.359 822.941 204.278C836.118 257.197 833.083 312.856 814.231 364.028C795.378 415.201 761.579 459.526 717.219 491.248L647.017 393.08C671.694 375.433 690.497 350.775 700.984 322.308C711.472 293.84 713.16 262.878 705.83 233.439C698.499 204 682.489 177.445 659.877 157.219C637.264 136.994 609.095 124.032 579.024 120.018L594.995 0.39209Z" fill="#7068AA"/>
<path d="M574.251 478.44C533.701 481.421 493.167 472.453 457.66 452.643L485.731 402.328C511.403 416.65 540.709 423.135 570.026 420.979L574.251 478.44Z" fill="#88D1C3"/>
<path d="M429.226 447.648C399.224 425.731 375.261 396.572 359.573 362.891C343.885 329.21 336.473 292.069 339 255L407.7 259.684C405.964 285.151 411.216 310.677 421.993 333.816C432.771 356.955 449.234 376.987 469.845 392.044L429.226 447.648Z" fill="#7996C9"/>
<path d="M355.478 256.053C356.686 238.416 360.182 221.011 365.878 204.276L415.51 221.167C411.278 233.601 408.681 246.533 407.783 259.637L355.478 256.053Z" fill="#FFB3B3"/>
<path d="M334.648 193.611C350.626 146.685 380.916 105.95 421.255 77.1389C461.595 48.3278 509.953 32.8909 559.524 33.0006L559.335 118.484C527.644 118.413 496.728 128.282 470.938 146.702C445.149 165.121 425.784 191.163 415.569 221.164L334.648 193.611Z" fill="#FF8080"/>
<path d="M472 427.5C465.464 423.857 458.532 419.54 452.5 415.113L469.474 391.985C474.545 395.707 480.472 399.378 485.966 402.441L472 427.5Z" fill="#A3B3D0"/>
<path opacity="0.6" d="M559 94C567.268 94 575.526 94.5826 583.712 95.7435L580.275 119.979C573.227 118.979 566.118 118.478 559 118.478V94Z" fill="#7068AA"/>
<path opacity="0.24" d="M646.892 393.372C623.67 410.241 597.129 419.153 568.483 420.953C539.838 422.753 511.273 416.365 486.122 402.535L507.548 363.57C525.304 373.333 545.472 377.843 565.695 376.573C585.919 375.302 604.363 369.304 620.758 357.395L646.892 393.372Z" fill="#73D7C3"/>
<path opacity="0.24" d="M486.122 402.535C460.972 388.706 440.276 368.006 426.451 342.853C412.626 317.7 405.816 288.348 407.621 259.703L452 262.5C450.726 282.723 455.66 303.676 465.42 321.434C475.181 339.192 489.792 353.806 507.548 363.57L486.122 402.535Z" fill="#7996C9"/>
<path opacity="0.24" d="M407.669 259.653C410.097 221.259 427.446 186.034 455.498 159.708C483.551 133.383 520.58 118.736 559.05 118.749L559.03 179.702C536.063 179.695 513.956 188.439 497.209 204.155C480.462 219.872 469.95 240.579 468.5 263.5L407.669 259.653Z" fill="#FF8080"/>
<path d="M269 230H359" stroke="#FFB3B3" stroke-width="2"/>
<path d="M829 242H874" stroke="#7068AA" stroke-width="2"/>
<path d="M571 97H874" stroke="#A9A4CC" stroke-width="2"/>
<path d="M269 350H355" stroke="#7996C9" stroke-width="2"/>
<path d="M269 462H424L464 421" stroke="#A3B3D0" stroke-width="2"/>
<path d="M875.001 374L787.5 461.501L636 461.502" stroke="#B8E3DB" stroke-width="2"/>
<path d="M680.5 439.5C649.087 462.472 613.143 475.565 574.333 478.434L570.085 420.975C598.145 418.901 624.289 409.609 647 393L680.5 439.5Z" fill="#B8E3DB"/>
<path d="M560.993 110H567.629V108.964H562.743L565.263 106.78C566.887 105.38 567.531 104.344 567.531 103.042C567.531 101.32 566.131 100.214 564.465 100.214C562.953 100.214 561.875 100.928 561.077 102.062L561.847 102.692C562.505 101.796 563.303 101.194 564.423 101.194C565.445 101.194 566.425 101.88 566.425 103.056C566.425 104.008 565.865 104.932 564.507 106.094L560.993 109.09V110ZM571.435 105.114C572.751 105.114 573.675 104.064 573.675 102.706C573.675 101.376 572.779 100.298 571.449 100.298C570.147 100.298 569.209 101.348 569.209 102.734C569.209 104.036 570.105 105.114 571.435 105.114ZM570.385 110H571.309L577.889 100.382H576.965L570.385 110ZM571.449 104.358C570.679 104.358 570.091 103.644 570.091 102.72C570.091 101.754 570.651 101.054 571.435 101.054C572.219 101.054 572.793 101.768 572.793 102.72C572.793 103.658 572.233 104.358 571.449 104.358ZM576.783 110.14C578.085 110.14 579.023 109.09 579.023 107.718C579.023 106.416 578.127 105.324 576.797 105.324C575.467 105.324 574.557 106.416 574.557 107.732C574.557 109.104 575.495 110.14 576.783 110.14ZM576.797 109.384C575.999 109.384 575.439 108.67 575.439 107.718C575.439 106.808 575.985 106.08 576.783 106.08C577.567 106.08 578.141 106.794 578.141 107.732C578.141 108.684 577.595 109.384 576.797 109.384Z" fill="white"/>
<path d="M460.993 414H467.629V412.964H462.743L465.263 410.78C466.887 409.38 467.531 408.344 467.531 407.042C467.531 405.32 466.131 404.214 464.465 404.214C462.953 404.214 461.875 404.928 461.077 406.062L461.847 406.692C462.505 405.796 463.303 405.194 464.423 405.194C465.445 405.194 466.425 405.88 466.425 407.056C466.425 408.008 465.865 408.932 464.507 410.094L460.993 413.09V414ZM471.435 409.114C472.751 409.114 473.675 408.064 473.675 406.706C473.675 405.376 472.779 404.298 471.449 404.298C470.147 404.298 469.209 405.348 469.209 406.734C469.209 408.036 470.105 409.114 471.435 409.114ZM470.385 414H471.309L477.889 404.382H476.965L470.385 414ZM471.449 408.358C470.679 408.358 470.091 407.644 470.091 406.72C470.091 405.754 470.651 405.054 471.435 405.054C472.219 405.054 472.793 405.768 472.793 406.72C472.793 407.658 472.233 408.358 471.449 408.358ZM476.783 414.14C478.085 414.14 479.023 413.09 479.023 411.718C479.023 410.416 478.127 409.324 476.797 409.324C475.467 409.324 474.557 410.416 474.557 411.732C474.557 413.104 475.495 414.14 476.783 414.14ZM476.797 413.384C475.999 413.384 475.439 412.67 475.439 411.718C475.439 410.808 475.985 410.08 476.783 410.08C477.567 410.08 478.141 410.794 478.141 411.732C478.141 412.684 477.595 413.384 476.797 413.384Z" fill="white"/>
<path d="M749.509 252.264C752.655 252.264 754.767 250.438 754.767 247.908C754.767 245.73 753.051 244.608 751.511 244.256C753.073 243.794 754.437 242.65 754.437 240.714C754.437 238.294 752.325 236.622 749.443 236.622C747.089 236.622 745.417 237.766 744.273 239.284L745.417 240.318C746.495 239.02 747.683 238.184 749.355 238.184C751.247 238.184 752.699 239.328 752.699 240.912C752.699 242.628 751.181 243.596 749.157 243.574L747.529 243.552V245.136H749.135C751.511 245.136 753.029 246.038 753.029 247.82C753.029 249.536 751.621 250.702 749.509 250.702C747.661 250.702 746.187 249.822 745.197 248.546L744.009 249.668C745.109 251.12 747.023 252.264 749.509 252.264ZM762.686 252.264C765.788 252.264 768.208 250.614 768.208 248.04C768.208 246.148 766.712 244.806 764.886 244.19C766.448 243.618 767.834 242.496 767.834 240.648C767.834 238.162 765.392 236.622 762.686 236.622C760.068 236.622 757.56 238.118 757.56 240.626C757.56 242.364 758.792 243.53 760.508 244.19C758.66 244.784 757.164 246.148 757.164 248.04C757.164 250.592 759.562 252.264 762.686 252.264ZM762.686 243.508C761.256 243.42 759.298 242.562 759.298 240.802C759.298 239.284 760.794 238.184 762.686 238.184C764.578 238.184 766.096 239.284 766.096 240.802C766.096 242.518 764.16 243.42 762.686 243.508ZM762.686 250.702C760.596 250.702 758.902 249.58 758.902 247.93C758.902 246.104 761.124 245.048 762.686 245.004C764.27 245.048 766.47 246.104 766.47 247.93C766.47 249.58 764.776 250.702 762.686 250.702ZM773.893 244.322C775.961 244.322 777.413 242.672 777.413 240.538C777.413 238.448 776.005 236.754 773.915 236.754C771.869 236.754 770.395 238.404 770.395 240.582C770.395 242.628 771.803 244.322 773.893 244.322ZM772.243 252H773.695L784.035 236.886H782.583L772.243 252ZM773.915 243.134C772.705 243.134 771.781 242.012 771.781 240.56C771.781 239.042 772.661 237.942 773.893 237.942C775.125 237.942 776.027 239.064 776.027 240.56C776.027 242.034 775.147 243.134 773.915 243.134ZM782.297 252.22C784.343 252.22 785.817 250.57 785.817 248.414C785.817 246.368 784.409 244.652 782.319 244.652C780.229 244.652 778.799 246.368 778.799 248.436C778.799 250.592 780.273 252.22 782.297 252.22ZM782.319 251.032C781.065 251.032 780.185 249.91 780.185 248.414C780.185 246.984 781.043 245.84 782.297 245.84C783.529 245.84 784.431 246.962 784.431 248.436C784.431 249.932 783.573 251.032 782.319 251.032Z" fill="white"/>
<path d="M455.621 194H456.557V186.644H459.329V185.756H452.849V186.644H455.621V194ZM466.731 186.644V185.756H460.815V194H466.731V193.112H461.763V190.244H466.239V189.356H461.763V186.644H466.731ZM475.047 194H476.067L472.431 185.756H471.411L467.775 194H468.795L469.623 192.128H474.219L475.047 194ZM470.007 191.24L471.927 186.908L473.835 191.24H470.007ZM477.577 194H478.513V187.772L481.573 193.52L484.633 187.772V194H485.569V185.756H484.633L481.573 191.504L478.513 185.756H477.577V194Z" fill="white"/>
<path d="M626.288 241H627.224V232.756H626.288V241ZM629.304 241H630.24V234.292L635.352 241H636.288V232.756H635.352V239.464L630.24 232.756H629.304V241ZM642.258 241.144C643.398 241.144 644.454 240.652 645.222 239.884L644.586 239.236C643.986 239.872 643.158 240.28 642.258 240.28C640.482 240.28 638.982 238.72 638.982 236.872C638.982 235.036 640.482 233.476 642.258 233.476C643.158 233.476 643.986 233.884 644.586 234.52L645.222 233.872C644.454 233.092 643.398 232.612 642.258 232.612C639.978 232.612 638.034 234.556 638.034 236.872C638.034 239.188 639.978 241.144 642.258 241.144ZM652.43 233.644V232.756H646.514V241H652.43V240.112H647.462V237.244H651.938V236.356H647.462V233.644H652.43ZM654.218 241H655.154V234.292L660.266 241H661.202V232.756H660.266V239.464L655.154 232.756H654.218V241ZM665.636 241H666.572V233.644H669.344V232.756H662.864V233.644H665.636V241ZM670.831 241H671.767V232.756H670.831V241ZM680.375 232.756L677.255 239.848L674.123 232.756H673.103L676.739 241H677.759L681.395 232.756H680.375ZM688.641 233.644V232.756H682.725V241H688.641V240.112H683.673V237.244H688.149V236.356H683.673V233.644H688.641ZM693.105 241.132C695.025 241.132 696.009 240.064 696.009 238.756C696.009 237.304 694.881 236.74 693.309 236.368C691.905 236.032 691.089 235.732 691.089 234.88C691.089 234.124 691.833 233.452 692.853 233.452C693.717 233.452 694.533 233.848 695.217 234.508L695.793 233.776C695.037 233.08 694.125 232.6 692.901 232.6C691.317 232.6 690.141 233.632 690.141 234.952C690.141 236.38 691.185 236.896 692.841 237.28C694.281 237.616 695.061 237.964 695.061 238.84C695.061 239.584 694.413 240.28 693.141 240.28C691.989 240.28 691.137 239.788 690.441 239.092L689.853 239.824C690.681 240.64 691.749 241.132 693.105 241.132Z" fill="white"/>
<path d="M436.182 303.816L436.951 303.372L433.993 298.249L426.853 302.371L429.811 307.494L430.58 307.05L428.096 302.748L430.58 301.314L432.818 305.19L433.587 304.746L431.349 300.87L433.698 299.514L436.182 303.816ZM432.44 312.336C433.01 313.323 433.964 313.991 435.013 314.272L435.257 313.398C434.406 313.196 433.639 312.683 433.189 311.904C432.301 310.366 432.902 308.286 434.502 307.362C436.092 306.444 438.193 306.964 439.081 308.502C439.531 309.281 439.592 310.202 439.341 311.04L440.22 311.266C440.512 310.211 440.399 309.057 439.829 308.07C438.689 306.095 436.034 305.384 434.028 306.542C432.022 307.7 431.3 310.361 432.44 312.336ZM436.431 319.247C437.577 321.232 440.23 321.917 442.236 320.759C444.242 319.601 444.965 316.966 443.819 314.981C442.679 313.006 440.024 312.295 438.018 313.453C436.012 314.611 435.291 317.272 436.431 319.247ZM437.179 318.815C436.291 317.277 436.892 315.198 438.492 314.274C440.082 313.356 442.183 313.875 443.071 315.413C443.959 316.951 443.352 319.02 441.762 319.938C440.162 320.862 438.067 320.353 437.179 318.815ZM440.759 326.72C441.719 328.382 443.136 328.701 444.268 328.047C445.526 327.321 445.45 326.062 444.987 324.514C444.576 323.13 444.427 322.274 445.165 321.848C445.82 321.47 446.774 321.778 447.284 322.661C447.716 323.41 447.781 324.314 447.551 325.237L448.473 325.369C448.698 324.367 448.658 323.337 448.046 322.277C447.254 320.905 445.772 320.403 444.629 321.063C443.392 321.777 443.467 322.939 443.963 324.565C444.392 325.98 444.48 326.83 443.722 327.268C443.077 327.64 442.151 327.426 441.515 326.325C440.939 325.327 440.939 324.343 441.193 323.393L440.266 323.249C439.973 324.374 440.081 325.545 440.759 326.72ZM444.421 332.798L444.913 333.651L447.823 331.971L453.708 332.397L453.144 331.42L448.346 331.1L450.48 326.806L449.898 325.798L447.331 331.118L444.421 332.798ZM448.464 340.065C449.424 341.728 450.841 342.046 451.974 341.392C453.231 340.666 453.155 339.407 452.692 337.86C452.281 336.476 452.132 335.619 452.87 335.193C453.525 334.815 454.479 335.124 454.989 336.007C455.421 336.755 455.486 337.66 455.256 338.582L456.178 338.715C456.403 337.712 456.363 336.683 455.751 335.623C454.959 334.251 453.477 333.748 452.334 334.408C451.097 335.122 451.172 336.284 451.668 337.911C452.097 339.326 452.185 340.175 451.427 340.613C450.782 340.985 449.856 340.772 449.22 339.67C448.644 338.673 448.644 337.689 448.899 336.738L447.971 336.595C447.678 337.72 447.786 338.891 448.464 340.065ZM452.012 345.947L452.48 346.757L458.85 343.079L460.236 345.48L461.005 345.036L457.765 339.424L456.996 339.868L458.382 342.269L452.012 345.947ZM463.938 351.891L464.707 351.447L461.749 346.323L454.609 350.445L457.567 355.569L458.336 355.125L455.852 350.822L458.336 349.388L460.574 353.264L461.343 352.82L459.105 348.944L461.454 347.588L463.938 351.891ZM458.461 357.117L458.929 357.927L464.322 354.813L460.875 360.337L467.382 360.113L461.989 363.227L462.457 364.038L469.596 359.916L469.128 359.105L462.62 359.329L466.068 353.805L465.6 352.995L458.461 357.117Z" fill="white"/>
<path d="M524.291 399.144C525.431 399.144 526.487 398.652 527.255 397.884L526.619 397.236C526.019 397.872 525.191 398.28 524.291 398.28C522.515 398.28 521.015 396.72 521.015 394.872C521.015 393.036 522.515 391.476 524.291 391.476C525.191 391.476 526.019 391.884 526.619 392.52L527.255 391.872C526.487 391.092 525.431 390.612 524.291 390.612C522.011 390.612 520.067 392.556 520.067 394.872C520.067 397.188 522.011 399.144 524.291 399.144ZM532.272 399.144C534.564 399.144 536.484 397.188 536.484 394.872C536.484 392.556 534.564 390.612 532.272 390.612C529.992 390.612 528.048 392.556 528.048 394.872C528.048 397.188 529.992 399.144 532.272 399.144ZM532.272 398.28C530.496 398.28 528.996 396.72 528.996 394.872C528.996 393.036 530.496 391.476 532.272 391.476C534.048 391.476 535.536 393.036 535.536 394.872C535.536 396.72 534.048 398.28 532.272 398.28ZM538.232 399H539.168V392.292L544.28 399H545.216V390.756H544.28V397.464L539.168 390.756H538.232V399ZM549.65 399H550.586V391.644H553.358V390.756H546.878V391.644H549.65V399ZM561.228 393.396C561.228 391.848 559.896 390.756 558.192 390.756H554.844V399H555.78V396.036H557.964L560.052 399H561.12L558.984 395.952C560.292 395.676 561.228 394.692 561.228 393.396ZM555.78 391.644H558.024C559.368 391.644 560.28 392.292 560.28 393.396C560.28 394.5 559.368 395.148 558.024 395.148H555.78V391.644ZM562.649 399H563.585V390.756H562.649V399ZM565.665 399H569.589C571.017 399 572.037 398.064 572.037 396.744C572.037 395.844 571.485 395.1 570.537 394.62C571.281 394.188 571.713 393.684 571.713 392.808C571.713 391.608 570.777 390.756 569.445 390.756H565.665V399ZM566.601 394.248V391.608H569.205C570.117 391.608 570.765 392.16 570.765 392.928C570.765 393.696 570.117 394.248 569.205 394.248H566.601ZM566.601 398.148V395.1H569.349C570.369 395.1 571.089 395.736 571.089 396.624C571.089 397.512 570.369 398.148 569.349 398.148H566.601ZM577.193 399.144C579.209 399.144 580.637 397.668 580.637 395.58V390.756H579.701V395.58C579.701 397.164 578.657 398.292 577.193 398.292C575.729 398.292 574.685 397.164 574.685 395.58V390.756H573.749V395.58C573.749 397.668 575.177 399.144 577.193 399.144ZM584.982 399H585.918V391.644H588.69V390.756H582.21V391.644H584.982V399ZM593.561 399.144C595.853 399.144 597.773 397.188 597.773 394.872C597.773 392.556 595.853 390.612 593.561 390.612C591.281 390.612 589.337 392.556 589.337 394.872C589.337 397.188 591.281 399.144 593.561 399.144ZM593.561 398.28C591.785 398.28 590.285 396.72 590.285 394.872C590.285 393.036 591.785 391.476 593.561 391.476C595.337 391.476 596.825 393.036 596.825 394.872C596.825 396.72 595.337 398.28 593.561 398.28ZM605.725 393.396C605.725 391.848 604.393 390.756 602.689 390.756H599.341V399H600.277V396.036H602.461L604.549 399H605.617L603.481 395.952C604.789 395.676 605.725 394.692 605.725 393.396ZM600.277 391.644H602.521C603.865 391.644 604.777 392.292 604.777 393.396C604.777 394.5 603.865 395.148 602.521 395.148H600.277V391.644ZM610.001 399.132C611.921 399.132 612.905 398.064 612.905 396.756C612.905 395.304 611.777 394.74 610.205 394.368C608.801 394.032 607.985 393.732 607.985 392.88C607.985 392.124 608.729 391.452 609.749 391.452C610.613 391.452 611.429 391.848 612.113 392.508L612.689 391.776C611.933 391.08 611.021 390.6 609.797 390.6C608.213 390.6 607.037 391.632 607.037 392.952C607.037 394.38 608.081 394.896 609.737 395.28C611.177 395.616 611.957 395.964 611.957 396.84C611.957 397.584 611.309 398.28 610.037 398.28C608.885 398.28 608.033 397.788 607.337 397.092L606.749 397.824C607.577 398.64 608.645 399.132 610.001 399.132Z" fill="white"/>
<path d="M612.74 446.264C615.842 446.264 618.262 444.614 618.262 442.04C618.262 440.148 616.766 438.806 614.94 438.19C616.502 437.618 617.888 436.496 617.888 434.648C617.888 432.162 615.446 430.622 612.74 430.622C610.122 430.622 607.614 432.118 607.614 434.626C607.614 436.364 608.846 437.53 610.562 438.19C608.714 438.784 607.218 440.148 607.218 442.04C607.218 444.592 609.616 446.264 612.74 446.264ZM612.74 437.508C611.31 437.42 609.352 436.562 609.352 434.802C609.352 433.284 610.848 432.184 612.74 432.184C614.632 432.184 616.15 433.284 616.15 434.802C616.15 436.518 614.214 437.42 612.74 437.508ZM612.74 444.702C610.65 444.702 608.956 443.58 608.956 441.93C608.956 440.104 611.178 439.048 612.74 439.004C614.324 439.048 616.524 440.104 616.524 441.93C616.524 443.58 614.83 444.702 612.74 444.702ZM623.948 438.322C626.016 438.322 627.468 436.672 627.468 434.538C627.468 432.448 626.06 430.754 623.97 430.754C621.924 430.754 620.45 432.404 620.45 434.582C620.45 436.628 621.858 438.322 623.948 438.322ZM622.298 446H623.75L634.09 430.886H632.638L622.298 446ZM623.97 437.134C622.76 437.134 621.836 436.012 621.836 434.56C621.836 433.042 622.716 431.942 623.948 431.942C625.18 431.942 626.082 433.064 626.082 434.56C626.082 436.034 625.202 437.134 623.97 437.134ZM632.352 446.22C634.398 446.22 635.872 444.57 635.872 442.414C635.872 440.368 634.464 438.652 632.374 438.652C630.284 438.652 628.854 440.368 628.854 442.436C628.854 444.592 630.328 446.22 632.352 446.22ZM632.374 445.032C631.12 445.032 630.24 443.91 630.24 442.414C630.24 440.984 631.098 439.84 632.352 439.84C633.584 439.84 634.486 440.962 634.486 442.436C634.486 443.932 633.628 445.032 632.374 445.032Z" fill="white"/>
<path d="M506.243 452H507.959V436.886H506.573L502.855 439.416L503.603 440.692L506.243 438.976V452ZM517.629 452.264C521.303 452.264 523.899 449.03 523.899 444.432C523.899 439.856 521.303 436.622 517.629 436.622C513.933 436.622 511.337 439.856 511.337 444.432C511.337 449.03 513.933 452.264 517.629 452.264ZM517.629 450.68C514.967 450.68 513.075 448.084 513.075 444.432C513.075 440.78 514.967 438.206 517.629 438.206C520.291 438.206 522.161 440.78 522.161 444.432C522.161 448.084 520.291 450.68 517.629 450.68ZM529.739 444.322C531.807 444.322 533.259 442.672 533.259 440.538C533.259 438.448 531.851 436.754 529.761 436.754C527.715 436.754 526.241 438.404 526.241 440.582C526.241 442.628 527.649 444.322 529.739 444.322ZM528.089 452H529.541L539.881 436.886H538.429L528.089 452ZM529.761 443.134C528.551 443.134 527.627 442.012 527.627 440.56C527.627 439.042 528.507 437.942 529.739 437.942C530.971 437.942 531.873 439.064 531.873 440.56C531.873 442.034 530.993 443.134 529.761 443.134ZM538.143 452.22C540.189 452.22 541.663 450.57 541.663 448.414C541.663 446.368 540.255 444.652 538.165 444.652C536.075 444.652 534.645 446.368 534.645 448.436C534.645 450.592 536.119 452.22 538.143 452.22ZM538.165 451.032C536.911 451.032 536.031 449.91 536.031 448.414C536.031 446.984 536.889 445.84 538.143 445.84C539.375 445.84 540.277 446.962 540.277 448.436C540.277 449.932 539.419 451.032 538.165 451.032Z" fill="white"/>
<path d="M379.974 355H381.69V339.886H380.304L376.586 342.416L377.334 343.692L379.974 341.976V355ZM391.096 345.562C389.314 345.562 387.752 346.42 386.828 347.872V347.674C386.828 344.044 388.742 341.184 391.162 341.184C392.614 341.184 393.604 341.844 394.55 342.768L395.496 341.426C394.374 340.348 393.054 339.622 391.206 339.622C387.774 339.622 385.09 343.164 385.09 347.674C385.09 351.942 386.74 355.264 390.832 355.264C393.978 355.264 396.156 353.064 396.156 350.27C396.156 347.278 393.846 345.562 391.096 345.562ZM390.81 353.79C388.698 353.79 387.466 352.14 387.026 349.852C387.4 348.18 388.874 347.036 390.788 347.036C392.812 347.036 394.418 348.29 394.418 350.358C394.418 352.03 393.076 353.79 390.81 353.79ZM402.009 347.322C404.077 347.322 405.529 345.672 405.529 343.538C405.529 341.448 404.121 339.754 402.031 339.754C399.985 339.754 398.511 341.404 398.511 343.582C398.511 345.628 399.919 347.322 402.009 347.322ZM400.359 355H401.811L412.151 339.886H410.699L400.359 355ZM402.031 346.134C400.821 346.134 399.897 345.012 399.897 343.56C399.897 342.042 400.777 340.942 402.009 340.942C403.241 340.942 404.143 342.064 404.143 343.56C404.143 345.034 403.263 346.134 402.031 346.134ZM410.413 355.22C412.459 355.22 413.933 353.57 413.933 351.414C413.933 349.368 412.525 347.652 410.435 347.652C408.345 347.652 406.915 349.368 406.915 351.436C406.915 353.592 408.389 355.22 410.413 355.22ZM410.435 354.032C409.181 354.032 408.301 352.91 408.301 351.414C408.301 349.984 409.159 348.84 410.413 348.84C411.645 348.84 412.547 349.962 412.547 351.436C412.547 352.932 411.689 354.032 410.435 354.032Z" fill="white"/>
<path d="M376.716 242.264C379.818 242.264 382.084 240.284 382.084 237.292C382.084 234.3 379.818 232.584 377.09 232.584C375.704 232.584 374.67 233.046 373.856 233.596L374.01 228.514H381.27V226.886H372.338L372.118 234.652L373.372 235.268C374.318 234.564 375.44 234.102 376.738 234.102C378.85 234.102 380.346 235.422 380.346 237.358C380.346 239.272 378.872 240.724 376.782 240.724C375.11 240.724 373.68 239.888 372.514 238.612L371.392 239.866C372.624 241.274 374.384 242.264 376.716 242.264ZM387.862 234.322C389.93 234.322 391.382 232.672 391.382 230.538C391.382 228.448 389.974 226.754 387.884 226.754C385.838 226.754 384.364 228.404 384.364 230.582C384.364 232.628 385.772 234.322 387.862 234.322ZM386.212 242H387.664L398.004 226.886H396.552L386.212 242ZM387.884 233.134C386.674 233.134 385.75 232.012 385.75 230.56C385.75 229.042 386.63 227.942 387.862 227.942C389.094 227.942 389.996 229.064 389.996 230.56C389.996 232.034 389.116 233.134 387.884 233.134ZM396.266 242.22C398.312 242.22 399.786 240.57 399.786 238.414C399.786 236.368 398.378 234.652 396.288 234.652C394.198 234.652 392.768 236.368 392.768 238.436C392.768 240.592 394.242 242.22 396.266 242.22ZM396.288 241.032C395.034 241.032 394.154 239.91 394.154 238.414C394.154 236.984 395.012 235.84 396.266 235.84C397.498 235.84 398.4 236.962 398.4 238.436C398.4 239.932 397.542 241.032 396.288 241.032Z" fill="white"/>
<path d="M425.974 130H427.69V114.886H426.304L422.586 117.416L423.334 118.692L425.974 116.976V130ZM436.414 114.622C433.268 114.622 431.09 116.822 431.09 119.616C431.09 122.608 433.4 124.324 436.15 124.324C437.932 124.324 439.494 123.466 440.418 122.014V122.212C440.418 125.842 438.504 128.702 436.084 128.702C434.632 128.702 433.642 128.042 432.696 127.118L431.75 128.46C432.872 129.538 434.192 130.264 436.04 130.264C439.472 130.264 442.156 126.722 442.156 122.212C442.156 117.944 440.506 114.622 436.414 114.622ZM436.458 122.85C434.434 122.85 432.828 121.596 432.828 119.528C432.828 117.856 434.17 116.096 436.436 116.096C438.548 116.096 439.78 117.746 440.22 120.034C439.846 121.706 438.372 122.85 436.458 122.85ZM448.009 122.322C450.077 122.322 451.529 120.672 451.529 118.538C451.529 116.448 450.121 114.754 448.031 114.754C445.985 114.754 444.511 116.404 444.511 118.582C444.511 120.628 445.919 122.322 448.009 122.322ZM446.359 130H447.811L458.151 114.886H456.699L446.359 130ZM448.031 121.134C446.821 121.134 445.897 120.012 445.897 118.56C445.897 117.042 446.777 115.942 448.009 115.942C449.241 115.942 450.143 117.064 450.143 118.56C450.143 120.034 449.263 121.134 448.031 121.134ZM456.413 130.22C458.459 130.22 459.933 128.57 459.933 126.414C459.933 124.368 458.525 122.652 456.435 122.652C454.345 122.652 452.915 124.368 452.915 126.436C452.915 128.592 454.389 130.22 456.413 130.22ZM456.435 129.032C455.181 129.032 454.301 127.91 454.301 126.414C454.301 124.984 455.159 123.84 456.413 123.84C457.645 123.84 458.547 124.962 458.547 126.436C458.547 127.932 457.689 129.032 456.435 129.032Z" fill="white"/>
<rect x="874" y="67" width="269" height="60" rx="10" fill="#F7F9FD"/>
<path d="M874 77C874 71.4772 878.477 67 884 67V67V127V127C878.477 127 874 122.523 874 117V77Z" fill="#A9A4CC"/>
<path d="M965.6 103H967.004V90.634H965.6V103ZM974.228 93.478C972.914 93.478 971.708 94.198 971.168 95.188V93.694H969.818V103H971.168V97.078C971.168 95.782 972.482 94.684 974.048 94.684C975.416 94.684 976.37 95.746 976.37 97.258V103H977.72V97.078C977.72 94.972 976.28 93.478 974.228 93.478ZM981.118 92.002C981.604 92.002 982 91.588 982 91.102C982 90.634 981.604 90.22 981.118 90.22C980.614 90.22 980.218 90.634 980.218 91.102C980.218 91.588 980.614 92.002 981.118 92.002ZM980.434 103H981.784V93.694H980.434V103ZM988.581 101.632C988.383 101.848 988.023 102.01 987.609 102.01C987.069 102.01 986.601 101.524 986.601 100.84V94.9H988.887V93.694H986.601V91.138H985.251V93.694H983.793V94.9H985.251V100.84C985.251 102.226 986.187 103.216 987.519 103.216C988.149 103.216 988.761 103 989.247 102.622L988.581 101.632ZM991.823 92.002C992.309 92.002 992.705 91.588 992.705 91.102C992.705 90.634 992.309 90.22 991.823 90.22C991.319 90.22 990.923 90.634 990.923 91.102C990.923 91.588 991.319 92.002 991.823 92.002ZM991.139 103H992.489V93.694H991.139V103ZM998.98 93.478C998.08 93.478 996.964 93.712 995.632 94.378L996.172 95.476C997.018 95.044 997.954 94.63 998.89 94.63C1000.91 94.63 1001.41 96.07 1001.41 97.33V97.672C1000.46 97.366 999.394 97.15 998.386 97.15C996.388 97.15 994.732 98.392 994.732 100.246C994.732 102.082 996.172 103.216 998.134 103.216C999.358 103.216 1000.74 102.64 1001.41 101.542V103H1002.76V97.33C1002.76 95.08 1001.52 93.478 998.98 93.478ZM998.368 102.028C997.054 102.028 996.046 101.344 996.046 100.192C996.046 99.076 997.216 98.284 998.602 98.284C999.61 98.284 1000.56 98.428 1001.41 98.662V100.084C1001.05 101.398 999.592 102.028 998.368 102.028ZM1005.52 103H1006.87V90.418H1005.52V103ZM1014.87 103H1016.28V98.554H1019.89C1022.45 98.554 1024.45 96.916 1024.45 94.594C1024.45 92.272 1022.45 90.634 1019.89 90.634H1014.87V103ZM1016.28 97.222V91.966H1019.64C1021.66 91.966 1023.03 92.938 1023.03 94.594C1023.03 96.25 1021.66 97.222 1019.64 97.222H1016.28ZM1030.72 103.216C1033.33 103.216 1035.53 100.984 1035.53 98.338C1035.53 95.692 1033.33 93.478 1030.72 93.478C1028.11 93.478 1025.9 95.692 1025.9 98.338C1025.9 100.984 1028.11 103.216 1030.72 103.216ZM1030.72 102.01C1028.87 102.01 1027.32 100.336 1027.32 98.338C1027.32 96.358 1028.87 94.684 1030.72 94.684C1032.56 94.684 1034.11 96.358 1034.11 98.338C1034.11 100.336 1032.56 102.01 1030.72 102.01ZM1042.08 103.216C1044.69 103.216 1046.88 100.984 1046.88 98.338C1046.88 95.692 1044.69 93.478 1042.08 93.478C1039.47 93.478 1037.25 95.692 1037.25 98.338C1037.25 100.984 1039.47 103.216 1042.08 103.216ZM1042.08 102.01C1040.22 102.01 1038.67 100.336 1038.67 98.338C1038.67 96.358 1040.22 94.684 1042.08 94.684C1043.91 94.684 1045.46 96.358 1045.46 98.338C1045.46 100.336 1043.91 102.01 1042.08 102.01ZM1049.11 103H1050.46V90.418H1049.11V103Z" fill="#A9A4CC"/>
<rect x="874" y="212" width="269" height="60" rx="10" fill="#F7F9FD"/>
<path d="M874 222C874 216.477 878.477 212 884 212V212V272V272C878.477 272 874 267.523 874 262V222Z" fill="#7068AA"/>
<path d="M954.774 248H956.25V242.96L961.218 235.634H959.526L955.512 241.628L951.534 235.634H949.788L954.774 242.96V248ZM963.574 237.002C964.06 237.002 964.456 236.588 964.456 236.102C964.456 235.634 964.06 235.22 963.574 235.22C963.07 235.22 962.674 235.634 962.674 236.102C962.674 236.588 963.07 237.002 963.574 237.002ZM962.89 248H964.24V238.694H962.89V248ZM971.145 247.01C969.309 247.01 968.031 245.678 967.833 243.86H975.447C975.447 240.602 973.845 238.478 971.037 238.478C968.535 238.478 966.447 240.548 966.447 243.32C966.447 246.182 968.679 248.216 971.163 248.216C972.459 248.216 974.097 247.658 974.907 246.776L974.079 245.894C973.503 246.524 972.243 247.01 971.145 247.01ZM971.091 239.684C972.945 239.684 973.935 240.98 974.115 242.654H967.851C968.103 240.854 969.435 239.684 971.091 239.684ZM977.656 248H979.006V235.418H977.656V248ZM989.006 235.418V240.44C988.304 239.216 987.116 238.478 985.622 238.478C983.174 238.478 981.338 240.494 981.338 243.338C981.338 246.2 983.174 248.216 985.622 248.216C987.116 248.216 988.304 247.478 989.006 246.254V248H990.356V235.418H989.006ZM985.874 247.01C984.056 247.01 982.76 245.48 982.76 243.338C982.76 241.196 984.056 239.684 985.874 239.684C987.71 239.684 989.006 241.196 989.006 243.338C989.006 245.48 987.71 247.01 985.874 247.01ZM1007.36 236.966V235.634H998.487V248H999.909V242.366H1006.62V241.034H999.909V236.966H1007.36ZM1013.18 238.478C1012.28 238.478 1011.17 238.712 1009.83 239.378L1010.37 240.476C1011.22 240.044 1012.16 239.63 1013.09 239.63C1015.11 239.63 1015.61 241.07 1015.61 242.33V242.672C1014.66 242.366 1013.6 242.15 1012.59 242.15C1010.59 242.15 1008.93 243.392 1008.93 245.246C1008.93 247.082 1010.37 248.216 1012.34 248.216C1013.56 248.216 1014.95 247.64 1015.61 246.542V248H1016.96V242.33C1016.96 240.08 1015.72 238.478 1013.18 238.478ZM1012.57 247.028C1011.26 247.028 1010.25 246.344 1010.25 245.192C1010.25 244.076 1011.42 243.284 1012.8 243.284C1013.81 243.284 1014.77 243.428 1015.61 243.662V245.084C1015.25 246.398 1013.79 247.028 1012.57 247.028ZM1021.2 240.512V238.694H1019.85V248H1021.2V242.798C1021.2 240.98 1022.69 239.684 1024.8 239.684V238.478C1023.09 238.478 1021.75 239.27 1021.2 240.512ZM1036.73 238.478C1035.32 238.478 1034.1 239.252 1033.72 240.458C1033.22 239.252 1032.12 238.478 1030.71 238.478C1029.49 238.478 1028.48 239.09 1028.01 240.062V238.694H1026.66V248H1028.01V242.078C1028.01 240.674 1029.06 239.684 1030.53 239.684C1031.79 239.684 1032.68 240.746 1032.68 242.258V248H1034.03V242.078C1034.03 240.674 1035.07 239.684 1036.55 239.684C1037.81 239.684 1038.69 240.746 1038.69 242.258V248H1040.04V242.078C1040.04 239.972 1038.67 238.478 1036.73 238.478ZM1043.43 237.002C1043.92 237.002 1044.31 236.588 1044.31 236.102C1044.31 235.634 1043.92 235.22 1043.43 235.22C1042.93 235.22 1042.53 235.634 1042.53 236.102C1042.53 236.588 1042.93 237.002 1043.43 237.002ZM1042.75 248H1044.1V238.694H1042.75V248ZM1051.24 238.478C1049.92 238.478 1048.72 239.198 1048.18 240.188V238.694H1046.83V248H1048.18V242.078C1048.18 240.782 1049.49 239.684 1051.06 239.684C1052.42 239.684 1053.38 240.746 1053.38 242.258V248H1054.73V242.078C1054.73 239.972 1053.29 238.478 1051.24 238.478ZM1064.7 238.694V240.296C1063.98 239.162 1062.79 238.478 1061.31 238.478C1058.81 238.478 1057.03 240.296 1057.03 242.888C1057.03 245.48 1058.81 247.316 1061.31 247.316C1062.79 247.316 1063.98 246.632 1064.7 245.498V247.01C1064.7 248.828 1063.44 249.89 1061.29 249.89C1060.14 249.89 1059.03 249.476 1058.31 248.792L1057.71 249.854C1058.56 250.574 1059.96 251.096 1061.47 251.096C1064.16 251.096 1066.05 249.404 1066.05 247.01V238.694H1064.7ZM1061.56 246.11C1059.75 246.11 1058.45 244.778 1058.45 242.888C1058.45 241.016 1059.75 239.684 1061.56 239.684C1063.4 239.684 1064.7 241.016 1064.7 242.888C1064.7 244.778 1063.4 246.11 1061.56 246.11Z" fill="#7068AA"/>
<rect x="874" y="344" width="269" height="60" rx="10" fill="#F7F9FD"/>
<path d="M874 354C874 348.477 878.477 344 884 344V344V404V404C878.477 404 874 399.523 874 394V354Z" fill="#B8E3DB"/>
<path d="M948.897 380H953.073C956.997 380 959.769 377.426 959.769 373.808C959.769 370.19 956.997 367.634 953.073 367.634H948.897V380ZM950.301 378.722V368.912H953.073C956.169 368.912 958.347 370.946 958.347 373.808C958.347 376.688 956.169 378.722 953.073 378.722H950.301ZM971.451 380H972.981L967.527 367.634H965.997L960.543 380H962.073L963.315 377.192H970.209L971.451 380ZM963.891 375.86L966.771 369.362L969.633 375.86H963.891ZM980.827 380.216C984.265 380.216 987.145 377.282 987.145 373.808C987.145 370.334 984.265 367.418 980.827 367.418C977.407 367.418 974.491 370.334 974.491 373.808C974.491 377.282 977.407 380.216 980.827 380.216ZM980.827 378.92C978.163 378.92 975.913 376.58 975.913 373.808C975.913 371.054 978.163 368.714 980.827 368.714C983.491 368.714 985.723 371.054 985.723 373.808C985.723 376.58 983.491 378.92 980.827 378.92ZM998.263 380H999.667V368.966H1003.82V367.634H994.105V368.966H998.263V380ZM1007.48 372.512V370.694H1006.13V380H1007.48V374.798C1007.48 372.98 1008.97 371.684 1011.08 371.684V370.478C1009.37 370.478 1008.03 371.27 1007.48 372.512ZM1017.14 379.01C1015.3 379.01 1014.02 377.678 1013.83 375.86H1021.44C1021.44 372.602 1019.84 370.478 1017.03 370.478C1014.53 370.478 1012.44 372.548 1012.44 375.32C1012.44 378.182 1014.67 380.216 1017.16 380.216C1018.45 380.216 1020.09 379.658 1020.9 378.776L1020.07 377.894C1019.5 378.524 1018.24 379.01 1017.14 379.01ZM1017.08 371.684C1018.94 371.684 1019.93 372.98 1020.11 374.654H1013.84C1014.1 372.854 1015.43 371.684 1017.08 371.684ZM1027.43 370.478C1026.53 370.478 1025.41 370.712 1024.08 371.378L1024.62 372.476C1025.47 372.044 1026.4 371.63 1027.34 371.63C1029.36 371.63 1029.86 373.07 1029.86 374.33V374.672C1028.91 374.366 1027.84 374.15 1026.84 374.15C1024.84 374.15 1023.18 375.392 1023.18 377.246C1023.18 379.082 1024.62 380.216 1026.58 380.216C1027.81 380.216 1029.19 379.64 1029.86 378.542V380H1031.21V374.33C1031.21 372.08 1029.97 370.478 1027.43 370.478ZM1026.82 379.028C1025.5 379.028 1024.5 378.344 1024.5 377.192C1024.5 376.076 1025.67 375.284 1027.05 375.284C1028.06 375.284 1029.01 375.428 1029.86 375.662V377.084C1029.5 378.398 1028.04 379.028 1026.82 379.028ZM1037.26 380.216C1039.19 380.216 1040.66 379.118 1040.66 377.408C1040.66 375.644 1039.12 375.14 1037.62 374.672C1035.89 374.114 1035.21 373.862 1035.21 373.052C1035.21 372.152 1036.07 371.684 1037.12 371.684C1037.95 371.684 1038.86 371.972 1039.8 372.566L1040.45 371.522C1039.46 370.874 1038.27 370.478 1037.12 370.478C1035.26 370.478 1033.86 371.522 1033.86 373.214C1033.86 374.546 1034.72 375.212 1036.97 375.86C1038.23 376.22 1039.31 376.544 1039.31 377.552C1039.31 378.434 1038.49 379.01 1037.26 379.01C1036.24 379.01 1035.17 378.614 1034.11 377.84L1033.41 378.83C1034.53 379.73 1035.97 380.216 1037.26 380.216ZM1049.45 370.694V376.616C1049.45 377.912 1048.14 379.01 1046.57 379.01C1045.2 379.01 1044.25 377.948 1044.25 376.436V370.694H1042.9V376.616C1042.9 378.722 1044.34 380.216 1046.39 380.216C1047.7 380.216 1048.91 379.496 1049.45 378.506V380H1050.8V370.694H1049.45ZM1055.03 372.512V370.694H1053.68V380H1055.03V374.798C1055.03 372.98 1056.52 371.684 1058.63 371.684V370.478C1056.92 370.478 1055.58 371.27 1055.03 372.512ZM1061.88 383.24C1063.16 383.222 1064.06 382.628 1064.71 381.044L1068.95 370.694H1067.5L1064.42 378.434L1061.16 370.694H1059.67L1063.72 380.036L1063.18 381.188C1062.82 381.818 1062.42 382.016 1061.83 382.016C1061.43 382.016 1061.05 381.944 1060.73 381.782L1060.4 382.934C1060.84 383.132 1061.34 383.24 1061.88 383.24Z" fill="#B8E3DB"/>
<rect x="874" y="467" width="269" height="60" rx="10" fill="#F7F9FD"/>
<path d="M874 477C874 471.477 878.477 467 884 467V467V527V527C878.477 527 874 522.523 874 517V477Z" fill="#88D1C3"/>
<path d="M945.364 503.216C947.074 503.216 948.658 502.478 949.81 501.326L948.856 500.354C947.956 501.308 946.714 501.92 945.364 501.92C942.7 501.92 940.45 499.58 940.45 496.808C940.45 494.054 942.7 491.714 945.364 491.714C946.714 491.714 947.956 492.326 948.856 493.28L949.81 492.308C948.658 491.138 947.074 490.418 945.364 490.418C941.944 490.418 939.028 493.334 939.028 496.808C939.028 500.282 941.944 503.216 945.364 503.216ZM956.014 503.216C958.624 503.216 960.82 500.984 960.82 498.338C960.82 495.692 958.624 493.478 956.014 493.478C953.404 493.478 951.19 495.692 951.19 498.338C951.19 500.984 953.404 503.216 956.014 503.216ZM956.014 502.01C954.16 502.01 952.612 500.336 952.612 498.338C952.612 496.358 954.16 494.684 956.014 494.684C957.85 494.684 959.398 496.358 959.398 498.338C959.398 500.336 957.85 502.01 956.014 502.01ZM969.602 493.694V499.616C969.602 500.912 968.288 502.01 966.722 502.01C965.354 502.01 964.4 500.948 964.4 499.436V493.694H963.05V499.616C963.05 501.722 964.49 503.216 966.542 503.216C967.856 503.216 969.062 502.496 969.602 501.506V503H970.952V493.694H969.602ZM978.13 493.478C976.816 493.478 975.61 494.198 975.07 495.188V493.694H973.72V503H975.07V497.078C975.07 495.782 976.384 494.684 977.95 494.684C979.318 494.684 980.272 495.746 980.272 497.258V503H981.622V497.078C981.622 494.972 980.182 493.478 978.13 493.478ZM988.674 503.216C989.97 503.216 991.158 502.676 992.04 501.794L991.104 500.876C990.474 501.578 989.61 502.01 988.674 502.01C986.82 502.01 985.272 500.336 985.272 498.338C985.272 496.358 986.82 494.684 988.674 494.684C989.592 494.684 990.438 495.098 991.05 495.764L991.986 494.846C991.104 494 989.934 493.478 988.674 493.478C986.064 493.478 983.85 495.692 983.85 498.338C983.85 500.984 986.064 503.216 988.674 503.216ZM994.776 492.002C995.262 492.002 995.658 491.588 995.658 491.102C995.658 490.634 995.262 490.22 994.776 490.22C994.272 490.22 993.876 490.634 993.876 491.102C993.876 491.588 994.272 492.002 994.776 492.002ZM994.092 503H995.442V493.694H994.092V503ZM998.153 503H999.503V490.418H998.153V503ZM1011.54 501.632C1011.34 501.848 1010.98 502.01 1010.57 502.01C1010.03 502.01 1009.56 501.524 1009.56 500.84V494.9H1011.84V493.694H1009.56V491.138H1008.21V493.694H1006.75V494.9H1008.21V500.84C1008.21 502.226 1009.14 503.216 1010.48 503.216C1011.11 503.216 1011.72 503 1012.2 502.622L1011.54 501.632ZM1015.59 495.512V493.694H1014.24V503H1015.59V497.798C1015.59 495.98 1017.08 494.684 1019.19 494.684V493.478C1017.48 493.478 1016.15 494.27 1015.59 495.512ZM1025.25 502.01C1023.42 502.01 1022.14 500.678 1021.94 498.86H1029.55C1029.55 495.602 1027.95 493.478 1025.14 493.478C1022.64 493.478 1020.55 495.548 1020.55 498.32C1020.55 501.182 1022.79 503.216 1025.27 503.216C1026.57 503.216 1028.2 502.658 1029.01 501.776L1028.19 500.894C1027.61 501.524 1026.35 502.01 1025.25 502.01ZM1025.2 494.684C1027.05 494.684 1028.04 495.98 1028.22 497.654H1021.96C1022.21 495.854 1023.54 494.684 1025.2 494.684ZM1035.54 493.478C1034.64 493.478 1033.53 493.712 1032.19 494.378L1032.73 495.476C1033.58 495.044 1034.52 494.63 1035.45 494.63C1037.47 494.63 1037.97 496.07 1037.97 497.33V497.672C1037.02 497.366 1035.96 497.15 1034.95 497.15C1032.95 497.15 1031.29 498.392 1031.29 500.246C1031.29 502.082 1032.73 503.216 1034.7 503.216C1035.92 503.216 1037.31 502.64 1037.97 501.542V503H1039.32V497.33C1039.32 495.08 1038.08 493.478 1035.54 493.478ZM1034.93 502.028C1033.62 502.028 1032.61 501.344 1032.61 500.192C1032.61 499.076 1033.78 498.284 1035.16 498.284C1036.17 498.284 1037.13 498.428 1037.97 498.662V500.084C1037.61 501.398 1036.15 502.028 1034.93 502.028ZM1045.37 503.216C1047.3 503.216 1048.78 502.118 1048.78 500.408C1048.78 498.644 1047.23 498.14 1045.73 497.672C1044.01 497.114 1043.32 496.862 1043.32 496.052C1043.32 495.152 1044.19 494.684 1045.23 494.684C1046.06 494.684 1046.98 494.972 1047.91 495.566L1048.56 494.522C1047.57 493.874 1046.38 493.478 1045.23 493.478C1043.38 493.478 1041.97 494.522 1041.97 496.214C1041.97 497.546 1042.84 498.212 1045.09 498.86C1046.35 499.22 1047.43 499.544 1047.43 500.552C1047.43 501.434 1046.6 502.01 1045.37 502.01C1044.35 502.01 1043.29 501.614 1042.22 500.84L1041.52 501.83C1042.64 502.73 1044.08 503.216 1045.37 503.216ZM1057.56 493.694V499.616C1057.56 500.912 1056.25 502.01 1054.68 502.01C1053.31 502.01 1052.36 500.948 1052.36 499.436V493.694H1051.01V499.616C1051.01 501.722 1052.45 503.216 1054.5 503.216C1055.82 503.216 1057.02 502.496 1057.56 501.506V503H1058.91V493.694H1057.56ZM1063.14 495.512V493.694H1061.79V503H1063.14V497.798C1063.14 495.98 1064.63 494.684 1066.74 494.684V493.478C1065.03 493.478 1063.7 494.27 1063.14 495.512ZM1069.99 506.24C1071.27 506.222 1072.17 505.628 1072.82 504.044L1077.07 493.694H1075.61L1072.53 501.434L1069.27 493.694H1067.78L1071.83 503.036L1071.29 504.188C1070.93 504.818 1070.53 505.016 1069.94 505.016C1069.54 505.016 1069.16 504.944 1068.84 504.782L1068.52 505.934C1068.95 506.132 1069.45 506.24 1069.99 506.24Z" fill="#88D1C3"/>
<rect y="200" width="269" height="60" rx="10" fill="#F7F9FD"/>
<path d="M259 200V200C264.523 200 269 204.477 269 210V250C269 255.523 264.523 260 259 260V260V200Z" fill="#FFB3B3"/>
<path d="M107.779 236H109.309L103.855 223.634H102.325L96.8709 236H98.4009L99.6429 233.192H106.537L107.779 236ZM100.219 231.86L103.099 225.362L105.961 231.86H100.219ZM118.523 223.418V228.44C117.821 227.216 116.633 226.478 115.139 226.478C112.691 226.478 110.855 228.494 110.855 231.338C110.855 234.2 112.691 236.216 115.139 236.216C116.633 236.216 117.821 235.478 118.523 234.254V236H119.873V223.418H118.523ZM115.391 235.01C113.573 235.01 112.277 233.48 112.277 231.338C112.277 229.196 113.573 227.684 115.391 227.684C117.227 227.684 118.523 229.196 118.523 231.338C118.523 233.48 117.227 235.01 115.391 235.01ZM125.807 236H127.103L131.009 226.694H129.497L126.455 234.416L123.359 226.694H121.847L125.807 236ZM133.538 225.002C134.024 225.002 134.42 224.588 134.42 224.102C134.42 223.634 134.024 223.22 133.538 223.22C133.034 223.22 132.638 223.634 132.638 224.102C132.638 224.588 133.034 225.002 133.538 225.002ZM132.854 236H134.204V226.694H132.854V236ZM140.209 236.216C142.135 236.216 143.611 235.118 143.611 233.408C143.611 231.644 142.063 231.14 140.569 230.672C138.841 230.114 138.157 229.862 138.157 229.052C138.157 228.152 139.021 227.684 140.065 227.684C140.893 227.684 141.811 227.972 142.747 228.566L143.395 227.522C142.405 226.874 141.217 226.478 140.065 226.478C138.211 226.478 136.807 227.522 136.807 229.214C136.807 230.546 137.671 231.212 139.921 231.86C141.181 232.22 142.261 232.544 142.261 233.552C142.261 234.434 141.433 235.01 140.209 235.01C139.183 235.01 138.121 234.614 137.059 233.84L136.357 234.83C137.473 235.73 138.913 236.216 140.209 236.216ZM150.165 236.216C152.775 236.216 154.971 233.984 154.971 231.338C154.971 228.692 152.775 226.478 150.165 226.478C147.555 226.478 145.341 228.692 145.341 231.338C145.341 233.984 147.555 236.216 150.165 236.216ZM150.165 235.01C148.311 235.01 146.763 233.336 146.763 231.338C146.763 229.358 148.311 227.684 150.165 227.684C152.001 227.684 153.549 229.358 153.549 231.338C153.549 233.336 152.001 235.01 150.165 235.01ZM158.676 228.512V226.694H157.326V236H158.676V230.798C158.676 228.98 160.17 227.684 162.276 227.684V226.478C160.566 226.478 159.234 227.27 158.676 228.512ZM167.437 236.216C169.363 236.216 170.839 235.118 170.839 233.408C170.839 231.644 169.291 231.14 167.797 230.672C166.069 230.114 165.385 229.862 165.385 229.052C165.385 228.152 166.249 227.684 167.293 227.684C168.121 227.684 169.039 227.972 169.975 228.566L170.623 227.522C169.633 226.874 168.445 226.478 167.293 226.478C165.439 226.478 164.035 227.522 164.035 229.214C164.035 230.546 164.899 231.212 167.149 231.86C168.409 232.22 169.489 232.544 169.489 233.552C169.489 234.434 168.661 235.01 167.437 235.01C166.411 235.01 165.349 234.614 164.287 233.84L163.585 234.83C164.701 235.73 166.141 236.216 167.437 236.216Z" fill="#FF8080"/>
<rect y="90" width="269" height="60" rx="10" fill="#F7F9FD"/>
<path d="M259 90V90C264.523 90 269 94.4772 269 100V140C269 145.523 264.523 150 259 150V150V90Z" fill="#FF8080"/>
<path d="M68.4718 114.966V113.634H59.5978V126H61.0198V120.366H67.7338V119.034H61.0198V114.966H68.4718ZM74.8325 126.216C77.4425 126.216 79.6385 123.984 79.6385 121.338C79.6385 118.692 77.4425 116.478 74.8325 116.478C72.2225 116.478 70.0085 118.692 70.0085 121.338C70.0085 123.984 72.2225 126.216 74.8325 126.216ZM74.8325 125.01C72.9785 125.01 71.4305 123.336 71.4305 121.338C71.4305 119.358 72.9785 117.684 74.8325 117.684C76.6685 117.684 78.2165 119.358 78.2165 121.338C78.2165 123.336 76.6685 125.01 74.8325 125.01ZM88.42 116.694V122.616C88.42 123.912 87.106 125.01 85.54 125.01C84.172 125.01 83.218 123.948 83.218 122.436V116.694H81.868V122.616C81.868 124.722 83.308 126.216 85.36 126.216C86.674 126.216 87.88 125.496 88.42 124.506V126H89.77V116.694H88.42ZM96.9483 116.478C95.6343 116.478 94.4283 117.198 93.8883 118.188V116.694H92.5383V126H93.8883V120.078C93.8883 118.782 95.2023 117.684 96.7683 117.684C98.1363 117.684 99.0903 118.746 99.0903 120.258V126H100.44V120.078C100.44 117.972 99.0003 116.478 96.9483 116.478ZM110.445 113.418V118.44C109.743 117.216 108.555 116.478 107.061 116.478C104.613 116.478 102.777 118.494 102.777 121.338C102.777 124.2 104.613 126.216 107.061 126.216C108.555 126.216 109.743 125.478 110.445 124.254V126H111.795V113.418H110.445ZM107.313 125.01C105.495 125.01 104.199 123.48 104.199 121.338C104.199 119.196 105.495 117.684 107.313 117.684C109.149 117.684 110.445 119.196 110.445 121.338C110.445 123.48 109.149 125.01 107.313 125.01ZM118.845 125.01C117.009 125.01 115.731 123.678 115.533 121.86H123.147C123.147 118.602 121.545 116.478 118.737 116.478C116.235 116.478 114.147 118.548 114.147 121.32C114.147 124.182 116.379 126.216 118.863 126.216C120.159 126.216 121.797 125.658 122.607 124.776L121.779 123.894C121.203 124.524 119.943 125.01 118.845 125.01ZM118.791 117.684C120.645 117.684 121.635 118.98 121.815 120.654H115.551C115.803 118.854 117.135 117.684 118.791 117.684ZM126.832 118.512V116.694H125.482V126H126.832V120.798C126.832 118.98 128.326 117.684 130.432 117.684V116.478C128.722 116.478 127.39 117.27 126.832 118.512ZM135.594 126.216C137.52 126.216 138.996 125.118 138.996 123.408C138.996 121.644 137.448 121.14 135.954 120.672C134.226 120.114 133.542 119.862 133.542 119.052C133.542 118.152 134.406 117.684 135.45 117.684C136.278 117.684 137.196 117.972 138.132 118.566L138.78 117.522C137.79 116.874 136.602 116.478 135.45 116.478C133.596 116.478 132.192 117.522 132.192 119.214C132.192 120.546 133.056 121.212 135.306 121.86C136.566 122.22 137.646 122.544 137.646 123.552C137.646 124.434 136.818 125.01 135.594 125.01C134.568 125.01 133.506 124.614 132.444 123.84L131.742 124.83C132.858 125.73 134.298 126.216 135.594 126.216ZM156.386 125.532L154.334 123.444C154.964 122.544 155.522 121.464 156.044 120.312L154.874 119.79C154.496 120.816 154.01 121.752 153.47 122.562C152.354 121.392 151.49 120.456 150.644 119.466C152.408 118.764 153.668 117.99 153.668 116.352C153.668 114.804 152.408 113.49 150.752 113.49C148.898 113.49 147.602 114.768 147.602 116.388C147.602 117.306 147.944 118.134 148.646 119.106C146.738 119.952 145.82 121.122 145.82 122.724C145.82 124.884 147.512 126.216 149.708 126.216C151.238 126.216 152.462 125.55 153.488 124.488L155.108 126.126L156.386 125.532ZM150.752 114.696C151.67 114.696 152.318 115.434 152.318 116.388C152.318 117.414 151.58 117.954 149.924 118.602C149.258 117.756 148.952 117.036 148.952 116.388C148.952 115.326 149.726 114.696 150.752 114.696ZM149.762 125.01C148.358 125.01 147.17 124.146 147.17 122.688C147.17 121.536 147.998 120.636 149.348 120.006C150.212 121.05 151.148 122.076 152.624 123.606C151.796 124.488 150.842 125.01 149.762 125.01ZM167.329 126H168.733V114.966H172.891V113.634H163.171V114.966H167.329V126ZM179.261 125.01C177.425 125.01 176.147 123.678 175.949 121.86H183.563C183.563 118.602 181.961 116.478 179.153 116.478C176.651 116.478 174.563 118.548 174.563 121.32C174.563 124.182 176.795 126.216 179.279 126.216C180.575 126.216 182.213 125.658 183.023 124.776L182.195 123.894C181.619 124.524 180.359 125.01 179.261 125.01ZM179.207 117.684C181.061 117.684 182.051 118.98 182.231 120.654H175.967C176.219 118.854 177.551 117.684 179.207 117.684ZM189.552 116.478C188.652 116.478 187.536 116.712 186.204 117.378L186.744 118.476C187.59 118.044 188.526 117.63 189.462 117.63C191.478 117.63 191.982 119.07 191.982 120.33V120.672C191.028 120.366 189.966 120.15 188.958 120.15C186.96 120.15 185.304 121.392 185.304 123.246C185.304 125.082 186.744 126.216 188.706 126.216C189.93 126.216 191.316 125.64 191.982 124.542V126H193.332V120.33C193.332 118.08 192.09 116.478 189.552 116.478ZM188.94 125.028C187.626 125.028 186.618 124.344 186.618 123.192C186.618 122.076 187.788 121.284 189.174 121.284C190.182 121.284 191.136 121.428 191.982 121.662V123.084C191.622 124.398 190.164 125.028 188.94 125.028ZM206.153 116.478C204.749 116.478 203.525 117.252 203.147 118.458C202.643 117.252 201.545 116.478 200.141 116.478C198.917 116.478 197.909 117.09 197.441 118.062V116.694H196.091V126H197.441V120.078C197.441 118.674 198.485 117.684 199.961 117.684C201.221 117.684 202.103 118.746 202.103 120.258V126H203.453V120.078C203.453 118.674 204.497 117.684 205.973 117.684C207.233 117.684 208.115 118.746 208.115 120.258V126H209.465V120.078C209.465 117.972 208.097 116.478 206.153 116.478Z" fill="#FF8080"/>
<rect y="319" width="269" height="60" rx="10" fill="#F7F9FD"/>
<path d="M259 319V319C264.523 319 269 323.477 269 329V369C269 374.523 264.523 379 259 379V379V319Z" fill="#7996C9"/>
<path d="M50.8527 355H52.2567V350.554H55.8747C58.4307 350.554 60.4287 348.916 60.4287 346.594C60.4287 344.272 58.4307 342.634 55.8747 342.634H50.8527V355ZM52.2567 349.222V343.966H55.6227C57.6387 343.966 59.0067 344.938 59.0067 346.594C59.0067 348.25 57.6387 349.222 55.6227 349.222H52.2567ZM63.8586 347.512V345.694H62.5086V355H63.8586V349.798C63.8586 347.98 65.3526 346.684 67.4586 346.684V345.478C65.7486 345.478 64.4166 346.27 63.8586 347.512ZM69.992 344.002C70.478 344.002 70.874 343.588 70.874 343.102C70.874 342.634 70.478 342.22 69.992 342.22C69.488 342.22 69.092 342.634 69.092 343.102C69.092 343.588 69.488 344.002 69.992 344.002ZM69.308 355H70.658V345.694H69.308V355ZM76.447 355H77.743L81.649 345.694H80.137L77.095 353.416L73.999 345.694H72.487L76.447 355ZM86.5709 345.478C85.6709 345.478 84.5549 345.712 83.2229 346.378L83.7629 347.476C84.6089 347.044 85.5449 346.63 86.4809 346.63C88.4969 346.63 89.0009 348.07 89.0009 349.33V349.672C88.0469 349.366 86.9849 349.15 85.9769 349.15C83.9789 349.15 82.3229 350.392 82.3229 352.246C82.3229 354.082 83.7629 355.216 85.7249 355.216C86.9489 355.216 88.3349 354.64 89.0009 353.542V355H90.3509V349.33C90.3509 347.08 89.1089 345.478 86.5709 345.478ZM85.9589 354.028C84.6449 354.028 83.6369 353.344 83.6369 352.192C83.6369 351.076 84.8069 350.284 86.1929 350.284C87.2009 350.284 88.1549 350.428 89.0009 350.662V352.084C88.6409 353.398 87.1829 354.028 85.9589 354.028ZM97.1952 353.632C96.9972 353.848 96.6372 354.01 96.2232 354.01C95.6832 354.01 95.2152 353.524 95.2152 352.84V346.9H97.5012V345.694H95.2152V343.138H93.8652V345.694H92.4072V346.9H93.8652V352.84C93.8652 354.226 94.8012 355.216 96.1332 355.216C96.7632 355.216 97.3752 355 97.8612 354.622L97.1952 353.632ZM103.965 354.01C102.129 354.01 100.851 352.678 100.653 350.86H108.267C108.267 347.602 106.665 345.478 103.857 345.478C101.355 345.478 99.2673 347.548 99.2673 350.32C99.2673 353.182 101.499 355.216 103.983 355.216C105.279 355.216 106.917 354.658 107.727 353.776L106.899 352.894C106.323 353.524 105.063 354.01 103.965 354.01ZM103.911 346.684C105.765 346.684 106.755 347.98 106.935 349.654H100.671C100.923 347.854 102.255 346.684 103.911 346.684ZM120.017 355.216C121.313 355.216 122.501 354.676 123.383 353.794L122.447 352.876C121.817 353.578 120.953 354.01 120.017 354.01C118.163 354.01 116.615 352.336 116.615 350.338C116.615 348.358 118.163 346.684 120.017 346.684C120.935 346.684 121.781 347.098 122.393 347.764L123.329 346.846C122.447 346 121.277 345.478 120.017 345.478C117.407 345.478 115.193 347.692 115.193 350.338C115.193 352.984 117.407 355.216 120.017 355.216ZM129.58 355.216C132.19 355.216 134.386 352.984 134.386 350.338C134.386 347.692 132.19 345.478 129.58 345.478C126.97 345.478 124.756 347.692 124.756 350.338C124.756 352.984 126.97 355.216 129.58 355.216ZM129.58 354.01C127.726 354.01 126.178 352.336 126.178 350.338C126.178 348.358 127.726 346.684 129.58 346.684C131.416 346.684 132.964 348.358 132.964 350.338C132.964 352.336 131.416 354.01 129.58 354.01ZM141.043 345.478C139.729 345.478 138.523 346.198 137.983 347.188V345.694H136.633V355H137.983V349.078C137.983 347.782 139.297 346.684 140.863 346.684C142.231 346.684 143.185 347.746 143.185 349.258V355H144.535V349.078C144.535 346.972 143.095 345.478 141.043 345.478ZM151.353 353.632C151.155 353.848 150.795 354.01 150.381 354.01C149.841 354.01 149.373 353.524 149.373 352.84V346.9H151.659V345.694H149.373V343.138H148.023V345.694H146.565V346.9H148.023V352.84C148.023 354.226 148.959 355.216 150.291 355.216C150.921 355.216 151.533 355 152.019 354.622L151.353 353.632ZM155.406 347.512V345.694H154.056V355H155.406V349.798C155.406 347.98 156.9 346.684 159.006 346.684V345.478C157.296 345.478 155.964 346.27 155.406 347.512ZM161.539 344.002C162.025 344.002 162.421 343.588 162.421 343.102C162.421 342.634 162.025 342.22 161.539 342.22C161.035 342.22 160.639 342.634 160.639 343.102C160.639 343.588 161.035 344.002 161.539 344.002ZM160.855 355H162.205V345.694H160.855V355ZM169.776 345.478C168.282 345.478 167.094 346.216 166.392 347.44V342.418H165.042V355H166.392V353.254C167.094 354.478 168.282 355.216 169.776 355.216C172.224 355.216 174.06 353.2 174.06 350.338C174.06 347.494 172.224 345.478 169.776 345.478ZM169.524 354.01C167.688 354.01 166.392 352.48 166.392 350.338C166.392 348.196 167.688 346.684 169.524 346.684C171.342 346.684 172.638 348.196 172.638 350.338C172.638 352.48 171.342 354.01 169.524 354.01ZM182.946 345.694V351.616C182.946 352.912 181.632 354.01 180.066 354.01C178.698 354.01 177.744 352.948 177.744 351.436V345.694H176.394V351.616C176.394 353.722 177.834 355.216 179.886 355.216C181.2 355.216 182.406 354.496 182.946 353.506V355H184.296V345.694H182.946ZM191.133 353.632C190.935 353.848 190.575 354.01 190.161 354.01C189.621 354.01 189.153 353.524 189.153 352.84V346.9H191.439V345.694H189.153V343.138H187.803V345.694H186.345V346.9H187.803V352.84C187.803 354.226 188.739 355.216 190.071 355.216C190.701 355.216 191.313 355 191.799 354.622L191.133 353.632ZM198.029 355.216C200.639 355.216 202.835 352.984 202.835 350.338C202.835 347.692 200.639 345.478 198.029 345.478C195.419 345.478 193.205 347.692 193.205 350.338C193.205 352.984 195.419 355.216 198.029 355.216ZM198.029 354.01C196.175 354.01 194.627 352.336 194.627 350.338C194.627 348.358 196.175 346.684 198.029 346.684C199.865 346.684 201.413 348.358 201.413 350.338C201.413 352.336 199.865 354.01 198.029 354.01ZM206.54 347.512V345.694H205.19V355H206.54V349.798C206.54 347.98 208.034 346.684 210.14 346.684V345.478C208.43 345.478 207.098 346.27 206.54 347.512ZM215.302 355.216C217.228 355.216 218.704 354.118 218.704 352.408C218.704 350.644 217.156 350.14 215.662 349.672C213.934 349.114 213.25 348.862 213.25 348.052C213.25 347.152 214.114 346.684 215.158 346.684C215.986 346.684 216.904 346.972 217.84 347.566L218.488 346.522C217.498 345.874 216.31 345.478 215.158 345.478C213.304 345.478 211.9 346.522 211.9 348.214C211.9 349.546 212.764 350.212 215.014 350.86C216.274 351.22 217.354 351.544 217.354 352.552C217.354 353.434 216.526 354.01 215.302 354.01C214.276 354.01 213.214 353.614 212.152 352.84L211.45 353.83C212.566 354.73 214.006 355.216 215.302 355.216Z" fill="#7996C9"/>
<rect y="431" width="269" height="60" rx="10" fill="#F7F9FD"/>
<path d="M259 431V431C264.523 431 269 435.477 269 441V481C269 486.523 264.523 491 259 491V491V431Z" fill="#A3B3D0"/>
<path d="M68.4718 455.966V454.634H59.5978V467H61.0198V461.366H67.7338V460.034H61.0198V455.966H68.4718ZM74.8325 467.216C77.4425 467.216 79.6385 464.984 79.6385 462.338C79.6385 459.692 77.4425 457.478 74.8325 457.478C72.2225 457.478 70.0085 459.692 70.0085 462.338C70.0085 464.984 72.2225 467.216 74.8325 467.216ZM74.8325 466.01C72.9785 466.01 71.4305 464.336 71.4305 462.338C71.4305 460.358 72.9785 458.684 74.8325 458.684C76.6685 458.684 78.2165 460.358 78.2165 462.338C78.2165 464.336 76.6685 466.01 74.8325 466.01ZM88.42 457.694V463.616C88.42 464.912 87.106 466.01 85.54 466.01C84.172 466.01 83.218 464.948 83.218 463.436V457.694H81.868V463.616C81.868 465.722 83.308 467.216 85.36 467.216C86.674 467.216 87.88 466.496 88.42 465.506V467H89.77V457.694H88.42ZM96.9483 457.478C95.6343 457.478 94.4283 458.198 93.8883 459.188V457.694H92.5383V467H93.8883V461.078C93.8883 459.782 95.2023 458.684 96.7683 458.684C98.1363 458.684 99.0903 459.746 99.0903 461.258V467H100.44V461.078C100.44 458.972 99.0003 457.478 96.9483 457.478ZM110.445 454.418V459.44C109.743 458.216 108.555 457.478 107.061 457.478C104.613 457.478 102.777 459.494 102.777 462.338C102.777 465.2 104.613 467.216 107.061 467.216C108.555 467.216 109.743 466.478 110.445 465.254V467H111.795V454.418H110.445ZM107.313 466.01C105.495 466.01 104.199 464.48 104.199 462.338C104.199 460.196 105.495 458.684 107.313 458.684C109.149 458.684 110.445 460.196 110.445 462.338C110.445 464.48 109.149 466.01 107.313 466.01ZM118.845 466.01C117.009 466.01 115.731 464.678 115.533 462.86H123.147C123.147 459.602 121.545 457.478 118.737 457.478C116.235 457.478 114.147 459.548 114.147 462.32C114.147 465.182 116.379 467.216 118.863 467.216C120.159 467.216 121.797 466.658 122.607 465.776L121.779 464.894C121.203 465.524 119.943 466.01 118.845 466.01ZM118.791 458.684C120.645 458.684 121.635 459.98 121.815 461.654H115.551C115.803 459.854 117.135 458.684 118.791 458.684ZM126.832 459.512V457.694H125.482V467H126.832V461.798C126.832 459.98 128.326 458.684 130.432 458.684V457.478C128.722 457.478 127.39 458.27 126.832 459.512ZM135.594 467.216C137.52 467.216 138.996 466.118 138.996 464.408C138.996 462.644 137.448 462.14 135.954 461.672C134.226 461.114 133.542 460.862 133.542 460.052C133.542 459.152 134.406 458.684 135.45 458.684C136.278 458.684 137.196 458.972 138.132 459.566L138.78 458.522C137.79 457.874 136.602 457.478 135.45 457.478C133.596 457.478 132.192 458.522 132.192 460.214C132.192 461.546 133.056 462.212 135.306 462.86C136.566 463.22 137.646 463.544 137.646 464.552C137.646 465.434 136.818 466.01 135.594 466.01C134.568 466.01 133.506 465.614 132.444 464.84L131.742 465.83C132.858 466.73 134.298 467.216 135.594 467.216ZM156.386 466.532L154.334 464.444C154.964 463.544 155.522 462.464 156.044 461.312L154.874 460.79C154.496 461.816 154.01 462.752 153.47 463.562C152.354 462.392 151.49 461.456 150.644 460.466C152.408 459.764 153.668 458.99 153.668 457.352C153.668 455.804 152.408 454.49 150.752 454.49C148.898 454.49 147.602 455.768 147.602 457.388C147.602 458.306 147.944 459.134 148.646 460.106C146.738 460.952 145.82 462.122 145.82 463.724C145.82 465.884 147.512 467.216 149.708 467.216C151.238 467.216 152.462 466.55 153.488 465.488L155.108 467.126L156.386 466.532ZM150.752 455.696C151.67 455.696 152.318 456.434 152.318 457.388C152.318 458.414 151.58 458.954 149.924 459.602C149.258 458.756 148.952 458.036 148.952 457.388C148.952 456.326 149.726 455.696 150.752 455.696ZM149.762 466.01C148.358 466.01 147.17 465.146 147.17 463.688C147.17 462.536 147.998 461.636 149.348 461.006C150.212 462.05 151.148 463.076 152.624 464.606C151.796 465.488 150.842 466.01 149.762 466.01ZM167.329 467H168.733V455.966H172.891V454.634H163.171V455.966H167.329V467ZM179.261 466.01C177.425 466.01 176.147 464.678 175.949 462.86H183.563C183.563 459.602 181.961 457.478 179.153 457.478C176.651 457.478 174.563 459.548 174.563 462.32C174.563 465.182 176.795 467.216 179.279 467.216C180.575 467.216 182.213 466.658 183.023 465.776L182.195 464.894C181.619 465.524 180.359 466.01 179.261 466.01ZM179.207 458.684C181.061 458.684 182.051 459.98 182.231 461.654H175.967C176.219 459.854 177.551 458.684 179.207 458.684ZM189.552 457.478C188.652 457.478 187.536 457.712 186.204 458.378L186.744 459.476C187.59 459.044 188.526 458.63 189.462 458.63C191.478 458.63 191.982 460.07 191.982 461.33V461.672C191.028 461.366 189.966 461.15 188.958 461.15C186.96 461.15 185.304 462.392 185.304 464.246C185.304 466.082 186.744 467.216 188.706 467.216C189.93 467.216 191.316 466.64 191.982 465.542V467H193.332V461.33C193.332 459.08 192.09 457.478 189.552 457.478ZM188.94 466.028C187.626 466.028 186.618 465.344 186.618 464.192C186.618 463.076 187.788 462.284 189.174 462.284C190.182 462.284 191.136 462.428 191.982 462.662V464.084C191.622 465.398 190.164 466.028 188.94 466.028ZM206.153 457.478C204.749 457.478 203.525 458.252 203.147 459.458C202.643 458.252 201.545 457.478 200.141 457.478C198.917 457.478 197.909 458.09 197.441 459.062V457.694H196.091V467H197.441V461.078C197.441 459.674 198.485 458.684 199.961 458.684C201.221 458.684 202.103 459.746 202.103 461.258V467H203.453V461.078C203.453 459.674 204.497 458.684 205.973 458.684C207.233 458.684 208.115 459.746 208.115 461.258V467H209.465V461.078C209.465 458.972 208.097 457.478 206.153 457.478Z" fill="#A3B3D0"/>
</svg>
