<svg width="606" height="835" viewBox="0 0 606 835" fill="none" xmlns="http://www.w3.org/2000/svg">
<path d="M291 637L291 780L337.5 806" stroke="#88D1C3" stroke-width="2"/>
<path d="M135 127L135 251" stroke="#FF8080" stroke-width="2"/>
<path opacity="0.24" d="M290 277.357C321.941 277.357 353.062 287.469 378.903 306.244C404.744 325.018 423.978 351.491 433.848 381.869C443.718 412.247 443.718 444.969 433.848 475.347C423.978 505.725 403.744 533.198 377.903 551.972L326.269 480.904C337.101 473.034 346.164 460.936 350.302 448.201C354.44 435.467 354.44 421.749 350.302 409.015C346.164 396.28 338.101 385.182 327.269 377.312C316.436 369.441 303.39 365.202 290 365.202V277.357Z" fill="#7068AA"/>
<path d="M325.995 159C380.05 166.217 430.688 189.516 471.336 225.873C511.983 262.231 540.764 309.967 553.941 362.886C567.118 415.805 564.083 471.464 545.231 522.636C526.378 573.809 492.579 618.134 448.219 649.856L378.017 551.688C402.694 534.041 421.497 509.383 431.984 480.916C442.472 452.448 444.16 421.486 436.83 392.047C429.499 362.608 413.489 336.053 390.877 315.827C368.264 295.602 340.095 282.64 310.024 278.626L325.995 159Z" fill="#7068AA"/>
<path d="M305.251 637.048C264.701 640.029 224.167 631.061 188.66 611.251L216.731 560.936C242.403 575.258 271.709 581.743 301.026 579.587L305.251 637.048Z" fill="#88D1C3"/>
<path d="M160.226 606.256C130.224 584.339 106.261 555.18 90.5728 521.499C74.8846 487.818 67.4727 450.677 70.0001 413.608L138.7 418.292C136.964 443.759 142.216 469.285 152.993 492.424C163.771 515.563 180.234 535.595 200.845 550.652L160.226 606.256Z" fill="#7996C9"/>
<path d="M86.4775 414.661C87.6861 397.024 91.1821 379.619 96.8777 362.884L146.51 379.775C142.278 392.209 139.681 405.141 138.783 418.245L86.4775 414.661Z" fill="#FFB3B3"/>
<path d="M65.6484 352.219C81.6261 305.293 111.916 264.558 152.255 235.747C192.595 206.936 240.953 191.499 290.524 191.608L290.335 277.092C258.644 277.021 227.728 286.89 201.938 305.31C176.149 323.729 156.784 349.771 146.569 379.772L65.6484 352.219Z" fill="#FF8080"/>
<path d="M203 586.108C196.464 582.465 189.532 578.148 183.5 573.721L200.474 550.593C205.545 554.315 211.472 557.986 216.966 561.049L203 586.108Z" fill="#A3B3D0"/>
<path opacity="0.6" d="M290 252.608C298.268 252.608 306.526 253.191 314.712 254.351L311.275 278.587C304.227 277.587 297.118 277.086 290 277.086V252.608Z" fill="#7068AA"/>
<path opacity="0.24" d="M377.892 551.98C354.67 568.849 328.129 577.761 299.483 579.561C270.838 581.361 242.273 574.973 217.122 561.143L238.548 522.178C256.304 531.941 276.472 536.451 296.695 535.181C316.919 533.91 335.363 527.912 351.758 516.003L377.892 551.98Z" fill="#73D7C3"/>
<path opacity="0.24" d="M217.122 561.143C191.972 547.314 171.276 526.614 157.451 501.461C143.626 476.308 136.816 446.956 138.621 418.311L183 421.108C181.726 441.331 186.66 462.284 196.42 480.042C206.181 497.8 220.792 512.414 238.548 522.178L217.122 561.143Z" fill="#7996C9"/>
<path opacity="0.24" d="M138.669 418.261C141.097 379.867 158.446 344.642 186.498 318.316C214.551 291.991 251.58 277.344 290.05 277.357L290.03 338.31C267.063 338.303 244.956 347.047 228.209 362.763C211.462 378.48 200.95 399.187 199.5 422.108L138.669 418.261Z" fill="#FF8080"/>
<path d="M107 60L107 389" stroke="#FFB3B3" stroke-width="2"/>
<path d="M474 253L474 134" stroke="#7068AA" stroke-width="2"/>
<path d="M302 256L302 60L336.5 29" stroke="#A9A4CC" stroke-width="2"/>
<path d="M194 573L194 728" stroke="#A3B3D0" stroke-width="2"/>
<path d="M374.75 725.859L374.749 574.359" stroke="#B8E3DB" stroke-width="2"/>
<path d="M411.5 598.108C380.087 621.08 344.143 634.173 305.333 637.042L301.085 579.583C329.145 577.509 355.289 568.217 378 551.608L411.5 598.108Z" fill="#B8E3DB"/>
<path d="M291.993 268.608H298.629V267.572H293.743L296.263 265.388C297.887 263.988 298.531 262.952 298.531 261.65C298.531 259.928 297.131 258.822 295.465 258.822C293.953 258.822 292.875 259.536 292.077 260.67L292.847 261.3C293.505 260.404 294.303 259.802 295.423 259.802C296.445 259.802 297.425 260.488 297.425 261.664C297.425 262.616 296.865 263.54 295.507 264.702L291.993 267.698V268.608ZM302.435 263.722C303.751 263.722 304.675 262.672 304.675 261.314C304.675 259.984 303.779 258.906 302.449 258.906C301.147 258.906 300.209 259.956 300.209 261.342C300.209 262.644 301.105 263.722 302.435 263.722ZM301.385 268.608H302.309L308.889 258.99H307.965L301.385 268.608ZM302.449 262.966C301.679 262.966 301.091 262.252 301.091 261.328C301.091 260.362 301.651 259.662 302.435 259.662C303.219 259.662 303.793 260.376 303.793 261.328C303.793 262.266 303.233 262.966 302.449 262.966ZM307.783 268.748C309.085 268.748 310.023 267.698 310.023 266.326C310.023 265.024 309.127 263.932 307.797 263.932C306.467 263.932 305.557 265.024 305.557 266.34C305.557 267.712 306.495 268.748 307.783 268.748ZM307.797 267.992C306.999 267.992 306.439 267.278 306.439 266.326C306.439 265.416 306.985 264.688 307.783 264.688C308.567 264.688 309.141 265.402 309.141 266.34C309.141 267.292 308.595 267.992 307.797 267.992Z" fill="white"/>
<path d="M191.993 572.608H198.629V571.572H193.743L196.263 569.388C197.887 567.988 198.531 566.952 198.531 565.65C198.531 563.928 197.131 562.822 195.465 562.822C193.953 562.822 192.875 563.536 192.077 564.67L192.847 565.3C193.505 564.404 194.303 563.802 195.423 563.802C196.445 563.802 197.425 564.488 197.425 565.664C197.425 566.616 196.865 567.54 195.507 568.702L191.993 571.698V572.608ZM202.435 567.722C203.751 567.722 204.675 566.672 204.675 565.314C204.675 563.984 203.779 562.906 202.449 562.906C201.147 562.906 200.209 563.956 200.209 565.342C200.209 566.644 201.105 567.722 202.435 567.722ZM201.385 572.608H202.309L208.889 562.99H207.965L201.385 572.608ZM202.449 566.966C201.679 566.966 201.091 566.252 201.091 565.328C201.091 564.362 201.651 563.662 202.435 563.662C203.219 563.662 203.793 564.376 203.793 565.328C203.793 566.266 203.233 566.966 202.449 566.966ZM207.783 572.748C209.085 572.748 210.023 571.698 210.023 570.326C210.023 569.024 209.127 567.932 207.797 567.932C206.467 567.932 205.557 569.024 205.557 570.34C205.557 571.712 206.495 572.748 207.783 572.748ZM207.797 571.992C206.999 571.992 206.439 571.278 206.439 570.326C206.439 569.416 206.985 568.688 207.783 568.688C208.567 568.688 209.141 569.402 209.141 570.34C209.141 571.292 208.595 571.992 207.797 571.992Z" fill="white"/>
<path d="M480.509 410.872C483.655 410.872 485.767 409.046 485.767 406.516C485.767 404.338 484.051 403.216 482.511 402.864C484.073 402.402 485.437 401.258 485.437 399.322C485.437 396.902 483.325 395.23 480.443 395.23C478.089 395.23 476.417 396.374 475.273 397.892L476.417 398.926C477.495 397.628 478.683 396.792 480.355 396.792C482.247 396.792 483.699 397.936 483.699 399.52C483.699 401.236 482.181 402.204 480.157 402.182L478.529 402.16V403.744H480.135C482.511 403.744 484.029 404.646 484.029 406.428C484.029 408.144 482.621 409.31 480.509 409.31C478.661 409.31 477.187 408.43 476.197 407.154L475.009 408.276C476.109 409.728 478.023 410.872 480.509 410.872ZM493.686 410.872C496.788 410.872 499.208 409.222 499.208 406.648C499.208 404.756 497.712 403.414 495.886 402.798C497.448 402.226 498.834 401.104 498.834 399.256C498.834 396.77 496.392 395.23 493.686 395.23C491.068 395.23 488.56 396.726 488.56 399.234C488.56 400.972 489.792 402.138 491.508 402.798C489.66 403.392 488.164 404.756 488.164 406.648C488.164 409.2 490.562 410.872 493.686 410.872ZM493.686 402.116C492.256 402.028 490.298 401.17 490.298 399.41C490.298 397.892 491.794 396.792 493.686 396.792C495.578 396.792 497.096 397.892 497.096 399.41C497.096 401.126 495.16 402.028 493.686 402.116ZM493.686 409.31C491.596 409.31 489.902 408.188 489.902 406.538C489.902 404.712 492.124 403.656 493.686 403.612C495.27 403.656 497.47 404.712 497.47 406.538C497.47 408.188 495.776 409.31 493.686 409.31ZM504.893 402.93C506.961 402.93 508.413 401.28 508.413 399.146C508.413 397.056 507.005 395.362 504.915 395.362C502.869 395.362 501.395 397.012 501.395 399.19C501.395 401.236 502.803 402.93 504.893 402.93ZM503.243 410.608H504.695L515.035 395.494H513.583L503.243 410.608ZM504.915 401.742C503.705 401.742 502.781 400.62 502.781 399.168C502.781 397.65 503.661 396.55 504.893 396.55C506.125 396.55 507.027 397.672 507.027 399.168C507.027 400.642 506.147 401.742 504.915 401.742ZM513.297 410.828C515.343 410.828 516.817 409.178 516.817 407.022C516.817 404.976 515.409 403.26 513.319 403.26C511.229 403.26 509.799 404.976 509.799 407.044C509.799 409.2 511.273 410.828 513.297 410.828ZM513.319 409.64C512.065 409.64 511.185 408.518 511.185 407.022C511.185 405.592 512.043 404.448 513.297 404.448C514.529 404.448 515.431 405.57 515.431 407.044C515.431 408.54 514.573 409.64 513.319 409.64Z" fill="white"/>
<path d="M186.621 352.608H187.557V345.252H190.329V344.364H183.849V345.252H186.621V352.608ZM197.731 345.252V344.364H191.815V352.608H197.731V351.72H192.763V348.852H197.239V347.964H192.763V345.252H197.731ZM206.047 352.608H207.067L203.431 344.364H202.411L198.775 352.608H199.795L200.623 350.736H205.219L206.047 352.608ZM201.007 349.848L202.927 345.516L204.835 349.848H201.007ZM208.577 352.608H209.513V346.38L212.573 352.128L215.633 346.38V352.608H216.569V344.364H215.633L212.573 350.112L209.513 344.364H208.577V352.608Z" fill="#29264C"/>
<path d="M357.288 399.608H358.224V391.364H357.288V399.608ZM360.304 399.608H361.24V392.9L366.352 399.608H367.288V391.364H366.352V398.072L361.24 391.364H360.304V399.608ZM373.258 399.752C374.398 399.752 375.454 399.26 376.222 398.492L375.586 397.844C374.986 398.48 374.158 398.888 373.258 398.888C371.482 398.888 369.982 397.328 369.982 395.48C369.982 393.644 371.482 392.084 373.258 392.084C374.158 392.084 374.986 392.492 375.586 393.128L376.222 392.48C375.454 391.7 374.398 391.22 373.258 391.22C370.978 391.22 369.034 393.164 369.034 395.48C369.034 397.796 370.978 399.752 373.258 399.752ZM383.43 392.252V391.364H377.514V399.608H383.43V398.72H378.462V395.852H382.938V394.964H378.462V392.252H383.43ZM385.218 399.608H386.154V392.9L391.266 399.608H392.202V391.364H391.266V398.072L386.154 391.364H385.218V399.608ZM396.636 399.608H397.572V392.252H400.344V391.364H393.864V392.252H396.636V399.608ZM401.831 399.608H402.767V391.364H401.831V399.608ZM411.375 391.364L408.255 398.456L405.123 391.364H404.103L407.739 399.608H408.759L412.395 391.364H411.375ZM419.641 392.252V391.364H413.725V399.608H419.641V398.72H414.673V395.852H419.149V394.964H414.673V392.252H419.641ZM424.105 399.74C426.025 399.74 427.009 398.672 427.009 397.364C427.009 395.912 425.881 395.348 424.309 394.976C422.905 394.64 422.089 394.34 422.089 393.488C422.089 392.732 422.833 392.06 423.853 392.06C424.717 392.06 425.533 392.456 426.217 393.116L426.793 392.384C426.037 391.688 425.125 391.208 423.901 391.208C422.317 391.208 421.141 392.24 421.141 393.56C421.141 394.988 422.185 395.504 423.841 395.888C425.281 396.224 426.061 396.572 426.061 397.448C426.061 398.192 425.413 398.888 424.141 398.888C422.989 398.888 422.137 398.396 421.441 397.7L420.853 398.432C421.681 399.248 422.749 399.74 424.105 399.74Z" fill="#29264C"/>
<path d="M343.74 604.872C346.842 604.872 349.262 603.222 349.262 600.648C349.262 598.756 347.766 597.414 345.94 596.798C347.502 596.226 348.888 595.104 348.888 593.256C348.888 590.77 346.446 589.23 343.74 589.23C341.122 589.23 338.614 590.726 338.614 593.234C338.614 594.972 339.846 596.138 341.562 596.798C339.714 597.392 338.218 598.756 338.218 600.648C338.218 603.2 340.616 604.872 343.74 604.872ZM343.74 596.116C342.31 596.028 340.352 595.17 340.352 593.41C340.352 591.892 341.848 590.792 343.74 590.792C345.632 590.792 347.15 591.892 347.15 593.41C347.15 595.126 345.214 596.028 343.74 596.116ZM343.74 603.31C341.65 603.31 339.956 602.188 339.956 600.538C339.956 598.712 342.178 597.656 343.74 597.612C345.324 597.656 347.524 598.712 347.524 600.538C347.524 602.188 345.83 603.31 343.74 603.31ZM354.948 596.93C357.016 596.93 358.468 595.28 358.468 593.146C358.468 591.056 357.06 589.362 354.97 589.362C352.924 589.362 351.45 591.012 351.45 593.19C351.45 595.236 352.858 596.93 354.948 596.93ZM353.298 604.608H354.75L365.09 589.494H363.638L353.298 604.608ZM354.97 595.742C353.76 595.742 352.836 594.62 352.836 593.168C352.836 591.65 353.716 590.55 354.948 590.55C356.18 590.55 357.082 591.672 357.082 593.168C357.082 594.642 356.202 595.742 354.97 595.742ZM363.352 604.828C365.398 604.828 366.872 603.178 366.872 601.022C366.872 598.976 365.464 597.26 363.374 597.26C361.284 597.26 359.854 598.976 359.854 601.044C359.854 603.2 361.328 604.828 363.352 604.828ZM363.374 603.64C362.12 603.64 361.24 602.518 361.24 601.022C361.24 599.592 362.098 598.448 363.352 598.448C364.584 598.448 365.486 599.57 365.486 601.044C365.486 602.54 364.628 603.64 363.374 603.64Z" fill="white"/>
<path d="M237.243 610.608H238.959V595.494H237.573L233.855 598.024L234.603 599.3L237.243 597.584V610.608ZM248.629 610.872C252.303 610.872 254.899 607.638 254.899 603.04C254.899 598.464 252.303 595.23 248.629 595.23C244.933 595.23 242.337 598.464 242.337 603.04C242.337 607.638 244.933 610.872 248.629 610.872ZM248.629 609.288C245.967 609.288 244.075 606.692 244.075 603.04C244.075 599.388 245.967 596.814 248.629 596.814C251.291 596.814 253.161 599.388 253.161 603.04C253.161 606.692 251.291 609.288 248.629 609.288ZM260.739 602.93C262.807 602.93 264.259 601.28 264.259 599.146C264.259 597.056 262.851 595.362 260.761 595.362C258.715 595.362 257.241 597.012 257.241 599.19C257.241 601.236 258.649 602.93 260.739 602.93ZM259.089 610.608H260.541L270.881 595.494H269.429L259.089 610.608ZM260.761 601.742C259.551 601.742 258.627 600.62 258.627 599.168C258.627 597.65 259.507 596.55 260.739 596.55C261.971 596.55 262.873 597.672 262.873 599.168C262.873 600.642 261.993 601.742 260.761 601.742ZM269.143 610.828C271.189 610.828 272.663 609.178 272.663 607.022C272.663 604.976 271.255 603.26 269.165 603.26C267.075 603.26 265.645 604.976 265.645 607.044C265.645 609.2 267.119 610.828 269.143 610.828ZM269.165 609.64C267.911 609.64 267.031 608.518 267.031 607.022C267.031 605.592 267.889 604.448 269.143 604.448C270.375 604.448 271.277 605.57 271.277 607.044C271.277 608.54 270.419 609.64 269.165 609.64Z" fill="white"/>
<path d="M110.974 513.608H112.69V498.494H111.304L107.586 501.024L108.334 502.3L110.974 500.584V513.608ZM122.096 504.17C120.314 504.17 118.752 505.028 117.828 506.48V506.282C117.828 502.652 119.742 499.792 122.162 499.792C123.614 499.792 124.604 500.452 125.55 501.376L126.496 500.034C125.374 498.956 124.054 498.23 122.206 498.23C118.774 498.23 116.09 501.772 116.09 506.282C116.09 510.55 117.74 513.872 121.832 513.872C124.978 513.872 127.156 511.672 127.156 508.878C127.156 505.886 124.846 504.17 122.096 504.17ZM121.81 512.398C119.698 512.398 118.466 510.748 118.026 508.46C118.4 506.788 119.874 505.644 121.788 505.644C123.812 505.644 125.418 506.898 125.418 508.966C125.418 510.638 124.076 512.398 121.81 512.398ZM133.009 505.93C135.077 505.93 136.529 504.28 136.529 502.146C136.529 500.056 135.121 498.362 133.031 498.362C130.985 498.362 129.511 500.012 129.511 502.19C129.511 504.236 130.919 505.93 133.009 505.93ZM131.359 513.608H132.811L143.151 498.494H141.699L131.359 513.608ZM133.031 504.742C131.821 504.742 130.897 503.62 130.897 502.168C130.897 500.65 131.777 499.55 133.009 499.55C134.241 499.55 135.143 500.672 135.143 502.168C135.143 503.642 134.263 504.742 133.031 504.742ZM141.413 513.828C143.459 513.828 144.933 512.178 144.933 510.022C144.933 507.976 143.525 506.26 141.435 506.26C139.345 506.26 137.915 507.976 137.915 510.044C137.915 512.2 139.389 513.828 141.413 513.828ZM141.435 512.64C140.181 512.64 139.301 511.518 139.301 510.022C139.301 508.592 140.159 507.448 141.413 507.448C142.645 507.448 143.547 508.57 143.547 510.044C143.547 511.54 142.689 512.64 141.435 512.64Z" fill="white"/>
<path d="M107.716 400.872C110.818 400.872 113.084 398.892 113.084 395.9C113.084 392.908 110.818 391.192 108.09 391.192C106.704 391.192 105.67 391.654 104.856 392.204L105.01 387.122H112.27V385.494H103.338L103.118 393.26L104.372 393.876C105.318 393.172 106.44 392.71 107.738 392.71C109.85 392.71 111.346 394.03 111.346 395.966C111.346 397.88 109.872 399.332 107.782 399.332C106.11 399.332 104.68 398.496 103.514 397.22L102.392 398.474C103.624 399.882 105.384 400.872 107.716 400.872ZM118.862 392.93C120.93 392.93 122.382 391.28 122.382 389.146C122.382 387.056 120.974 385.362 118.884 385.362C116.838 385.362 115.364 387.012 115.364 389.19C115.364 391.236 116.772 392.93 118.862 392.93ZM117.212 400.608H118.664L129.004 385.494H127.552L117.212 400.608ZM118.884 391.742C117.674 391.742 116.75 390.62 116.75 389.168C116.75 387.65 117.63 386.55 118.862 386.55C120.094 386.55 120.996 387.672 120.996 389.168C120.996 390.642 120.116 391.742 118.884 391.742ZM127.266 400.828C129.312 400.828 130.786 399.178 130.786 397.022C130.786 394.976 129.378 393.26 127.288 393.26C125.198 393.26 123.768 394.976 123.768 397.044C123.768 399.2 125.242 400.828 127.266 400.828ZM127.288 399.64C126.034 399.64 125.154 398.518 125.154 397.022C125.154 395.592 126.012 394.448 127.266 394.448C128.498 394.448 129.4 395.57 129.4 397.044C129.4 398.54 128.542 399.64 127.288 399.64Z" fill="white"/>
<path d="M156.974 288.608H158.69V273.494H157.304L153.586 276.024L154.334 277.3L156.974 275.584V288.608ZM167.414 273.23C164.268 273.23 162.09 275.43 162.09 278.224C162.09 281.216 164.4 282.932 167.15 282.932C168.932 282.932 170.494 282.074 171.418 280.622V280.82C171.418 284.45 169.504 287.31 167.084 287.31C165.632 287.31 164.642 286.65 163.696 285.726L162.75 287.068C163.872 288.146 165.192 288.872 167.04 288.872C170.472 288.872 173.156 285.33 173.156 280.82C173.156 276.552 171.506 273.23 167.414 273.23ZM167.458 281.458C165.434 281.458 163.828 280.204 163.828 278.136C163.828 276.464 165.17 274.704 167.436 274.704C169.548 274.704 170.78 276.354 171.22 278.642C170.846 280.314 169.372 281.458 167.458 281.458ZM179.009 280.93C181.077 280.93 182.529 279.28 182.529 277.146C182.529 275.056 181.121 273.362 179.031 273.362C176.985 273.362 175.511 275.012 175.511 277.19C175.511 279.236 176.919 280.93 179.009 280.93ZM177.359 288.608H178.811L189.151 273.494H187.699L177.359 288.608ZM179.031 279.742C177.821 279.742 176.897 278.62 176.897 277.168C176.897 275.65 177.777 274.55 179.009 274.55C180.241 274.55 181.143 275.672 181.143 277.168C181.143 278.642 180.263 279.742 179.031 279.742ZM187.413 288.828C189.459 288.828 190.933 287.178 190.933 285.022C190.933 282.976 189.525 281.26 187.435 281.26C185.345 281.26 183.915 282.976 183.915 285.044C183.915 287.2 185.389 288.828 187.413 288.828ZM187.435 287.64C186.181 287.64 185.301 286.518 185.301 285.022C185.301 283.592 186.159 282.448 187.413 282.448C188.645 282.448 189.547 283.57 189.547 285.044C189.547 286.54 188.689 287.64 187.435 287.64Z" fill="white"/>
<rect x="336" width="269" height="60" rx="10" fill="#F7F9FD"/>
<path d="M336 10C336 4.47715 340.477 0 346 0V60C340.477 60 336 55.5228 336 50V10Z" fill="#A9A4CC"/>
<path d="M427.6 36H429.004V23.634H427.6V36ZM436.228 26.478C434.914 26.478 433.708 27.198 433.168 28.188V26.694H431.818V36H433.168V30.078C433.168 28.782 434.482 27.684 436.048 27.684C437.416 27.684 438.37 28.746 438.37 30.258V36H439.72V30.078C439.72 27.972 438.28 26.478 436.228 26.478ZM443.118 25.002C443.604 25.002 444 24.588 444 24.102C444 23.634 443.604 23.22 443.118 23.22C442.614 23.22 442.218 23.634 442.218 24.102C442.218 24.588 442.614 25.002 443.118 25.002ZM442.434 36H443.784V26.694H442.434V36ZM450.581 34.632C450.383 34.848 450.023 35.01 449.609 35.01C449.069 35.01 448.601 34.524 448.601 33.84V27.9H450.887V26.694H448.601V24.138H447.251V26.694H445.793V27.9H447.251V33.84C447.251 35.226 448.187 36.216 449.519 36.216C450.149 36.216 450.761 36 451.247 35.622L450.581 34.632ZM453.823 25.002C454.309 25.002 454.705 24.588 454.705 24.102C454.705 23.634 454.309 23.22 453.823 23.22C453.319 23.22 452.923 23.634 452.923 24.102C452.923 24.588 453.319 25.002 453.823 25.002ZM453.139 36H454.489V26.694H453.139V36ZM460.98 26.478C460.08 26.478 458.964 26.712 457.632 27.378L458.172 28.476C459.018 28.044 459.954 27.63 460.89 27.63C462.906 27.63 463.41 29.07 463.41 30.33V30.672C462.456 30.366 461.394 30.15 460.386 30.15C458.388 30.15 456.732 31.392 456.732 33.246C456.732 35.082 458.172 36.216 460.134 36.216C461.358 36.216 462.744 35.64 463.41 34.542V36H464.76V30.33C464.76 28.08 463.518 26.478 460.98 26.478ZM460.368 35.028C459.054 35.028 458.046 34.344 458.046 33.192C458.046 32.076 459.216 31.284 460.602 31.284C461.61 31.284 462.564 31.428 463.41 31.662V33.084C463.05 34.398 461.592 35.028 460.368 35.028ZM467.518 36H468.868V23.418H467.518V36ZM476.871 36H478.275V31.554H481.893C484.449 31.554 486.447 29.916 486.447 27.594C486.447 25.272 484.449 23.634 481.893 23.634H476.871V36ZM478.275 30.222V24.966H481.641C483.657 24.966 485.025 25.938 485.025 27.594C485.025 29.25 483.657 30.222 481.641 30.222H478.275ZM492.721 36.216C495.331 36.216 497.527 33.984 497.527 31.338C497.527 28.692 495.331 26.478 492.721 26.478C490.111 26.478 487.897 28.692 487.897 31.338C487.897 33.984 490.111 36.216 492.721 36.216ZM492.721 35.01C490.867 35.01 489.319 33.336 489.319 31.338C489.319 29.358 490.867 27.684 492.721 27.684C494.557 27.684 496.105 29.358 496.105 31.338C496.105 33.336 494.557 35.01 492.721 35.01ZM504.077 36.216C506.687 36.216 508.883 33.984 508.883 31.338C508.883 28.692 506.687 26.478 504.077 26.478C501.467 26.478 499.253 28.692 499.253 31.338C499.253 33.984 501.467 36.216 504.077 36.216ZM504.077 35.01C502.223 35.01 500.675 33.336 500.675 31.338C500.675 29.358 502.223 27.684 504.077 27.684C505.913 27.684 507.461 29.358 507.461 31.338C507.461 33.336 505.913 35.01 504.077 35.01ZM511.112 36H512.462V23.418H511.112V36Z" fill="#A9A4CC"/>
<rect x="336" y="74" width="269" height="60" rx="10" fill="#F7F9FD"/>
<path d="M336 84C336 78.4772 340.477 74 346 74V134C340.477 134 336 129.523 336 124V84Z" fill="#7068AA"/>
<path d="M416.774 110H418.25V104.96L423.218 97.634H421.526L417.512 103.628L413.534 97.634H411.788L416.774 104.96V110ZM425.574 99.002C426.06 99.002 426.456 98.588 426.456 98.102C426.456 97.634 426.06 97.22 425.574 97.22C425.07 97.22 424.674 97.634 424.674 98.102C424.674 98.588 425.07 99.002 425.574 99.002ZM424.89 110H426.24V100.694H424.89V110ZM433.145 109.01C431.309 109.01 430.031 107.678 429.833 105.86H437.447C437.447 102.602 435.845 100.478 433.037 100.478C430.535 100.478 428.447 102.548 428.447 105.32C428.447 108.182 430.679 110.216 433.163 110.216C434.459 110.216 436.097 109.658 436.907 108.776L436.079 107.894C435.503 108.524 434.243 109.01 433.145 109.01ZM433.091 101.684C434.945 101.684 435.935 102.98 436.115 104.654H429.851C430.103 102.854 431.435 101.684 433.091 101.684ZM439.656 110H441.006V97.418H439.656V110ZM451.006 97.418V102.44C450.304 101.216 449.116 100.478 447.622 100.478C445.174 100.478 443.338 102.494 443.338 105.338C443.338 108.2 445.174 110.216 447.622 110.216C449.116 110.216 450.304 109.478 451.006 108.254V110H452.356V97.418H451.006ZM447.874 109.01C446.056 109.01 444.76 107.48 444.76 105.338C444.76 103.196 446.056 101.684 447.874 101.684C449.71 101.684 451.006 103.196 451.006 105.338C451.006 107.48 449.71 109.01 447.874 109.01ZM469.361 98.966V97.634H460.487V110H461.909V104.366H468.623V103.034H461.909V98.966H469.361ZM475.182 100.478C474.282 100.478 473.166 100.712 471.834 101.378L472.374 102.476C473.22 102.044 474.156 101.63 475.092 101.63C477.108 101.63 477.612 103.07 477.612 104.33V104.672C476.658 104.366 475.596 104.15 474.588 104.15C472.59 104.15 470.934 105.392 470.934 107.246C470.934 109.082 472.374 110.216 474.336 110.216C475.56 110.216 476.946 109.64 477.612 108.542V110H478.962V104.33C478.962 102.08 477.72 100.478 475.182 100.478ZM474.57 109.028C473.256 109.028 472.248 108.344 472.248 107.192C472.248 106.076 473.418 105.284 474.804 105.284C475.812 105.284 476.766 105.428 477.612 105.662V107.084C477.252 108.398 475.794 109.028 474.57 109.028ZM483.197 102.512V100.694H481.847V110H483.197V104.798C483.197 102.98 484.691 101.684 486.797 101.684V100.478C485.087 100.478 483.755 101.27 483.197 102.512ZM498.726 100.478C497.322 100.478 496.098 101.252 495.72 102.458C495.216 101.252 494.118 100.478 492.714 100.478C491.49 100.478 490.482 101.09 490.014 102.062V100.694H488.664V110H490.014V104.078C490.014 102.674 491.058 101.684 492.534 101.684C493.794 101.684 494.676 102.746 494.676 104.258V110H496.026V104.078C496.026 102.674 497.07 101.684 498.546 101.684C499.806 101.684 500.688 102.746 500.688 104.258V110H502.038V104.078C502.038 101.972 500.67 100.478 498.726 100.478ZM505.431 99.002C505.917 99.002 506.313 98.588 506.313 98.102C506.313 97.634 505.917 97.22 505.431 97.22C504.927 97.22 504.531 97.634 504.531 98.102C504.531 98.588 504.927 99.002 505.431 99.002ZM504.747 110H506.097V100.694H504.747V110ZM513.236 100.478C511.922 100.478 510.716 101.198 510.176 102.188V100.694H508.826V110H510.176V104.078C510.176 102.782 511.49 101.684 513.056 101.684C514.424 101.684 515.378 102.746 515.378 104.258V110H516.728V104.078C516.728 101.972 515.288 100.478 513.236 100.478ZM526.697 100.694V102.296C525.977 101.162 524.789 100.478 523.313 100.478C520.811 100.478 519.029 102.296 519.029 104.888C519.029 107.48 520.811 109.316 523.313 109.316C524.789 109.316 525.977 108.632 526.697 107.498V109.01C526.697 110.828 525.437 111.89 523.295 111.89C522.143 111.89 521.027 111.476 520.307 110.792L519.713 111.854C520.559 112.574 521.963 113.096 523.475 113.096C526.157 113.096 528.047 111.404 528.047 109.01V100.694H526.697ZM523.565 108.11C521.747 108.11 520.451 106.778 520.451 104.888C520.451 103.016 521.747 101.684 523.565 101.684C525.401 101.684 526.697 103.016 526.697 104.888C526.697 106.778 525.401 108.11 523.565 108.11Z" fill="#7068AA"/>
<rect x="336" y="701" width="269" height="60" rx="10" fill="#F7F9FD"/>
<path d="M336 711C336 705.477 340.477 701 346 701V761C340.477 761 336 756.523 336 751V711Z" fill="#B8E3DB"/>
<path d="M410.897 737H415.073C418.997 737 421.769 734.426 421.769 730.808C421.769 727.19 418.997 724.634 415.073 724.634H410.897V737ZM412.301 735.722V725.912H415.073C418.169 725.912 420.347 727.946 420.347 730.808C420.347 733.688 418.169 735.722 415.073 735.722H412.301ZM433.451 737H434.981L429.527 724.634H427.997L422.543 737H424.073L425.315 734.192H432.209L433.451 737ZM425.891 732.86L428.771 726.362L431.633 732.86H425.891ZM442.827 737.216C446.265 737.216 449.145 734.282 449.145 730.808C449.145 727.334 446.265 724.418 442.827 724.418C439.407 724.418 436.491 727.334 436.491 730.808C436.491 734.282 439.407 737.216 442.827 737.216ZM442.827 735.92C440.163 735.92 437.913 733.58 437.913 730.808C437.913 728.054 440.163 725.714 442.827 725.714C445.491 725.714 447.723 728.054 447.723 730.808C447.723 733.58 445.491 735.92 442.827 735.92ZM460.263 737H461.667V725.966H465.825V724.634H456.105V725.966H460.263V737ZM469.477 729.512V727.694H468.127V737H469.477V731.798C469.477 729.98 470.971 728.684 473.077 728.684V727.478C471.367 727.478 470.035 728.27 469.477 729.512ZM479.138 736.01C477.302 736.01 476.024 734.678 475.826 732.86H483.44C483.44 729.602 481.838 727.478 479.03 727.478C476.528 727.478 474.44 729.548 474.44 732.32C474.44 735.182 476.672 737.216 479.156 737.216C480.452 737.216 482.09 736.658 482.9 735.776L482.072 734.894C481.496 735.524 480.236 736.01 479.138 736.01ZM479.084 728.684C480.938 728.684 481.928 729.98 482.108 731.654H475.844C476.096 729.854 477.428 728.684 479.084 728.684ZM489.429 727.478C488.529 727.478 487.413 727.712 486.081 728.378L486.621 729.476C487.467 729.044 488.403 728.63 489.339 728.63C491.355 728.63 491.859 730.07 491.859 731.33V731.672C490.905 731.366 489.843 731.15 488.835 731.15C486.837 731.15 485.181 732.392 485.181 734.246C485.181 736.082 486.621 737.216 488.583 737.216C489.807 737.216 491.193 736.64 491.859 735.542V737H493.209V731.33C493.209 729.08 491.967 727.478 489.429 727.478ZM488.817 736.028C487.503 736.028 486.495 735.344 486.495 734.192C486.495 733.076 487.665 732.284 489.051 732.284C490.059 732.284 491.013 732.428 491.859 732.662V734.084C491.499 735.398 490.041 736.028 488.817 736.028ZM499.262 737.216C501.188 737.216 502.664 736.118 502.664 734.408C502.664 732.644 501.116 732.14 499.622 731.672C497.894 731.114 497.21 730.862 497.21 730.052C497.21 729.152 498.074 728.684 499.118 728.684C499.946 728.684 500.864 728.972 501.8 729.566L502.448 728.522C501.458 727.874 500.27 727.478 499.118 727.478C497.264 727.478 495.86 728.522 495.86 730.214C495.86 731.546 496.724 732.212 498.974 732.86C500.234 733.22 501.314 733.544 501.314 734.552C501.314 735.434 500.486 736.01 499.262 736.01C498.236 736.01 497.174 735.614 496.112 734.84L495.41 735.83C496.526 736.73 497.966 737.216 499.262 737.216ZM511.449 727.694V733.616C511.449 734.912 510.135 736.01 508.569 736.01C507.201 736.01 506.247 734.948 506.247 733.436V727.694H504.897V733.616C504.897 735.722 506.337 737.216 508.389 737.216C509.703 737.216 510.909 736.496 511.449 735.506V737H512.799V727.694H511.449ZM517.026 729.512V727.694H515.676V737H517.026V731.798C517.026 729.98 518.52 728.684 520.626 728.684V727.478C518.916 727.478 517.584 728.27 517.026 729.512ZM523.879 740.24C525.157 740.222 526.057 739.628 526.705 738.044L530.953 727.694H529.495L526.417 735.434L523.159 727.694H521.665L525.715 737.036L525.175 738.188C524.815 738.818 524.419 739.016 523.825 739.016C523.429 739.016 523.051 738.944 522.727 738.782L522.403 739.934C522.835 740.132 523.339 740.24 523.879 740.24Z" fill="#B8E3DB"/>
<rect x="337" y="775" width="269" height="60" rx="10" fill="#F7F9FD"/>
<path d="M337 785C337 779.477 341.477 775 347 775V835C341.477 835 337 830.523 337 825V785Z" fill="#88D1C3"/>
<path d="M406.526 811.216C408.236 811.216 409.82 810.478 410.972 809.326L410.018 808.354C409.118 809.308 407.876 809.92 406.526 809.92C403.862 809.92 401.612 807.58 401.612 804.808C401.612 802.054 403.862 799.714 406.526 799.714C407.876 799.714 409.118 800.326 410.018 801.28L410.972 800.308C409.82 799.138 408.236 798.418 406.526 798.418C403.106 798.418 400.19 801.334 400.19 804.808C400.19 808.282 403.106 811.216 406.526 811.216ZM417.176 811.216C419.786 811.216 421.982 808.984 421.982 806.338C421.982 803.692 419.786 801.478 417.176 801.478C414.566 801.478 412.352 803.692 412.352 806.338C412.352 808.984 414.566 811.216 417.176 811.216ZM417.176 810.01C415.322 810.01 413.774 808.336 413.774 806.338C413.774 804.358 415.322 802.684 417.176 802.684C419.012 802.684 420.56 804.358 420.56 806.338C420.56 808.336 419.012 810.01 417.176 810.01ZM430.764 801.694V807.616C430.764 808.912 429.45 810.01 427.884 810.01C426.516 810.01 425.562 808.948 425.562 807.436V801.694H424.212V807.616C424.212 809.722 425.652 811.216 427.704 811.216C429.018 811.216 430.224 810.496 430.764 809.506V811H432.114V801.694H430.764ZM439.292 801.478C437.978 801.478 436.772 802.198 436.232 803.188V801.694H434.882V811H436.232V805.078C436.232 803.782 437.546 802.684 439.112 802.684C440.48 802.684 441.434 803.746 441.434 805.258V811H442.784V805.078C442.784 802.972 441.344 801.478 439.292 801.478ZM449.836 811.216C451.132 811.216 452.32 810.676 453.202 809.794L452.266 808.876C451.636 809.578 450.772 810.01 449.836 810.01C447.982 810.01 446.434 808.336 446.434 806.338C446.434 804.358 447.982 802.684 449.836 802.684C450.754 802.684 451.6 803.098 452.212 803.764L453.148 802.846C452.266 802 451.096 801.478 449.836 801.478C447.226 801.478 445.012 803.692 445.012 806.338C445.012 808.984 447.226 811.216 449.836 811.216ZM455.938 800.002C456.424 800.002 456.82 799.588 456.82 799.102C456.82 798.634 456.424 798.22 455.938 798.22C455.434 798.22 455.038 798.634 455.038 799.102C455.038 799.588 455.434 800.002 455.938 800.002ZM455.254 811H456.604V801.694H455.254V811ZM459.315 811H460.665V798.418H459.315V811ZM472.214 811H473.618V799.966H477.776V798.634H468.056V799.966H472.214V811ZM481.428 803.512V801.694H480.078V811H481.428V805.798C481.428 803.98 482.922 802.684 485.028 802.684V801.478C483.318 801.478 481.986 802.27 481.428 803.512ZM491.089 810.01C489.253 810.01 487.975 808.678 487.777 806.86H495.391C495.391 803.602 493.789 801.478 490.981 801.478C488.479 801.478 486.391 803.548 486.391 806.32C486.391 809.182 488.623 811.216 491.107 811.216C492.403 811.216 494.041 810.658 494.851 809.776L494.023 808.894C493.447 809.524 492.187 810.01 491.089 810.01ZM491.035 802.684C492.889 802.684 493.879 803.98 494.059 805.654H487.795C488.047 803.854 489.379 802.684 491.035 802.684ZM501.38 801.478C500.48 801.478 499.364 801.712 498.032 802.378L498.572 803.476C499.418 803.044 500.354 802.63 501.29 802.63C503.306 802.63 503.81 804.07 503.81 805.33V805.672C502.856 805.366 501.794 805.15 500.786 805.15C498.788 805.15 497.132 806.392 497.132 808.246C497.132 810.082 498.572 811.216 500.534 811.216C501.758 811.216 503.144 810.64 503.81 809.542V811H505.16V805.33C505.16 803.08 503.918 801.478 501.38 801.478ZM500.768 810.028C499.454 810.028 498.446 809.344 498.446 808.192C498.446 807.076 499.616 806.284 501.002 806.284C502.01 806.284 502.964 806.428 503.81 806.662V808.084C503.45 809.398 501.992 810.028 500.768 810.028ZM511.213 811.216C513.139 811.216 514.615 810.118 514.615 808.408C514.615 806.644 513.067 806.14 511.573 805.672C509.845 805.114 509.161 804.862 509.161 804.052C509.161 803.152 510.025 802.684 511.069 802.684C511.897 802.684 512.815 802.972 513.751 803.566L514.399 802.522C513.409 801.874 512.221 801.478 511.069 801.478C509.215 801.478 507.811 802.522 507.811 804.214C507.811 805.546 508.675 806.212 510.925 806.86C512.185 807.22 513.265 807.544 513.265 808.552C513.265 809.434 512.437 810.01 511.213 810.01C510.187 810.01 509.125 809.614 508.063 808.84L507.361 809.83C508.477 810.73 509.917 811.216 511.213 811.216ZM523.4 801.694V807.616C523.4 808.912 522.086 810.01 520.52 810.01C519.152 810.01 518.198 808.948 518.198 807.436V801.694H516.848V807.616C516.848 809.722 518.288 811.216 520.34 811.216C521.654 811.216 522.86 810.496 523.4 809.506V811H524.75V801.694H523.4ZM528.977 803.512V801.694H527.627V811H528.977V805.798C528.977 803.98 530.471 802.684 532.577 802.684V801.478C530.867 801.478 529.535 802.27 528.977 803.512ZM535.83 814.24C537.108 814.222 538.008 813.628 538.656 812.044L542.904 801.694H541.446L538.368 809.434L535.11 801.694H533.616L537.666 811.036L537.126 812.188C536.766 812.818 536.37 813.016 535.776 813.016C535.38 813.016 535.002 812.944 534.678 812.782L534.354 813.934C534.786 814.132 535.29 814.24 535.83 814.24Z" fill="#88D1C3"/>
<rect width="269" height="60" rx="10" fill="#F7F9FD"/>
<path d="M259 0C264.523 0 269 4.47715 269 10V50C269 55.5228 264.523 60 259 60V0Z" fill="#FFB3B3"/>
<path d="M107.779 36H109.309L103.855 23.634H102.325L96.8709 36H98.4009L99.6429 33.192H106.537L107.779 36ZM100.219 31.86L103.099 25.362L105.961 31.86H100.219ZM118.523 23.418V28.44C117.821 27.216 116.633 26.478 115.139 26.478C112.691 26.478 110.855 28.494 110.855 31.338C110.855 34.2 112.691 36.216 115.139 36.216C116.633 36.216 117.821 35.478 118.523 34.254V36H119.873V23.418H118.523ZM115.391 35.01C113.573 35.01 112.277 33.48 112.277 31.338C112.277 29.196 113.573 27.684 115.391 27.684C117.227 27.684 118.523 29.196 118.523 31.338C118.523 33.48 117.227 35.01 115.391 35.01ZM125.807 36H127.103L131.009 26.694H129.497L126.455 34.416L123.359 26.694H121.847L125.807 36ZM133.538 25.002C134.024 25.002 134.42 24.588 134.42 24.102C134.42 23.634 134.024 23.22 133.538 23.22C133.034 23.22 132.638 23.634 132.638 24.102C132.638 24.588 133.034 25.002 133.538 25.002ZM132.854 36H134.204V26.694H132.854V36ZM140.209 36.216C142.135 36.216 143.611 35.118 143.611 33.408C143.611 31.644 142.063 31.14 140.569 30.672C138.841 30.114 138.157 29.862 138.157 29.052C138.157 28.152 139.021 27.684 140.065 27.684C140.893 27.684 141.811 27.972 142.747 28.566L143.395 27.522C142.405 26.874 141.217 26.478 140.065 26.478C138.211 26.478 136.807 27.522 136.807 29.214C136.807 30.546 137.671 31.212 139.921 31.86C141.181 32.22 142.261 32.544 142.261 33.552C142.261 34.434 141.433 35.01 140.209 35.01C139.183 35.01 138.121 34.614 137.059 33.84L136.357 34.83C137.473 35.73 138.913 36.216 140.209 36.216ZM150.165 36.216C152.775 36.216 154.971 33.984 154.971 31.338C154.971 28.692 152.775 26.478 150.165 26.478C147.555 26.478 145.341 28.692 145.341 31.338C145.341 33.984 147.555 36.216 150.165 36.216ZM150.165 35.01C148.311 35.01 146.763 33.336 146.763 31.338C146.763 29.358 148.311 27.684 150.165 27.684C152.001 27.684 153.549 29.358 153.549 31.338C153.549 33.336 152.001 35.01 150.165 35.01ZM158.676 28.512V26.694H157.326V36H158.676V30.798C158.676 28.98 160.17 27.684 162.276 27.684V26.478C160.566 26.478 159.234 27.27 158.676 28.512ZM167.437 36.216C169.363 36.216 170.839 35.118 170.839 33.408C170.839 31.644 169.291 31.14 167.797 30.672C166.069 30.114 165.385 29.862 165.385 29.052C165.385 28.152 166.249 27.684 167.293 27.684C168.121 27.684 169.039 27.972 169.975 28.566L170.623 27.522C169.633 26.874 168.445 26.478 167.293 26.478C165.439 26.478 164.035 27.522 164.035 29.214C164.035 30.546 164.899 31.212 167.149 31.86C168.409 32.22 169.489 32.544 169.489 33.552C169.489 34.434 168.661 35.01 167.437 35.01C166.411 35.01 165.349 34.614 164.287 33.84L163.585 34.83C164.701 35.73 166.141 36.216 167.437 36.216Z" fill="#FF8080"/>
<rect y="74" width="269" height="60" rx="10" fill="#F7F9FD"/>
<path d="M259 74C264.523 74 269 78.4772 269 84V124C269 129.523 264.523 134 259 134V74Z" fill="#FF8080"/>
<path d="M68.4718 98.966V97.634H59.5978V110H61.0198V104.366H67.7338V103.034H61.0198V98.966H68.4718ZM74.8325 110.216C77.4425 110.216 79.6385 107.984 79.6385 105.338C79.6385 102.692 77.4425 100.478 74.8325 100.478C72.2225 100.478 70.0085 102.692 70.0085 105.338C70.0085 107.984 72.2225 110.216 74.8325 110.216ZM74.8325 109.01C72.9785 109.01 71.4305 107.336 71.4305 105.338C71.4305 103.358 72.9785 101.684 74.8325 101.684C76.6685 101.684 78.2165 103.358 78.2165 105.338C78.2165 107.336 76.6685 109.01 74.8325 109.01ZM88.42 100.694V106.616C88.42 107.912 87.106 109.01 85.54 109.01C84.172 109.01 83.218 107.948 83.218 106.436V100.694H81.868V106.616C81.868 108.722 83.308 110.216 85.36 110.216C86.674 110.216 87.88 109.496 88.42 108.506V110H89.77V100.694H88.42ZM96.9483 100.478C95.6343 100.478 94.4283 101.198 93.8883 102.188V100.694H92.5383V110H93.8883V104.078C93.8883 102.782 95.2023 101.684 96.7683 101.684C98.1363 101.684 99.0903 102.746 99.0903 104.258V110H100.44V104.078C100.44 101.972 99.0003 100.478 96.9483 100.478ZM110.445 97.418V102.44C109.743 101.216 108.555 100.478 107.061 100.478C104.613 100.478 102.777 102.494 102.777 105.338C102.777 108.2 104.613 110.216 107.061 110.216C108.555 110.216 109.743 109.478 110.445 108.254V110H111.795V97.418H110.445ZM107.313 109.01C105.495 109.01 104.199 107.48 104.199 105.338C104.199 103.196 105.495 101.684 107.313 101.684C109.149 101.684 110.445 103.196 110.445 105.338C110.445 107.48 109.149 109.01 107.313 109.01ZM118.845 109.01C117.009 109.01 115.731 107.678 115.533 105.86H123.147C123.147 102.602 121.545 100.478 118.737 100.478C116.235 100.478 114.147 102.548 114.147 105.32C114.147 108.182 116.379 110.216 118.863 110.216C120.159 110.216 121.797 109.658 122.607 108.776L121.779 107.894C121.203 108.524 119.943 109.01 118.845 109.01ZM118.791 101.684C120.645 101.684 121.635 102.98 121.815 104.654H115.551C115.803 102.854 117.135 101.684 118.791 101.684ZM126.832 102.512V100.694H125.482V110H126.832V104.798C126.832 102.98 128.326 101.684 130.432 101.684V100.478C128.722 100.478 127.39 101.27 126.832 102.512ZM135.594 110.216C137.52 110.216 138.996 109.118 138.996 107.408C138.996 105.644 137.448 105.14 135.954 104.672C134.226 104.114 133.542 103.862 133.542 103.052C133.542 102.152 134.406 101.684 135.45 101.684C136.278 101.684 137.196 101.972 138.132 102.566L138.78 101.522C137.79 100.874 136.602 100.478 135.45 100.478C133.596 100.478 132.192 101.522 132.192 103.214C132.192 104.546 133.056 105.212 135.306 105.86C136.566 106.22 137.646 106.544 137.646 107.552C137.646 108.434 136.818 109.01 135.594 109.01C134.568 109.01 133.506 108.614 132.444 107.84L131.742 108.83C132.858 109.73 134.298 110.216 135.594 110.216ZM156.386 109.532L154.334 107.444C154.964 106.544 155.522 105.464 156.044 104.312L154.874 103.79C154.496 104.816 154.01 105.752 153.47 106.562C152.354 105.392 151.49 104.456 150.644 103.466C152.408 102.764 153.668 101.99 153.668 100.352C153.668 98.804 152.408 97.49 150.752 97.49C148.898 97.49 147.602 98.768 147.602 100.388C147.602 101.306 147.944 102.134 148.646 103.106C146.738 103.952 145.82 105.122 145.82 106.724C145.82 108.884 147.512 110.216 149.708 110.216C151.238 110.216 152.462 109.55 153.488 108.488L155.108 110.126L156.386 109.532ZM150.752 98.696C151.67 98.696 152.318 99.434 152.318 100.388C152.318 101.414 151.58 101.954 149.924 102.602C149.258 101.756 148.952 101.036 148.952 100.388C148.952 99.326 149.726 98.696 150.752 98.696ZM149.762 109.01C148.358 109.01 147.17 108.146 147.17 106.688C147.17 105.536 147.998 104.636 149.348 104.006C150.212 105.05 151.148 106.076 152.624 107.606C151.796 108.488 150.842 109.01 149.762 109.01ZM167.329 110H168.733V98.966H172.891V97.634H163.171V98.966H167.329V110ZM179.261 109.01C177.425 109.01 176.147 107.678 175.949 105.86H183.563C183.563 102.602 181.961 100.478 179.153 100.478C176.651 100.478 174.563 102.548 174.563 105.32C174.563 108.182 176.795 110.216 179.279 110.216C180.575 110.216 182.213 109.658 183.023 108.776L182.195 107.894C181.619 108.524 180.359 109.01 179.261 109.01ZM179.207 101.684C181.061 101.684 182.051 102.98 182.231 104.654H175.967C176.219 102.854 177.551 101.684 179.207 101.684ZM189.552 100.478C188.652 100.478 187.536 100.712 186.204 101.378L186.744 102.476C187.59 102.044 188.526 101.63 189.462 101.63C191.478 101.63 191.982 103.07 191.982 104.33V104.672C191.028 104.366 189.966 104.15 188.958 104.15C186.96 104.15 185.304 105.392 185.304 107.246C185.304 109.082 186.744 110.216 188.706 110.216C189.93 110.216 191.316 109.64 191.982 108.542V110H193.332V104.33C193.332 102.08 192.09 100.478 189.552 100.478ZM188.94 109.028C187.626 109.028 186.618 108.344 186.618 107.192C186.618 106.076 187.788 105.284 189.174 105.284C190.182 105.284 191.136 105.428 191.982 105.662V107.084C191.622 108.398 190.164 109.028 188.94 109.028ZM206.153 100.478C204.749 100.478 203.525 101.252 203.147 102.458C202.643 101.252 201.545 100.478 200.141 100.478C198.917 100.478 197.909 101.09 197.441 102.062V100.694H196.091V110H197.441V104.078C197.441 102.674 198.485 101.684 199.961 101.684C201.221 101.684 202.103 102.746 202.103 104.258V110H203.453V104.078C203.453 102.674 204.497 101.684 205.973 101.684C207.233 101.684 208.115 102.746 208.115 104.258V110H209.465V104.078C209.465 101.972 208.097 100.478 206.153 100.478Z" fill="#FF8080"/>
<path d="M117 562L117 775" stroke="#7996C9" stroke-width="2"/>
<rect x="1" y="775" width="269" height="60" rx="10" fill="#F7F9FD"/>
<path d="M260 775C265.523 775 270 779.477 270 785V825C270 830.523 265.523 835 260 835V775Z" fill="#7996C9"/>
<path d="M50.5167 811H51.9207V806.554H55.5387C58.0947 806.554 60.0927 804.916 60.0927 802.594C60.0927 800.272 58.0947 798.634 55.5387 798.634H50.5167V811ZM51.9207 805.222V799.966H55.2867C57.3027 799.966 58.6707 800.938 58.6707 802.594C58.6707 804.25 57.3027 805.222 55.2867 805.222H51.9207ZM63.5227 803.512V801.694H62.1727V811H63.5227V805.798C63.5227 803.98 65.0167 802.684 67.1227 802.684V801.478C65.4127 801.478 64.0807 802.27 63.5227 803.512ZM69.6561 800.002C70.1421 800.002 70.5381 799.588 70.5381 799.102C70.5381 798.634 70.1421 798.22 69.6561 798.22C69.1521 798.22 68.7561 798.634 68.7561 799.102C68.7561 799.588 69.1521 800.002 69.6561 800.002ZM68.9721 811H70.3221V801.694H68.9721V811ZM76.111 811H77.407L81.313 801.694H79.801L76.759 809.416L73.663 801.694H72.151L76.111 811ZM86.2349 801.478C85.3349 801.478 84.2189 801.712 82.8869 802.378L83.4269 803.476C84.2729 803.044 85.2089 802.63 86.1449 802.63C88.1609 802.63 88.6649 804.07 88.6649 805.33V805.672C87.7109 805.366 86.6489 805.15 85.6409 805.15C83.6429 805.15 81.9869 806.392 81.9869 808.246C81.9869 810.082 83.4269 811.216 85.3889 811.216C86.6129 811.216 87.9989 810.64 88.6649 809.542V811H90.0149V805.33C90.0149 803.08 88.7729 801.478 86.2349 801.478ZM85.6229 810.028C84.3089 810.028 83.3009 809.344 83.3009 808.192C83.3009 807.076 84.4709 806.284 85.8569 806.284C86.8649 806.284 87.8189 806.428 88.6649 806.662V808.084C88.3049 809.398 86.8469 810.028 85.6229 810.028ZM96.8593 809.632C96.6613 809.848 96.3013 810.01 95.8873 810.01C95.3473 810.01 94.8793 809.524 94.8793 808.84V802.9H97.1653V801.694H94.8793V799.138H93.5293V801.694H92.0713V802.9H93.5293V808.84C93.5293 810.226 94.4653 811.216 95.7973 811.216C96.4273 811.216 97.0393 811 97.5253 810.622L96.8593 809.632ZM103.629 810.01C101.793 810.01 100.515 808.678 100.317 806.86H107.931C107.931 803.602 106.329 801.478 103.521 801.478C101.019 801.478 98.9314 803.548 98.9314 806.32C98.9314 809.182 101.163 811.216 103.647 811.216C104.943 811.216 106.581 810.658 107.391 809.776L106.563 808.894C105.987 809.524 104.727 810.01 103.629 810.01ZM103.575 802.684C105.429 802.684 106.419 803.98 106.599 805.654H100.335C100.587 803.854 101.919 802.684 103.575 802.684ZM121.265 811.216C122.975 811.216 124.559 810.478 125.711 809.326L124.757 808.354C123.857 809.308 122.615 809.92 121.265 809.92C118.601 809.92 116.351 807.58 116.351 804.808C116.351 802.054 118.601 799.714 121.265 799.714C122.615 799.714 123.857 800.326 124.757 801.28L125.711 800.308C124.559 799.138 122.975 798.418 121.265 798.418C117.845 798.418 114.929 801.334 114.929 804.808C114.929 808.282 117.845 811.216 121.265 811.216ZM131.916 811.216C134.526 811.216 136.722 808.984 136.722 806.338C136.722 803.692 134.526 801.478 131.916 801.478C129.306 801.478 127.092 803.692 127.092 806.338C127.092 808.984 129.306 811.216 131.916 811.216ZM131.916 810.01C130.062 810.01 128.514 808.336 128.514 806.338C128.514 804.358 130.062 802.684 131.916 802.684C133.752 802.684 135.3 804.358 135.3 806.338C135.3 808.336 133.752 810.01 131.916 810.01ZM143.379 801.478C142.065 801.478 140.859 802.198 140.319 803.188V801.694H138.969V811H140.319V805.078C140.319 803.782 141.633 802.684 143.199 802.684C144.567 802.684 145.521 803.746 145.521 805.258V811H146.871V805.078C146.871 802.972 145.431 801.478 143.379 801.478ZM153.689 809.632C153.491 809.848 153.131 810.01 152.717 810.01C152.177 810.01 151.709 809.524 151.709 808.84V802.9H153.995V801.694H151.709V799.138H150.359V801.694H148.901V802.9H150.359V808.84C150.359 810.226 151.295 811.216 152.627 811.216C153.257 811.216 153.869 811 154.355 810.622L153.689 809.632ZM157.741 803.512V801.694H156.391V811H157.741V805.798C157.741 803.98 159.235 802.684 161.341 802.684V801.478C159.631 801.478 158.299 802.27 157.741 803.512ZM163.875 800.002C164.361 800.002 164.757 799.588 164.757 799.102C164.757 798.634 164.361 798.22 163.875 798.22C163.371 798.22 162.975 798.634 162.975 799.102C162.975 799.588 163.371 800.002 163.875 800.002ZM163.191 811H164.541V801.694H163.191V811ZM172.112 801.478C170.618 801.478 169.43 802.216 168.728 803.44V798.418H167.378V811H168.728V809.254C169.43 810.478 170.618 811.216 172.112 811.216C174.56 811.216 176.396 809.2 176.396 806.338C176.396 803.494 174.56 801.478 172.112 801.478ZM171.86 810.01C170.024 810.01 168.728 808.48 168.728 806.338C168.728 804.196 170.024 802.684 171.86 802.684C173.678 802.684 174.974 804.196 174.974 806.338C174.974 808.48 173.678 810.01 171.86 810.01ZM185.282 801.694V807.616C185.282 808.912 183.968 810.01 182.402 810.01C181.034 810.01 180.08 808.948 180.08 807.436V801.694H178.73V807.616C178.73 809.722 180.17 811.216 182.222 811.216C183.536 811.216 184.742 810.496 185.282 809.506V811H186.632V801.694H185.282ZM193.469 809.632C193.271 809.848 192.911 810.01 192.497 810.01C191.957 810.01 191.489 809.524 191.489 808.84V802.9H193.775V801.694H191.489V799.138H190.139V801.694H188.681V802.9H190.139V808.84C190.139 810.226 191.075 811.216 192.407 811.216C193.037 811.216 193.649 811 194.135 810.622L193.469 809.632ZM200.365 811.216C202.975 811.216 205.171 808.984 205.171 806.338C205.171 803.692 202.975 801.478 200.365 801.478C197.755 801.478 195.541 803.692 195.541 806.338C195.541 808.984 197.755 811.216 200.365 811.216ZM200.365 810.01C198.511 810.01 196.963 808.336 196.963 806.338C196.963 804.358 198.511 802.684 200.365 802.684C202.201 802.684 203.749 804.358 203.749 806.338C203.749 808.336 202.201 810.01 200.365 810.01ZM208.876 803.512V801.694H207.526V811H208.876V805.798C208.876 803.98 210.37 802.684 212.476 802.684V801.478C210.766 801.478 209.434 802.27 208.876 803.512ZM217.638 811.216C219.564 811.216 221.04 810.118 221.04 808.408C221.04 806.644 219.492 806.14 217.998 805.672C216.27 805.114 215.586 804.862 215.586 804.052C215.586 803.152 216.45 802.684 217.494 802.684C218.322 802.684 219.24 802.972 220.176 803.566L220.824 802.522C219.834 801.874 218.646 801.478 217.494 801.478C215.64 801.478 214.236 802.522 214.236 804.214C214.236 805.546 215.1 806.212 217.35 806.86C218.61 807.22 219.69 807.544 219.69 808.552C219.69 809.434 218.862 810.01 217.638 810.01C216.612 810.01 215.55 809.614 214.488 808.84L213.786 809.83C214.902 810.73 216.342 811.216 217.638 811.216Z" fill="#7996C9"/>
<rect y="701" width="269" height="60" rx="10" fill="#F7F9FD"/>
<path d="M259 701C264.523 701 269 705.477 269 711V751C269 756.523 264.523 761 259 761V701Z" fill="#A3B3D0"/>
<path d="M49.8077 737H51.2117V732.554H54.8297C57.3857 732.554 59.3837 730.916 59.3837 728.594C59.3837 726.272 57.3857 724.634 54.8297 724.634H49.8077V737ZM51.2117 731.222V725.966H54.5777C56.5937 725.966 57.9617 726.938 57.9617 728.594C57.9617 730.25 56.5937 731.222 54.5777 731.222H51.2117ZM67.8897 727.694V733.616C67.8897 734.912 66.5757 736.01 65.0097 736.01C63.6417 736.01 62.6877 734.948 62.6877 733.436V727.694H61.3377V733.616C61.3377 735.722 62.7777 737.216 64.8297 737.216C66.1437 737.216 67.3497 736.496 67.8897 735.506V737H69.2397V727.694H67.8897ZM76.8501 727.478C75.3561 727.478 74.1681 728.216 73.4661 729.44V724.418H72.1161V737H73.4661V735.254C74.1681 736.478 75.3561 737.216 76.8501 737.216C79.2981 737.216 81.1341 735.2 81.1341 732.338C81.1341 729.494 79.2981 727.478 76.8501 727.478ZM76.5981 736.01C74.7621 736.01 73.4661 734.48 73.4661 732.338C73.4661 730.196 74.7621 728.684 76.5981 728.684C78.4161 728.684 79.7121 730.196 79.7121 732.338C79.7121 734.48 78.4161 736.01 76.5981 736.01ZM83.4686 737H84.8186V724.418H83.4686V737ZM88.2127 726.002C88.6987 726.002 89.0947 725.588 89.0947 725.102C89.0947 724.634 88.6987 724.22 88.2127 724.22C87.7087 724.22 87.3127 724.634 87.3127 725.102C87.3127 725.588 87.7087 726.002 88.2127 726.002ZM87.5287 737H88.8787V727.694H87.5287V737ZM95.9097 737.216C97.2057 737.216 98.3937 736.676 99.2757 735.794L98.3397 734.876C97.7097 735.578 96.8457 736.01 95.9097 736.01C94.0557 736.01 92.5077 734.336 92.5077 732.338C92.5077 730.358 94.0557 728.684 95.9097 728.684C96.8277 728.684 97.6737 729.098 98.2857 729.764L99.2217 728.846C98.3397 728 97.1697 727.478 95.9097 727.478C93.2997 727.478 91.0857 729.692 91.0857 732.338C91.0857 734.984 93.2997 737.216 95.9097 737.216ZM107.826 735.668V724.634H106.422V737H114.576V735.668H107.826ZM117.217 726.002C117.703 726.002 118.099 725.588 118.099 725.102C118.099 724.634 117.703 724.22 117.217 724.22C116.713 724.22 116.317 724.634 116.317 725.102C116.317 725.588 116.713 726.002 117.217 726.002ZM116.533 737H117.883V727.694H116.533V737ZM127.866 727.694V729.44C127.164 728.216 125.976 727.478 124.482 727.478C122.034 727.478 120.198 729.494 120.198 732.338C120.198 735.2 122.034 737.216 124.482 737.216C125.976 737.216 127.164 736.478 127.866 735.254V740.096H129.216V727.694H127.866ZM124.734 736.01C122.916 736.01 121.62 734.48 121.62 732.338C121.62 730.196 122.916 728.684 124.734 728.684C126.57 728.684 127.866 730.196 127.866 732.338C127.866 734.48 126.57 736.01 124.734 736.01ZM138.624 727.694V733.616C138.624 734.912 137.31 736.01 135.744 736.01C134.376 736.01 133.422 734.948 133.422 733.436V727.694H132.072V733.616C132.072 735.722 133.512 737.216 135.564 737.216C136.878 737.216 138.084 736.496 138.624 735.506V737H139.974V727.694H138.624ZM143.39 726.002C143.876 726.002 144.272 725.588 144.272 725.102C144.272 724.634 143.876 724.22 143.39 724.22C142.886 724.22 142.49 724.634 142.49 725.102C142.49 725.588 142.886 726.002 143.39 726.002ZM142.706 737H144.056V727.694H142.706V737ZM154.039 724.418V729.44C153.337 728.216 152.149 727.478 150.655 727.478C148.207 727.478 146.371 729.494 146.371 732.338C146.371 735.2 148.207 737.216 150.655 737.216C152.149 737.216 153.337 736.478 154.039 735.254V737H155.389V724.418H154.039ZM150.907 736.01C149.089 736.01 147.793 734.48 147.793 732.338C147.793 730.196 149.089 728.684 150.907 728.684C152.743 728.684 154.039 730.196 154.039 732.338C154.039 734.48 152.743 736.01 150.907 736.01ZM158.912 726.002C159.398 726.002 159.794 725.588 159.794 725.102C159.794 724.634 159.398 724.22 158.912 724.22C158.408 724.22 158.012 724.634 158.012 725.102C158.012 725.588 158.408 726.002 158.912 726.002ZM158.228 737H159.578V727.694H158.228V737ZM166.375 735.632C166.177 735.848 165.817 736.01 165.403 736.01C164.863 736.01 164.395 735.524 164.395 734.84V728.9H166.681V727.694H164.395V725.138H163.045V727.694H161.587V728.9H163.045V734.84C163.045 736.226 163.981 737.216 165.313 737.216C165.943 737.216 166.555 737 167.041 736.622L166.375 735.632ZM170.337 740.24C171.615 740.222 172.515 739.628 173.163 738.044L177.411 727.694H175.953L172.875 735.434L169.617 727.694H168.123L172.173 737.036L171.633 738.188C171.273 738.818 170.877 739.016 170.283 739.016C169.887 739.016 169.509 738.944 169.185 738.782L168.861 739.934C169.293 740.132 169.797 740.24 170.337 740.24ZM189.18 737.198C192.06 737.198 193.536 735.596 193.536 733.634C193.536 731.456 191.844 730.61 189.486 730.052C187.38 729.548 186.156 729.098 186.156 727.82C186.156 726.686 187.272 725.678 188.802 725.678C190.098 725.678 191.322 726.272 192.348 727.262L193.212 726.164C192.078 725.12 190.71 724.4 188.874 724.4C186.498 724.4 184.734 725.948 184.734 727.928C184.734 730.07 186.3 730.844 188.784 731.42C190.944 731.924 192.114 732.446 192.114 733.76C192.114 734.876 191.142 735.92 189.234 735.92C187.506 735.92 186.228 735.182 185.184 734.138L184.302 735.236C185.544 736.46 187.146 737.198 189.18 737.198ZM199.661 727.478C198.761 727.478 197.645 727.712 196.313 728.378L196.853 729.476C197.699 729.044 198.635 728.63 199.571 728.63C201.587 728.63 202.091 730.07 202.091 731.33V731.672C201.137 731.366 200.075 731.15 199.067 731.15C197.069 731.15 195.413 732.392 195.413 734.246C195.413 736.082 196.853 737.216 198.815 737.216C200.039 737.216 201.425 736.64 202.091 735.542V737H203.441V731.33C203.441 729.08 202.199 727.478 199.661 727.478ZM199.049 736.028C197.735 736.028 196.727 735.344 196.727 734.192C196.727 733.076 197.897 732.284 199.283 732.284C200.291 732.284 201.245 732.428 202.091 732.662V734.084C201.731 735.398 200.273 736.028 199.049 736.028ZM206.199 737H207.549V724.418H206.199V737ZM214.471 736.01C212.635 736.01 211.357 734.678 211.159 732.86H218.773C218.773 729.602 217.171 727.478 214.363 727.478C211.861 727.478 209.773 729.548 209.773 732.32C209.773 735.182 212.005 737.216 214.489 737.216C215.785 737.216 217.423 736.658 218.233 735.776L217.405 734.894C216.829 735.524 215.569 736.01 214.471 736.01ZM214.417 728.684C216.271 728.684 217.261 729.98 217.441 731.654H211.177C211.429 729.854 212.761 728.684 214.417 728.684Z" fill="#A3B3D0"/>
<path d="M266.225 551.644V550.756H260.309V559H266.225V558.112H261.257V555.244H265.733V554.356H261.257V551.644H266.225ZM271.733 559.144C272.873 559.144 273.929 558.652 274.697 557.884L274.061 557.236C273.461 557.872 272.633 558.28 271.733 558.28C269.957 558.28 268.457 556.72 268.457 554.872C268.457 553.036 269.957 551.476 271.733 551.476C272.633 551.476 273.461 551.884 274.061 552.52L274.697 551.872C273.929 551.092 272.873 550.612 271.733 550.612C269.453 550.612 267.509 552.556 267.509 554.872C267.509 557.188 269.453 559.144 271.733 559.144ZM279.713 559.144C282.005 559.144 283.925 557.188 283.925 554.872C283.925 552.556 282.005 550.612 279.713 550.612C277.433 550.612 275.489 552.556 275.489 554.872C275.489 557.188 277.433 559.144 279.713 559.144ZM279.713 558.28C277.937 558.28 276.437 556.72 276.437 554.872C276.437 553.036 277.937 551.476 279.713 551.476C281.489 551.476 282.977 553.036 282.977 554.872C282.977 556.72 281.489 558.28 279.713 558.28ZM288.349 559.132C290.269 559.132 291.253 558.064 291.253 556.756C291.253 555.304 290.125 554.74 288.553 554.368C287.149 554.032 286.333 553.732 286.333 552.88C286.333 552.124 287.077 551.452 288.097 551.452C288.961 551.452 289.777 551.848 290.461 552.508L291.037 551.776C290.281 551.08 289.369 550.6 288.145 550.6C286.561 550.6 285.385 551.632 285.385 552.952C285.385 554.38 286.429 554.896 288.085 555.28C289.525 555.616 290.305 555.964 290.305 556.84C290.305 557.584 289.657 558.28 288.385 558.28C287.233 558.28 286.381 557.788 285.685 557.092L285.097 557.824C285.925 558.64 286.993 559.132 288.349 559.132ZM295.444 559H296.428V555.64L299.74 550.756H298.612L295.936 554.752L293.284 550.756H292.12L295.444 555.64V559ZM303.759 559.132C305.679 559.132 306.663 558.064 306.663 556.756C306.663 555.304 305.535 554.74 303.963 554.368C302.559 554.032 301.743 553.732 301.743 552.88C301.743 552.124 302.487 551.452 303.507 551.452C304.371 551.452 305.187 551.848 305.871 552.508L306.447 551.776C305.691 551.08 304.779 550.6 303.555 550.6C301.971 550.6 300.795 551.632 300.795 552.952C300.795 554.38 301.839 554.896 303.495 555.28C304.935 555.616 305.715 555.964 305.715 556.84C305.715 557.584 305.067 558.28 303.795 558.28C302.643 558.28 301.791 557.788 301.095 557.092L300.507 557.824C301.335 558.64 302.403 559.132 303.759 559.132ZM310.626 559H311.562V551.644H314.334V550.756H307.854V551.644H310.626V559ZM321.737 551.644V550.756H315.821V559H321.737V558.112H316.769V555.244H321.245V554.356H316.769V551.644H321.737ZM323.524 559H324.46V552.772L327.52 558.52L330.58 552.772V559H331.516V550.756H330.58L327.52 556.504L324.46 550.756H323.524V559Z" fill="#29264C"/>
<path d="M154.253 451.654C154.823 452.642 155.777 453.31 156.826 453.591L157.069 452.717C156.219 452.515 155.451 452.002 155.001 451.222C154.113 449.684 154.714 447.605 156.315 446.681C157.905 445.763 160.006 446.282 160.894 447.82C161.344 448.6 161.404 449.521 161.154 450.359L162.033 450.585C162.324 449.53 162.212 448.376 161.642 447.388C160.502 445.414 157.846 444.702 155.841 445.86C153.835 447.018 153.113 449.68 154.253 451.654ZM158.243 458.566C159.389 460.551 162.043 461.235 164.049 460.077C166.055 458.919 166.778 456.285 165.632 454.3C164.492 452.325 161.837 451.614 159.831 452.772C157.825 453.93 157.103 456.591 158.243 458.566ZM158.992 458.134C158.104 456.596 158.705 454.517 160.305 453.593C161.895 452.675 163.996 453.194 164.884 454.732C165.772 456.27 165.165 458.338 163.575 459.256C161.975 460.18 159.88 459.672 158.992 458.134ZM161.348 463.655L161.816 464.466L167.625 461.112L164.372 468.893L164.84 469.703L171.979 465.581L171.511 464.771L165.702 468.125L168.955 460.344L168.487 459.533L161.348 463.655ZM167.057 473.544L167.525 474.354L173.896 470.676L175.282 473.077L176.051 472.633L172.811 467.021L172.042 467.465L173.428 469.866L167.057 473.544ZM177.7 480.769C179.04 479.995 179.32 478.295 178.468 476.82L176.794 473.92L169.654 478.042L170.122 478.853L172.689 477.371L173.781 479.262L172.258 482.552L172.792 483.477L174.364 480.104C175.257 481.098 176.577 481.417 177.7 480.769ZM176.493 475.175L177.615 477.118C178.287 478.282 178.182 479.396 177.226 479.948C176.269 480.5 175.252 480.034 174.58 478.87L173.458 476.927L176.493 475.175ZM173.557 484.801L174.025 485.612L181.164 481.49L180.696 480.679L173.557 484.801ZM175.065 487.413L177.027 490.811C177.741 492.048 179.061 492.463 180.204 491.803C180.984 491.353 181.352 490.503 181.294 489.442C182.04 489.871 182.692 489.993 183.451 489.555C184.49 488.955 184.76 487.718 184.094 486.565L182.204 483.291L175.065 487.413ZM179.648 485.848L181.934 484.528L183.236 486.783C183.692 487.573 183.538 488.41 182.873 488.794C182.208 489.178 181.406 488.893 180.95 488.103L179.648 485.848ZM176.27 487.798L178.91 486.274L180.284 488.654C180.794 489.537 180.603 490.478 179.834 490.922C179.065 491.366 178.154 491.061 177.644 490.178L176.27 487.798ZM180.704 497.468C181.712 499.214 183.704 499.713 185.512 498.669L189.69 496.257L189.222 495.446L185.044 497.858C183.673 498.65 182.174 498.31 181.442 497.042C180.71 495.775 181.165 494.306 182.536 493.514L186.714 491.102L186.246 490.292L182.068 492.704C180.26 493.748 179.696 495.723 180.704 497.468ZM184.723 504.142L185.191 504.953L191.562 501.275L192.948 503.675L193.717 503.231L190.477 497.619L189.708 498.063L191.094 500.464L184.723 504.142ZM188.888 511.644C190.034 513.629 192.688 514.313 194.693 513.155C196.699 511.997 197.423 509.363 196.277 507.378C195.137 505.403 192.481 504.692 190.475 505.85C188.47 507.008 187.748 509.669 188.888 511.644ZM189.636 511.212C188.748 509.674 189.349 507.595 190.949 506.671C192.54 505.753 194.641 506.272 195.529 507.81C196.417 509.348 195.81 511.416 194.219 512.334C192.619 513.258 190.524 512.75 189.636 511.212ZM199.948 519.304C201.288 518.53 201.568 516.83 200.716 515.354L199.042 512.455L191.902 516.577L192.37 517.388L194.937 515.906L196.029 517.797L194.506 521.087L195.04 522.012L196.612 518.638C197.505 519.633 198.825 519.952 199.948 519.304ZM198.741 513.71L199.863 515.653C200.535 516.817 200.43 517.931 199.474 518.483C198.517 519.035 197.5 518.569 196.828 517.405L195.706 515.462L198.741 513.71ZM197.118 525.875C198.078 527.538 199.495 527.856 200.628 527.202C201.886 526.476 201.81 525.217 201.346 523.67C200.935 522.286 200.787 521.429 201.525 521.003C202.18 520.625 203.133 520.934 203.643 521.817C204.075 522.565 204.141 523.47 203.911 524.392L204.833 524.525C205.058 523.523 205.017 522.493 204.405 521.433C203.613 520.061 202.132 519.559 200.988 520.219C199.752 520.933 199.827 522.095 200.322 523.721C200.751 525.136 200.84 525.985 200.081 526.423C199.437 526.795 198.51 526.582 197.874 525.481C197.298 524.483 197.298 523.499 197.553 522.548L196.625 522.405C196.332 523.53 196.44 524.701 197.118 525.875Z" fill="#29264C"/>
</svg>
