<svg viewBox="0 0 318 200" fill="none" xmlns="http://www.w3.org/2000/svg">
    <path d="M167.474 84.8828V89.3694C167.474 90.9915 172.863 92.2892 179.507 92.2892C186.151 92.2892 191.536 90.9915 191.536 89.3694V84.8828" fill="#4F457C"/>
    <path d="M179.507 87.4287C185.547 87.4287 190.443 86.2377 190.443 84.7686C190.443 83.2994 185.547 82.1084 179.507 82.1084C173.467 82.1084 168.571 83.2994 168.571 84.7686C168.571 86.2377 173.467 87.4287 179.507 87.4287Z" fill="#7996C9"/>
    <path d="M144.795 170.024L146.644 162.167L135.296 165.482L144.795 170.024Z" fill="#7996C9"/>
    <path d="M130.235 148.979C117.849 158.838 120.659 170.021 120.659 170.021L145.515 161.586L130.235 148.979Z" fill="#88D1C3"/>
    <path d="M183.504 148.979L168.224 161.583L193.084 170.018C193.084 170.018 195.89 158.838 183.504 148.979Z" fill="#88D1C3"/>
    <path d="M120.902 169.259C121.087 166.339 124.305 157.041 131.507 153.534L129.285 149.765C129.285 149.765 119.361 154.965 120.902 169.259Z" fill="white"/>
    <path d="M192.84 169.259C192.655 166.339 189.434 157.041 182.232 153.534L184.454 149.765C184.454 149.765 194.381 154.965 192.84 169.259Z" fill="white"/>
    <path d="M168.944 170.024L167.098 162.167L178.443 165.482L168.944 170.024Z" fill="#7996C9"/>
    <path d="M156.869 162.167C171.217 162.167 182.848 156.307 182.848 149.077C182.848 141.848 171.217 135.987 156.869 135.987C142.522 135.987 130.891 141.848 130.891 149.077C130.891 156.307 142.522 162.167 156.869 162.167Z" fill="white"/>
    <path d="M156.869 163.805C169.701 163.805 180.104 158.127 180.104 151.124C180.104 144.12 169.701 138.442 156.869 138.442C144.037 138.442 133.635 144.12 133.635 151.124C133.635 158.127 144.037 163.805 156.869 163.805Z" fill="#88D1C3"/>
    <path d="M156.869 177.593C163.14 177.593 168.224 173.862 168.224 169.259C168.224 164.656 163.14 160.925 156.869 160.925C150.599 160.925 145.515 164.656 145.515 169.259C145.515 173.862 150.599 177.593 156.869 177.593Z" fill="#4F457C"/>
    <path d="M159.127 161.071H154.612L155.598 154.388H158.141L159.127 161.071Z" fill="white"/>
    <path d="M120.659 171.157C120.405 171.158 120.159 171.075 119.959 170.919C119.759 170.764 119.617 170.546 119.556 170.3C119.436 169.813 116.717 158.297 129.528 148.091L130.942 149.869C121.622 157.288 121.33 165.45 121.58 168.509L145.148 160.509L145.878 162.66L121.022 171.095C120.905 171.135 120.782 171.156 120.659 171.157Z" fill="#4F457C"/>
    <path d="M193.084 171.156C192.959 171.156 192.835 171.136 192.717 171.098L167.86 162.663L168.59 160.512L192.172 168.515C192.467 165.472 192.204 157.359 182.796 149.872L184.211 148.094C197.022 158.29 194.307 169.829 194.183 170.303C194.145 170.455 194.076 170.598 193.98 170.721C193.884 170.845 193.763 170.948 193.625 171.023C193.458 171.111 193.272 171.157 193.084 171.156Z" fill="#4F457C"/>
    <path d="M147.559 163.134C136.467 161.067 129.301 155.672 129.301 149.411C129.301 141.246 141.411 134.852 156.876 134.852C172.341 134.852 184.451 141.246 184.451 149.411C184.451 155.575 177.427 160.947 166.556 163.062L166.125 160.834C175.728 158.965 182.18 154.375 182.18 149.411C182.18 142.748 170.592 137.122 156.876 137.122C143.16 137.122 131.572 142.748 131.572 149.411C131.572 154.456 138.164 159.072 147.974 160.902L147.559 163.134Z" fill="#4F457C"/>
    <path d="M140.879 116.139C142.709 116.165 145.859 126.826 145.771 132.889C145.677 139.419 142.083 149.512 140.393 149.486C138.203 149.454 136.041 148.991 134.031 148.123C132.02 147.256 130.2 146.001 128.674 144.43C127.148 142.859 125.947 141.003 125.139 138.968C124.33 136.933 123.931 134.759 123.963 132.569C123.995 130.38 124.458 128.218 125.325 126.207C126.192 124.197 127.447 122.377 129.018 120.851C130.589 119.325 132.445 118.124 134.48 117.316C136.515 116.507 138.69 116.108 140.879 116.139Z" fill="#88D1C3"/>
    <path d="M141.304 119.886C142.806 119.909 145.46 129.495 145.382 134.949C145.294 140.824 142.251 149.907 140.866 149.872C133.301 149.761 127.27 142.955 127.39 134.67C127.51 126.384 133.739 119.776 141.304 119.886Z" fill="#4F457C"/>
    <path d="M140.406 150.618H140.376C135.653 150.548 131.152 148.605 127.861 145.216C124.57 141.828 122.76 137.271 122.829 132.548C122.907 127.828 124.852 123.33 128.239 120.041C131.626 116.752 136.178 114.94 140.899 115.001C144.062 115.046 147.036 123.912 146.907 132.902C146.874 137.045 146.166 141.155 144.811 145.07C143.886 147.607 142.375 150.618 140.406 150.618ZM125.1 132.574C125.048 136.681 126.622 140.642 129.478 143.595C132.334 146.547 136.24 148.252 140.347 148.337C141.398 147.863 144.503 141.807 144.633 132.859C144.762 123.912 141.843 117.761 140.795 117.271C136.685 117.231 132.726 118.818 129.783 121.688C126.841 124.557 125.153 128.474 125.09 132.584L125.1 132.574Z" fill="#4F457C"/>
    <path d="M156.869 178.729C149.982 178.729 144.38 174.647 144.38 169.645C144.38 164.643 149.982 160.562 156.869 160.562C163.757 160.562 169.359 164.643 169.359 169.645C169.359 174.647 163.757 178.729 156.869 178.729ZM156.869 162.803C151.234 162.803 146.65 165.866 146.65 169.616C146.65 173.366 151.234 176.429 156.869 176.429C162.504 176.429 167.088 173.366 167.088 169.616C167.088 165.866 162.504 162.803 156.869 162.803Z" fill="#4F457C"/>
    <path d="M146.667 168.717H144.396C144.396 161.509 151.831 153.47 156.869 153.47V155.741C153.664 155.754 146.667 162.261 146.667 168.717Z" fill="#4F457C"/>
    <path d="M169.343 168.717H167.072C167.072 162.261 160.078 155.741 156.869 155.741V153.47C161.908 153.483 169.343 161.509 169.343 168.717Z" fill="#4F457C"/>
    <path d="M158.005 128.928H155.734V135.442H158.005V128.928Z" fill="#4F457C"/>
    <path d="M156.869 130.274C159.079 130.274 160.869 128.484 160.869 126.274C160.869 124.065 159.079 122.274 156.869 122.274C154.66 122.274 152.869 124.065 152.869 126.274C152.869 128.484 154.66 130.274 156.869 130.274Z" fill="#88D1C3"/>
    <path d="M156.672 172.139C147.74 172.139 139.348 169.868 134.216 166.105L135.565 164.275C140.318 167.779 148.217 169.868 156.672 169.868V172.139Z" fill="#4F457C"/>
    <path d="M157.067 172.139V169.868C165.531 169.868 173.421 167.779 178.177 164.275L179.523 166.105C174.391 169.884 165.998 172.139 157.067 172.139Z" fill="#4F457C"/>
    <path d="M142.417 163.189H140.795V169H142.417V163.189Z" fill="#4F457C"/>
    <path d="M172.947 163.189H171.325V169H172.947V163.189Z" fill="#4F457C"/>
    <path d="M149.019 177.986C149.019 183.478 152.944 189.45 156.869 192.548C160.795 189.45 164.72 183.465 164.72 177.986C164.72 175.903 163.893 173.907 162.421 172.434C160.948 170.962 158.952 170.135 156.869 170.135C154.787 170.135 152.79 170.962 151.318 172.434C149.846 173.907 149.019 175.903 149.019 177.986Z" fill="#FF8080"/>
    <path d="M156.869 155.02C166.301 155.02 173.946 151.897 173.946 148.045C173.946 144.193 166.301 141.07 156.869 141.07C147.438 141.07 139.792 144.193 139.792 148.045C139.792 151.897 147.438 155.02 156.869 155.02Z" fill="#4F457C"/>
    <path d="M163.066 148.282L161.401 146.738L173.937 133.249L173.236 126.9L175.507 126.653L176.259 133.518C176.277 133.68 176.259 133.844 176.208 133.998C176.156 134.153 176.072 134.294 175.961 134.413L163.066 148.282Z" fill="#4F457C"/>
    <path d="M175.124 136.723C176.826 136.723 178.206 135.344 178.206 133.641C178.206 131.939 176.826 130.56 175.124 130.56C173.422 130.56 172.042 131.939 172.042 133.641C172.042 135.344 173.422 136.723 175.124 136.723Z" fill="#4F457C"/>
    <path d="M171.588 128.322C169.439 128.322 167.337 127.684 165.55 126.49C163.763 125.296 162.37 123.599 161.547 121.613C160.725 119.627 160.51 117.442 160.929 115.334C161.348 113.225 162.383 111.289 163.903 109.769C165.423 108.249 167.36 107.214 169.468 106.795C171.576 106.375 173.761 106.591 175.747 107.413C177.733 108.236 179.43 109.629 180.624 111.416C181.818 113.203 182.456 115.304 182.456 117.454C182.452 120.335 181.306 123.097 179.269 125.135C177.232 127.172 174.469 128.318 171.588 128.322ZM171.588 108.857C169.888 108.857 168.226 109.361 166.812 110.306C165.398 111.25 164.296 112.593 163.646 114.164C162.995 115.735 162.825 117.463 163.156 119.131C163.488 120.799 164.307 122.33 165.509 123.533C166.711 124.735 168.243 125.554 169.911 125.885C171.578 126.217 173.307 126.047 174.878 125.396C176.449 124.746 177.791 123.644 178.736 122.23C179.681 120.816 180.185 119.154 180.185 117.454C180.182 115.174 179.276 112.989 177.664 111.378C176.052 109.766 173.867 108.859 171.588 108.857Z" fill="#4F457C"/>
    <path d="M174.764 112.425V114.459H170.53V116.331C170.773 116.102 171.058 115.924 171.37 115.808C171.682 115.691 172.014 115.639 172.347 115.653C174.504 115.653 175.335 117.294 175.335 118.897C175.335 120.986 174.112 122.342 171.916 122.342C169.719 122.342 168.399 121.109 168.318 119.4H170.589C170.637 119.689 170.791 119.949 171.022 120.129C171.253 120.309 171.543 120.396 171.835 120.373C172.717 120.373 173.097 119.724 173.097 118.881C173.097 118.037 172.649 117.508 171.822 117.508C171.564 117.486 171.308 117.556 171.097 117.705C170.886 117.854 170.735 118.073 170.67 118.323H168.431V112.425H174.764Z" fill="#88D1C3"/>
    <path d="M60.5742 54.1181L43.6561 61.492L38.1865 51.7272C43.2149 50.3841 53.0316 50.0175 60.5742 54.1181Z" fill="#88D1C3"/>
    <path d="M42.8873 58.9519L41.8492 53.4856C41.8492 53.4856 49.0965 52.2917 54.4331 54.2804L55.7664 52.0679C52.4014 51.2972 48.9637 50.8883 45.5118 50.8481C39.8962 50.7994 38.7251 52.0192 38.7251 52.0192L42.8873 58.9519Z" fill="white"/>
    <path d="M23.5199 61.544C19.4128 61.5278 13.1971 64.879 10.3325 68.1004C13.1679 71.3445 19.3544 74.7508 23.4615 74.7703C26.8224 74.7865 29.5604 71.8506 29.5766 68.1847C29.5929 64.5189 26.8808 61.5602 23.5199 61.544Z" fill="#FF8080"/>
    <path d="M90.0776 67.0905L90.0673 69.3613L95.8709 69.3877L95.8812 67.1168L90.0776 67.0905Z" fill="#4F457C"/>
    <path d="M42.6634 62.0474L37.1971 52.2826C37.1127 52.1317 37.0638 51.9635 37.0543 51.7908C37.0447 51.6182 37.0748 51.4456 37.142 51.2864C37.2093 51.1271 37.3121 50.9853 37.4425 50.8717C37.5729 50.7582 37.7275 50.676 37.8946 50.6313C43.322 49.1812 50.3423 49.3337 56.6651 51.0498L56.0714 53.2428C50.751 51.8024 44.717 51.5364 39.9157 52.4902L44.6456 60.9249L42.6634 62.0474Z" fill="#4F457C"/>
    <path d="M98.8808 71.7693C100.819 71.7693 102.391 70.1978 102.391 68.2592C102.391 66.3206 100.819 64.749 98.8808 64.749C96.9422 64.749 95.3706 66.3206 95.3706 68.2592C95.3706 70.1978 96.9422 71.7693 98.8808 71.7693Z" fill="#88D1C3"/>
    <path d="M35.9773 58.5889L43.4712 62.2288L42.9911 71.2572L35.3739 77.7713C35.3739 77.7713 33.0543 73.2685 32.7786 69.8654C32.5028 66.4623 32.9862 58.6278 35.9773 58.5889Z" fill="#88D1C3"/>
    <path d="M42.7024 64.3014L34.0113 61.5439L33.0706 65.1417L42.7024 65.9105V64.3014Z" fill="white"/>
    <path d="M36.5158 78.9519C34.5693 78.9519 31.3252 76.681 31.3252 68.1587C31.3252 59.6364 34.5921 57.3623 36.5158 57.3623C37.7908 57.3623 41.7972 59.1823 44.2011 60.4961L43.1111 62.488C40.0681 60.8238 37.0543 59.6786 36.4931 59.6332C35.9319 59.5878 33.5734 61.1514 33.5734 68.1587C33.5734 75.166 35.9189 76.681 36.4931 76.681C37.0673 76.681 40.0616 75.4904 43.0884 73.8262L44.1784 75.8181C41.7972 77.132 37.7908 78.9519 36.5158 78.9519Z" fill="#4F457C"/>
    <path d="M90.0665 68.1618C79.8216 87.5908 51.9676 82.8609 43.6561 74.8349V61.4918C51.9676 53.4626 79.8216 48.7424 90.0665 68.1618Z" fill="#7996C9"/>
    <path d="M89.262 67.8896C86.7964 70.0308 65.4144 75.7631 43.1955 68.1622V77.1549C43.1955 77.1549 53.1322 81.8037 66.6375 81.8037C80.1428 81.8037 85.2068 73.9659 89.262 67.8896Z" fill="#6181BA"/>
    <path d="M88.8208 68.2335C85.4047 64.665 79.8118 59.1013 66.8613 59.1013C53.9108 59.1013 48.5385 61.6382 44.0454 64.2757V60.7071C44.0454 60.7071 52.3471 55.4062 66.0665 55.4062C79.7859 55.4062 87.8929 63.549 88.8208 68.2335Z" fill="white"/>
    <path d="M65.6026 69.1646C72.9324 69.1646 78.8743 66.6824 78.8743 63.6204C78.8743 60.5584 72.9324 58.0762 65.6026 58.0762C58.2728 58.0762 52.3309 60.5584 52.3309 63.6204C52.3309 66.6824 58.2728 69.1646 65.6026 69.1646Z" fill="#4F457C"/>
    <path d="M65.1679 82.9393C55.8183 82.9393 46.9651 79.6108 42.8678 75.6497C42.7056 75.4956 42.5927 75.2969 42.5434 75.0788C42.0598 72.8037 41.7937 70.4878 41.7486 68.1623C41.7148 65.8075 41.9885 63.4584 42.5628 61.1745C42.6181 60.9854 42.7222 60.8142 42.8646 60.6781C47.8183 55.8963 59.6918 52.0325 71.0203 53.8525C77.3885 54.8744 86.0308 58.0925 91.0689 67.6432C91.1553 67.8067 91.2004 67.9888 91.2004 68.1736C91.2004 68.3585 91.1553 68.5406 91.0689 68.7041C86.0308 78.2548 77.3852 81.4729 71.0203 82.4916C69.0843 82.7951 67.1274 82.9448 65.1679 82.9393ZM44.6942 74.2515C49.3885 78.5338 60.2336 81.9109 70.6472 80.2402C76.3796 79.3221 84.12 76.477 88.7591 68.1623C84.12 59.8508 76.3796 57.0058 70.6472 56.0877C60.2044 54.4137 49.3398 57.8038 44.6553 62.0958C44.2094 64.0868 43.9917 66.122 44.0065 68.1623C44.0527 70.2085 44.2828 72.2465 44.6942 74.2515Z" fill="#4F457C"/>
    <path d="M43.03 70.7832C43.03 70.7832 54.3001 76.6226 72.9505 73.8943C61.4631 86.3939 38.0406 85.8456 32.1168 83.2698L43.03 70.7832Z" fill="#88D1C3"/>
    <path d="M67.4452 78.4456C58.7478 82.4002 45.2425 83.7563 38.0535 81.427L44.0454 71.7822H42.7023L32.4412 82.8998C32.4412 82.8998 52.1719 90.3223 67.4452 78.4456Z" fill="white"/>
    <path d="M44.6423 86.2121C38.9716 86.2121 34.1249 85.3784 31.6658 84.3111C31.5022 84.2398 31.3577 84.131 31.244 83.9934C31.1303 83.8559 31.0506 83.6935 31.0114 83.5193C30.9722 83.3452 30.9746 83.1643 31.0184 82.9913C31.0623 82.8183 31.1462 82.6581 31.2636 82.5236L42.1736 70.037C42.3357 69.8494 42.5551 69.7205 42.7979 69.6701C43.0406 69.6197 43.2932 69.6505 43.5166 69.758C43.6269 69.8099 54.871 75.0297 72.8791 73.852C73.1053 73.8377 73.3305 73.8913 73.5259 74.006C73.7213 74.1207 73.8779 74.2912 73.9756 74.4957C74.0733 74.7001 74.1076 74.9291 74.074 75.1532C74.0405 75.3773 73.9407 75.5862 73.7875 75.7531C67.2766 82.835 57.5669 85.187 50.5628 85.9104C48.5957 86.1114 46.6197 86.2121 44.6423 86.2121ZM34.0827 82.7539C41.1549 84.7685 59.3641 85.1546 69.9692 76.2657C55.5815 76.6939 46.073 73.2876 43.3382 72.1586L34.0827 82.7539Z" fill="#4F457C"/>
    <path d="M61.6383 36.2365C68.9051 38.981 58.9684 65.2908 51.7048 62.5463C49.9773 61.8941 48.3951 60.9079 47.0487 59.6442C45.7023 58.3806 44.6179 56.864 43.8576 55.1813C43.0972 53.4985 42.6758 51.6825 42.6173 49.8369C42.5588 47.9912 42.8644 46.1522 43.5166 44.4246C44.1689 42.6971 45.155 41.115 46.4187 39.7685C47.6824 38.4221 49.1989 37.3378 50.8816 36.5774C52.5644 35.8171 54.3804 35.3956 56.226 35.3371C58.0717 35.2786 59.9108 35.5842 61.6383 36.2365Z" fill="#88D1C3"/>
    <path d="M59.588 39.6693C65.7972 42.0148 57.3171 64.4966 51.0981 62.1511C48.1169 61.0253 45.705 58.7612 44.393 55.8571C43.081 52.9529 42.9764 49.6466 44.1022 46.6653C45.228 43.684 47.492 41.2721 50.3962 39.9601C53.3003 38.6481 56.6067 38.5435 59.588 39.6693Z" fill="#4F457C"/>
    <path d="M52.7981 63.8869C52.2859 63.8868 51.778 63.7933 51.2993 63.6111C47.5802 62.1498 44.5862 59.2826 42.9654 55.6302C41.3446 51.9778 41.2274 47.834 42.6391 44.0958C44.0507 40.3576 46.8778 37.3257 50.5083 35.6564C54.1388 33.9871 58.2806 33.8147 62.0373 35.1764C66.5369 36.8764 65.8524 44.7758 63.1792 51.8512C60.8013 58.1448 56.8143 63.8869 52.7981 63.8869ZM56.691 36.4676C53.6654 36.4665 50.7352 37.5267 48.4108 39.4635C46.0863 41.4003 44.5148 44.091 43.9699 47.0671C43.425 50.0433 43.9412 53.1163 45.4287 55.751C46.9161 58.3857 49.2806 60.4153 52.1103 61.4862C52.9765 61.8107 54.0049 61.4862 55.1695 60.5422C59.6561 56.8699 63.854 45.749 62.9165 40.0296C62.6732 38.5471 62.1119 37.629 61.2457 37.3013C59.7875 36.7484 58.2408 36.4659 56.6813 36.4676H56.691Z" fill="#4F457C"/>
    <path d="M40.3244 72.1006C38.0535 73.9303 34.5726 74.8094 34.1606 73.2717C33.7486 71.734 34.0892 77.7389 35.4809 78.1801C36.8727 78.6213 40.3244 72.1006 40.3244 72.1006Z" fill="#4F457C"/>
    <path d="M67.3415 64.5191L65.6545 63.0008L78.2384 49.0154L78.0178 41.1127L80.2887 41.0479L80.5256 49.4079C80.5325 49.6993 80.4281 49.9824 80.2336 50.1995L67.3415 64.5191Z" fill="#4F457C"/>
    <path d="M79.3868 52.5222C81.0889 52.5222 82.4688 51.1424 82.4688 49.4403C82.4688 47.7382 81.0889 46.3584 79.3868 46.3584C77.6847 46.3584 76.3049 47.7382 76.3049 49.4403C76.3049 51.1424 77.6847 52.5222 79.3868 52.5222Z" fill="#4F457C"/>
    <path d="M79.0008 42.8225C76.851 42.8238 74.749 42.1874 72.9609 40.9939C71.1728 39.8004 69.7788 38.1033 68.9553 36.1174C68.1319 34.1315 67.9159 31.946 68.3348 29.8373C68.7537 27.7286 69.7885 25.7916 71.3085 24.2712C72.8284 22.7508 74.7652 21.7153 76.8737 21.2958C78.9823 20.8763 81.1679 21.0916 83.154 21.9145C85.1402 22.7374 86.8376 24.1308 88.0317 25.9186C89.2258 27.7063 89.8628 29.8081 89.8621 31.958C89.8578 34.8375 88.7123 37.598 86.6764 39.6345C84.6405 41.671 81.8804 42.8174 79.0008 42.8225ZM79.0008 23.3578C77.3004 23.3565 75.6377 23.8595 74.2232 24.8033C72.8087 25.747 71.7058 27.089 71.054 28.6596C70.4022 30.2301 70.2309 31.9587 70.5616 33.6267C70.8923 35.2947 71.7102 36.8271 72.912 38.0302C74.1137 39.2333 75.6452 40.053 77.3128 40.3856C78.9804 40.7182 80.7092 40.5488 82.2805 39.8988C83.8518 39.2488 85.1951 38.1474 86.1404 36.7339C87.0857 35.3205 87.5906 33.6584 87.5912 31.958C87.5895 29.6793 86.6842 27.4943 85.0739 25.8821C83.4635 24.2699 81.2795 23.3621 79.0008 23.3578Z" fill="#4F457C"/>
    <path d="M82.3033 26.9551V28.6777L78.897 36.8464H76.5256L79.9708 28.9372H75.7534V26.9551H82.3033Z" fill="#88D1C3"/>
    <path d="M67.1533 153.025C69.5474 151.328 71.4939 149.521 71.5523 150.858C71.6107 152.194 71.5523 164.178 71.5523 164.178C71.5523 164.178 84.9213 160.253 89.8199 153.606C94.7186 146.958 96.3536 143.507 96.8045 140.577C97.2555 137.648 98.2384 137.064 99.7632 135.653C101.288 134.241 107.873 127.257 107.718 121.904C107.562 116.551 104.055 111.38 97.3528 111.273C90.6504 111.166 78.5369 111.302 72.5223 116.464C66.5077 121.625 65.8913 121.005 63.0625 121.33C60.2336 121.654 52.5061 124.438 49.5572 129.044C46.6083 133.651 50.1346 132.055 50.1346 132.055L58.1054 133.547L67.1533 153.025Z" fill="#88D1C3"/>
    <path d="M98.1281 145.561C98.1281 145.561 96.1655 146.187 96.2433 144.542C96.3212 142.897 97.0608 138.703 99.588 136.017C102.115 133.33 106.479 128.192 107.092 125.227C107.705 122.261 108.59 121.434 109.246 123.355C109.901 125.275 113.7 135.575 98.1281 145.561Z" fill="#7996C9"/>
    <path d="M105.93 117.726C102.42 110.19 89.9919 108.538 78.1736 114.044C68.8013 118.41 62.9067 125.872 62.2255 133.486L62.7218 134.024C62.7974 134 62.876 133.985 62.9554 133.982C63.1695 133.982 63.3901 133.943 63.6042 133.927C63.7558 133.795 63.9444 133.713 64.1442 133.693C64.344 133.673 64.5452 133.715 64.7202 133.813C65.8913 133.677 67.0787 133.489 68.1946 133.285C69.0251 133.132 69.8427 132.915 70.5207 133.57C71.455 134.472 71.2441 136.454 71.2084 137.599C71.1533 139.354 71.1111 141.168 70.9392 142.923L71.8897 143.951C77.2944 145.317 84.0389 144.525 90.8808 141.34C102.702 135.834 109.44 125.265 105.93 117.726Z" fill="white"/>
    <path d="M95.4517 139.666C94.9943 142.884 87.2571 154.699 71.562 160.104L71.5426 164.169C71.5426 164.169 82.3812 160.5 86.5953 156.513C90.8094 152.526 96.6521 143.264 96.7948 140.568C96.9375 137.872 95.4517 139.666 95.4517 139.666Z" fill="white"/>
    <path d="M106.53 127.692L109.067 131.585C109.067 131.585 110.485 127.877 110.057 126.093C109.629 124.309 108.11 122.291 107.581 123.462C107.053 124.633 106.53 127.692 106.53 127.692Z" fill="white"/>
    <path d="M61.8719 132.726C62.5045 125.69 67.9481 118.802 76.6034 114.773C87.5199 109.69 98.9878 111.205 102.232 118.167C105.476 125.128 99.2701 134.887 88.3374 139.97C82.0146 142.913 75.7859 143.643 70.7997 142.384" fill="#88D1C3"/>
    <path d="M61.3139 138.199C64.0973 136.85 68.4769 135.571 70.8516 135.026L71.2149 137.622L63.3674 142.42L61.3139 138.199Z" fill="white"/>
    <path d="M88.8075 134.895C96.5692 130.682 100.812 123.491 98.2839 118.833C95.7559 114.175 87.4144 113.814 79.6527 118.027C71.8909 122.239 67.6482 129.43 70.1762 134.088C72.7042 138.746 81.0457 139.107 88.8075 134.895Z" fill="#4F457C"/>
    <path d="M50.1346 132.035C52.0227 129.19 57.8783 124.279 66.0308 122.871L67.1565 120.697C67.1565 120.697 58.1671 121.33 52.9343 125.807C47.7015 130.284 47.2766 131.974 50.1346 132.035Z" fill="white"/>
    <path d="M77.2782 145.681C75.3914 145.69 73.5104 145.472 71.6756 145.032L72.2174 142.826C77.6188 144.153 84.1752 143.215 90.6861 140.182C102.079 134.878 108.714 124.902 105.473 117.943C102.232 110.985 90.326 109.638 78.9327 114.946C70.0276 119.092 64.0584 126.239 63.3609 133.596L61.09 133.382C61.8719 125.226 68.3374 117.372 77.9594 112.886C83.9448 110.099 90.2871 108.947 95.7794 109.642C101.479 110.362 105.648 112.967 107.513 116.98C109.379 120.993 108.697 125.859 105.567 130.686C102.556 135.348 97.5993 139.445 91.6172 142.239C86.764 144.513 81.8232 145.681 77.2782 145.681Z" fill="#4F457C"/>
    <path d="M95.3771 147.653L94.3617 145.622C99.6918 142.959 104.052 139.192 106.641 135.017C109.135 130.985 109.697 127.014 108.214 123.835L105.47 117.94L107.526 116.967L110.274 122.861C113.946 130.761 107.403 141.645 95.3771 147.653Z" fill="#4F457C"/>
    <path d="M61.5247 113.317C60.8136 115.088 60.4584 116.982 60.4794 118.89C60.5003 120.798 60.8971 122.684 61.6469 124.438C62.3968 126.193 63.485 127.783 64.8495 129.117C66.2141 130.452 67.8281 131.504 69.5994 132.214C73.7129 133.865 79.5977 129.035 82.5239 121.742C85.4501 114.449 84.5353 106.89 80.4217 105.239C76.8446 103.805 72.8443 103.85 69.3006 105.365C65.7568 106.88 62.9598 109.74 61.5247 113.317Z" fill="#88D1C3"/>
    <path d="M61.9789 115.873C60.7061 119.039 60.743 122.581 62.0815 125.719C63.4199 128.858 65.9503 131.336 69.116 132.609C72.7591 134.073 77.9692 129.794 80.5613 123.335C83.1533 116.875 82.3423 110.18 78.7024 108.72C75.5359 107.454 71.9964 107.496 68.8609 108.837C65.7255 110.178 63.2504 112.709 61.9789 115.873Z" fill="#4F457C"/>
    <path d="M71.6691 134.388C70.9192 134.392 70.1755 134.251 69.4793 133.973C67.4221 133.24 65.534 132.099 63.9283 130.619C62.3225 129.139 61.0322 127.35 60.1345 125.359C59.2369 123.369 58.7506 121.217 58.7046 119.034C58.6586 116.85 59.054 114.68 59.867 112.654C60.68 110.627 61.8939 108.785 63.4359 107.239C64.9779 105.692 66.8163 104.473 68.8408 103.655C70.8654 102.836 73.0344 102.435 75.2178 102.474C77.4013 102.514 79.5542 102.995 81.5474 103.887C86.4136 105.833 87.6853 114.184 84.3569 122.479C81.5085 129.583 76.1979 134.388 71.6691 134.388ZM75.5101 104.983C72.7269 104.989 70.0087 105.825 67.7042 107.386C65.3997 108.946 63.6139 111.16 62.5758 113.742C61.2019 117.174 61.246 121.01 62.6986 124.409C64.1511 127.808 66.8932 130.492 70.3228 131.87C73.914 133.308 79.4874 128.526 82.2514 121.635C85.0154 114.745 84.292 107.436 80.704 105.995C79.0529 105.33 77.2901 104.987 75.5101 104.983Z" fill="#4F457C"/>
    <path d="M60.3017 135.575L47.0008 133.401C46.8162 133.371 46.642 133.296 46.4936 133.182C46.3452 133.068 46.2272 132.919 46.1502 132.749C46.0731 132.578 46.0394 132.391 46.0519 132.205C46.0645 132.018 46.123 131.837 46.2222 131.679C49.2393 126.851 54.8159 120.324 68.3439 119.478L68.4866 121.748C57.3204 122.456 52.0584 127.286 49.103 131.448L60.665 133.333L60.3017 135.575Z" fill="#4F457C"/>
    <path d="M64.5531 154.28C67.1209 153.084 67.384 148.21 65.1407 143.392C62.8974 138.575 58.9971 135.639 56.4293 136.835C53.8614 138.031 53.5983 142.905 55.8416 147.723C58.0849 152.54 61.9852 155.476 64.5531 154.28Z" fill="#4F457C"/>
    <path d="M63.3285 155.682C60.3893 155.682 56.9278 152.763 54.8062 148.205C53.6448 145.707 53.0706 143.098 53.1841 140.86C53.3204 138.365 54.2968 136.571 55.9384 135.806C59.1208 134.323 63.6107 137.444 66.1573 142.917C68.704 148.386 68.2044 153.83 65.0219 155.313C64.4914 155.559 63.9133 155.685 63.3285 155.682ZM57.661 137.707C57.3993 137.703 57.14 137.757 56.9019 137.866C56.0714 138.252 55.5458 139.387 55.4582 140.983C55.3577 142.855 55.8573 145.081 56.8662 147.244C58.9781 151.786 62.3585 154.057 64.0681 153.256C65.7778 152.454 66.2157 148.409 64.107 143.874C62.2871 139.939 59.4874 137.707 57.661 137.707Z" fill="#4F457C"/>
    <path d="M71.5426 165.314C71.293 165.314 71.0503 165.232 70.8516 165.081C70.7126 164.974 70.6002 164.837 70.523 164.68C70.4459 164.523 70.4063 164.35 70.4071 164.175L70.5077 143.948C70.4331 140.14 70.4688 135.819 70.4915 133.869C66.5986 133.619 60.957 134.56 56.5742 138.086L55.1501 136.299C60.4834 132.036 67.442 131.157 71.7859 131.712C72.0631 131.747 72.3174 131.884 72.5004 132.095C72.6835 132.306 72.7825 132.577 72.7786 132.857C72.7786 132.915 72.678 138.845 72.7786 143.887C72.7803 143.905 72.7803 143.924 72.7786 143.942L72.6845 162.67C78.8938 160.724 84.6067 157.291 88.9051 152.938C93.5442 148.214 95.9903 142.881 95.7924 137.957L98.0633 137.862C98.5142 149.097 87.0008 161.149 71.8475 165.301C71.7469 165.319 71.6444 165.323 71.5426 165.314Z" fill="#4F457C"/>
    <path d="M64.9538 155.345L64.1428 153.223C66.6511 152.246 68.8845 150.674 70.6505 148.643L72.438 150.044C70.424 152.407 67.8513 154.229 64.9538 155.345Z" fill="#4F457C"/>
    <path d="M112.538 115.415L106.612 118.175L107.571 120.233L113.497 117.474L112.538 115.415Z" fill="#4F457C"/>
    <path d="M107.083 126.647L105.612 127.33L108.33 133.186L109.801 132.503L107.083 126.647Z" fill="#4F457C"/>
    <path d="M104.544 130.278L103.073 130.961L105.791 136.817L107.263 136.134L104.544 130.278Z" fill="#4F457C"/>
    <path d="M102.012 133.905L100.54 134.588L103.259 140.444L104.73 139.761L102.012 133.905Z" fill="#4F457C"/>
    <path d="M99.1513 136.832L97.68 137.515L100.35 143.267L101.822 142.584L99.1513 136.832Z" fill="#4F457C"/>
    <path d="M115.144 119.199C117.195 119.199 118.858 117.536 118.858 115.484C118.858 113.433 117.195 111.77 115.144 111.77C113.092 111.77 111.429 113.433 111.429 115.484C111.429 117.536 113.092 119.199 115.144 119.199Z" fill="#88D1C3"/>
    <path d="M49.6837 142.715C44.9895 145.427 41.82 151.73 41.1095 156.616C45.6967 158.443 52.7397 158.851 57.4339 156.139C59.2141 155.112 60.513 153.419 61.0451 151.433C61.5771 149.448 61.2986 147.332 60.2709 145.552C59.2432 143.772 57.5503 142.473 55.5649 141.941C53.5794 141.409 51.4639 141.687 49.6837 142.715Z" fill="#FF8080"/>
    <path d="M70.5726 144.594C70.5142 146.722 67.2895 148.85 67.2895 148.85C67.2895 148.85 66.0146 152.801 66.9651 152.665C67.9157 152.529 71.2896 149.632 71.2896 149.632L70.5726 144.594Z" fill="#4F457C"/>
    <path d="M90.8581 121.369L89.1711 119.851L101.755 105.869L101.541 98.573L103.812 98.5049L104.045 106.255C104.055 106.547 103.952 106.832 103.757 107.05L90.8581 121.369Z" fill="#4F457C"/>
    <path d="M102.903 109.372C104.606 109.372 105.985 107.992 105.985 106.29C105.985 104.588 104.606 103.208 102.903 103.208C101.201 103.208 99.8216 104.588 99.8216 106.29C99.8216 107.992 101.201 109.372 102.903 109.372Z" fill="#4F457C"/>
    <path d="M102.514 99.676C100.365 99.676 98.2636 99.0387 96.4764 97.8445C94.6892 96.6503 93.2962 94.953 92.4737 92.9672C91.6511 90.9813 91.4359 88.7962 91.8552 86.688C92.2746 84.5799 93.3096 82.6434 94.8295 81.1235C96.3494 79.6037 98.2858 78.5686 100.394 78.1493C102.502 77.7299 104.687 77.9451 106.673 78.7677C108.659 79.5903 110.356 80.9832 111.55 82.7704C112.745 84.5576 113.382 86.6588 113.382 88.8082C113.379 91.6895 112.232 94.4518 110.195 96.4891C108.158 98.5265 105.395 99.6726 102.514 99.676ZM102.514 80.2113C100.814 80.2113 99.1518 80.7155 97.738 81.6602C96.3242 82.6048 95.2224 83.9475 94.5717 85.5183C93.921 87.0892 93.7507 88.8178 94.0825 90.4854C94.4142 92.1531 95.2329 93.6849 96.4353 94.8872C97.6376 96.0895 99.1694 96.9083 100.837 97.24C102.505 97.5717 104.233 97.4014 105.804 96.7508C107.375 96.1001 108.718 94.9982 109.662 93.5844C110.607 92.1707 111.111 90.5085 111.111 88.8082C111.109 86.529 110.202 84.3438 108.59 82.7321C106.979 81.1205 104.793 80.2139 102.514 80.2113Z" fill="#4F457C"/>
    <path d="M102.602 83.5625C104.694 83.5625 105.82 84.7563 105.82 86.2486C105.843 86.7307 105.711 87.2075 105.442 87.6084C105.173 88.0093 104.783 88.3129 104.328 88.4741V88.5293C105.317 88.8537 105.995 89.6128 105.995 90.9169C105.995 92.5844 104.801 93.7782 102.725 93.7782C100.649 93.7782 99.1565 92.805 99.1014 90.5633H101.356C101.356 91.3387 101.791 91.861 102.654 91.861C102.803 91.8732 102.952 91.8529 103.093 91.8015C103.233 91.7501 103.361 91.6688 103.466 91.5633C103.572 91.4578 103.654 91.3306 103.706 91.1904C103.757 91.0502 103.778 90.9004 103.766 90.7515C103.766 89.8691 103.238 89.5155 102.031 89.5155H101.596V87.6306H102.031C102.816 87.6306 103.575 87.4392 103.575 86.5438C103.589 86.4062 103.573 86.2671 103.528 86.1365C103.482 86.0059 103.408 85.887 103.311 85.7884C103.214 85.6898 103.096 85.6139 102.966 85.5661C102.836 85.5184 102.697 85.5 102.56 85.5122C101.813 85.5122 101.541 86.054 101.502 86.599H99.2311C99.3058 84.6331 100.568 83.5625 102.602 83.5625Z" fill="#88D1C3"/>
    <path d="M237.684 117.966C249.444 118.313 256.542 125.817 259.899 131.361L251.157 132.658L245.557 130.358L237.684 117.966Z" fill="#88D1C3"/>
    <path d="M256.967 131.088C255.121 128.217 249.375 122.877 241.252 121.356L239.705 118.734C239.705 118.734 249.084 120.243 254.251 124.807C259.419 129.372 259.825 131.062 256.967 131.088Z" fill="white"/>
    <path d="M200.045 117.323C197.054 126.134 202.543 137.161 214.501 142.787C221.963 146.3 229.492 147.254 235.264 145.628C236.324 133.486 245.547 130.894 245.547 130.894C244.931 123.244 238.336 117.113 228.899 112.571C216.996 106.829 204.977 109.515 200.026 117.388" fill="#7996C9"/>
    <path d="M238.934 129.829C240.54 125.78 235.012 119.788 226.587 116.446C218.162 113.103 210.03 113.676 208.423 117.724C206.817 121.773 212.345 127.764 220.77 131.107C229.196 134.45 237.328 133.877 238.934 129.829Z" fill="#4F457C"/>
    <path d="M200.691 117.353C202.271 124.421 213.567 138.17 236 138.439L235.273 145.625C235.273 145.625 222.329 147.601 208.409 139.052C194.488 130.504 200.691 117.353 200.691 117.353Z" fill="#6181BA"/>
    <path d="M200.85 117.966C208.72 109.489 232.094 113.041 243.452 130.446C243.452 130.446 245.544 130.897 245.233 129.288C244.921 127.679 239.559 116.759 226.741 111.588C213.924 106.417 203.439 112.727 200.85 117.966Z" fill="white"/>
    <path d="M244.483 131.267C241.836 123.669 237.132 118.699 228.756 114.66C223.199 111.978 217.311 110.868 212.175 111.53C207.17 112.179 203.195 114.45 200.98 117.986L199.056 116.789C204.363 108.354 217.268 106.609 229.742 112.626C238.595 116.896 243.802 122.42 246.631 130.534L244.483 131.267Z" fill="#4F457C"/>
    <path d="M230.774 147.666C225.444 147.666 219.322 146.31 214.018 143.815C208.133 141.048 203.393 136.778 200.672 131.795C197.989 126.89 197.385 121.622 198.968 116.96L201.119 117.69C198.199 126.316 204.152 136.665 214.985 141.761C222.028 145.073 230.881 146.277 236.526 144.681L237.142 146.867C235.065 147.42 232.923 147.688 230.774 147.666Z" fill="#4F457C"/>
    <path d="M245.093 131.039C242.345 130.952 239.066 133.502 237.145 137.482C235.225 141.463 235.27 145.622 237.051 147.717C239.05 149.93 241.455 151.737 244.136 153.041L254.754 135.013C249.963 131.088 246.008 131.088 245.093 131.039Z" fill="#88D1C3"/>
    <path d="M241.324 133.035C243.958 133.002 248.785 134.748 248.785 134.748L245.255 138.624L239.513 135.205L241.324 133.035Z" fill="white"/>
    <path d="M252.882 116.483C252.613 120.328 250.827 123.909 247.918 126.437C245.009 128.966 241.214 130.235 237.369 129.966C232.951 129.657 229.762 122.741 230.31 114.903C230.858 107.065 234.981 100.661 239.393 100.973C241.298 101.105 243.157 101.611 244.866 102.462C246.575 103.313 248.099 104.493 249.352 105.933C250.604 107.373 251.561 109.046 252.167 110.857C252.773 112.667 253.016 114.579 252.882 116.483Z" fill="#88D1C3"/>
    <path d="M251.358 118.586C251.119 121.991 249.538 125.162 246.961 127.402C244.385 129.641 241.024 130.765 237.619 130.527C233.703 130.252 230.881 124.127 231.367 117.188C231.854 110.248 235.5 104.574 239.416 104.86C242.819 105.099 245.988 106.678 248.227 109.252C250.466 111.825 251.592 115.183 251.358 118.586Z" fill="#4F457C"/>
    <path d="M237.869 131.643C237.486 131.643 237.1 131.627 236.714 131.601C231.471 131.234 227.715 123.682 228.337 114.767C228.96 105.852 233.739 98.8873 238.978 99.2636C243.265 99.567 247.256 101.559 250.076 104.803C252.895 108.047 254.312 112.277 254.015 116.564C253.726 120.653 251.901 124.48 248.905 127.277C245.91 130.075 241.967 131.634 237.869 131.643ZM238.576 101.518C234.803 101.518 231.114 107.682 230.602 114.923C230.086 122.333 233.015 129.064 236.873 129.337C240.559 129.59 244.194 128.371 246.982 125.946C249.77 123.522 251.483 120.091 251.744 116.406C251.995 112.722 250.776 109.089 248.353 106.302C245.931 103.516 242.502 101.804 238.819 101.541L238.576 101.518Z" fill="#4F457C"/>
    <path d="M251.322 133.79L250.998 131.545L257.995 130.498C255.095 126.329 248.649 119.422 237.661 119.101L237.729 116.83C251.241 117.229 258.42 126.712 260.882 130.78C260.979 130.94 261.034 131.122 261.044 131.309C261.054 131.495 261.017 131.682 260.937 131.851C260.858 132.02 260.738 132.167 260.588 132.279C260.438 132.391 260.263 132.465 260.078 132.493L251.322 133.79Z" fill="#4F457C"/>
    <path d="M254.839 146.615C257.367 141.374 256.99 135.954 253.996 134.51C251.003 133.066 246.526 136.145 243.998 141.386C241.47 146.628 241.847 152.047 244.841 153.491C247.834 154.935 252.31 151.857 254.839 146.615Z" fill="#4F457C"/>
    <path d="M246.449 154.991C245.724 154.997 245.008 154.837 244.354 154.524C242.524 153.642 241.411 151.663 241.223 148.951C241.038 146.472 241.687 143.614 242.985 140.902C244.282 138.193 246.141 135.926 248.175 134.518C250.414 132.977 252.655 132.617 254.485 133.499C256.315 134.382 257.427 136.36 257.616 139.069C257.787 141.551 257.165 144.409 255.857 147.118C253.541 151.939 249.736 154.991 246.449 154.991ZM245.028 141.892C243.89 144.25 243.341 146.703 243.487 148.795C243.562 149.872 243.903 151.786 245.34 152.477C247.724 153.629 251.607 150.722 253.82 146.132C254.959 143.773 255.507 141.321 255.361 139.228C255.286 138.148 254.946 136.237 253.509 135.543C252.071 134.849 250.365 135.773 249.473 136.386C247.744 137.577 246.167 139.53 245.028 141.901V141.892Z" fill="#4F457C"/>
    <path d="M243.633 154.064C240.806 152.692 238.272 150.783 236.172 148.445C234.044 145.94 234.021 141.334 236.114 136.99C238.174 132.727 241.703 129.901 244.947 129.901H245.122H245.275C248.805 130.057 252.234 131.478 255.468 134.119L254.031 135.877C251.186 133.545 248.191 132.308 245.178 132.166H245.028C242.702 132.098 239.818 134.531 238.161 137.966C236.503 141.402 236.396 145.191 237.911 146.975C239.811 149.063 242.09 150.771 244.626 152.01L243.633 154.064Z" fill="#4F457C"/>
    <path d="M194.792 113.596L193.806 115.642L199.694 118.482L200.68 116.436L194.792 113.596Z" fill="#4F457C"/>
    <path d="M192.191 117.35C194.243 117.35 195.906 115.687 195.906 113.635C195.906 111.584 194.243 109.921 192.191 109.921C190.14 109.921 188.477 111.584 188.477 113.635C188.477 115.687 190.14 117.35 192.191 117.35Z" fill="#88D1C3"/>
    <path d="M234.994 144.558L230.981 161.194C216.869 157.116 208.84 150.517 209.171 133.038C209.171 133.038 219.465 142.67 234.994 144.558Z" fill="#88D1C3"/>
    <path d="M263.098 141.934C268.198 144.97 271.572 151.919 272.276 157.278C267.231 159.209 259.513 159.549 254.414 156.513C252.48 155.361 251.084 153.489 250.531 151.307C249.978 149.126 250.315 146.814 251.466 144.881C252.618 142.948 254.49 141.551 256.672 140.998C258.853 140.446 261.165 140.782 263.098 141.934Z" fill="#FF8080"/>
    <path d="M210.91 135.556C211.322 138.78 211.27 151.916 230.92 157.973L230.981 161.194C230.981 161.194 225.08 158.158 220.175 155.059C209.165 148.104 209.311 138.407 209.22 135.708C209.129 133.009 210.91 135.556 210.91 135.556Z" fill="white"/>
    <path d="M230.981 162.329C230.872 162.329 230.762 162.314 230.657 162.284C215.41 157.881 206.949 146.916 208.029 132.95C208.046 132.737 208.123 132.533 208.25 132.362C208.378 132.19 208.551 132.058 208.751 131.981C208.95 131.904 209.167 131.884 209.377 131.925C209.587 131.966 209.781 132.065 209.937 132.211C210.037 132.305 220.165 141.618 235.121 143.429C235.28 143.448 235.434 143.5 235.572 143.583C235.71 143.665 235.828 143.776 235.92 143.908C236.012 144.04 236.075 144.189 236.105 144.347C236.135 144.505 236.131 144.667 236.094 144.824L232.088 161.46C232.051 161.608 231.985 161.748 231.893 161.871C231.801 161.994 231.685 162.097 231.552 162.173C231.38 162.276 231.182 162.33 230.981 162.329ZM210.219 135.403C210.219 146.939 217.375 155.701 230.164 159.766L233.599 145.521C222.144 143.799 213.742 138.151 210.219 135.393V135.403Z" fill="#4F457C"/>
    <path d="M218.771 121.671L216.552 121.2L219.951 105.174L215.844 99.1726L217.719 97.875L222.099 104.279C222.186 104.406 222.247 104.549 222.277 104.7C222.307 104.852 222.306 105.007 222.274 105.158L218.771 121.671Z" fill="#4F457C"/>
    <path d="M221.161 108.016C222.863 108.016 224.243 106.637 224.243 104.934C224.243 103.232 222.863 101.853 221.161 101.853C219.459 101.853 218.079 103.232 218.079 104.934C218.079 106.637 219.459 108.016 221.161 108.016Z" fill="#4F457C"/>
    <path d="M211.711 101.106C210.851 101.105 209.995 101.004 209.158 100.804C207.42 100.388 205.812 99.5492 204.476 98.3627C203.139 97.1762 202.116 95.6784 201.497 94.0021C200.878 92.3257 200.681 90.5225 200.925 88.7522C201.169 86.9818 201.846 85.2989 202.896 83.8526C203.945 82.4063 205.335 81.2411 206.943 80.4603C208.55 79.6795 210.326 79.3072 212.111 79.3763C213.897 79.4454 215.638 79.9538 217.181 80.8565C218.723 81.7592 220.019 83.0283 220.954 84.5514C221.96 86.1972 222.51 88.0809 222.547 90.0093C222.585 91.9378 222.109 93.8416 221.169 95.5255C220.228 97.2094 218.856 98.6128 217.194 99.5917C215.532 100.571 213.64 101.09 211.711 101.096V101.106ZM211.676 81.6414C209.475 81.6405 207.357 82.4804 205.755 83.9892C204.154 85.498 203.189 87.5618 203.058 89.7584C202.927 91.9551 203.641 94.1187 205.053 95.8068C206.464 97.4948 208.468 98.5798 210.653 98.8397C212.838 99.0997 215.04 98.515 216.808 97.2053C218.576 95.8956 219.778 93.9598 220.166 91.7938C220.554 89.6278 220.101 87.3952 218.897 85.5527C217.694 83.7102 215.833 82.3969 213.693 81.8815C213.033 81.7193 212.356 81.6365 211.676 81.6349V81.6414Z" fill="#4F457C"/>
    <path d="M210.848 87.3771H209.505V85.2197H213.265V95.124H210.848V87.3771Z" fill="#88D1C3"/>
    <path d="M156.869 71.2087C150.057 71.2087 136.659 66.6377 136.659 66.6377V71.864C136.659 71.864 141.525 77.8591 156.869 77.8591C172.214 77.8591 177.08 71.864 177.08 71.864V66.6377C177.08 66.6377 163.676 71.2087 156.869 71.2087Z" fill="#7996C9"/>
    <path d="M156.869 78.9939C146.362 78.9939 135.195 76.1553 135.195 70.8837V64.5576H137.466V70.8901C137.466 73.3297 144.85 76.7296 156.869 76.7296C168.889 76.7296 176.272 73.333 176.272 70.8901V64.5576H178.543V70.8901C178.543 76.1553 167.377 78.9939 156.869 78.9939Z" fill="#4F457C"/>
    <path d="M127.643 56.9346C126.822 61.4958 131.718 65.3303 138.79 67.3158L142.359 58.9719L127.643 56.9346Z" fill="white"/>
    <path d="M128.649 56.7432C127.942 60.1754 132.162 63.0595 138.264 64.555L141.343 58.2776L128.649 56.7432Z" fill="#88D1C3"/>
    <path d="M186.096 56.9346C186.916 61.4958 182.021 65.3303 174.949 67.3158L171.38 58.9719L186.096 56.9346Z" fill="white"/>
    <path d="M185.09 56.7432C185.8 60.1754 181.577 63.0595 175.478 64.555L172.399 58.2776L185.09 56.7432Z" fill="#88D1C3"/>
    <path d="M156.869 80.9246C156.568 80.9246 156.28 80.805 156.067 80.5921C155.854 80.3791 155.734 80.0903 155.734 79.7892V74.4851C155.734 74.1839 155.854 73.8951 156.067 73.6822C156.28 73.4692 156.568 73.3496 156.869 73.3496C157.171 73.3496 157.459 73.4692 157.672 73.6822C157.885 73.8951 158.005 74.1839 158.005 74.4851V79.8054C158.001 80.1037 157.879 80.3884 157.667 80.5978C157.454 80.8073 157.168 80.9247 156.869 80.9246Z" fill="#4F457C"/>
    <path d="M156.869 83.6528C158.86 83.6528 160.474 82.0391 160.474 80.0486C160.474 78.058 158.86 76.4443 156.869 76.4443C154.879 76.4443 153.265 78.058 153.265 80.0486C153.265 82.0391 154.879 83.6528 156.869 83.6528Z" fill="#88D1C3"/>
    <path d="M138.482 68.409C130.229 66.0895 125.648 61.6158 126.527 56.7302C126.579 56.442 126.74 56.185 126.977 56.0132C127.214 55.8414 127.509 55.7682 127.799 55.8088L142.514 57.8461L142.19 60.0943L128.694 58.2257C128.964 61.4179 132.869 64.4739 139.075 66.2192L138.482 68.409Z" fill="#4F457C"/>
    <path d="M175.257 68.409L174.644 66.2225C180.86 64.4771 184.766 61.4212 185.025 58.229L171.53 60.0976L171.205 57.8494L185.94 55.7991C186.23 55.7584 186.525 55.8315 186.763 56.0032C187.001 56.175 187.163 56.432 187.215 56.7204C188.094 61.6158 183.51 66.0895 175.257 68.409Z" fill="#4F457C"/>
    <path d="M156.869 70.8778C168.213 70.8778 177.408 67.7565 177.408 63.9062C177.408 60.0559 168.213 56.9346 156.869 56.9346C145.526 56.9346 136.331 60.0559 136.331 63.9062C136.331 67.7565 145.526 70.8778 156.869 70.8778Z" fill="white"/>
    <path d="M156.869 68.2176C166.697 68.2176 174.663 65.6918 174.663 62.5761C174.663 59.4604 166.697 56.9346 156.869 56.9346C147.042 56.9346 139.075 59.4604 139.075 62.5761C139.075 65.6918 147.042 68.2176 156.869 68.2176Z" fill="#88D1C3"/>
    <path d="M156.869 72.0194C146.362 72.0194 135.195 69.1776 135.195 63.9091C135.195 58.6407 146.362 55.7988 156.869 55.7988C167.377 55.7988 178.543 58.6407 178.543 63.9091C178.543 69.1776 167.377 72.0194 156.869 72.0194ZM156.869 58.0697C144.85 58.0697 137.466 61.4695 137.466 63.9091C137.466 66.3487 144.85 69.7485 156.869 69.7485C168.889 69.7485 176.272 66.3487 176.272 63.9091C176.272 61.4695 168.892 58.0697 156.869 58.0697Z" fill="#4F457C"/>
    <path d="M141.843 43.7408C140.762 45.0767 139.955 46.6125 139.469 48.2602C138.982 49.908 138.824 51.6355 139.005 53.3442C139.186 55.0529 139.701 56.7092 140.522 58.2186C141.343 59.7281 142.453 61.061 143.789 62.1414C145.651 63.6499 151.16 58.0992 154.495 53.976C157.83 49.8527 162.109 43.306 160.26 41.7975C158.923 40.7144 157.387 39.9054 155.737 39.4168C154.088 38.9283 152.359 38.7697 150.648 38.9502C148.938 39.1306 147.279 39.6467 145.768 40.4687C144.257 41.2907 142.923 42.4026 141.843 43.7408Z" fill="#88D1C3"/>
    <path d="M144.535 63.5267C144.004 63.5355 143.486 63.3576 143.072 63.0239C140.176 60.6408 138.339 57.21 137.961 53.4786C137.582 49.7472 138.693 46.0174 141.052 43.1015C143.411 40.1856 146.826 38.3197 150.555 37.9102C154.283 37.5008 158.022 38.5808 160.957 40.9152C162.952 42.5372 160.957 46.2258 160.308 47.4424C158.87 49.9954 157.215 52.4201 155.361 54.6897C153.529 56.9754 151.503 59.0994 149.307 61.0385C148.5 61.7327 146.378 63.5267 144.535 63.5267ZM152.039 40.0198C151.612 40.0199 151.185 40.0427 150.761 40.0879C149.203 40.2491 147.692 40.7171 146.316 41.4648C144.939 42.2126 143.724 43.2254 142.741 44.4448C140.749 46.9088 139.817 50.0632 140.149 53.2145C140.482 56.3657 142.053 59.2558 144.516 61.2493C145.353 61.551 149.243 58.654 153.625 53.2493C158.008 47.8446 160.023 43.4326 159.536 42.6605C157.416 40.9432 154.768 40.0104 152.039 40.0198Z" fill="#4F457C"/>
    <path d="M144.406 45.8131C140.23 50.9777 140.477 58.0986 144.957 61.7093C146.443 62.9096 151.426 57.7515 154.491 53.9623C157.557 50.1732 161.564 44.23 160.078 43.0167C155.598 39.406 148.581 40.6517 144.406 45.8131Z" fill="#4F457C"/>
    <path d="M140.876 67.6533H139.254V74.1805H140.876V67.6533Z" fill="#4F457C"/>
    <path d="M145.077 68.9473H143.455V76.0032H145.077V68.9473Z" fill="#4F457C"/>
    <path d="M149.278 70.0791H147.656V77.1351H149.278V70.0791Z" fill="#4F457C"/>
    <path d="M153.479 70.6152H151.857V77.5966H153.479V70.6152Z" fill="#4F457C"/>
    <path d="M174.485 67.6533H172.863V74.1805H174.485V67.6533Z" fill="#4F457C"/>
    <path d="M170.284 68.9473H168.662V76.0032H170.284V68.9473Z" fill="#4F457C"/>
    <path d="M166.083 70.0791H164.461V77.1351H166.083V70.0791Z" fill="#4F457C"/>
    <path d="M161.882 70.6152H160.26V77.5966H161.882V70.6152Z" fill="#4F457C"/>
    <path d="M156.869 66.3646C164.328 66.3646 170.375 64.8526 170.375 62.9875C170.375 61.1223 164.328 59.6104 156.869 59.6104C149.411 59.6104 143.364 61.1223 143.364 62.9875C143.364 64.8526 149.411 66.3646 156.869 66.3646Z" fill="#4F457C"/>
    <path d="M175.919 45.442L158.959 63.7822L160.627 65.324L177.586 46.9838L175.919 45.442Z" fill="#4F457C"/>
    <path d="M176.756 49.2947C178.458 49.2947 179.838 47.9149 179.838 46.2128C179.838 44.5107 178.458 43.1309 176.756 43.1309C175.054 43.1309 173.674 44.5107 173.674 46.2128C173.674 47.9149 175.054 49.2947 176.756 49.2947Z" fill="#4F457C"/>
    <path d="M170.207 32.4862L168.279 33.6855L175.797 45.7734L177.725 44.5741L170.207 32.4862Z" fill="#4F457C"/>
    <path d="M170.946 23.6362C170.797 23.7281 170.668 23.8485 170.565 23.9904C170.463 24.1324 170.39 24.2932 170.35 24.4636C170.31 24.6339 170.305 24.8105 170.333 24.9831C170.362 25.1556 170.425 25.3208 170.517 25.4691L170.657 25.693L161.989 31.088L161.849 30.8609C161.757 30.7118 161.636 30.5823 161.493 30.4799C161.351 30.3776 161.19 30.3042 161.019 30.2642C160.848 30.2241 160.671 30.2181 160.498 30.2464C160.325 30.2748 160.159 30.337 160.01 30.4294C159.861 30.5218 159.731 30.6428 159.629 30.7852C159.526 30.9277 159.453 31.0889 159.413 31.2597C159.373 31.4306 159.367 31.6076 159.395 31.7807C159.424 31.9538 159.486 32.1197 159.578 32.2688L164.003 39.3832C164.096 39.5323 164.217 39.6617 164.359 39.7641C164.502 39.8665 164.663 39.9398 164.834 39.9799C165.004 40.0199 165.181 40.026 165.355 39.9976C165.528 39.9693 165.694 39.9071 165.843 39.8146C165.992 39.7222 166.121 39.6013 166.224 39.4588C166.326 39.3163 166.399 39.1551 166.439 38.9843C166.479 38.8135 166.485 38.6365 166.457 38.4633C166.429 38.2902 166.367 38.1243 166.274 37.9752L166.131 37.7514L174.803 32.3564L174.942 32.5835C175.129 32.8846 175.428 33.0993 175.773 33.1802C176.118 33.2611 176.481 33.2017 176.782 33.015C177.083 32.8283 177.298 32.5296 177.379 32.1846C177.459 31.8397 177.4 31.4767 177.213 31.1755L172.779 24.0612C172.686 23.9129 172.565 23.7843 172.423 23.6826C172.281 23.581 172.12 23.5084 171.95 23.4689C171.78 23.4295 171.604 23.4239 171.431 23.4526C171.259 23.4813 171.094 23.5437 170.946 23.6362Z" fill="#4F457C"/>
    <path d="M29.5766 102.803C29.4132 102.803 29.2564 102.738 29.1408 102.622C29.0252 102.507 28.9603 102.35 28.9603 102.187V99.215C28.9603 99.0515 29.0252 98.8948 29.1408 98.7792C29.2564 98.6636 29.4132 98.5986 29.5766 98.5986C29.7401 98.5986 29.8969 98.6636 30.0125 98.7792C30.1281 98.8948 30.193 99.0515 30.193 99.215V102.19C30.1922 102.353 30.1269 102.509 30.0114 102.624C29.8959 102.739 29.7396 102.803 29.5766 102.803Z" fill="#88D1C3"/>
    <path d="M34.1346 104.389H31.1662C31.0028 104.389 30.846 104.324 30.7304 104.208C30.6148 104.093 30.5499 103.936 30.5499 103.773C30.5499 103.609 30.6148 103.452 30.7304 103.337C30.846 103.221 31.0028 103.156 31.1662 103.156H34.1346C34.2981 103.156 34.4549 103.221 34.5705 103.337C34.6861 103.452 34.751 103.609 34.751 103.773C34.751 103.936 34.6861 104.093 34.5705 104.208C34.4549 104.324 34.2981 104.389 34.1346 104.389Z" fill="#88D1C3"/>
    <path d="M29.5766 108.95C29.4132 108.95 29.2564 108.886 29.1408 108.77C29.0252 108.654 28.9603 108.498 28.9603 108.334V105.362C28.9603 105.199 29.0252 105.042 29.1408 104.927C29.2564 104.811 29.4132 104.746 29.5766 104.746C29.7401 104.746 29.8969 104.811 30.0125 104.927C30.1281 105.042 30.193 105.199 30.193 105.362V108.334C30.193 108.498 30.1281 108.654 30.0125 108.77C29.8969 108.886 29.7401 108.95 29.5766 108.95Z" fill="#88D1C3"/>
    <path d="M27.9903 104.389H25.0187C24.8552 104.389 24.6984 104.324 24.5828 104.208C24.4672 104.093 24.4023 103.936 24.4023 103.773C24.4023 103.609 24.4672 103.452 24.5828 103.337C24.6984 103.221 24.8552 103.156 25.0187 103.156H27.9903C28.1538 103.156 28.3105 103.221 28.4261 103.337C28.5417 103.452 28.6067 103.609 28.6067 103.773C28.6067 103.936 28.5417 104.093 28.4261 104.208C28.3105 104.324 28.1538 104.389 27.9903 104.389Z" fill="#88D1C3"/>
    <path d="M278.316 108.593H276.045V106.322C276.05 106.273 276.044 106.223 276.029 106.176C276.013 106.129 275.988 106.085 275.954 106.048C275.921 106.012 275.88 105.982 275.835 105.962C275.789 105.942 275.74 105.932 275.69 105.932C275.64 105.932 275.591 105.942 275.546 105.962C275.5 105.982 275.46 106.012 275.426 106.048C275.393 106.085 275.367 106.129 275.352 106.176C275.336 106.223 275.33 106.273 275.335 106.322V108.593H273.064C273.015 108.589 272.965 108.594 272.917 108.61C272.87 108.626 272.827 108.651 272.79 108.685C272.753 108.718 272.724 108.759 272.704 108.804C272.684 108.85 272.673 108.899 272.673 108.949C272.673 108.998 272.684 109.048 272.704 109.093C272.724 109.138 272.753 109.179 272.79 109.213C272.827 109.246 272.87 109.272 272.917 109.287C272.965 109.303 273.015 109.309 273.064 109.304H275.335V111.575C275.33 111.624 275.336 111.674 275.352 111.721C275.367 111.769 275.393 111.812 275.426 111.849C275.46 111.886 275.5 111.915 275.546 111.935C275.591 111.955 275.64 111.966 275.69 111.966C275.74 111.966 275.789 111.955 275.835 111.935C275.88 111.915 275.921 111.886 275.954 111.849C275.988 111.812 276.013 111.769 276.029 111.721C276.044 111.674 276.05 111.624 276.045 111.575V109.304H278.316C278.366 109.309 278.416 109.303 278.463 109.287C278.51 109.272 278.553 109.246 278.59 109.213C278.627 109.179 278.656 109.138 278.677 109.093C278.697 109.048 278.707 108.998 278.707 108.949C278.707 108.899 278.697 108.85 278.677 108.804C278.656 108.759 278.627 108.718 278.59 108.685C278.553 108.651 278.51 108.626 278.463 108.61C278.416 108.594 278.366 108.589 278.316 108.593Z" fill="#88D1C3"/>
    <path d="M108.334 39.9479C108.286 39.9479 108.238 39.9383 108.193 39.9197C108.148 39.901 108.108 39.8737 108.074 39.8394C108.04 39.805 108.013 39.7642 107.995 39.7193C107.976 39.6745 107.967 39.6265 107.968 39.578V37.2844C107.976 37.1928 108.019 37.1076 108.087 37.0456C108.155 36.9836 108.244 36.9492 108.336 36.9492C108.428 36.9492 108.517 36.9836 108.585 37.0456C108.653 37.1076 108.695 37.1928 108.704 37.2844V39.578C108.704 39.6761 108.665 39.7702 108.596 39.8396C108.526 39.9089 108.432 39.9479 108.334 39.9479Z" fill="#88D1C3"/>
    <path d="M111.059 41.6736H110.06C110.009 41.6784 109.957 41.6725 109.908 41.6561C109.859 41.6398 109.814 41.6135 109.776 41.5788C109.738 41.5442 109.708 41.502 109.687 41.4549C109.666 41.4078 109.656 41.3569 109.656 41.3054C109.656 41.2539 109.666 41.203 109.687 41.1559C109.708 41.1088 109.738 41.0666 109.776 41.0319C109.814 40.9972 109.859 40.9709 109.908 40.9546C109.957 40.9383 110.009 40.9324 110.06 40.9372H111.059C111.11 40.9324 111.162 40.9383 111.211 40.9546C111.26 40.9709 111.305 40.9972 111.343 41.0319C111.381 41.0666 111.411 41.1088 111.432 41.1559C111.453 41.203 111.464 41.2539 111.464 41.3054C111.464 41.3569 111.453 41.4078 111.432 41.4549C111.411 41.502 111.381 41.5442 111.343 41.5788C111.305 41.6135 111.26 41.6398 111.211 41.6561C111.162 41.6725 111.11 41.6784 111.059 41.6736Z" fill="#88D1C3"/>
    <path d="M108.334 45.693C108.286 45.693 108.238 45.6834 108.193 45.6648C108.148 45.6461 108.108 45.6189 108.074 45.5845C108.04 45.5501 108.013 45.5093 107.995 45.4644C107.976 45.4196 107.967 45.3716 107.968 45.3232V43.0296C107.976 42.9379 108.019 42.8527 108.087 42.7907C108.155 42.7287 108.244 42.6943 108.336 42.6943C108.428 42.6943 108.517 42.7287 108.585 42.7907C108.653 42.8527 108.695 42.9379 108.704 43.0296V45.3232C108.704 45.4212 108.665 45.5153 108.596 45.5847C108.526 45.654 108.432 45.693 108.334 45.693Z" fill="#88D1C3"/>
    <path d="M106.608 41.6736H105.609C105.558 41.6784 105.506 41.6725 105.457 41.6561C105.408 41.6398 105.364 41.6135 105.326 41.5788C105.287 41.5442 105.257 41.502 105.236 41.4549C105.215 41.4078 105.205 41.3569 105.205 41.3054C105.205 41.2539 105.215 41.203 105.236 41.1559C105.257 41.1088 105.287 41.0666 105.326 41.0319C105.364 40.9972 105.408 40.9709 105.457 40.9546C105.506 40.9383 105.558 40.9324 105.609 40.9372H106.608C106.66 40.9324 106.711 40.9383 106.76 40.9546C106.809 40.9709 106.854 40.9972 106.892 41.0319C106.93 41.0666 106.96 41.1088 106.981 41.1559C107.002 41.203 107.013 41.2539 107.013 41.3054C107.013 41.3569 107.002 41.4078 106.981 41.4549C106.96 41.502 106.93 41.5442 106.892 41.5788C106.854 41.6135 106.809 41.6398 106.76 41.6561C106.711 41.6725 106.66 41.6784 106.608 41.6736Z" fill="#88D1C3"/>
    <path d="M289.907 71.1626C289.907 71.1626 275.426 75.2113 258.478 67.8763C258.478 67.8763 257.969 67.1724 252.6 66.8447C247.231 66.5171 238.118 66.1083 234.55 63.9088C230.981 61.7093 232.042 59.9866 235.277 59.0037C238.511 58.0207 253.544 55.4351 256.957 55.6979C260.37 55.9607 264.467 52.2397 271.118 51.9769C277.768 51.7141 280.454 52.8853 280.454 52.8853L275.912 57.4724L285.645 56.2981C286.616 56.928 287.417 57.7891 287.974 58.8042C288.531 59.8194 288.827 60.9569 288.837 62.1148C288.862 64.3416 288.621 66.5635 288.117 68.7328L289.907 71.1626Z" fill="#88D1C3"/>
    <path d="M258.284 56.1592C265.557 56.1592 272.11 56.7593 276.753 57.7164L271.692 60.3117L279.014 64.0586C274.391 65.3238 266.832 66.1478 258.284 66.1478C244.211 66.1478 232.805 63.9126 232.805 61.1551C232.805 58.3976 244.211 56.1592 258.284 56.1592Z" fill="white"/>
    <path d="M288.198 70.8122C288.198 70.8122 279.763 72.0125 266.787 67.1982L258.44 67.487C258.44 67.487 273.839 75.3896 288.198 70.8122Z" fill="white"/>
    <path d="M232.195 69.7295V63.0693C232.195 63.0693 240.775 67.53 257.525 67.53L273.642 73.4083C273.642 73.4083 248.068 79.0856 232.195 69.7295Z" fill="#7996C9"/>
    <path d="M279.014 53.7157C279.014 53.7157 272.73 53.1318 268.467 54.4165V52.3759C268.467 52.3759 276.892 52.1391 279.014 53.7157Z" fill="white"/>
    <path d="M241.038 72.9055V66.4173L232.821 63.3613V70.0734C232.821 70.0734 234.822 72.5714 241.038 72.9055Z" fill="white"/>
    <path d="M256.285 68.0425C247.562 68.0425 231.066 66.6962 231.066 61.5964C231.066 56.4967 247.556 55.1504 256.285 55.1504C263.461 55.1504 270.258 55.8479 274.939 57.0612L274.368 59.2607C269.859 58.0896 263.27 57.4213 256.285 57.4213C249.933 57.4213 243.958 57.963 239.5 58.9493C234.381 60.0782 233.337 61.3239 233.337 61.5964C233.337 61.869 234.381 63.1147 239.5 64.2436C243.971 65.2169 249.933 65.7716 256.285 65.7716C265.762 65.7716 274.498 64.5064 278.021 62.6183L279.092 64.6232C275.202 66.6994 266.248 68.0425 256.285 68.0425Z" fill="#4F457C"/>
    <path d="M256.285 76.1749C247.562 76.1749 231.066 74.8286 231.066 69.7288V61.9072H233.337V69.7288C233.337 70.0013 234.381 71.2471 239.5 72.376C243.971 73.3492 249.933 73.904 256.285 73.904C264.487 73.904 271.968 72.9989 276.298 71.4871L277.048 73.6412C272.48 75.2243 264.72 76.1749 256.285 76.1749Z" fill="#4F457C"/>
    <path d="M258.284 65.4401C269.614 65.4401 278.8 63.5868 278.8 61.3006C278.8 59.0145 269.614 57.1611 258.284 57.1611C246.953 57.1611 237.768 59.0145 237.768 61.3006C237.768 63.5868 246.953 65.4401 258.284 65.4401Z" fill="#88D1C3"/>
    <path d="M232.195 64.6035H223.461V66.8744H232.195V64.6035Z" fill="#4F457C"/>
    <path d="M287.572 58.1509C287.572 58.1509 281.22 57.7454 274.203 61.5962L277.165 62.9198C277.165 62.9198 282.417 61.0706 288.195 61.5962C288.198 61.5962 288.681 59.5492 287.572 58.1509Z" fill="white"/>
    <path d="M222.514 69.2976C224.695 69.2976 226.462 67.5299 226.462 65.3495C226.462 63.169 224.695 61.4014 222.514 61.4014C220.334 61.4014 218.566 63.169 218.566 65.3495C218.566 67.5299 220.334 69.2976 222.514 69.2976Z" fill="#88D1C3"/>
    <path d="M288.727 70.167L286.673 69.1937C287.445 67.6102 287.839 65.8687 287.822 64.107C287.822 59.8896 286.138 57.2943 284.931 57.2943C278.965 57.2943 275.705 59.1208 271.753 61.6966L270.514 59.7923C274.657 57.0899 278.352 55.0234 284.931 55.0234C287.873 55.0234 290.092 58.9164 290.092 64.107C290.106 66.2048 289.639 68.2779 288.727 70.167Z" fill="#4F457C"/>
    <path d="M279.212 73.7582C275.849 73.7437 272.495 73.4311 269.187 72.8239C263.552 71.7955 257.288 69.7387 255.987 67.4711L257.956 66.3421C259.131 68.3892 274.657 73.6057 287.536 70.6276L278.06 64.6519L269.836 61.8263L270.576 59.6787L278.923 62.5465C279.007 62.5731 279.087 62.6113 279.16 62.6601L290.92 70.0729C291.102 70.188 291.248 70.3528 291.34 70.548C291.433 70.7431 291.467 70.9605 291.44 71.1746C291.414 71.3888 291.326 71.5908 291.189 71.7571C291.051 71.9234 290.869 72.047 290.663 72.1134C286.884 73.3494 282.887 73.7582 279.212 73.7582Z" fill="#4F457C"/>
    <path d="M275.731 59.0427L274.336 57.252L278.949 53.6575C269.83 51.6591 258.835 55.3704 257.963 56.8497L255.977 55.7467C257.7 52.6421 272.234 48.8659 281.788 52.0873C281.981 52.154 282.153 52.2719 282.286 52.4285C282.418 52.5851 282.505 52.7745 282.538 52.9767C282.572 53.1789 282.55 53.3864 282.475 53.5771C282.399 53.7677 282.274 53.9345 282.112 54.0598L275.731 59.0427Z" fill="#4F457C"/>
    <path d="M237.272 64.6943H235.65V72.7463H237.272V64.6943Z" fill="#4F457C"/>
    <path d="M241.833 65.7393H240.211V73.7912H241.833V65.7393Z" fill="#4F457C"/>
    <path d="M246.397 66.7871H244.775V74.839H246.397V66.7871Z" fill="#4F457C"/>
    <path d="M250.959 67.4873H249.337V75.1142H250.959V67.4873Z" fill="#4F457C"/>
    <path d="M255.523 67.4873H253.901V74.8385H255.523V67.4873Z" fill="#4F457C"/>
    <path d="M260.084 69.0938H258.462V75.1181H260.084V69.0938Z" fill="#4F457C"/>
    <path d="M264.649 70.9717H263.027V74.8387H264.649V70.9717Z" fill="#4F457C"/>
    <path d="M287.867 64.2334C287.825 65.5051 285.787 66.9033 283.001 65.1547C280.214 63.4061 282.913 66.3356 285.145 67.3867C287.377 68.4378 288.188 68.0874 288.188 68.0874L287.867 64.2334Z" fill="#4F457C"/>
    <path d="M297.742 57.5508C301.8 57.5508 306.219 60.451 308.506 63.3545C306.219 66.2742 301.8 69.1582 297.742 69.1582C296.203 69.1582 294.727 68.5468 293.638 67.4584C292.55 66.37 291.938 64.8938 291.938 63.3545C291.938 61.8153 292.55 60.3391 293.638 59.2507C294.727 58.1622 296.203 57.5508 297.742 57.5508Z" fill="#FF8080"/>
    <path d="M254.602 36.9211C253.304 37.8262 257.95 45.8262 260.954 50.1571C264.198 54.8221 269.924 61.5796 271.131 60.7426C272.695 59.6563 274.03 58.2725 275.059 56.6702C276.088 55.068 276.792 53.2787 277.13 51.4045C277.468 49.5303 277.433 47.6079 277.028 45.7471C276.623 43.8863 275.855 42.1235 274.769 40.5593C273.683 38.9952 272.299 37.6603 270.696 36.631C269.094 35.6016 267.305 34.8979 265.431 34.5601C263.557 34.2223 261.634 34.2569 259.773 34.662C257.913 35.0671 256.15 35.8347 254.586 36.9211H254.602Z" fill="#88D1C3"/>
    <path d="M254.371 37.3069C253.298 38.0499 257.534 45.2129 260.24 49.1123C263.16 53.3102 268.253 59.4286 269.243 58.7409C274.647 54.9907 275.698 47.1529 271.591 41.2226C267.484 35.2923 259.776 33.5697 254.371 37.3069Z" fill="#4F457C"/>
    <path d="M270.884 61.9626C269.781 61.9626 268.308 60.8336 265.966 58.2772C263.832 55.9158 261.847 53.4238 260.023 50.8158C258.245 48.237 256.62 45.556 255.157 42.7866C253.064 38.7509 252.73 36.8498 253.956 35.9966C255.643 34.8263 257.544 33.9998 259.55 33.5641C261.556 33.1284 263.629 33.0922 265.649 33.4574C267.67 33.8227 269.598 34.5823 271.325 35.6929C273.052 36.8035 274.543 38.2433 275.713 39.9301C276.883 41.617 277.71 43.5178 278.145 45.5241C278.581 47.5304 278.617 49.6028 278.252 51.6231C277.887 53.6434 277.127 55.572 276.017 57.2987C274.906 59.0255 273.466 60.5165 271.779 61.6868C271.518 61.8708 271.204 61.9673 270.884 61.9626ZM255.51 37.6706C255.633 39.2116 258.663 44.8563 261.888 49.5084C265.285 54.4005 269.418 58.9163 270.764 59.6073C273.568 57.5437 275.455 54.4674 276.025 51.0332C276.595 47.599 275.802 44.078 273.815 41.2195C271.828 38.361 268.804 36.3907 265.387 35.7279C261.969 35.0651 258.428 35.7621 255.517 37.6706H255.51Z" fill="#4F457C"/>
    <path d="M255.909 63.7532C264.45 63.7532 271.374 62.7016 271.374 61.4044C271.374 60.1072 264.45 59.0557 255.909 59.0557C247.368 59.0557 240.444 60.1072 240.444 61.4044C240.444 62.7016 247.368 63.7532 255.909 63.7532Z" fill="#4F457C"/>
    <path d="M251.338 62.5107L238.443 49.6932C238.335 49.5825 238.251 49.4514 238.196 49.3076C238.14 49.1638 238.114 49.0103 238.118 48.8562L238.355 40.4961L240.626 40.561L240.389 48.428L252.931 60.9016L251.338 62.5107Z" fill="#4F457C"/>
    <path d="M239.251 51.9705C240.953 51.9705 242.333 50.5907 242.333 48.8886C242.333 47.1865 240.953 45.8066 239.251 45.8066C237.549 45.8066 236.169 47.1865 236.169 48.8886C236.169 50.5907 237.549 51.9705 239.251 51.9705Z" fill="#4F457C"/>
    <path d="M239.637 42.2737C237.487 42.2737 235.386 41.6363 233.599 40.4421C231.812 39.248 230.419 37.5507 229.596 35.5648C228.774 33.579 228.558 31.3938 228.978 29.2857C229.397 27.1775 230.432 25.2411 231.952 23.7212C233.472 22.2013 235.408 21.1662 237.516 20.7469C239.625 20.3276 241.81 20.5428 243.796 21.3654C245.781 22.1879 247.479 23.5809 248.673 25.3681C249.867 27.1553 250.505 29.2564 250.505 31.4059C250.501 34.2872 249.355 37.0494 247.318 39.0868C245.28 41.1242 242.518 42.2703 239.637 42.2737ZM239.637 22.809C237.936 22.809 236.274 23.3132 234.86 24.2578C233.447 25.2025 232.345 26.5451 231.694 28.116C231.043 29.6869 230.873 31.4154 231.205 33.0831C231.537 34.7507 232.355 36.2825 233.558 37.4848C234.76 38.6871 236.292 39.5059 237.96 39.8376C239.627 40.1693 241.356 39.9991 242.927 39.3484C244.497 38.6977 245.84 37.5958 246.785 36.1821C247.729 34.7683 248.234 33.1062 248.234 31.4059C248.231 29.1266 247.324 26.9415 245.713 25.3298C244.101 23.7181 241.916 22.8115 239.637 22.809Z" fill="#4F457C"/>
    <path d="M238.573 33.739C238.709 34.43 239.101 34.8128 239.822 34.8128C240.795 34.8128 241.139 33.9823 241.139 32.0974C240.904 32.39 240.603 32.6225 240.26 32.7759C239.918 32.9294 239.544 32.9992 239.169 32.9798C237.473 32.9798 236.172 31.9222 236.172 29.8168C236.172 27.8087 237.47 26.5078 239.578 26.5078C242.397 26.5078 243.186 28.4218 243.186 31.4324C243.186 34.8128 242.397 36.6846 239.74 36.6846C237.583 36.6846 236.539 35.2604 236.428 33.739H238.573ZM240.947 29.846C240.947 28.9636 240.431 28.49 239.65 28.49C238.868 28.49 238.352 29.0058 238.352 29.833C238.352 30.5792 238.787 31.1307 239.695 31.1307C239.865 31.1417 240.036 31.1157 240.195 31.0546C240.354 30.9934 240.498 30.8986 240.617 30.7765C240.736 30.6545 240.827 30.5081 240.884 30.3475C240.941 30.1868 240.963 30.0158 240.947 29.846Z" fill="#88D1C3"/>
    <path d="M190.43 85.038C189.989 84.3405 185.959 83.0915 179.5 83.0915C173.041 83.0915 169.012 84.3437 168.571 85.038C168.595 84.9896 168.606 84.9361 168.603 84.8823H166.333C166.333 80.9342 178.151 80.8174 179.5 80.8174C180.85 80.8174 192.665 80.9342 192.665 84.8823H190.394C190.393 84.9363 190.405 84.9899 190.43 85.038Z" fill="#4F457C"/>
    <path d="M179.507 93.4311C178.157 93.4311 166.339 93.3175 166.339 89.3694V84.8828H168.61V89.2591C169.2 89.9664 173.194 91.1602 179.507 91.1602C185.82 91.1602 189.813 89.9664 190.401 89.2591V84.8828H192.672V89.3694C192.672 93.3175 180.853 93.4311 179.507 93.4311Z" fill="#4F457C"/>
    <path d="M126.122 86.8712C126.82 86.8712 127.387 86.3048 127.387 85.606C127.387 84.9073 126.82 84.3408 126.122 84.3408C125.423 84.3408 124.856 84.9073 124.856 85.606C124.856 86.3048 125.423 86.8712 126.122 86.8712Z" fill="#88D1C3"/>
    <path d="M116.535 60.6485C117.109 60.6485 117.573 60.1837 117.573 59.6104C117.573 59.037 117.109 58.5723 116.535 58.5723C115.962 58.5723 115.497 59.037 115.497 59.6104C115.497 60.1837 115.962 60.6485 116.535 60.6485Z" fill="#88D1C3"/>
    <path d="M133.324 30.3746C133.592 30.3746 133.81 30.1567 133.81 29.888C133.81 29.6192 133.592 29.4014 133.324 29.4014C133.055 29.4014 132.837 29.6192 132.837 29.888C132.837 30.1567 133.055 30.3746 133.324 30.3746Z" fill="#88D1C3"/>
    <path d="M107.968 9.45623C108.374 9.45623 108.704 9.12652 108.704 8.71981C108.704 8.3131 108.374 7.9834 107.968 7.9834C107.561 7.9834 107.231 8.3131 107.231 8.71981C107.231 9.12652 107.561 9.45623 107.968 9.45623Z" fill="#88D1C3"/>
    <path d="M23.5912 34.404C24.3222 34.404 24.9148 33.8114 24.9148 33.0804C24.9148 32.3494 24.3222 31.7568 23.5912 31.7568C22.8602 31.7568 22.2676 32.3494 22.2676 33.0804C22.2676 33.8114 22.8602 34.404 23.5912 34.404Z" fill="#88D1C3"/>
    <path d="M10.3325 88.5868C10.9722 88.5868 11.4907 88.0683 11.4907 87.4287C11.4907 86.789 10.9722 86.2705 10.3325 86.2705C9.6929 86.2705 9.17438 86.789 9.17438 87.4287C9.17438 88.0683 9.6929 88.5868 10.3325 88.5868Z" fill="#88D1C3"/>
    <path d="M72.3536 94.6444C72.5758 94.6444 72.7559 94.4643 72.7559 94.2421C72.7559 94.0199 72.5758 93.8398 72.3536 93.8398C72.1314 93.8398 71.9513 94.0199 71.9513 94.2421C71.9513 94.4643 72.1314 94.6444 72.3536 94.6444Z" fill="#88D1C3"/>
    <path d="M106.53 158.968C107.021 158.968 107.419 158.57 107.419 158.079C107.419 157.588 107.021 157.19 106.53 157.19C106.04 157.19 105.642 157.588 105.642 158.079C105.642 158.57 106.04 158.968 106.53 158.968Z" fill="#88D1C3"/>
    <path d="M121.525 189.862C122.062 189.862 122.498 189.427 122.498 188.889C122.498 188.352 122.062 187.916 121.525 187.916C120.987 187.916 120.552 188.352 120.552 188.889C120.552 189.427 120.987 189.862 121.525 189.862Z" fill="#88D1C3"/>
    <path d="M204.856 168.999C205.355 168.999 205.758 168.595 205.758 168.097C205.758 167.599 205.355 167.195 204.856 167.195C204.358 167.195 203.955 167.599 203.955 168.097C203.955 168.595 204.358 168.999 204.856 168.999Z" fill="#88D1C3"/>
    <path d="M246.099 171.734C247.045 171.734 247.812 170.968 247.812 170.022C247.812 169.075 247.045 168.309 246.099 168.309C245.153 168.309 244.386 169.075 244.386 170.022C244.386 170.968 245.153 171.734 246.099 171.734Z" fill="#88D1C3"/>
    <path d="M154.005 101.852C154.496 101.852 154.894 101.454 154.894 100.963C154.894 100.472 154.496 100.074 154.005 100.074C153.514 100.074 153.116 100.472 153.116 100.963C153.116 101.454 153.514 101.852 154.005 101.852Z" fill="#88D1C3"/>
    <path d="M200.85 44.2405C201.463 44.2405 201.959 43.7437 201.959 43.131C201.959 42.5182 201.463 42.0215 200.85 42.0215C200.237 42.0215 199.74 42.5182 199.74 43.131C199.74 43.7437 200.237 44.2405 200.85 44.2405Z" fill="#88D1C3"/>
    <path d="M254.203 90.1866C254.851 90.1866 255.377 89.6608 255.377 89.0123C255.377 88.3637 254.851 87.8379 254.203 87.8379C253.554 87.8379 253.028 88.3637 253.028 89.0123C253.028 89.6608 253.554 90.1866 254.203 90.1866Z" fill="#88D1C3"/>
    <path d="M302.79 82.9425C303.252 82.9425 303.627 82.5678 303.627 82.1055C303.627 81.6433 303.252 81.2686 302.79 81.2686C302.328 81.2686 301.953 81.6433 301.953 82.1055C301.953 82.5678 302.328 82.9425 302.79 82.9425Z" fill="#88D1C3"/>
    <path d="M186.187 16.1687C186.706 16.1687 187.127 15.7475 187.127 15.2279C187.127 14.7083 186.706 14.2871 186.187 14.2871C185.667 14.2871 185.246 14.7083 185.246 15.2279C185.246 15.7475 185.667 16.1687 186.187 16.1687Z" fill="#88D1C3"/>
    <path d="M275.682 27.4806C276.225 27.4806 276.665 27.0405 276.665 26.4976C276.665 25.9547 276.225 25.5146 275.682 25.5146C275.139 25.5146 274.699 25.9547 274.699 26.4976C274.699 27.0405 275.139 27.4806 275.682 27.4806Z" fill="#88D1C3"/>
</svg>
