<!-- "display: none" ensures the SVG doesn't take up space even though it's not being shown because of the use of symbol -->
<svg xmlns="http://www.w3.org/2000/svg" style="display:none;">
    <symbol id="wallet" viewBox="0 0 24 24">
        <g>
            <path d="M2.96992 2.771L13.9079 5.88C14.6491 6.12343 15.2964 6.59082 15.7606 7.21771C16.2249 7.8446 16.4832 8.6001 16.4999 9.38V19.89C16.5311 20.2218 16.481 20.5562 16.354 20.8643C16.2269 21.1724 16.0267 21.445 15.7707 21.6583C15.5147 21.8717 15.2106 22.0195 14.8846 22.089C14.5587 22.1584 14.2207 22.1475 13.8999 22.057L4.85192 19.597C4.11067 19.3664 3.46074 18.9084 2.99412 18.288C2.52751 17.6676 2.26786 16.9161 2.25192 16.14V4.688C2.2355 3.96162 2.507 3.25822 3.00719 2.73124C3.50738 2.20426 4.19567 1.89646 4.92192 1.875H18.7499C19.5456 1.875 20.3086 2.19107 20.8712 2.75368C21.4339 3.31629 21.7499 4.07935 21.7499 4.875V13.828C21.7464 14.2325 21.6631 14.6322 21.5048 15.0044C21.3465 15.3766 21.1162 15.7139 20.8273 15.997C20.5384 16.28 20.1965 16.5033 19.8211 16.654C19.4458 16.8046 19.0444 16.8798 18.6399 16.875H16.4999" fill="none" stroke-width="1.5" stroke-linecap="round" stroke-linejoin="round"/>
            <path d="M12.375 13.125C12.4492 13.125 12.5217 13.147 12.5833 13.1882C12.645 13.2294 12.6931 13.288 12.7215 13.3565C12.7498 13.425 12.7573 13.5004 12.7428 13.5732C12.7283 13.6459 12.6926 13.7127 12.6402 13.7652C12.5877 13.8176 12.5209 13.8533 12.4482 13.8678C12.3754 13.8823 12.3 13.8748 12.2315 13.8465C12.163 13.8181 12.1044 13.77 12.0632 13.7083C12.022 13.6467 12 13.5742 12 13.5C12 13.4005 12.0395 13.3052 12.1098 13.2348C12.1802 13.1645 12.2755 13.125 12.375 13.125" fill="none" stroke-width="1.5" stroke-linecap="round" stroke-linejoin="round"/>
            <path d="M21.75 9.375H16.5" fill="none" stroke-width="1.5" stroke-linecap="round" stroke-linejoin="round"/>
        </g>
        <g id="Invisible_Shape">
            <rect fill="none" stroke="none" width="24" height="24"></rect>
        </g>
    </symbol>
    
</svg>